<?xml version="1.0" encoding="UTF-8" standalone="no"?>
<!DOCTYPE svg PUBLIC "-//W3C//DTD SVG 1.1//EN"
 "http://www.w3.org/Graphics/SVG/1.1/DTD/svg11.dtd">
<!-- Generated by graphviz version 8.1.0 (20230707.0739)
 -->
<!-- Title: src/camera/Camera.hpp Pages: 1 -->
<svg width="695pt" height="256pt"
 viewBox="0.00 0.00 695.01 255.75" xmlns="http://www.w3.org/2000/svg" xmlns:xlink="http://www.w3.org/1999/xlink">
<g id="graph0" class="graph" transform="scale(1 1) rotate(0) translate(4 251.75)">
<title>src/camera/Camera.hpp</title>
<!-- Node1 -->
<g id="Node000001" class="node">
<title>Node1</title>
<g id="a_Node000001"><a xlink:title=" ">
<polygon fill="#999999" stroke="#666666" points="294.01,-247.75 161.76,-247.75 161.76,-227 294.01,-227 294.01,-247.75"/>
<text text-anchor="middle" x="227.89" y="-234.25" font-family="Helvetica,sans-Serif" font-size="10.00">src/camera/Camera.hpp</text>
</a>
</g>
</g>
<!-- Node2 -->
<g id="Node000002" class="node">
<title>Node2</title>
<g id="a_Node000002"><a xlink:href="paser_2Scene_8hpp.html" target="_top" xlink:title=" ">
<polygon fill="white" stroke="#666666" points="106.01,-191 9.76,-191 9.76,-170.25 106.01,-170.25 106.01,-191"/>
<text text-anchor="middle" x="57.89" y="-177.5" font-family="Helvetica,sans-Serif" font-size="10.00">paser/Scene.hpp</text>
</a>
</g>
</g>
<!-- Node1&#45;&gt;Node2 -->
<g id="edge1_Node000001_Node000002" class="edge">
<title>Node1&#45;&gt;Node2</title>
<g id="a_edge1_Node000001_Node000002"><a xlink:title=" ">
<path fill="none" stroke="#63b8ff" d="M187.22,-223.28C156.82,-213.49 115.91,-200.31 88.3,-191.42"/>
<polygon fill="#63b8ff" stroke="#63b8ff" points="185.9,-226.85 196.5,-226.59 188.05,-220.19 185.9,-226.85"/>
</a>
</g>
</g>
<!-- Node3 -->
<g id="Node000003" class="node">
<title>Node3</title>
<g id="a_Node000003"><a xlink:href="parse_8cpp.html" target="_top" xlink:title=" ">
<polygon fill="white" stroke="#666666" points="105.51,-77.5 12.26,-77.5 12.26,-56.75 105.51,-56.75 105.51,-77.5"/>
<text text-anchor="middle" x="58.89" y="-64" font-family="Helvetica,sans-Serif" font-size="10.00">paser/parse.cpp</text>
</a>
</g>
</g>
<!-- Node1&#45;&gt;Node3 -->
<g id="edge5_Node000001_Node000003" class="edge">
<title>Node1&#45;&gt;Node3</title>
<g id="a_edge5_Node000001_Node000003"><a xlink:title=" ">
<path fill="none" stroke="#63b8ff" d="M194.98,-221.74C180.69,-214.15 164.58,-203.77 152.89,-191 126.98,-162.7 138.8,-143.5 114.89,-113.5 103.35,-99.02 86.43,-86.11 74.22,-77.81"/>
<polygon fill="#63b8ff" stroke="#63b8ff" points="193,-225.17 203.51,-226.55 196.16,-218.92 193,-225.17"/>
</a>
</g>
</g>
<!-- Node5 -->
<g id="Node000005" class="node">
<title>Node5</title>
<g id="a_Node000005"><a xlink:href="Camera_8cpp.html" target="_top" xlink:title=" ">
<polygon fill="white" stroke="#666666" points="293.64,-191 162.14,-191 162.14,-170.25 293.64,-170.25 293.64,-191"/>
<text text-anchor="middle" x="227.89" y="-177.5" font-family="Helvetica,sans-Serif" font-size="10.00">src/camera/Camera.cpp</text>
</a>
</g>
</g>
<!-- Node1&#45;&gt;Node5 -->
<g id="edge6_Node000001_Node000005" class="edge">
<title>Node1&#45;&gt;Node5</title>
<g id="a_edge6_Node000001_Node000005"><a xlink:title=" ">
<path fill="none" stroke="#63b8ff" d="M227.89,-215.71C227.89,-207.34 227.89,-198.08 227.89,-191.33"/>
<polygon fill="#63b8ff" stroke="#63b8ff" points="224.39,-215.59 227.89,-225.59 231.39,-215.59 224.39,-215.59"/>
</a>
</g>
</g>
<!-- Node6 -->
<g id="Node000006" class="node">
<title>Node6</title>
<g id="a_Node000006"><a xlink:href="src_2core_2scene_2Scene_8hpp.html" target="_top" xlink:title=" ">
<polygon fill="white" stroke="#666666" points="537.39,-134.25 398.39,-134.25 398.39,-113.5 537.39,-113.5 537.39,-134.25"/>
<text text-anchor="middle" x="467.89" y="-120.75" font-family="Helvetica,sans-Serif" font-size="10.00">src/core/scene/Scene.hpp</text>
</a>
</g>
</g>
<!-- Node1&#45;&gt;Node6 -->
<g id="edge7_Node000001_Node000006" class="edge">
<title>Node1&#45;&gt;Node6</title>
<g id="a_edge7_Node000001_Node000006"><a xlink:title=" ">
<path fill="none" stroke="#63b8ff" d="M305.1,-227.05C356.23,-219.51 417.49,-207.45 437.89,-191 455.74,-176.59 463.37,-149.25 466.29,-134.65"/>
<polygon fill="#63b8ff" stroke="#63b8ff" points="304.76,-223.7 295.36,-228.59 305.75,-230.63 304.76,-223.7"/>
</a>
</g>
</g>
<!-- Node12 -->
<g id="Node000012" class="node">
<title>Node12</title>
<g id="a_Node000012"><a xlink:href="Parser_8hpp.html" target="_top" xlink:title=" ">
<polygon fill="white" stroke="#666666" points="428.51,-191 311.26,-191 311.26,-170.25 428.51,-170.25 428.51,-191"/>
<text text-anchor="middle" x="369.89" y="-177.5" font-family="Helvetica,sans-Serif" font-size="10.00">src/parser/Parser.hpp</text>
</a>
</g>
</g>
<!-- Node1&#45;&gt;Node12 -->
<g id="edge13_Node000001_Node000012" class="edge">
<title>Node1&#45;&gt;Node12</title>
<g id="a_edge13_Node000001_Node000012"><a xlink:title=" ">
<path fill="none" stroke="#63b8ff" d="M263.23,-222.75C288.56,-212.98 322.07,-200.06 344.72,-191.33"/>
<polygon fill="#63b8ff" stroke="#63b8ff" points="262.35,-219.72 254.27,-226.59 264.86,-226.25 262.35,-219.72"/>
</a>
</g>
</g>
<!-- Node2&#45;&gt;Node3 -->
<g id="edge2_Node000002_Node000003" class="edge">
<title>Node2&#45;&gt;Node3</title>
<g id="a_edge2_Node000002_Node000003"><a xlink:title=" ">
<path fill="none" stroke="#63b8ff" d="M30.17,-163.85C12.17,-151.38 -6.36,-132.9 2.89,-113.5 10.43,-97.69 26.47,-85.6 39.46,-77.89"/>
<polygon fill="#63b8ff" stroke="#63b8ff" points="28.09,-167.32 38.39,-169.8 31.88,-161.43 28.09,-167.32"/>
</a>
</g>
</g>
<!-- Node4 -->
<g id="Node000004" class="node">
<title>Node4</title>
<g id="a_Node000004"><a xlink:href="parse_8hpp.html" target="_top" xlink:title=" ">
<polygon fill="white" stroke="#666666" points="105.89,-134.25 11.89,-134.25 11.89,-113.5 105.89,-113.5 105.89,-134.25"/>
<text text-anchor="middle" x="58.89" y="-120.75" font-family="Helvetica,sans-Serif" font-size="10.00">paser/parse.hpp</text>
</a>
</g>
</g>
<!-- Node2&#45;&gt;Node4 -->
<g id="edge3_Node000002_Node000004" class="edge">
<title>Node2&#45;&gt;Node4</title>
<g id="a_edge3_Node000002_Node000004"><a xlink:title=" ">
<path fill="none" stroke="#63b8ff" d="M58.27,-158.96C58.42,-150.59 58.59,-141.33 58.71,-134.58"/>
<polygon fill="#63b8ff" stroke="#63b8ff" points="54.75,-158.77 58.07,-168.84 61.75,-158.9 54.75,-158.77"/>
</a>
</g>
</g>
<!-- Node4&#45;&gt;Node3 -->
<g id="edge4_Node000004_Node000003" class="edge">
<title>Node4&#45;&gt;Node3</title>
<g id="a_edge4_Node000004_Node000003"><a xlink:title=" ">
<path fill="none" stroke="#63b8ff" d="M58.89,-102.21C58.89,-93.84 58.89,-84.58 58.89,-77.83"/>
<polygon fill="#63b8ff" stroke="#63b8ff" points="55.39,-102.09 58.89,-112.09 62.39,-102.09 55.39,-102.09"/>
</a>
</g>
</g>
<!-- Node7 -->
<g id="Node000007" class="node">
<title>Node7</title>
<g id="a_Node000007"><a xlink:href="RayTracer_8hpp.html" target="_top" xlink:title=" ">
<polygon fill="white" stroke="#666666" points="530.64,-77.5 405.14,-77.5 405.14,-56.75 530.64,-56.75 530.64,-77.5"/>
<text text-anchor="middle" x="467.89" y="-64" font-family="Helvetica,sans-Serif" font-size="10.00">src/core/RayTracer.hpp</text>
</a>
</g>
</g>
<!-- Node6&#45;&gt;Node7 -->
<g id="edge8_Node000006_Node000007" class="edge">
<title>Node6&#45;&gt;Node7</title>
<g id="a_edge8_Node000006_Node000007"><a xlink:title=" ">
<path fill="none" stroke="#63b8ff" d="M467.89,-102.21C467.89,-93.84 467.89,-84.58 467.89,-77.83"/>
<polygon fill="#63b8ff" stroke="#63b8ff" points="464.39,-102.09 467.89,-112.09 471.39,-102.09 464.39,-102.09"/>
</a>
</g>
</g>
<!-- Node10 -->
<g id="Node000010" class="node">
<title>Node10</title>
<g id="a_Node000010"><a xlink:href="Image_8cpp.html" target="_top" xlink:title="Implémentation des méthodes de la classe Image pour gestion d&#39;image et affichage.">
<polygon fill="white" stroke="#666666" points="386.76,-77.5 247.01,-77.5 247.01,-56.75 386.76,-56.75 386.76,-77.5"/>
<text text-anchor="middle" x="316.89" y="-64" font-family="Helvetica,sans-Serif" font-size="10.00">src/core/scene/Image.cpp</text>
</a>
</g>
</g>
<!-- Node6&#45;&gt;Node10 -->
<g id="edge11_Node000006_Node000010" class="edge">
<title>Node6&#45;&gt;Node10</title>
<g id="a_edge11_Node000006_Node000010"><a xlink:title=" ">
<path fill="none" stroke="#63b8ff" d="M430.7,-109.39C403.81,-99.64 368.1,-86.69 343.9,-77.92"/>
<polygon fill="#63b8ff" stroke="#63b8ff" points="429.3,-112.97 439.89,-113.09 431.68,-106.39 429.3,-112.97"/>
</a>
</g>
</g>
<!-- Node11 -->
<g id="Node000011" class="node">
<title>Node11</title>
<g id="a_Node000011"><a xlink:href="Scene_8cpp.html" target="_top" xlink:title=" ">
<polygon fill="white" stroke="#666666" points="687.01,-77.5 548.76,-77.5 548.76,-56.75 687.01,-56.75 687.01,-77.5"/>
<text text-anchor="middle" x="617.89" y="-64" font-family="Helvetica,sans-Serif" font-size="10.00">src/core/scene/Scene.cpp</text>
</a>
</g>
</g>
<!-- Node6&#45;&gt;Node11 -->
<g id="edge12_Node000006_Node000011" class="edge">
<title>Node6&#45;&gt;Node11</title>
<g id="a_edge12_Node000006_Node000011"><a xlink:title=" ">
<path fill="none" stroke="#63b8ff" d="M504.83,-109.39C531.54,-99.64 567.02,-86.69 591.05,-77.92"/>
<polygon fill="#63b8ff" stroke="#63b8ff" points="503.9,-106.37 495.71,-113.09 506.3,-112.95 503.9,-106.37"/>
</a>
</g>
</g>
<!-- Node8 -->
<g id="Node000008" class="node">
<title>Node8</title>
<g id="a_Node000008"><a xlink:href="Main_8cpp.html" target="_top" xlink:title=" ">
<polygon fill="white" stroke="#666666" points="453.64,-20.75 352.14,-20.75 352.14,0 453.64,0 453.64,-20.75"/>
<text text-anchor="middle" x="402.89" y="-7.25" font-family="Helvetica,sans-Serif" font-size="10.00">src/core/Main.cpp</text>
</a>
</g>
</g>
<!-- Node7&#45;&gt;Node8 -->
<g id="edge9_Node000007_Node000008" class="edge">
<title>Node7&#45;&gt;Node8</title>
<g id="a_edge9_Node000007_Node000008"><a xlink:title=" ">
<path fill="none" stroke="#63b8ff" d="M448.05,-49.41C437.03,-40.13 423.71,-28.92 414.41,-21.08"/>
<polygon fill="#63b8ff" stroke="#63b8ff" points="445.36,-52.57 455.27,-56.34 449.87,-47.22 445.36,-52.57"/>
</a>
</g>
</g>
<!-- Node9 -->
<g id="Node000009" class="node">
<title>Node9</title>
<g id="a_Node000009"><a xlink:href="RayTracer_8cpp.html" target="_top" xlink:title=" ">
<polygon fill="white" stroke="#666666" points="596.26,-20.75 471.51,-20.75 471.51,0 596.26,0 596.26,-20.75"/>
<text text-anchor="middle" x="533.89" y="-7.25" font-family="Helvetica,sans-Serif" font-size="10.00">src/core/RayTracer.cpp</text>
</a>
</g>
</g>
<!-- Node7&#45;&gt;Node9 -->
<g id="edge10_Node000007_Node000009" class="edge">
<title>Node7&#45;&gt;Node9</title>
<g id="a_edge10_Node000007_Node000009"><a xlink:title=" ">
<path fill="none" stroke="#63b8ff" d="M488.03,-49.41C499.22,-40.13 512.74,-28.92 522.19,-21.08"/>
<polygon fill="#63b8ff" stroke="#63b8ff" points="486.15,-47.26 480.69,-56.34 490.62,-52.65 486.15,-47.26"/>
</a>
</g>
</g>
<!-- Node12&#45;&gt;Node6 -->
<g id="edge16_Node000012_Node000006" class="edge">
<title>Node12&#45;&gt;Node6</title>
<g id="a_edge16_Node000012_Node000006"><a xlink:title=" ">
<path fill="none" stroke="#63b8ff" d="M396.88,-164.54C414.01,-154.98 435.65,-142.88 450.52,-134.58"/>
<polygon fill="#63b8ff" stroke="#63b8ff" points="395.43,-161.9 388.41,-169.84 398.85,-168.02 395.43,-161.9"/>
</a>
</g>
</g>
<!-- Node12&#45;&gt;Node7 -->
<g id="edge14_Node000012_Node000007" class="edge">
<title>Node12&#45;&gt;Node7</title>
<g id="a_edge14_Node000012_Node000007"><a xlink:title=" ">
<path fill="none" stroke="#63b8ff" d="M371.67,-159.49C373.82,-145.37 378.53,-126.72 388.89,-113.5 401.96,-96.82 422.99,-85.17 440.07,-77.85"/>
<polygon fill="#63b8ff" stroke="#63b8ff" points="368.12,-158.73 370.41,-169.08 375.07,-159.56 368.12,-158.73"/>
</a>
</g>
</g>
<!-- Node12&#45;&gt;Node10 -->
<g id="edge15_Node000012_Node000010" class="edge">
<title>Node12&#45;&gt;Node10</title>
<g id="a_edge15_Node000012_Node000010"><a xlink:title=" ">
<path fill="none" stroke="#63b8ff" d="M360.73,-160.37C349.33,-136.38 330.3,-96.33 321.55,-77.93"/>
<polygon fill="#63b8ff" stroke="#63b8ff" points="357.92,-161.59 365.37,-169.12 364.24,-158.58 357.92,-161.59"/>
</a>
</g>
</g>
<!-- Node13 -->
<g id="Node000013" class="node">
<title>Node13</title>
<g id="a_Node000013"><a xlink:href="Parser_8cpp.html" target="_top" xlink:title="Implémentation des fonctions de parsing des configurations pour la caméra, primitives,...">
<polygon fill="white" stroke="#666666" points="304.14,-134.25 187.64,-134.25 187.64,-113.5 304.14,-113.5 304.14,-134.25"/>
<text text-anchor="middle" x="245.89" y="-120.75" font-family="Helvetica,sans-Serif" font-size="10.00">src/parser/Parser.cpp</text>
</a>
</g>
</g>
<!-- Node12&#45;&gt;Node13 -->
<g id="edge17_Node000012_Node000013" class="edge">
<title>Node12&#45;&gt;Node13</title>
<g id="a_edge17_Node000012_Node000013"><a xlink:title=" ">
<path fill="none" stroke="#63b8ff" d="M337.84,-165.47C315.87,-155.77 287.29,-143.16 267.86,-134.58"/>
<polygon fill="#63b8ff" stroke="#63b8ff" points="336.16,-169 346.72,-169.84 338.99,-162.6 336.16,-169"/>
</a>
</g>
</g>
</g>
</svg>
