<?xml version="1.0" encoding="UTF-8" standalone="no"?>
<!DOCTYPE svg PUBLIC "-//W3C//DTD SVG 1.1//EN"
 "http://www.w3.org/Graphics/SVG/1.1/DTD/svg11.dtd">
<!-- Generated by graphviz version 8.1.0 (20230707.0739)
 -->
<!-- Title: math::Matrix::Matrix Pages: 1 -->
<svg width="328pt" height="171pt"
 viewBox="0.00 0.00 328.00 170.50" xmlns="http://www.w3.org/2000/svg" xmlns:xlink="http://www.w3.org/1999/xlink">
<g id="graph0" class="graph" transform="scale(1 1) rotate(0) translate(4 166.5)">
<title>math::Matrix::Matrix</title>
<!-- Node1 -->
<g id="Node000001" class="node">
<title>Node1</title>
<g id="a_Node000001"><a xlink:title="Construct a matrix with given rows and columns.">
<polygon fill="#999999" stroke="#666666" points="116.5,-91.12 0,-91.12 0,-70.38 116.5,-70.38 116.5,-91.12"/>
<text text-anchor="middle" x="58.25" y="-77.62" font-family="Helvetica,sans-Serif" font-size="10.00">math::Matrix::Matrix</text>
</a>
</g>
</g>
<!-- Node2 -->
<g id="Node000002" class="node">
<title>Node2</title>
<g id="a_Node000002"><a xlink:href="classmath_1_1Matrix.html#a6ed991c22647a65f0b78018be6282675" target="_top" xlink:title="Initialize the inverse matrix with zeros.">
<polygon fill="white" stroke="#666666" points="312.12,-162.5 160.38,-162.5 160.38,-129 312.12,-129 312.12,-162.5"/>
<text text-anchor="start" x="168.38" y="-149" font-family="Helvetica,sans-Serif" font-size="10.00">math::Matrix::createInverse</text>
<text text-anchor="middle" x="236.25" y="-136.25" font-family="Helvetica,sans-Serif" font-size="10.00">Matrice</text>
</a>
</g>
</g>
<!-- Node1&#45;&gt;Node2 -->
<g id="edge1_Node000001_Node000002" class="edge">
<title>Node1&#45;&gt;Node2</title>
<g id="a_edge1_Node000001_Node000002"><a xlink:title=" ">
<path fill="none" stroke="#63b8ff" d="M83.16,-91.46C101.86,-99.67 128.6,-111.02 152.5,-119.75 157.5,-121.58 162.7,-123.39 167.94,-125.17"/>
<polygon fill="#63b8ff" stroke="#63b8ff" points="166.45,-128.7 177.04,-128.53 168.65,-122.05 166.45,-128.7"/>
</a>
</g>
</g>
<!-- Node3 -->
<g id="Node000003" class="node">
<title>Node3</title>
<g id="a_Node000003"><a xlink:href="classmath_1_1Matrix.html#a8fb5b799ea3539e7badd21083040f2c5" target="_top" xlink:title="Initialize the matrix with zeros.">
<polygon fill="white" stroke="#666666" points="312.5,-111.12 160,-111.12 160,-90.38 312.5,-90.38 312.5,-111.12"/>
<text text-anchor="middle" x="236.25" y="-97.62" font-family="Helvetica,sans-Serif" font-size="10.00">math::Matrix::createMatrice</text>
</a>
</g>
</g>
<!-- Node1&#45;&gt;Node3 -->
<g id="edge2_Node000001_Node000003" class="edge">
<title>Node1&#45;&gt;Node3</title>
<g id="a_edge2_Node000001_Node000003"><a xlink:title=" ">
<path fill="none" stroke="#63b8ff" d="M116.88,-87.3C127.1,-88.46 137.95,-89.69 148.77,-90.92"/>
<polygon fill="#63b8ff" stroke="#63b8ff" points="148.23,-94.5 158.56,-92.15 149.02,-87.54 148.23,-94.5"/>
</a>
</g>
</g>
<!-- Node4 -->
<g id="Node000004" class="node">
<title>Node4</title>
<g id="a_Node000004"><a xlink:href="classmath_1_1Matrix.html#a9941f876f86fe5033f33e76b3a31ec50" target="_top" xlink:title="Compute the inverse of the matrix using Gaussian elimination.">
<polygon fill="white" stroke="#666666" points="296.75,-72.12 175.75,-72.12 175.75,-51.38 296.75,-51.38 296.75,-72.12"/>
<text text-anchor="middle" x="236.25" y="-58.62" font-family="Helvetica,sans-Serif" font-size="10.00">math::Matrix::inverse</text>
</a>
</g>
</g>
<!-- Node1&#45;&gt;Node4 -->
<g id="edge3_Node000001_Node000004" class="edge">
<title>Node1&#45;&gt;Node4</title>
<g id="a_edge3_Node000001_Node000004"><a xlink:title=" ">
<path fill="none" stroke="#63b8ff" d="M116.88,-74.53C132.11,-72.88 148.73,-71.09 164.56,-69.38"/>
<polygon fill="#63b8ff" stroke="#63b8ff" points="164.81,-72.77 174.38,-68.21 164.06,-65.81 164.81,-72.77"/>
</a>
</g>
</g>
<!-- Node5 -->
<g id="Node000005" class="node">
<title>Node5</title>
<g id="a_Node000005"><a xlink:href="classmath_1_1Matrix.html#a7eb1070074d671d3ee37bd1f0a847fa4" target="_top" xlink:title="Set the inverse matrix to identity (only if square).">
<polygon fill="white" stroke="#666666" points="320,-33.5 152.5,-33.5 152.5,0 320,0 320,-33.5"/>
<text text-anchor="start" x="160.5" y="-20" font-family="Helvetica,sans-Serif" font-size="10.00">math::Matrix::setMatrixInverse</text>
<text text-anchor="middle" x="236.25" y="-7.25" font-family="Helvetica,sans-Serif" font-size="10.00">Indentity</text>
</a>
</g>
</g>
<!-- Node1&#45;&gt;Node5 -->
<g id="edge4_Node000001_Node000005" class="edge">
<title>Node1&#45;&gt;Node5</title>
<g id="a_edge4_Node000001_Node000005"><a xlink:title=" ">
<path fill="none" stroke="#63b8ff" d="M83.97,-70.03C102.64,-62.09 128.98,-51.22 152.5,-42.75 157.59,-40.92 162.89,-39.08 168.23,-37.29"/>
<polygon fill="#63b8ff" stroke="#63b8ff" points="169.11,-40.35 177.51,-33.9 166.92,-33.71 169.11,-40.35"/>
</a>
</g>
</g>
</g>
</svg>
