<?xml version="1.0" encoding="UTF-8" standalone="no"?>
<!DOCTYPE svg PUBLIC "-//W3C//DTD SVG 1.1//EN"
 "http://www.w3.org/Graphics/SVG/1.1/DTD/svg11.dtd">
<!-- Generated by graphviz version 8.1.0 (20230707.0739)
 -->
<!-- Title: raytracer::MatrixError Pages: 1 -->
<svg width="123pt" height="164pt"
 viewBox="0.00 0.00 123.00 164.00" xmlns="http://www.w3.org/2000/svg" xmlns:xlink="http://www.w3.org/1999/xlink">
<g id="graph0" class="graph" transform="scale(1 1) rotate(0) translate(4 160)">
<title>raytracer::MatrixError</title>
<!-- Node1 -->
<g id="Node000001" class="node">
<title>Node1</title>
<g id="a_Node000001"><a xlink:title="Exception levée lors d&#39;une erreur de manipulation de matrice.">
<polygon fill="#999999" stroke="none" points="115,-68 0,-68 0,0 115,0 115,-68"/>
<text text-anchor="start" x="5" y="-54.5" font-family="Helvetica,sans-Serif" font-size="10.00">raytracer::MatrixError</text>
<text text-anchor="start" x="14.12" y="-38.5" font-family="Helvetica,sans-Serif" font-size="10.00">&#45;</text>
<text text-anchor="start" x="32" y="-38.5" font-family="Helvetica,sans-Serif" font-size="10.00">mText</text>
<text text-anchor="start" x="11.88" y="-22.5" font-family="Helvetica,sans-Serif" font-size="10.00">+</text>
<text text-anchor="start" x="32" y="-22.5" font-family="Helvetica,sans-Serif" font-size="10.00">MatrixError()</text>
<text text-anchor="start" x="11.88" y="-6.5" font-family="Helvetica,sans-Serif" font-size="10.00">+</text>
<text text-anchor="start" x="32" y="-6.5" font-family="Helvetica,sans-Serif" font-size="10.00">what()</text>
<polygon fill="#666666" stroke="#666666" points="0,-50 0,-50 115,-50 115,-50 0,-50"/>
<polygon fill="#666666" stroke="#666666" points="0,-34 0,-34 30,-34 30,-34 0,-34"/>
<polygon fill="#666666" stroke="#666666" points="30,-34 30,-34 115,-34 115,-34 30,-34"/>
<polygon fill="none" stroke="#666666" points="0,0 0,-68 115,-68 115,0 0,0"/>
</a>
</g>
</g>
<!-- Node2 -->
<g id="Node000002" class="node">
<title>Node2</title>
<g id="a_Node000002"><a xlink:title=" ">
<polygon fill="white" stroke="none" points="86.5,-156 28.5,-156 28.5,-104 86.5,-104 86.5,-156"/>
<text text-anchor="start" x="33.5" y="-142.5" font-family="Helvetica,sans-Serif" font-size="10.00">exception</text>
<text text-anchor="start" x="56" y="-126.5" font-family="Helvetica,sans-Serif" font-size="10.00"> </text>
<text text-anchor="start" x="56" y="-110.5" font-family="Helvetica,sans-Serif" font-size="10.00"> </text>
<polygon fill="#666666" stroke="#666666" points="28.5,-138 28.5,-138 86.5,-138 86.5,-138 28.5,-138"/>
<polygon fill="#666666" stroke="#666666" points="28.5,-122 28.5,-122 86.5,-122 86.5,-122 28.5,-122"/>
<polygon fill="none" stroke="#666666" points="28.5,-104 28.5,-156 86.5,-156 86.5,-104 28.5,-104"/>
</a>
</g>
</g>
<!-- Node2&#45;&gt;Node1 -->
<g id="edge1_Node000001_Node000002" class="edge">
<title>Node2&#45;&gt;Node1</title>
<g id="a_edge1_Node000001_Node000002"><a xlink:title=" ">
<path fill="none" stroke="#63b8ff" d="M57.5,-93.55C57.5,-85.06 57.5,-76.03 57.5,-67.67"/>
<polygon fill="none" stroke="#63b8ff" points="54,-93.3 57.5,-103.3 61,-93.3 54,-93.3"/>
</a>
</g>
</g>
</g>
</svg>
