<?xml version="1.0" encoding="UTF-8" standalone="no"?>
<!DOCTYPE svg PUBLIC "-//W3C//DTD SVG 1.1//EN"
 "http://www.w3.org/Graphics/SVG/1.1/DTD/svg11.dtd">
<!-- Generated by graphviz version 8.1.0 (20230707.0739)
 -->
<!-- Title: raytracer::Color::Color Pages: 1 -->
<svg width="315pt" height="146pt"
 viewBox="0.00 0.00 314.50 145.75" xmlns="http://www.w3.org/2000/svg" xmlns:xlink="http://www.w3.org/1999/xlink">
<g id="graph0" class="graph" transform="scale(1 1) rotate(0) translate(4 141.75)">
<title>raytracer::Color::Color</title>
<!-- Node1 -->
<g id="Node000001" class="node">
<title>Node1</title>
<g id="a_Node000001"><a xlink:title=" ">
<polygon fill="#999999" stroke="#666666" points="306.5,-78.75 183.25,-78.75 183.25,-58 306.5,-58 306.5,-78.75"/>
<text text-anchor="middle" x="244.88" y="-65.25" font-family="Helvetica,sans-Serif" font-size="10.00">raytracer::Color::Color</text>
</a>
</g>
</g>
<!-- Node2 -->
<g id="Node000002" class="node">
<title>Node2</title>
<g id="a_Node000002"><a xlink:href="classraytracer_1_1Color.html#a5dcc9e54aa43efc0fd9e50c51413e470" target="_top" xlink:title=" ">
<polygon fill="white" stroke="#666666" points="145.75,-137.75 1.5,-137.75 1.5,-117 145.75,-117 145.75,-137.75"/>
<text text-anchor="middle" x="73.62" y="-124.25" font-family="Helvetica,sans-Serif" font-size="10.00">raytracer::Color::operator*</text>
</a>
</g>
</g>
<!-- Node1&#45;&gt;Node2 -->
<g id="edge1_Node000001_Node000002" class="edge">
<title>Node1&#45;&gt;Node2</title>
<g id="a_edge1_Node000001_Node000002"><a xlink:title=" ">
<path fill="none" stroke="#63b8ff" d="M209.63,-83.32C191.31,-91.02 168.26,-100.27 147.25,-107.38 137.59,-110.64 127.07,-113.78 117.12,-116.55"/>
<polygon fill="#63b8ff" stroke="#63b8ff" points="210.71,-86.23 218.54,-79.1 207.97,-79.79 210.71,-86.23"/>
</a>
</g>
</g>
<!-- Node3 -->
<g id="Node000003" class="node">
<title>Node3</title>
<g id="a_Node000003"><a xlink:href="classraytracer_1_1Color.html#aafd0fd139d3fdc8719208d58644c61cb" target="_top" xlink:title=" ">
<polygon fill="white" stroke="#666666" points="145.75,-98.75 1.5,-98.75 1.5,-78 145.75,-78 145.75,-98.75"/>
<text text-anchor="middle" x="73.62" y="-85.25" font-family="Helvetica,sans-Serif" font-size="10.00">raytracer::Color::operator*</text>
</a>
</g>
</g>
<!-- Node1&#45;&gt;Node3 -->
<g id="edge2_Node000001_Node000003" class="edge">
<title>Node1&#45;&gt;Node3</title>
<g id="a_edge2_Node000001_Node000003"><a xlink:title=" ">
<path fill="none" stroke="#63b8ff" d="M171.99,-76.87C163.39,-77.89 154.6,-78.92 146,-79.94"/>
<polygon fill="#63b8ff" stroke="#63b8ff" points="172.25,-80.24 181.77,-75.6 171.43,-73.29 172.25,-80.24"/>
</a>
</g>
</g>
<!-- Node4 -->
<g id="Node000004" class="node">
<title>Node4</title>
<g id="a_Node000004"><a xlink:href="classraytracer_1_1Color.html#a97464c2a25697cb69219430ebccd9df7" target="_top" xlink:title=" ">
<polygon fill="white" stroke="#666666" points="147.25,-59.75 0,-59.75 0,-39 147.25,-39 147.25,-59.75"/>
<text text-anchor="middle" x="73.62" y="-46.25" font-family="Helvetica,sans-Serif" font-size="10.00">raytracer::Color::operator+</text>
</a>
</g>
</g>
<!-- Node1&#45;&gt;Node4 -->
<g id="edge3_Node000001_Node000004" class="edge">
<title>Node1&#45;&gt;Node4</title>
<g id="a_edge3_Node000001_Node000004"><a xlink:title=" ">
<path fill="none" stroke="#63b8ff" d="M171.88,-60.29C163.79,-59.39 155.55,-58.46 147.46,-57.55"/>
<polygon fill="#63b8ff" stroke="#63b8ff" points="171.44,-63.88 181.77,-61.52 172.22,-56.92 171.44,-63.88"/>
</a>
</g>
</g>
<!-- Node5 -->
<g id="Node000005" class="node">
<title>Node5</title>
<g id="a_Node000005"><a xlink:href="classraytracer_1_1Color.html#a6941777a134973c7671e76ecfc1c182f" target="_top" xlink:title=" ">
<polygon fill="white" stroke="#666666" points="144.62,-20.75 2.62,-20.75 2.62,0 144.62,0 144.62,-20.75"/>
<text text-anchor="middle" x="73.62" y="-7.25" font-family="Helvetica,sans-Serif" font-size="10.00">raytracer::Color::operator/</text>
</a>
</g>
</g>
<!-- Node1&#45;&gt;Node5 -->
<g id="edge4_Node000001_Node000005" class="edge">
<title>Node1&#45;&gt;Node5</title>
<g id="a_edge4_Node000001_Node000005"><a xlink:title=" ">
<path fill="none" stroke="#63b8ff" d="M208.58,-53.46C190.43,-46.05 167.84,-37.24 147.25,-30.38 137.45,-27.11 126.78,-23.95 116.71,-21.15"/>
<polygon fill="#63b8ff" stroke="#63b8ff" points="207.14,-57.06 217.71,-57.63 209.8,-50.59 207.14,-57.06"/>
</a>
</g>
</g>
</g>
</svg>
