<?xml version="1.0" encoding="UTF-8" standalone="no"?>
<!DOCTYPE svg PUBLIC "-//W3C//DTD SVG 1.1//EN"
 "http://www.w3.org/Graphics/SVG/1.1/DTD/svg11.dtd">
<!-- Generated by graphviz version 8.1.0 (20230707.0739)
 -->
<!-- Title: raytracer::PointLight Pages: 1 -->
<svg width="133pt" height="308pt"
 viewBox="0.00 0.00 133.00 308.00" xmlns="http://www.w3.org/2000/svg" xmlns:xlink="http://www.w3.org/1999/xlink">
<g id="graph0" class="graph" transform="scale(1 1) rotate(0) translate(4 304)">
<title>raytracer::PointLight</title>
<!-- Node1 -->
<g id="Node000001" class="node">
<title>Node1</title>
<g id="a_Node000001"><a xlink:title="Classe représentant une source lumineuse ponctuelle (point light).">
<polygon fill="#999999" stroke="none" points="117,-148 8,-148 8,0 117,0 117,-148"/>
<text text-anchor="start" x="13" y="-134.5" font-family="Helvetica,sans-Serif" font-size="10.00">raytracer::PointLight</text>
<text text-anchor="start" x="12.38" y="-118.5" font-family="Helvetica,sans-Serif" font-size="10.00">+</text>
<text text-anchor="start" x="25" y="-118.5" font-family="Helvetica,sans-Serif" font-size="10.00">mOrigin</text>
<text text-anchor="start" x="12.38" y="-102.5" font-family="Helvetica,sans-Serif" font-size="10.00">+</text>
<text text-anchor="start" x="25" y="-102.5" font-family="Helvetica,sans-Serif" font-size="10.00">mColor</text>
<text text-anchor="start" x="12.38" y="-86.5" font-family="Helvetica,sans-Serif" font-size="10.00">+</text>
<text text-anchor="start" x="25" y="-86.5" font-family="Helvetica,sans-Serif" font-size="10.00">mAllMatrix</text>
<text text-anchor="start" x="12.38" y="-70.5" font-family="Helvetica,sans-Serif" font-size="10.00">+</text>
<text text-anchor="start" x="25" y="-70.5" font-family="Helvetica,sans-Serif" font-size="10.00">mVectorRotation</text>
<text text-anchor="start" x="12.38" y="-54.5" font-family="Helvetica,sans-Serif" font-size="10.00">+</text>
<text text-anchor="start" x="25" y="-54.5" font-family="Helvetica,sans-Serif" font-size="10.00">PointLight()</text>
<text text-anchor="start" x="12.38" y="-38.5" font-family="Helvetica,sans-Serif" font-size="10.00">+</text>
<text text-anchor="start" x="25" y="-38.5" font-family="Helvetica,sans-Serif" font-size="10.00">PointLight()</text>
<text text-anchor="start" x="12.38" y="-22.5" font-family="Helvetica,sans-Serif" font-size="10.00">+</text>
<text text-anchor="start" x="25" y="-22.5" font-family="Helvetica,sans-Serif" font-size="10.00">~PointLight()</text>
<text text-anchor="start" x="12.38" y="-6.5" font-family="Helvetica,sans-Serif" font-size="10.00">+</text>
<text text-anchor="start" x="25" y="-6.5" font-family="Helvetica,sans-Serif" font-size="10.00">getColorShadow()</text>
<polygon fill="#666666" stroke="#666666" points="8,-130 8,-130 117,-130 117,-130 8,-130"/>
<polygon fill="#666666" stroke="#666666" points="8,-66 8,-66 23,-66 23,-66 8,-66"/>
<polygon fill="#666666" stroke="#666666" points="23,-66 23,-66 117,-66 117,-66 23,-66"/>
<polygon fill="none" stroke="#666666" points="8,0 8,-148 117,-148 117,0 8,0"/>
</a>
</g>
</g>
<!-- Node2 -->
<g id="Node000002" class="node">
<title>Node2</title>
<g id="a_Node000002"><a xlink:href="classraytracer_1_1ILight.html" target="_top" xlink:title="Interface abstraite représentant une source lumineuse dans la scène.">
<polygon fill="white" stroke="none" points="125,-300 0,-300 0,-184 125,-184 125,-300"/>
<text text-anchor="start" x="23.88" y="-286.5" font-family="Helvetica,sans-Serif" font-size="10.00">raytracer::ILight</text>
<text text-anchor="start" x="3.88" y="-270.5" font-family="Helvetica,sans-Serif" font-size="10.00">+</text>
<text text-anchor="start" x="16" y="-270.5" font-family="Helvetica,sans-Serif" font-size="10.00">mBaseOrigin</text>
<text text-anchor="start" x="3.88" y="-254.5" font-family="Helvetica,sans-Serif" font-size="10.00">+</text>
<text text-anchor="start" x="16" y="-254.5" font-family="Helvetica,sans-Serif" font-size="10.00">mBaseDirection</text>
<text text-anchor="start" x="3.88" y="-238.5" font-family="Helvetica,sans-Serif" font-size="10.00">+</text>
<text text-anchor="start" x="16" y="-238.5" font-family="Helvetica,sans-Serif" font-size="10.00">mBaseColor</text>
<text text-anchor="start" x="3.88" y="-222.5" font-family="Helvetica,sans-Serif" font-size="10.00">+</text>
<text text-anchor="start" x="16" y="-222.5" font-family="Helvetica,sans-Serif" font-size="10.00">mBaseVectorRotation</text>
<text text-anchor="start" x="3.88" y="-206.5" font-family="Helvetica,sans-Serif" font-size="10.00">+</text>
<text text-anchor="start" x="16" y="-206.5" font-family="Helvetica,sans-Serif" font-size="10.00">~ILight()</text>
<text text-anchor="start" x="3.88" y="-190.5" font-family="Helvetica,sans-Serif" font-size="10.00">+</text>
<text text-anchor="start" x="16" y="-190.5" font-family="Helvetica,sans-Serif" font-size="10.00">getColorShadow()</text>
<polygon fill="#666666" stroke="#666666" points="0,-282 0,-282 125,-282 125,-282 0,-282"/>
<polygon fill="#666666" stroke="#666666" points="0,-218 0,-218 14,-218 14,-218 0,-218"/>
<polygon fill="#666666" stroke="#666666" points="14,-218 14,-218 125,-218 125,-218 14,-218"/>
<polygon fill="none" stroke="#666666" points="0,-184 0,-300 125,-300 125,-184 0,-184"/>
</a>
</g>
</g>
<!-- Node2&#45;&gt;Node1 -->
<g id="edge1_Node000001_Node000002" class="edge">
<title>Node2&#45;&gt;Node1</title>
<g id="a_edge1_Node000001_Node000002"><a xlink:title=" ">
<path fill="none" stroke="#63b8ff" d="M62.5,-173.42C62.5,-164.99 62.5,-156.35 62.5,-147.84"/>
<polygon fill="none" stroke="#63b8ff" points="59,-173.34 62.5,-183.34 66,-173.34 59,-173.34"/>
</a>
</g>
</g>
</g>
</svg>
