<?xml version="1.0" encoding="UTF-8" standalone="no"?>
<!DOCTYPE svg PUBLIC "-//W3C//DTD SVG 1.1//EN"
 "http://www.w3.org/Graphics/SVG/1.1/DTD/svg11.dtd">
<!-- Generated by graphviz version 8.1.0 (20230707.0739)
 -->
<!-- Title: raytracer::ErrorHandler::report Pages: 1 -->
<svg width="771pt" height="228pt"
 viewBox="0.00 0.00 771.25 227.89" xmlns="http://www.w3.org/2000/svg" xmlns:xlink="http://www.w3.org/1999/xlink">
<g id="graph0" class="graph" transform="scale(1 1) rotate(0) translate(4 223.89)">
<title>raytracer::ErrorHandler::report</title>
<!-- Node1 -->
<g id="Node000001" class="node">
<title>Node1</title>
<g id="a_Node000001"><a xlink:title=" ">
<polygon fill="#999999" stroke="#666666" points="763.25,-134.5 635.5,-134.5 635.5,-101 763.25,-101 763.25,-134.5"/>
<text text-anchor="start" x="643.5" y="-121" font-family="Helvetica,sans-Serif" font-size="10.00">raytracer::ErrorHandler</text>
<text text-anchor="middle" x="699.38" y="-108.25" font-family="Helvetica,sans-Serif" font-size="10.00">::report</text>
</a>
</g>
</g>
<!-- Node2 -->
<g id="Node000002" class="node">
<title>Node2</title>
<g id="a_Node000002"><a xlink:href="classraytracer_1_1Parser.html#addb81b943ef495a2b524f080eeba6294" target="_top" xlink:title=" ">
<polygon fill="white" stroke="#666666" points="102.25,-155.5 0,-155.5 0,-122 102.25,-122 102.25,-155.5"/>
<text text-anchor="start" x="8" y="-142" font-family="Helvetica,sans-Serif" font-size="10.00">raytracer::Parser::</text>
<text text-anchor="middle" x="51.12" y="-129.25" font-family="Helvetica,sans-Serif" font-size="10.00">parse</text>
</a>
</g>
</g>
<!-- Node1&#45;&gt;Node2 -->
<g id="edge1_Node000001_Node000002" class="edge">
<title>Node1&#45;&gt;Node2</title>
<g id="a_edge1_Node000001_Node000002"><a xlink:title=" ">
<path fill="none" stroke="#63b8ff" d="M668.3,-141.14C649.53,-154.54 624.3,-170.5 599.5,-179.75 464.42,-230.15 420.1,-222.63 276.5,-209.75 214.31,-204.17 197.23,-205.26 138.25,-184.75 117.44,-177.51 95.55,-165.76 79.05,-155.95"/>
<polygon fill="#63b8ff" stroke="#63b8ff" points="669.96,-143.53 675.97,-134.8 665.83,-137.88 669.96,-143.53"/>
</a>
</g>
</g>
<!-- Node3 -->
<g id="Node000003" class="node">
<title>Node3</title>
<g id="a_Node000003"><a xlink:href="classraytracer_1_1Parser.html#adcdaea0d7038fcfe6d586fc7ac40a680" target="_top" xlink:title=" ">
<polygon fill="white" stroke="#666666" points="392.62,-200.5 290.38,-200.5 290.38,-167 392.62,-167 392.62,-200.5"/>
<text text-anchor="start" x="298.38" y="-187" font-family="Helvetica,sans-Serif" font-size="10.00">raytracer::Parser::</text>
<text text-anchor="middle" x="341.5" y="-174.25" font-family="Helvetica,sans-Serif" font-size="10.00">parseCamera</text>
</a>
</g>
</g>
<!-- Node1&#45;&gt;Node3 -->
<g id="edge2_Node000001_Node000003" class="edge">
<title>Node1&#45;&gt;Node3</title>
<g id="a_edge2_Node000001_Node000003"><a xlink:title=" ">
<path fill="none" stroke="#63b8ff" d="M649.17,-138.88C633.54,-144.85 616.02,-150.79 599.5,-154.75 528.98,-171.65 445.16,-178.77 392.88,-181.72"/>
<polygon fill="#63b8ff" stroke="#63b8ff" points="650.11,-141.88 658.14,-134.97 647.55,-135.36 650.11,-141.88"/>
</a>
</g>
</g>
<!-- Node4 -->
<g id="Node000004" class="node">
<title>Node4</title>
<g id="a_Node000004"><a xlink:href="classraytracer_1_1Parser.html#a3a71c0519348da9f3c3f1bd03cb4963f" target="_top" xlink:title=" ">
<polygon fill="white" stroke="#666666" points="240.5,-155.5 138.25,-155.5 138.25,-122 240.5,-122 240.5,-155.5"/>
<text text-anchor="start" x="146.25" y="-142" font-family="Helvetica,sans-Serif" font-size="10.00">raytracer::Parser::</text>
<text text-anchor="middle" x="189.38" y="-129.25" font-family="Helvetica,sans-Serif" font-size="10.00">parseLights</text>
</a>
</g>
</g>
<!-- Node1&#45;&gt;Node4 -->
<g id="edge4_Node000001_Node000004" class="edge">
<title>Node1&#45;&gt;Node4</title>
<g id="a_edge4_Node000001_Node000004"><a xlink:title=" ">
<path fill="none" stroke="#63b8ff" d="M624.26,-120.81C519.45,-125.15 330.68,-132.95 240.71,-136.67"/>
<polygon fill="#63b8ff" stroke="#63b8ff" points="624.22,-124.28 634.06,-120.37 623.93,-117.28 624.22,-124.28"/>
</a>
</g>
</g>
<!-- Node5 -->
<g id="Node000005" class="node">
<title>Node5</title>
<g id="a_Node000005"><a xlink:href="classraytracer_1_1Parser.html#af41e64e2026f285ed1d0288cf2838bea" target="_top" xlink:title=" ">
<polygon fill="white" stroke="#666666" points="572.12,-112.5 469.88,-112.5 469.88,-79 572.12,-79 572.12,-112.5"/>
<text text-anchor="start" x="477.88" y="-99" font-family="Helvetica,sans-Serif" font-size="10.00">raytracer::Parser::</text>
<text text-anchor="middle" x="521" y="-86.25" font-family="Helvetica,sans-Serif" font-size="10.00">Parser</text>
</a>
</g>
</g>
<!-- Node1&#45;&gt;Node5 -->
<g id="edge6_Node000001_Node000005" class="edge">
<title>Node1&#45;&gt;Node5</title>
<g id="a_edge6_Node000001_Node000005"><a xlink:title=" ">
<path fill="none" stroke="#63b8ff" d="M624.45,-108.53C606.98,-106.35 588.75,-104.08 572.59,-102.06"/>
<polygon fill="#63b8ff" stroke="#63b8ff" points="623.84,-112.1 634.2,-109.87 624.71,-105.16 623.84,-112.1"/>
</a>
</g>
</g>
<!-- Node6 -->
<g id="Node000006" class="node">
<title>Node6</title>
<g id="a_Node000006"><a xlink:href="namespaceraytracer.html#a5eda32471807534b237361fc8ecb497d" target="_top" xlink:title=" ">
<polygon fill="white" stroke="#666666" points="596.12,-61.12 445.88,-61.12 445.88,-40.38 596.12,-40.38 596.12,-61.12"/>
<text text-anchor="middle" x="521" y="-47.62" font-family="Helvetica,sans-Serif" font-size="10.00">raytracer::parseSinglePlane</text>
</a>
</g>
</g>
<!-- Node1&#45;&gt;Node6 -->
<g id="edge7_Node000001_Node000006" class="edge">
<title>Node1&#45;&gt;Node6</title>
<g id="a_edge7_Node000001_Node000006"><a xlink:title=" ">
<path fill="none" stroke="#63b8ff" d="M658.1,-95.8C640.48,-86.83 619.34,-76.91 599.5,-69.75 591.03,-66.69 581.86,-63.97 572.9,-61.59"/>
<polygon fill="#63b8ff" stroke="#63b8ff" points="656,-99.17 666.49,-100.66 659.22,-92.96 656,-99.17"/>
</a>
</g>
</g>
<!-- Node9 -->
<g id="Node000009" class="node">
<title>Node9</title>
<g id="a_Node000009"><a xlink:href="namespaceraytracer.html#a310c81c5492c10a7354fe1b0ff32dff7" target="_top" xlink:title=" ">
<polygon fill="white" stroke="#666666" points="599.5,-22.12 442.5,-22.12 442.5,-1.38 599.5,-1.38 599.5,-22.12"/>
<text text-anchor="middle" x="521" y="-8.62" font-family="Helvetica,sans-Serif" font-size="10.00">raytracer::parseSingleSphere</text>
</a>
</g>
</g>
<!-- Node1&#45;&gt;Node9 -->
<g id="edge11_Node000001_Node000009" class="edge">
<title>Node1&#45;&gt;Node9</title>
<g id="a_edge11_Node000001_Node000009"><a xlink:title=" ">
<path fill="none" stroke="#63b8ff" d="M675.96,-92.72C657.31,-73.36 629.1,-47.32 599.5,-31.75 592.49,-28.06 584.76,-25.03 576.98,-22.53"/>
<polygon fill="#63b8ff" stroke="#63b8ff" points="672.94,-94.68 682.35,-99.56 678.04,-89.88 672.94,-94.68"/>
</a>
</g>
</g>
<!-- Node3&#45;&gt;Node2 -->
<g id="edge3_Node000003_Node000002" class="edge">
<title>Node3&#45;&gt;Node2</title>
<g id="a_edge3_Node000003_Node000002"><a xlink:title=" ">
<path fill="none" stroke="#63b8ff" d="M279.49,-181.19C239.12,-178.73 185.17,-173.94 138.25,-164.75 126.6,-162.47 114.28,-159.25 102.71,-155.85"/>
<polygon fill="#63b8ff" stroke="#63b8ff" points="279.05,-184.73 289.23,-181.82 279.45,-177.74 279.05,-184.73"/>
</a>
</g>
</g>
<!-- Node4&#45;&gt;Node2 -->
<g id="edge5_Node000004_Node000002" class="edge">
<title>Node4&#45;&gt;Node2</title>
<g id="a_edge5_Node000004_Node000002"><a xlink:title=" ">
<path fill="none" stroke="#63b8ff" d="M127.06,-138.75C118.92,-138.75 110.65,-138.75 102.72,-138.75"/>
<polygon fill="#63b8ff" stroke="#63b8ff" points="127.03,-142.25 137.03,-138.75 127.03,-135.25 127.03,-142.25"/>
</a>
</g>
</g>
<!-- Node7 -->
<g id="Node000007" class="node">
<title>Node7</title>
<g id="a_Node000007"><a xlink:href="classraytracer_1_1PrimitiveFact.html#a5e6ab2f9d4aeb2134676906a9fbe5a08" target="_top" xlink:title=" ">
<polygon fill="white" stroke="#666666" points="406.5,-93.5 276.5,-93.5 276.5,-60 406.5,-60 406.5,-93.5"/>
<text text-anchor="start" x="284.5" y="-80" font-family="Helvetica,sans-Serif" font-size="10.00">raytracer::PrimitiveFact</text>
<text text-anchor="middle" x="341.5" y="-67.25" font-family="Helvetica,sans-Serif" font-size="10.00">::createPlane</text>
</a>
</g>
</g>
<!-- Node6&#45;&gt;Node7 -->
<g id="edge8_Node000006_Node000007" class="edge">
<title>Node6&#45;&gt;Node7</title>
<g id="a_edge8_Node000006_Node000007"><a xlink:title=" ">
<path fill="none" stroke="#63b8ff" d="M435.24,-63.16C425.67,-64.57 416.02,-65.98 406.77,-67.34"/>
<polygon fill="#63b8ff" stroke="#63b8ff" points="435.62,-66.5 445.01,-61.59 434.61,-59.57 435.62,-66.5"/>
</a>
</g>
</g>
<!-- Node8 -->
<g id="Node000008" class="node">
<title>Node8</title>
<g id="a_Node000008"><a xlink:href="classraytracer_1_1Parser.html#a656afee97d373e4f961db8578ba599e2" target="_top" xlink:title=" ">
<polygon fill="white" stroke="#666666" points="240.5,-100.5 138.25,-100.5 138.25,-67 240.5,-67 240.5,-100.5"/>
<text text-anchor="start" x="146.25" y="-87" font-family="Helvetica,sans-Serif" font-size="10.00">raytracer::Parser::</text>
<text text-anchor="middle" x="189.38" y="-74.25" font-family="Helvetica,sans-Serif" font-size="10.00">parsePlanes</text>
</a>
</g>
</g>
<!-- Node7&#45;&gt;Node8 -->
<g id="edge9_Node000007_Node000008" class="edge">
<title>Node7&#45;&gt;Node8</title>
<g id="a_edge9_Node000007_Node000008"><a xlink:title=" ">
<path fill="none" stroke="#63b8ff" d="M265.68,-80.24C257.2,-80.63 248.71,-81.03 240.65,-81.41"/>
<polygon fill="#63b8ff" stroke="#63b8ff" points="265.57,-83.7 275.4,-79.74 265.25,-76.71 265.57,-83.7"/>
</a>
</g>
</g>
<!-- Node8&#45;&gt;Node2 -->
<g id="edge10_Node000008_Node000002" class="edge">
<title>Node8&#45;&gt;Node2</title>
<g id="a_edge10_Node000008_Node000002"><a xlink:title=" ">
<path fill="none" stroke="#63b8ff" d="M136.17,-104.82C122.37,-110.39 107.66,-116.33 94.46,-121.66"/>
<polygon fill="#63b8ff" stroke="#63b8ff" points="137.05,-107.84 145.01,-100.85 134.43,-101.35 137.05,-107.84"/>
</a>
</g>
</g>
<!-- Node10 -->
<g id="Node000010" class="node">
<title>Node10</title>
<g id="a_Node000010"><a xlink:href="classraytracer_1_1PrimitiveFact.html#a22c91e4eff21b9ef31b7875c82503db0" target="_top" xlink:title=" ">
<polygon fill="white" stroke="#666666" points="406.5,-33.5 276.5,-33.5 276.5,0 406.5,0 406.5,-33.5"/>
<text text-anchor="start" x="284.5" y="-20" font-family="Helvetica,sans-Serif" font-size="10.00">raytracer::PrimitiveFact</text>
<text text-anchor="middle" x="341.5" y="-7.25" font-family="Helvetica,sans-Serif" font-size="10.00">::createSphere</text>
</a>
</g>
</g>
<!-- Node9&#45;&gt;Node10 -->
<g id="edge12_Node000009_Node000010" class="edge">
<title>Node9&#45;&gt;Node10</title>
<g id="a_edge12_Node000009_Node000010"><a xlink:title=" ">
<path fill="none" stroke="#63b8ff" d="M431.37,-14.25C423.15,-14.48 414.94,-14.71 407,-14.93"/>
<polygon fill="#63b8ff" stroke="#63b8ff" points="431.25,-17.72 441.15,-13.94 431.05,-10.73 431.25,-17.72"/>
</a>
</g>
</g>
<!-- Node11 -->
<g id="Node000011" class="node">
<title>Node11</title>
<g id="a_Node000011"><a xlink:href="classraytracer_1_1Parser.html#a37b554a69d9fbad68df1280e8b8fcbfd" target="_top" xlink:title=" ">
<polygon fill="white" stroke="#666666" points="240.5,-43.5 138.25,-43.5 138.25,-10 240.5,-10 240.5,-43.5"/>
<text text-anchor="start" x="146.25" y="-30" font-family="Helvetica,sans-Serif" font-size="10.00">raytracer::Parser::</text>
<text text-anchor="middle" x="189.38" y="-17.25" font-family="Helvetica,sans-Serif" font-size="10.00">parseSpheres</text>
</a>
</g>
</g>
<!-- Node10&#45;&gt;Node11 -->
<g id="edge13_Node000010_Node000011" class="edge">
<title>Node10&#45;&gt;Node11</title>
<g id="a_edge13_Node000010_Node000011"><a xlink:title=" ">
<path fill="none" stroke="#63b8ff" d="M265.68,-21.73C257.2,-22.3 248.71,-22.86 240.65,-23.4"/>
<polygon fill="#63b8ff" stroke="#63b8ff" points="265.65,-25.18 275.4,-21.02 265.19,-18.19 265.65,-25.18"/>
</a>
</g>
</g>
<!-- Node11&#45;&gt;Node2 -->
<g id="edge14_Node000011_Node000002" class="edge">
<title>Node11&#45;&gt;Node2</title>
<g id="a_edge14_Node000011_Node000002"><a xlink:title=" ">
<path fill="none" stroke="#63b8ff" d="M149.35,-49.8C145.53,-52.38 141.77,-55.05 138.25,-57.75 112.19,-77.74 85.06,-104.38 68.38,-121.55"/>
<polygon fill="#63b8ff" stroke="#63b8ff" points="150.82,-52.37 157.3,-43.99 147,-46.5 150.82,-52.37"/>
</a>
</g>
</g>
</g>
</svg>
