<?xml version="1.0" encoding="UTF-8" standalone="no"?>
<!DOCTYPE svg PUBLIC "-//W3C//DTD SVG 1.1//EN"
 "http://www.w3.org/Graphics/SVG/1.1/DTD/svg11.dtd">
<!-- Generated by graphviz version 8.1.0 (20230707.0739)
 -->
<!-- Title: raytracer::World::hit Pages: 1 -->
<svg width="300pt" height="94pt"
 viewBox="0.00 0.00 300.25 93.50" xmlns="http://www.w3.org/2000/svg" xmlns:xlink="http://www.w3.org/1999/xlink">
<g id="graph0" class="graph" transform="scale(1 1) rotate(0) translate(4 89.5)">
<title>raytracer::World::hit</title>
<!-- Node1 -->
<g id="Node000001" class="node">
<title>Node1</title>
<g id="a_Node000001"><a xlink:title=" ">
<polygon fill="#999999" stroke="#666666" points="292.25,-53.12 179.5,-53.12 179.5,-32.38 292.25,-32.38 292.25,-53.12"/>
<text text-anchor="middle" x="235.88" y="-39.62" font-family="Helvetica,sans-Serif" font-size="10.00">raytracer::World::hit</text>
</a>
</g>
</g>
<!-- Node2 -->
<g id="Node000002" class="node">
<title>Node2</title>
<g id="a_Node000002"><a xlink:href="classraytracer_1_1DirectionalLight.html#ad38770a14fe4abd20d648f8c95ef394e" target="_top" xlink:title="Calcule la couleur de la lumière en tenant compte des ombres.">
<polygon fill="white" stroke="#666666" points="143.5,-85.5 0,-85.5 0,-52 143.5,-52 143.5,-85.5"/>
<text text-anchor="start" x="8" y="-72" font-family="Helvetica,sans-Serif" font-size="10.00">raytracer::DirectionalLight</text>
<text text-anchor="middle" x="71.75" y="-59.25" font-family="Helvetica,sans-Serif" font-size="10.00">::getColorShadow</text>
</a>
</g>
</g>
<!-- Node1&#45;&gt;Node2 -->
<g id="edge1_Node000001_Node000002" class="edge">
<title>Node1&#45;&gt;Node2</title>
<g id="a_edge1_Node000001_Node000002"><a xlink:title=" ">
<path fill="none" stroke="#63b8ff" d="M168.25,-53.43C160.19,-54.73 151.94,-56.05 143.82,-57.35"/>
<polygon fill="#63b8ff" stroke="#63b8ff" points="168.76,-56.74 178.08,-51.7 167.65,-49.83 168.76,-56.74"/>
</a>
</g>
</g>
<!-- Node3 -->
<g id="Node000003" class="node">
<title>Node3</title>
<g id="a_Node000003"><a xlink:href="classraytracer_1_1PointLight.html#adc1015f0e17f9f9af7f6d7c460c47473" target="_top" xlink:title="Calcule la couleur de l&#39;ombre au point d&#39;intersection donné.">
<polygon fill="white" stroke="#666666" points="129.25,-33.5 14.25,-33.5 14.25,0 129.25,0 129.25,-33.5"/>
<text text-anchor="start" x="22.25" y="-20" font-family="Helvetica,sans-Serif" font-size="10.00">raytracer::PointLight</text>
<text text-anchor="middle" x="71.75" y="-7.25" font-family="Helvetica,sans-Serif" font-size="10.00">::getColorShadow</text>
</a>
</g>
</g>
<!-- Node1&#45;&gt;Node3 -->
<g id="edge2_Node000001_Node000003" class="edge">
<title>Node1&#45;&gt;Node3</title>
<g id="a_edge2_Node000001_Node000003"><a xlink:title=" ">
<path fill="none" stroke="#63b8ff" d="M168.44,-32.1C155.6,-30.04 142.26,-27.9 129.75,-25.89"/>
<polygon fill="#63b8ff" stroke="#63b8ff" points="167.65,-35.67 178.08,-33.8 168.76,-28.76 167.65,-35.67"/>
</a>
</g>
</g>
</g>
</svg>
