<?xml version="1.0" encoding="UTF-8" standalone="no"?>
<!DOCTYPE svg PUBLIC "-//W3C//DTD SVG 1.1//EN"
 "http://www.w3.org/Graphics/SVG/1.1/DTD/svg11.dtd">
<!-- Generated by graphviz version 8.1.0 (20230707.0739)
 -->
<!-- Title: raytracer::Camera::ray Pages: 1 -->
<svg width="463pt" height="94pt"
 viewBox="0.00 0.00 463.25 93.50" xmlns="http://www.w3.org/2000/svg" xmlns:xlink="http://www.w3.org/1999/xlink">
<g id="graph0" class="graph" transform="scale(1 1) rotate(0) translate(4 89.5)">
<title>raytracer::Camera::ray</title>
<!-- Node1 -->
<g id="Node000001" class="node">
<title>Node1</title>
<g id="a_Node000001"><a xlink:title="Génère un rayon à partir des coordonnées normalisées sur le plan de l&#39;écran.">
<polygon fill="#999999" stroke="#666666" points="126.25,-53.12 0,-53.12 0,-32.38 126.25,-32.38 126.25,-53.12"/>
<text text-anchor="middle" x="63.12" y="-39.62" font-family="Helvetica,sans-Serif" font-size="10.00">raytracer::Camera::ray</text>
</a>
</g>
</g>
<!-- Node2 -->
<g id="Node000002" class="node">
<title>Node2</title>
<g id="a_Node000002"><a xlink:href="classraytracer_1_1Camera.html#a8afe32e5da7b2f482ab823a45ef428c0" target="_top" xlink:title="Calcule la direction d’un rayon depuis la caméra vers un point de l&#39;écran.">
<polygon fill="white" stroke="#666666" points="272.75,-85.5 162.25,-85.5 162.25,-52 272.75,-52 272.75,-85.5"/>
<text text-anchor="start" x="170.25" y="-72" font-family="Helvetica,sans-Serif" font-size="10.00">raytracer::Camera::</text>
<text text-anchor="middle" x="217.5" y="-59.25" font-family="Helvetica,sans-Serif" font-size="10.00">calculateDirection</text>
</a>
</g>
</g>
<!-- Node1&#45;&gt;Node2 -->
<g id="edge1_Node000001_Node000002" class="edge">
<title>Node1&#45;&gt;Node2</title>
<g id="a_edge1_Node000001_Node000002"><a xlink:title=" ">
<path fill="none" stroke="#63b8ff" d="M126.54,-53.4C134.77,-54.8 143.22,-56.25 151.49,-57.66"/>
<polygon fill="#63b8ff" stroke="#63b8ff" points="150.78,-61.26 161.23,-59.49 151.96,-54.36 150.78,-61.26"/>
</a>
</g>
</g>
<!-- Node4 -->
<g id="Node000004" class="node">
<title>Node4</title>
<g id="a_Node000004"><a xlink:href="classraytracer_1_1Camera.html#a94d16e4d450ae1cfbb908623768561b3" target="_top" xlink:title="Calcule la position 3D sur le plan de l&#39;écran à partir des coordonnées (u, v).">
<polygon fill="white" stroke="#666666" points="272.75,-33.5 162.25,-33.5 162.25,0 272.75,0 272.75,-33.5"/>
<text text-anchor="start" x="170.25" y="-20" font-family="Helvetica,sans-Serif" font-size="10.00">raytracer::Camera::</text>
<text text-anchor="middle" x="217.5" y="-7.25" font-family="Helvetica,sans-Serif" font-size="10.00">calculateScreenPos</text>
</a>
</g>
</g>
<!-- Node1&#45;&gt;Node4 -->
<g id="edge3_Node000001_Node000004" class="edge">
<title>Node1&#45;&gt;Node4</title>
<g id="a_edge3_Node000001_Node000004"><a xlink:title=" ">
<path fill="none" stroke="#63b8ff" d="M126.54,-32.1C134.77,-30.7 143.22,-29.25 151.49,-27.84"/>
<polygon fill="#63b8ff" stroke="#63b8ff" points="151.96,-31.14 161.23,-26.01 150.78,-24.24 151.96,-31.14"/>
</a>
</g>
</g>
<!-- Node3 -->
<g id="Node000003" class="node">
<title>Node3</title>
<g id="a_Node000003"><a xlink:href="classmath_1_1Vector3D.html#ae0c26833a0b58f2709884880a02bdc52" target="_top" xlink:title="Normalise le vecteur actuel (modifie en place).">
<polygon fill="white" stroke="#666666" points="455.25,-79.12 308.75,-79.12 308.75,-58.38 455.25,-58.38 455.25,-79.12"/>
<text text-anchor="middle" x="382" y="-65.62" font-family="Helvetica,sans-Serif" font-size="10.00">math::Vector3D::normalize</text>
</a>
</g>
</g>
<!-- Node2&#45;&gt;Node3 -->
<g id="edge2_Node000002_Node000003" class="edge">
<title>Node2&#45;&gt;Node3</title>
<g id="a_edge2_Node000002_Node000003"><a xlink:title=" ">
<path fill="none" stroke="#63b8ff" d="M273.06,-68.75C280.95,-68.75 289.21,-68.75 297.5,-68.75"/>
<polygon fill="#63b8ff" stroke="#63b8ff" points="297.4,-72.25 307.4,-68.75 297.4,-65.25 297.4,-72.25"/>
</a>
</g>
</g>
<!-- Node5 -->
<g id="Node000005" class="node">
<title>Node5</title>
<g id="a_Node000005"><a xlink:href="classraytracer_1_1Rectangle3D.html#a1076e494c43ceb9b232a87ec150b2044" target="_top" xlink:title=" ">
<polygon fill="white" stroke="#666666" points="446.25,-33.5 317.75,-33.5 317.75,0 446.25,0 446.25,-33.5"/>
<text text-anchor="start" x="325.75" y="-20" font-family="Helvetica,sans-Serif" font-size="10.00">raytracer::Rectangle3D</text>
<text text-anchor="middle" x="382" y="-7.25" font-family="Helvetica,sans-Serif" font-size="10.00">::pointAt</text>
</a>
</g>
</g>
<!-- Node4&#45;&gt;Node5 -->
<g id="edge4_Node000004_Node000005" class="edge">
<title>Node4&#45;&gt;Node5</title>
<g id="a_edge4_Node000004_Node000005"><a xlink:title=" ">
<path fill="none" stroke="#63b8ff" d="M273.06,-16.75C283.82,-16.75 295.29,-16.75 306.57,-16.75"/>
<polygon fill="#63b8ff" stroke="#63b8ff" points="306.31,-20.25 316.31,-16.75 306.31,-13.25 306.31,-20.25"/>
</a>
</g>
</g>
</g>
</svg>
