<?xml version="1.0" encoding="UTF-8" standalone="no"?>
<!DOCTYPE svg PUBLIC "-//W3C//DTD SVG 1.1//EN"
 "http://www.w3.org/Graphics/SVG/1.1/DTD/svg11.dtd">
<!-- Generated by graphviz version 8.1.0 (20230707.0739)
 -->
<!-- Title: math::Vector3D::dot Pages: 1 -->
<svg width="877pt" height="222pt"
 viewBox="0.00 0.00 877.25 222.12" xmlns="http://www.w3.org/2000/svg" xmlns:xlink="http://www.w3.org/1999/xlink">
<g id="graph0" class="graph" transform="scale(1 1) rotate(0) translate(4 218.12)">
<title>math::Vector3D::dot</title>
<!-- Node1 -->
<g id="Node000001" class="node">
<title>Node1</title>
<g id="a_Node000001"><a xlink:title="Calcule le produit scalaire avec un autre vecteur.">
<polygon fill="#999999" stroke="#666666" points="869.25,-110.75 755.75,-110.75 755.75,-90 869.25,-90 869.25,-110.75"/>
<text text-anchor="middle" x="812.5" y="-97.25" font-family="Helvetica,sans-Serif" font-size="10.00">math::Vector3D::dot</text>
</a>
</g>
</g>
<!-- Node2 -->
<g id="Node000002" class="node">
<title>Node2</title>
<g id="a_Node000002"><a xlink:href="classraytracer_1_1Plane.html#ac12b3430ee5399341b525b76809a149f" target="_top" xlink:title="Vérifie l&#39;intersection entre un rayon et un plan défini par un point.">
<polygon fill="white" stroke="#666666" points="719.75,-214.12 573.25,-214.12 573.25,-180.62 719.75,-180.62 719.75,-214.12"/>
<text text-anchor="start" x="581.25" y="-200.62" font-family="Helvetica,sans-Serif" font-size="10.00">raytracer::Plane::checkRay</text>
<text text-anchor="middle" x="646.5" y="-187.88" font-family="Helvetica,sans-Serif" font-size="10.00">PlaneIntersection</text>
</a>
</g>
</g>
<!-- Node1&#45;&gt;Node2 -->
<g id="edge1_Node000001_Node000002" class="edge">
<title>Node1&#45;&gt;Node2</title>
<g id="a_edge1_Node000001_Node000002"><a xlink:title=" ">
<path fill="none" stroke="#63b8ff" d="M792.3,-118.15C774.56,-133.84 746.91,-156.47 719.75,-171.38 713.91,-174.58 707.59,-177.53 701.21,-180.19"/>
<polygon fill="#63b8ff" stroke="#63b8ff" points="794.08,-121.36 799.17,-112.07 789.39,-116.16 794.08,-121.36"/>
</a>
</g>
</g>
<!-- Node4 -->
<g id="Node000004" class="node">
<title>Node4</title>
<g id="a_Node000004"><a xlink:href="classraytracer_1_1Scene.html#a47df2dc8ff0d5b2c53a1119e4dbc78a5" target="_top" xlink:title="Calcule la couleur de la lumière sur une primitive à un point d&#39;intersection donné.">
<polygon fill="white" stroke="#666666" points="717.12,-162.12 575.88,-162.12 575.88,-128.62 717.12,-128.62 717.12,-162.12"/>
<text text-anchor="start" x="583.88" y="-148.62" font-family="Helvetica,sans-Serif" font-size="10.00">raytracer::Scene::getLight</text>
<text text-anchor="middle" x="646.5" y="-135.88" font-family="Helvetica,sans-Serif" font-size="10.00">Color</text>
</a>
</g>
</g>
<!-- Node1&#45;&gt;Node4 -->
<g id="edge3_Node000001_Node000004" class="edge">
<title>Node1&#45;&gt;Node4</title>
<g id="a_edge3_Node000001_Node000004"><a xlink:title=" ">
<path fill="none" stroke="#63b8ff" d="M761.85,-114C745.57,-118.47 727.27,-123.49 710.16,-128.18"/>
<polygon fill="#63b8ff" stroke="#63b8ff" points="762.5,-117.18 771.22,-111.15 760.65,-110.42 762.5,-117.18"/>
</a>
</g>
</g>
<!-- Node9 -->
<g id="Node000009" class="node">
<title>Node9</title>
<g id="a_Node000009"><a xlink:href="classraytracer_1_1Cone.html#ad16d3797874d0f8fbe9ad5f2ac845aa2" target="_top" xlink:title="Calcule l&#39;intersection entre le cône et un rayon.">
<polygon fill="white" stroke="#666666" points="704,-110.75 589,-110.75 589,-90 704,-90 704,-110.75"/>
<text text-anchor="middle" x="646.5" y="-97.25" font-family="Helvetica,sans-Serif" font-size="10.00">raytracer::Cone::hits</text>
</a>
</g>
</g>
<!-- Node1&#45;&gt;Node9 -->
<g id="edge8_Node000001_Node000009" class="edge">
<title>Node1&#45;&gt;Node9</title>
<g id="a_edge8_Node000001_Node000009"><a xlink:title=" ">
<path fill="none" stroke="#63b8ff" d="M744.89,-100.38C731.44,-100.38 717.42,-100.38 704.34,-100.38"/>
<polygon fill="#63b8ff" stroke="#63b8ff" points="744.52,-103.88 754.52,-100.38 744.52,-96.88 744.52,-103.88"/>
</a>
</g>
</g>
<!-- Node10 -->
<g id="Node000010" class="node">
<title>Node10</title>
<g id="a_Node000010"><a xlink:href="classraytracer_1_1Cylinder.html#a20806b30a850769f9ed3ec242973da58" target="_top" xlink:title="Calcule l&#39;intersection entre un rayon et le cylindre.">
<polygon fill="white" stroke="#666666" points="699.88,-72.12 593.12,-72.12 593.12,-38.62 699.88,-38.62 699.88,-72.12"/>
<text text-anchor="start" x="601.12" y="-58.62" font-family="Helvetica,sans-Serif" font-size="10.00">raytracer::Cylinder</text>
<text text-anchor="middle" x="646.5" y="-45.88" font-family="Helvetica,sans-Serif" font-size="10.00">::hits</text>
</a>
</g>
</g>
<!-- Node1&#45;&gt;Node10 -->
<g id="edge9_Node000001_Node000010" class="edge">
<title>Node1&#45;&gt;Node10</title>
<g id="a_edge9_Node000001_Node000010"><a xlink:title=" ">
<path fill="none" stroke="#63b8ff" d="M761.72,-86.72C742.23,-81.37 719.86,-75.23 700.11,-69.81"/>
<polygon fill="#63b8ff" stroke="#63b8ff" points="760.65,-90.33 771.22,-89.6 762.5,-83.57 760.65,-90.33"/>
</a>
</g>
</g>
<!-- Node11 -->
<g id="Node000011" class="node">
<title>Node11</title>
<g id="a_Node000011"><a xlink:href="classraytracer_1_1Sphere.html#afa2a0165f5db092cd8f3f866fbed322d" target="_top" xlink:title="Calcule l&#39;intersection entre un rayon et la sphère.">
<polygon fill="white" stroke="#666666" points="708.5,-20.75 584.5,-20.75 584.5,0 708.5,0 708.5,-20.75"/>
<text text-anchor="middle" x="646.5" y="-7.25" font-family="Helvetica,sans-Serif" font-size="10.00">raytracer::Sphere::hits</text>
</a>
</g>
</g>
<!-- Node1&#45;&gt;Node11 -->
<g id="edge10_Node000001_Node000011" class="edge">
<title>Node1&#45;&gt;Node11</title>
<g id="a_edge10_Node000001_Node000011"><a xlink:title=" ">
<path fill="none" stroke="#63b8ff" d="M792.9,-82.29C775.37,-66.2 747.7,-43.15 719.75,-29.38 713.23,-26.16 706.11,-23.45 698.96,-21.17"/>
<polygon fill="#63b8ff" stroke="#63b8ff" points="789.95,-84.26 799.64,-88.55 794.74,-79.16 789.95,-84.26"/>
</a>
</g>
</g>
<!-- Node3 -->
<g id="Node000003" class="node">
<title>Node3</title>
<g id="a_Node000003"><a xlink:href="classraytracer_1_1Plane.html#ac3838be30f5959303d09f4e88af0508b" target="_top" xlink:title="Calcule l&#39;intersection entre un rayon et le plan.">
<polygon fill="white" stroke="#666666" points="524.5,-207.75 407.25,-207.75 407.25,-187 524.5,-187 524.5,-207.75"/>
<text text-anchor="middle" x="465.88" y="-194.25" font-family="Helvetica,sans-Serif" font-size="10.00">raytracer::Plane::hits</text>
</a>
</g>
</g>
<!-- Node2&#45;&gt;Node3 -->
<g id="edge2_Node000002_Node000003" class="edge">
<title>Node2&#45;&gt;Node3</title>
<g id="a_edge2_Node000002_Node000003"><a xlink:title=" ">
<path fill="none" stroke="#63b8ff" d="M561.93,-197.38C549.43,-197.38 536.78,-197.38 524.96,-197.38"/>
<polygon fill="#63b8ff" stroke="#63b8ff" points="561.85,-200.88 571.85,-197.38 561.85,-193.88 561.85,-200.88"/>
</a>
</g>
</g>
<!-- Node5 -->
<g id="Node000005" class="node">
<title>Node5</title>
<g id="a_Node000005"><a xlink:href="classraytracer_1_1Scene.html#a3e1cc90ae8e645a806ebc45eb6681958" target="_top" xlink:title="Calcule la couleur d&#39;un pixel donné dans l&#39;image.">
<polygon fill="white" stroke="#666666" points="537.25,-155.75 394.5,-155.75 394.5,-135 537.25,-135 537.25,-155.75"/>
<text text-anchor="middle" x="465.88" y="-142.25" font-family="Helvetica,sans-Serif" font-size="10.00">raytracer::Scene::getColor</text>
</a>
</g>
</g>
<!-- Node4&#45;&gt;Node5 -->
<g id="edge4_Node000004_Node000005" class="edge">
<title>Node4&#45;&gt;Node5</title>
<g id="a_edge4_Node000004_Node000005"><a xlink:title=" ">
<path fill="none" stroke="#63b8ff" d="M564.55,-145.38C555.57,-145.38 546.48,-145.38 537.64,-145.38"/>
<polygon fill="#63b8ff" stroke="#63b8ff" points="564.42,-148.88 574.42,-145.38 564.42,-141.88 564.42,-148.88"/>
</a>
</g>
</g>
<!-- Node6 -->
<g id="Node000006" class="node">
<title>Node6</title>
<g id="a_Node000006"><a xlink:href="classraytracer_1_1Scene.html#acda226b04c50587c0125112e5bfa5e7b" target="_top" xlink:title="Lance le rendu de la scène dans l&#39;image fournie.">
<polygon fill="white" stroke="#666666" points="358.5,-155.75 225.5,-155.75 225.5,-135 358.5,-135 358.5,-155.75"/>
<text text-anchor="middle" x="292" y="-142.25" font-family="Helvetica,sans-Serif" font-size="10.00">raytracer::Scene::render</text>
</a>
</g>
</g>
<!-- Node5&#45;&gt;Node6 -->
<g id="edge5_Node000005_Node000006" class="edge">
<title>Node5&#45;&gt;Node6</title>
<g id="a_edge5_Node000005_Node000006"><a xlink:title=" ">
<path fill="none" stroke="#63b8ff" d="M383.62,-145.38C375.33,-145.38 366.97,-145.38 358.87,-145.38"/>
<polygon fill="#63b8ff" stroke="#63b8ff" points="383.47,-148.88 393.47,-145.38 383.47,-141.88 383.47,-148.88"/>
</a>
</g>
</g>
<!-- Node7 -->
<g id="Node000007" class="node">
<title>Node7</title>
<g id="a_Node000007"><a xlink:href="classcore_1_1RayTracer.html#a859673b935c3ccddb6c3db5a3710f6fd" target="_top" xlink:title="Lance l&#39;exécution principale du programme.">
<polygon fill="white" stroke="#666666" points="189.5,-155.75 76.75,-155.75 76.75,-135 189.5,-135 189.5,-155.75"/>
<text text-anchor="middle" x="133.12" y="-142.25" font-family="Helvetica,sans-Serif" font-size="10.00">core::RayTracer::run</text>
</a>
</g>
</g>
<!-- Node6&#45;&gt;Node7 -->
<g id="edge6_Node000006_Node000007" class="edge">
<title>Node6&#45;&gt;Node7</title>
<g id="a_edge6_Node000006_Node000007"><a xlink:title=" ">
<path fill="none" stroke="#63b8ff" d="M214.4,-145.38C206.01,-145.38 197.6,-145.38 189.54,-145.38"/>
<polygon fill="#63b8ff" stroke="#63b8ff" points="214.38,-148.88 224.38,-145.38 214.38,-141.88 214.38,-148.88"/>
</a>
</g>
</g>
<!-- Node8 -->
<g id="Node000008" class="node">
<title>Node8</title>
<g id="a_Node000008"><a xlink:href="Main_8cpp.html#a3c04138a5bfe5d72780bb7e82a18e627" target="_top" xlink:title="Point d&#39;entrée principal du programme.">
<polygon fill="white" stroke="#666666" points="40.75,-155.75 0,-155.75 0,-135 40.75,-135 40.75,-155.75"/>
<text text-anchor="middle" x="20.38" y="-142.25" font-family="Helvetica,sans-Serif" font-size="10.00">main</text>
</a>
</g>
</g>
<!-- Node7&#45;&gt;Node8 -->
<g id="edge7_Node000007_Node000008" class="edge">
<title>Node7&#45;&gt;Node8</title>
<g id="a_edge7_Node000007_Node000008"><a xlink:title=" ">
<path fill="none" stroke="#63b8ff" d="M65.47,-145.38C56.6,-145.38 48.14,-145.38 41.04,-145.38"/>
<polygon fill="#63b8ff" stroke="#63b8ff" points="65.43,-148.88 75.43,-145.38 65.43,-141.88 65.43,-148.88"/>
</a>
</g>
</g>
</g>
</svg>
