<?xml version="1.0" encoding="UTF-8" standalone="no"?>
<!DOCTYPE svg PUBLIC "-//W3C//DTD SVG 1.1//EN"
 "http://www.w3.org/Graphics/SVG/1.1/DTD/svg11.dtd">
<!-- Generated by graphviz version 8.1.0 (20230707.0739)
 -->
<!-- Title: math::Matrix&lt; T &gt; Pages: 1 -->
<svg width="206pt" height="478pt"
 viewBox="0.00 0.00 205.75 477.50" xmlns="http://www.w3.org/2000/svg" xmlns:xlink="http://www.w3.org/1999/xlink">
<g id="graph0" class="graph" transform="scale(1 1) rotate(0) translate(4 473.5)">
<title>math::Matrix&lt; T &gt;</title>
<!-- Node1 -->
<g id="Node000001" class="node">
<title>Node1</title>
<g id="a_Node000001"><a xlink:title="Template class representing a mathematical matrix.">
<polygon fill="#999999" stroke="none" points="190.5,-356 37.5,-356 37.5,0 190.5,0 190.5,-356"/>
<text text-anchor="start" x="68.25" y="-342.5" font-family="Helvetica,sans-Serif" font-size="10.00">math::Matrix&lt; T &gt;</text>
<text text-anchor="start" x="112.5" y="-326.5" font-family="Helvetica,sans-Serif" font-size="10.00"> </text>
<text text-anchor="start" x="41.38" y="-310.5" font-family="Helvetica,sans-Serif" font-size="10.00">+</text>
<text text-anchor="start" x="53.5" y="-310.5" font-family="Helvetica,sans-Serif" font-size="10.00">Matrix()</text>
<text text-anchor="start" x="41.38" y="-294.5" font-family="Helvetica,sans-Serif" font-size="10.00">+</text>
<text text-anchor="start" x="53.5" y="-294.5" font-family="Helvetica,sans-Serif" font-size="10.00">Matrix()</text>
<text text-anchor="start" x="41.38" y="-278.5" font-family="Helvetica,sans-Serif" font-size="10.00">+</text>
<text text-anchor="start" x="53.5" y="-278.5" font-family="Helvetica,sans-Serif" font-size="10.00">apply()</text>
<text text-anchor="start" x="41.38" y="-262.5" font-family="Helvetica,sans-Serif" font-size="10.00">+</text>
<text text-anchor="start" x="53.5" y="-262.5" font-family="Helvetica,sans-Serif" font-size="10.00">operator()()</text>
<text text-anchor="start" x="41.38" y="-246.5" font-family="Helvetica,sans-Serif" font-size="10.00">+</text>
<text text-anchor="start" x="53.5" y="-246.5" font-family="Helvetica,sans-Serif" font-size="10.00">operator+=()</text>
<text text-anchor="start" x="41.38" y="-230.5" font-family="Helvetica,sans-Serif" font-size="10.00">+</text>
<text text-anchor="start" x="53.5" y="-230.5" font-family="Helvetica,sans-Serif" font-size="10.00">operator&#45;=()</text>
<text text-anchor="start" x="41.38" y="-214.5" font-family="Helvetica,sans-Serif" font-size="10.00">+</text>
<text text-anchor="start" x="53.5" y="-214.5" font-family="Helvetica,sans-Serif" font-size="10.00">operator*=()</text>
<text text-anchor="start" x="41.38" y="-198.5" font-family="Helvetica,sans-Serif" font-size="10.00">+</text>
<text text-anchor="start" x="53.5" y="-198.5" font-family="Helvetica,sans-Serif" font-size="10.00">operator*=()</text>
<text text-anchor="start" x="41.38" y="-182.5" font-family="Helvetica,sans-Serif" font-size="10.00">+</text>
<text text-anchor="start" x="53.5" y="-182.5" font-family="Helvetica,sans-Serif" font-size="10.00">operator=()</text>
<text text-anchor="start" x="41.38" y="-166.5" font-family="Helvetica,sans-Serif" font-size="10.00">+</text>
<text text-anchor="start" x="53.5" y="-166.5" font-family="Helvetica,sans-Serif" font-size="10.00">operator=()</text>
<text text-anchor="start" x="41.38" y="-150.5" font-family="Helvetica,sans-Serif" font-size="10.00">+</text>
<text text-anchor="start" x="53.5" y="-150.5" font-family="Helvetica,sans-Serif" font-size="10.00">getNbRows()</text>
<text text-anchor="start" x="41.38" y="-134.5" font-family="Helvetica,sans-Serif" font-size="10.00">+</text>
<text text-anchor="start" x="53.5" y="-134.5" font-family="Helvetica,sans-Serif" font-size="10.00">getNbCols()</text>
<text text-anchor="start" x="41.38" y="-118.5" font-family="Helvetica,sans-Serif" font-size="10.00">+</text>
<text text-anchor="start" x="53.5" y="-118.5" font-family="Helvetica,sans-Serif" font-size="10.00">displayMatrix()</text>
<text text-anchor="start" x="43.62" y="-102.5" font-family="Helvetica,sans-Serif" font-size="10.00">&#45;</text>
<text text-anchor="start" x="53.5" y="-102.5" font-family="Helvetica,sans-Serif" font-size="10.00">checkSameSize()</text>
<text text-anchor="start" x="43.62" y="-86.5" font-family="Helvetica,sans-Serif" font-size="10.00">&#45;</text>
<text text-anchor="start" x="53.5" y="-86.5" font-family="Helvetica,sans-Serif" font-size="10.00">createMatrice()</text>
<text text-anchor="start" x="43.62" y="-70.5" font-family="Helvetica,sans-Serif" font-size="10.00">&#45;</text>
<text text-anchor="start" x="53.5" y="-70.5" font-family="Helvetica,sans-Serif" font-size="10.00">createInverseMatrice()</text>
<text text-anchor="start" x="43.62" y="-54.5" font-family="Helvetica,sans-Serif" font-size="10.00">&#45;</text>
<text text-anchor="start" x="53.5" y="-54.5" font-family="Helvetica,sans-Serif" font-size="10.00">setMatrixIdentity()</text>
<text text-anchor="start" x="43.62" y="-38.5" font-family="Helvetica,sans-Serif" font-size="10.00">&#45;</text>
<text text-anchor="start" x="53.5" y="-38.5" font-family="Helvetica,sans-Serif" font-size="10.00">setMatrixInverseIndentity()</text>
<text text-anchor="start" x="43.62" y="-22.5" font-family="Helvetica,sans-Serif" font-size="10.00">&#45;</text>
<text text-anchor="start" x="53.5" y="-22.5" font-family="Helvetica,sans-Serif" font-size="10.00">createMatrixExtern()</text>
<text text-anchor="start" x="43.62" y="-6.5" font-family="Helvetica,sans-Serif" font-size="10.00">&#45;</text>
<text text-anchor="start" x="53.5" y="-6.5" font-family="Helvetica,sans-Serif" font-size="10.00">inverse()</text>
<polygon fill="#666666" stroke="#666666" points="37.5,-338 37.5,-338 190.5,-338 190.5,-338 37.5,-338"/>
<polygon fill="#666666" stroke="#666666" points="37.5,-322 37.5,-322 190.5,-322 190.5,-322 37.5,-322"/>
<polygon fill="none" stroke="#666666" points="37.5,0 37.5,-356 190.5,-356 190.5,0 37.5,0"/>
</a>
</g>
</g>
<!-- Node2 -->
<g id="Node000002" class="node">
<title>Node2</title>
<g id="a_Node000002"><a xlink:title=" ">
<polygon fill="white" stroke="none" points="122,-469.5 0,-469.5 0,-417.5 122,-417.5 122,-469.5"/>
<text text-anchor="start" x="4.75" y="-456" font-family="Helvetica,sans-Serif" font-size="10.00">vector&lt; vector&lt; T &gt; &gt;</text>
<text text-anchor="start" x="59.5" y="-440" font-family="Helvetica,sans-Serif" font-size="10.00"> </text>
<text text-anchor="start" x="59.5" y="-424" font-family="Helvetica,sans-Serif" font-size="10.00"> </text>
<polygon fill="#666666" stroke="#666666" points="0,-451.5 0,-451.5 122,-451.5 122,-451.5 0,-451.5"/>
<polygon fill="#666666" stroke="#666666" points="0,-435.5 0,-435.5 122,-435.5 122,-435.5 0,-435.5"/>
<polygon fill="none" stroke="#666666" points="0,-417.5 0,-469.5 122,-469.5 122,-417.5 0,-417.5"/>
</a>
</g>
</g>
<!-- Node2&#45;&gt;Node1 -->
<g id="edge1_Node000001_Node000002" class="edge">
<title>Node2&#45;&gt;Node1</title>
<g id="a_edge1_Node000001_Node000002"><a xlink:title=" ">
<path fill="none" stroke="#63b8ff" d="M59.9,-417.66C59.69,-404.6 60.01,-388.37 62,-374 62.25,-372.22 62.5,-370.44 62.77,-368.65"/>
<polygon fill="none" stroke="#63b8ff" points="62.78,-368.58 59.79,-362.02 64.7,-356.73 67.69,-363.29 62.78,-368.58"/>
</a>
</g>
<text text-anchor="middle" x="104" y="-390" font-family="Helvetica,sans-Serif" font-size="10.00" fill="grey"> &#45;mInverseMatrix</text>
<text text-anchor="middle" x="104" y="-377.25" font-family="Helvetica,sans-Serif" font-size="10.00" fill="grey">&#45;mMatrix</text>
</g>
<!-- Node3 -->
<g id="Node000003" class="node">
<title>Node3</title>
<g id="a_Node000003"><a xlink:title=" ">
<polygon fill="white" stroke="none" points="187,-469.5 149,-469.5 149,-417.5 187,-417.5 187,-469.5"/>
<text text-anchor="start" x="153.75" y="-456" font-family="Helvetica,sans-Serif" font-size="10.00">size_t</text>
<text text-anchor="start" x="166.5" y="-440" font-family="Helvetica,sans-Serif" font-size="10.00"> </text>
<text text-anchor="start" x="166.5" y="-424" font-family="Helvetica,sans-Serif" font-size="10.00"> </text>
<polygon fill="#666666" stroke="#666666" points="149,-451.5 149,-451.5 187,-451.5 187,-451.5 149,-451.5"/>
<polygon fill="#666666" stroke="#666666" points="149,-435.5 149,-435.5 187,-435.5 187,-435.5 149,-435.5"/>
<polygon fill="none" stroke="#666666" points="149,-417.5 149,-469.5 187,-469.5 187,-417.5 149,-417.5"/>
</a>
</g>
</g>
<!-- Node3&#45;&gt;Node1 -->
<g id="edge2_Node000001_Node000003" class="edge">
<title>Node3&#45;&gt;Node1</title>
<g id="a_edge2_Node000001_Node000003"><a xlink:title=" ">
<path fill="none" stroke="#63b8ff" d="M162.92,-417.71C160.26,-404.72 156.73,-387.52 152.79,-368.28"/>
<polygon fill="none" stroke="#63b8ff" points="152.8,-368.35 147.68,-363.28 150.4,-356.59 155.52,-361.67 152.8,-368.35"/>
</a>
</g>
<text text-anchor="middle" x="177.88" y="-390" font-family="Helvetica,sans-Serif" font-size="10.00" fill="grey"> &#45;mCols</text>
<text text-anchor="middle" x="177.88" y="-377.25" font-family="Helvetica,sans-Serif" font-size="10.00" fill="grey">&#45;mRows</text>
</g>
</g>
</svg>
