<?xml version="1.0" encoding="UTF-8" standalone="no"?>
<!DOCTYPE svg PUBLIC "-//W3C//DTD SVG 1.1//EN"
 "http://www.w3.org/Graphics/SVG/1.1/DTD/svg11.dtd">
<!-- Generated by graphviz version 8.1.0 (20230707.0739)
 -->
<!-- Title: raytracer::DirectionalLight Pages: 1 -->
<svg width="145pt" height="324pt"
 viewBox="0.00 0.00 145.00 324.00" xmlns="http://www.w3.org/2000/svg" xmlns:xlink="http://www.w3.org/1999/xlink">
<g id="graph0" class="graph" transform="scale(1 1) rotate(0) translate(4 320)">
<title>raytracer::DirectionalLight</title>
<!-- Node1 -->
<g id="Node000001" class="node">
<title>Node1</title>
<g id="a_Node000001"><a xlink:title=" ">
<polygon fill="#999999" stroke="none" points="137,-164 0,-164 0,0 137,0 137,-164"/>
<text text-anchor="start" x="4.75" y="-150.5" font-family="Helvetica,sans-Serif" font-size="10.00">raytracer::DirectionalLight</text>
<text text-anchor="start" x="9.88" y="-134.5" font-family="Helvetica,sans-Serif" font-size="10.00">+</text>
<text text-anchor="start" x="28" y="-134.5" font-family="Helvetica,sans-Serif" font-size="10.00">mDirection</text>
<text text-anchor="start" x="9.88" y="-118.5" font-family="Helvetica,sans-Serif" font-size="10.00">+</text>
<text text-anchor="start" x="28" y="-118.5" font-family="Helvetica,sans-Serif" font-size="10.00">mOrigin</text>
<text text-anchor="start" x="9.88" y="-102.5" font-family="Helvetica,sans-Serif" font-size="10.00">+</text>
<text text-anchor="start" x="28" y="-102.5" font-family="Helvetica,sans-Serif" font-size="10.00">mColor</text>
<text text-anchor="start" x="9.88" y="-86.5" font-family="Helvetica,sans-Serif" font-size="10.00">+</text>
<text text-anchor="start" x="28" y="-86.5" font-family="Helvetica,sans-Serif" font-size="10.00">mAllMatrix</text>
<text text-anchor="start" x="9.88" y="-70.5" font-family="Helvetica,sans-Serif" font-size="10.00">+</text>
<text text-anchor="start" x="28" y="-70.5" font-family="Helvetica,sans-Serif" font-size="10.00">mVectorRotation</text>
<text text-anchor="start" x="9.88" y="-54.5" font-family="Helvetica,sans-Serif" font-size="10.00">+</text>
<text text-anchor="start" x="28" y="-54.5" font-family="Helvetica,sans-Serif" font-size="10.00">DirectionalLight()</text>
<text text-anchor="start" x="9.88" y="-38.5" font-family="Helvetica,sans-Serif" font-size="10.00">+</text>
<text text-anchor="start" x="28" y="-38.5" font-family="Helvetica,sans-Serif" font-size="10.00">DirectionalLight()</text>
<text text-anchor="start" x="9.88" y="-22.5" font-family="Helvetica,sans-Serif" font-size="10.00">+</text>
<text text-anchor="start" x="28" y="-22.5" font-family="Helvetica,sans-Serif" font-size="10.00">~DirectionalLight()</text>
<text text-anchor="start" x="9.88" y="-6.5" font-family="Helvetica,sans-Serif" font-size="10.00">+</text>
<text text-anchor="start" x="28" y="-6.5" font-family="Helvetica,sans-Serif" font-size="10.00">getColorShadow()</text>
<polygon fill="#666666" stroke="#666666" points="0,-146 0,-146 137,-146 137,-146 0,-146"/>
<polygon fill="#666666" stroke="#666666" points="0,-66 0,-66 26,-66 26,-66 0,-66"/>
<polygon fill="#666666" stroke="#666666" points="26,-66 26,-66 137,-66 137,-66 26,-66"/>
<polygon fill="none" stroke="#666666" points="0,0 0,-164 137,-164 137,0 0,0"/>
</a>
</g>
</g>
<!-- Node2 -->
<g id="Node000002" class="node">
<title>Node2</title>
<g id="a_Node000002"><a xlink:href="classraytracer_1_1ILight.html" target="_top" xlink:title="Interface abstraite représentant une source lumineuse dans la scène.">
<polygon fill="white" stroke="none" points="131,-316 6,-316 6,-200 131,-200 131,-316"/>
<text text-anchor="start" x="29.88" y="-302.5" font-family="Helvetica,sans-Serif" font-size="10.00">raytracer::ILight</text>
<text text-anchor="start" x="9.88" y="-286.5" font-family="Helvetica,sans-Serif" font-size="10.00">+</text>
<text text-anchor="start" x="22" y="-286.5" font-family="Helvetica,sans-Serif" font-size="10.00">mBaseOrigin</text>
<text text-anchor="start" x="9.88" y="-270.5" font-family="Helvetica,sans-Serif" font-size="10.00">+</text>
<text text-anchor="start" x="22" y="-270.5" font-family="Helvetica,sans-Serif" font-size="10.00">mBaseDirection</text>
<text text-anchor="start" x="9.88" y="-254.5" font-family="Helvetica,sans-Serif" font-size="10.00">+</text>
<text text-anchor="start" x="22" y="-254.5" font-family="Helvetica,sans-Serif" font-size="10.00">mBaseColor</text>
<text text-anchor="start" x="9.88" y="-238.5" font-family="Helvetica,sans-Serif" font-size="10.00">+</text>
<text text-anchor="start" x="22" y="-238.5" font-family="Helvetica,sans-Serif" font-size="10.00">mBaseVectorRotation</text>
<text text-anchor="start" x="9.88" y="-222.5" font-family="Helvetica,sans-Serif" font-size="10.00">+</text>
<text text-anchor="start" x="22" y="-222.5" font-family="Helvetica,sans-Serif" font-size="10.00">~ILight()</text>
<text text-anchor="start" x="9.88" y="-206.5" font-family="Helvetica,sans-Serif" font-size="10.00">+</text>
<text text-anchor="start" x="22" y="-206.5" font-family="Helvetica,sans-Serif" font-size="10.00">getColorShadow()</text>
<polygon fill="#666666" stroke="#666666" points="6,-298 6,-298 131,-298 131,-298 6,-298"/>
<polygon fill="#666666" stroke="#666666" points="6,-234 6,-234 20,-234 20,-234 6,-234"/>
<polygon fill="#666666" stroke="#666666" points="20,-234 20,-234 131,-234 131,-234 20,-234"/>
<polygon fill="none" stroke="#666666" points="6,-200 6,-316 131,-316 131,-200 6,-200"/>
</a>
</g>
</g>
<!-- Node2&#45;&gt;Node1 -->
<g id="edge1_Node000001_Node000002" class="edge">
<title>Node2&#45;&gt;Node1</title>
<g id="a_edge1_Node000001_Node000002"><a xlink:title=" ">
<path fill="none" stroke="#63b8ff" d="M68.5,-189.23C68.5,-180.88 68.5,-172.29 68.5,-163.78"/>
<polygon fill="none" stroke="#63b8ff" points="65,-189.03 68.5,-199.03 72,-189.03 65,-189.03"/>
</a>
</g>
</g>
</g>
</svg>
