<?xml version="1.0" encoding="UTF-8" standalone="no"?>
<!DOCTYPE svg PUBLIC "-//W3C//DTD SVG 1.1//EN"
 "http://www.w3.org/Graphics/SVG/1.1/DTD/svg11.dtd">
<!-- Generated by graphviz version 8.1.0 (20230707.0739)
 -->
<!-- Title: raytracer::Camera::calculateDirection Pages: 1 -->
<svg width="854pt" height="42pt"
 viewBox="0.00 0.00 854.00 41.50" xmlns="http://www.w3.org/2000/svg" xmlns:xlink="http://www.w3.org/1999/xlink">
<g id="graph0" class="graph" transform="scale(1 1) rotate(0) translate(4 37.5)">
<title>raytracer::Camera::calculateDirection</title>
<!-- Node1 -->
<g id="Node000001" class="node">
<title>Node1</title>
<g id="a_Node000001"><a xlink:title="Calcule la direction d’un rayon depuis la caméra vers un point de l&#39;écran.">
<polygon fill="#999999" stroke="#666666" points="846,-33.5 735.5,-33.5 735.5,0 846,0 846,-33.5"/>
<text text-anchor="start" x="743.5" y="-20" font-family="Helvetica,sans-Serif" font-size="10.00">raytracer::Camera::</text>
<text text-anchor="middle" x="790.75" y="-7.25" font-family="Helvetica,sans-Serif" font-size="10.00">calculateDirection</text>
</a>
</g>
</g>
<!-- Node2 -->
<g id="Node000002" class="node">
<title>Node2</title>
<g id="a_Node000002"><a xlink:href="classraytracer_1_1Camera.html#aa6be6292787a7ffd1833c7184aed42af" target="_top" xlink:title="Génère un rayon à partir des coordonnées normalisées sur le plan de l&#39;écran.">
<polygon fill="white" stroke="#666666" points="699.5,-27.12 573.25,-27.12 573.25,-6.38 699.5,-6.38 699.5,-27.12"/>
<text text-anchor="middle" x="636.38" y="-13.62" font-family="Helvetica,sans-Serif" font-size="10.00">raytracer::Camera::ray</text>
</a>
</g>
</g>
<!-- Node1&#45;&gt;Node2 -->
<g id="edge1_Node000001_Node000002" class="edge">
<title>Node1&#45;&gt;Node2</title>
<g id="a_edge1_Node000001_Node000002"><a xlink:title=" ">
<path fill="none" stroke="#63b8ff" d="M724.27,-16.75C716.18,-16.75 707.92,-16.75 699.87,-16.75"/>
<polygon fill="#63b8ff" stroke="#63b8ff" points="724.17,-20.25 734.17,-16.75 724.17,-13.25 724.17,-20.25"/>
</a>
</g>
</g>
<!-- Node3 -->
<g id="Node000003" class="node">
<title>Node3</title>
<g id="a_Node000003"><a xlink:href="classraytracer_1_1Scene.html#a3e1cc90ae8e645a806ebc45eb6681958" target="_top" xlink:title="Calcule la couleur d&#39;un pixel donné dans l&#39;image.">
<polygon fill="white" stroke="#666666" points="537.25,-27.12 394.5,-27.12 394.5,-6.38 537.25,-6.38 537.25,-27.12"/>
<text text-anchor="middle" x="465.88" y="-13.62" font-family="Helvetica,sans-Serif" font-size="10.00">raytracer::Scene::getColor</text>
</a>
</g>
</g>
<!-- Node2&#45;&gt;Node3 -->
<g id="edge2_Node000002_Node000003" class="edge">
<title>Node2&#45;&gt;Node3</title>
<g id="a_edge2_Node000002_Node000003"><a xlink:title=" ">
<path fill="none" stroke="#63b8ff" d="M562.16,-16.75C554.04,-16.75 545.78,-16.75 537.69,-16.75"/>
<polygon fill="#63b8ff" stroke="#63b8ff" points="562.11,-20.25 572.11,-16.75 562.11,-13.25 562.11,-20.25"/>
</a>
</g>
</g>
<!-- Node4 -->
<g id="Node000004" class="node">
<title>Node4</title>
<g id="a_Node000004"><a xlink:href="classraytracer_1_1Scene.html#acda226b04c50587c0125112e5bfa5e7b" target="_top" xlink:title="Lance le rendu de la scène dans l&#39;image fournie.">
<polygon fill="white" stroke="#666666" points="358.5,-27.12 225.5,-27.12 225.5,-6.38 358.5,-6.38 358.5,-27.12"/>
<text text-anchor="middle" x="292" y="-13.62" font-family="Helvetica,sans-Serif" font-size="10.00">raytracer::Scene::render</text>
</a>
</g>
</g>
<!-- Node3&#45;&gt;Node4 -->
<g id="edge3_Node000003_Node000004" class="edge">
<title>Node3&#45;&gt;Node4</title>
<g id="a_edge3_Node000003_Node000004"><a xlink:title=" ">
<path fill="none" stroke="#63b8ff" d="M383.62,-16.75C375.33,-16.75 366.97,-16.75 358.87,-16.75"/>
<polygon fill="#63b8ff" stroke="#63b8ff" points="383.47,-20.25 393.47,-16.75 383.47,-13.25 383.47,-20.25"/>
</a>
</g>
</g>
<!-- Node5 -->
<g id="Node000005" class="node">
<title>Node5</title>
<g id="a_Node000005"><a xlink:href="classcore_1_1RayTracer.html#a859673b935c3ccddb6c3db5a3710f6fd" target="_top" xlink:title="Lance l&#39;exécution principale du programme.">
<polygon fill="white" stroke="#666666" points="189.5,-27.12 76.75,-27.12 76.75,-6.38 189.5,-6.38 189.5,-27.12"/>
<text text-anchor="middle" x="133.12" y="-13.62" font-family="Helvetica,sans-Serif" font-size="10.00">core::RayTracer::run</text>
</a>
</g>
</g>
<!-- Node4&#45;&gt;Node5 -->
<g id="edge4_Node000004_Node000005" class="edge">
<title>Node4&#45;&gt;Node5</title>
<g id="a_edge4_Node000004_Node000005"><a xlink:title=" ">
<path fill="none" stroke="#63b8ff" d="M214.4,-16.75C206.01,-16.75 197.6,-16.75 189.54,-16.75"/>
<polygon fill="#63b8ff" stroke="#63b8ff" points="214.38,-20.25 224.38,-16.75 214.38,-13.25 214.38,-20.25"/>
</a>
</g>
</g>
<!-- Node6 -->
<g id="Node000006" class="node">
<title>Node6</title>
<g id="a_Node000006"><a xlink:href="Main_8cpp.html#a3c04138a5bfe5d72780bb7e82a18e627" target="_top" xlink:title="Point d&#39;entrée principal du programme.">
<polygon fill="white" stroke="#666666" points="40.75,-27.12 0,-27.12 0,-6.38 40.75,-6.38 40.75,-27.12"/>
<text text-anchor="middle" x="20.38" y="-13.62" font-family="Helvetica,sans-Serif" font-size="10.00">main</text>
</a>
</g>
</g>
<!-- Node5&#45;&gt;Node6 -->
<g id="edge5_Node000005_Node000006" class="edge">
<title>Node5&#45;&gt;Node6</title>
<g id="a_edge5_Node000005_Node000006"><a xlink:title=" ">
<path fill="none" stroke="#63b8ff" d="M65.47,-16.75C56.6,-16.75 48.14,-16.75 41.04,-16.75"/>
<polygon fill="#63b8ff" stroke="#63b8ff" points="65.43,-20.25 75.43,-16.75 65.43,-13.25 65.43,-20.25"/>
</a>
</g>
</g>
</g>
</svg>
