<?xml version="1.0" encoding="UTF-8" standalone="no"?>
<!DOCTYPE svg PUBLIC "-//W3C//DTD SVG 1.1//EN"
 "http://www.w3.org/Graphics/SVG/1.1/DTD/svg11.dtd">
<!-- Generated by graphviz version 8.1.0 (20230707.0739)
 -->
<!-- Title: raytracer::Parser::parseCamera Pages: 1 -->
<svg width="301pt" height="80pt"
 viewBox="0.00 0.00 301.00 80.12" xmlns="http://www.w3.org/2000/svg" xmlns:xlink="http://www.w3.org/1999/xlink">
<g id="graph0" class="graph" transform="scale(1 1) rotate(0) translate(4 76.12)">
<title>raytracer::Parser::parseCamera</title>
<!-- Node1 -->
<g id="Node000001" class="node">
<title>Node1</title>
<g id="a_Node000001"><a xlink:title=" ">
<polygon fill="#999999" stroke="#666666" points="102.25,-49.12 0,-49.12 0,-15.62 102.25,-15.62 102.25,-49.12"/>
<text text-anchor="start" x="8" y="-35.62" font-family="Helvetica,sans-Serif" font-size="10.00">raytracer::Parser::</text>
<text text-anchor="middle" x="51.12" y="-22.88" font-family="Helvetica,sans-Serif" font-size="10.00">parseCamera</text>
</a>
</g>
</g>
<!-- Node2 -->
<g id="Node000002" class="node">
<title>Node2</title>
<g id="a_Node000002"><a xlink:href="classraytracer_1_1ErrorHandler.html#aada9238fd341b8db1101c7b8d7ea337e" target="_top" xlink:title=" ">
<polygon fill="white" stroke="#666666" points="279.5,-72.12 151.75,-72.12 151.75,-38.62 279.5,-38.62 279.5,-72.12"/>
<text text-anchor="start" x="159.75" y="-58.62" font-family="Helvetica,sans-Serif" font-size="10.00">raytracer::ErrorHandler</text>
<text text-anchor="middle" x="215.62" y="-45.88" font-family="Helvetica,sans-Serif" font-size="10.00">::report</text>
</a>
</g>
</g>
<!-- Node1&#45;&gt;Node2 -->
<g id="edge1_Node000001_Node000002" class="edge">
<title>Node1&#45;&gt;Node2</title>
<g id="a_edge1_Node000001_Node000002"><a xlink:title=" ">
<path fill="none" stroke="#63b8ff" d="M102.65,-39.53C114.73,-41.24 127.88,-43.1 140.77,-44.92"/>
<polygon fill="#63b8ff" stroke="#63b8ff" points="140.13,-48.51 150.52,-46.44 141.11,-41.58 140.13,-48.51"/>
</a>
</g>
</g>
<!-- Node3 -->
<g id="Node000003" class="node">
<title>Node3</title>
<g id="a_Node000003"><a xlink:href="classraytracer_1_1Scene.html#ac2e9c2f15ff3d6605241de0a4b95c76d" target="_top" xlink:title=" ">
<polygon fill="white" stroke="#666666" points="293,-20.75 138.25,-20.75 138.25,0 293,0 293,-20.75"/>
<text text-anchor="middle" x="215.62" y="-7.25" font-family="Helvetica,sans-Serif" font-size="10.00">raytracer::Scene::setCamera</text>
</a>
</g>
</g>
<!-- Node1&#45;&gt;Node3 -->
<g id="edge2_Node000001_Node000003" class="edge">
<title>Node1&#45;&gt;Node3</title>
<g id="a_edge2_Node000001_Node000003"><a xlink:title=" ">
<path fill="none" stroke="#63b8ff" d="M102.65,-25.53C110.51,-24.47 118.82,-23.35 127.22,-22.21"/>
<polygon fill="#63b8ff" stroke="#63b8ff" points="127.44,-25.58 136.88,-20.76 126.5,-18.64 127.44,-25.58"/>
</a>
</g>
</g>
</g>
</svg>
