<?xml version="1.0" encoding="UTF-8" standalone="no"?>
<!DOCTYPE svg PUBLIC "-//W3C//DTD SVG 1.1//EN"
 "http://www.w3.org/Graphics/SVG/1.1/DTD/svg11.dtd">
<!-- Generated by graphviz version 8.1.0 (20230707.0739)
 -->
<!-- Title: raytracer::World Pages: 1 -->
<svg width="96pt" height="108pt"
 viewBox="0.00 0.00 96.00 108.00" xmlns="http://www.w3.org/2000/svg" xmlns:xlink="http://www.w3.org/1999/xlink">
<g id="graph0" class="graph" transform="scale(1 1) rotate(0) translate(4 104)">
<title>raytracer::World</title>
<!-- Node1 -->
<g id="Node000001" class="node">
<title>Node1</title>
<g id="a_Node000001"><a xlink:title=" ">
<polygon fill="#999999" stroke="none" points="88,-100 0,-100 0,0 88,0 88,-100"/>
<text text-anchor="start" x="5" y="-86.5" font-family="Helvetica,sans-Serif" font-size="10.00">raytracer::World</text>
<text text-anchor="start" x="42.5" y="-70.5" font-family="Helvetica,sans-Serif" font-size="10.00"> </text>
<text text-anchor="start" x="4.38" y="-54.5" font-family="Helvetica,sans-Serif" font-size="10.00">+</text>
<text text-anchor="start" x="17" y="-54.5" font-family="Helvetica,sans-Serif" font-size="10.00">World()</text>
<text text-anchor="start" x="4.38" y="-38.5" font-family="Helvetica,sans-Serif" font-size="10.00">+</text>
<text text-anchor="start" x="17" y="-38.5" font-family="Helvetica,sans-Serif" font-size="10.00">~World()</text>
<text text-anchor="start" x="4.38" y="-22.5" font-family="Helvetica,sans-Serif" font-size="10.00">+</text>
<text text-anchor="start" x="17" y="-22.5" font-family="Helvetica,sans-Serif" font-size="10.00">getDistance()</text>
<text text-anchor="start" x="4.38" y="-6.5" font-family="Helvetica,sans-Serif" font-size="10.00">+</text>
<text text-anchor="start" x="17" y="-6.5" font-family="Helvetica,sans-Serif" font-size="10.00">hit()</text>
<polygon fill="#666666" stroke="#666666" points="0,-82 0,-82 88,-82 88,-82 0,-82"/>
<polygon fill="#666666" stroke="#666666" points="0,-66 0,-66 88,-66 88,-66 0,-66"/>
<polygon fill="none" stroke="#666666" points="0,0 0,-100 88,-100 88,0 0,0"/>
</a>
</g>
</g>
</g>
</svg>
