<?xml version="1.0" encoding="UTF-8" standalone="no"?>
<!DOCTYPE svg PUBLIC "-//W3C//DTD SVG 1.1//EN"
 "http://www.w3.org/Graphics/SVG/1.1/DTD/svg11.dtd">
<!-- Generated by graphviz version 8.1.0 (20230707.0739)
 -->
<!-- Title: core::Parser::parseCamera Pages: 1 -->
<svg width="348pt" height="68pt"
 viewBox="0.00 0.00 347.50 67.75" xmlns="http://www.w3.org/2000/svg" xmlns:xlink="http://www.w3.org/1999/xlink">
<g id="graph0" class="graph" transform="scale(1 1) rotate(0) translate(4 63.75)">
<title>core::Parser::parseCamera</title>
<!-- Node1 -->
<g id="Node000001" class="node">
<title>Node1</title>
<g id="a_Node000001"><a xlink:title="Parse la configuration de la caméra à partir d&#39;un objet libconfig::Config.">
<polygon fill="#999999" stroke="#666666" points="144.25,-39.75 0,-39.75 0,-19 144.25,-19 144.25,-39.75"/>
<text text-anchor="middle" x="72.12" y="-26.25" font-family="Helvetica,sans-Serif" font-size="10.00">core::Parser::parseCamera</text>
</a>
</g>
</g>
<!-- Node2 -->
<g id="Node000002" class="node">
<title>Node2</title>
<g id="a_Node000002"><a xlink:href="classcore_1_1Parser.html#a0e784fcb7abfd2acb77227eb7f41299e" target="_top" xlink:title="Parse la rotation depuis un Setting libconfig.">
<polygon fill="white" stroke="#666666" points="333.5,-59.75 186.25,-59.75 186.25,-39 333.5,-39 333.5,-59.75"/>
<text text-anchor="middle" x="259.88" y="-46.25" font-family="Helvetica,sans-Serif" font-size="10.00">core::Parser::parseRotation</text>
</a>
</g>
</g>
<!-- Node1&#45;&gt;Node2 -->
<g id="edge1_Node000001_Node000002" class="edge">
<title>Node1&#45;&gt;Node2</title>
<g id="a_edge1_Node000001_Node000002"><a xlink:title=" ">
<path fill="none" stroke="#63b8ff" d="M144.68,-37.08C154.58,-38.15 164.83,-39.25 174.94,-40.34"/>
<polygon fill="#63b8ff" stroke="#63b8ff" points="174.51,-43.92 184.83,-41.51 175.26,-36.96 174.51,-43.92"/>
</a>
</g>
</g>
<!-- Node3 -->
<g id="Node000003" class="node">
<title>Node3</title>
<g id="a_Node000003"><a xlink:href="classcore_1_1Parser.html#a287c3afa62b684f3aac0620aced380a8" target="_top" xlink:title="Parse la translation depuis un Setting libconfig.">
<polygon fill="white" stroke="#666666" points="339.5,-20.75 180.25,-20.75 180.25,0 339.5,0 339.5,-20.75"/>
<text text-anchor="middle" x="259.88" y="-7.25" font-family="Helvetica,sans-Serif" font-size="10.00">core::Parser::parseTranslation</text>
</a>
</g>
</g>
<!-- Node1&#45;&gt;Node3 -->
<g id="edge2_Node000001_Node000003" class="edge">
<title>Node1&#45;&gt;Node3</title>
<g id="a_edge2_Node000001_Node000003"><a xlink:title=" ">
<path fill="none" stroke="#63b8ff" d="M144.68,-22.06C152.71,-21.23 160.96,-20.39 169.18,-19.55"/>
<polygon fill="#63b8ff" stroke="#63b8ff" points="169.36,-22.95 178.95,-18.45 168.64,-15.98 169.36,-22.95"/>
</a>
</g>
</g>
</g>
</svg>
