<?xml version="1.0" encoding="UTF-8" standalone="no"?>
<!DOCTYPE svg PUBLIC "-//W3C//DTD SVG 1.1//EN"
 "http://www.w3.org/Graphics/SVG/1.1/DTD/svg11.dtd">
<!-- Generated by graphviz version 8.1.0 (20230707.0739)
 -->
<!-- Title: raytracer::ParseError::what Pages: 1 -->
<svg width="349pt" height="42pt"
 viewBox="0.00 0.00 349.25 41.50" xmlns="http://www.w3.org/2000/svg" xmlns:xlink="http://www.w3.org/1999/xlink">
<g id="graph0" class="graph" transform="scale(1 1) rotate(0) translate(4 37.5)">
<title>raytracer::ParseError::what</title>
<!-- Node1 -->
<g id="Node000001" class="node">
<title>Node1</title>
<g id="a_Node000001"><a xlink:title="Renvoie le message d&#39;erreur.">
<polygon fill="#999999" stroke="#666666" points="341.25,-33.5 225.5,-33.5 225.5,0 341.25,0 341.25,-33.5"/>
<text text-anchor="start" x="233.5" y="-20" font-family="Helvetica,sans-Serif" font-size="10.00">raytracer::ParseError</text>
<text text-anchor="middle" x="283.38" y="-7.25" font-family="Helvetica,sans-Serif" font-size="10.00">::what</text>
</a>
</g>
</g>
<!-- Node2 -->
<g id="Node000002" class="node">
<title>Node2</title>
<g id="a_Node000002"><a xlink:href="classcore_1_1RayTracer.html#a859673b935c3ccddb6c3db5a3710f6fd" target="_top" xlink:title="Lance l&#39;exécution principale du programme.">
<polygon fill="white" stroke="#666666" points="189.5,-27.12 76.75,-27.12 76.75,-6.38 189.5,-6.38 189.5,-27.12"/>
<text text-anchor="middle" x="133.12" y="-13.62" font-family="Helvetica,sans-Serif" font-size="10.00">core::RayTracer::run</text>
</a>
</g>
</g>
<!-- Node1&#45;&gt;Node2 -->
<g id="edge1_Node000001_Node000002" class="edge">
<title>Node1&#45;&gt;Node2</title>
<g id="a_edge1_Node000001_Node000002"><a xlink:title=" ">
<path fill="none" stroke="#63b8ff" d="M214.08,-16.75C205.96,-16.75 197.74,-16.75 189.83,-16.75"/>
<polygon fill="#63b8ff" stroke="#63b8ff" points="214.06,-20.25 224.06,-16.75 214.06,-13.25 214.06,-20.25"/>
</a>
</g>
</g>
<!-- Node3 -->
<g id="Node000003" class="node">
<title>Node3</title>
<g id="a_Node000003"><a xlink:href="Main_8cpp.html#a3c04138a5bfe5d72780bb7e82a18e627" target="_top" xlink:title="Point d&#39;entrée principal du programme.">
<polygon fill="white" stroke="#666666" points="40.75,-27.12 0,-27.12 0,-6.38 40.75,-6.38 40.75,-27.12"/>
<text text-anchor="middle" x="20.38" y="-13.62" font-family="Helvetica,sans-Serif" font-size="10.00">main</text>
</a>
</g>
</g>
<!-- Node2&#45;&gt;Node3 -->
<g id="edge2_Node000002_Node000003" class="edge">
<title>Node2&#45;&gt;Node3</title>
<g id="a_edge2_Node000002_Node000003"><a xlink:title=" ">
<path fill="none" stroke="#63b8ff" d="M65.47,-16.75C56.6,-16.75 48.14,-16.75 41.04,-16.75"/>
<polygon fill="#63b8ff" stroke="#63b8ff" points="65.43,-20.25 75.43,-16.75 65.43,-13.25 65.43,-20.25"/>
</a>
</g>
</g>
</g>
</svg>
