<?xml version="1.0" encoding="UTF-8" standalone="no"?>
<!DOCTYPE svg PUBLIC "-//W3C//DTD SVG 1.1//EN"
 "http://www.w3.org/Graphics/SVG/1.1/DTD/svg11.dtd">
<!-- Generated by graphviz version 8.1.0 (20230707.0739)
 -->
<!-- Title: raytracer::Image::displaySFML Pages: 1 -->
<svg width="330pt" height="107pt"
 viewBox="0.00 0.00 329.50 106.75" xmlns="http://www.w3.org/2000/svg" xmlns:xlink="http://www.w3.org/1999/xlink">
<g id="graph0" class="graph" transform="scale(1 1) rotate(0) translate(4 102.75)">
<title>raytracer::Image::displaySFML</title>
<!-- Node1 -->
<g id="Node000001" class="node">
<title>Node1</title>
<g id="a_Node000001"><a xlink:title="Affiche l&#39;image dans la fenêtre SFML.">
<polygon fill="#999999" stroke="#666666" points="164.5,-59.75 0,-59.75 0,-39 164.5,-39 164.5,-59.75"/>
<text text-anchor="middle" x="82.25" y="-46.25" font-family="Helvetica,sans-Serif" font-size="10.00">raytracer::Image::displaySFML</text>
</a>
</g>
</g>
<!-- Node2 -->
<g id="Node000002" class="node">
<title>Node2</title>
<g id="a_Node000002"><a xlink:href="classraytracer_1_1Color.html#a22e077d8468e9f9006e37389372f3501" target="_top" xlink:title=" ">
<polygon fill="white" stroke="#666666" points="321.12,-98.75 200.88,-98.75 200.88,-78 321.12,-78 321.12,-98.75"/>
<text text-anchor="middle" x="261" y="-85.25" font-family="Helvetica,sans-Serif" font-size="10.00">raytracer::Color::getB</text>
</a>
</g>
</g>
<!-- Node1&#45;&gt;Node2 -->
<g id="edge1_Node000001_Node000002" class="edge">
<title>Node1&#45;&gt;Node2</title>
<g id="a_edge1_Node000001_Node000002"><a xlink:title=" ">
<path fill="none" stroke="#63b8ff" d="M132.48,-60.24C153.46,-64.87 178.13,-70.31 200.15,-75.17"/>
<polygon fill="#63b8ff" stroke="#63b8ff" points="199.2,-78.77 209.72,-77.5 200.71,-71.93 199.2,-78.77"/>
</a>
</g>
</g>
<!-- Node3 -->
<g id="Node000003" class="node">
<title>Node3</title>
<g id="a_Node000003"><a xlink:href="classraytracer_1_1Color.html#a4002ae54e8836e8f8b506ff2ef4fa9a2" target="_top" xlink:title=" ">
<polygon fill="white" stroke="#666666" points="321.5,-59.75 200.5,-59.75 200.5,-39 321.5,-39 321.5,-59.75"/>
<text text-anchor="middle" x="261" y="-46.25" font-family="Helvetica,sans-Serif" font-size="10.00">raytracer::Color::getG</text>
</a>
</g>
</g>
<!-- Node1&#45;&gt;Node3 -->
<g id="edge2_Node000001_Node000003" class="edge">
<title>Node1&#45;&gt;Node3</title>
<g id="a_edge2_Node000001_Node000003"><a xlink:title=" ">
<path fill="none" stroke="#63b8ff" d="M164.9,-49.38C173.05,-49.38 181.27,-49.38 189.29,-49.38"/>
<polygon fill="#63b8ff" stroke="#63b8ff" points="189.07,-52.88 199.07,-49.38 189.07,-45.88 189.07,-52.88"/>
</a>
</g>
</g>
<!-- Node4 -->
<g id="Node000004" class="node">
<title>Node4</title>
<g id="a_Node000004"><a xlink:href="classraytracer_1_1Color.html#aa32ae9b17373389db6c03fda0d90c87a" target="_top" xlink:title=" ">
<polygon fill="white" stroke="#666666" points="321.12,-20.75 200.88,-20.75 200.88,0 321.12,0 321.12,-20.75"/>
<text text-anchor="middle" x="261" y="-7.25" font-family="Helvetica,sans-Serif" font-size="10.00">raytracer::Color::getR</text>
</a>
</g>
</g>
<!-- Node1&#45;&gt;Node4 -->
<g id="edge3_Node000001_Node000004" class="edge">
<title>Node1&#45;&gt;Node4</title>
<g id="a_edge3_Node000001_Node000004"><a xlink:title=" ">
<path fill="none" stroke="#63b8ff" d="M132.48,-38.51C153.46,-33.88 178.13,-28.44 200.15,-23.58"/>
<polygon fill="#63b8ff" stroke="#63b8ff" points="200.71,-26.82 209.72,-21.25 199.2,-19.98 200.71,-26.82"/>
</a>
</g>
</g>
</g>
</svg>
