<?xml version="1.0" encoding="UTF-8" standalone="no"?>
<!DOCTYPE svg PUBLIC "-//W3C//DTD SVG 1.1//EN"
 "http://www.w3.org/Graphics/SVG/1.1/DTD/svg11.dtd">
<!-- Generated by graphviz version 8.1.0 (20230707.0739)
 -->
<!-- Title: raytracer::Camera Pages: 1 -->
<svg width="463pt" height="674pt"
 viewBox="0.00 0.00 463.36 674.25" xmlns="http://www.w3.org/2000/svg" xmlns:xlink="http://www.w3.org/1999/xlink">
<g id="graph0" class="graph" transform="scale(1 1) rotate(0) translate(4 670.25)">
<title>raytracer::Camera</title>
<!-- Node1 -->
<g id="Node000001" class="node">
<title>Node1</title>
<g id="a_Node000001"><a xlink:title="Classe représentant une caméra dans le moteur de raytracing.">
<polygon fill="#999999" stroke="none" points="262.36,-196 140.36,-196 140.36,0 262.36,0 262.36,-196"/>
<text text-anchor="start" x="157.11" y="-182.5" font-family="Helvetica,sans-Serif" font-size="10.00">raytracer::Camera</text>
<text text-anchor="start" x="144.23" y="-166.5" font-family="Helvetica,sans-Serif" font-size="10.00">+</text>
<text text-anchor="start" x="156.36" y="-166.5" font-family="Helvetica,sans-Serif" font-size="10.00">width</text>
<text text-anchor="start" x="144.23" y="-150.5" font-family="Helvetica,sans-Serif" font-size="10.00">+</text>
<text text-anchor="start" x="156.36" y="-150.5" font-family="Helvetica,sans-Serif" font-size="10.00">height</text>
<text text-anchor="start" x="144.23" y="-134.5" font-family="Helvetica,sans-Serif" font-size="10.00">+</text>
<text text-anchor="start" x="156.36" y="-134.5" font-family="Helvetica,sans-Serif" font-size="10.00">posX</text>
<text text-anchor="start" x="144.23" y="-118.5" font-family="Helvetica,sans-Serif" font-size="10.00">+</text>
<text text-anchor="start" x="156.36" y="-118.5" font-family="Helvetica,sans-Serif" font-size="10.00">posY</text>
<text text-anchor="start" x="144.23" y="-102.5" font-family="Helvetica,sans-Serif" font-size="10.00">+</text>
<text text-anchor="start" x="156.36" y="-102.5" font-family="Helvetica,sans-Serif" font-size="10.00">posZ</text>
<text text-anchor="start" x="144.23" y="-86.5" font-family="Helvetica,sans-Serif" font-size="10.00">+</text>
<text text-anchor="start" x="156.36" y="-86.5" font-family="Helvetica,sans-Serif" font-size="10.00">fieldOfView</text>
<text text-anchor="start" x="144.23" y="-70.5" font-family="Helvetica,sans-Serif" font-size="10.00">+</text>
<text text-anchor="start" x="156.36" y="-70.5" font-family="Helvetica,sans-Serif" font-size="10.00">Camera()</text>
<text text-anchor="start" x="144.23" y="-54.5" font-family="Helvetica,sans-Serif" font-size="10.00">+</text>
<text text-anchor="start" x="156.36" y="-54.5" font-family="Helvetica,sans-Serif" font-size="10.00">~Camera()</text>
<text text-anchor="start" x="144.23" y="-38.5" font-family="Helvetica,sans-Serif" font-size="10.00">+</text>
<text text-anchor="start" x="156.36" y="-38.5" font-family="Helvetica,sans-Serif" font-size="10.00">ray()</text>
<text text-anchor="start" x="144.23" y="-22.5" font-family="Helvetica,sans-Serif" font-size="10.00">+</text>
<text text-anchor="start" x="156.36" y="-22.5" font-family="Helvetica,sans-Serif" font-size="10.00">calculateScreenPos()</text>
<text text-anchor="start" x="144.23" y="-6.5" font-family="Helvetica,sans-Serif" font-size="10.00">+</text>
<text text-anchor="start" x="156.36" y="-6.5" font-family="Helvetica,sans-Serif" font-size="10.00">calculateDirection()</text>
<polygon fill="#666666" stroke="#666666" points="140.36,-178 140.36,-178 262.36,-178 262.36,-178 140.36,-178"/>
<polygon fill="#666666" stroke="#666666" points="140.36,-82 140.36,-82 154.36,-82 154.36,-82 140.36,-82"/>
<polygon fill="#666666" stroke="#666666" points="154.36,-82 154.36,-82 262.36,-82 262.36,-82 154.36,-82"/>
<polygon fill="none" stroke="#666666" points="140.36,0 140.36,-196 262.36,-196 262.36,0 140.36,0"/>
</a>
</g>
</g>
<!-- Node2 -->
<g id="Node000002" class="node">
<title>Node2</title>
<g id="a_Node000002"><a xlink:href="classraytracer_1_1Rectangle3D.html" target="_top" xlink:title=" ">
<polygon fill="white" stroke="none" points="200.36,-344.75 78.36,-344.75 78.36,-244.75 200.36,-244.75 200.36,-344.75"/>
<text text-anchor="start" x="83.11" y="-331.25" font-family="Helvetica,sans-Serif" font-size="10.00">raytracer::Rectangle3D</text>
<text text-anchor="start" x="137.86" y="-315.25" font-family="Helvetica,sans-Serif" font-size="10.00"> </text>
<text text-anchor="start" x="88.23" y="-299.25" font-family="Helvetica,sans-Serif" font-size="10.00">+</text>
<text text-anchor="start" x="106.36" y="-299.25" font-family="Helvetica,sans-Serif" font-size="10.00">Rectangle3D()</text>
<text text-anchor="start" x="88.23" y="-283.25" font-family="Helvetica,sans-Serif" font-size="10.00">+</text>
<text text-anchor="start" x="106.36" y="-283.25" font-family="Helvetica,sans-Serif" font-size="10.00">Rectangle3D()</text>
<text text-anchor="start" x="88.23" y="-267.25" font-family="Helvetica,sans-Serif" font-size="10.00">+</text>
<text text-anchor="start" x="106.36" y="-267.25" font-family="Helvetica,sans-Serif" font-size="10.00">~Rectangle3D()</text>
<text text-anchor="start" x="88.23" y="-251.25" font-family="Helvetica,sans-Serif" font-size="10.00">+</text>
<text text-anchor="start" x="106.36" y="-251.25" font-family="Helvetica,sans-Serif" font-size="10.00">pointAt()</text>
<polygon fill="#666666" stroke="#666666" points="78.36,-326.75 78.36,-326.75 200.36,-326.75 200.36,-326.75 78.36,-326.75"/>
<polygon fill="#666666" stroke="#666666" points="78.36,-310.75 78.36,-310.75 200.36,-310.75 200.36,-310.75 78.36,-310.75"/>
<polygon fill="none" stroke="#666666" points="78.36,-244.75 78.36,-344.75 200.36,-344.75 200.36,-244.75 78.36,-244.75"/>
</a>
</g>
</g>
<!-- Node2&#45;&gt;Node1 -->
<g id="edge1_Node000001_Node000002" class="edge">
<title>Node2&#45;&gt;Node1</title>
<g id="a_edge1_Node000001_Node000002"><a xlink:title=" ">
<path fill="none" stroke="#63b8ff" d="M154.92,-244.86C158.54,-233.5 162.53,-220.96 166.61,-208.15"/>
<polygon fill="none" stroke="#63b8ff" points="166.62,-208.1 164.63,-201.17 170.26,-196.67 172.26,-203.6 166.62,-208.1"/>
</a>
</g>
<text text-anchor="middle" x="190.36" y="-217.25" font-family="Helvetica,sans-Serif" font-size="10.00" fill="grey"> +mScreen</text>
</g>
<!-- Node3 -->
<g id="Node000003" class="node">
<title>Node3</title>
<g id="a_Node000003"><a xlink:href="classmath_1_1Point3D.html" target="_top" xlink:title="Représente un point 3D. Peut interagir avec Vector3D.">
<polygon fill="white" stroke="none" points="92.86,-634.25 7.86,-634.25 7.86,-438.25 92.86,-438.25 92.86,-634.25"/>
<text text-anchor="start" x="15.48" y="-620.75" font-family="Helvetica,sans-Serif" font-size="10.00">math::Point3D</text>
<text text-anchor="start" x="11.73" y="-604.75" font-family="Helvetica,sans-Serif" font-size="10.00">+</text>
<text text-anchor="start" x="23.86" y="-604.75" font-family="Helvetica,sans-Serif" font-size="10.00">mX</text>
<text text-anchor="start" x="11.73" y="-588.75" font-family="Helvetica,sans-Serif" font-size="10.00">+</text>
<text text-anchor="start" x="23.86" y="-588.75" font-family="Helvetica,sans-Serif" font-size="10.00">mY</text>
<text text-anchor="start" x="11.73" y="-572.75" font-family="Helvetica,sans-Serif" font-size="10.00">+</text>
<text text-anchor="start" x="23.86" y="-572.75" font-family="Helvetica,sans-Serif" font-size="10.00">mZ</text>
<text text-anchor="start" x="11.73" y="-556.75" font-family="Helvetica,sans-Serif" font-size="10.00">+</text>
<text text-anchor="start" x="23.86" y="-556.75" font-family="Helvetica,sans-Serif" font-size="10.00">Point3D()</text>
<text text-anchor="start" x="11.73" y="-540.75" font-family="Helvetica,sans-Serif" font-size="10.00">+</text>
<text text-anchor="start" x="23.86" y="-540.75" font-family="Helvetica,sans-Serif" font-size="10.00">Point3D()</text>
<text text-anchor="start" x="11.73" y="-524.75" font-family="Helvetica,sans-Serif" font-size="10.00">+</text>
<text text-anchor="start" x="23.86" y="-524.75" font-family="Helvetica,sans-Serif" font-size="10.00">~Point3D()</text>
<text text-anchor="start" x="11.73" y="-508.75" font-family="Helvetica,sans-Serif" font-size="10.00">+</text>
<text text-anchor="start" x="23.86" y="-508.75" font-family="Helvetica,sans-Serif" font-size="10.00">operator+()</text>
<text text-anchor="start" x="11.73" y="-492.75" font-family="Helvetica,sans-Serif" font-size="10.00">+</text>
<text text-anchor="start" x="23.86" y="-492.75" font-family="Helvetica,sans-Serif" font-size="10.00">operator+()</text>
<text text-anchor="start" x="11.73" y="-476.75" font-family="Helvetica,sans-Serif" font-size="10.00">+</text>
<text text-anchor="start" x="23.86" y="-476.75" font-family="Helvetica,sans-Serif" font-size="10.00">operator+=()</text>
<text text-anchor="start" x="11.73" y="-460.75" font-family="Helvetica,sans-Serif" font-size="10.00">+</text>
<text text-anchor="start" x="23.86" y="-460.75" font-family="Helvetica,sans-Serif" font-size="10.00">operator&#45;()</text>
<text text-anchor="start" x="11.73" y="-444.75" font-family="Helvetica,sans-Serif" font-size="10.00">+</text>
<text text-anchor="start" x="23.86" y="-444.75" font-family="Helvetica,sans-Serif" font-size="10.00">operator&#45;()</text>
<polygon fill="#666666" stroke="#666666" points="7.86,-616.25 7.86,-616.25 92.86,-616.25 92.86,-616.25 7.86,-616.25"/>
<polygon fill="#666666" stroke="#666666" points="7.86,-568.25 7.86,-568.25 21.86,-568.25 21.86,-568.25 7.86,-568.25"/>
<polygon fill="#666666" stroke="#666666" points="21.86,-568.25 21.86,-568.25 92.86,-568.25 92.86,-568.25 21.86,-568.25"/>
<polygon fill="none" stroke="#666666" points="7.86,-438.25 7.86,-634.25 92.86,-634.25 92.86,-438.25 7.86,-438.25"/>
</a>
</g>
</g>
<!-- Node3&#45;&gt;Node1 -->
<g id="edge4_Node000001_Node000003" class="edge">
<title>Node3&#45;&gt;Node1</title>
<g id="a_edge4_Node000001_Node000003"><a xlink:title=" ">
<path fill="none" stroke="#63b8ff" d="M14.78,-438.28C-0.79,-379.59 -9.74,-304.75 19.11,-244.75 41.97,-197.19 88.75,-160.29 129.19,-135.52"/>
<polygon fill="none" stroke="#63b8ff" points="129.31,-135.45 132.43,-128.95 139.63,-129.32 136.51,-135.83 129.31,-135.45"/>
</a>
</g>
<text text-anchor="middle" x="44.48" y="-291.62" font-family="Helvetica,sans-Serif" font-size="10.00" fill="grey"> +mOrigin</text>
</g>
<!-- Node3&#45;&gt;Node2 -->
<g id="edge2_Node000002_Node000003" class="edge">
<title>Node3&#45;&gt;Node2</title>
<g id="a_edge2_Node000002_Node000003"><a xlink:title=" ">
<path fill="none" stroke="#63b8ff" d="M70.72,-438.56C77.52,-413.35 86.11,-386.58 96.61,-362.75 97.61,-360.48 98.68,-358.19 99.81,-355.91"/>
<polygon fill="none" stroke="#63b8ff" points="99.79,-355.95 99.07,-348.78 105.42,-345.36 106.13,-352.53 99.79,-355.95"/>
</a>
</g>
<text text-anchor="middle" x="120.23" y="-372.38" font-family="Helvetica,sans-Serif" font-size="10.00" fill="grey"> &#45;mOrigin</text>
</g>
<!-- Node4 -->
<g id="Node000004" class="node">
<title>Node4</title>
<g id="a_Node000004"><a xlink:href="classmath_1_1Vector3D.html" target="_top" xlink:title="Représente un vecteur 3D avec des opérations vectorielles de base.">
<polygon fill="white" stroke="none" points="208.86,-666.25 123.86,-666.25 123.86,-406.25 208.86,-406.25 208.86,-666.25"/>
<text text-anchor="start" x="128.48" y="-652.75" font-family="Helvetica,sans-Serif" font-size="10.00">math::Vector3D</text>
<text text-anchor="start" x="127.73" y="-636.75" font-family="Helvetica,sans-Serif" font-size="10.00">+</text>
<text text-anchor="start" x="139.86" y="-636.75" font-family="Helvetica,sans-Serif" font-size="10.00">mX</text>
<text text-anchor="start" x="127.73" y="-620.75" font-family="Helvetica,sans-Serif" font-size="10.00">+</text>
<text text-anchor="start" x="139.86" y="-620.75" font-family="Helvetica,sans-Serif" font-size="10.00">mY</text>
<text text-anchor="start" x="127.73" y="-604.75" font-family="Helvetica,sans-Serif" font-size="10.00">+</text>
<text text-anchor="start" x="139.86" y="-604.75" font-family="Helvetica,sans-Serif" font-size="10.00">mZ</text>
<text text-anchor="start" x="127.73" y="-588.75" font-family="Helvetica,sans-Serif" font-size="10.00">+</text>
<text text-anchor="start" x="139.86" y="-588.75" font-family="Helvetica,sans-Serif" font-size="10.00">Vector3D()</text>
<text text-anchor="start" x="127.73" y="-572.75" font-family="Helvetica,sans-Serif" font-size="10.00">+</text>
<text text-anchor="start" x="139.86" y="-572.75" font-family="Helvetica,sans-Serif" font-size="10.00">Vector3D()</text>
<text text-anchor="start" x="127.73" y="-556.75" font-family="Helvetica,sans-Serif" font-size="10.00">+</text>
<text text-anchor="start" x="139.86" y="-556.75" font-family="Helvetica,sans-Serif" font-size="10.00">~Vector3D()</text>
<text text-anchor="start" x="127.73" y="-540.75" font-family="Helvetica,sans-Serif" font-size="10.00">+</text>
<text text-anchor="start" x="139.86" y="-540.75" font-family="Helvetica,sans-Serif" font-size="10.00">length()</text>
<text text-anchor="start" x="127.73" y="-524.75" font-family="Helvetica,sans-Serif" font-size="10.00">+</text>
<text text-anchor="start" x="139.86" y="-524.75" font-family="Helvetica,sans-Serif" font-size="10.00">dot()</text>
<text text-anchor="start" x="127.73" y="-508.75" font-family="Helvetica,sans-Serif" font-size="10.00">+</text>
<text text-anchor="start" x="139.86" y="-508.75" font-family="Helvetica,sans-Serif" font-size="10.00">operator+()</text>
<text text-anchor="start" x="127.73" y="-492.75" font-family="Helvetica,sans-Serif" font-size="10.00">+</text>
<text text-anchor="start" x="139.86" y="-492.75" font-family="Helvetica,sans-Serif" font-size="10.00">operator+=()</text>
<text text-anchor="start" x="127.73" y="-476.75" font-family="Helvetica,sans-Serif" font-size="10.00">+</text>
<text text-anchor="start" x="139.86" y="-476.75" font-family="Helvetica,sans-Serif" font-size="10.00">operator&#45;()</text>
<text text-anchor="start" x="127.73" y="-460.75" font-family="Helvetica,sans-Serif" font-size="10.00">+</text>
<text text-anchor="start" x="139.86" y="-460.75" font-family="Helvetica,sans-Serif" font-size="10.00">operator&#45;=()</text>
<text text-anchor="start" x="127.73" y="-444.75" font-family="Helvetica,sans-Serif" font-size="10.00">+</text>
<text text-anchor="start" x="139.86" y="-444.75" font-family="Helvetica,sans-Serif" font-size="10.00">operator*()</text>
<text text-anchor="start" x="139.86" y="-428.75" font-family="Helvetica,sans-Serif" font-size="10.00">and 9 more...</text>
<text text-anchor="start" x="127.73" y="-412.75" font-family="Helvetica,sans-Serif" font-size="10.00">+</text>
<text text-anchor="start" x="139.86" y="-412.75" font-family="Helvetica,sans-Serif" font-size="10.00">normalize()</text>
<polygon fill="#666666" stroke="#666666" points="123.86,-648.25 123.86,-648.25 208.86,-648.25 208.86,-648.25 123.86,-648.25"/>
<polygon fill="#666666" stroke="#666666" points="123.86,-600.25 123.86,-600.25 137.86,-600.25 137.86,-600.25 123.86,-600.25"/>
<polygon fill="#666666" stroke="#666666" points="137.86,-600.25 137.86,-600.25 208.86,-600.25 208.86,-600.25 137.86,-600.25"/>
<polygon fill="none" stroke="#666666" points="123.86,-406.25 123.86,-666.25 208.86,-666.25 208.86,-406.25 123.86,-406.25"/>
</a>
</g>
</g>
<!-- Node4&#45;&gt;Node1 -->
<g id="edge6_Node000001_Node000004" class="edge">
<title>Node4&#45;&gt;Node1</title>
<g id="a_edge6_Node000001_Node000004"><a xlink:title=" ">
<path fill="none" stroke="#63b8ff" d="M208.82,-438.63C214.43,-422.11 219.29,-404.9 222.36,-388.25 233.18,-329.46 229.44,-262.98 222.33,-208.59"/>
<polygon fill="none" stroke="#63b8ff" points="222.32,-208.54 217.54,-203.14 220.68,-196.65 225.46,-202.05 222.32,-208.54"/>
</a>
</g>
<text text-anchor="middle" x="275.86" y="-291.62" font-family="Helvetica,sans-Serif" font-size="10.00" fill="grey"> +mVectorRotation</text>
</g>
<!-- Node4&#45;&gt;Node2 -->
<g id="edge3_Node000002_Node000004" class="edge">
<title>Node4&#45;&gt;Node2</title>
<g id="a_edge3_Node000002_Node000004"><a xlink:title=" ">
<path fill="none" stroke="#63b8ff" d="M150.92,-406.59C150.22,-400.39 149.52,-394.25 148.86,-388.25 147.76,-378.32 146.63,-367.79 145.56,-357.52"/>
<polygon fill="none" stroke="#63b8ff" points="145.57,-357.56 140.97,-352.01 144.33,-345.63 148.93,-351.18 145.57,-357.56"/>
</a>
</g>
<text text-anchor="middle" x="186.11" y="-378.75" font-family="Helvetica,sans-Serif" font-size="10.00" fill="grey"> &#45;mBottomSide</text>
<text text-anchor="middle" x="186.11" y="-366" font-family="Helvetica,sans-Serif" font-size="10.00" fill="grey">&#45;mLeftSide</text>
</g>
<!-- Node5 -->
<g id="Node000005" class="node">
<title>Node5</title>
<g id="a_Node000005"><a xlink:title=" ">
<polygon fill="white" stroke="none" points="455.36,-327.25 347.36,-327.25 347.36,-262.25 455.36,-262.25 455.36,-327.25"/>
<text text-anchor="start" x="352.23" y="-313.75" font-family="Helvetica,sans-Serif" font-size="10.00">map&lt; string, math::</text>
<text text-anchor="start" x="352.23" y="-301" font-family="Helvetica,sans-Serif" font-size="10.00">Matrix&lt; double &gt; &gt;</text>
<text text-anchor="start" x="399.86" y="-284.75" font-family="Helvetica,sans-Serif" font-size="10.00"> </text>
<text text-anchor="start" x="399.86" y="-268.75" font-family="Helvetica,sans-Serif" font-size="10.00"> </text>
<polygon fill="#666666" stroke="#666666" points="347.36,-296.25 347.36,-296.25 455.36,-296.25 455.36,-296.25 347.36,-296.25"/>
<polygon fill="#666666" stroke="#666666" points="347.36,-280.25 347.36,-280.25 455.36,-280.25 455.36,-280.25 347.36,-280.25"/>
<polygon fill="none" stroke="#666666" points="347.36,-262.25 347.36,-327.25 455.36,-327.25 455.36,-262.25 347.36,-262.25"/>
</a>
</g>
</g>
<!-- Node5&#45;&gt;Node1 -->
<g id="edge5_Node000001_Node000005" class="edge">
<title>Node5&#45;&gt;Node1</title>
<g id="a_edge5_Node000001_Node000005"><a xlink:title=" ">
<path fill="none" stroke="#63b8ff" d="M369.23,-262.46C342.88,-236.81 304.64,-199.57 271.31,-167.12"/>
<polygon fill="none" stroke="#63b8ff" points="271.3,-167.1 264.21,-165.78 262.7,-158.73 269.79,-160.05 271.3,-167.1"/>
</a>
</g>
<text text-anchor="middle" x="362.98" y="-217.25" font-family="Helvetica,sans-Serif" font-size="10.00" fill="grey"> +mAllMatrix</text>
</g>
</g>
</svg>
