<?xml version="1.0" encoding="UTF-8" standalone="no"?>
<!DOCTYPE svg PUBLIC "-//W3C//DTD SVG 1.1//EN"
 "http://www.w3.org/Graphics/SVG/1.1/DTD/svg11.dtd">
<!-- Generated by graphviz version 8.1.0 (20230707.0739)
 -->
<!-- Title: raytracer::IPrimitive Pages: 1 -->
<svg width="524pt" height="548pt"
 viewBox="0.00 0.00 524.00 548.00" xmlns="http://www.w3.org/2000/svg" xmlns:xlink="http://www.w3.org/1999/xlink">
<g id="graph0" class="graph" transform="scale(1 1) rotate(0) translate(4 544)">
<title>raytracer::IPrimitive</title>
<!-- Node1 -->
<g id="Node000001" class="node">
<title>Node1</title>
<g id="a_Node000001"><a xlink:title="Interface de base pour les primitives géométriques dans le moteur de raytracing.">
<polygon fill="#999999" stroke="none" points="297,-540 190,-540 190,-328 297,-328 297,-540"/>
<text text-anchor="start" x="194.75" y="-526.5" font-family="Helvetica,sans-Serif" font-size="10.00">raytracer::IPrimitive</text>
<text text-anchor="start" x="195.88" y="-510.5" font-family="Helvetica,sans-Serif" font-size="10.00">+</text>
<text text-anchor="start" x="210" y="-510.5" font-family="Helvetica,sans-Serif" font-size="10.00">mBaseColor</text>
<text text-anchor="start" x="195.88" y="-494.5" font-family="Helvetica,sans-Serif" font-size="10.00">+</text>
<text text-anchor="start" x="210" y="-494.5" font-family="Helvetica,sans-Serif" font-size="10.00">mBaseCenter</text>
<text text-anchor="start" x="195.88" y="-478.5" font-family="Helvetica,sans-Serif" font-size="10.00">+</text>
<text text-anchor="start" x="210" y="-478.5" font-family="Helvetica,sans-Serif" font-size="10.00">mBaseRadius</text>
<text text-anchor="start" x="195.88" y="-462.5" font-family="Helvetica,sans-Serif" font-size="10.00">+</text>
<text text-anchor="start" x="210" y="-462.5" font-family="Helvetica,sans-Serif" font-size="10.00">mBaseAxis</text>
<text text-anchor="start" x="195.88" y="-446.5" font-family="Helvetica,sans-Serif" font-size="10.00">+</text>
<text text-anchor="start" x="210" y="-446.5" font-family="Helvetica,sans-Serif" font-size="10.00">mBasePosition</text>
<text text-anchor="start" x="195.88" y="-430.5" font-family="Helvetica,sans-Serif" font-size="10.00">+</text>
<text text-anchor="start" x="210" y="-430.5" font-family="Helvetica,sans-Serif" font-size="10.00">mBaseHeight</text>
<text text-anchor="start" x="195.88" y="-414.5" font-family="Helvetica,sans-Serif" font-size="10.00">+</text>
<text text-anchor="start" x="210" y="-414.5" font-family="Helvetica,sans-Serif" font-size="10.00">mBaseAllMatrix</text>
<text text-anchor="start" x="195.88" y="-398.5" font-family="Helvetica,sans-Serif" font-size="10.00">+</text>
<text text-anchor="start" x="210" y="-398.5" font-family="Helvetica,sans-Serif" font-size="10.00">mBaseRotation</text>
<text text-anchor="start" x="195.88" y="-382.5" font-family="Helvetica,sans-Serif" font-size="10.00">+</text>
<text text-anchor="start" x="210" y="-382.5" font-family="Helvetica,sans-Serif" font-size="10.00">IPrimitive()</text>
<text text-anchor="start" x="195.88" y="-366.5" font-family="Helvetica,sans-Serif" font-size="10.00">+</text>
<text text-anchor="start" x="210" y="-366.5" font-family="Helvetica,sans-Serif" font-size="10.00">~IPrimitive()</text>
<text text-anchor="start" x="195.88" y="-350.5" font-family="Helvetica,sans-Serif" font-size="10.00">+</text>
<text text-anchor="start" x="210" y="-350.5" font-family="Helvetica,sans-Serif" font-size="10.00">hits()</text>
<text text-anchor="start" x="195.88" y="-334.5" font-family="Helvetica,sans-Serif" font-size="10.00">+</text>
<text text-anchor="start" x="210" y="-334.5" font-family="Helvetica,sans-Serif" font-size="10.00">getNormal()</text>
<polygon fill="#666666" stroke="#666666" points="190,-522 190,-522 297,-522 297,-522 190,-522"/>
<polygon fill="#666666" stroke="#666666" points="190,-394 190,-394 208,-394 208,-394 190,-394"/>
<polygon fill="#666666" stroke="#666666" points="208,-394 208,-394 297,-394 297,-394 208,-394"/>
<polygon fill="none" stroke="#666666" points="190,-328 190,-540 297,-540 297,-328 190,-328"/>
</a>
</g>
</g>
<!-- Node2 -->
<g id="Node000002" class="node">
<title>Node2</title>
<g id="a_Node000002"><a xlink:href="classraytracer_1_1Cone.html" target="_top" xlink:title="Classe représentant un cône dans un moteur de raytracing.">
<polygon fill="white" stroke="none" points="101,-292 0,-292 0,0 101,0 101,-292"/>
<text text-anchor="start" x="13" y="-278.5" font-family="Helvetica,sans-Serif" font-size="10.00">raytracer::Cone</text>
<text text-anchor="start" x="3.88" y="-262.5" font-family="Helvetica,sans-Serif" font-size="10.00">+</text>
<text text-anchor="start" x="16" y="-262.5" font-family="Helvetica,sans-Serif" font-size="10.00">mX</text>
<text text-anchor="start" x="3.88" y="-246.5" font-family="Helvetica,sans-Serif" font-size="10.00">+</text>
<text text-anchor="start" x="16" y="-246.5" font-family="Helvetica,sans-Serif" font-size="10.00">mY</text>
<text text-anchor="start" x="3.88" y="-230.5" font-family="Helvetica,sans-Serif" font-size="10.00">+</text>
<text text-anchor="start" x="16" y="-230.5" font-family="Helvetica,sans-Serif" font-size="10.00">mZ</text>
<text text-anchor="start" x="3.88" y="-214.5" font-family="Helvetica,sans-Serif" font-size="10.00">+</text>
<text text-anchor="start" x="16" y="-214.5" font-family="Helvetica,sans-Serif" font-size="10.00">mRadius</text>
<text text-anchor="start" x="3.88" y="-198.5" font-family="Helvetica,sans-Serif" font-size="10.00">+</text>
<text text-anchor="start" x="16" y="-198.5" font-family="Helvetica,sans-Serif" font-size="10.00">mHeight</text>
<text text-anchor="start" x="3.88" y="-182.5" font-family="Helvetica,sans-Serif" font-size="10.00">+</text>
<text text-anchor="start" x="16" y="-182.5" font-family="Helvetica,sans-Serif" font-size="10.00">mColor</text>
<text text-anchor="start" x="3.88" y="-166.5" font-family="Helvetica,sans-Serif" font-size="10.00">+</text>
<text text-anchor="start" x="16" y="-166.5" font-family="Helvetica,sans-Serif" font-size="10.00">mAllMatrix</text>
<text text-anchor="start" x="3.88" y="-150.5" font-family="Helvetica,sans-Serif" font-size="10.00">+</text>
<text text-anchor="start" x="16" y="-150.5" font-family="Helvetica,sans-Serif" font-size="10.00">mVectorRotation</text>
<text text-anchor="start" x="3.88" y="-134.5" font-family="Helvetica,sans-Serif" font-size="10.00">+</text>
<text text-anchor="start" x="16" y="-134.5" font-family="Helvetica,sans-Serif" font-size="10.00">Cone()</text>
<text text-anchor="start" x="3.88" y="-118.5" font-family="Helvetica,sans-Serif" font-size="10.00">+</text>
<text text-anchor="start" x="16" y="-118.5" font-family="Helvetica,sans-Serif" font-size="10.00">Cone()</text>
<text text-anchor="start" x="3.88" y="-102.5" font-family="Helvetica,sans-Serif" font-size="10.00">+</text>
<text text-anchor="start" x="16" y="-102.5" font-family="Helvetica,sans-Serif" font-size="10.00">~Cone()</text>
<text text-anchor="start" x="3.88" y="-86.5" font-family="Helvetica,sans-Serif" font-size="10.00">+</text>
<text text-anchor="start" x="16" y="-86.5" font-family="Helvetica,sans-Serif" font-size="10.00">hits()</text>
<text text-anchor="start" x="3.88" y="-70.5" font-family="Helvetica,sans-Serif" font-size="10.00">+</text>
<text text-anchor="start" x="16" y="-70.5" font-family="Helvetica,sans-Serif" font-size="10.00">rotateVector()</text>
<text text-anchor="start" x="3.88" y="-54.5" font-family="Helvetica,sans-Serif" font-size="10.00">+</text>
<text text-anchor="start" x="16" y="-54.5" font-family="Helvetica,sans-Serif" font-size="10.00">rotateX()</text>
<text text-anchor="start" x="3.88" y="-38.5" font-family="Helvetica,sans-Serif" font-size="10.00">+</text>
<text text-anchor="start" x="16" y="-38.5" font-family="Helvetica,sans-Serif" font-size="10.00">rotateY()</text>
<text text-anchor="start" x="3.88" y="-22.5" font-family="Helvetica,sans-Serif" font-size="10.00">+</text>
<text text-anchor="start" x="16" y="-22.5" font-family="Helvetica,sans-Serif" font-size="10.00">rotateZ()</text>
<text text-anchor="start" x="3.88" y="-6.5" font-family="Helvetica,sans-Serif" font-size="10.00">+</text>
<text text-anchor="start" x="16" y="-6.5" font-family="Helvetica,sans-Serif" font-size="10.00">getNormal()</text>
<polygon fill="#666666" stroke="#666666" points="0,-274 0,-274 101,-274 101,-274 0,-274"/>
<polygon fill="#666666" stroke="#666666" points="0,-146 0,-146 14,-146 14,-146 0,-146"/>
<polygon fill="#666666" stroke="#666666" points="14,-146 14,-146 101,-146 101,-146 14,-146"/>
<polygon fill="none" stroke="#666666" points="0,0 0,-292 101,-292 101,0 0,0"/>
</a>
</g>
</g>
<!-- Node1&#45;&gt;Node2 -->
<g id="edge1_Node000001_Node000002" class="edge">
<title>Node1&#45;&gt;Node2</title>
<g id="a_edge1_Node000001_Node000002"><a xlink:title=" ">
<path fill="none" stroke="#63b8ff" d="M182.5,-378.56C157.5,-353.94 129.75,-323.37 109.5,-292 106.55,-287.43 103.7,-282.69 100.96,-277.84"/>
<polygon fill="none" stroke="#63b8ff" points="179.55,-380.54 189.16,-385 184.43,-375.52 179.55,-380.54"/>
</a>
</g>
</g>
<!-- Node3 -->
<g id="Node000003" class="node">
<title>Node3</title>
<g id="a_Node000003"><a xlink:href="classraytracer_1_1Cylinder.html" target="_top" xlink:title="Représente un cylindre utilisé dans le moteur de raytracing.">
<polygon fill="white" stroke="none" points="220,-292 119,-292 119,0 220,0 220,-292"/>
<text text-anchor="start" x="124.12" y="-278.5" font-family="Helvetica,sans-Serif" font-size="10.00">raytracer::Cylinder</text>
<text text-anchor="start" x="122.88" y="-262.5" font-family="Helvetica,sans-Serif" font-size="10.00">+</text>
<text text-anchor="start" x="135" y="-262.5" font-family="Helvetica,sans-Serif" font-size="10.00">mX</text>
<text text-anchor="start" x="122.88" y="-246.5" font-family="Helvetica,sans-Serif" font-size="10.00">+</text>
<text text-anchor="start" x="135" y="-246.5" font-family="Helvetica,sans-Serif" font-size="10.00">mY</text>
<text text-anchor="start" x="122.88" y="-230.5" font-family="Helvetica,sans-Serif" font-size="10.00">+</text>
<text text-anchor="start" x="135" y="-230.5" font-family="Helvetica,sans-Serif" font-size="10.00">mZ</text>
<text text-anchor="start" x="122.88" y="-214.5" font-family="Helvetica,sans-Serif" font-size="10.00">+</text>
<text text-anchor="start" x="135" y="-214.5" font-family="Helvetica,sans-Serif" font-size="10.00">mRadius</text>
<text text-anchor="start" x="122.88" y="-198.5" font-family="Helvetica,sans-Serif" font-size="10.00">+</text>
<text text-anchor="start" x="135" y="-198.5" font-family="Helvetica,sans-Serif" font-size="10.00">mHeight</text>
<text text-anchor="start" x="122.88" y="-182.5" font-family="Helvetica,sans-Serif" font-size="10.00">+</text>
<text text-anchor="start" x="135" y="-182.5" font-family="Helvetica,sans-Serif" font-size="10.00">mColor</text>
<text text-anchor="start" x="122.88" y="-166.5" font-family="Helvetica,sans-Serif" font-size="10.00">+</text>
<text text-anchor="start" x="135" y="-166.5" font-family="Helvetica,sans-Serif" font-size="10.00">mAllMatrix</text>
<text text-anchor="start" x="122.88" y="-150.5" font-family="Helvetica,sans-Serif" font-size="10.00">+</text>
<text text-anchor="start" x="135" y="-150.5" font-family="Helvetica,sans-Serif" font-size="10.00">mVectorRotation</text>
<text text-anchor="start" x="122.88" y="-134.5" font-family="Helvetica,sans-Serif" font-size="10.00">+</text>
<text text-anchor="start" x="135" y="-134.5" font-family="Helvetica,sans-Serif" font-size="10.00">Cylinder()</text>
<text text-anchor="start" x="122.88" y="-118.5" font-family="Helvetica,sans-Serif" font-size="10.00">+</text>
<text text-anchor="start" x="135" y="-118.5" font-family="Helvetica,sans-Serif" font-size="10.00">Cylinder()</text>
<text text-anchor="start" x="122.88" y="-102.5" font-family="Helvetica,sans-Serif" font-size="10.00">+</text>
<text text-anchor="start" x="135" y="-102.5" font-family="Helvetica,sans-Serif" font-size="10.00">~Cylinder()</text>
<text text-anchor="start" x="122.88" y="-86.5" font-family="Helvetica,sans-Serif" font-size="10.00">+</text>
<text text-anchor="start" x="135" y="-86.5" font-family="Helvetica,sans-Serif" font-size="10.00">hits()</text>
<text text-anchor="start" x="122.88" y="-70.5" font-family="Helvetica,sans-Serif" font-size="10.00">+</text>
<text text-anchor="start" x="135" y="-70.5" font-family="Helvetica,sans-Serif" font-size="10.00">rotateVector()</text>
<text text-anchor="start" x="122.88" y="-54.5" font-family="Helvetica,sans-Serif" font-size="10.00">+</text>
<text text-anchor="start" x="135" y="-54.5" font-family="Helvetica,sans-Serif" font-size="10.00">rotateX()</text>
<text text-anchor="start" x="122.88" y="-38.5" font-family="Helvetica,sans-Serif" font-size="10.00">+</text>
<text text-anchor="start" x="135" y="-38.5" font-family="Helvetica,sans-Serif" font-size="10.00">rotateY()</text>
<text text-anchor="start" x="122.88" y="-22.5" font-family="Helvetica,sans-Serif" font-size="10.00">+</text>
<text text-anchor="start" x="135" y="-22.5" font-family="Helvetica,sans-Serif" font-size="10.00">rotateZ()</text>
<text text-anchor="start" x="122.88" y="-6.5" font-family="Helvetica,sans-Serif" font-size="10.00">+</text>
<text text-anchor="start" x="135" y="-6.5" font-family="Helvetica,sans-Serif" font-size="10.00">getNormal()</text>
<polygon fill="#666666" stroke="#666666" points="119,-274 119,-274 220,-274 220,-274 119,-274"/>
<polygon fill="#666666" stroke="#666666" points="119,-146 119,-146 133,-146 133,-146 119,-146"/>
<polygon fill="#666666" stroke="#666666" points="133,-146 133,-146 220,-146 220,-146 133,-146"/>
<polygon fill="none" stroke="#666666" points="119,0 119,-292 220,-292 220,0 119,0"/>
</a>
</g>
</g>
<!-- Node1&#45;&gt;Node3 -->
<g id="edge2_Node000001_Node000003" class="edge">
<title>Node1&#45;&gt;Node3</title>
<g id="a_edge2_Node000001_Node000003"><a xlink:title=" ">
<path fill="none" stroke="#63b8ff" d="M213.62,-317.53C211.44,-309.1 209.23,-300.54 207.01,-291.97"/>
<polygon fill="none" stroke="#63b8ff" points="210.47,-318.32 216.37,-327.13 217.25,-316.57 210.47,-318.32"/>
</a>
</g>
</g>
<!-- Node4 -->
<g id="Node000004" class="node">
<title>Node4</title>
<g id="a_Node000004"><a xlink:href="classraytracer_1_1Plane.html" target="_top" xlink:title="Représente un plan dans la scène de raytracing.">
<polygon fill="white" stroke="none" points="397,-236 238,-236 238,-56 397,-56 397,-236"/>
<text text-anchor="start" x="278.88" y="-222.5" font-family="Helvetica,sans-Serif" font-size="10.00">raytracer::Plane</text>
<text text-anchor="start" x="241.88" y="-206.5" font-family="Helvetica,sans-Serif" font-size="10.00">+</text>
<text text-anchor="start" x="254" y="-206.5" font-family="Helvetica,sans-Serif" font-size="10.00">mAxis</text>
<text text-anchor="start" x="241.88" y="-190.5" font-family="Helvetica,sans-Serif" font-size="10.00">+</text>
<text text-anchor="start" x="254" y="-190.5" font-family="Helvetica,sans-Serif" font-size="10.00">mPosition</text>
<text text-anchor="start" x="241.88" y="-174.5" font-family="Helvetica,sans-Serif" font-size="10.00">+</text>
<text text-anchor="start" x="254" y="-174.5" font-family="Helvetica,sans-Serif" font-size="10.00">mColor</text>
<text text-anchor="start" x="241.88" y="-158.5" font-family="Helvetica,sans-Serif" font-size="10.00">+</text>
<text text-anchor="start" x="254" y="-158.5" font-family="Helvetica,sans-Serif" font-size="10.00">mAllMatrix</text>
<text text-anchor="start" x="241.88" y="-142.5" font-family="Helvetica,sans-Serif" font-size="10.00">+</text>
<text text-anchor="start" x="254" y="-142.5" font-family="Helvetica,sans-Serif" font-size="10.00">mVectorRotation</text>
<text text-anchor="start" x="241.88" y="-126.5" font-family="Helvetica,sans-Serif" font-size="10.00">+</text>
<text text-anchor="start" x="254" y="-126.5" font-family="Helvetica,sans-Serif" font-size="10.00">Plane()</text>
<text text-anchor="start" x="241.88" y="-110.5" font-family="Helvetica,sans-Serif" font-size="10.00">+</text>
<text text-anchor="start" x="254" y="-110.5" font-family="Helvetica,sans-Serif" font-size="10.00">Plane()</text>
<text text-anchor="start" x="241.88" y="-94.5" font-family="Helvetica,sans-Serif" font-size="10.00">+</text>
<text text-anchor="start" x="254" y="-94.5" font-family="Helvetica,sans-Serif" font-size="10.00">hits()</text>
<text text-anchor="start" x="241.88" y="-78.5" font-family="Helvetica,sans-Serif" font-size="10.00">+</text>
<text text-anchor="start" x="254" y="-78.5" font-family="Helvetica,sans-Serif" font-size="10.00">checkRayPlaneIntersection()</text>
<text text-anchor="start" x="241.88" y="-62.5" font-family="Helvetica,sans-Serif" font-size="10.00">+</text>
<text text-anchor="start" x="254" y="-62.5" font-family="Helvetica,sans-Serif" font-size="10.00">getNormal()</text>
<polygon fill="#666666" stroke="#666666" points="238,-218 238,-218 397,-218 397,-218 238,-218"/>
<polygon fill="#666666" stroke="#666666" points="238,-138 238,-138 252,-138 252,-138 238,-138"/>
<polygon fill="#666666" stroke="#666666" points="252,-138 252,-138 397,-138 397,-138 252,-138"/>
<polygon fill="none" stroke="#666666" points="238,-56 238,-236 397,-236 397,-56 238,-56"/>
</a>
</g>
</g>
<!-- Node1&#45;&gt;Node4 -->
<g id="edge3_Node000001_Node000004" class="edge">
<title>Node1&#45;&gt;Node4</title>
<g id="a_edge3_Node000001_Node000004"><a xlink:title=" ">
<path fill="none" stroke="#63b8ff" d="M273.32,-317.75C280.38,-290.46 287.8,-261.78 294.51,-235.87"/>
<polygon fill="none" stroke="#63b8ff" points="269.75,-316.57 270.63,-327.13 276.53,-318.32 269.75,-316.57"/>
</a>
</g>
</g>
<!-- Node5 -->
<g id="Node000005" class="node">
<title>Node5</title>
<g id="a_Node000005"><a xlink:href="classraytracer_1_1Sphere.html" target="_top" xlink:title="Représente une sphère dans la scène 3D pour le moteur de raytracing.">
<polygon fill="white" stroke="none" points="516,-252 415,-252 415,-40 516,-40 516,-252"/>
<text text-anchor="start" x="423.5" y="-238.5" font-family="Helvetica,sans-Serif" font-size="10.00">raytracer::Sphere</text>
<text text-anchor="start" x="418.88" y="-222.5" font-family="Helvetica,sans-Serif" font-size="10.00">+</text>
<text text-anchor="start" x="431" y="-222.5" font-family="Helvetica,sans-Serif" font-size="10.00">mX</text>
<text text-anchor="start" x="418.88" y="-206.5" font-family="Helvetica,sans-Serif" font-size="10.00">+</text>
<text text-anchor="start" x="431" y="-206.5" font-family="Helvetica,sans-Serif" font-size="10.00">mY</text>
<text text-anchor="start" x="418.88" y="-190.5" font-family="Helvetica,sans-Serif" font-size="10.00">+</text>
<text text-anchor="start" x="431" y="-190.5" font-family="Helvetica,sans-Serif" font-size="10.00">mZ</text>
<text text-anchor="start" x="418.88" y="-174.5" font-family="Helvetica,sans-Serif" font-size="10.00">+</text>
<text text-anchor="start" x="431" y="-174.5" font-family="Helvetica,sans-Serif" font-size="10.00">mRadius</text>
<text text-anchor="start" x="418.88" y="-158.5" font-family="Helvetica,sans-Serif" font-size="10.00">+</text>
<text text-anchor="start" x="431" y="-158.5" font-family="Helvetica,sans-Serif" font-size="10.00">mColor</text>
<text text-anchor="start" x="418.88" y="-142.5" font-family="Helvetica,sans-Serif" font-size="10.00">+</text>
<text text-anchor="start" x="431" y="-142.5" font-family="Helvetica,sans-Serif" font-size="10.00">mAllMatrix</text>
<text text-anchor="start" x="418.88" y="-126.5" font-family="Helvetica,sans-Serif" font-size="10.00">+</text>
<text text-anchor="start" x="431" y="-126.5" font-family="Helvetica,sans-Serif" font-size="10.00">mVectorRotation</text>
<text text-anchor="start" x="418.88" y="-110.5" font-family="Helvetica,sans-Serif" font-size="10.00">+</text>
<text text-anchor="start" x="431" y="-110.5" font-family="Helvetica,sans-Serif" font-size="10.00">Sphere()</text>
<text text-anchor="start" x="418.88" y="-94.5" font-family="Helvetica,sans-Serif" font-size="10.00">+</text>
<text text-anchor="start" x="431" y="-94.5" font-family="Helvetica,sans-Serif" font-size="10.00">Sphere()</text>
<text text-anchor="start" x="418.88" y="-78.5" font-family="Helvetica,sans-Serif" font-size="10.00">+</text>
<text text-anchor="start" x="431" y="-78.5" font-family="Helvetica,sans-Serif" font-size="10.00">~Sphere()</text>
<text text-anchor="start" x="418.88" y="-62.5" font-family="Helvetica,sans-Serif" font-size="10.00">+</text>
<text text-anchor="start" x="431" y="-62.5" font-family="Helvetica,sans-Serif" font-size="10.00">hits()</text>
<text text-anchor="start" x="418.88" y="-46.5" font-family="Helvetica,sans-Serif" font-size="10.00">+</text>
<text text-anchor="start" x="431" y="-46.5" font-family="Helvetica,sans-Serif" font-size="10.00">getNormal()</text>
<polygon fill="#666666" stroke="#666666" points="415,-234 415,-234 516,-234 516,-234 415,-234"/>
<polygon fill="#666666" stroke="#666666" points="415,-122 415,-122 429,-122 429,-122 415,-122"/>
<polygon fill="#666666" stroke="#666666" points="429,-122 429,-122 516,-122 516,-122 429,-122"/>
<polygon fill="none" stroke="#666666" points="415,-40 415,-252 516,-252 516,-40 415,-40"/>
</a>
</g>
</g>
<!-- Node1&#45;&gt;Node5 -->
<g id="edge4_Node000001_Node000005" class="edge">
<title>Node1&#45;&gt;Node5</title>
<g id="a_edge4_Node000001_Node000005"><a xlink:title=" ">
<path fill="none" stroke="#63b8ff" d="M305.05,-390.95C338.63,-365.49 378.86,-330.55 406.5,-292 415.29,-279.74 423.04,-265.98 429.79,-251.95"/>
<polygon fill="none" stroke="#63b8ff" points="303.59,-388.42 297.67,-397.21 307.78,-394.03 303.59,-388.42"/>
</a>
</g>
</g>
</g>
</svg>
