<?xml version="1.0" encoding="UTF-8" standalone="no"?>
<!DOCTYPE svg PUBLIC "-//W3C//DTD SVG 1.1//EN"
 "http://www.w3.org/Graphics/SVG/1.1/DTD/svg11.dtd">
<!-- Generated by graphviz version 8.1.0 (20230707.0739)
 -->
<!-- Title: core::Parser::parseTranslation Pages: 1 -->
<svg width="348pt" height="68pt"
 viewBox="0.00 0.00 348.25 67.75" xmlns="http://www.w3.org/2000/svg" xmlns:xlink="http://www.w3.org/1999/xlink">
<g id="graph0" class="graph" transform="scale(1 1) rotate(0) translate(4 63.75)">
<title>core::Parser::parseTranslation</title>
<!-- Node1 -->
<g id="Node000001" class="node">
<title>Node1</title>
<g id="a_Node000001"><a xlink:title="Parse la translation depuis un Setting libconfig.">
<polygon fill="#999999" stroke="#666666" points="340.25,-39.75 181,-39.75 181,-19 340.25,-19 340.25,-39.75"/>
<text text-anchor="middle" x="260.62" y="-26.25" font-family="Helvetica,sans-Serif" font-size="10.00">core::Parser::parseTranslation</text>
</a>
</g>
</g>
<!-- Node2 -->
<g id="Node000002" class="node">
<title>Node2</title>
<g id="a_Node000002"><a xlink:href="classcore_1_1Parser.html#ae93182e0a78150b80f42d47981bbf82f" target="_top" xlink:title="Parse la configuration de la caméra à partir d&#39;un objet libconfig::Config.">
<polygon fill="white" stroke="#666666" points="144.62,-59.75 0.38,-59.75 0.38,-39 144.62,-39 144.62,-59.75"/>
<text text-anchor="middle" x="72.5" y="-46.25" font-family="Helvetica,sans-Serif" font-size="10.00">core::Parser::parseCamera</text>
</a>
</g>
</g>
<!-- Node1&#45;&gt;Node2 -->
<g id="edge1_Node000001_Node000002" class="edge">
<title>Node1&#45;&gt;Node2</title>
<g id="a_edge1_Node000001_Node000002"><a xlink:title=" ">
<path fill="none" stroke="#63b8ff" d="M169.76,-39.03C161.41,-39.93 153.03,-40.83 144.88,-41.71"/>
<polygon fill="#63b8ff" stroke="#63b8ff" points="170.12,-42.41 179.69,-37.86 169.37,-35.45 170.12,-42.41"/>
</a>
</g>
</g>
<!-- Node3 -->
<g id="Node000003" class="node">
<title>Node3</title>
<g id="a_Node000003"><a xlink:href="classcore_1_1Parser.html#adfc41652f355600bd05072a03cd22f7e" target="_top" xlink:title="Parse les sphères depuis un Setting libconfig.">
<polygon fill="white" stroke="#666666" points="145,-20.75 0,-20.75 0,0 145,0 145,-20.75"/>
<text text-anchor="middle" x="72.5" y="-7.25" font-family="Helvetica,sans-Serif" font-size="10.00">core::Parser::parseSpheres</text>
</a>
</g>
</g>
<!-- Node1&#45;&gt;Node3 -->
<g id="edge2_Node000001_Node000003" class="edge">
<title>Node1&#45;&gt;Node3</title>
<g id="a_edge2_Node000001_Node000003"><a xlink:title=" ">
<path fill="none" stroke="#63b8ff" d="M169.94,-20.22C161.73,-19.38 153.49,-18.54 145.46,-17.72"/>
<polygon fill="#63b8ff" stroke="#63b8ff" points="169.39,-23.78 179.69,-21.32 170.1,-16.82 169.39,-23.78"/>
</a>
</g>
</g>
</g>
</svg>
