<?xml version="1.0" encoding="UTF-8" standalone="no"?>
<!DOCTYPE svg PUBLIC "-//W3C//DTD SVG 1.1//EN"
 "http://www.w3.org/Graphics/SVG/1.1/DTD/svg11.dtd">
<!-- Generated by graphviz version 8.1.0 (20230707.0739)
 -->
<!-- Title: raytracer::Plane::hits Pages: 1 -->
<svg width="457pt" height="42pt"
 viewBox="0.00 0.00 457.25 41.50" xmlns="http://www.w3.org/2000/svg" xmlns:xlink="http://www.w3.org/1999/xlink">
<g id="graph0" class="graph" transform="scale(1 1) rotate(0) translate(4 37.5)">
<title>raytracer::Plane::hits</title>
<!-- Node1 -->
<g id="Node000001" class="node">
<title>Node1</title>
<g id="a_Node000001"><a xlink:title="Calcule l&#39;intersection entre un rayon et le plan.">
<polygon fill="#999999" stroke="#666666" points="117.25,-27.12 0,-27.12 0,-6.38 117.25,-6.38 117.25,-27.12"/>
<text text-anchor="middle" x="58.62" y="-13.62" font-family="Helvetica,sans-Serif" font-size="10.00">raytracer::Plane::hits</text>
</a>
</g>
</g>
<!-- Node2 -->
<g id="Node000002" class="node">
<title>Node2</title>
<g id="a_Node000002"><a xlink:href="classraytracer_1_1Plane.html#ac12b3430ee5399341b525b76809a149f" target="_top" xlink:title="Vérifie l&#39;intersection entre un rayon et un plan défini par un point.">
<polygon fill="white" stroke="#666666" points="299.75,-33.5 153.25,-33.5 153.25,0 299.75,0 299.75,-33.5"/>
<text text-anchor="start" x="161.25" y="-20" font-family="Helvetica,sans-Serif" font-size="10.00">raytracer::Plane::checkRay</text>
<text text-anchor="middle" x="226.5" y="-7.25" font-family="Helvetica,sans-Serif" font-size="10.00">PlaneIntersection</text>
</a>
</g>
</g>
<!-- Node1&#45;&gt;Node2 -->
<g id="edge1_Node000001_Node000002" class="edge">
<title>Node1&#45;&gt;Node2</title>
<g id="a_edge1_Node000001_Node000002"><a xlink:title=" ">
<path fill="none" stroke="#63b8ff" d="M117.64,-16.75C125.57,-16.75 133.82,-16.75 142.09,-16.75"/>
<polygon fill="#63b8ff" stroke="#63b8ff" points="141.93,-20.25 151.93,-16.75 141.93,-13.25 141.93,-20.25"/>
</a>
</g>
</g>
<!-- Node3 -->
<g id="Node000003" class="node">
<title>Node3</title>
<g id="a_Node000003"><a xlink:href="classmath_1_1Vector3D.html#ac86c5f9ee96342aed93b22387a86e247" target="_top" xlink:title="Calcule le produit scalaire avec un autre vecteur.">
<polygon fill="white" stroke="#666666" points="449.25,-27.12 335.75,-27.12 335.75,-6.38 449.25,-6.38 449.25,-27.12"/>
<text text-anchor="middle" x="392.5" y="-13.62" font-family="Helvetica,sans-Serif" font-size="10.00">math::Vector3D::dot</text>
</a>
</g>
</g>
<!-- Node2&#45;&gt;Node3 -->
<g id="edge2_Node000002_Node000003" class="edge">
<title>Node2&#45;&gt;Node3</title>
<g id="a_edge2_Node000002_Node000003"><a xlink:title=" ">
<path fill="none" stroke="#63b8ff" d="M299.91,-16.75C308.17,-16.75 316.56,-16.75 324.74,-16.75"/>
<polygon fill="#63b8ff" stroke="#63b8ff" points="324.73,-20.25 334.73,-16.75 324.73,-13.25 324.73,-20.25"/>
</a>
</g>
</g>
</g>
</svg>
