<?xml version="1.0" encoding="UTF-8" standalone="no"?>
<!DOCTYPE svg PUBLIC "-//W3C//DTD SVG 1.1//EN"
 "http://www.w3.org/Graphics/SVG/1.1/DTD/svg11.dtd">
<!-- Generated by graphviz version 8.1.0 (20230707.0739)
 -->
<!-- Title: raytracer::PrimitiveFact::createPlane Pages: 1 -->
<svg width="488pt" height="42pt"
 viewBox="0.00 0.00 488.00 41.50" xmlns="http://www.w3.org/2000/svg" xmlns:xlink="http://www.w3.org/1999/xlink">
<g id="graph0" class="graph" transform="scale(1 1) rotate(0) translate(4 37.5)">
<title>raytracer::PrimitiveFact::createPlane</title>
<!-- Node1 -->
<g id="Node000001" class="node">
<title>Node1</title>
<g id="a_Node000001"><a xlink:title=" ">
<polygon fill="#999999" stroke="#666666" points="130,-33.5 0,-33.5 0,0 130,0 130,-33.5"/>
<text text-anchor="start" x="8" y="-20" font-family="Helvetica,sans-Serif" font-size="10.00">raytracer::PrimitiveFact</text>
<text text-anchor="middle" x="65" y="-7.25" font-family="Helvetica,sans-Serif" font-size="10.00">::createPlane</text>
</a>
</g>
</g>
<!-- Node2 -->
<g id="Node000002" class="node">
<title>Node2</title>
<g id="a_Node000002"><a xlink:href="namespaceraytracer.html#a5eda32471807534b237361fc8ecb497d" target="_top" xlink:title=" ">
<polygon fill="white" stroke="#666666" points="316.25,-27.12 166,-27.12 166,-6.38 316.25,-6.38 316.25,-27.12"/>
<text text-anchor="middle" x="241.12" y="-13.62" font-family="Helvetica,sans-Serif" font-size="10.00">raytracer::parseSinglePlane</text>
</a>
</g>
</g>
<!-- Node1&#45;&gt;Node2 -->
<g id="edge1_Node000001_Node000002" class="edge">
<title>Node1&#45;&gt;Node2</title>
<g id="a_edge1_Node000001_Node000002"><a xlink:title=" ">
<path fill="none" stroke="#63b8ff" d="M130.34,-16.75C138.36,-16.75 146.65,-16.75 154.92,-16.75"/>
<polygon fill="#63b8ff" stroke="#63b8ff" points="154.75,-20.25 164.75,-16.75 154.75,-13.25 154.75,-20.25"/>
</a>
</g>
</g>
<!-- Node3 -->
<g id="Node000003" class="node">
<title>Node3</title>
<g id="a_Node000003"><a xlink:href="classraytracer_1_1ErrorHandler.html#aada9238fd341b8db1101c7b8d7ea337e" target="_top" xlink:title=" ">
<polygon fill="white" stroke="#666666" points="480,-33.5 352.25,-33.5 352.25,0 480,0 480,-33.5"/>
<text text-anchor="start" x="360.25" y="-20" font-family="Helvetica,sans-Serif" font-size="10.00">raytracer::ErrorHandler</text>
<text text-anchor="middle" x="416.12" y="-7.25" font-family="Helvetica,sans-Serif" font-size="10.00">::report</text>
</a>
</g>
</g>
<!-- Node2&#45;&gt;Node3 -->
<g id="edge2_Node000002_Node000003" class="edge">
<title>Node2&#45;&gt;Node3</title>
<g id="a_edge2_Node000002_Node000003"><a xlink:title=" ">
<path fill="none" stroke="#63b8ff" d="M316.75,-16.75C324.8,-16.75 332.98,-16.75 341.02,-16.75"/>
<polygon fill="#63b8ff" stroke="#63b8ff" points="340.87,-20.25 350.87,-16.75 340.87,-13.25 340.87,-20.25"/>
</a>
</g>
</g>
</g>
</svg>
