<?xml version="1.0" encoding="UTF-8" standalone="no"?>
<!DOCTYPE svg PUBLIC "-//W3C//DTD SVG 1.1//EN"
 "http://www.w3.org/Graphics/SVG/1.1/DTD/svg11.dtd">
<!-- Generated by graphviz version 8.1.0 (20230707.0739)
 -->
<!-- Title: raytracer::DirectionalLight Pages: 1 -->
<svg width="581pt" height="594pt"
 viewBox="0.00 0.00 580.50 594.25" xmlns="http://www.w3.org/2000/svg" xmlns:xlink="http://www.w3.org/1999/xlink">
<g id="graph0" class="graph" transform="scale(1 1) rotate(0) translate(4 590.25)">
<title>raytracer::DirectionalLight</title>
<!-- Node1 -->
<g id="Node000001" class="node">
<title>Node1</title>
<g id="a_Node000001"><a xlink:title=" ">
<polygon fill="#999999" stroke="none" points="374,-100 237,-100 237,0 374,0 374,-100"/>
<text text-anchor="start" x="241.75" y="-86.5" font-family="Helvetica,sans-Serif" font-size="10.00">raytracer::DirectionalLight</text>
<text text-anchor="start" x="304" y="-70.5" font-family="Helvetica,sans-Serif" font-size="10.00"> </text>
<text text-anchor="start" x="246.88" y="-54.5" font-family="Helvetica,sans-Serif" font-size="10.00">+</text>
<text text-anchor="start" x="265" y="-54.5" font-family="Helvetica,sans-Serif" font-size="10.00">DirectionalLight()</text>
<text text-anchor="start" x="246.88" y="-38.5" font-family="Helvetica,sans-Serif" font-size="10.00">+</text>
<text text-anchor="start" x="265" y="-38.5" font-family="Helvetica,sans-Serif" font-size="10.00">DirectionalLight()</text>
<text text-anchor="start" x="246.88" y="-22.5" font-family="Helvetica,sans-Serif" font-size="10.00">+</text>
<text text-anchor="start" x="265" y="-22.5" font-family="Helvetica,sans-Serif" font-size="10.00">~DirectionalLight()</text>
<text text-anchor="start" x="246.88" y="-6.5" font-family="Helvetica,sans-Serif" font-size="10.00">+</text>
<text text-anchor="start" x="265" y="-6.5" font-family="Helvetica,sans-Serif" font-size="10.00">getColorShadow()</text>
<polygon fill="#666666" stroke="#666666" points="237,-82 237,-82 374,-82 374,-82 237,-82"/>
<polygon fill="#666666" stroke="#666666" points="237,-66 237,-66 374,-66 374,-66 237,-66"/>
<polygon fill="none" stroke="#666666" points="237,0 237,-100 374,-100 374,0 237,0"/>
</a>
</g>
</g>
<!-- Node2 -->
<g id="Node000002" class="node">
<title>Node2</title>
<g id="a_Node000002"><a xlink:href="classraytracer_1_1ILight.html" target="_top" xlink:title="Interface abstraite représentant une source lumineuse dans la scène.">
<polygon fill="white" stroke="none" points="359,-216.75 252,-216.75 252,-148.75 359,-148.75 359,-216.75"/>
<text text-anchor="start" x="266.88" y="-203.25" font-family="Helvetica,sans-Serif" font-size="10.00">raytracer::ILight</text>
<text text-anchor="start" x="304" y="-187.25" font-family="Helvetica,sans-Serif" font-size="10.00"> </text>
<text text-anchor="start" x="255.88" y="-171.25" font-family="Helvetica,sans-Serif" font-size="10.00">+</text>
<text text-anchor="start" x="268" y="-171.25" font-family="Helvetica,sans-Serif" font-size="10.00">~ILight()</text>
<text text-anchor="start" x="255.88" y="-155.25" font-family="Helvetica,sans-Serif" font-size="10.00">+</text>
<text text-anchor="start" x="268" y="-155.25" font-family="Helvetica,sans-Serif" font-size="10.00">getColorShadow()</text>
<polygon fill="#666666" stroke="#666666" points="252,-198.75 252,-198.75 359,-198.75 359,-198.75 252,-198.75"/>
<polygon fill="#666666" stroke="#666666" points="252,-182.75 252,-182.75 359,-182.75 359,-182.75 252,-182.75"/>
<polygon fill="none" stroke="#666666" points="252,-148.75 252,-216.75 359,-216.75 359,-148.75 252,-148.75"/>
</a>
</g>
</g>
<!-- Node2&#45;&gt;Node1 -->
<g id="edge1_Node000001_Node000002" class="edge">
<title>Node2&#45;&gt;Node1</title>
<g id="a_edge1_Node000001_Node000002"><a xlink:title=" ">
<path fill="none" stroke="#63b8ff" d="M305.5,-137.9C305.5,-125.67 305.5,-112.3 305.5,-99.8"/>
<polygon fill="none" stroke="#63b8ff" points="302,-137.76 305.5,-147.76 309,-137.76 302,-137.76"/>
</a>
</g>
</g>
<!-- Node3 -->
<g id="Node000003" class="node">
<title>Node3</title>
<g id="a_Node000003"><a xlink:href="classmath_1_1Point3D.html" target="_top" xlink:title="Représente un point 3D. Peut interagir avec Vector3D.">
<polygon fill="white" stroke="none" points="85,-530.25 0,-530.25 0,-334.25 85,-334.25 85,-530.25"/>
<text text-anchor="start" x="7.62" y="-516.75" font-family="Helvetica,sans-Serif" font-size="10.00">math::Point3D</text>
<text text-anchor="start" x="3.88" y="-500.75" font-family="Helvetica,sans-Serif" font-size="10.00">+</text>
<text text-anchor="start" x="16" y="-500.75" font-family="Helvetica,sans-Serif" font-size="10.00">mX</text>
<text text-anchor="start" x="3.88" y="-484.75" font-family="Helvetica,sans-Serif" font-size="10.00">+</text>
<text text-anchor="start" x="16" y="-484.75" font-family="Helvetica,sans-Serif" font-size="10.00">mY</text>
<text text-anchor="start" x="3.88" y="-468.75" font-family="Helvetica,sans-Serif" font-size="10.00">+</text>
<text text-anchor="start" x="16" y="-468.75" font-family="Helvetica,sans-Serif" font-size="10.00">mZ</text>
<text text-anchor="start" x="3.88" y="-452.75" font-family="Helvetica,sans-Serif" font-size="10.00">+</text>
<text text-anchor="start" x="16" y="-452.75" font-family="Helvetica,sans-Serif" font-size="10.00">Point3D()</text>
<text text-anchor="start" x="3.88" y="-436.75" font-family="Helvetica,sans-Serif" font-size="10.00">+</text>
<text text-anchor="start" x="16" y="-436.75" font-family="Helvetica,sans-Serif" font-size="10.00">Point3D()</text>
<text text-anchor="start" x="3.88" y="-420.75" font-family="Helvetica,sans-Serif" font-size="10.00">+</text>
<text text-anchor="start" x="16" y="-420.75" font-family="Helvetica,sans-Serif" font-size="10.00">~Point3D()</text>
<text text-anchor="start" x="3.88" y="-404.75" font-family="Helvetica,sans-Serif" font-size="10.00">+</text>
<text text-anchor="start" x="16" y="-404.75" font-family="Helvetica,sans-Serif" font-size="10.00">operator+()</text>
<text text-anchor="start" x="3.88" y="-388.75" font-family="Helvetica,sans-Serif" font-size="10.00">+</text>
<text text-anchor="start" x="16" y="-388.75" font-family="Helvetica,sans-Serif" font-size="10.00">operator+()</text>
<text text-anchor="start" x="3.88" y="-372.75" font-family="Helvetica,sans-Serif" font-size="10.00">+</text>
<text text-anchor="start" x="16" y="-372.75" font-family="Helvetica,sans-Serif" font-size="10.00">operator+=()</text>
<text text-anchor="start" x="3.88" y="-356.75" font-family="Helvetica,sans-Serif" font-size="10.00">+</text>
<text text-anchor="start" x="16" y="-356.75" font-family="Helvetica,sans-Serif" font-size="10.00">operator&#45;()</text>
<text text-anchor="start" x="3.88" y="-340.75" font-family="Helvetica,sans-Serif" font-size="10.00">+</text>
<text text-anchor="start" x="16" y="-340.75" font-family="Helvetica,sans-Serif" font-size="10.00">operator&#45;()</text>
<polygon fill="#666666" stroke="#666666" points="0,-512.25 0,-512.25 85,-512.25 85,-512.25 0,-512.25"/>
<polygon fill="#666666" stroke="#666666" points="0,-464.25 0,-464.25 14,-464.25 14,-464.25 0,-464.25"/>
<polygon fill="#666666" stroke="#666666" points="14,-464.25 14,-464.25 85,-464.25 85,-464.25 14,-464.25"/>
<polygon fill="none" stroke="#666666" points="0,-334.25 0,-530.25 85,-530.25 85,-334.25 0,-334.25"/>
</a>
</g>
</g>
<!-- Node3&#45;&gt;Node1 -->
<g id="edge6_Node000001_Node000003" class="edge">
<title>Node3&#45;&gt;Node1</title>
<g id="a_edge6_Node000001_Node000003"><a xlink:title=" ">
<path fill="none" stroke="#63b8ff" d="M35.34,-334.26C35.97,-275.12 46.25,-201.1 86.25,-148.75 119.7,-104.98 177.06,-80.35 224.73,-66.76"/>
<polygon fill="none" stroke="#63b8ff" points="224.79,-66.74 229.54,-61.32 236.38,-63.61 231.63,-69.04 224.79,-66.74"/>
</a>
</g>
<text text-anchor="middle" x="111.62" y="-179.62" font-family="Helvetica,sans-Serif" font-size="10.00" fill="grey"> +mOrigin</text>
</g>
<!-- Node3&#45;&gt;Node2 -->
<g id="edge2_Node000002_Node000003" class="edge">
<title>Node3&#45;&gt;Node2</title>
<g id="a_edge2_Node000002_Node000003"><a xlink:title=" ">
<path fill="none" stroke="#63b8ff" d="M49.52,-334.41C57.16,-298.03 72.19,-259.52 101.25,-234.75 124.49,-214.94 208.25,-225.53 237.5,-216.75 238.42,-216.47 239.34,-216.19 240.27,-215.89"/>
<polygon fill="none" stroke="#63b8ff" points="240.19,-215.92 244.47,-210.11 251.47,-211.82 247.2,-217.63 240.19,-215.92"/>
</a>
</g>
<text text-anchor="middle" x="138.62" y="-244.38" font-family="Helvetica,sans-Serif" font-size="10.00" fill="grey"> +mBaseOrigin</text>
</g>
<!-- Node4 -->
<g id="Node000004" class="node">
<title>Node4</title>
<g id="a_Node000004"><a xlink:href="classmath_1_1Vector3D.html" target="_top" xlink:title="Représente un vecteur 3D avec des opérations vectorielles de base.">
<polygon fill="white" stroke="none" points="197,-562.25 112,-562.25 112,-302.25 197,-302.25 197,-562.25"/>
<text text-anchor="start" x="116.62" y="-548.75" font-family="Helvetica,sans-Serif" font-size="10.00">math::Vector3D</text>
<text text-anchor="start" x="115.88" y="-532.75" font-family="Helvetica,sans-Serif" font-size="10.00">+</text>
<text text-anchor="start" x="128" y="-532.75" font-family="Helvetica,sans-Serif" font-size="10.00">mX</text>
<text text-anchor="start" x="115.88" y="-516.75" font-family="Helvetica,sans-Serif" font-size="10.00">+</text>
<text text-anchor="start" x="128" y="-516.75" font-family="Helvetica,sans-Serif" font-size="10.00">mY</text>
<text text-anchor="start" x="115.88" y="-500.75" font-family="Helvetica,sans-Serif" font-size="10.00">+</text>
<text text-anchor="start" x="128" y="-500.75" font-family="Helvetica,sans-Serif" font-size="10.00">mZ</text>
<text text-anchor="start" x="115.88" y="-484.75" font-family="Helvetica,sans-Serif" font-size="10.00">+</text>
<text text-anchor="start" x="128" y="-484.75" font-family="Helvetica,sans-Serif" font-size="10.00">Vector3D()</text>
<text text-anchor="start" x="115.88" y="-468.75" font-family="Helvetica,sans-Serif" font-size="10.00">+</text>
<text text-anchor="start" x="128" y="-468.75" font-family="Helvetica,sans-Serif" font-size="10.00">Vector3D()</text>
<text text-anchor="start" x="115.88" y="-452.75" font-family="Helvetica,sans-Serif" font-size="10.00">+</text>
<text text-anchor="start" x="128" y="-452.75" font-family="Helvetica,sans-Serif" font-size="10.00">~Vector3D()</text>
<text text-anchor="start" x="115.88" y="-436.75" font-family="Helvetica,sans-Serif" font-size="10.00">+</text>
<text text-anchor="start" x="128" y="-436.75" font-family="Helvetica,sans-Serif" font-size="10.00">length()</text>
<text text-anchor="start" x="115.88" y="-420.75" font-family="Helvetica,sans-Serif" font-size="10.00">+</text>
<text text-anchor="start" x="128" y="-420.75" font-family="Helvetica,sans-Serif" font-size="10.00">dot()</text>
<text text-anchor="start" x="115.88" y="-404.75" font-family="Helvetica,sans-Serif" font-size="10.00">+</text>
<text text-anchor="start" x="128" y="-404.75" font-family="Helvetica,sans-Serif" font-size="10.00">operator+()</text>
<text text-anchor="start" x="115.88" y="-388.75" font-family="Helvetica,sans-Serif" font-size="10.00">+</text>
<text text-anchor="start" x="128" y="-388.75" font-family="Helvetica,sans-Serif" font-size="10.00">operator+=()</text>
<text text-anchor="start" x="115.88" y="-372.75" font-family="Helvetica,sans-Serif" font-size="10.00">+</text>
<text text-anchor="start" x="128" y="-372.75" font-family="Helvetica,sans-Serif" font-size="10.00">operator&#45;()</text>
<text text-anchor="start" x="115.88" y="-356.75" font-family="Helvetica,sans-Serif" font-size="10.00">+</text>
<text text-anchor="start" x="128" y="-356.75" font-family="Helvetica,sans-Serif" font-size="10.00">operator&#45;=()</text>
<text text-anchor="start" x="115.88" y="-340.75" font-family="Helvetica,sans-Serif" font-size="10.00">+</text>
<text text-anchor="start" x="128" y="-340.75" font-family="Helvetica,sans-Serif" font-size="10.00">operator*()</text>
<text text-anchor="start" x="128" y="-324.75" font-family="Helvetica,sans-Serif" font-size="10.00">and 9 more...</text>
<text text-anchor="start" x="115.88" y="-308.75" font-family="Helvetica,sans-Serif" font-size="10.00">+</text>
<text text-anchor="start" x="128" y="-308.75" font-family="Helvetica,sans-Serif" font-size="10.00">normalize()</text>
<polygon fill="#666666" stroke="#666666" points="112,-544.25 112,-544.25 197,-544.25 197,-544.25 112,-544.25"/>
<polygon fill="#666666" stroke="#666666" points="112,-496.25 112,-496.25 126,-496.25 126,-496.25 112,-496.25"/>
<polygon fill="#666666" stroke="#666666" points="126,-496.25 126,-496.25 197,-496.25 197,-496.25 126,-496.25"/>
<polygon fill="none" stroke="#666666" points="112,-302.25 112,-562.25 197,-562.25 197,-302.25 112,-302.25"/>
</a>
</g>
</g>
<!-- Node4&#45;&gt;Node1 -->
<g id="edge5_Node000001_Node000004" class="edge">
<title>Node4&#45;&gt;Node1</title>
<g id="a_edge5_Node000001_Node000004"><a xlink:title=" ">
<path fill="none" stroke="#63b8ff" d="M141.66,-302.4C137.91,-240.92 138.07,-175.1 152.5,-148.75 168.54,-119.46 197.51,-97.68 225.95,-82.2"/>
<polygon fill="none" stroke="#63b8ff" points="225.77,-82.29 229.26,-75.98 236.42,-76.78 232.93,-83.09 225.77,-82.29"/>
</a>
</g>
<text text-anchor="middle" x="197.5" y="-186" font-family="Helvetica,sans-Serif" font-size="10.00" fill="grey"> +mDirection</text>
<text text-anchor="middle" x="197.5" y="-173.25" font-family="Helvetica,sans-Serif" font-size="10.00" fill="grey">+mVectorRotation</text>
</g>
<!-- Node4&#45;&gt;Node2 -->
<g id="edge3_Node000002_Node000004" class="edge">
<title>Node4&#45;&gt;Node2</title>
<g id="a_edge3_Node000002_Node000004"><a xlink:title=" ">
<path fill="none" stroke="#63b8ff" d="M161.37,-302.33C167.59,-277.91 177.63,-254.01 193.5,-234.75 206.94,-218.44 218.21,-225.37 237.5,-216.75 238.55,-216.28 239.6,-215.81 240.67,-215.33"/>
<polygon fill="none" stroke="#63b8ff" points="240.48,-215.41 244.26,-209.27 251.38,-210.39 247.6,-216.53 240.48,-215.41"/>
</a>
</g>
<text text-anchor="middle" x="250.5" y="-250.75" font-family="Helvetica,sans-Serif" font-size="10.00" fill="grey"> +mBaseDirection</text>
<text text-anchor="middle" x="250.5" y="-238" font-family="Helvetica,sans-Serif" font-size="10.00" fill="grey">+mBaseVectorRotation</text>
</g>
<!-- Node5 -->
<g id="Node000005" class="node">
<title>Node5</title>
<g id="a_Node000005"><a xlink:href="classraytracer_1_1Color.html" target="_top" xlink:title=" ">
<polygon fill="white" stroke="none" points="399,-586.25 314,-586.25 314,-278.25 399,-278.25 399,-586.25"/>
<text text-anchor="start" x="318.62" y="-572.75" font-family="Helvetica,sans-Serif" font-size="10.00">raytracer::Color</text>
<text text-anchor="start" x="320.12" y="-556.75" font-family="Helvetica,sans-Serif" font-size="10.00">&#45;</text>
<text text-anchor="start" x="330" y="-556.75" font-family="Helvetica,sans-Serif" font-size="10.00">_r</text>
<text text-anchor="start" x="320.12" y="-540.75" font-family="Helvetica,sans-Serif" font-size="10.00">&#45;</text>
<text text-anchor="start" x="330" y="-540.75" font-family="Helvetica,sans-Serif" font-size="10.00">_g</text>
<text text-anchor="start" x="320.12" y="-524.75" font-family="Helvetica,sans-Serif" font-size="10.00">&#45;</text>
<text text-anchor="start" x="330" y="-524.75" font-family="Helvetica,sans-Serif" font-size="10.00">_b</text>
<text text-anchor="start" x="317.88" y="-508.75" font-family="Helvetica,sans-Serif" font-size="10.00">+</text>
<text text-anchor="start" x="330" y="-508.75" font-family="Helvetica,sans-Serif" font-size="10.00">Color()</text>
<text text-anchor="start" x="317.88" y="-492.75" font-family="Helvetica,sans-Serif" font-size="10.00">+</text>
<text text-anchor="start" x="330" y="-492.75" font-family="Helvetica,sans-Serif" font-size="10.00">Color()</text>
<text text-anchor="start" x="317.88" y="-476.75" font-family="Helvetica,sans-Serif" font-size="10.00">+</text>
<text text-anchor="start" x="330" y="-476.75" font-family="Helvetica,sans-Serif" font-size="10.00">~Color()</text>
<text text-anchor="start" x="317.88" y="-460.75" font-family="Helvetica,sans-Serif" font-size="10.00">+</text>
<text text-anchor="start" x="330" y="-460.75" font-family="Helvetica,sans-Serif" font-size="10.00">operator*()</text>
<text text-anchor="start" x="317.88" y="-444.75" font-family="Helvetica,sans-Serif" font-size="10.00">+</text>
<text text-anchor="start" x="330" y="-444.75" font-family="Helvetica,sans-Serif" font-size="10.00">operator*()</text>
<text text-anchor="start" x="317.88" y="-428.75" font-family="Helvetica,sans-Serif" font-size="10.00">+</text>
<text text-anchor="start" x="330" y="-428.75" font-family="Helvetica,sans-Serif" font-size="10.00">operator*()</text>
<text text-anchor="start" x="317.88" y="-412.75" font-family="Helvetica,sans-Serif" font-size="10.00">+</text>
<text text-anchor="start" x="330" y="-412.75" font-family="Helvetica,sans-Serif" font-size="10.00">operator/=()</text>
<text text-anchor="start" x="317.88" y="-396.75" font-family="Helvetica,sans-Serif" font-size="10.00">+</text>
<text text-anchor="start" x="330" y="-396.75" font-family="Helvetica,sans-Serif" font-size="10.00">operator+=()</text>
<text text-anchor="start" x="317.88" y="-380.75" font-family="Helvetica,sans-Serif" font-size="10.00">+</text>
<text text-anchor="start" x="330" y="-380.75" font-family="Helvetica,sans-Serif" font-size="10.00">operator+=()</text>
<text text-anchor="start" x="317.88" y="-364.75" font-family="Helvetica,sans-Serif" font-size="10.00">+</text>
<text text-anchor="start" x="330" y="-364.75" font-family="Helvetica,sans-Serif" font-size="10.00">operator+()</text>
<text text-anchor="start" x="317.88" y="-348.75" font-family="Helvetica,sans-Serif" font-size="10.00">+</text>
<text text-anchor="start" x="330" y="-348.75" font-family="Helvetica,sans-Serif" font-size="10.00">operator/()</text>
<text text-anchor="start" x="317.88" y="-332.75" font-family="Helvetica,sans-Serif" font-size="10.00">+</text>
<text text-anchor="start" x="330" y="-332.75" font-family="Helvetica,sans-Serif" font-size="10.00">clamp()</text>
<text text-anchor="start" x="317.88" y="-316.75" font-family="Helvetica,sans-Serif" font-size="10.00">+</text>
<text text-anchor="start" x="330" y="-316.75" font-family="Helvetica,sans-Serif" font-size="10.00">getR()</text>
<text text-anchor="start" x="317.88" y="-300.75" font-family="Helvetica,sans-Serif" font-size="10.00">+</text>
<text text-anchor="start" x="330" y="-300.75" font-family="Helvetica,sans-Serif" font-size="10.00">getG()</text>
<text text-anchor="start" x="317.88" y="-284.75" font-family="Helvetica,sans-Serif" font-size="10.00">+</text>
<text text-anchor="start" x="330" y="-284.75" font-family="Helvetica,sans-Serif" font-size="10.00">getB()</text>
<polygon fill="#666666" stroke="#666666" points="314,-568.25 314,-568.25 399,-568.25 399,-568.25 314,-568.25"/>
<polygon fill="#666666" stroke="#666666" points="314,-520.25 314,-520.25 328,-520.25 328,-520.25 314,-520.25"/>
<polygon fill="#666666" stroke="#666666" points="328,-520.25 328,-520.25 399,-520.25 399,-520.25 328,-520.25"/>
<polygon fill="none" stroke="#666666" points="314,-278.25 314,-586.25 399,-586.25 399,-278.25 314,-278.25"/>
</a>
</g>
</g>
<!-- Node5&#45;&gt;Node1 -->
<g id="edge7_Node000001_Node000005" class="edge">
<title>Node5&#45;&gt;Node1</title>
<g id="a_edge7_Node000001_Node000005"><a xlink:title=" ">
<path fill="none" stroke="#63b8ff" d="M386.58,-278.28C387.2,-263.59 386.96,-248.9 385.5,-234.75 381.48,-195.91 382.19,-184.93 367.5,-148.75 362.29,-135.92 355.39,-122.92 348.09,-110.76"/>
<polygon fill="none" stroke="#63b8ff" points="348.13,-110.82 341.56,-107.84 341.79,-100.63 348.36,-103.61 348.13,-110.82"/>
</a>
</g>
<text text-anchor="middle" x="407.75" y="-179.62" font-family="Helvetica,sans-Serif" font-size="10.00" fill="grey"> +mColor</text>
</g>
<!-- Node5&#45;&gt;Node2 -->
<g id="edge4_Node000002_Node000005" class="edge">
<title>Node5&#45;&gt;Node2</title>
<g id="a_edge4_Node000002_Node000005"><a xlink:title=" ">
<path fill="none" stroke="#63b8ff" d="M318.52,-278.54C317.28,-272.38 316.1,-266.26 315,-260.25 313.19,-250.36 311.63,-239.7 310.32,-229.55"/>
<polygon fill="none" stroke="#63b8ff" points="310.31,-229.44 305.61,-223.97 308.86,-217.53 313.55,-223 310.31,-229.44"/>
</a>
</g>
<text text-anchor="middle" x="350.75" y="-244.38" font-family="Helvetica,sans-Serif" font-size="10.00" fill="grey"> +mBaseColor</text>
</g>
<!-- Node6 -->
<g id="Node000006" class="node">
<title>Node6</title>
<g id="a_Node000006"><a xlink:title=" ">
<polygon fill="white" stroke="none" points="572.5,-215.25 464.5,-215.25 464.5,-150.25 572.5,-150.25 572.5,-215.25"/>
<text text-anchor="start" x="469.38" y="-201.75" font-family="Helvetica,sans-Serif" font-size="10.00">map&lt; string, math::</text>
<text text-anchor="start" x="469.38" y="-189" font-family="Helvetica,sans-Serif" font-size="10.00">Matrix&lt; double &gt; &gt;</text>
<text text-anchor="start" x="517" y="-172.75" font-family="Helvetica,sans-Serif" font-size="10.00"> </text>
<text text-anchor="start" x="517" y="-156.75" font-family="Helvetica,sans-Serif" font-size="10.00"> </text>
<polygon fill="#666666" stroke="#666666" points="464.5,-184.25 464.5,-184.25 572.5,-184.25 572.5,-184.25 464.5,-184.25"/>
<polygon fill="#666666" stroke="#666666" points="464.5,-168.25 464.5,-168.25 572.5,-168.25 572.5,-168.25 464.5,-168.25"/>
<polygon fill="none" stroke="#666666" points="464.5,-150.25 464.5,-215.25 572.5,-215.25 572.5,-150.25 464.5,-150.25"/>
</a>
</g>
</g>
<!-- Node6&#45;&gt;Node1 -->
<g id="edge8_Node000001_Node000006" class="edge">
<title>Node6&#45;&gt;Node1</title>
<g id="a_edge8_Node000001_Node000006"><a xlink:title=" ">
<path fill="none" stroke="#63b8ff" d="M467.21,-150.27C442.43,-135.06 412.14,-116.46 384.51,-99.5"/>
<polygon fill="none" stroke="#63b8ff" points="384.66,-99.59 377.45,-99.86 374.43,-93.31 381.64,-93.04 384.66,-99.59"/>
</a>
</g>
<text text-anchor="middle" x="463.12" y="-121.25" font-family="Helvetica,sans-Serif" font-size="10.00" fill="grey"> +mAllMatrix</text>
</g>
</g>
</svg>
