<?xml version="1.0" encoding="UTF-8" standalone="no"?>
<!DOCTYPE svg PUBLIC "-//W3C//DTD SVG 1.1//EN"
 "http://www.w3.org/Graphics/SVG/1.1/DTD/svg11.dtd">
<!-- Generated by graphviz version 8.1.0 (20230707.0739)
 -->
<!-- Title: raytracer::Parser::parse Pages: 1 -->
<svg width="865pt" height="493pt"
 viewBox="0.00 0.00 865.00 493.12" xmlns="http://www.w3.org/2000/svg" xmlns:xlink="http://www.w3.org/1999/xlink">
<g id="graph0" class="graph" transform="scale(1 1) rotate(0) translate(4 489.12)">
<title>raytracer::Parser::parse</title>
<!-- Node1 -->
<g id="Node000001" class="node">
<title>Node1</title>
<g id="a_Node000001"><a xlink:title=" ">
<polygon fill="#999999" stroke="#666666" points="102.25,-362.5 0,-362.5 0,-329 102.25,-329 102.25,-362.5"/>
<text text-anchor="start" x="8" y="-349" font-family="Helvetica,sans-Serif" font-size="10.00">raytracer::Parser::</text>
<text text-anchor="middle" x="51.12" y="-336.25" font-family="Helvetica,sans-Serif" font-size="10.00">parse</text>
</a>
</g>
</g>
<!-- Node2 -->
<g id="Node000002" class="node">
<title>Node2</title>
<g id="a_Node000002"><a xlink:href="classraytracer_1_1Scene.html#a98bf8137224fe509dfdfe54d37801a93" target="_top" xlink:title=" ">
<polygon fill="white" stroke="#666666" points="288.12,-485.12 141.62,-485.12 141.62,-464.38 288.12,-464.38 288.12,-485.12"/>
<text text-anchor="middle" x="214.88" y="-471.62" font-family="Helvetica,sans-Serif" font-size="10.00">raytracer::Scene::addPlane</text>
</a>
</g>
</g>
<!-- Node1&#45;&gt;Node2 -->
<g id="edge1_Node000001_Node000002" class="edge">
<title>Node1&#45;&gt;Node2</title>
<g id="a_edge1_Node000001_Node000002"><a xlink:title=" ">
<path fill="none" stroke="#63b8ff" d="M61.01,-362.98C74.42,-387.22 102.15,-431.08 138.25,-454.75 141,-456.55 143.91,-458.19 146.92,-459.69"/>
<polygon fill="#63b8ff" stroke="#63b8ff" points="145.24,-463.21 155.81,-463.97 148.02,-456.79 145.24,-463.21"/>
</a>
</g>
</g>
<!-- Node3 -->
<g id="Node000003" class="node">
<title>Node3</title>
<g id="a_Node000003"><a xlink:href="classraytracer_1_1Scene.html#a47c40286d8a0d92cb7afcd4463f1064f" target="_top" xlink:title=" ">
<polygon fill="white" stroke="#666666" points="291.5,-446.12 138.25,-446.12 138.25,-425.38 291.5,-425.38 291.5,-446.12"/>
<text text-anchor="middle" x="214.88" y="-432.62" font-family="Helvetica,sans-Serif" font-size="10.00">raytracer::Scene::addSphere</text>
</a>
</g>
</g>
<!-- Node1&#45;&gt;Node3 -->
<g id="edge2_Node000001_Node000003" class="edge">
<title>Node1&#45;&gt;Node3</title>
<g id="a_edge2_Node000001_Node000003"><a xlink:title=" ">
<path fill="none" stroke="#63b8ff" d="M68.31,-362.93C84.52,-379.13 110.92,-402.94 138.25,-416.75 141.55,-418.42 145.01,-419.95 148.56,-421.35"/>
<polygon fill="#63b8ff" stroke="#63b8ff" points="147.12,-424.91 157.71,-424.96 149.46,-418.31 147.12,-424.91"/>
</a>
</g>
</g>
<!-- Node4 -->
<g id="Node000004" class="node">
<title>Node4</title>
<g id="a_Node000004"><a xlink:href="classraytracer_1_1Parser.html#adcdaea0d7038fcfe6d586fc7ac40a680" target="_top" xlink:title=" ">
<polygon fill="white" stroke="#666666" points="266,-407.5 163.75,-407.5 163.75,-374 266,-374 266,-407.5"/>
<text text-anchor="start" x="171.75" y="-394" font-family="Helvetica,sans-Serif" font-size="10.00">raytracer::Parser::</text>
<text text-anchor="middle" x="214.88" y="-381.25" font-family="Helvetica,sans-Serif" font-size="10.00">parseCamera</text>
</a>
</g>
</g>
<!-- Node1&#45;&gt;Node4 -->
<g id="edge3_Node000001_Node000004" class="edge">
<title>Node1&#45;&gt;Node4</title>
<g id="a_edge3_Node000001_Node000004"><a xlink:title=" ">
<path fill="none" stroke="#63b8ff" d="M102.42,-359.74C118.47,-364.21 136.4,-369.2 153.12,-373.85"/>
<polygon fill="#63b8ff" stroke="#63b8ff" points="151.76,-377.38 162.34,-376.69 153.64,-370.64 151.76,-377.38"/>
</a>
</g>
</g>
<!-- Node5 -->
<g id="Node000005" class="node">
<title>Node5</title>
<g id="a_Node000005"><a xlink:href="classraytracer_1_1ErrorHandler.html#aada9238fd341b8db1101c7b8d7ea337e" target="_top" xlink:title=" ">
<polygon fill="white" stroke="#666666" points="857,-324.5 729.25,-324.5 729.25,-291 857,-291 857,-324.5"/>
<text text-anchor="start" x="737.25" y="-311" font-family="Helvetica,sans-Serif" font-size="10.00">raytracer::ErrorHandler</text>
<text text-anchor="middle" x="793.12" y="-298.25" font-family="Helvetica,sans-Serif" font-size="10.00">::report</text>
</a>
</g>
</g>
<!-- Node1&#45;&gt;Node5 -->
<g id="edge20_Node000001_Node000005" class="edge">
<title>Node1&#45;&gt;Node5</title>
<g id="a_edge20_Node000001_Node000005"><a xlink:title=" ">
<path fill="none" stroke="#63b8ff" d="M102.6,-346.99C211.09,-349.06 474.37,-350.87 693.25,-326.75 701.37,-325.85 709.83,-324.65 718.22,-323.29"/>
<polygon fill="#63b8ff" stroke="#63b8ff" points="718.53,-326.61 727.79,-321.48 717.35,-319.71 718.53,-326.61"/>
</a>
</g>
</g>
<!-- Node7 -->
<g id="Node000007" class="node">
<title>Node7</title>
<g id="a_Node000007"><a xlink:href="classraytracer_1_1Parser.html#a3a71c0519348da9f3c3f1bd03cb4963f" target="_top" xlink:title=" ">
<polygon fill="white" stroke="#666666" points="266,-261.5 163.75,-261.5 163.75,-228 266,-228 266,-261.5"/>
<text text-anchor="start" x="171.75" y="-248" font-family="Helvetica,sans-Serif" font-size="10.00">raytracer::Parser::</text>
<text text-anchor="middle" x="214.88" y="-235.25" font-family="Helvetica,sans-Serif" font-size="10.00">parseLights</text>
</a>
</g>
</g>
<!-- Node1&#45;&gt;Node7 -->
<g id="edge6_Node000001_Node000007" class="edge">
<title>Node1&#45;&gt;Node7</title>
<g id="a_edge6_Node000001_Node000007"><a xlink:title=" ">
<path fill="none" stroke="#63b8ff" d="M79.56,-328.62C106.4,-311.86 147.45,-286.22 177.11,-267.71"/>
<polygon fill="#63b8ff" stroke="#63b8ff" points="178.67,-270.23 185.3,-261.97 174.97,-264.3 178.67,-270.23"/>
</a>
</g>
</g>
<!-- Node12 -->
<g id="Node000012" class="node">
<title>Node12</title>
<g id="a_Node000012"><a xlink:href="classraytracer_1_1Parser.html#a656afee97d373e4f961db8578ba599e2" target="_top" xlink:title=" ">
<polygon fill="white" stroke="#666666" points="266,-174.5 163.75,-174.5 163.75,-141 266,-141 266,-174.5"/>
<text text-anchor="start" x="171.75" y="-161" font-family="Helvetica,sans-Serif" font-size="10.00">raytracer::Parser::</text>
<text text-anchor="middle" x="214.88" y="-148.25" font-family="Helvetica,sans-Serif" font-size="10.00">parsePlanes</text>
</a>
</g>
</g>
<!-- Node1&#45;&gt;Node12 -->
<g id="edge12_Node000001_Node000012" class="edge">
<title>Node1&#45;&gt;Node12</title>
<g id="a_edge12_Node000001_Node000012"><a xlink:title=" ">
<path fill="none" stroke="#63b8ff" d="M61.56,-328.57C76.06,-303.02 105.6,-254.23 138.25,-218.75 150.81,-205.11 166.52,-191.93 180.37,-181.34"/>
<polygon fill="#63b8ff" stroke="#63b8ff" points="182.24,-183.57 188.15,-174.78 178.04,-177.96 182.24,-183.57"/>
</a>
</g>
</g>
<!-- Node15 -->
<g id="Node000015" class="node">
<title>Node15</title>
<g id="a_Node000015"><a xlink:href="classraytracer_1_1Parser.html#a37b554a69d9fbad68df1280e8b8fcbfd" target="_top" xlink:title=" ">
<polygon fill="white" stroke="#666666" points="266,-51.5 163.75,-51.5 163.75,-18 266,-18 266,-51.5"/>
<text text-anchor="start" x="171.75" y="-38" font-family="Helvetica,sans-Serif" font-size="10.00">raytracer::Parser::</text>
<text text-anchor="middle" x="214.88" y="-25.25" font-family="Helvetica,sans-Serif" font-size="10.00">parseSpheres</text>
</a>
</g>
</g>
<!-- Node1&#45;&gt;Node15 -->
<g id="edge16_Node000001_Node000015" class="edge">
<title>Node1&#45;&gt;Node15</title>
<g id="a_edge16_Node000001_Node000015"><a xlink:title=" ">
<path fill="none" stroke="#63b8ff" d="M57.2,-328.64C68.65,-291.36 98.58,-200.64 138.25,-131.75 153.31,-105.59 174.8,-78.75 191.02,-59.95"/>
<polygon fill="#63b8ff" stroke="#63b8ff" points="194.1,-62.74 198.06,-52.91 188.84,-58.13 194.1,-62.74"/>
</a>
</g>
</g>
<!-- Node4&#45;&gt;Node5 -->
<g id="edge4_Node000004_Node000005" class="edge">
<title>Node4&#45;&gt;Node5</title>
<g id="a_edge4_Node000004_Node000005"><a xlink:title=" ">
<path fill="none" stroke="#63b8ff" d="M266.35,-397.33C285.47,-399.52 307.45,-401.68 327.5,-402.75 490.94,-411.51 539.59,-416.13 693.25,-359.75 714.65,-351.9 737.23,-340.3 755.41,-330.04"/>
<polygon fill="#63b8ff" stroke="#63b8ff" points="756.56,-332.85 763.48,-324.83 753.07,-326.78 756.56,-332.85"/>
</a>
</g>
</g>
<!-- Node6 -->
<g id="Node000006" class="node">
<title>Node6</title>
<g id="a_Node000006"><a xlink:href="classraytracer_1_1Scene.html#ac2e9c2f15ff3d6605241de0a4b95c76d" target="_top" xlink:title=" ">
<polygon fill="white" stroke="#666666" points="491.25,-394.12 336.5,-394.12 336.5,-373.38 491.25,-373.38 491.25,-394.12"/>
<text text-anchor="middle" x="413.88" y="-380.62" font-family="Helvetica,sans-Serif" font-size="10.00">raytracer::Scene::setCamera</text>
</a>
</g>
</g>
<!-- Node4&#45;&gt;Node6 -->
<g id="edge5_Node000004_Node000006" class="edge">
<title>Node4&#45;&gt;Node6</title>
<g id="a_edge5_Node000004_Node000006"><a xlink:title=" ">
<path fill="none" stroke="#63b8ff" d="M266.35,-388.96C284.33,-388.32 305.12,-387.58 325.3,-386.86"/>
<polygon fill="#63b8ff" stroke="#63b8ff" points="325.23,-390.33 335.1,-386.48 324.98,-383.34 325.23,-390.33"/>
</a>
</g>
</g>
<!-- Node7&#45;&gt;Node5 -->
<g id="edge11_Node000007_Node000005" class="edge">
<title>Node7&#45;&gt;Node5</title>
<g id="a_edge11_Node000007_Node000005"><a xlink:title=" ">
<path fill="none" stroke="#63b8ff" d="M250.63,-261.94C272.2,-271.72 300.8,-283.11 327.5,-288.75 462.99,-317.37 625.5,-316.17 718,-312.26"/>
<polygon fill="#63b8ff" stroke="#63b8ff" points="718.09,-315.71 727.93,-311.77 717.78,-308.72 718.09,-315.71"/>
</a>
</g>
</g>
<!-- Node8 -->
<g id="Node000008" class="node">
<title>Node8</title>
<g id="a_Node000008"><a xlink:href="classraytracer_1_1Scene.html#a61edaa90e29d64faef449a9343ca2970" target="_top" xlink:title=" ">
<polygon fill="white" stroke="#666666" points="494.25,-279.5 333.5,-279.5 333.5,-246 494.25,-246 494.25,-279.5"/>
<text text-anchor="start" x="341.5" y="-266" font-family="Helvetica,sans-Serif" font-size="10.00">raytracer::Scene::addAmbient</text>
<text text-anchor="middle" x="413.88" y="-253.25" font-family="Helvetica,sans-Serif" font-size="10.00">Light</text>
</a>
</g>
</g>
<!-- Node7&#45;&gt;Node8 -->
<g id="edge7_Node000007_Node000008" class="edge">
<title>Node7&#45;&gt;Node8</title>
<g id="a_edge7_Node000007_Node000008"><a xlink:title=" ">
<path fill="none" stroke="#63b8ff" d="M266.35,-249.36C283.39,-250.92 302.98,-252.71 322.16,-254.46"/>
<polygon fill="#63b8ff" stroke="#63b8ff" points="321.8,-258.03 332.07,-255.46 322.43,-251.06 321.8,-258.03"/>
</a>
</g>
</g>
<!-- Node9 -->
<g id="Node000009" class="node">
<title>Node9</title>
<g id="a_Node000009"><a xlink:href="classraytracer_1_1Scene.html#ad82888c1f75cb772cf854bc203202ec7" target="_top" xlink:title=" ">
<polygon fill="white" stroke="#666666" points="500.25,-227.5 327.5,-227.5 327.5,-194 500.25,-194 500.25,-227.5"/>
<text text-anchor="start" x="335.5" y="-214" font-family="Helvetica,sans-Serif" font-size="10.00">raytracer::Scene::addDirectional</text>
<text text-anchor="middle" x="413.88" y="-201.25" font-family="Helvetica,sans-Serif" font-size="10.00">Light</text>
</a>
</g>
</g>
<!-- Node7&#45;&gt;Node9 -->
<g id="edge8_Node000007_Node000009" class="edge">
<title>Node7&#45;&gt;Node9</title>
<g id="a_edge8_Node000007_Node000009"><a xlink:title=" ">
<path fill="none" stroke="#63b8ff" d="M266.35,-236.04C281.74,-233.38 299.2,-230.37 316.57,-227.37"/>
<polygon fill="#63b8ff" stroke="#63b8ff" points="317.09,-230.66 326.35,-225.51 315.9,-223.76 317.09,-230.66"/>
</a>
</g>
</g>
<!-- Node10 -->
<g id="Node000010" class="node">
<title>Node10</title>
<g id="a_Node000010"><a xlink:href="classraytracer_1_1Scene.html#a337179ae15098abc513326c6bc54fec5" target="_top" xlink:title=" ">
<polygon fill="white" stroke="#666666" points="486,-175.5 341.75,-175.5 341.75,-142 486,-142 486,-175.5"/>
<text text-anchor="start" x="349.75" y="-162" font-family="Helvetica,sans-Serif" font-size="10.00">raytracer::Scene::addPoint</text>
<text text-anchor="middle" x="413.88" y="-149.25" font-family="Helvetica,sans-Serif" font-size="10.00">Light</text>
</a>
</g>
</g>
<!-- Node7&#45;&gt;Node10 -->
<g id="edge9_Node000007_Node000010" class="edge">
<title>Node7&#45;&gt;Node10</title>
<g id="a_edge9_Node000007_Node000010"><a xlink:title=" ">
<path fill="none" stroke="#63b8ff" d="M244.02,-227.61C266.15,-214.63 298.05,-197.01 327.5,-184.75 331.88,-182.93 336.44,-181.17 341.07,-179.48"/>
<polygon fill="#63b8ff" stroke="#63b8ff" points="341.98,-182.52 350.26,-175.92 339.67,-175.91 341.98,-182.52"/>
</a>
</g>
</g>
<!-- Node11 -->
<g id="Node000011" class="node">
<title>Node11</title>
<g id="a_Node000011"><a xlink:href="namespaceraytracer.html#ab2cdf2245a3477d8696a50e3e19f07da" target="_top" xlink:title=" ">
<polygon fill="white" stroke="#666666" points="481.12,-124.12 346.62,-124.12 346.62,-103.38 481.12,-103.38 481.12,-124.12"/>
<text text-anchor="middle" x="413.88" y="-110.62" font-family="Helvetica,sans-Serif" font-size="10.00">raytracer::parseRotation</text>
</a>
</g>
</g>
<!-- Node7&#45;&gt;Node11 -->
<g id="edge10_Node000007_Node000011" class="edge">
<title>Node7&#45;&gt;Node11</title>
<g id="a_edge10_Node000007_Node000011"><a xlink:title=" ">
<path fill="none" stroke="#63b8ff" d="M240.5,-227.63C256.04,-216.18 276.04,-200.24 291.5,-183.75 310.48,-163.51 304.41,-148.13 327.5,-132.75 330.41,-130.81 333.48,-129.07 336.67,-127.51"/>
<polygon fill="#63b8ff" stroke="#63b8ff" points="337.69,-130.45 345.52,-123.31 334.94,-124.01 337.69,-130.45"/>
</a>
</g>
</g>
<!-- Node13 -->
<g id="Node000013" class="node">
<title>Node13</title>
<g id="a_Node000013"><a xlink:href="classraytracer_1_1PrimitiveFact.html#a5e6ab2f9d4aeb2134676906a9fbe5a08" target="_top" xlink:title=" ">
<polygon fill="white" stroke="#666666" points="478.88,-85.5 348.88,-85.5 348.88,-52 478.88,-52 478.88,-85.5"/>
<text text-anchor="start" x="356.88" y="-72" font-family="Helvetica,sans-Serif" font-size="10.00">raytracer::PrimitiveFact</text>
<text text-anchor="middle" x="413.88" y="-59.25" font-family="Helvetica,sans-Serif" font-size="10.00">::createPlane</text>
</a>
</g>
</g>
<!-- Node12&#45;&gt;Node13 -->
<g id="edge13_Node000012_Node000013" class="edge">
<title>Node12&#45;&gt;Node13</title>
<g id="a_edge13_Node000012_Node000013"><a xlink:title=" ">
<path fill="none" stroke="#63b8ff" d="M242.1,-140.77C264.21,-127.01 297.02,-107.81 327.5,-94.75 331.67,-92.97 335.99,-91.25 340.39,-89.61"/>
<polygon fill="#63b8ff" stroke="#63b8ff" points="341.5,-92.58 349.75,-85.92 339.15,-85.98 341.5,-92.58"/>
</a>
</g>
</g>
<!-- Node14 -->
<g id="Node000014" class="node">
<title>Node14</title>
<g id="a_Node000014"><a xlink:href="namespaceraytracer.html#a5eda32471807534b237361fc8ecb497d" target="_top" xlink:title=" ">
<polygon fill="white" stroke="#666666" points="689.88,-227.12 539.62,-227.12 539.62,-206.38 689.88,-206.38 689.88,-227.12"/>
<text text-anchor="middle" x="614.75" y="-213.62" font-family="Helvetica,sans-Serif" font-size="10.00">raytracer::parseSinglePlane</text>
</a>
</g>
</g>
<!-- Node13&#45;&gt;Node14 -->
<g id="edge14_Node000013_Node000014" class="edge">
<title>Node13&#45;&gt;Node14</title>
<g id="a_edge14_Node000013_Node000014"><a xlink:title=" ">
<path fill="none" stroke="#63b8ff" d="M478.99,-84.19C486.42,-87.15 493.68,-90.64 500.25,-94.75 543.95,-122.06 581.79,-170.43 600.76,-197.33"/>
<polygon fill="#63b8ff" stroke="#63b8ff" points="598.32,-198.95 606.88,-205.19 604.08,-194.97 598.32,-198.95"/>
</a>
</g>
</g>
<!-- Node14&#45;&gt;Node5 -->
<g id="edge15_Node000014_Node000005" class="edge">
<title>Node14&#45;&gt;Node5</title>
<g id="a_edge15_Node000014_Node000005"><a xlink:title=" ">
<path fill="none" stroke="#63b8ff" d="M636.68,-227.55C664.28,-241.79 713.54,-267.21 749.23,-285.62"/>
<polygon fill="#63b8ff" stroke="#63b8ff" points="747.41,-289.13 757.9,-290.61 750.62,-282.91 747.41,-289.13"/>
</a>
</g>
</g>
<!-- Node16 -->
<g id="Node000016" class="node">
<title>Node16</title>
<g id="a_Node000016"><a xlink:href="classraytracer_1_1PrimitiveFact.html#a22c91e4eff21b9ef31b7875c82503db0" target="_top" xlink:title=" ">
<polygon fill="white" stroke="#666666" points="478.88,-33.5 348.88,-33.5 348.88,0 478.88,0 478.88,-33.5"/>
<text text-anchor="start" x="356.88" y="-20" font-family="Helvetica,sans-Serif" font-size="10.00">raytracer::PrimitiveFact</text>
<text text-anchor="middle" x="413.88" y="-7.25" font-family="Helvetica,sans-Serif" font-size="10.00">::createSphere</text>
</a>
</g>
</g>
<!-- Node15&#45;&gt;Node16 -->
<g id="edge17_Node000015_Node000016" class="edge">
<title>Node15&#45;&gt;Node16</title>
<g id="a_edge17_Node000015_Node000016"><a xlink:title=" ">
<path fill="none" stroke="#63b8ff" d="M266.35,-30.14C288.1,-28.15 313.99,-25.79 337.9,-23.6"/>
<polygon fill="#63b8ff" stroke="#63b8ff" points="338.09,-27.01 347.73,-22.61 337.46,-20.04 338.09,-27.01"/>
</a>
</g>
</g>
<!-- Node17 -->
<g id="Node000017" class="node">
<title>Node17</title>
<g id="a_Node000017"><a xlink:href="namespaceraytracer.html#a310c81c5492c10a7354fe1b0ff32dff7" target="_top" xlink:title=" ">
<polygon fill="white" stroke="#666666" points="693.25,-81.12 536.25,-81.12 536.25,-60.38 693.25,-60.38 693.25,-81.12"/>
<text text-anchor="middle" x="614.75" y="-67.62" font-family="Helvetica,sans-Serif" font-size="10.00">raytracer::parseSingleSphere</text>
</a>
</g>
</g>
<!-- Node16&#45;&gt;Node17 -->
<g id="edge18_Node000016_Node000017" class="edge">
<title>Node16&#45;&gt;Node17</title>
<g id="a_edge18_Node000016_Node000017"><a xlink:title=" ">
<path fill="none" stroke="#63b8ff" d="M478.35,-33.98C505.92,-41.47 537.76,-50.12 563.64,-57.14"/>
<polygon fill="#63b8ff" stroke="#63b8ff" points="562.4,-60.7 572.96,-59.95 564.23,-53.95 562.4,-60.7"/>
</a>
</g>
</g>
<!-- Node17&#45;&gt;Node5 -->
<g id="edge19_Node000017_Node000005" class="edge">
<title>Node17&#45;&gt;Node5</title>
<g id="a_edge19_Node000017_Node000005"><a xlink:title=" ">
<path fill="none" stroke="#63b8ff" d="M623.79,-81.55C650.17,-117 734.63,-230.49 772.92,-281.95"/>
<polygon fill="#63b8ff" stroke="#63b8ff" points="770.52,-283.58 779.3,-289.52 776.14,-279.4 770.52,-283.58"/>
</a>
</g>
</g>
</g>
</svg>
