<?xml version="1.0" encoding="UTF-8" standalone="no"?>
<!DOCTYPE svg PUBLIC "-//W3C//DTD SVG 1.1//EN"
 "http://www.w3.org/Graphics/SVG/1.1/DTD/svg11.dtd">
<!-- Generated by graphviz version 8.1.0 (20230707.0739)
 -->
<!-- Title: math::Vector3D::normalize Pages: 1 -->
<svg width="1090pt" height="364pt"
 viewBox="0.00 0.00 1089.75 363.50" xmlns="http://www.w3.org/2000/svg" xmlns:xlink="http://www.w3.org/1999/xlink">
<g id="graph0" class="graph" transform="scale(1 1) rotate(0) translate(4 359.5)">
<title>math::Vector3D::normalize</title>
<!-- Node1 -->
<g id="Node000001" class="node">
<title>Node1</title>
<g id="a_Node000001"><a xlink:title="Normalise le vecteur actuel (modifie en place).">
<polygon fill="#999999" stroke="#666666" points="1081.75,-184.12 935.25,-184.12 935.25,-163.38 1081.75,-163.38 1081.75,-184.12"/>
<text text-anchor="middle" x="1008.5" y="-170.62" font-family="Helvetica,sans-Serif" font-size="10.00">math::Vector3D::normalize</text>
</a>
</g>
</g>
<!-- Node2 -->
<g id="Node000002" class="node">
<title>Node2</title>
<g id="a_Node000002"><a xlink:href="classraytracer_1_1Camera.html#a8afe32e5da7b2f482ab823a45ef428c0" target="_top" xlink:title="Calcule la direction d’un rayon depuis la caméra vers un point de l&#39;écran.">
<polygon fill="white" stroke="#666666" points="880.12,-355.5 769.62,-355.5 769.62,-322 880.12,-322 880.12,-355.5"/>
<text text-anchor="start" x="777.62" y="-342" font-family="Helvetica,sans-Serif" font-size="10.00">raytracer::Camera::</text>
<text text-anchor="middle" x="824.88" y="-329.25" font-family="Helvetica,sans-Serif" font-size="10.00">calculateDirection</text>
</a>
</g>
</g>
<!-- Node1&#45;&gt;Node2 -->
<g id="edge1_Node000001_Node000002" class="edge">
<title>Node1&#45;&gt;Node2</title>
<g id="a_edge1_Node000001_Node000002"><a xlink:title=" ">
<path fill="none" stroke="#63b8ff" d="M995.88,-193.65C978.26,-222.33 942.23,-275.38 899.25,-307.75 892.18,-313.07 884.06,-317.67 875.86,-321.58"/>
<polygon fill="#63b8ff" stroke="#63b8ff" points="999.37,-195.64 1001.52,-185.27 993.37,-192.04 999.37,-195.64"/>
</a>
</g>
</g>
<!-- Node4 -->
<g id="Node000004" class="node">
<title>Node4</title>
<g id="a_Node000004"><a xlink:href="classraytracer_1_1Scene.html#a3e1cc90ae8e645a806ebc45eb6681958" target="_top" xlink:title="Calcule la couleur d&#39;un pixel donné dans l&#39;image.">
<polygon fill="white" stroke="#666666" points="537.25,-304.12 394.5,-304.12 394.5,-283.38 537.25,-283.38 537.25,-304.12"/>
<text text-anchor="middle" x="465.88" y="-290.62" font-family="Helvetica,sans-Serif" font-size="10.00">raytracer::Scene::getColor</text>
</a>
</g>
</g>
<!-- Node1&#45;&gt;Node4 -->
<g id="edge7_Node000001_Node000004" class="edge">
<title>Node1&#45;&gt;Node4</title>
<g id="a_edge7_Node000001_Node000004"><a xlink:title=" ">
<path fill="none" stroke="#63b8ff" d="M993.68,-193.28C975.29,-217.45 940.26,-257.54 899.25,-274.75 778.18,-325.56 620.92,-315.86 533.3,-304.58"/>
<polygon fill="#63b8ff" stroke="#63b8ff" points="996.98,-195.7 1000.1,-185.58 991.35,-191.55 996.98,-195.7"/>
</a>
</g>
</g>
<!-- Node8 -->
<g id="Node000008" class="node">
<title>Node8</title>
<g id="a_Node000008"><a xlink:href="classraytracer_1_1DirectionalLight.html#ad38770a14fe4abd20d648f8c95ef394e" target="_top" xlink:title="Calcule la couleur de la lumière en tenant compte des ombres.">
<polygon fill="white" stroke="#666666" points="896.62,-265.5 753.12,-265.5 753.12,-232 896.62,-232 896.62,-265.5"/>
<text text-anchor="start" x="761.12" y="-252" font-family="Helvetica,sans-Serif" font-size="10.00">raytracer::DirectionalLight</text>
<text text-anchor="middle" x="824.88" y="-239.25" font-family="Helvetica,sans-Serif" font-size="10.00">::getColorShadow</text>
</a>
</g>
</g>
<!-- Node1&#45;&gt;Node8 -->
<g id="edge8_Node000001_Node000008" class="edge">
<title>Node1&#45;&gt;Node8</title>
<g id="a_edge8_Node000001_Node000008"><a xlink:title=" ">
<path fill="none" stroke="#63b8ff" d="M975.49,-189.1C954.11,-199.14 925.23,-212.29 899.25,-222.75 891.85,-225.73 883.97,-228.71 876.21,-231.55"/>
<polygon fill="#63b8ff" stroke="#63b8ff" points="976.8,-191.88 984.35,-184.44 973.81,-185.55 976.8,-191.88"/>
</a>
</g>
</g>
<!-- Node9 -->
<g id="Node000009" class="node">
<title>Node9</title>
<g id="a_Node000009"><a xlink:href="classraytracer_1_1PointLight.html#adc1015f0e17f9f9af7f6d7c460c47473" target="_top" xlink:title="Calcule la couleur de l&#39;ombre au point d&#39;intersection donné.">
<polygon fill="white" stroke="#666666" points="882.38,-213.5 767.38,-213.5 767.38,-180 882.38,-180 882.38,-213.5"/>
<text text-anchor="start" x="775.38" y="-200" font-family="Helvetica,sans-Serif" font-size="10.00">raytracer::PointLight</text>
<text text-anchor="middle" x="824.88" y="-187.25" font-family="Helvetica,sans-Serif" font-size="10.00">::getColorShadow</text>
</a>
</g>
</g>
<!-- Node1&#45;&gt;Node9 -->
<g id="edge9_Node000001_Node000009" class="edge">
<title>Node1&#45;&gt;Node9</title>
<g id="a_edge9_Node000001_Node000009"><a xlink:title=" ">
<path fill="none" stroke="#63b8ff" d="M924.24,-184.29C910.17,-186.07 895.86,-187.89 882.67,-189.56"/>
<polygon fill="#63b8ff" stroke="#63b8ff" points="924.45,-187.67 933.93,-182.94 923.57,-180.72 924.45,-187.67"/>
</a>
</g>
</g>
<!-- Node10 -->
<g id="Node000010" class="node">
<title>Node10</title>
<g id="a_Node000010"><a xlink:href="classraytracer_1_1Scene.html#a47df2dc8ff0d5b2c53a1119e4dbc78a5" target="_top" xlink:title="Calcule la couleur de la lumière sur une primitive à un point d&#39;intersection donné.">
<polygon fill="white" stroke="#666666" points="714.5,-217.5 573.25,-217.5 573.25,-184 714.5,-184 714.5,-217.5"/>
<text text-anchor="start" x="581.25" y="-204" font-family="Helvetica,sans-Serif" font-size="10.00">raytracer::Scene::getLight</text>
<text text-anchor="middle" x="643.88" y="-191.25" font-family="Helvetica,sans-Serif" font-size="10.00">Color</text>
</a>
</g>
</g>
<!-- Node1&#45;&gt;Node10 -->
<g id="edge10_Node000001_Node000010" class="edge">
<title>Node1&#45;&gt;Node10</title>
<g id="a_edge10_Node000001_Node000010"><a xlink:title=" ">
<path fill="none" stroke="#63b8ff" d="M923.99,-166.48C873.53,-163.65 808.04,-162.74 750.5,-170.75 732,-173.33 712.18,-178.33 694.77,-183.52"/>
<polygon fill="#63b8ff" stroke="#63b8ff" points="923.66,-170.03 933.85,-167.14 924.08,-163.04 923.66,-170.03"/>
</a>
</g>
</g>
<!-- Node11 -->
<g id="Node000011" class="node">
<title>Node11</title>
<g id="a_Node000011"><a xlink:href="classraytracer_1_1Cone.html#a609c5153ba4fbe8eb5b41cab8d7891a3" target="_top" xlink:title="Calcule la normale à la surface du cône au point donné.">
<polygon fill="white" stroke="#666666" points="899.25,-124.12 750.5,-124.12 750.5,-103.38 899.25,-103.38 899.25,-124.12"/>
<text text-anchor="middle" x="824.88" y="-110.62" font-family="Helvetica,sans-Serif" font-size="10.00">raytracer::Cone::getNormal</text>
</a>
</g>
</g>
<!-- Node1&#45;&gt;Node11 -->
<g id="edge12_Node000001_Node000011" class="edge">
<title>Node1&#45;&gt;Node11</title>
<g id="a_edge12_Node000001_Node000011"><a xlink:title=" ">
<path fill="none" stroke="#63b8ff" d="M964.99,-159.56C945.04,-152.91 920.93,-144.9 899.25,-137.75 886.14,-133.43 871.7,-128.7 859.13,-124.59"/>
<polygon fill="#63b8ff" stroke="#63b8ff" points="963.71,-163.16 974.3,-163 965.92,-156.51 963.71,-163.16"/>
</a>
</g>
</g>
<!-- Node12 -->
<g id="Node000012" class="node">
<title>Node12</title>
<g id="a_Node000012"><a xlink:href="classraytracer_1_1Cylinder.html#a61d2ac855d44ea11f2cb93f27a1f8048" target="_top" xlink:title="Récupère le vecteur normal au point donné sur la surface du cylindre.">
<polygon fill="white" stroke="#666666" points="878.25,-85.5 771.5,-85.5 771.5,-52 878.25,-52 878.25,-85.5"/>
<text text-anchor="start" x="779.5" y="-72" font-family="Helvetica,sans-Serif" font-size="10.00">raytracer::Cylinder</text>
<text text-anchor="middle" x="824.88" y="-59.25" font-family="Helvetica,sans-Serif" font-size="10.00">::getNormal</text>
</a>
</g>
</g>
<!-- Node1&#45;&gt;Node12 -->
<g id="edge13_Node000001_Node000012" class="edge">
<title>Node1&#45;&gt;Node12</title>
<g id="a_edge13_Node000001_Node000012"><a xlink:title=" ">
<path fill="none" stroke="#63b8ff" d="M986.91,-155.89C965.98,-138.44 932.05,-112.06 899.25,-94.75 892.68,-91.28 885.54,-88.1 878.39,-85.25"/>
<polygon fill="#63b8ff" stroke="#63b8ff" points="984.4,-159.2 994.3,-162.99 988.93,-153.86 984.4,-159.2"/>
</a>
</g>
</g>
<!-- Node13 -->
<g id="Node000013" class="node">
<title>Node13</title>
<g id="a_Node000013"><a xlink:href="classraytracer_1_1Sphere.html#aa20567cc9dfacea12cb23d6d9d6cc1e8" target="_top" xlink:title="Calcule la normale à la surface de la sphère en un point donné.">
<polygon fill="white" stroke="#666666" points="877.88,-33.5 771.88,-33.5 771.88,0 877.88,0 877.88,-33.5"/>
<text text-anchor="start" x="779.88" y="-20" font-family="Helvetica,sans-Serif" font-size="10.00">raytracer::Sphere::</text>
<text text-anchor="middle" x="824.88" y="-7.25" font-family="Helvetica,sans-Serif" font-size="10.00">getNormal</text>
</a>
</g>
</g>
<!-- Node1&#45;&gt;Node13 -->
<g id="edge14_Node000001_Node000013" class="edge">
<title>Node1&#45;&gt;Node13</title>
<g id="a_edge14_Node000001_Node000013"><a xlink:title=" ">
<path fill="none" stroke="#63b8ff" d="M995.76,-153.55C978.21,-125.01 942.53,-73.02 899.25,-42.75 892.83,-38.26 885.55,-34.47 878.13,-31.29"/>
<polygon fill="#63b8ff" stroke="#63b8ff" points="993.24,-155.14 1001.39,-161.91 999.24,-151.54 993.24,-155.14"/>
</a>
</g>
</g>
<!-- Node3 -->
<g id="Node000003" class="node">
<title>Node3</title>
<g id="a_Node000003"><a xlink:href="classraytracer_1_1Camera.html#aa6be6292787a7ffd1833c7184aed42af" target="_top" xlink:title="Génère un rayon à partir des coordonnées normalisées sur le plan de l&#39;écran.">
<polygon fill="white" stroke="#666666" points="707,-345.12 580.75,-345.12 580.75,-324.38 707,-324.38 707,-345.12"/>
<text text-anchor="middle" x="643.88" y="-331.62" font-family="Helvetica,sans-Serif" font-size="10.00">raytracer::Camera::ray</text>
</a>
</g>
</g>
<!-- Node2&#45;&gt;Node3 -->
<g id="edge2_Node000002_Node000003" class="edge">
<title>Node2&#45;&gt;Node3</title>
<g id="a_edge2_Node000002_Node000003"><a xlink:title=" ">
<path fill="none" stroke="#63b8ff" d="M758.44,-337.29C741.76,-336.92 723.89,-336.52 707.36,-336.15"/>
<polygon fill="#63b8ff" stroke="#63b8ff" points="758.12,-340.8 768.2,-337.53 758.28,-333.81 758.12,-340.8"/>
</a>
</g>
</g>
<!-- Node3&#45;&gt;Node4 -->
<g id="edge3_Node000003_Node000004" class="edge">
<title>Node3&#45;&gt;Node4</title>
<g id="a_edge3_Node000003_Node000004"><a xlink:title=" ">
<path fill="none" stroke="#63b8ff" d="M586.11,-321.53C562.62,-316.05 535.72,-309.79 513.42,-304.59"/>
<polygon fill="#63b8ff" stroke="#63b8ff" points="585.1,-325.12 595.63,-323.98 586.69,-318.3 585.1,-325.12"/>
</a>
</g>
</g>
<!-- Node5 -->
<g id="Node000005" class="node">
<title>Node5</title>
<g id="a_Node000005"><a xlink:href="classraytracer_1_1Scene.html#acda226b04c50587c0125112e5bfa5e7b" target="_top" xlink:title="Lance le rendu de la scène dans l&#39;image fournie.">
<polygon fill="white" stroke="#666666" points="358.5,-304.12 225.5,-304.12 225.5,-283.38 358.5,-283.38 358.5,-304.12"/>
<text text-anchor="middle" x="292" y="-290.62" font-family="Helvetica,sans-Serif" font-size="10.00">raytracer::Scene::render</text>
</a>
</g>
</g>
<!-- Node4&#45;&gt;Node5 -->
<g id="edge4_Node000004_Node000005" class="edge">
<title>Node4&#45;&gt;Node5</title>
<g id="a_edge4_Node000004_Node000005"><a xlink:title=" ">
<path fill="none" stroke="#63b8ff" d="M383.62,-293.75C375.33,-293.75 366.97,-293.75 358.87,-293.75"/>
<polygon fill="#63b8ff" stroke="#63b8ff" points="383.47,-297.25 393.47,-293.75 383.47,-290.25 383.47,-297.25"/>
</a>
</g>
</g>
<!-- Node6 -->
<g id="Node000006" class="node">
<title>Node6</title>
<g id="a_Node000006"><a xlink:href="classcore_1_1RayTracer.html#a859673b935c3ccddb6c3db5a3710f6fd" target="_top" xlink:title="Lance l&#39;exécution principale du programme.">
<polygon fill="white" stroke="#666666" points="189.5,-304.12 76.75,-304.12 76.75,-283.38 189.5,-283.38 189.5,-304.12"/>
<text text-anchor="middle" x="133.12" y="-290.62" font-family="Helvetica,sans-Serif" font-size="10.00">core::RayTracer::run</text>
</a>
</g>
</g>
<!-- Node5&#45;&gt;Node6 -->
<g id="edge5_Node000005_Node000006" class="edge">
<title>Node5&#45;&gt;Node6</title>
<g id="a_edge5_Node000005_Node000006"><a xlink:title=" ">
<path fill="none" stroke="#63b8ff" d="M214.4,-293.75C206.01,-293.75 197.6,-293.75 189.54,-293.75"/>
<polygon fill="#63b8ff" stroke="#63b8ff" points="214.38,-297.25 224.38,-293.75 214.38,-290.25 214.38,-297.25"/>
</a>
</g>
</g>
<!-- Node7 -->
<g id="Node000007" class="node">
<title>Node7</title>
<g id="a_Node000007"><a xlink:href="Main_8cpp.html#a3c04138a5bfe5d72780bb7e82a18e627" target="_top" xlink:title="Point d&#39;entrée principal du programme.">
<polygon fill="white" stroke="#666666" points="40.75,-304.12 0,-304.12 0,-283.38 40.75,-283.38 40.75,-304.12"/>
<text text-anchor="middle" x="20.38" y="-290.62" font-family="Helvetica,sans-Serif" font-size="10.00">main</text>
</a>
</g>
</g>
<!-- Node6&#45;&gt;Node7 -->
<g id="edge6_Node000006_Node000007" class="edge">
<title>Node6&#45;&gt;Node7</title>
<g id="a_edge6_Node000006_Node000007"><a xlink:title=" ">
<path fill="none" stroke="#63b8ff" d="M65.47,-293.75C56.6,-293.75 48.14,-293.75 41.04,-293.75"/>
<polygon fill="#63b8ff" stroke="#63b8ff" points="65.43,-297.25 75.43,-293.75 65.43,-290.25 65.43,-297.25"/>
</a>
</g>
</g>
<!-- Node10&#45;&gt;Node4 -->
<g id="edge11_Node000010_Node000004" class="edge">
<title>Node10&#45;&gt;Node4</title>
<g id="a_edge11_Node000010_Node000004"><a xlink:title=" ">
<path fill="none" stroke="#63b8ff" d="M600.9,-222.93C565.08,-241.86 515.1,-268.27 487.4,-282.9"/>
<polygon fill="#63b8ff" stroke="#63b8ff" points="602.39,-225.57 609.59,-217.81 599.12,-219.39 602.39,-225.57"/>
</a>
</g>
</g>
</g>
</svg>
