<?xml version="1.0" encoding="UTF-8" standalone="no"?>
<!DOCTYPE svg PUBLIC "-//W3C//DTD SVG 1.1//EN"
 "http://www.w3.org/Graphics/SVG/1.1/DTD/svg11.dtd">
<!-- Generated by graphviz version 8.1.0 (20230707.0739)
 -->
<!-- Title: raytracer::Factory::createPrimitive Pages: 1 -->
<svg width="302pt" height="68pt"
 viewBox="0.00 0.00 301.75 67.75" xmlns="http://www.w3.org/2000/svg" xmlns:xlink="http://www.w3.org/1999/xlink">
<g id="graph0" class="graph" transform="scale(1 1) rotate(0) translate(4 63.75)">
<title>raytracer::Factory::createPrimitive</title>
<!-- Node1 -->
<g id="Node000001" class="node">
<title>Node1</title>
<g id="a_Node000001"><a xlink:title="Crée une primitive à partir de son type.">
<polygon fill="#999999" stroke="#666666" points="293.75,-46.12 192.25,-46.12 192.25,-12.62 293.75,-12.62 293.75,-46.12"/>
<text text-anchor="start" x="200.25" y="-32.62" font-family="Helvetica,sans-Serif" font-size="10.00">raytracer::Factory</text>
<text text-anchor="middle" x="243" y="-19.88" font-family="Helvetica,sans-Serif" font-size="10.00">::createPrimitive</text>
</a>
</g>
</g>
<!-- Node2 -->
<g id="Node000002" class="node">
<title>Node2</title>
<g id="a_Node000002"><a xlink:href="classraytracer_1_1Scene.html#a02a8315eecf9f573e36279145840e2bb" target="_top" xlink:title="Initialise les plans dans la scène.">
<polygon fill="white" stroke="#666666" points="152.88,-59.75 3.38,-59.75 3.38,-39 152.88,-39 152.88,-59.75"/>
<text text-anchor="middle" x="78.12" y="-46.25" font-family="Helvetica,sans-Serif" font-size="10.00">raytracer::Scene::initPlanes</text>
</a>
</g>
</g>
<!-- Node1&#45;&gt;Node2 -->
<g id="edge1_Node000001_Node000002" class="edge">
<title>Node1&#45;&gt;Node2</title>
<g id="a_edge1_Node000001_Node000002"><a xlink:title=" ">
<path fill="none" stroke="#63b8ff" d="M180.94,-36.87C171.86,-37.99 162.42,-39.15 153.11,-40.29"/>
<polygon fill="#63b8ff" stroke="#63b8ff" points="181.3,-40.23 190.8,-35.54 180.45,-33.28 181.3,-40.23"/>
</a>
</g>
</g>
<!-- Node3 -->
<g id="Node000003" class="node">
<title>Node3</title>
<g id="a_Node000003"><a xlink:href="classraytracer_1_1Scene.html#a9730cc507dde67cc5e897d2476643a84" target="_top" xlink:title="Initialise les sphères dans la scène.">
<polygon fill="white" stroke="#666666" points="156.25,-20.75 0,-20.75 0,0 156.25,0 156.25,-20.75"/>
<text text-anchor="middle" x="78.12" y="-7.25" font-family="Helvetica,sans-Serif" font-size="10.00">raytracer::Scene::initSpheres</text>
</a>
</g>
</g>
<!-- Node1&#45;&gt;Node3 -->
<g id="edge2_Node000001_Node000003" class="edge">
<title>Node1&#45;&gt;Node3</title>
<g id="a_edge2_Node000001_Node000003"><a xlink:title=" ">
<path fill="none" stroke="#63b8ff" d="M181.14,-22.28C173.17,-21.35 164.91,-20.38 156.71,-19.43"/>
<polygon fill="#63b8ff" stroke="#63b8ff" points="180.46,-25.84 190.8,-23.52 181.28,-18.88 180.46,-25.84"/>
</a>
</g>
</g>
</g>
</svg>
