<?xml version="1.0" encoding="UTF-8" standalone="no"?>
<!DOCTYPE svg PUBLIC "-//W3C//DTD SVG 1.1//EN"
 "http://www.w3.org/Graphics/SVG/1.1/DTD/svg11.dtd">
<!-- Generated by graphviz version 8.1.0 (20230707.0739)
 -->
<!-- Title: raytracer::PointLight Pages: 1 -->
<svg width="581pt" height="594pt"
 viewBox="0.00 0.00 580.50 594.25" xmlns="http://www.w3.org/2000/svg" xmlns:xlink="http://www.w3.org/1999/xlink">
<g id="graph0" class="graph" transform="scale(1 1) rotate(0) translate(4 590.25)">
<title>raytracer::PointLight</title>
<!-- Node1 -->
<g id="Node000001" class="node">
<title>Node1</title>
<g id="a_Node000001"><a xlink:title="Classe représentant une source lumineuse ponctuelle (point light).">
<polygon fill="#999999" stroke="none" points="363,-100 254,-100 254,0 363,0 363,-100"/>
<text text-anchor="start" x="259" y="-86.5" font-family="Helvetica,sans-Serif" font-size="10.00">raytracer::PointLight</text>
<text text-anchor="start" x="307" y="-70.5" font-family="Helvetica,sans-Serif" font-size="10.00"> </text>
<text text-anchor="start" x="258.38" y="-54.5" font-family="Helvetica,sans-Serif" font-size="10.00">+</text>
<text text-anchor="start" x="271" y="-54.5" font-family="Helvetica,sans-Serif" font-size="10.00">PointLight()</text>
<text text-anchor="start" x="258.38" y="-38.5" font-family="Helvetica,sans-Serif" font-size="10.00">+</text>
<text text-anchor="start" x="271" y="-38.5" font-family="Helvetica,sans-Serif" font-size="10.00">PointLight()</text>
<text text-anchor="start" x="258.38" y="-22.5" font-family="Helvetica,sans-Serif" font-size="10.00">+</text>
<text text-anchor="start" x="271" y="-22.5" font-family="Helvetica,sans-Serif" font-size="10.00">~PointLight()</text>
<text text-anchor="start" x="258.38" y="-6.5" font-family="Helvetica,sans-Serif" font-size="10.00">+</text>
<text text-anchor="start" x="271" y="-6.5" font-family="Helvetica,sans-Serif" font-size="10.00">getColorShadow()</text>
<polygon fill="#666666" stroke="#666666" points="254,-82 254,-82 363,-82 363,-82 254,-82"/>
<polygon fill="#666666" stroke="#666666" points="254,-66 254,-66 363,-66 363,-66 254,-66"/>
<polygon fill="none" stroke="#666666" points="254,0 254,-100 363,-100 363,0 254,0"/>
</a>
</g>
</g>
<!-- Node2 -->
<g id="Node000002" class="node">
<title>Node2</title>
<g id="a_Node000002"><a xlink:href="classraytracer_1_1ILight.html" target="_top" xlink:title="Interface abstraite représentant une source lumineuse dans la scène.">
<polygon fill="white" stroke="none" points="362,-216.75 255,-216.75 255,-148.75 362,-148.75 362,-216.75"/>
<text text-anchor="start" x="269.88" y="-203.25" font-family="Helvetica,sans-Serif" font-size="10.00">raytracer::ILight</text>
<text text-anchor="start" x="307" y="-187.25" font-family="Helvetica,sans-Serif" font-size="10.00"> </text>
<text text-anchor="start" x="258.88" y="-171.25" font-family="Helvetica,sans-Serif" font-size="10.00">+</text>
<text text-anchor="start" x="271" y="-171.25" font-family="Helvetica,sans-Serif" font-size="10.00">~ILight()</text>
<text text-anchor="start" x="258.88" y="-155.25" font-family="Helvetica,sans-Serif" font-size="10.00">+</text>
<text text-anchor="start" x="271" y="-155.25" font-family="Helvetica,sans-Serif" font-size="10.00">getColorShadow()</text>
<polygon fill="#666666" stroke="#666666" points="255,-198.75 255,-198.75 362,-198.75 362,-198.75 255,-198.75"/>
<polygon fill="#666666" stroke="#666666" points="255,-182.75 255,-182.75 362,-182.75 362,-182.75 255,-182.75"/>
<polygon fill="none" stroke="#666666" points="255,-148.75 255,-216.75 362,-216.75 362,-148.75 255,-148.75"/>
</a>
</g>
</g>
<!-- Node2&#45;&gt;Node1 -->
<g id="edge1_Node000001_Node000002" class="edge">
<title>Node2&#45;&gt;Node1</title>
<g id="a_edge1_Node000001_Node000002"><a xlink:title=" ">
<path fill="none" stroke="#63b8ff" d="M308.5,-137.9C308.5,-125.67 308.5,-112.3 308.5,-99.8"/>
<polygon fill="none" stroke="#63b8ff" points="305,-137.76 308.5,-147.76 312,-137.76 305,-137.76"/>
</a>
</g>
</g>
<!-- Node3 -->
<g id="Node000003" class="node">
<title>Node3</title>
<g id="a_Node000003"><a xlink:href="classmath_1_1Point3D.html" target="_top" xlink:title="Représente un point 3D. Peut interagir avec Vector3D.">
<polygon fill="white" stroke="none" points="85,-530.25 0,-530.25 0,-334.25 85,-334.25 85,-530.25"/>
<text text-anchor="start" x="7.62" y="-516.75" font-family="Helvetica,sans-Serif" font-size="10.00">math::Point3D</text>
<text text-anchor="start" x="3.88" y="-500.75" font-family="Helvetica,sans-Serif" font-size="10.00">+</text>
<text text-anchor="start" x="16" y="-500.75" font-family="Helvetica,sans-Serif" font-size="10.00">mX</text>
<text text-anchor="start" x="3.88" y="-484.75" font-family="Helvetica,sans-Serif" font-size="10.00">+</text>
<text text-anchor="start" x="16" y="-484.75" font-family="Helvetica,sans-Serif" font-size="10.00">mY</text>
<text text-anchor="start" x="3.88" y="-468.75" font-family="Helvetica,sans-Serif" font-size="10.00">+</text>
<text text-anchor="start" x="16" y="-468.75" font-family="Helvetica,sans-Serif" font-size="10.00">mZ</text>
<text text-anchor="start" x="3.88" y="-452.75" font-family="Helvetica,sans-Serif" font-size="10.00">+</text>
<text text-anchor="start" x="16" y="-452.75" font-family="Helvetica,sans-Serif" font-size="10.00">Point3D()</text>
<text text-anchor="start" x="3.88" y="-436.75" font-family="Helvetica,sans-Serif" font-size="10.00">+</text>
<text text-anchor="start" x="16" y="-436.75" font-family="Helvetica,sans-Serif" font-size="10.00">Point3D()</text>
<text text-anchor="start" x="3.88" y="-420.75" font-family="Helvetica,sans-Serif" font-size="10.00">+</text>
<text text-anchor="start" x="16" y="-420.75" font-family="Helvetica,sans-Serif" font-size="10.00">~Point3D()</text>
<text text-anchor="start" x="3.88" y="-404.75" font-family="Helvetica,sans-Serif" font-size="10.00">+</text>
<text text-anchor="start" x="16" y="-404.75" font-family="Helvetica,sans-Serif" font-size="10.00">operator+()</text>
<text text-anchor="start" x="3.88" y="-388.75" font-family="Helvetica,sans-Serif" font-size="10.00">+</text>
<text text-anchor="start" x="16" y="-388.75" font-family="Helvetica,sans-Serif" font-size="10.00">operator+()</text>
<text text-anchor="start" x="3.88" y="-372.75" font-family="Helvetica,sans-Serif" font-size="10.00">+</text>
<text text-anchor="start" x="16" y="-372.75" font-family="Helvetica,sans-Serif" font-size="10.00">operator+=()</text>
<text text-anchor="start" x="3.88" y="-356.75" font-family="Helvetica,sans-Serif" font-size="10.00">+</text>
<text text-anchor="start" x="16" y="-356.75" font-family="Helvetica,sans-Serif" font-size="10.00">operator&#45;()</text>
<text text-anchor="start" x="3.88" y="-340.75" font-family="Helvetica,sans-Serif" font-size="10.00">+</text>
<text text-anchor="start" x="16" y="-340.75" font-family="Helvetica,sans-Serif" font-size="10.00">operator&#45;()</text>
<polygon fill="#666666" stroke="#666666" points="0,-512.25 0,-512.25 85,-512.25 85,-512.25 0,-512.25"/>
<polygon fill="#666666" stroke="#666666" points="0,-464.25 0,-464.25 14,-464.25 14,-464.25 0,-464.25"/>
<polygon fill="#666666" stroke="#666666" points="14,-464.25 14,-464.25 85,-464.25 85,-464.25 14,-464.25"/>
<polygon fill="none" stroke="#666666" points="0,-334.25 0,-530.25 85,-530.25 85,-334.25 0,-334.25"/>
</a>
</g>
</g>
<!-- Node3&#45;&gt;Node1 -->
<g id="edge5_Node000001_Node000003" class="edge">
<title>Node3&#45;&gt;Node1</title>
<g id="a_edge5_Node000001_Node000003"><a xlink:title=" ">
<path fill="none" stroke="#63b8ff" d="M35.25,-334.52C35.8,-275.3 46.04,-201.1 86.25,-148.75 123.77,-99.91 190.86,-74.98 241.55,-62.57"/>
<polygon fill="none" stroke="#63b8ff" points="241.48,-62.59 246.43,-57.34 253.18,-59.88 248.23,-65.13 241.48,-62.59"/>
</a>
</g>
<text text-anchor="middle" x="111.62" y="-179.62" font-family="Helvetica,sans-Serif" font-size="10.00" fill="grey"> +mOrigin</text>
</g>
<!-- Node3&#45;&gt;Node2 -->
<g id="edge2_Node000002_Node000003" class="edge">
<title>Node3&#45;&gt;Node2</title>
<g id="a_edge2_Node000002_Node000003"><a xlink:title=" ">
<path fill="none" stroke="#63b8ff" d="M49.48,-334.37C57.12,-297.98 72.15,-259.48 101.25,-234.75 125.03,-214.54 210.6,-225.68 240.5,-216.75 241.42,-216.48 242.34,-216.19 243.27,-215.89"/>
<polygon fill="none" stroke="#63b8ff" points="243.19,-215.92 247.47,-210.12 254.48,-211.84 250.2,-217.64 243.19,-215.92"/>
</a>
</g>
<text text-anchor="middle" x="138.62" y="-244.38" font-family="Helvetica,sans-Serif" font-size="10.00" fill="grey"> +mBaseOrigin</text>
</g>
<!-- Node4 -->
<g id="Node000004" class="node">
<title>Node4</title>
<g id="a_Node000004"><a xlink:href="classmath_1_1Vector3D.html" target="_top" xlink:title="Représente un vecteur 3D avec des opérations vectorielles de base.">
<polygon fill="white" stroke="none" points="197,-562.25 112,-562.25 112,-302.25 197,-302.25 197,-562.25"/>
<text text-anchor="start" x="116.62" y="-548.75" font-family="Helvetica,sans-Serif" font-size="10.00">math::Vector3D</text>
<text text-anchor="start" x="115.88" y="-532.75" font-family="Helvetica,sans-Serif" font-size="10.00">+</text>
<text text-anchor="start" x="128" y="-532.75" font-family="Helvetica,sans-Serif" font-size="10.00">mX</text>
<text text-anchor="start" x="115.88" y="-516.75" font-family="Helvetica,sans-Serif" font-size="10.00">+</text>
<text text-anchor="start" x="128" y="-516.75" font-family="Helvetica,sans-Serif" font-size="10.00">mY</text>
<text text-anchor="start" x="115.88" y="-500.75" font-family="Helvetica,sans-Serif" font-size="10.00">+</text>
<text text-anchor="start" x="128" y="-500.75" font-family="Helvetica,sans-Serif" font-size="10.00">mZ</text>
<text text-anchor="start" x="115.88" y="-484.75" font-family="Helvetica,sans-Serif" font-size="10.00">+</text>
<text text-anchor="start" x="128" y="-484.75" font-family="Helvetica,sans-Serif" font-size="10.00">Vector3D()</text>
<text text-anchor="start" x="115.88" y="-468.75" font-family="Helvetica,sans-Serif" font-size="10.00">+</text>
<text text-anchor="start" x="128" y="-468.75" font-family="Helvetica,sans-Serif" font-size="10.00">Vector3D()</text>
<text text-anchor="start" x="115.88" y="-452.75" font-family="Helvetica,sans-Serif" font-size="10.00">+</text>
<text text-anchor="start" x="128" y="-452.75" font-family="Helvetica,sans-Serif" font-size="10.00">~Vector3D()</text>
<text text-anchor="start" x="115.88" y="-436.75" font-family="Helvetica,sans-Serif" font-size="10.00">+</text>
<text text-anchor="start" x="128" y="-436.75" font-family="Helvetica,sans-Serif" font-size="10.00">length()</text>
<text text-anchor="start" x="115.88" y="-420.75" font-family="Helvetica,sans-Serif" font-size="10.00">+</text>
<text text-anchor="start" x="128" y="-420.75" font-family="Helvetica,sans-Serif" font-size="10.00">dot()</text>
<text text-anchor="start" x="115.88" y="-404.75" font-family="Helvetica,sans-Serif" font-size="10.00">+</text>
<text text-anchor="start" x="128" y="-404.75" font-family="Helvetica,sans-Serif" font-size="10.00">operator+()</text>
<text text-anchor="start" x="115.88" y="-388.75" font-family="Helvetica,sans-Serif" font-size="10.00">+</text>
<text text-anchor="start" x="128" y="-388.75" font-family="Helvetica,sans-Serif" font-size="10.00">operator+=()</text>
<text text-anchor="start" x="115.88" y="-372.75" font-family="Helvetica,sans-Serif" font-size="10.00">+</text>
<text text-anchor="start" x="128" y="-372.75" font-family="Helvetica,sans-Serif" font-size="10.00">operator&#45;()</text>
<text text-anchor="start" x="115.88" y="-356.75" font-family="Helvetica,sans-Serif" font-size="10.00">+</text>
<text text-anchor="start" x="128" y="-356.75" font-family="Helvetica,sans-Serif" font-size="10.00">operator&#45;=()</text>
<text text-anchor="start" x="115.88" y="-340.75" font-family="Helvetica,sans-Serif" font-size="10.00">+</text>
<text text-anchor="start" x="128" y="-340.75" font-family="Helvetica,sans-Serif" font-size="10.00">operator*()</text>
<text text-anchor="start" x="128" y="-324.75" font-family="Helvetica,sans-Serif" font-size="10.00">and 9 more...</text>
<text text-anchor="start" x="115.88" y="-308.75" font-family="Helvetica,sans-Serif" font-size="10.00">+</text>
<text text-anchor="start" x="128" y="-308.75" font-family="Helvetica,sans-Serif" font-size="10.00">normalize()</text>
<polygon fill="#666666" stroke="#666666" points="112,-544.25 112,-544.25 197,-544.25 197,-544.25 112,-544.25"/>
<polygon fill="#666666" stroke="#666666" points="112,-496.25 112,-496.25 126,-496.25 126,-496.25 112,-496.25"/>
<polygon fill="#666666" stroke="#666666" points="126,-496.25 126,-496.25 197,-496.25 197,-496.25 126,-496.25"/>
<polygon fill="none" stroke="#666666" points="112,-302.25 112,-562.25 197,-562.25 197,-302.25 112,-302.25"/>
</a>
</g>
</g>
<!-- Node4&#45;&gt;Node1 -->
<g id="edge8_Node000001_Node000004" class="edge">
<title>Node4&#45;&gt;Node1</title>
<g id="a_edge8_Node000001_Node000004"><a xlink:title=" ">
<path fill="none" stroke="#63b8ff" d="M141.57,-302.34C137.79,-240.85 137.95,-175.03 152.5,-148.75 171.74,-113.98 209.1,-89.93 242.43,-74.38"/>
<polygon fill="none" stroke="#63b8ff" points="242.22,-74.47 246.08,-68.38 253.19,-69.6 249.33,-75.69 242.22,-74.47"/>
</a>
</g>
<text text-anchor="middle" x="199" y="-179.62" font-family="Helvetica,sans-Serif" font-size="10.00" fill="grey"> +mVectorRotation</text>
</g>
<!-- Node4&#45;&gt;Node2 -->
<g id="edge3_Node000002_Node000004" class="edge">
<title>Node4&#45;&gt;Node2</title>
<g id="a_edge3_Node000002_Node000004"><a xlink:title=" ">
<path fill="none" stroke="#63b8ff" d="M161.78,-302.37C168.14,-277.87 178.37,-253.93 194.5,-234.75 208.63,-217.95 220.39,-225.55 240.5,-216.75 241.55,-216.29 242.61,-215.82 243.68,-215.35"/>
<polygon fill="none" stroke="#63b8ff" points="243.49,-215.43 247.29,-209.31 254.41,-210.46 250.61,-216.59 243.49,-215.43"/>
</a>
</g>
<text text-anchor="middle" x="251.5" y="-250.75" font-family="Helvetica,sans-Serif" font-size="10.00" fill="grey"> +mBaseDirection</text>
<text text-anchor="middle" x="251.5" y="-238" font-family="Helvetica,sans-Serif" font-size="10.00" fill="grey">+mBaseVectorRotation</text>
</g>
<!-- Node5 -->
<g id="Node000005" class="node">
<title>Node5</title>
<g id="a_Node000005"><a xlink:href="classraytracer_1_1Color.html" target="_top" xlink:title=" ">
<polygon fill="white" stroke="none" points="399,-586.25 314,-586.25 314,-278.25 399,-278.25 399,-586.25"/>
<text text-anchor="start" x="318.62" y="-572.75" font-family="Helvetica,sans-Serif" font-size="10.00">raytracer::Color</text>
<text text-anchor="start" x="320.12" y="-556.75" font-family="Helvetica,sans-Serif" font-size="10.00">&#45;</text>
<text text-anchor="start" x="330" y="-556.75" font-family="Helvetica,sans-Serif" font-size="10.00">_r</text>
<text text-anchor="start" x="320.12" y="-540.75" font-family="Helvetica,sans-Serif" font-size="10.00">&#45;</text>
<text text-anchor="start" x="330" y="-540.75" font-family="Helvetica,sans-Serif" font-size="10.00">_g</text>
<text text-anchor="start" x="320.12" y="-524.75" font-family="Helvetica,sans-Serif" font-size="10.00">&#45;</text>
<text text-anchor="start" x="330" y="-524.75" font-family="Helvetica,sans-Serif" font-size="10.00">_b</text>
<text text-anchor="start" x="317.88" y="-508.75" font-family="Helvetica,sans-Serif" font-size="10.00">+</text>
<text text-anchor="start" x="330" y="-508.75" font-family="Helvetica,sans-Serif" font-size="10.00">Color()</text>
<text text-anchor="start" x="317.88" y="-492.75" font-family="Helvetica,sans-Serif" font-size="10.00">+</text>
<text text-anchor="start" x="330" y="-492.75" font-family="Helvetica,sans-Serif" font-size="10.00">Color()</text>
<text text-anchor="start" x="317.88" y="-476.75" font-family="Helvetica,sans-Serif" font-size="10.00">+</text>
<text text-anchor="start" x="330" y="-476.75" font-family="Helvetica,sans-Serif" font-size="10.00">~Color()</text>
<text text-anchor="start" x="317.88" y="-460.75" font-family="Helvetica,sans-Serif" font-size="10.00">+</text>
<text text-anchor="start" x="330" y="-460.75" font-family="Helvetica,sans-Serif" font-size="10.00">operator*()</text>
<text text-anchor="start" x="317.88" y="-444.75" font-family="Helvetica,sans-Serif" font-size="10.00">+</text>
<text text-anchor="start" x="330" y="-444.75" font-family="Helvetica,sans-Serif" font-size="10.00">operator*()</text>
<text text-anchor="start" x="317.88" y="-428.75" font-family="Helvetica,sans-Serif" font-size="10.00">+</text>
<text text-anchor="start" x="330" y="-428.75" font-family="Helvetica,sans-Serif" font-size="10.00">operator*()</text>
<text text-anchor="start" x="317.88" y="-412.75" font-family="Helvetica,sans-Serif" font-size="10.00">+</text>
<text text-anchor="start" x="330" y="-412.75" font-family="Helvetica,sans-Serif" font-size="10.00">operator/=()</text>
<text text-anchor="start" x="317.88" y="-396.75" font-family="Helvetica,sans-Serif" font-size="10.00">+</text>
<text text-anchor="start" x="330" y="-396.75" font-family="Helvetica,sans-Serif" font-size="10.00">operator+=()</text>
<text text-anchor="start" x="317.88" y="-380.75" font-family="Helvetica,sans-Serif" font-size="10.00">+</text>
<text text-anchor="start" x="330" y="-380.75" font-family="Helvetica,sans-Serif" font-size="10.00">operator+=()</text>
<text text-anchor="start" x="317.88" y="-364.75" font-family="Helvetica,sans-Serif" font-size="10.00">+</text>
<text text-anchor="start" x="330" y="-364.75" font-family="Helvetica,sans-Serif" font-size="10.00">operator+()</text>
<text text-anchor="start" x="317.88" y="-348.75" font-family="Helvetica,sans-Serif" font-size="10.00">+</text>
<text text-anchor="start" x="330" y="-348.75" font-family="Helvetica,sans-Serif" font-size="10.00">operator/()</text>
<text text-anchor="start" x="317.88" y="-332.75" font-family="Helvetica,sans-Serif" font-size="10.00">+</text>
<text text-anchor="start" x="330" y="-332.75" font-family="Helvetica,sans-Serif" font-size="10.00">clamp()</text>
<text text-anchor="start" x="317.88" y="-316.75" font-family="Helvetica,sans-Serif" font-size="10.00">+</text>
<text text-anchor="start" x="330" y="-316.75" font-family="Helvetica,sans-Serif" font-size="10.00">getR()</text>
<text text-anchor="start" x="317.88" y="-300.75" font-family="Helvetica,sans-Serif" font-size="10.00">+</text>
<text text-anchor="start" x="330" y="-300.75" font-family="Helvetica,sans-Serif" font-size="10.00">getG()</text>
<text text-anchor="start" x="317.88" y="-284.75" font-family="Helvetica,sans-Serif" font-size="10.00">+</text>
<text text-anchor="start" x="330" y="-284.75" font-family="Helvetica,sans-Serif" font-size="10.00">getB()</text>
<polygon fill="#666666" stroke="#666666" points="314,-568.25 314,-568.25 399,-568.25 399,-568.25 314,-568.25"/>
<polygon fill="#666666" stroke="#666666" points="314,-520.25 314,-520.25 328,-520.25 328,-520.25 314,-520.25"/>
<polygon fill="#666666" stroke="#666666" points="328,-520.25 328,-520.25 399,-520.25 399,-520.25 328,-520.25"/>
<polygon fill="none" stroke="#666666" points="314,-278.25 314,-586.25 399,-586.25 399,-278.25 314,-278.25"/>
</a>
</g>
</g>
<!-- Node5&#45;&gt;Node1 -->
<g id="edge6_Node000001_Node000005" class="edge">
<title>Node5&#45;&gt;Node1</title>
<g id="a_edge6_Node000001_Node000005"><a xlink:title=" ">
<path fill="none" stroke="#63b8ff" d="M386.79,-278.38C389.32,-235.29 386.13,-189.17 370.5,-148.75 365.53,-135.91 358.78,-122.93 351.56,-110.82"/>
<polygon fill="none" stroke="#63b8ff" points="351.63,-110.94 345.07,-107.95 345.31,-100.74 351.87,-103.73 351.63,-110.94"/>
</a>
</g>
<text text-anchor="middle" x="409.75" y="-179.62" font-family="Helvetica,sans-Serif" font-size="10.00" fill="grey"> +mColor</text>
</g>
<!-- Node5&#45;&gt;Node2 -->
<g id="edge4_Node000002_Node000005" class="edge">
<title>Node5&#45;&gt;Node2</title>
<g id="a_edge4_Node000002_Node000005"><a xlink:title=" ">
<path fill="none" stroke="#63b8ff" d="M318.22,-278.59C317.06,-272.41 315.98,-266.28 315,-260.25 313.39,-250.37 312.17,-239.7 311.24,-229.56"/>
<polygon fill="none" stroke="#63b8ff" points="311.24,-229.5 306.76,-223.85 310.26,-217.54 314.73,-223.2 311.24,-229.5"/>
</a>
</g>
<text text-anchor="middle" x="350.75" y="-244.38" font-family="Helvetica,sans-Serif" font-size="10.00" fill="grey"> +mBaseColor</text>
</g>
<!-- Node6 -->
<g id="Node000006" class="node">
<title>Node6</title>
<g id="a_Node000006"><a xlink:title=" ">
<polygon fill="white" stroke="none" points="572.5,-215.25 464.5,-215.25 464.5,-150.25 572.5,-150.25 572.5,-215.25"/>
<text text-anchor="start" x="469.38" y="-201.75" font-family="Helvetica,sans-Serif" font-size="10.00">map&lt; string, math::</text>
<text text-anchor="start" x="469.38" y="-189" font-family="Helvetica,sans-Serif" font-size="10.00">Matrix&lt; double &gt; &gt;</text>
<text text-anchor="start" x="517" y="-172.75" font-family="Helvetica,sans-Serif" font-size="10.00"> </text>
<text text-anchor="start" x="517" y="-156.75" font-family="Helvetica,sans-Serif" font-size="10.00"> </text>
<polygon fill="#666666" stroke="#666666" points="464.5,-184.25 464.5,-184.25 572.5,-184.25 572.5,-184.25 464.5,-184.25"/>
<polygon fill="#666666" stroke="#666666" points="464.5,-168.25 464.5,-168.25 572.5,-168.25 572.5,-168.25 464.5,-168.25"/>
<polygon fill="none" stroke="#666666" points="464.5,-150.25 464.5,-215.25 572.5,-215.25 572.5,-150.25 464.5,-150.25"/>
</a>
</g>
</g>
<!-- Node6&#45;&gt;Node1 -->
<g id="edge7_Node000001_Node000006" class="edge">
<title>Node6&#45;&gt;Node1</title>
<g id="a_edge7_Node000001_Node000006"><a xlink:title=" ">
<path fill="none" stroke="#63b8ff" d="M467.93,-150.27C439.61,-132.63 403.99,-110.45 373.61,-91.54"/>
<polygon fill="none" stroke="#63b8ff" points="373.62,-91.55 366.42,-91.77 363.44,-85.2 370.64,-84.98 373.62,-91.55"/>
</a>
</g>
<text text-anchor="middle" x="464.12" y="-121.25" font-family="Helvetica,sans-Serif" font-size="10.00" fill="grey"> +mAllMatrix</text>
</g>
</g>
</svg>
