<?xml version="1.0" encoding="UTF-8" standalone="no"?>
<!DOCTYPE svg PUBLIC "-//W3C//DTD SVG 1.1//EN"
 "http://www.w3.org/Graphics/SVG/1.1/DTD/svg11.dtd">
<!-- Generated by graphviz version 8.1.0 (20230707.0739)
 -->
<!-- Title: raytracer::Plane Pages: 1 -->
<svg width="648pt" height="650pt"
 viewBox="0.00 0.00 647.75 649.75" xmlns="http://www.w3.org/2000/svg" xmlns:xlink="http://www.w3.org/1999/xlink">
<g id="graph0" class="graph" transform="scale(1 1) rotate(0) translate(4 645.75)">
<title>raytracer::Plane</title>
<!-- Node1 -->
<g id="Node000001" class="node">
<title>Node1</title>
<g id="a_Node000001"><a xlink:title="Représente un plan dans la scène de raytracing.">
<polygon fill="#999999" stroke="none" points="346,-116 187,-116 187,0 346,0 346,-116"/>
<text text-anchor="start" x="227.88" y="-102.5" font-family="Helvetica,sans-Serif" font-size="10.00">raytracer::Plane</text>
<text text-anchor="start" x="190.88" y="-86.5" font-family="Helvetica,sans-Serif" font-size="10.00">+</text>
<text text-anchor="start" x="203" y="-86.5" font-family="Helvetica,sans-Serif" font-size="10.00">mPosition</text>
<text text-anchor="start" x="190.88" y="-70.5" font-family="Helvetica,sans-Serif" font-size="10.00">+</text>
<text text-anchor="start" x="203" y="-70.5" font-family="Helvetica,sans-Serif" font-size="10.00">Plane()</text>
<text text-anchor="start" x="190.88" y="-54.5" font-family="Helvetica,sans-Serif" font-size="10.00">+</text>
<text text-anchor="start" x="203" y="-54.5" font-family="Helvetica,sans-Serif" font-size="10.00">Plane()</text>
<text text-anchor="start" x="190.88" y="-38.5" font-family="Helvetica,sans-Serif" font-size="10.00">+</text>
<text text-anchor="start" x="203" y="-38.5" font-family="Helvetica,sans-Serif" font-size="10.00">hits()</text>
<text text-anchor="start" x="190.88" y="-22.5" font-family="Helvetica,sans-Serif" font-size="10.00">+</text>
<text text-anchor="start" x="203" y="-22.5" font-family="Helvetica,sans-Serif" font-size="10.00">checkRayPlaneIntersection()</text>
<text text-anchor="start" x="190.88" y="-6.5" font-family="Helvetica,sans-Serif" font-size="10.00">+</text>
<text text-anchor="start" x="203" y="-6.5" font-family="Helvetica,sans-Serif" font-size="10.00">getNormal()</text>
<polygon fill="#666666" stroke="#666666" points="187,-98 187,-98 346,-98 346,-98 187,-98"/>
<polygon fill="#666666" stroke="#666666" points="187,-82 187,-82 201,-82 201,-82 187,-82"/>
<polygon fill="#666666" stroke="#666666" points="201,-82 201,-82 346,-82 346,-82 201,-82"/>
<polygon fill="none" stroke="#666666" points="187,0 187,-116 346,-116 346,0 187,0"/>
</a>
</g>
</g>
<!-- Node2 -->
<g id="Node000002" class="node">
<title>Node2</title>
<g id="a_Node000002"><a xlink:href="classraytracer_1_1IPrimitive.html" target="_top" xlink:title="Interface de base pour les primitives géométriques dans le moteur de raytracing.">
<polygon fill="white" stroke="none" points="320,-285 213,-285 213,-153 320,-153 320,-285"/>
<text text-anchor="start" x="217.75" y="-271.5" font-family="Helvetica,sans-Serif" font-size="10.00">raytracer::IPrimitive</text>
<text text-anchor="start" x="220.38" y="-255.5" font-family="Helvetica,sans-Serif" font-size="10.00">+</text>
<text text-anchor="start" x="236" y="-255.5" font-family="Helvetica,sans-Serif" font-size="10.00">mBaseRadius</text>
<text text-anchor="start" x="220.38" y="-239.5" font-family="Helvetica,sans-Serif" font-size="10.00">+</text>
<text text-anchor="start" x="236" y="-239.5" font-family="Helvetica,sans-Serif" font-size="10.00">mBasePosition</text>
<text text-anchor="start" x="220.38" y="-223.5" font-family="Helvetica,sans-Serif" font-size="10.00">+</text>
<text text-anchor="start" x="236" y="-223.5" font-family="Helvetica,sans-Serif" font-size="10.00">mBaseHeight</text>
<text text-anchor="start" x="220.38" y="-207.5" font-family="Helvetica,sans-Serif" font-size="10.00">+</text>
<text text-anchor="start" x="236" y="-207.5" font-family="Helvetica,sans-Serif" font-size="10.00">IPrimitive()</text>
<text text-anchor="start" x="220.38" y="-191.5" font-family="Helvetica,sans-Serif" font-size="10.00">+</text>
<text text-anchor="start" x="236" y="-191.5" font-family="Helvetica,sans-Serif" font-size="10.00">~IPrimitive()</text>
<text text-anchor="start" x="220.38" y="-175.5" font-family="Helvetica,sans-Serif" font-size="10.00">+</text>
<text text-anchor="start" x="236" y="-175.5" font-family="Helvetica,sans-Serif" font-size="10.00">hits()</text>
<text text-anchor="start" x="220.38" y="-159.5" font-family="Helvetica,sans-Serif" font-size="10.00">+</text>
<text text-anchor="start" x="236" y="-159.5" font-family="Helvetica,sans-Serif" font-size="10.00">getNormal()</text>
<polygon fill="#666666" stroke="#666666" points="213,-267 213,-267 320,-267 320,-267 213,-267"/>
<polygon fill="#666666" stroke="#666666" points="213,-219 213,-219 234,-219 234,-219 213,-219"/>
<polygon fill="#666666" stroke="#666666" points="234,-219 234,-219 320,-219 320,-219 234,-219"/>
<polygon fill="none" stroke="#666666" points="213,-153 213,-285 320,-285 320,-153 213,-153"/>
</a>
</g>
</g>
<!-- Node2&#45;&gt;Node1 -->
<g id="edge1_Node000001_Node000002" class="edge">
<title>Node2&#45;&gt;Node1</title>
<g id="a_edge1_Node000001_Node000002"><a xlink:title=" ">
<path fill="none" stroke="#63b8ff" d="M266.5,-142.5C266.5,-133.57 266.5,-124.57 266.5,-115.95"/>
<polygon fill="none" stroke="#63b8ff" points="263,-142.33 266.5,-152.33 270,-142.33 263,-142.33"/>
</a>
</g>
</g>
<!-- Node3 -->
<g id="Node000003" class="node">
<title>Node3</title>
<g id="a_Node000003"><a xlink:href="classraytracer_1_1Color.html" target="_top" xlink:title=" ">
<polygon fill="white" stroke="none" points="85,-641.75 0,-641.75 0,-333.75 85,-333.75 85,-641.75"/>
<text text-anchor="start" x="4.62" y="-628.25" font-family="Helvetica,sans-Serif" font-size="10.00">raytracer::Color</text>
<text text-anchor="start" x="6.12" y="-612.25" font-family="Helvetica,sans-Serif" font-size="10.00">&#45;</text>
<text text-anchor="start" x="16" y="-612.25" font-family="Helvetica,sans-Serif" font-size="10.00">_r</text>
<text text-anchor="start" x="6.12" y="-596.25" font-family="Helvetica,sans-Serif" font-size="10.00">&#45;</text>
<text text-anchor="start" x="16" y="-596.25" font-family="Helvetica,sans-Serif" font-size="10.00">_g</text>
<text text-anchor="start" x="6.12" y="-580.25" font-family="Helvetica,sans-Serif" font-size="10.00">&#45;</text>
<text text-anchor="start" x="16" y="-580.25" font-family="Helvetica,sans-Serif" font-size="10.00">_b</text>
<text text-anchor="start" x="3.88" y="-564.25" font-family="Helvetica,sans-Serif" font-size="10.00">+</text>
<text text-anchor="start" x="16" y="-564.25" font-family="Helvetica,sans-Serif" font-size="10.00">Color()</text>
<text text-anchor="start" x="3.88" y="-548.25" font-family="Helvetica,sans-Serif" font-size="10.00">+</text>
<text text-anchor="start" x="16" y="-548.25" font-family="Helvetica,sans-Serif" font-size="10.00">Color()</text>
<text text-anchor="start" x="3.88" y="-532.25" font-family="Helvetica,sans-Serif" font-size="10.00">+</text>
<text text-anchor="start" x="16" y="-532.25" font-family="Helvetica,sans-Serif" font-size="10.00">~Color()</text>
<text text-anchor="start" x="3.88" y="-516.25" font-family="Helvetica,sans-Serif" font-size="10.00">+</text>
<text text-anchor="start" x="16" y="-516.25" font-family="Helvetica,sans-Serif" font-size="10.00">operator*()</text>
<text text-anchor="start" x="3.88" y="-500.25" font-family="Helvetica,sans-Serif" font-size="10.00">+</text>
<text text-anchor="start" x="16" y="-500.25" font-family="Helvetica,sans-Serif" font-size="10.00">operator*()</text>
<text text-anchor="start" x="3.88" y="-484.25" font-family="Helvetica,sans-Serif" font-size="10.00">+</text>
<text text-anchor="start" x="16" y="-484.25" font-family="Helvetica,sans-Serif" font-size="10.00">operator*()</text>
<text text-anchor="start" x="3.88" y="-468.25" font-family="Helvetica,sans-Serif" font-size="10.00">+</text>
<text text-anchor="start" x="16" y="-468.25" font-family="Helvetica,sans-Serif" font-size="10.00">operator/=()</text>
<text text-anchor="start" x="3.88" y="-452.25" font-family="Helvetica,sans-Serif" font-size="10.00">+</text>
<text text-anchor="start" x="16" y="-452.25" font-family="Helvetica,sans-Serif" font-size="10.00">operator+=()</text>
<text text-anchor="start" x="3.88" y="-436.25" font-family="Helvetica,sans-Serif" font-size="10.00">+</text>
<text text-anchor="start" x="16" y="-436.25" font-family="Helvetica,sans-Serif" font-size="10.00">operator+=()</text>
<text text-anchor="start" x="3.88" y="-420.25" font-family="Helvetica,sans-Serif" font-size="10.00">+</text>
<text text-anchor="start" x="16" y="-420.25" font-family="Helvetica,sans-Serif" font-size="10.00">operator+()</text>
<text text-anchor="start" x="3.88" y="-404.25" font-family="Helvetica,sans-Serif" font-size="10.00">+</text>
<text text-anchor="start" x="16" y="-404.25" font-family="Helvetica,sans-Serif" font-size="10.00">operator/()</text>
<text text-anchor="start" x="3.88" y="-388.25" font-family="Helvetica,sans-Serif" font-size="10.00">+</text>
<text text-anchor="start" x="16" y="-388.25" font-family="Helvetica,sans-Serif" font-size="10.00">clamp()</text>
<text text-anchor="start" x="3.88" y="-372.25" font-family="Helvetica,sans-Serif" font-size="10.00">+</text>
<text text-anchor="start" x="16" y="-372.25" font-family="Helvetica,sans-Serif" font-size="10.00">getR()</text>
<text text-anchor="start" x="3.88" y="-356.25" font-family="Helvetica,sans-Serif" font-size="10.00">+</text>
<text text-anchor="start" x="16" y="-356.25" font-family="Helvetica,sans-Serif" font-size="10.00">getG()</text>
<text text-anchor="start" x="3.88" y="-340.25" font-family="Helvetica,sans-Serif" font-size="10.00">+</text>
<text text-anchor="start" x="16" y="-340.25" font-family="Helvetica,sans-Serif" font-size="10.00">getB()</text>
<polygon fill="#666666" stroke="#666666" points="0,-623.75 0,-623.75 85,-623.75 85,-623.75 0,-623.75"/>
<polygon fill="#666666" stroke="#666666" points="0,-575.75 0,-575.75 14,-575.75 14,-575.75 0,-575.75"/>
<polygon fill="#666666" stroke="#666666" points="14,-575.75 14,-575.75 85,-575.75 85,-575.75 14,-575.75"/>
<polygon fill="none" stroke="#666666" points="0,-333.75 0,-641.75 85,-641.75 85,-333.75 0,-333.75"/>
</a>
</g>
</g>
<!-- Node3&#45;&gt;Node1 -->
<g id="edge8_Node000001_Node000003" class="edge">
<title>Node3&#45;&gt;Node1</title>
<g id="a_edge8_Node000001_Node000003"><a xlink:title=" ">
<path fill="none" stroke="#63b8ff" d="M32.42,-333.78C35.54,-272.82 48.7,-204.95 85,-153 106.72,-121.9 141.95,-100.39 175.62,-85.87"/>
<polygon fill="none" stroke="#63b8ff" points="175.5,-85.92 179.53,-79.94 186.6,-81.37 182.57,-87.34 175.5,-85.92"/>
</a>
</g>
<text text-anchor="middle" x="108.75" y="-215.88" font-family="Helvetica,sans-Serif" font-size="10.00" fill="grey"> +mColor</text>
</g>
<!-- Node3&#45;&gt;Node2 -->
<g id="edge2_Node000002_Node000003" class="edge">
<title>Node3&#45;&gt;Node2</title>
<g id="a_edge2_Node000002_Node000003"><a xlink:title=" ">
<path fill="none" stroke="#63b8ff" d="M84.86,-343.63C93.9,-328.42 104.82,-314.38 118,-303 143.13,-281.3 160.98,-300.2 190.5,-285 194.48,-282.95 198.43,-280.66 202.31,-278.18"/>
<polygon fill="none" stroke="#63b8ff" points="202.42,-278.11 205.1,-271.42 212.31,-271.32 209.63,-278.01 202.42,-278.11"/>
</a>
</g>
<text text-anchor="middle" x="153.75" y="-306.25" font-family="Helvetica,sans-Serif" font-size="10.00" fill="grey"> +mBaseColor</text>
</g>
<!-- Node4 -->
<g id="Node000004" class="node">
<title>Node4</title>
<g id="a_Node000004"><a xlink:href="classmath_1_1Point3D.html" target="_top" xlink:title="Représente un point 3D. Peut interagir avec Vector3D.">
<polygon fill="white" stroke="none" points="309,-585.75 224,-585.75 224,-389.75 309,-389.75 309,-585.75"/>
<text text-anchor="start" x="231.62" y="-572.25" font-family="Helvetica,sans-Serif" font-size="10.00">math::Point3D</text>
<text text-anchor="start" x="227.88" y="-556.25" font-family="Helvetica,sans-Serif" font-size="10.00">+</text>
<text text-anchor="start" x="240" y="-556.25" font-family="Helvetica,sans-Serif" font-size="10.00">mX</text>
<text text-anchor="start" x="227.88" y="-540.25" font-family="Helvetica,sans-Serif" font-size="10.00">+</text>
<text text-anchor="start" x="240" y="-540.25" font-family="Helvetica,sans-Serif" font-size="10.00">mY</text>
<text text-anchor="start" x="227.88" y="-524.25" font-family="Helvetica,sans-Serif" font-size="10.00">+</text>
<text text-anchor="start" x="240" y="-524.25" font-family="Helvetica,sans-Serif" font-size="10.00">mZ</text>
<text text-anchor="start" x="227.88" y="-508.25" font-family="Helvetica,sans-Serif" font-size="10.00">+</text>
<text text-anchor="start" x="240" y="-508.25" font-family="Helvetica,sans-Serif" font-size="10.00">Point3D()</text>
<text text-anchor="start" x="227.88" y="-492.25" font-family="Helvetica,sans-Serif" font-size="10.00">+</text>
<text text-anchor="start" x="240" y="-492.25" font-family="Helvetica,sans-Serif" font-size="10.00">Point3D()</text>
<text text-anchor="start" x="227.88" y="-476.25" font-family="Helvetica,sans-Serif" font-size="10.00">+</text>
<text text-anchor="start" x="240" y="-476.25" font-family="Helvetica,sans-Serif" font-size="10.00">~Point3D()</text>
<text text-anchor="start" x="227.88" y="-460.25" font-family="Helvetica,sans-Serif" font-size="10.00">+</text>
<text text-anchor="start" x="240" y="-460.25" font-family="Helvetica,sans-Serif" font-size="10.00">operator+()</text>
<text text-anchor="start" x="227.88" y="-444.25" font-family="Helvetica,sans-Serif" font-size="10.00">+</text>
<text text-anchor="start" x="240" y="-444.25" font-family="Helvetica,sans-Serif" font-size="10.00">operator+()</text>
<text text-anchor="start" x="227.88" y="-428.25" font-family="Helvetica,sans-Serif" font-size="10.00">+</text>
<text text-anchor="start" x="240" y="-428.25" font-family="Helvetica,sans-Serif" font-size="10.00">operator+=()</text>
<text text-anchor="start" x="227.88" y="-412.25" font-family="Helvetica,sans-Serif" font-size="10.00">+</text>
<text text-anchor="start" x="240" y="-412.25" font-family="Helvetica,sans-Serif" font-size="10.00">operator&#45;()</text>
<text text-anchor="start" x="227.88" y="-396.25" font-family="Helvetica,sans-Serif" font-size="10.00">+</text>
<text text-anchor="start" x="240" y="-396.25" font-family="Helvetica,sans-Serif" font-size="10.00">operator&#45;()</text>
<polygon fill="#666666" stroke="#666666" points="224,-567.75 224,-567.75 309,-567.75 309,-567.75 224,-567.75"/>
<polygon fill="#666666" stroke="#666666" points="224,-519.75 224,-519.75 238,-519.75 238,-519.75 224,-519.75"/>
<polygon fill="#666666" stroke="#666666" points="238,-519.75 238,-519.75 309,-519.75 309,-519.75 238,-519.75"/>
<polygon fill="none" stroke="#666666" points="224,-389.75 224,-585.75 309,-585.75 309,-389.75 224,-389.75"/>
</a>
</g>
</g>
<!-- Node4&#45;&gt;Node2 -->
<g id="edge3_Node000002_Node000004" class="edge">
<title>Node4&#45;&gt;Node2</title>
<g id="a_edge3_Node000002_Node000004"><a xlink:title=" ">
<path fill="none" stroke="#63b8ff" d="M266.5,-390.07C266.5,-359.68 266.5,-326.54 266.5,-297.66"/>
<polygon fill="none" stroke="#63b8ff" points="266.5,-297.61 262.5,-291.61 266.5,-285.61 270.5,-291.61 266.5,-297.61"/>
</a>
</g>
<text text-anchor="middle" x="305.12" y="-306.25" font-family="Helvetica,sans-Serif" font-size="10.00" fill="grey"> +mBaseCenter</text>
</g>
<!-- Node5 -->
<g id="Node000005" class="node">
<title>Node5</title>
<g id="a_Node000005"><a xlink:title=" ">
<polygon fill="white" stroke="none" points="179,-513.75 142,-513.75 142,-461.75 179,-461.75 179,-513.75"/>
<text text-anchor="start" x="146.62" y="-500.25" font-family="Helvetica,sans-Serif" font-size="10.00">string</text>
<text text-anchor="start" x="159" y="-484.25" font-family="Helvetica,sans-Serif" font-size="10.00"> </text>
<text text-anchor="start" x="159" y="-468.25" font-family="Helvetica,sans-Serif" font-size="10.00"> </text>
<polygon fill="#666666" stroke="#666666" points="142,-495.75 142,-495.75 179,-495.75 179,-495.75 142,-495.75"/>
<polygon fill="#666666" stroke="#666666" points="142,-479.75 142,-479.75 179,-479.75 179,-479.75 142,-479.75"/>
<polygon fill="none" stroke="#666666" points="142,-461.75 142,-513.75 179,-513.75 179,-461.75 142,-461.75"/>
</a>
</g>
</g>
<!-- Node5&#45;&gt;Node1 -->
<g id="edge7_Node000001_Node000005" class="edge">
<title>Node5&#45;&gt;Node1</title>
<g id="a_edge7_Node000001_Node000005"><a xlink:title=" ">
<path fill="none" stroke="#63b8ff" d="M154.02,-461.87C140.4,-404.4 113.82,-259.26 161.5,-153 165.89,-143.21 171.86,-134.02 178.73,-125.51"/>
<polygon fill="none" stroke="#63b8ff" points="178.7,-125.55 179.63,-118.4 186.59,-116.51 185.66,-123.66 178.7,-125.55"/>
</a>
</g>
<text text-anchor="middle" x="182.5" y="-215.88" font-family="Helvetica,sans-Serif" font-size="10.00" fill="grey"> +mAxis</text>
</g>
<!-- Node5&#45;&gt;Node2 -->
<g id="edge4_Node000002_Node000005" class="edge">
<title>Node5&#45;&gt;Node2</title>
<g id="a_edge4_Node000002_Node000005"><a xlink:title=" ">
<path fill="none" stroke="#63b8ff" d="M161.43,-462.04C163.64,-425.56 171.13,-355.91 196.5,-303 199.16,-297.45 202.28,-291.96 205.7,-286.62"/>
<polygon fill="none" stroke="#63b8ff" points="205.79,-286.5 205.89,-279.29 212.58,-276.61 212.48,-283.82 205.79,-286.5"/>
</a>
</g>
<text text-anchor="middle" x="229.5" y="-306.25" font-family="Helvetica,sans-Serif" font-size="10.00" fill="grey"> +mBaseAxis</text>
</g>
<!-- Node6 -->
<g id="Node000006" class="node">
<title>Node6</title>
<g id="a_Node000006"><a xlink:title=" ">
<polygon fill="white" stroke="none" points="599.5,-520.25 491.5,-520.25 491.5,-455.25 599.5,-455.25 599.5,-520.25"/>
<text text-anchor="start" x="496.38" y="-506.75" font-family="Helvetica,sans-Serif" font-size="10.00">map&lt; string, math::</text>
<text text-anchor="start" x="496.38" y="-494" font-family="Helvetica,sans-Serif" font-size="10.00">Matrix&lt; double &gt; &gt;</text>
<text text-anchor="start" x="544" y="-477.75" font-family="Helvetica,sans-Serif" font-size="10.00"> </text>
<text text-anchor="start" x="544" y="-461.75" font-family="Helvetica,sans-Serif" font-size="10.00"> </text>
<polygon fill="#666666" stroke="#666666" points="491.5,-489.25 491.5,-489.25 599.5,-489.25 599.5,-489.25 491.5,-489.25"/>
<polygon fill="#666666" stroke="#666666" points="491.5,-473.25 491.5,-473.25 599.5,-473.25 599.5,-473.25 491.5,-473.25"/>
<polygon fill="none" stroke="#666666" points="491.5,-455.25 491.5,-520.25 599.5,-520.25 599.5,-455.25 491.5,-455.25"/>
</a>
</g>
</g>
<!-- Node6&#45;&gt;Node1 -->
<g id="edge9_Node000001_Node000006" class="edge">
<title>Node6&#45;&gt;Node1</title>
<g id="a_edge9_Node000001_Node000006"><a xlink:title=" ">
<path fill="none" stroke="#63b8ff" d="M554.97,-455.37C572.38,-390.73 601.47,-241.4 529.5,-153 487.93,-101.94 416.47,-78.6 358.52,-67.94"/>
<polygon fill="none" stroke="#63b8ff" points="358.71,-67.97 352.12,-70.9 346.88,-65.94 353.47,-63.02 358.71,-67.97"/>
</a>
</g>
<text text-anchor="middle" x="607.12" y="-215.88" font-family="Helvetica,sans-Serif" font-size="10.00" fill="grey"> +mAllMatrix</text>
</g>
<!-- Node6&#45;&gt;Node2 -->
<g id="edge5_Node000002_Node000006" class="edge">
<title>Node6&#45;&gt;Node2</title>
<g id="a_edge5_Node000002_Node000006"><a xlink:title=" ">
<path fill="none" stroke="#63b8ff" d="M535.3,-455.38C523.8,-422.92 502.91,-371.74 474.5,-333.75 439.31,-286.7 378.69,-256.76 331.95,-239.47"/>
<polygon fill="none" stroke="#63b8ff" points="331.93,-239.46 324.94,-241.22 320.63,-235.43 327.62,-233.68 331.93,-239.46"/>
</a>
</g>
<text text-anchor="middle" x="502.12" y="-306.25" font-family="Helvetica,sans-Serif" font-size="10.00" fill="grey"> +mBaseAllMatrix</text>
</g>
<!-- Node7 -->
<g id="Node000007" class="node">
<title>Node7</title>
<g id="a_Node000007"><a xlink:href="classmath_1_1Vector3D.html" target="_top" xlink:title="Représente un vecteur 3D avec des opérations vectorielles de base.">
<polygon fill="white" stroke="none" points="465,-617.75 380,-617.75 380,-357.75 465,-357.75 465,-617.75"/>
<text text-anchor="start" x="384.62" y="-604.25" font-family="Helvetica,sans-Serif" font-size="10.00">math::Vector3D</text>
<text text-anchor="start" x="383.88" y="-588.25" font-family="Helvetica,sans-Serif" font-size="10.00">+</text>
<text text-anchor="start" x="396" y="-588.25" font-family="Helvetica,sans-Serif" font-size="10.00">mX</text>
<text text-anchor="start" x="383.88" y="-572.25" font-family="Helvetica,sans-Serif" font-size="10.00">+</text>
<text text-anchor="start" x="396" y="-572.25" font-family="Helvetica,sans-Serif" font-size="10.00">mY</text>
<text text-anchor="start" x="383.88" y="-556.25" font-family="Helvetica,sans-Serif" font-size="10.00">+</text>
<text text-anchor="start" x="396" y="-556.25" font-family="Helvetica,sans-Serif" font-size="10.00">mZ</text>
<text text-anchor="start" x="383.88" y="-540.25" font-family="Helvetica,sans-Serif" font-size="10.00">+</text>
<text text-anchor="start" x="396" y="-540.25" font-family="Helvetica,sans-Serif" font-size="10.00">Vector3D()</text>
<text text-anchor="start" x="383.88" y="-524.25" font-family="Helvetica,sans-Serif" font-size="10.00">+</text>
<text text-anchor="start" x="396" y="-524.25" font-family="Helvetica,sans-Serif" font-size="10.00">Vector3D()</text>
<text text-anchor="start" x="383.88" y="-508.25" font-family="Helvetica,sans-Serif" font-size="10.00">+</text>
<text text-anchor="start" x="396" y="-508.25" font-family="Helvetica,sans-Serif" font-size="10.00">~Vector3D()</text>
<text text-anchor="start" x="383.88" y="-492.25" font-family="Helvetica,sans-Serif" font-size="10.00">+</text>
<text text-anchor="start" x="396" y="-492.25" font-family="Helvetica,sans-Serif" font-size="10.00">length()</text>
<text text-anchor="start" x="383.88" y="-476.25" font-family="Helvetica,sans-Serif" font-size="10.00">+</text>
<text text-anchor="start" x="396" y="-476.25" font-family="Helvetica,sans-Serif" font-size="10.00">dot()</text>
<text text-anchor="start" x="383.88" y="-460.25" font-family="Helvetica,sans-Serif" font-size="10.00">+</text>
<text text-anchor="start" x="396" y="-460.25" font-family="Helvetica,sans-Serif" font-size="10.00">operator+()</text>
<text text-anchor="start" x="383.88" y="-444.25" font-family="Helvetica,sans-Serif" font-size="10.00">+</text>
<text text-anchor="start" x="396" y="-444.25" font-family="Helvetica,sans-Serif" font-size="10.00">operator+=()</text>
<text text-anchor="start" x="383.88" y="-428.25" font-family="Helvetica,sans-Serif" font-size="10.00">+</text>
<text text-anchor="start" x="396" y="-428.25" font-family="Helvetica,sans-Serif" font-size="10.00">operator&#45;()</text>
<text text-anchor="start" x="383.88" y="-412.25" font-family="Helvetica,sans-Serif" font-size="10.00">+</text>
<text text-anchor="start" x="396" y="-412.25" font-family="Helvetica,sans-Serif" font-size="10.00">operator&#45;=()</text>
<text text-anchor="start" x="383.88" y="-396.25" font-family="Helvetica,sans-Serif" font-size="10.00">+</text>
<text text-anchor="start" x="396" y="-396.25" font-family="Helvetica,sans-Serif" font-size="10.00">operator*()</text>
<text text-anchor="start" x="396" y="-380.25" font-family="Helvetica,sans-Serif" font-size="10.00">and 9 more...</text>
<text text-anchor="start" x="383.88" y="-364.25" font-family="Helvetica,sans-Serif" font-size="10.00">+</text>
<text text-anchor="start" x="396" y="-364.25" font-family="Helvetica,sans-Serif" font-size="10.00">normalize()</text>
<polygon fill="#666666" stroke="#666666" points="380,-599.75 380,-599.75 465,-599.75 465,-599.75 380,-599.75"/>
<polygon fill="#666666" stroke="#666666" points="380,-551.75 380,-551.75 394,-551.75 394,-551.75 380,-551.75"/>
<polygon fill="#666666" stroke="#666666" points="394,-551.75 394,-551.75 465,-551.75 465,-551.75 394,-551.75"/>
<polygon fill="none" stroke="#666666" points="380,-357.75 380,-617.75 465,-617.75 465,-357.75 380,-357.75"/>
</a>
</g>
</g>
<!-- Node7&#45;&gt;Node1 -->
<g id="edge10_Node000001_Node000007" class="edge">
<title>Node7&#45;&gt;Node1</title>
<g id="a_edge10_Node000001_Node000007"><a xlink:title=" ">
<path fill="none" stroke="#63b8ff" d="M447.39,-357.81C447.27,-339.16 445.04,-320.4 439.5,-303 418.14,-235.93 370.89,-171.48 331.16,-125.67"/>
<polygon fill="none" stroke="#63b8ff" points="331.08,-125.58 324.11,-123.72 323.15,-116.57 330.12,-118.43 331.08,-125.58"/>
</a>
</g>
<text text-anchor="middle" x="479" y="-215.88" font-family="Helvetica,sans-Serif" font-size="10.00" fill="grey"> +mVectorRotation</text>
</g>
<!-- Node7&#45;&gt;Node2 -->
<g id="edge6_Node000002_Node000007" class="edge">
<title>Node7&#45;&gt;Node2</title>
<g id="a_edge6_Node000002_Node000007"><a xlink:title=" ">
<path fill="none" stroke="#63b8ff" d="M380.01,-369.37C369.76,-346.59 357.85,-323.47 344.5,-303 339.6,-295.48 333.98,-288.03 328.06,-280.84"/>
<polygon fill="none" stroke="#63b8ff" points="328.23,-281.03 321.29,-279.07 320.42,-271.91 327.37,-273.87 328.23,-281.03"/>
</a>
</g>
<text text-anchor="middle" x="392.62" y="-306.25" font-family="Helvetica,sans-Serif" font-size="10.00" fill="grey"> +mBaseRotation</text>
</g>
</g>
</svg>
