<?xml version="1.0" encoding="UTF-8" standalone="no"?>
<!DOCTYPE svg PUBLIC "-//W3C//DTD SVG 1.1//EN"
 "http://www.w3.org/Graphics/SVG/1.1/DTD/svg11.dtd">
<!-- Generated by graphviz version 8.1.0 (20230707.0739)
 -->
<!-- Title: operator&lt;&lt; Pages: 1 -->
<svg width="239pt" height="107pt"
 viewBox="0.00 0.00 238.75 106.75" xmlns="http://www.w3.org/2000/svg" xmlns:xlink="http://www.w3.org/1999/xlink">
<g id="graph0" class="graph" transform="scale(1 1) rotate(0) translate(4 102.75)">
<title>operator&lt;&lt;</title>
<!-- Node1 -->
<g id="Node000001" class="node">
<title>Node1</title>
<g id="a_Node000001"><a xlink:title=" ">
<polygon fill="#999999" stroke="#666666" points="73.75,-59.75 0,-59.75 0,-39 73.75,-39 73.75,-59.75"/>
<text text-anchor="middle" x="36.88" y="-46.25" font-family="Helvetica,sans-Serif" font-size="10.00">operator&lt;&lt;</text>
</a>
</g>
</g>
<!-- Node2 -->
<g id="Node000002" class="node">
<title>Node2</title>
<g id="a_Node000002"><a xlink:href="classraytracer_1_1Color.html#a22e077d8468e9f9006e37389372f3501" target="_top" xlink:title=" ">
<polygon fill="white" stroke="#666666" points="230.38,-98.75 110.12,-98.75 110.12,-78 230.38,-78 230.38,-98.75"/>
<text text-anchor="middle" x="170.25" y="-85.25" font-family="Helvetica,sans-Serif" font-size="10.00">raytracer::Color::getB</text>
</a>
</g>
</g>
<!-- Node1&#45;&gt;Node2 -->
<g id="edge1_Node000001_Node000002" class="edge">
<title>Node1&#45;&gt;Node2</title>
<g id="a_edge1_Node000001_Node000002"><a xlink:title=" ">
<path fill="none" stroke="#63b8ff" d="M74.12,-60.14C89.07,-64.57 106.59,-69.77 122.49,-74.49"/>
<polygon fill="#63b8ff" stroke="#63b8ff" points="121.08,-78.02 131.67,-77.51 123.08,-71.31 121.08,-78.02"/>
</a>
</g>
</g>
<!-- Node3 -->
<g id="Node000003" class="node">
<title>Node3</title>
<g id="a_Node000003"><a xlink:href="classraytracer_1_1Color.html#a4002ae54e8836e8f8b506ff2ef4fa9a2" target="_top" xlink:title=" ">
<polygon fill="white" stroke="#666666" points="230.75,-59.75 109.75,-59.75 109.75,-39 230.75,-39 230.75,-59.75"/>
<text text-anchor="middle" x="170.25" y="-46.25" font-family="Helvetica,sans-Serif" font-size="10.00">raytracer::Color::getG</text>
</a>
</g>
</g>
<!-- Node1&#45;&gt;Node3 -->
<g id="edge2_Node000001_Node000003" class="edge">
<title>Node1&#45;&gt;Node3</title>
<g id="a_edge2_Node000001_Node000003"><a xlink:title=" ">
<path fill="none" stroke="#63b8ff" d="M74.12,-49.38C81.81,-49.38 90.18,-49.38 98.66,-49.38"/>
<polygon fill="#63b8ff" stroke="#63b8ff" points="98.41,-52.88 108.41,-49.38 98.41,-45.88 98.41,-52.88"/>
</a>
</g>
</g>
<!-- Node4 -->
<g id="Node000004" class="node">
<title>Node4</title>
<g id="a_Node000004"><a xlink:href="classraytracer_1_1Color.html#aa32ae9b17373389db6c03fda0d90c87a" target="_top" xlink:title=" ">
<polygon fill="white" stroke="#666666" points="230.38,-20.75 110.12,-20.75 110.12,0 230.38,0 230.38,-20.75"/>
<text text-anchor="middle" x="170.25" y="-7.25" font-family="Helvetica,sans-Serif" font-size="10.00">raytracer::Color::getR</text>
</a>
</g>
</g>
<!-- Node1&#45;&gt;Node4 -->
<g id="edge3_Node000001_Node000004" class="edge">
<title>Node1&#45;&gt;Node4</title>
<g id="a_edge3_Node000001_Node000004"><a xlink:title=" ">
<path fill="none" stroke="#63b8ff" d="M74.12,-38.61C89.07,-34.18 106.59,-28.98 122.49,-24.26"/>
<polygon fill="#63b8ff" stroke="#63b8ff" points="123.08,-27.44 131.67,-21.24 121.08,-20.73 123.08,-27.44"/>
</a>
</g>
</g>
</g>
</svg>
