<?xml version="1.0" encoding="UTF-8" standalone="no"?>
<!DOCTYPE svg PUBLIC "-//W3C//DTD SVG 1.1//EN"
 "http://www.w3.org/Graphics/SVG/1.1/DTD/svg11.dtd">
<!-- Generated by graphviz version 8.1.0 (20230707.0739)
 -->
<!-- Title: src/primitives/cylinder/Cylinder.hpp Pages: 1 -->
<svg width="611pt" height="294pt"
 viewBox="0.00 0.00 611.00 294.00" xmlns="http://www.w3.org/2000/svg" xmlns:xlink="http://www.w3.org/1999/xlink">
<g id="graph0" class="graph" transform="scale(1 1) rotate(0) translate(4 290)">
<title>src/primitives/cylinder/Cylinder.hpp</title>
<!-- Node1 -->
<g id="Node000001" class="node">
<title>Node1</title>
<g id="a_Node000001"><a xlink:title=" ">
<polygon fill="#999999" stroke="#666666" points="398,-286 273.25,-286 273.25,-252.5 398,-252.5 398,-286"/>
<text text-anchor="start" x="281.25" y="-272.5" font-family="Helvetica,sans-Serif" font-size="10.00">src/primitives/cylinder</text>
<text text-anchor="middle" x="335.62" y="-259.75" font-family="Helvetica,sans-Serif" font-size="10.00">/Cylinder.hpp</text>
</a>
</g>
</g>
<!-- Node2 -->
<g id="Node000002" class="node">
<title>Node2</title>
<g id="a_Node000002"><a xlink:href="Factory_8hpp.html" target="_top" xlink:title=" ">
<polygon fill="white" stroke="#666666" points="259.25,-216.5 130,-216.5 130,-183 259.25,-183 259.25,-216.5"/>
<text text-anchor="start" x="138" y="-203" font-family="Helvetica,sans-Serif" font-size="10.00">src/core/designPatterns</text>
<text text-anchor="middle" x="194.62" y="-190.25" font-family="Helvetica,sans-Serif" font-size="10.00">/Factory.hpp</text>
</a>
</g>
</g>
<!-- Node1&#45;&gt;Node2 -->
<g id="edge1_Node000001_Node000002" class="edge">
<title>Node1&#45;&gt;Node2</title>
<g id="a_edge1_Node000001_Node000002"><a xlink:title=" ">
<path fill="none" stroke="#63b8ff" d="M292.07,-247.4C271.47,-237.54 247.26,-225.95 228.12,-216.79"/>
<polygon fill="#63b8ff" stroke="#63b8ff" points="290.32,-250.92 300.85,-252.08 293.34,-244.61 290.32,-250.92"/>
</a>
</g>
</g>
<!-- Node10 -->
<g id="Node000010" class="node">
<title>Node10</title>
<g id="a_Node000010"><a xlink:href="Parser_8hpp.html" target="_top" xlink:title=" ">
<polygon fill="white" stroke="#666666" points="394.25,-210.12 277,-210.12 277,-189.38 394.25,-189.38 394.25,-210.12"/>
<text text-anchor="middle" x="335.62" y="-196.62" font-family="Helvetica,sans-Serif" font-size="10.00">src/parser/Parser.hpp</text>
</a>
</g>
</g>
<!-- Node1&#45;&gt;Node10 -->
<g id="edge9_Node000001_Node000010" class="edge">
<title>Node1&#45;&gt;Node10</title>
<g id="a_edge9_Node000001_Node000010"><a xlink:title=" ">
<path fill="none" stroke="#63b8ff" d="M335.62,-241.47C335.62,-230.58 335.62,-218.68 335.62,-210.57"/>
<polygon fill="#63b8ff" stroke="#63b8ff" points="332.13,-241.25 335.62,-251.25 339.13,-241.25 332.13,-241.25"/>
</a>
</g>
</g>
<!-- Node12 -->
<g id="Node000012" class="node">
<title>Node12</title>
<g id="a_Node000012"><a xlink:href="Cylinder_8cpp.html" target="_top" xlink:title=" ">
<polygon fill="white" stroke="#666666" points="537,-216.5 412.25,-216.5 412.25,-183 537,-183 537,-216.5"/>
<text text-anchor="start" x="420.25" y="-203" font-family="Helvetica,sans-Serif" font-size="10.00">src/primitives/cylinder</text>
<text text-anchor="middle" x="474.62" y="-190.25" font-family="Helvetica,sans-Serif" font-size="10.00">/Cylinder.cpp</text>
</a>
</g>
</g>
<!-- Node1&#45;&gt;Node12 -->
<g id="edge14_Node000001_Node000012" class="edge">
<title>Node1&#45;&gt;Node12</title>
<g id="a_edge14_Node000001_Node000012"><a xlink:title=" ">
<path fill="none" stroke="#63b8ff" d="M378.56,-247.4C398.87,-237.54 422.74,-225.95 441.6,-216.79"/>
<polygon fill="#63b8ff" stroke="#63b8ff" points="377.39,-244.57 369.92,-252.08 380.44,-250.86 377.39,-244.57"/>
</a>
</g>
</g>
<!-- Node3 -->
<g id="Node000003" class="node">
<title>Node3</title>
<g id="a_Node000003"><a xlink:href="Factory_8cpp.html" target="_top" xlink:title=" ">
<polygon fill="white" stroke="#666666" points="129.25,-147 0,-147 0,-113.5 129.25,-113.5 129.25,-147"/>
<text text-anchor="start" x="8" y="-133.5" font-family="Helvetica,sans-Serif" font-size="10.00">src/core/designPatterns</text>
<text text-anchor="middle" x="64.62" y="-120.75" font-family="Helvetica,sans-Serif" font-size="10.00">/Factory.cpp</text>
</a>
</g>
</g>
<!-- Node2&#45;&gt;Node3 -->
<g id="edge2_Node000002_Node000003" class="edge">
<title>Node2&#45;&gt;Node3</title>
<g id="a_edge2_Node000002_Node000003"><a xlink:title=" ">
<path fill="none" stroke="#63b8ff" d="M153.95,-177.63C135.07,-167.83 112.99,-156.36 95.51,-147.29"/>
<polygon fill="#63b8ff" stroke="#63b8ff" points="152,-181.08 162.49,-182.58 155.22,-174.87 152,-181.08"/>
</a>
</g>
</g>
<!-- Node4 -->
<g id="Node000004" class="node">
<title>Node4</title>
<g id="a_Node000004"><a xlink:href="src_2core_2scene_2Scene_8hpp.html" target="_top" xlink:title=" ">
<polygon fill="white" stroke="#666666" points="286.12,-140.62 147.12,-140.62 147.12,-119.88 286.12,-119.88 286.12,-140.62"/>
<text text-anchor="middle" x="216.62" y="-127.12" font-family="Helvetica,sans-Serif" font-size="10.00">src/core/scene/Scene.hpp</text>
</a>
</g>
</g>
<!-- Node2&#45;&gt;Node4 -->
<g id="edge3_Node000002_Node000004" class="edge">
<title>Node2&#45;&gt;Node4</title>
<g id="a_edge3_Node000002_Node000004"><a xlink:title=" ">
<path fill="none" stroke="#63b8ff" d="M203.24,-172.32C206.82,-161.33 210.75,-149.27 213.42,-141.07"/>
<polygon fill="#63b8ff" stroke="#63b8ff" points="199.61,-171.16 199.84,-181.75 206.27,-173.33 199.61,-171.16"/>
</a>
</g>
</g>
<!-- Node5 -->
<g id="Node000005" class="node">
<title>Node5</title>
<g id="a_Node000005"><a xlink:href="RayTracer_8hpp.html" target="_top" xlink:title=" ">
<polygon fill="white" stroke="#666666" points="538.38,-77.5 412.88,-77.5 412.88,-56.75 538.38,-56.75 538.38,-77.5"/>
<text text-anchor="middle" x="475.62" y="-64" font-family="Helvetica,sans-Serif" font-size="10.00">src/core/RayTracer.hpp</text>
</a>
</g>
</g>
<!-- Node4&#45;&gt;Node5 -->
<g id="edge4_Node000004_Node000005" class="edge">
<title>Node4&#45;&gt;Node5</title>
<g id="a_edge4_Node000004_Node000005"><a xlink:title=" ">
<path fill="none" stroke="#63b8ff" d="M268.87,-116.92C317.56,-105.43 389.22,-88.52 434.12,-77.92"/>
<polygon fill="#63b8ff" stroke="#63b8ff" points="268.17,-113.73 259.24,-119.43 269.77,-120.54 268.17,-113.73"/>
</a>
</g>
</g>
<!-- Node8 -->
<g id="Node000008" class="node">
<title>Node8</title>
<g id="a_Node000008"><a xlink:href="Image_8cpp.html" target="_top" xlink:title="Implémentation des méthodes de la classe Image pour gestion d&#39;image et affichage.">
<polygon fill="white" stroke="#666666" points="384.5,-77.5 244.75,-77.5 244.75,-56.75 384.5,-56.75 384.5,-77.5"/>
<text text-anchor="middle" x="314.62" y="-64" font-family="Helvetica,sans-Serif" font-size="10.00">src/core/scene/Image.cpp</text>
</a>
</g>
</g>
<!-- Node4&#45;&gt;Node8 -->
<g id="edge7_Node000004_Node000008" class="edge">
<title>Node4&#45;&gt;Node8</title>
<g id="a_edge7_Node000004_Node000008"><a xlink:title=" ">
<path fill="none" stroke="#63b8ff" d="M241.21,-113.92C259.3,-102.63 283.36,-87.63 298.92,-77.92"/>
<polygon fill="#63b8ff" stroke="#63b8ff" points="240,-111.17 233.37,-119.43 243.71,-117.11 240,-111.17"/>
</a>
</g>
</g>
<!-- Node9 -->
<g id="Node000009" class="node">
<title>Node9</title>
<g id="a_Node000009"><a xlink:href="Scene_8cpp.html" target="_top" xlink:title=" ">
<polygon fill="white" stroke="#666666" points="226.75,-77.5 88.5,-77.5 88.5,-56.75 226.75,-56.75 226.75,-77.5"/>
<text text-anchor="middle" x="157.62" y="-64" font-family="Helvetica,sans-Serif" font-size="10.00">src/core/scene/Scene.cpp</text>
</a>
</g>
</g>
<!-- Node4&#45;&gt;Node9 -->
<g id="edge8_Node000004_Node000009" class="edge">
<title>Node4&#45;&gt;Node9</title>
<g id="a_edge8_Node000004_Node000009"><a xlink:title=" ">
<path fill="none" stroke="#63b8ff" d="M199.63,-111.65C188.97,-100.6 175.64,-86.79 166.89,-77.72"/>
<polygon fill="#63b8ff" stroke="#63b8ff" points="196.68,-113.66 206.15,-118.43 201.72,-108.8 196.68,-113.66"/>
</a>
</g>
</g>
<!-- Node6 -->
<g id="Node000006" class="node">
<title>Node6</title>
<g id="a_Node000006"><a xlink:href="Main_8cpp.html" target="_top" xlink:title=" ">
<polygon fill="white" stroke="#666666" points="460.38,-20.75 358.88,-20.75 358.88,0 460.38,0 460.38,-20.75"/>
<text text-anchor="middle" x="409.62" y="-7.25" font-family="Helvetica,sans-Serif" font-size="10.00">src/core/Main.cpp</text>
</a>
</g>
</g>
<!-- Node5&#45;&gt;Node6 -->
<g id="edge5_Node000005_Node000006" class="edge">
<title>Node5&#45;&gt;Node6</title>
<g id="a_edge5_Node000005_Node000006"><a xlink:title=" ">
<path fill="none" stroke="#63b8ff" d="M455.48,-49.41C444.29,-40.13 430.77,-28.92 421.32,-21.08"/>
<polygon fill="#63b8ff" stroke="#63b8ff" points="452.89,-52.65 462.83,-56.34 457.36,-47.26 452.89,-52.65"/>
</a>
</g>
</g>
<!-- Node7 -->
<g id="Node000007" class="node">
<title>Node7</title>
<g id="a_Node000007"><a xlink:href="RayTracer_8cpp.html" target="_top" xlink:title=" ">
<polygon fill="white" stroke="#666666" points="603,-20.75 478.25,-20.75 478.25,0 603,0 603,-20.75"/>
<text text-anchor="middle" x="540.62" y="-7.25" font-family="Helvetica,sans-Serif" font-size="10.00">src/core/RayTracer.cpp</text>
</a>
</g>
</g>
<!-- Node5&#45;&gt;Node7 -->
<g id="edge6_Node000005_Node000007" class="edge">
<title>Node5&#45;&gt;Node7</title>
<g id="a_edge6_Node000005_Node000007"><a xlink:title=" ">
<path fill="none" stroke="#63b8ff" d="M495.47,-49.41C506.48,-40.13 519.8,-28.92 529.1,-21.08"/>
<polygon fill="#63b8ff" stroke="#63b8ff" points="493.64,-47.22 488.25,-56.34 498.15,-52.57 493.64,-47.22"/>
</a>
</g>
</g>
<!-- Node10&#45;&gt;Node4 -->
<g id="edge12_Node000010_Node000004" class="edge">
<title>Node10&#45;&gt;Node4</title>
<g id="a_edge12_Node000010_Node000004"><a xlink:title=" ">
<path fill="none" stroke="#63b8ff" d="M308.84,-183.55C285.92,-170.56 253.61,-152.23 233.95,-141.08"/>
<polygon fill="#63b8ff" stroke="#63b8ff" points="306.9,-187.05 317.32,-188.93 310.35,-180.96 306.9,-187.05"/>
</a>
</g>
</g>
<!-- Node10&#45;&gt;Node5 -->
<g id="edge10_Node000010_Node000005" class="edge">
<title>Node10&#45;&gt;Node5</title>
<g id="a_edge10_Node000010_Node000005"><a xlink:title=" ">
<path fill="none" stroke="#63b8ff" d="M383.22,-185.79C416.53,-175.71 456.92,-161.11 467.62,-147 483.18,-126.5 480.28,-93.86 477.59,-77.76"/>
<polygon fill="#63b8ff" stroke="#63b8ff" points="382.29,-182.71 373.7,-188.9 384.28,-189.42 382.29,-182.71"/>
</a>
</g>
</g>
<!-- Node10&#45;&gt;Node8 -->
<g id="edge11_Node000010_Node000008" class="edge">
<title>Node10&#45;&gt;Node8</title>
<g id="a_edge11_Node000010_Node000008"><a xlink:title=" ">
<path fill="none" stroke="#63b8ff" d="M332.31,-178.16C327.71,-149.5 319.55,-98.76 316.16,-77.7"/>
<polygon fill="#63b8ff" stroke="#63b8ff" points="329,-178.61 334.05,-187.93 335.91,-177.5 329,-178.61"/>
</a>
</g>
</g>
<!-- Node11 -->
<g id="Node000011" class="node">
<title>Node11</title>
<g id="a_Node000011"><a xlink:href="Parser_8cpp.html" target="_top" xlink:title="Implémentation des fonctions de parsing des configurations pour la caméra, primitives,...">
<polygon fill="white" stroke="#666666" points="458.88,-140.62 342.38,-140.62 342.38,-119.88 458.88,-119.88 458.88,-140.62"/>
<text text-anchor="middle" x="400.62" y="-127.12" font-family="Helvetica,sans-Serif" font-size="10.00">src/parser/Parser.cpp</text>
</a>
</g>
</g>
<!-- Node10&#45;&gt;Node11 -->
<g id="edge13_Node000010_Node000011" class="edge">
<title>Node10&#45;&gt;Node11</title>
<g id="a_edge13_Node000010_Node000011"><a xlink:title=" ">
<path fill="none" stroke="#63b8ff" d="M352.39,-181.34C364.79,-168.47 381.2,-151.42 391.33,-140.9"/>
<polygon fill="#63b8ff" stroke="#63b8ff" points="350.35,-178.45 345.94,-188.08 355.4,-183.3 350.35,-178.45"/>
</a>
</g>
</g>
</g>
</svg>
