<?xml version="1.0" encoding="UTF-8" standalone="no"?>
<!DOCTYPE svg PUBLIC "-//W3C//DTD SVG 1.1//EN"
 "http://www.w3.org/Graphics/SVG/1.1/DTD/svg11.dtd">
<!-- Generated by graphviz version 8.1.0 (20230707.0739)
 -->
<!-- Title: src Pages: 1 -->
<svg width="141pt" height="288pt"
 viewBox="0.00 0.00 141.00 287.75" xmlns="http://www.w3.org/2000/svg" xmlns:xlink="http://www.w3.org/1999/xlink">
<g id="graph0" class="graph" transform="scale(1 1) rotate(0) translate(4 283.75)">
<title>src</title>
<g id="clust1" class="cluster">
<title>clusterdir_68267d1309a1af8e8297ef4c3efbcdba</title>
<g id="a_clust1"><a xlink:href="dir_68267d1309a1af8e8297ef4c3efbcdba.html" target="_top">
<polygon fill="#edf0f7" stroke="#404040" stroke-width="2" points="8,-8 8,-271.75 125,-271.75 125,-8 8,-8"/>
</a>
</g>
</g>
<!-- dir_68267d1309a1af8e8297ef4c3efbcdba -->
<g id="node1" class="node">
<title>dir_68267d1309a1af8e8297ef4c3efbcdba</title>
<text text-anchor="middle" x="102" y="-250.25" font-family="Helvetica,sans-Serif" font-size="10.00">src</text>
</g>
<!-- dir_34519bff5ae72130fe71a8620cbf1fc0 -->
<g id="node2" class="node">
<title>dir_34519bff5ae72130fe71a8620cbf1fc0</title>
<g id="a_node2"><a xlink:href="dir_34519bff5ae72130fe71a8620cbf1fc0.html" target="_top" xlink:title="camera">
<polygon fill="#a2b4d6" stroke="#404040" points="68.38,-263.75 15.62,-263.75 15.62,-243 68.38,-243 68.38,-263.75"/>
<text text-anchor="middle" x="42" y="-250.25" font-family="Helvetica,sans-Serif" font-size="10.00">camera</text>
</a>
</g>
</g>
<!-- dir_aebb8dcc11953d78e620bbef0b9e2183 -->
<g id="node3" class="node">
<title>dir_aebb8dcc11953d78e620bbef0b9e2183</title>
<g id="a_node3"><a xlink:href="dir_aebb8dcc11953d78e620bbef0b9e2183.html" target="_top" xlink:title="core">
<polygon fill="#a2b4d6" stroke="#404040" points="60.5,-207 23.5,-207 23.5,-186.25 60.5,-186.25 60.5,-207"/>
<text text-anchor="middle" x="42" y="-193.5" font-family="Helvetica,sans-Serif" font-size="10.00">core</text>
</a>
</g>
</g>
<!-- dir_34519bff5ae72130fe71a8620cbf1fc0&#45;&gt;dir_aebb8dcc11953d78e620bbef0b9e2183 -->
<g id="edge1" class="edge">
<title>dir_34519bff5ae72130fe71a8620cbf1fc0&#45;&gt;dir_aebb8dcc11953d78e620bbef0b9e2183</title>
<path fill="none" stroke="#63b8ff" d="M36.68,-242.59C35.38,-235.81 34.97,-226.55 35.44,-218.19"/>
<polygon fill="#63b8ff" stroke="#63b8ff" points="39.02,-218.67 36.7,-208.33 32.07,-217.86 39.02,-218.67"/>
<g id="a_edge1&#45;headlabel"><a xlink:href="dir_000000_000002.html" target="_top" xlink:title="6">
<text text-anchor="middle" x="41.43" y="-218.44" font-family="Helvetica,sans-Serif" font-size="10.00" fill="#63b8ff">6</text>
</a>
</g>
</g>
<!-- dir_aebb8dcc11953d78e620bbef0b9e2183&#45;&gt;dir_34519bff5ae72130fe71a8620cbf1fc0 -->
<g id="edge5" class="edge">
<title>dir_aebb8dcc11953d78e620bbef0b9e2183&#45;&gt;dir_34519bff5ae72130fe71a8620cbf1fc0</title>
<path fill="none" stroke="#63b8ff" d="M47.3,-207.33C48.61,-214.08 49.03,-223.34 48.57,-231.71"/>
<polygon fill="#63b8ff" stroke="#63b8ff" points="44.98,-231.25 47.32,-241.59 51.94,-232.05 44.98,-231.25"/>
<g id="a_edge5&#45;headlabel"><a xlink:href="dir_000002_000000.html" target="_top" xlink:title="1">
<text text-anchor="middle" x="42.57" y="-225.23" font-family="Helvetica,sans-Serif" font-size="10.00" fill="#63b8ff">1</text>
</a>
</g>
</g>
<!-- dir_a3b115caa7a87d931f1eb67e366235d9 -->
<g id="node4" class="node">
<title>dir_a3b115caa7a87d931f1eb67e366235d9</title>
<g id="a_node4"><a xlink:href="dir_a3b115caa7a87d931f1eb67e366235d9.html" target="_top" xlink:title="lights">
<polygon fill="#a2b4d6" stroke="#404040" points="81.5,-93.5 38.5,-93.5 38.5,-72.75 81.5,-72.75 81.5,-93.5"/>
<text text-anchor="middle" x="60" y="-80" font-family="Helvetica,sans-Serif" font-size="10.00">lights</text>
</a>
</g>
</g>
<!-- dir_aebb8dcc11953d78e620bbef0b9e2183&#45;&gt;dir_a3b115caa7a87d931f1eb67e366235d9 -->
<g id="edge3" class="edge">
<title>dir_aebb8dcc11953d78e620bbef0b9e2183&#45;&gt;dir_a3b115caa7a87d931f1eb67e366235d9</title>
<path fill="none" stroke="#63b8ff" d="M37.24,-185.75C36.29,-172.82 39.74,-149.44 43,-129.5 44.35,-121.23 45.94,-112.12 47.96,-104.25"/>
<polygon fill="#63b8ff" stroke="#63b8ff" points="51.57,-105.44 51.25,-94.85 44.9,-103.33 51.57,-105.44"/>
<g id="a_edge3&#45;headlabel"><a xlink:href="dir_000002_000008.html" target="_top" xlink:title="4">
<text text-anchor="middle" x="53.19" y="-105.6" font-family="Helvetica,sans-Serif" font-size="10.00" fill="#63b8ff">4</text>
</a>
</g>
</g>
<!-- dir_6cd8491d143eb218b70983dbdb3c58bc -->
<g id="node5" class="node">
<title>dir_6cd8491d143eb218b70983dbdb3c58bc</title>
<g id="a_node5"><a xlink:href="dir_6cd8491d143eb218b70983dbdb3c58bc.html" target="_top" xlink:title="parser">
<polygon fill="#a2b4d6" stroke="#404040" points="107.38,-150.25 60.62,-150.25 60.62,-129.5 107.38,-129.5 107.38,-150.25"/>
<text text-anchor="middle" x="84" y="-136.75" font-family="Helvetica,sans-Serif" font-size="10.00">parser</text>
</a>
</g>
</g>
<!-- dir_aebb8dcc11953d78e620bbef0b9e2183&#45;&gt;dir_6cd8491d143eb218b70983dbdb3c58bc -->
<g id="edge2" class="edge">
<title>dir_aebb8dcc11953d78e620bbef0b9e2183&#45;&gt;dir_6cd8491d143eb218b70983dbdb3c58bc</title>
<path fill="none" stroke="#63b8ff" d="M49.51,-185.84C55.18,-178.44 63.14,-168.07 69.97,-159.16"/>
<polygon fill="#63b8ff" stroke="#63b8ff" points="73.25,-161.64 76.56,-151.58 67.69,-157.38 73.25,-161.64"/>
<g id="a_edge2&#45;headlabel"><a xlink:href="dir_000002_000010.html" target="_top" xlink:title="3">
<text text-anchor="middle" x="73.31" y="-162.1" font-family="Helvetica,sans-Serif" font-size="10.00" fill="#63b8ff">3</text>
</a>
</g>
</g>
<!-- dir_bbf56bce9985720f86fc476f3812db24 -->
<g id="node6" class="node">
<title>dir_bbf56bce9985720f86fc476f3812db24</title>
<g id="a_node6"><a xlink:href="dir_bbf56bce9985720f86fc476f3812db24.html" target="_top" xlink:title="primitives">
<polygon fill="#a2b4d6" stroke="#404040" points="86.75,-36.75 21.25,-36.75 21.25,-16 86.75,-16 86.75,-36.75"/>
<text text-anchor="middle" x="54" y="-23.25" font-family="Helvetica,sans-Serif" font-size="10.00">primitives</text>
</a>
</g>
</g>
<!-- dir_aebb8dcc11953d78e620bbef0b9e2183&#45;&gt;dir_bbf56bce9985720f86fc476f3812db24 -->
<g id="edge4" class="edge">
<title>dir_aebb8dcc11953d78e620bbef0b9e2183&#45;&gt;dir_bbf56bce9985720f86fc476f3812db24</title>
<path fill="none" stroke="#63b8ff" d="M33.84,-185.9C22.98,-164.89 9.42,-113.88 20,-72.75 22.45,-63.23 27.36,-53.58 32.89,-45.63"/>
<polygon fill="#63b8ff" stroke="#63b8ff" points="36.09,-48.22 39.54,-38.2 30.6,-43.88 36.09,-48.22"/>
<g id="a_edge4&#45;headlabel"><a xlink:href="dir_000002_000014.html" target="_top" xlink:title="6">
<text text-anchor="middle" x="36.09" y="-48.67" font-family="Helvetica,sans-Serif" font-size="10.00" fill="#63b8ff">6</text>
</a>
</g>
</g>
<!-- dir_a3b115caa7a87d931f1eb67e366235d9&#45;&gt;dir_aebb8dcc11953d78e620bbef0b9e2183 -->
<g id="edge6" class="edge">
<title>dir_a3b115caa7a87d931f1eb67e366235d9&#45;&gt;dir_aebb8dcc11953d78e620bbef0b9e2183</title>
<path fill="none" stroke="#63b8ff" d="M65.18,-93.85C65.55,-103.03 63.02,-117.19 61,-129.5 58.48,-144.92 55.84,-162.4 52.6,-175.52"/>
<polygon fill="#63b8ff" stroke="#63b8ff" points="49.06,-174.17 49.59,-184.75 55.77,-176.15 49.06,-174.17"/>
<g id="a_edge6&#45;headlabel"><a xlink:href="dir_000008_000002.html" target="_top" xlink:title="2">
<text text-anchor="middle" x="47.35" y="-167.8" font-family="Helvetica,sans-Serif" font-size="10.00" fill="#63b8ff">2</text>
</a>
</g>
</g>
<!-- dir_a3b115caa7a87d931f1eb67e366235d9&#45;&gt;dir_bbf56bce9985720f86fc476f3812db24 -->
<g id="edge7" class="edge">
<title>dir_a3b115caa7a87d931f1eb67e366235d9&#45;&gt;dir_bbf56bce9985720f86fc476f3812db24</title>
<path fill="none" stroke="#63b8ff" d="M58.93,-72.34C58.19,-65.56 57.17,-56.3 56.25,-47.94"/>
<polygon fill="#63b8ff" stroke="#63b8ff" points="59.63,-47.64 55.06,-38.08 52.67,-48.4 59.63,-47.64"/>
<g id="a_edge7&#45;headlabel"><a xlink:href="dir_000008_000014.html" target="_top" xlink:title="1">
<text text-anchor="middle" x="62.85" y="-46.78" font-family="Helvetica,sans-Serif" font-size="10.00" fill="#63b8ff">1</text>
</a>
</g>
</g>
<!-- dir_6cd8491d143eb218b70983dbdb3c58bc&#45;&gt;dir_34519bff5ae72130fe71a8620cbf1fc0 -->
<g id="edge8" class="edge">
<title>dir_6cd8491d143eb218b70983dbdb3c58bc&#45;&gt;dir_34519bff5ae72130fe71a8620cbf1fc0</title>
<path fill="none" stroke="#63b8ff" d="M83,-150.59C81.41,-163.76 77.68,-187.83 70,-207 66.28,-216.31 60.69,-225.86 55.49,-233.78"/>
<polygon fill="#63b8ff" stroke="#63b8ff" points="52.06,-231.59 49.27,-241.81 57.83,-235.56 52.06,-231.59"/>
<g id="a_edge8&#45;headlabel"><a xlink:href="dir_000010_000000.html" target="_top" xlink:title="1">
<text text-anchor="middle" x="51.76" y="-224.89" font-family="Helvetica,sans-Serif" font-size="10.00" fill="#63b8ff">1</text>
</a>
</g>
</g>
<!-- dir_6cd8491d143eb218b70983dbdb3c58bc&#45;&gt;dir_a3b115caa7a87d931f1eb67e366235d9 -->
<g id="edge9" class="edge">
<title>dir_6cd8491d143eb218b70983dbdb3c58bc&#45;&gt;dir_a3b115caa7a87d931f1eb67e366235d9</title>
<path fill="none" stroke="#63b8ff" d="M79.71,-129.09C76.64,-122.08 72.4,-112.41 68.64,-103.83"/>
<polygon fill="#63b8ff" stroke="#63b8ff" points="71.47,-102.58 64.25,-94.83 65.06,-105.39 71.47,-102.58"/>
<g id="a_edge9&#45;headlabel"><a xlink:href="dir_000010_000008.html" target="_top" xlink:title="2">
<text text-anchor="middle" x="75.52" y="-100.61" font-family="Helvetica,sans-Serif" font-size="10.00" fill="#63b8ff">2</text>
</a>
</g>
</g>
<!-- dir_6cd8491d143eb218b70983dbdb3c58bc&#45;&gt;dir_bbf56bce9985720f86fc476f3812db24 -->
<g id="edge10" class="edge">
<title>dir_6cd8491d143eb218b70983dbdb3c58bc&#45;&gt;dir_bbf56bce9985720f86fc476f3812db24</title>
<path fill="none" stroke="#63b8ff" d="M87.62,-129.15C91.95,-115.97 97.81,-91.89 91,-72.75 87.29,-62.34 80.07,-52.59 72.97,-44.82"/>
<polygon fill="#63b8ff" stroke="#63b8ff" points="76.01,-42.9 66.51,-38.22 71.02,-47.81 76.01,-42.9"/>
<g id="a_edge10&#45;headlabel"><a xlink:href="dir_000010_000014.html" target="_top" xlink:title="4">
<text text-anchor="middle" x="79.56" y="-39.35" font-family="Helvetica,sans-Serif" font-size="10.00" fill="#63b8ff">4</text>
</a>
</g>
</g>
<!-- dir_bbf56bce9985720f86fc476f3812db24&#45;&gt;dir_aebb8dcc11953d78e620bbef0b9e2183 -->
<g id="edge11" class="edge">
<title>dir_bbf56bce9985720f86fc476f3812db24&#45;&gt;dir_aebb8dcc11953d78e620bbef0b9e2183</title>
<path fill="none" stroke="#63b8ff" d="M53.78,-37.2C49.58,-46 41.41,-59.51 38,-72.75 28.95,-107.94 37.57,-150.36 41.83,-175.03"/>
<polygon fill="#63b8ff" stroke="#63b8ff" points="38.52,-175.55 43.51,-184.9 45.44,-174.48 38.52,-175.55"/>
<g id="a_edge11&#45;headlabel"><a xlink:href="dir_000014_000002.html" target="_top" xlink:title="4">
<text text-anchor="middle" x="35.16" y="-170.3" font-family="Helvetica,sans-Serif" font-size="10.00" fill="#63b8ff">4</text>
</a>
</g>
</g>
</g>
</svg>
