<?xml version="1.0" encoding="UTF-8" standalone="no"?>
<!DOCTYPE svg PUBLIC "-//W3C//DTD SVG 1.1//EN"
 "http://www.w3.org/Graphics/SVG/1.1/DTD/svg11.dtd">
<!-- Generated by graphviz version 8.1.0 (20230707.0739)
 -->
<!-- Title: src/core Pages: 1 -->
<svg width="359pt" height="325pt"
 viewBox="0.00 0.00 359.00 324.50" xmlns="http://www.w3.org/2000/svg" xmlns:xlink="http://www.w3.org/1999/xlink">
<g id="graph0" class="graph" transform="scale(1 1) rotate(0) translate(4 320.5)">
<title>src/core</title>
<g id="clust1" class="cluster">
<title>clusterdir_68267d1309a1af8e8297ef4c3efbcdba</title>
<g id="a_clust1"><a xlink:href="dir_68267d1309a1af8e8297ef4c3efbcdba.html" target="_top" xlink:title="src">
<polygon fill="#edf0f7" stroke="#404040" stroke-dasharray="5,2" points="8,-8 8,-308.5 343,-308.5 343,-8 8,-8"/>
<text text-anchor="middle" x="175.5" y="-295" font-family="Helvetica,sans-Serif" font-size="10.00">src</text>
</a>
</g>
</g>
<g id="clust2" class="cluster">
<title>clusterdir_aebb8dcc11953d78e620bbef0b9e2183</title>
<g id="a_clust2"><a xlink:href="dir_aebb8dcc11953d78e620bbef0b9e2183.html" target="_top">
<polygon fill="#edf0f7" stroke="#404040" stroke-width="2" points="16,-16 16,-279.75 200,-279.75 200,-16 16,-16"/>
</a>
</g>
</g>
<!-- dir_6cd8491d143eb218b70983dbdb3c58bc -->
<g id="node1" class="node">
<title>dir_6cd8491d143eb218b70983dbdb3c58bc</title>
<g id="a_node1"><a xlink:href="dir_6cd8491d143eb218b70983dbdb3c58bc.html" target="_top" xlink:title="parser">
<polygon fill="#a2b4d6" stroke="#404040" points="327.38,-158.25 280.62,-158.25 280.62,-137.5 327.38,-137.5 327.38,-158.25"/>
<text text-anchor="middle" x="304" y="-144.75" font-family="Helvetica,sans-Serif" font-size="10.00">parser</text>
</a>
</g>
</g>
<!-- dir_a3b115caa7a87d931f1eb67e366235d9 -->
<g id="node2" class="node">
<title>dir_a3b115caa7a87d931f1eb67e366235d9</title>
<g id="a_node2"><a xlink:href="dir_a3b115caa7a87d931f1eb67e366235d9.html" target="_top" xlink:title="lights">
<polygon fill="#a2b4d6" stroke="red" points="251.5,-44.75 208.5,-44.75 208.5,-24 251.5,-24 251.5,-44.75"/>
<text text-anchor="middle" x="230" y="-31.25" font-family="Helvetica,sans-Serif" font-size="10.00">lights</text>
</a>
</g>
</g>
<!-- dir_bbf56bce9985720f86fc476f3812db24 -->
<g id="node3" class="node">
<title>dir_bbf56bce9985720f86fc476f3812db24</title>
<g id="a_node3"><a xlink:href="dir_bbf56bce9985720f86fc476f3812db24.html" target="_top" xlink:title="primitives">
<polygon fill="#a2b4d6" stroke="red" points="334.75,-44.75 269.25,-44.75 269.25,-24 334.75,-24 334.75,-44.75"/>
<text text-anchor="middle" x="302" y="-31.25" font-family="Helvetica,sans-Serif" font-size="10.00">primitives</text>
</a>
</g>
</g>
<!-- dir_34519bff5ae72130fe71a8620cbf1fc0 -->
<g id="node4" class="node">
<title>dir_34519bff5ae72130fe71a8620cbf1fc0</title>
<g id="a_node4"><a xlink:href="dir_34519bff5ae72130fe71a8620cbf1fc0.html" target="_top" xlink:title="camera">
<polygon fill="#a2b4d6" stroke="#404040" points="262.38,-158.25 209.62,-158.25 209.62,-137.5 262.38,-137.5 262.38,-158.25"/>
<text text-anchor="middle" x="236" y="-144.75" font-family="Helvetica,sans-Serif" font-size="10.00">camera</text>
</a>
</g>
</g>
<!-- dir_aebb8dcc11953d78e620bbef0b9e2183 -->
<g id="node5" class="node">
<title>dir_aebb8dcc11953d78e620bbef0b9e2183</title>
<text text-anchor="middle" x="168" y="-258.25" font-family="Helvetica,sans-Serif" font-size="10.00">core</text>
</g>
<!-- dir_aebb8dcc11953d78e620bbef0b9e2183&#45;&gt;dir_6cd8491d143eb218b70983dbdb3c58bc -->
<g id="edge2" class="edge">
<title>dir_aebb8dcc11953d78e620bbef0b9e2183&#45;&gt;dir_6cd8491d143eb218b70983dbdb3c58bc</title>
<path fill="none" stroke="#63b8ff" d="M179.13,-251.25C202.13,-232.4 255.15,-188.92 284.16,-165.14"/>
<polygon fill="#63b8ff" stroke="#63b8ff" points="285.82,-167.49 291.33,-158.44 281.38,-162.08 285.82,-167.49"/>
<g id="a_edge2&#45;headlabel"><a xlink:href="dir_000002_000010.html" target="_top" xlink:title="3">
<text text-anchor="middle" x="285.84" y="-168.84" font-family="Helvetica,sans-Serif" font-size="10.00" fill="#63b8ff">3</text>
</a>
</g>
</g>
<!-- dir_7f6c38d6e6d20109ccf1dd9d772dac3d -->
<g id="node7" class="node">
<title>dir_7f6c38d6e6d20109ccf1dd9d772dac3d</title>
<g id="a_node7"><a xlink:href="dir_7f6c38d6e6d20109ccf1dd9d772dac3d.html" target="_top" xlink:title="error">
<polygon fill="#a2b4d6" stroke="#404040" points="84.62,-44.75 45.38,-44.75 45.38,-24 84.62,-24 84.62,-44.75"/>
<text text-anchor="middle" x="65" y="-31.25" font-family="Helvetica,sans-Serif" font-size="10.00">error</text>
</a>
</g>
</g>
<!-- dir_aebb8dcc11953d78e620bbef0b9e2183&#45;&gt;dir_7f6c38d6e6d20109ccf1dd9d772dac3d -->
<g id="edge3" class="edge">
<title>dir_aebb8dcc11953d78e620bbef0b9e2183&#45;&gt;dir_7f6c38d6e6d20109ccf1dd9d772dac3d</title>
<path fill="none" stroke="#63b8ff" d="M156.06,-251.27C128.28,-229.23 59.81,-169.79 35,-101.5 28.91,-84.75 38.7,-66.33 48.68,-53.2"/>
<polygon fill="#63b8ff" stroke="#63b8ff" points="51.76,-55.97 55.43,-46.04 46.36,-51.51 51.76,-55.97"/>
<g id="a_edge3&#45;headlabel"><a xlink:href="dir_000002_000006.html" target="_top" xlink:title="4">
<text text-anchor="middle" x="51.65" y="-56.43" font-family="Helvetica,sans-Serif" font-size="10.00" fill="#63b8ff">4</text>
</a>
</g>
</g>
<!-- dir_12355b369e7660217f2146e44ab7e3e8 -->
<g id="node10" class="node">
<title>dir_12355b369e7660217f2146e44ab7e3e8</title>
<g id="a_node10"><a xlink:href="dir_12355b369e7660217f2146e44ab7e3e8.html" target="_top" xlink:title="scene">
<polygon fill="#a2b4d6" stroke="#404040" points="190.25,-215 145.75,-215 145.75,-194.25 190.25,-194.25 190.25,-215"/>
<text text-anchor="middle" x="168" y="-201.5" font-family="Helvetica,sans-Serif" font-size="10.00">scene</text>
</a>
</g>
</g>
<!-- dir_aebb8dcc11953d78e620bbef0b9e2183&#45;&gt;dir_12355b369e7660217f2146e44ab7e3e8 -->
<g id="edge1" class="edge">
<title>dir_aebb8dcc11953d78e620bbef0b9e2183&#45;&gt;dir_12355b369e7660217f2146e44ab7e3e8</title>
<path fill="none" stroke="#63b8ff" d="M168,-251.33C168,-244.49 168,-234.8 168,-226.11"/>
<polygon fill="#63b8ff" stroke="#63b8ff" points="171.5,-226.23 168,-216.23 164.5,-226.23 171.5,-226.23"/>
<g id="a_edge1&#45;headlabel"><a xlink:href="dir_000002_000015.html" target="_top" xlink:title="2">
<text text-anchor="middle" x="174.34" y="-225.7" font-family="Helvetica,sans-Serif" font-size="10.00" fill="#63b8ff">2</text>
</a>
</g>
</g>
<!-- dir_ab48efd81a2f3614f2823df61996c271 -->
<g id="node6" class="node">
<title>dir_ab48efd81a2f3614f2823df61996c271</title>
<g id="a_node6"><a xlink:href="dir_ab48efd81a2f3614f2823df61996c271.html" target="_top" xlink:title="designPatterns">
<polygon fill="#a2b4d6" stroke="#404040" points="192,-101.5 104,-101.5 104,-80.75 192,-80.75 192,-101.5"/>
<text text-anchor="middle" x="148" y="-88" font-family="Helvetica,sans-Serif" font-size="10.00">designPatterns</text>
</a>
</g>
</g>
<!-- dir_ab48efd81a2f3614f2823df61996c271&#45;&gt;dir_a3b115caa7a87d931f1eb67e366235d9 -->
<g id="edge5" class="edge">
<title>dir_ab48efd81a2f3614f2823df61996c271&#45;&gt;dir_a3b115caa7a87d931f1eb67e366235d9</title>
<path fill="none" stroke="#63b8ff" d="M162.66,-80.34C174.79,-72.24 192.25,-60.58 206.35,-51.17"/>
<polygon fill="#63b8ff" stroke="#63b8ff" points="208.09,-53.54 214.47,-45.08 204.21,-47.72 208.09,-53.54"/>
<g id="a_edge5&#45;headlabel"><a xlink:href="dir_000004_000008.html" target="_top" xlink:title="3">
<text text-anchor="middle" x="207.68" y="-54.77" font-family="Helvetica,sans-Serif" font-size="10.00" fill="#63b8ff">3</text>
</a>
</g>
</g>
<!-- dir_ab48efd81a2f3614f2823df61996c271&#45;&gt;dir_bbf56bce9985720f86fc476f3812db24 -->
<g id="edge6" class="edge">
<title>dir_ab48efd81a2f3614f2823df61996c271&#45;&gt;dir_bbf56bce9985720f86fc476f3812db24</title>
<path fill="none" stroke="#63b8ff" d="M175.53,-80.34C200.31,-71.53 236.94,-58.5 264.41,-48.74"/>
<polygon fill="#63b8ff" stroke="#63b8ff" points="265.2,-51.82 273.45,-45.17 262.85,-45.22 265.2,-51.82"/>
<g id="a_edge6&#45;headlabel"><a xlink:href="dir_000004_000014.html" target="_top" xlink:title="5">
<text text-anchor="middle" x="263.76" y="-52.57" font-family="Helvetica,sans-Serif" font-size="10.00" fill="#63b8ff">5</text>
</a>
</g>
</g>
<!-- dir_ab48efd81a2f3614f2823df61996c271&#45;&gt;dir_7f6c38d6e6d20109ccf1dd9d772dac3d -->
<g id="edge4" class="edge">
<title>dir_ab48efd81a2f3614f2823df61996c271&#45;&gt;dir_7f6c38d6e6d20109ccf1dd9d772dac3d</title>
<path fill="none" stroke="#63b8ff" d="M133.16,-80.34C120.77,-72.16 102.87,-60.36 88.53,-50.9"/>
<polygon fill="#63b8ff" stroke="#63b8ff" points="90.98,-47.66 80.71,-45.08 87.13,-53.51 90.98,-47.66"/>
<g id="a_edge4&#45;headlabel"><a xlink:href="dir_000004_000006.html" target="_top" xlink:title="1">
<text text-anchor="middle" x="94.55" y="-44.15" font-family="Helvetica,sans-Serif" font-size="10.00" fill="#63b8ff">1</text>
</a>
</g>
</g>
<!-- dir_707aa52d67938117542c6646238d6f70 -->
<g id="node8" class="node">
<title>dir_707aa52d67938117542c6646238d6f70</title>
<g id="a_node8"><a xlink:href="dir_707aa52d67938117542c6646238d6f70.html" target="_top" xlink:title="helpers">
<polygon fill="#a2b4d6" stroke="#404040" points="192,-158.25 140,-158.25 140,-137.5 192,-137.5 192,-158.25"/>
<text text-anchor="middle" x="166" y="-144.75" font-family="Helvetica,sans-Serif" font-size="10.00">helpers</text>
</a>
</g>
</g>
<!-- dir_707aa52d67938117542c6646238d6f70&#45;&gt;dir_a3b115caa7a87d931f1eb67e366235d9 -->
<g id="edge7" class="edge">
<title>dir_707aa52d67938117542c6646238d6f70&#45;&gt;dir_a3b115caa7a87d931f1eb67e366235d9</title>
<path fill="none" stroke="#63b8ff" d="M174.52,-137.28C182.11,-128.42 193.19,-114.68 201,-101.5 209.79,-86.67 217.5,-68.7 222.76,-55.23"/>
<polygon fill="#63b8ff" stroke="#63b8ff" points="226.31,-56.74 226.57,-46.15 219.76,-54.27 226.31,-56.74"/>
<g id="a_edge7&#45;headlabel"><a xlink:href="dir_000007_000008.html" target="_top" xlink:title="1">
<text text-anchor="middle" x="227.7" y="-56.98" font-family="Helvetica,sans-Serif" font-size="10.00" fill="#63b8ff">1</text>
</a>
</g>
</g>
<!-- dir_707aa52d67938117542c6646238d6f70&#45;&gt;dir_bbf56bce9985720f86fc476f3812db24 -->
<g id="edge8" class="edge">
<title>dir_707aa52d67938117542c6646238d6f70&#45;&gt;dir_bbf56bce9985720f86fc476f3812db24</title>
<path fill="none" stroke="#63b8ff" d="M177.6,-137.37C200.76,-118.37 253.03,-75.52 281.9,-51.86"/>
<polygon fill="#63b8ff" stroke="#63b8ff" points="283.53,-54.22 289.05,-45.18 279.09,-48.81 283.53,-54.22"/>
<g id="a_edge8&#45;headlabel"><a xlink:href="dir_000007_000014.html" target="_top" xlink:title="1">
<text text-anchor="middle" x="283.55" y="-55.57" font-family="Helvetica,sans-Serif" font-size="10.00" fill="#63b8ff">1</text>
</a>
</g>
</g>
<!-- dir_e235ce117329fd16b24743c07cd49299 -->
<g id="node9" class="node">
<title>dir_e235ce117329fd16b24743c07cd49299</title>
<g id="a_node9"><a xlink:href="dir_e235ce117329fd16b24743c07cd49299.html" target="_top" xlink:title="math">
<polygon fill="#a2b4d6" stroke="#404040" points="85.75,-101.5 44.25,-101.5 44.25,-80.75 85.75,-80.75 85.75,-101.5"/>
<text text-anchor="middle" x="65" y="-88" font-family="Helvetica,sans-Serif" font-size="10.00">math</text>
</a>
</g>
</g>
<!-- dir_707aa52d67938117542c6646238d6f70&#45;&gt;dir_e235ce117329fd16b24743c07cd49299 -->
<g id="edge9" class="edge">
<title>dir_707aa52d67938117542c6646238d6f70&#45;&gt;dir_e235ce117329fd16b24743c07cd49299</title>
<path fill="none" stroke="#63b8ff" d="M147.94,-137.09C132.43,-128.68 109.84,-116.43 92.15,-106.84"/>
<polygon fill="#63b8ff" stroke="#63b8ff" points="94.36,-103.52 83.9,-101.83 91.02,-109.67 94.36,-103.52"/>
<g id="a_edge9&#45;headlabel"><a xlink:href="dir_000007_000009.html" target="_top" xlink:title="2">
<text text-anchor="middle" x="97.87" y="-99.61" font-family="Helvetica,sans-Serif" font-size="10.00" fill="#63b8ff">2</text>
</a>
</g>
</g>
<!-- dir_e235ce117329fd16b24743c07cd49299&#45;&gt;dir_7f6c38d6e6d20109ccf1dd9d772dac3d -->
<g id="edge10" class="edge">
<title>dir_e235ce117329fd16b24743c07cd49299&#45;&gt;dir_7f6c38d6e6d20109ccf1dd9d772dac3d</title>
<path fill="none" stroke="#63b8ff" d="M65,-80.34C65,-73.56 65,-64.3 65,-55.94"/>
<polygon fill="#63b8ff" stroke="#63b8ff" points="68.5,-56.08 65,-46.08 61.5,-56.08 68.5,-56.08"/>
<g id="a_edge10&#45;headlabel"><a xlink:href="dir_000009_000006.html" target="_top" xlink:title="1">
<text text-anchor="middle" x="71.34" y="-55.55" font-family="Helvetica,sans-Serif" font-size="10.00" fill="#63b8ff">1</text>
</a>
</g>
</g>
<!-- dir_12355b369e7660217f2146e44ab7e3e8&#45;&gt;dir_6cd8491d143eb218b70983dbdb3c58bc -->
<g id="edge12" class="edge">
<title>dir_12355b369e7660217f2146e44ab7e3e8&#45;&gt;dir_6cd8491d143eb218b70983dbdb3c58bc</title>
<path fill="none" stroke="#63b8ff" d="M190.46,-194.58C212.11,-185.87 245.16,-172.56 270.04,-162.55"/>
<polygon fill="#63b8ff" stroke="#63b8ff" points="271.17,-165.46 279.14,-158.48 268.55,-158.97 271.17,-165.46"/>
<g id="a_edge12&#45;headlabel"><a xlink:href="dir_000015_000010.html" target="_top" xlink:title="2">
<text text-anchor="middle" x="269.89" y="-166.31" font-family="Helvetica,sans-Serif" font-size="10.00" fill="#63b8ff">2</text>
</a>
</g>
</g>
<!-- dir_12355b369e7660217f2146e44ab7e3e8&#45;&gt;dir_34519bff5ae72130fe71a8620cbf1fc0 -->
<g id="edge11" class="edge">
<title>dir_12355b369e7660217f2146e44ab7e3e8&#45;&gt;dir_34519bff5ae72130fe71a8620cbf1fc0</title>
<path fill="none" stroke="#63b8ff" d="M180.16,-193.84C190.02,-185.9 204.14,-174.53 215.71,-165.21"/>
<polygon fill="#63b8ff" stroke="#63b8ff" points="217.35,-167.58 222.95,-158.58 212.96,-162.12 217.35,-167.58"/>
<g id="a_edge11&#45;headlabel"><a xlink:href="dir_000015_000000.html" target="_top" xlink:title="1">
<text text-anchor="middle" x="217.33" y="-168.92" font-family="Helvetica,sans-Serif" font-size="10.00" fill="#63b8ff">1</text>
</a>
</g>
</g>
<!-- dir_12355b369e7660217f2146e44ab7e3e8&#45;&gt;dir_ab48efd81a2f3614f2823df61996c271 -->
<g id="edge14" class="edge">
<title>dir_12355b369e7660217f2146e44ab7e3e8&#45;&gt;dir_ab48efd81a2f3614f2823df61996c271</title>
<path fill="none" stroke="#63b8ff" d="M156.49,-193.78C147.62,-185.37 136.05,-172.42 131,-158.25 125.48,-142.74 130.95,-124.6 137.11,-111.25"/>
<polygon fill="#63b8ff" stroke="#63b8ff" points="140.56,-113.2 142.01,-102.7 134.33,-110 140.56,-113.2"/>
<g id="a_edge14&#45;headlabel"><a xlink:href="dir_000015_000004.html" target="_top" xlink:title="1">
<text text-anchor="middle" x="141.44" y="-113.57" font-family="Helvetica,sans-Serif" font-size="10.00" fill="#63b8ff">1</text>
</a>
</g>
</g>
<!-- dir_12355b369e7660217f2146e44ab7e3e8&#45;&gt;dir_707aa52d67938117542c6646238d6f70 -->
<g id="edge13" class="edge">
<title>dir_12355b369e7660217f2146e44ab7e3e8&#45;&gt;dir_707aa52d67938117542c6646238d6f70</title>
<path fill="none" stroke="#63b8ff" d="M167.64,-193.84C167.4,-187.06 167.06,-177.8 166.75,-169.44"/>
<polygon fill="#63b8ff" stroke="#63b8ff" points="170.22,-169.44 166.35,-159.58 163.22,-169.7 170.22,-169.44"/>
<g id="a_edge13&#45;headlabel"><a xlink:href="dir_000015_000007.html" target="_top" xlink:title="2">
<text text-anchor="middle" x="173.19" y="-168.81" font-family="Helvetica,sans-Serif" font-size="10.00" fill="#63b8ff">2</text>
</a>
</g>
</g>
</g>
</svg>
