<?xml version="1.0" encoding="UTF-8" standalone="no"?>
<!DOCTYPE svg PUBLIC "-//W3C//DTD SVG 1.1//EN"
 "http://www.w3.org/Graphics/SVG/1.1/DTD/svg11.dtd">
<!-- Generated by graphviz version 8.1.0 (20230707.0739)
 -->
<!-- Title: src/lights/directionalLight/DirectionalLight.hpp Pages: 1 -->
<svg width="708pt" height="382pt"
 viewBox="0.00 0.00 707.88 382.00" xmlns="http://www.w3.org/2000/svg" xmlns:xlink="http://www.w3.org/1999/xlink">
<g id="graph0" class="graph" transform="scale(1 1) rotate(0) translate(4 378)">
<title>src/lights/directionalLight/DirectionalLight.hpp</title>
<!-- Node1 -->
<g id="Node000001" class="node">
<title>Node1</title>
<g id="a_Node000001"><a xlink:title=" ">
<polygon fill="#999999" stroke="#666666" points="523.5,-374 384.5,-374 384.5,-340.5 523.5,-340.5 523.5,-374"/>
<text text-anchor="start" x="392.5" y="-360.5" font-family="Helvetica,sans-Serif" font-size="10.00">src/lights/directionalLight</text>
<text text-anchor="middle" x="454" y="-347.75" font-family="Helvetica,sans-Serif" font-size="10.00">/DirectionalLight.hpp</text>
</a>
</g>
</g>
<!-- Node2 -->
<g id="Node000002" class="node">
<title>Node2</title>
<g id="a_Node000002"><a xlink:href="ILight_8hpp.html" target="_top" xlink:title=" ">
<polygon fill="white" stroke="#666666" points="490.5,-304.5 417.5,-304.5 417.5,-283.75 490.5,-283.75 490.5,-304.5"/>
<text text-anchor="middle" x="454" y="-291" font-family="Helvetica,sans-Serif" font-size="10.00">../ILight.hpp</text>
</a>
</g>
</g>
<!-- Node1&#45;&gt;Node2 -->
<g id="edge1_Node000001_Node000002" class="edge">
<title>Node1&#45;&gt;Node2</title>
<g id="a_edge1_Node000001_Node000002"><a xlink:title=" ">
<path fill="none" stroke="#63b8ff" d="M454,-340.19C454,-332.77 454,-323.86 454,-315.93"/>
<polygon fill="#63b8ff" stroke="#63b8ff" points="457.5,-315.97 454,-305.97 450.5,-315.97 457.5,-315.97"/>
</a>
</g>
</g>
<!-- Node3 -->
<g id="Node000003" class="node">
<title>Node3</title>
<g id="a_Node000003"><a xlink:title=" ">
<polygon fill="#e0e0e0" stroke="#999999" points="190.75,-20.75 131.25,-20.75 131.25,0 190.75,0 190.75,-20.75"/>
<text text-anchor="middle" x="161" y="-7.25" font-family="Helvetica,sans-Serif" font-size="10.00">iostream</text>
</a>
</g>
</g>
<!-- Node1&#45;&gt;Node3 -->
<g id="edge31_Node000001_Node000003" class="edge">
<title>Node1&#45;&gt;Node3</title>
<g id="a_edge31_Node000001_Node000003"><a xlink:title=" ">
<path fill="none" stroke="#63b8ff" d="M384.06,-352.56C256.71,-343.91 0,-316.75 0,-238.38 0,-238.38 0,-238.38 0,-122.88 0,-64.24 73.06,-34 120.75,-20.51"/>
<polygon fill="#63b8ff" stroke="#63b8ff" points="121.34,-23.71 130.09,-17.74 119.53,-16.95 121.34,-23.71"/>
</a>
</g>
</g>
<!-- Node16 -->
<g id="Node000016" class="node">
<title>Node16</title>
<g id="a_Node000016"><a xlink:title=" ">
<polygon fill="#e0e0e0" stroke="#999999" points="699.88,-134.25 662.12,-134.25 662.12,-113.5 699.88,-113.5 699.88,-134.25"/>
<text text-anchor="middle" x="681" y="-120.75" font-family="Helvetica,sans-Serif" font-size="10.00">map</text>
</a>
</g>
</g>
<!-- Node1&#45;&gt;Node16 -->
<g id="edge32_Node000001_Node000016" class="edge">
<title>Node1&#45;&gt;Node16</title>
<g id="a_edge32_Node000001_Node000016"><a xlink:title=" ">
<path fill="none" stroke="#63b8ff" d="M486.78,-340.01C533.73,-314.92 619.15,-262.11 662,-191 670.49,-176.92 675.34,-158.86 678.01,-145.17"/>
<polygon fill="#63b8ff" stroke="#63b8ff" points="681.61,-145.92 679.84,-135.48 674.71,-144.75 681.61,-145.92"/>
</a>
</g>
</g>
<!-- Node2&#45;&gt;Node3 -->
<g id="edge2_Node000002_Node000003" class="edge">
<title>Node2&#45;&gt;Node3</title>
<g id="a_edge2_Node000002_Node000003"><a xlink:title=" ">
<path fill="none" stroke="#63b8ff" d="M417.08,-291.13C315.27,-284.63 38,-259.76 38,-181.62 38,-181.62 38,-181.62 38,-122.88 38,-75.32 89.09,-42.75 125.42,-25.6"/>
<polygon fill="#63b8ff" stroke="#63b8ff" points="126.54,-28.48 134.22,-21.17 123.66,-22.1 126.54,-28.48"/>
</a>
</g>
</g>
<!-- Node4 -->
<g id="Node000004" class="node">
<title>Node4</title>
<g id="a_Node000004"><a xlink:href="Color_8hpp.html" target="_top" xlink:title=" ">
<polygon fill="white" stroke="#666666" points="199.88,-134.25 66.12,-134.25 66.12,-113.5 199.88,-113.5 199.88,-134.25"/>
<text text-anchor="middle" x="133" y="-120.75" font-family="Helvetica,sans-Serif" font-size="10.00">../core/helpers/Color.hpp</text>
</a>
</g>
</g>
<!-- Node2&#45;&gt;Node4 -->
<g id="edge3_Node000002_Node000004" class="edge">
<title>Node2&#45;&gt;Node4</title>
<g id="a_edge3_Node000002_Node000004"><a xlink:title=" ">
<path fill="none" stroke="#63b8ff" d="M435.35,-283.35C381.5,-255.13 225.49,-173.35 161.2,-139.65"/>
<polygon fill="#63b8ff" stroke="#63b8ff" points="163.18,-136.22 152.7,-134.68 159.93,-142.42 163.18,-136.22"/>
</a>
</g>
</g>
<!-- Node5 -->
<g id="Node000005" class="node">
<title>Node5</title>
<g id="a_Node000005"><a xlink:href="IPrimitive_8hpp.html" target="_top" xlink:title=" ">
<polygon fill="white" stroke="#666666" points="476.88,-191 331.12,-191 331.12,-170.25 476.88,-170.25 476.88,-191"/>
<text text-anchor="middle" x="404" y="-177.5" font-family="Helvetica,sans-Serif" font-size="10.00">../primitives/IPrimitive.hpp</text>
</a>
</g>
</g>
<!-- Node2&#45;&gt;Node5 -->
<g id="edge5_Node000002_Node000005" class="edge">
<title>Node2&#45;&gt;Node5</title>
<g id="a_edge5_Node000002_Node000005"><a xlink:title=" ">
<path fill="none" stroke="#63b8ff" d="M447.08,-283.41C440.94,-274.46 432.03,-260.67 426,-247.75 419.03,-232.83 413.25,-215.08 409.37,-201.73"/>
<polygon fill="#63b8ff" stroke="#63b8ff" points="412.52,-201 406.46,-192.31 405.78,-202.88 412.52,-201"/>
</a>
</g>
</g>
<!-- Node17 -->
<g id="Node000017" class="node">
<title>Node17</title>
<g id="a_Node000017"><a xlink:href="World_8hpp.html" target="_top" xlink:title=" ">
<polygon fill="white" stroke="#666666" points="571.38,-247.75 434.62,-247.75 434.62,-227 571.38,-227 571.38,-247.75"/>
<text text-anchor="middle" x="503" y="-234.25" font-family="Helvetica,sans-Serif" font-size="10.00">../core/helpers/World.hpp</text>
</a>
</g>
</g>
<!-- Node2&#45;&gt;Node17 -->
<g id="edge24_Node000002_Node000017" class="edge">
<title>Node2&#45;&gt;Node17</title>
<g id="a_edge24_Node000002_Node000017"><a xlink:title=" ">
<path fill="none" stroke="#63b8ff" d="M457.44,-283.34C462.86,-275.63 472.31,-264.7 481.32,-255.54"/>
<polygon fill="#63b8ff" stroke="#63b8ff" points="483.27,-258.55 488.02,-249.08 478.4,-253.53 483.27,-258.55"/>
</a>
</g>
</g>
<!-- Node18 -->
<g id="Node000018" class="node">
<title>Node18</title>
<g id="a_Node000018"><a xlink:title=" ">
<polygon fill="#e0e0e0" stroke="#999999" points="652.62,-191 595.38,-191 595.38,-170.25 652.62,-170.25 652.62,-191"/>
<text text-anchor="middle" x="624" y="-177.5" font-family="Helvetica,sans-Serif" font-size="10.00">memory</text>
</a>
</g>
</g>
<!-- Node2&#45;&gt;Node18 -->
<g id="edge30_Node000002_Node000018" class="edge">
<title>Node2&#45;&gt;Node18</title>
<g id="a_edge30_Node000002_Node000018"><a xlink:title=" ">
<path fill="none" stroke="#63b8ff" d="M490.96,-286.33C517.83,-279.93 553.92,-268.19 580,-247.75 595.9,-235.29 608,-215.45 615.46,-200.74"/>
<polygon fill="#63b8ff" stroke="#63b8ff" points="618.9,-202.66 620.05,-192.13 612.58,-199.64 618.9,-202.66"/>
</a>
</g>
</g>
<!-- Node4&#45;&gt;Node3 -->
<g id="edge4_Node000004_Node000003" class="edge">
<title>Node4&#45;&gt;Node3</title>
<g id="a_edge4_Node000004_Node000003"><a xlink:title=" ">
<path fill="none" stroke="#63b8ff" d="M135.39,-113.37C139.91,-95.36 149.82,-55.89 155.9,-31.68"/>
<polygon fill="#63b8ff" stroke="#63b8ff" points="159.5,-32.73 158.54,-22.18 152.71,-31.02 159.5,-32.73"/>
</a>
</g>
</g>
<!-- Node5&#45;&gt;Node3 -->
<g id="edge21_Node000005_Node000003" class="edge">
<title>Node5&#45;&gt;Node3</title>
<g id="a_edge21_Node000005_Node000003"><a xlink:title=" ">
<path fill="none" stroke="#63b8ff" d="M359.76,-169.75C332.39,-162.46 297.22,-150.89 269,-134.25 224.96,-108.28 189.46,-58.08 172.26,-30.57"/>
<polygon fill="#63b8ff" stroke="#63b8ff" points="174.77,-28.96 166.58,-22.23 168.79,-32.59 174.77,-28.96"/>
</a>
</g>
</g>
<!-- Node5&#45;&gt;Node4 -->
<g id="edge6_Node000005_Node000004" class="edge">
<title>Node5&#45;&gt;Node4</title>
<g id="a_edge6_Node000005_Node000004"><a xlink:title=" ">
<path fill="none" stroke="#63b8ff" d="M355.24,-169.77C309.62,-160.56 241.37,-146.77 192.55,-136.91"/>
<polygon fill="#63b8ff" stroke="#63b8ff" points="193.32,-133.29 182.83,-134.74 191.94,-140.15 193.32,-133.29"/>
</a>
</g>
</g>
<!-- Node6 -->
<g id="Node000006" class="node">
<title>Node6</title>
<g id="a_Node000006"><a xlink:href="Ray_8hpp.html" target="_top" xlink:title=" ">
<polygon fill="white" stroke="#666666" points="420.12,-134.25 293.88,-134.25 293.88,-113.5 420.12,-113.5 420.12,-134.25"/>
<text text-anchor="middle" x="357" y="-120.75" font-family="Helvetica,sans-Serif" font-size="10.00">../core/helpers/Ray.hpp</text>
</a>
</g>
</g>
<!-- Node5&#45;&gt;Node6 -->
<g id="edge7_Node000005_Node000006" class="edge">
<title>Node5&#45;&gt;Node6</title>
<g id="a_edge7_Node000005_Node000006"><a xlink:title=" ">
<path fill="none" stroke="#63b8ff" d="M395.6,-169.84C389.18,-162.36 380.16,-151.86 372.45,-142.88"/>
<polygon fill="#63b8ff" stroke="#63b8ff" points="374.5,-140.89 365.33,-135.58 369.19,-145.45 374.5,-140.89"/>
</a>
</g>
</g>
<!-- Node7 -->
<g id="Node000007" class="node">
<title>Node7</title>
<g id="a_Node000007"><a xlink:href="Math_8hpp.html" target="_top" xlink:title=" ">
<polygon fill="white" stroke="#666666" points="315.62,-77.5 216.38,-77.5 216.38,-56.75 315.62,-56.75 315.62,-77.5"/>
<text text-anchor="middle" x="266" y="-64" font-family="Helvetica,sans-Serif" font-size="10.00">../math/Math.hpp</text>
</a>
</g>
</g>
<!-- Node5&#45;&gt;Node7 -->
<g id="edge11_Node000005_Node000007" class="edge">
<title>Node5&#45;&gt;Node7</title>
<g id="a_edge11_Node000005_Node000007"><a xlink:title=" ">
<path fill="none" stroke="#63b8ff" d="M348.7,-169.84C326.18,-163.25 301.61,-152.32 285,-134.25 273.63,-121.88 269.02,-103.15 267.17,-88.78"/>
<polygon fill="#63b8ff" stroke="#63b8ff" points="270.58,-88.6 266.18,-78.96 263.61,-89.24 270.58,-88.6"/>
</a>
</g>
</g>
<!-- Node9 -->
<g id="Node000009" class="node">
<title>Node9</title>
<g id="a_Node000009"><a xlink:href="Matrix_8hpp.html" target="_top" xlink:title=" ">
<polygon fill="white" stroke="#666666" points="568,-134.25 438,-134.25 438,-113.5 568,-113.5 568,-134.25"/>
<text text-anchor="middle" x="503" y="-120.75" font-family="Helvetica,sans-Serif" font-size="10.00">../core/math/Matrix.hpp</text>
</a>
</g>
</g>
<!-- Node5&#45;&gt;Node9 -->
<g id="edge12_Node000005_Node000009" class="edge">
<title>Node5&#45;&gt;Node9</title>
<g id="a_edge12_Node000005_Node000009"><a xlink:title=" ">
<path fill="none" stroke="#63b8ff" d="M421.7,-169.84C436.76,-161.51 458.64,-149.41 475.91,-139.86"/>
<polygon fill="#63b8ff" stroke="#63b8ff" points="477.4,-142.48 484.45,-134.58 474.01,-136.36 477.4,-142.48"/>
</a>
</g>
</g>
<!-- Node14 -->
<g id="Node000014" class="node">
<title>Node14</title>
<g id="a_Node000014"><a xlink:title=" ">
<polygon fill="#e0e0e0" stroke="#999999" points="698.38,-77.5 651.62,-77.5 651.62,-56.75 698.38,-56.75 698.38,-77.5"/>
<text text-anchor="middle" x="675" y="-64" font-family="Helvetica,sans-Serif" font-size="10.00">vector</text>
</a>
</g>
</g>
<!-- Node5&#45;&gt;Node14 -->
<g id="edge23_Node000005_Node000014" class="edge">
<title>Node5&#45;&gt;Node14</title>
<g id="a_edge23_Node000005_Node000014"><a xlink:title=" ">
<path fill="none" stroke="#63b8ff" d="M460.56,-169.81C495.17,-162.6 539.8,-151.09 577,-134.25 606.08,-121.09 636.01,-99.51 655.01,-84.6"/>
<polygon fill="#63b8ff" stroke="#63b8ff" points="656.78,-86.86 662.41,-77.88 652.41,-81.39 656.78,-86.86"/>
</a>
</g>
</g>
<!-- Node5&#45;&gt;Node16 -->
<g id="edge22_Node000005_Node000016" class="edge">
<title>Node5&#45;&gt;Node16</title>
<g id="a_edge22_Node000005_Node000016"><a xlink:title=" ">
<path fill="none" stroke="#63b8ff" d="M453.84,-169.77C511.26,-158.43 603.74,-140.15 651.04,-130.8"/>
<polygon fill="#63b8ff" stroke="#63b8ff" points="651.64,-134.05 660.77,-128.68 650.28,-127.18 651.64,-134.05"/>
</a>
</g>
</g>
<!-- Node6&#45;&gt;Node7 -->
<g id="edge8_Node000006_Node000007" class="edge">
<title>Node6&#45;&gt;Node7</title>
<g id="a_edge8_Node000006_Node000007"><a xlink:title=" ">
<path fill="none" stroke="#63b8ff" d="M340.73,-113.09C327.01,-104.83 307.15,-92.88 291.35,-83.38"/>
<polygon fill="#63b8ff" stroke="#63b8ff" points="293.5,-79.98 283.13,-77.83 289.89,-85.98 293.5,-79.98"/>
</a>
</g>
</g>
<!-- Node7&#45;&gt;Node3 -->
<g id="edge9_Node000007_Node000003" class="edge">
<title>Node7&#45;&gt;Node3</title>
<g id="a_edge9_Node000007_Node000003"><a xlink:title=" ">
<path fill="none" stroke="#63b8ff" d="M247.23,-56.34C231.1,-47.93 207.61,-35.68 189.22,-26.09"/>
<polygon fill="#63b8ff" stroke="#63b8ff" points="191.09,-22.6 180.61,-21.08 187.86,-28.81 191.09,-22.6"/>
</a>
</g>
</g>
<!-- Node8 -->
<g id="Node000008" class="node">
<title>Node8</title>
<g id="a_Node000008"><a xlink:title=" ">
<polygon fill="#e0e0e0" stroke="#999999" points="289.38,-20.75 242.62,-20.75 242.62,0 289.38,0 289.38,-20.75"/>
<text text-anchor="middle" x="266" y="-7.25" font-family="Helvetica,sans-Serif" font-size="10.00">cmath</text>
</a>
</g>
</g>
<!-- Node7&#45;&gt;Node8 -->
<g id="edge10_Node000007_Node000008" class="edge">
<title>Node7&#45;&gt;Node8</title>
<g id="a_edge10_Node000007_Node000008"><a xlink:title=" ">
<path fill="none" stroke="#63b8ff" d="M266,-56.34C266,-49.56 266,-40.3 266,-31.94"/>
<polygon fill="#63b8ff" stroke="#63b8ff" points="269.5,-32.08 266,-22.08 262.5,-32.08 269.5,-32.08"/>
</a>
</g>
</g>
<!-- Node9&#45;&gt;Node3 -->
<g id="edge18_Node000009_Node000003" class="edge">
<title>Node9&#45;&gt;Node3</title>
<g id="a_edge18_Node000009_Node000003"><a xlink:title=" ">
<path fill="none" stroke="#63b8ff" d="M466.35,-113.03C437.7,-104.85 397.14,-92.2 363,-77.5 345.33,-69.89 342.84,-63.97 325,-56.75 284.11,-40.19 235.12,-27.51 201.39,-19.82"/>
<polygon fill="#63b8ff" stroke="#63b8ff" points="202.53,-16.26 192.01,-17.5 201,-23.09 202.53,-16.26"/>
</a>
</g>
</g>
<!-- Node9&#45;&gt;Node7 -->
<g id="edge13_Node000009_Node000007" class="edge">
<title>Node9&#45;&gt;Node7</title>
<g id="a_edge13_Node000009_Node000007"><a xlink:title=" ">
<path fill="none" stroke="#63b8ff" d="M460.36,-113.02C420.8,-103.88 361.78,-90.25 319.16,-80.41"/>
<polygon fill="#63b8ff" stroke="#63b8ff" points="320.23,-76.83 309.7,-77.99 318.66,-83.65 320.23,-76.83"/>
</a>
</g>
</g>
<!-- Node10 -->
<g id="Node000010" class="node">
<title>Node10</title>
<g id="a_Node000010"><a xlink:href="Error_8hpp.html" target="_top" xlink:title=" ">
<polygon fill="white" stroke="#666666" points="466.38,-77.5 371.62,-77.5 371.62,-56.75 466.38,-56.75 466.38,-77.5"/>
<text text-anchor="middle" x="419" y="-64" font-family="Helvetica,sans-Serif" font-size="10.00">../error/Error.hpp</text>
</a>
</g>
</g>
<!-- Node9&#45;&gt;Node10 -->
<g id="edge14_Node000009_Node000010" class="edge">
<title>Node9&#45;&gt;Node10</title>
<g id="a_edge14_Node000009_Node000010"><a xlink:title=" ">
<path fill="none" stroke="#63b8ff" d="M487.98,-113.09C475.44,-104.91 457.33,-93.11 442.81,-83.65"/>
<polygon fill="#63b8ff" stroke="#63b8ff" points="445.18,-80.36 434.89,-77.83 441.35,-86.22 445.18,-80.36"/>
</a>
</g>
</g>
<!-- Node13 -->
<g id="Node000013" class="node">
<title>Node13</title>
<g id="a_Node000013"><a xlink:title=" ">
<polygon fill="#e0e0e0" stroke="#999999" points="566,-77.5 484,-77.5 484,-56.75 566,-56.75 566,-77.5"/>
<text text-anchor="middle" x="525" y="-64" font-family="Helvetica,sans-Serif" font-size="10.00">initializer_list</text>
</a>
</g>
</g>
<!-- Node9&#45;&gt;Node13 -->
<g id="edge17_Node000009_Node000013" class="edge">
<title>Node9&#45;&gt;Node13</title>
<g id="a_edge17_Node000009_Node000013"><a xlink:title=" ">
<path fill="none" stroke="#63b8ff" d="M506.93,-113.09C509.75,-106.08 513.64,-96.41 517.08,-87.83"/>
<polygon fill="#63b8ff" stroke="#63b8ff" points="520.62,-89.41 521.1,-78.83 514.12,-86.8 520.62,-89.41"/>
</a>
</g>
</g>
<!-- Node9&#45;&gt;Node14 -->
<g id="edge19_Node000009_Node000014" class="edge">
<title>Node9&#45;&gt;Node14</title>
<g id="a_edge19_Node000009_Node000014"><a xlink:title=" ">
<path fill="none" stroke="#63b8ff" d="M533.75,-113.09C563.83,-103.51 609.55,-88.96 640.77,-79.02"/>
<polygon fill="#63b8ff" stroke="#63b8ff" points="641.69,-82.08 650.16,-75.71 639.57,-75.41 641.69,-82.08"/>
</a>
</g>
</g>
<!-- Node15 -->
<g id="Node000015" class="node">
<title>Node15</title>
<g id="a_Node000015"><a xlink:title=" ">
<polygon fill="#e0e0e0" stroke="#999999" points="633.5,-77.5 584.5,-77.5 584.5,-56.75 633.5,-56.75 633.5,-77.5"/>
<text text-anchor="middle" x="609" y="-64" font-family="Helvetica,sans-Serif" font-size="10.00">format</text>
</a>
</g>
</g>
<!-- Node9&#45;&gt;Node15 -->
<g id="edge20_Node000009_Node000015" class="edge">
<title>Node9&#45;&gt;Node15</title>
<g id="a_edge20_Node000009_Node000015"><a xlink:title=" ">
<path fill="none" stroke="#63b8ff" d="M521.95,-113.09C538.23,-104.68 561.94,-92.43 580.51,-82.84"/>
<polygon fill="#63b8ff" stroke="#63b8ff" points="581.93,-85.53 589.21,-77.83 578.72,-79.31 581.93,-85.53"/>
</a>
</g>
</g>
<!-- Node11 -->
<g id="Node000011" class="node">
<title>Node11</title>
<g id="a_Node000011"><a xlink:title=" ">
<polygon fill="#e0e0e0" stroke="#999999" points="415,-20.75 351,-20.75 351,0 415,0 415,-20.75"/>
<text text-anchor="middle" x="383" y="-7.25" font-family="Helvetica,sans-Serif" font-size="10.00">stdexcept</text>
</a>
</g>
</g>
<!-- Node10&#45;&gt;Node11 -->
<g id="edge15_Node000010_Node000011" class="edge">
<title>Node10&#45;&gt;Node11</title>
<g id="a_edge15_Node000010_Node000011"><a xlink:title=" ">
<path fill="none" stroke="#63b8ff" d="M412.56,-56.34C407.8,-49.1 401.17,-39.01 395.39,-30.22"/>
<polygon fill="#63b8ff" stroke="#63b8ff" points="397.8,-28.51 389.38,-22.08 391.95,-32.36 397.8,-28.51"/>
</a>
</g>
</g>
<!-- Node12 -->
<g id="Node000012" class="node">
<title>Node12</title>
<g id="a_Node000012"><a xlink:title=" ">
<polygon fill="#e0e0e0" stroke="#999999" points="476.88,-20.75 433.12,-20.75 433.12,0 476.88,0 476.88,-20.75"/>
<text text-anchor="middle" x="455" y="-7.25" font-family="Helvetica,sans-Serif" font-size="10.00">string</text>
</a>
</g>
</g>
<!-- Node10&#45;&gt;Node12 -->
<g id="edge16_Node000010_Node000012" class="edge">
<title>Node10&#45;&gt;Node12</title>
<g id="a_edge16_Node000010_Node000012"><a xlink:title=" ">
<path fill="none" stroke="#63b8ff" d="M425.44,-56.34C430.2,-49.1 436.83,-39.01 442.61,-30.22"/>
<polygon fill="#63b8ff" stroke="#63b8ff" points="446.05,-32.36 448.62,-22.08 440.2,-28.51 446.05,-32.36"/>
</a>
</g>
</g>
<!-- Node17&#45;&gt;Node2 -->
<g id="edge26_Node000017_Node000002" class="edge">
<title>Node17&#45;&gt;Node2</title>
<g id="a_edge26_Node000017_Node000002"><a xlink:title=" ">
<path fill="none" stroke="#63b8ff" d="M499.62,-248.08C494.23,-255.76 484.79,-266.69 475.78,-275.86"/>
<polygon fill="#63b8ff" stroke="#63b8ff" points="473.81,-272.86 469.08,-282.34 478.69,-277.88 473.81,-272.86"/>
</a>
</g>
</g>
<!-- Node17&#45;&gt;Node5 -->
<g id="edge25_Node000017_Node000005" class="edge">
<title>Node17&#45;&gt;Node5</title>
<g id="a_edge25_Node000017_Node000005"><a xlink:title=" ">
<path fill="none" stroke="#63b8ff" d="M485.3,-226.59C470.24,-218.26 448.36,-206.16 431.09,-196.61"/>
<polygon fill="#63b8ff" stroke="#63b8ff" points="432.99,-193.11 422.55,-191.33 429.6,-199.23 432.99,-193.11"/>
</a>
</g>
</g>
<!-- Node17&#45;&gt;Node14 -->
<g id="edge27_Node000017_Node000014" class="edge">
<title>Node17&#45;&gt;Node14</title>
<g id="a_edge27_Node000017_Node000014"><a xlink:title=" ">
<path fill="none" stroke="#63b8ff" d="M503.59,-226.59C504.95,-212.46 509.4,-186.28 524,-170.25 551.63,-139.92 574.99,-157.19 609,-134.25 629.04,-120.73 648.12,-100.53 660.56,-86.02"/>
<polygon fill="#63b8ff" stroke="#63b8ff" points="663.68,-88.75 667.4,-78.83 658.31,-84.26 663.68,-88.75"/>
</a>
</g>
</g>
<!-- Node17&#45;&gt;Node18 -->
<g id="edge28_Node000017_Node000018" class="edge">
<title>Node17&#45;&gt;Node18</title>
<g id="a_edge28_Node000017_Node000018"><a xlink:title=" ">
<path fill="none" stroke="#63b8ff" d="M524.63,-226.59C543.56,-218.02 571.29,-205.48 592.65,-195.81"/>
<polygon fill="#63b8ff" stroke="#63b8ff" points="593.89,-198.64 601.55,-191.33 591,-192.26 593.89,-198.64"/>
</a>
</g>
</g>
<!-- Node19 -->
<g id="Node000019" class="node">
<title>Node19</title>
<g id="a_Node000019"><a xlink:title=" ">
<polygon fill="#e0e0e0" stroke="#999999" points="576.88,-191 533.12,-191 533.12,-170.25 576.88,-170.25 576.88,-191"/>
<text text-anchor="middle" x="555" y="-177.5" font-family="Helvetica,sans-Serif" font-size="10.00">limits</text>
</a>
</g>
</g>
<!-- Node17&#45;&gt;Node19 -->
<g id="edge29_Node000017_Node000019" class="edge">
<title>Node17&#45;&gt;Node19</title>
<g id="a_edge29_Node000017_Node000019"><a xlink:title=" ">
<path fill="none" stroke="#63b8ff" d="M512.3,-226.59C519.54,-218.96 529.79,-208.17 538.43,-199.07"/>
<polygon fill="#63b8ff" stroke="#63b8ff" points="540.44,-201.99 544.78,-192.33 535.36,-197.17 540.44,-201.99"/>
</a>
</g>
</g>
</g>
</svg>
