<?xml version="1.0" encoding="UTF-8" standalone="no"?>
<!DOCTYPE svg PUBLIC "-//W3C//DTD SVG 1.1//EN"
 "http://www.w3.org/Graphics/SVG/1.1/DTD/svg11.dtd">
<!-- Generated by graphviz version 8.1.0 (20230707.0739)
 -->
<!-- Title: paser/ErrorHandler.cpp Pages: 1 -->
<svg width="184pt" height="142pt"
 viewBox="0.00 0.00 183.62 142.25" xmlns="http://www.w3.org/2000/svg" xmlns:xlink="http://www.w3.org/1999/xlink">
<g id="graph0" class="graph" transform="scale(1 1) rotate(0) translate(4 138.25)">
<title>paser/ErrorHandler.cpp</title>
<!-- Node1 -->
<g id="Node000001" class="node">
<title>Node1</title>
<g id="a_Node000001"><a xlink:title=" ">
<polygon fill="#999999" stroke="#666666" points="160.38,-134.25 33.37,-134.25 33.37,-113.5 160.38,-113.5 160.38,-134.25"/>
<text text-anchor="middle" x="96.88" y="-120.75" font-family="Helvetica,sans-Serif" font-size="10.00">paser/ErrorHandler.cpp</text>
</a>
</g>
</g>
<!-- Node2 -->
<g id="Node000002" class="node">
<title>Node2</title>
<g id="a_Node000002"><a xlink:href="ErrorHandler_8hpp.html" target="_top" xlink:title=" ">
<polygon fill="white" stroke="#666666" points="97.75,-77.5 0,-77.5 0,-56.75 97.75,-56.75 97.75,-77.5"/>
<text text-anchor="middle" x="48.88" y="-64" font-family="Helvetica,sans-Serif" font-size="10.00">ErrorHandler.hpp</text>
</a>
</g>
</g>
<!-- Node1&#45;&gt;Node2 -->
<g id="edge1_Node000001_Node000002" class="edge">
<title>Node1&#45;&gt;Node2</title>
<g id="a_edge1_Node000001_Node000002"><a xlink:title=" ">
<path fill="none" stroke="#63b8ff" d="M88.29,-113.09C81.67,-105.53 72.34,-94.89 64.41,-85.85"/>
<polygon fill="#63b8ff" stroke="#63b8ff" points="66.61,-84.04 57.38,-78.83 61.34,-88.66 66.61,-84.04"/>
</a>
</g>
</g>
<!-- Node4 -->
<g id="Node000004" class="node">
<title>Node4</title>
<g id="a_Node000004"><a xlink:title=" ">
<polygon fill="#e0e0e0" stroke="#999999" points="175.62,-77.5 116.12,-77.5 116.12,-56.75 175.62,-56.75 175.62,-77.5"/>
<text text-anchor="middle" x="145.88" y="-64" font-family="Helvetica,sans-Serif" font-size="10.00">iostream</text>
</a>
</g>
</g>
<!-- Node1&#45;&gt;Node4 -->
<g id="edge3_Node000001_Node000004" class="edge">
<title>Node1&#45;&gt;Node4</title>
<g id="a_edge3_Node000001_Node000004"><a xlink:title=" ">
<path fill="none" stroke="#63b8ff" d="M105.64,-113.09C112.39,-105.53 121.92,-94.89 130.01,-85.85"/>
<polygon fill="#63b8ff" stroke="#63b8ff" points="132.13,-88.61 136.19,-78.83 126.91,-83.95 132.13,-88.61"/>
</a>
</g>
</g>
<!-- Node3 -->
<g id="Node000003" class="node">
<title>Node3</title>
<g id="a_Node000003"><a xlink:title=" ">
<polygon fill="#e0e0e0" stroke="#999999" points="70.75,-20.75 27,-20.75 27,0 70.75,0 70.75,-20.75"/>
<text text-anchor="middle" x="48.88" y="-7.25" font-family="Helvetica,sans-Serif" font-size="10.00">string</text>
</a>
</g>
</g>
<!-- Node2&#45;&gt;Node3 -->
<g id="edge2_Node000002_Node000003" class="edge">
<title>Node2&#45;&gt;Node3</title>
<g id="a_edge2_Node000002_Node000003"><a xlink:title=" ">
<path fill="none" stroke="#63b8ff" d="M48.88,-56.34C48.88,-49.56 48.88,-40.3 48.88,-31.94"/>
<polygon fill="#63b8ff" stroke="#63b8ff" points="52.38,-32.08 48.88,-22.08 45.38,-32.08 52.38,-32.08"/>
</a>
</g>
</g>
</g>
</svg>
