<?xml version="1.0" encoding="UTF-8" standalone="no"?>
<!DOCTYPE svg PUBLIC "-//W3C//DTD SVG 1.1//EN"
 "http://www.w3.org/Graphics/SVG/1.1/DTD/svg11.dtd">
<!-- Generated by graphviz version 8.1.0 (20230707.0739)
 -->
<!-- Title: paser/ErrorHandler.hpp Pages: 1 -->
<svg width="478pt" height="142pt"
 viewBox="0.00 0.00 477.50 142.25" xmlns="http://www.w3.org/2000/svg" xmlns:xlink="http://www.w3.org/1999/xlink">
<g id="graph0" class="graph" transform="scale(1 1) rotate(0) translate(4 138.25)">
<title>paser/ErrorHandler.hpp</title>
<!-- Node1 -->
<g id="Node000001" class="node">
<title>Node1</title>
<g id="a_Node000001"><a xlink:title=" ">
<polygon fill="#999999" stroke="#666666" points="315.38,-134.25 187.62,-134.25 187.62,-113.5 315.38,-113.5 315.38,-134.25"/>
<text text-anchor="middle" x="251.5" y="-120.75" font-family="Helvetica,sans-Serif" font-size="10.00">paser/ErrorHandler.hpp</text>
</a>
</g>
</g>
<!-- Node2 -->
<g id="Node000002" class="node">
<title>Node2</title>
<g id="a_Node000002"><a xlink:href="ErrorHandler_8cpp.html" target="_top" xlink:title=" ">
<polygon fill="white" stroke="#666666" points="127,-77.5 0,-77.5 0,-56.75 127,-56.75 127,-77.5"/>
<text text-anchor="middle" x="63.5" y="-64" font-family="Helvetica,sans-Serif" font-size="10.00">paser/ErrorHandler.cpp</text>
</a>
</g>
</g>
<!-- Node1&#45;&gt;Node2 -->
<g id="edge1_Node000001_Node000002" class="edge">
<title>Node1&#45;&gt;Node2</title>
<g id="a_edge1_Node000001_Node000002"><a xlink:title=" ">
<path fill="none" stroke="#63b8ff" d="M207.4,-110.03C173.69,-100.22 127.93,-86.89 97.14,-77.92"/>
<polygon fill="#63b8ff" stroke="#63b8ff" points="206.31,-113.65 216.89,-113.09 208.27,-106.93 206.31,-113.65"/>
</a>
</g>
</g>
<!-- Node3 -->
<g id="Node000003" class="node">
<title>Node3</title>
<g id="a_Node000003"><a xlink:href="Primitive__fact_8cpp.html" target="_top" xlink:title=" ">
<polygon fill="white" stroke="#666666" points="252.75,-20.75 118.25,-20.75 118.25,0 252.75,0 252.75,-20.75"/>
<text text-anchor="middle" x="185.5" y="-7.25" font-family="Helvetica,sans-Serif" font-size="10.00">paser/Primitive_fact.cpp</text>
</a>
</g>
</g>
<!-- Node1&#45;&gt;Node3 -->
<g id="edge2_Node000001_Node000003" class="edge">
<title>Node1&#45;&gt;Node3</title>
<g id="a_edge2_Node000001_Node000003"><a xlink:title=" ">
<path fill="none" stroke="#63b8ff" d="M210.77,-108.7C196.72,-101.63 182.51,-91.51 174.5,-77.5 164.22,-59.51 173.56,-34.57 180.2,-21.04"/>
<polygon fill="#63b8ff" stroke="#63b8ff" points="208.84,-112.13 219.39,-113.12 211.76,-105.77 208.84,-112.13"/>
</a>
</g>
</g>
<!-- Node4 -->
<g id="Node000004" class="node">
<title>Node4</title>
<g id="a_Node000004"><a xlink:href="Primitive__fact_8hpp.html" target="_top" xlink:title=" ">
<polygon fill="white" stroke="#666666" points="319.12,-77.5 183.88,-77.5 183.88,-56.75 319.12,-56.75 319.12,-77.5"/>
<text text-anchor="middle" x="251.5" y="-64" font-family="Helvetica,sans-Serif" font-size="10.00">paser/Primitive_fact.hpp</text>
</a>
</g>
</g>
<!-- Node1&#45;&gt;Node4 -->
<g id="edge3_Node000001_Node000004" class="edge">
<title>Node1&#45;&gt;Node4</title>
<g id="a_edge3_Node000001_Node000004"><a xlink:title=" ">
<path fill="none" stroke="#63b8ff" d="M251.5,-102.21C251.5,-93.84 251.5,-84.58 251.5,-77.83"/>
<polygon fill="#63b8ff" stroke="#63b8ff" points="248,-102.09 251.5,-112.09 255,-102.09 248,-102.09"/>
</a>
</g>
</g>
<!-- Node5 -->
<g id="Node000005" class="node">
<title>Node5</title>
<g id="a_Node000005"><a xlink:href="parse_8cpp.html" target="_top" xlink:title=" ">
<polygon fill="white" stroke="#666666" points="394.12,-20.75 300.88,-20.75 300.88,0 394.12,0 394.12,-20.75"/>
<text text-anchor="middle" x="347.5" y="-7.25" font-family="Helvetica,sans-Serif" font-size="10.00">paser/parse.cpp</text>
</a>
</g>
</g>
<!-- Node1&#45;&gt;Node5 -->
<g id="edge6_Node000001_Node000005" class="edge">
<title>Node1&#45;&gt;Node5</title>
<g id="a_edge6_Node000001_Node000005"><a xlink:title=" ">
<path fill="none" stroke="#63b8ff" d="M287.99,-108.54C302.45,-101.21 318.08,-90.96 328.5,-77.5 341.67,-60.5 345.71,-34.72 346.95,-20.9"/>
<polygon fill="#63b8ff" stroke="#63b8ff" points="286.79,-105.71 279.25,-113.15 289.78,-112.03 286.79,-105.71"/>
</a>
</g>
</g>
<!-- Node6 -->
<g id="Node000006" class="node">
<title>Node6</title>
<g id="a_Node000006"><a xlink:href="parse_8hpp.html" target="_top" xlink:title=" ">
<polygon fill="white" stroke="#666666" points="469.5,-77.5 375.5,-77.5 375.5,-56.75 469.5,-56.75 469.5,-77.5"/>
<text text-anchor="middle" x="422.5" y="-64" font-family="Helvetica,sans-Serif" font-size="10.00">paser/parse.hpp</text>
</a>
</g>
</g>
<!-- Node1&#45;&gt;Node6 -->
<g id="edge7_Node000001_Node000006" class="edge">
<title>Node1&#45;&gt;Node6</title>
<g id="a_edge7_Node000001_Node000006"><a xlink:title=" ">
<path fill="none" stroke="#63b8ff" d="M292.41,-109.78C322.99,-99.99 364.14,-86.81 391.91,-77.92"/>
<polygon fill="#63b8ff" stroke="#63b8ff" points="291.53,-106.7 283.07,-113.09 293.66,-113.37 291.53,-106.7"/>
</a>
</g>
</g>
<!-- Node4&#45;&gt;Node3 -->
<g id="edge4_Node000004_Node000003" class="edge">
<title>Node4&#45;&gt;Node3</title>
<g id="a_edge4_Node000004_Node000003"><a xlink:title=" ">
<path fill="none" stroke="#63b8ff" d="M231.35,-49.41C220.17,-40.13 206.65,-28.92 197.2,-21.08"/>
<polygon fill="#63b8ff" stroke="#63b8ff" points="228.77,-52.65 238.7,-56.34 233.24,-47.26 228.77,-52.65"/>
</a>
</g>
</g>
<!-- Node4&#45;&gt;Node5 -->
<g id="edge5_Node000004_Node000005" class="edge">
<title>Node4&#45;&gt;Node5</title>
<g id="a_edge5_Node000004_Node000005"><a xlink:title=" ">
<path fill="none" stroke="#63b8ff" d="M277.94,-51.04C294.72,-41.48 315.92,-29.38 330.49,-21.08"/>
<polygon fill="#63b8ff" stroke="#63b8ff" points="276.62,-48.34 269.66,-56.34 280.08,-54.42 276.62,-48.34"/>
</a>
</g>
</g>
<!-- Node6&#45;&gt;Node5 -->
<g id="edge8_Node000006_Node000005" class="edge">
<title>Node6&#45;&gt;Node5</title>
<g id="a_edge8_Node000006_Node000005"><a xlink:title=" ">
<path fill="none" stroke="#63b8ff" d="M400.36,-49.96C387.51,-40.58 371.74,-29.07 360.79,-21.08"/>
<polygon fill="#63b8ff" stroke="#63b8ff" points="397.95,-53.27 408.09,-56.34 402.08,-47.61 397.95,-53.27"/>
</a>
</g>
</g>
</g>
</svg>
