<?xml version="1.0" encoding="UTF-8" standalone="no"?>
<!DOCTYPE svg PUBLIC "-//W3C//DTD SVG 1.1//EN"
 "http://www.w3.org/Graphics/SVG/1.1/DTD/svg11.dtd">
<!-- Generated by graphviz version 8.1.0 (20230707.0739)
 -->
<!-- Title: src/core/designPatterns/Factory.hpp Pages: 1 -->
<svg width="1094pt" height="464pt"
 viewBox="0.00 0.00 1093.75 464.25" xmlns="http://www.w3.org/2000/svg" xmlns:xlink="http://www.w3.org/1999/xlink">
<g id="graph0" class="graph" transform="scale(1 1) rotate(0) translate(4 460.25)">
<title>src/core/designPatterns/Factory.hpp</title>
<!-- Node1 -->
<g id="Node000001" class="node">
<title>Node1</title>
<g id="a_Node000001"><a xlink:title=" ">
<polygon fill="#999999" stroke="#666666" points="631.62,-456.25 502.38,-456.25 502.38,-422.75 631.62,-422.75 631.62,-456.25"/>
<text text-anchor="start" x="510.38" y="-442.75" font-family="Helvetica,sans-Serif" font-size="10.00">src/core/designPatterns</text>
<text text-anchor="middle" x="567" y="-430" font-family="Helvetica,sans-Serif" font-size="10.00">/Factory.hpp</text>
</a>
</g>
</g>
<!-- Node2 -->
<g id="Node000002" class="node">
<title>Node2</title>
<g id="a_Node000002"><a xlink:href="DirectionalLight_8hpp.html" target="_top" xlink:title=" ">
<polygon fill="white" stroke="#666666" points="519.62,-386.75 378.38,-386.75 378.38,-353.25 519.62,-353.25 519.62,-386.75"/>
<text text-anchor="start" x="386.38" y="-373.25" font-family="Helvetica,sans-Serif" font-size="10.00">../../lights/directional</text>
<text text-anchor="middle" x="449" y="-360.5" font-family="Helvetica,sans-Serif" font-size="10.00">Light/DirectionalLight.hpp</text>
</a>
</g>
</g>
<!-- Node1&#45;&gt;Node2 -->
<g id="edge1_Node000001_Node000002" class="edge">
<title>Node1&#45;&gt;Node2</title>
<g id="a_edge1_Node000001_Node000002"><a xlink:title=" ">
<path fill="none" stroke="#63b8ff" d="M538.74,-422.33C522.97,-413.32 503.15,-401.98 486.15,-392.25"/>
<polygon fill="#63b8ff" stroke="#63b8ff" points="488.45,-388.96 478.03,-387.04 484.98,-395.04 488.45,-388.96"/>
</a>
</g>
</g>
<!-- Node3 -->
<g id="Node000003" class="node">
<title>Node3</title>
<g id="a_Node000003"><a xlink:href="ILight_8hpp.html" target="_top" xlink:title=" ">
<polygon fill="white" stroke="#666666" points="322.5,-317.25 249.5,-317.25 249.5,-296.5 322.5,-296.5 322.5,-317.25"/>
<text text-anchor="middle" x="286" y="-303.75" font-family="Helvetica,sans-Serif" font-size="10.00">../ILight.hpp</text>
</a>
</g>
</g>
<!-- Node1&#45;&gt;Node3 -->
<g id="edge34_Node000001_Node000003" class="edge">
<title>Node1&#45;&gt;Node3</title>
<g id="a_edge34_Node000001_Node000003"><a xlink:title=" ">
<path fill="none" stroke="#63b8ff" d="M501.94,-429.97C461.73,-422.7 410.14,-409.64 369,-386.75 361.38,-382.51 325.17,-346.99 303.17,-325.08"/>
<polygon fill="#63b8ff" stroke="#63b8ff" points="306.08,-323.04 296.53,-318.45 301.13,-327.99 306.08,-323.04"/>
</a>
</g>
</g>
<!-- Node4 -->
<g id="Node000004" class="node">
<title>Node4</title>
<g id="a_Node000004"><a xlink:title=" ">
<polygon fill="#e0e0e0" stroke="#999999" points="272.75,-20.75 213.25,-20.75 213.25,0 272.75,0 272.75,-20.75"/>
<text text-anchor="middle" x="243" y="-7.25" font-family="Helvetica,sans-Serif" font-size="10.00">iostream</text>
</a>
</g>
</g>
<!-- Node1&#45;&gt;Node4 -->
<g id="edge53_Node000001_Node000004" class="edge">
<title>Node1&#45;&gt;Node4</title>
<g id="a_edge53_Node000001_Node000004"><a xlink:title=" ">
<path fill="none" stroke="#63b8ff" d="M501.96,-437.13C353.03,-432.25 0,-409.9 0,-307.88 0,-307.88 0,-307.88 0,-122.88 0,-34.94 133.09,-16.09 202.28,-12.23"/>
<polygon fill="#63b8ff" stroke="#63b8ff" points="202.38,-15.69 212.2,-11.72 202.05,-8.69 202.38,-15.69"/>
</a>
</g>
</g>
<!-- Node6 -->
<g id="Node000006" class="node">
<title>Node6</title>
<g id="a_Node000006"><a xlink:href="IPrimitive_8hpp.html" target="_top" xlink:title=" ">
<polygon fill="white" stroke="#666666" points="539.88,-191 394.12,-191 394.12,-170.25 539.88,-170.25 539.88,-191"/>
<text text-anchor="middle" x="467" y="-177.5" font-family="Helvetica,sans-Serif" font-size="10.00">../primitives/IPrimitive.hpp</text>
</a>
</g>
</g>
<!-- Node1&#45;&gt;Node6 -->
<g id="edge45_Node000001_Node000006" class="edge">
<title>Node1&#45;&gt;Node6</title>
<g id="a_edge45_Node000001_Node000006"><a xlink:title=" ">
<path fill="none" stroke="#63b8ff" d="M560.74,-422.43C543.25,-377.49 493.86,-250.61 474.71,-201.44"/>
<polygon fill="#63b8ff" stroke="#63b8ff" points="477.71,-200.49 470.82,-192.44 471.19,-203.03 477.71,-200.49"/>
</a>
</g>
</g>
<!-- Node19 -->
<g id="Node000019" class="node">
<title>Node19</title>
<g id="a_Node000019"><a xlink:title=" ">
<polygon fill="#e0e0e0" stroke="#999999" points="237.62,-191 180.38,-191 180.38,-170.25 237.62,-170.25 237.62,-191"/>
<text text-anchor="middle" x="209" y="-177.5" font-family="Helvetica,sans-Serif" font-size="10.00">memory</text>
</a>
</g>
</g>
<!-- Node1&#45;&gt;Node19 -->
<g id="edge54_Node000001_Node000019" class="edge">
<title>Node1&#45;&gt;Node19</title>
<g id="a_edge54_Node000001_Node000019"><a xlink:title=" ">
<path fill="none" stroke="#63b8ff" d="M501.89,-438.96C407.5,-438.09 239.71,-430.26 201,-386.75 154.45,-334.42 184.08,-241.55 200.37,-201.22"/>
<polygon fill="#63b8ff" stroke="#63b8ff" points="203.88,-202.89 204.53,-192.32 197.43,-200.18 203.88,-202.89"/>
</a>
</g>
</g>
<!-- Node21 -->
<g id="Node000021" class="node">
<title>Node21</title>
<g id="a_Node000021"><a xlink:href="PointLight_8hpp.html" target="_top" xlink:title=" ">
<polygon fill="white" stroke="#666666" points="322.38,-386.75 209.62,-386.75 209.62,-353.25 322.38,-353.25 322.38,-386.75"/>
<text text-anchor="start" x="217.62" y="-373.25" font-family="Helvetica,sans-Serif" font-size="10.00">../../lights/pointLight</text>
<text text-anchor="middle" x="266" y="-360.5" font-family="Helvetica,sans-Serif" font-size="10.00">/PointLight.hpp</text>
</a>
</g>
</g>
<!-- Node1&#45;&gt;Node21 -->
<g id="edge35_Node000001_Node000021" class="edge">
<title>Node1&#45;&gt;Node21</title>
<g id="a_edge35_Node000001_Node000021"><a xlink:title=" ">
<path fill="none" stroke="#63b8ff" d="M502.27,-424.02C455.96,-413.65 392.14,-399.35 336,-386.75 335.04,-386.54 334.08,-386.32 333.11,-386.1"/>
<polygon fill="#63b8ff" stroke="#63b8ff" points="334.07,-382.5 323.54,-383.73 332.53,-389.33 334.07,-382.5"/>
</a>
</g>
</g>
<!-- Node22 -->
<g id="Node000022" class="node">
<title>Node22</title>
<g id="a_Node000022"><a xlink:href="Cone_8hpp.html" target="_top" xlink:title=" ">
<polygon fill="white" stroke="#666666" points="671.88,-260.5 562.12,-260.5 562.12,-227 671.88,-227 671.88,-260.5"/>
<text text-anchor="start" x="570.12" y="-247" font-family="Helvetica,sans-Serif" font-size="10.00">../../primitives/cone</text>
<text text-anchor="middle" x="617" y="-234.25" font-family="Helvetica,sans-Serif" font-size="10.00">/Cone.hpp</text>
</a>
</g>
</g>
<!-- Node1&#45;&gt;Node22 -->
<g id="edge39_Node000001_Node000022" class="edge">
<title>Node1&#45;&gt;Node22</title>
<g id="a_edge39_Node000001_Node000022"><a xlink:title=" ">
<path fill="none" stroke="#63b8ff" d="M571.18,-422.31C579.8,-388.89 599.65,-311.99 610.17,-271.23"/>
<polygon fill="#63b8ff" stroke="#63b8ff" points="613.76,-272.31 612.87,-261.75 606.98,-270.56 613.76,-272.31"/>
</a>
</g>
</g>
<!-- Node23 -->
<g id="Node000023" class="node">
<title>Node23</title>
<g id="a_Node000023"><a xlink:href="Cylinder_8hpp.html" target="_top" xlink:title=" ">
<polygon fill="white" stroke="#666666" points="815.75,-260.5 690.25,-260.5 690.25,-227 815.75,-227 815.75,-260.5"/>
<text text-anchor="start" x="698.25" y="-247" font-family="Helvetica,sans-Serif" font-size="10.00">../../primitives/cylinder</text>
<text text-anchor="middle" x="753" y="-234.25" font-family="Helvetica,sans-Serif" font-size="10.00">/Cylinder.hpp</text>
</a>
</g>
</g>
<!-- Node1&#45;&gt;Node23 -->
<g id="edge42_Node000001_Node000023" class="edge">
<title>Node1&#45;&gt;Node23</title>
<g id="a_edge42_Node000001_Node000023"><a xlink:title=" ">
<path fill="none" stroke="#63b8ff" d="M576.92,-422.27C583.07,-412.11 591.1,-398.73 598,-386.75 620.9,-347.02 614.81,-328.14 648,-296.5 661.53,-283.61 678.88,-273.3 695.57,-265.38"/>
<polygon fill="#63b8ff" stroke="#63b8ff" points="696.61,-268.3 704.29,-261 693.73,-261.92 696.61,-268.3"/>
</a>
</g>
</g>
<!-- Node24 -->
<g id="Node000024" class="node">
<title>Node24</title>
<g id="a_Node000024"><a xlink:href="Plane_8hpp.html" target="_top" xlink:title=" ">
<polygon fill="white" stroke="#666666" points="947.75,-260.5 834.25,-260.5 834.25,-227 947.75,-227 947.75,-260.5"/>
<text text-anchor="start" x="842.25" y="-247" font-family="Helvetica,sans-Serif" font-size="10.00">../../primitives/plane</text>
<text text-anchor="middle" x="891" y="-234.25" font-family="Helvetica,sans-Serif" font-size="10.00">/Plane.hpp</text>
</a>
</g>
</g>
<!-- Node1&#45;&gt;Node24 -->
<g id="edge46_Node000001_Node000024" class="edge">
<title>Node1&#45;&gt;Node24</title>
<g id="a_edge46_Node000001_Node000024"><a xlink:title=" ">
<path fill="none" stroke="#63b8ff" d="M584.52,-422.33C594.93,-412.42 608.17,-399.27 619,-386.75 651.68,-348.97 644.48,-324.28 686,-296.5 688.99,-294.5 765.03,-275.58 823.63,-261.19"/>
<polygon fill="#63b8ff" stroke="#63b8ff" points="824.1,-264.44 832.98,-258.66 822.43,-257.64 824.1,-264.44"/>
</a>
</g>
</g>
<!-- Node25 -->
<g id="Node000025" class="node">
<title>Node25</title>
<g id="a_Node000025"><a xlink:href="Sphere_8hpp.html" target="_top" xlink:title=" ">
<polygon fill="white" stroke="#666666" points="1085.75,-260.5 966.25,-260.5 966.25,-227 1085.75,-227 1085.75,-260.5"/>
<text text-anchor="start" x="974.25" y="-247" font-family="Helvetica,sans-Serif" font-size="10.00">../../primitives/sphere</text>
<text text-anchor="middle" x="1026" y="-234.25" font-family="Helvetica,sans-Serif" font-size="10.00">/Sphere.hpp</text>
</a>
</g>
</g>
<!-- Node1&#45;&gt;Node25 -->
<g id="edge49_Node000001_Node000025" class="edge">
<title>Node1&#45;&gt;Node25</title>
<g id="a_edge49_Node000001_Node000025"><a xlink:title=" ">
<path fill="none" stroke="#63b8ff" d="M592.65,-422.31C622.32,-404.03 672.98,-374.1 719,-353.25 800.33,-316.4 898.18,-283.72 961.19,-264.09"/>
<polygon fill="#63b8ff" stroke="#63b8ff" points="961.87,-267.23 970.38,-260.93 959.79,-260.55 961.87,-267.23"/>
</a>
</g>
</g>
<!-- Node26 -->
<g id="Node000026" class="node">
<title>Node26</title>
<g id="a_Node000026"><a xlink:title=" ">
<polygon fill="#e0e0e0" stroke="#999999" points="792.38,-380.38 727.62,-380.38 727.62,-359.62 792.38,-359.62 792.38,-380.38"/>
<text text-anchor="middle" x="760" y="-366.88" font-family="Helvetica,sans-Serif" font-size="10.00">functional</text>
</a>
</g>
</g>
<!-- Node1&#45;&gt;Node26 -->
<g id="edge52_Node000001_Node000026" class="edge">
<title>Node1&#45;&gt;Node26</title>
<g id="a_edge52_Node000001_Node000026"><a xlink:title=" ">
<path fill="none" stroke="#63b8ff" d="M613.23,-422.33C646.39,-410.73 690.55,-395.29 721.73,-384.38"/>
<polygon fill="#63b8ff" stroke="#63b8ff" points="722.5,-387.47 730.78,-380.87 720.19,-380.87 722.5,-387.47"/>
</a>
</g>
</g>
<!-- Node27 -->
<g id="Node000027" class="node">
<title>Node27</title>
<g id="a_Node000027"><a xlink:title=" ">
<polygon fill="#e0e0e0" stroke="#999999" points="903.25,-380.38 810.75,-380.38 810.75,-359.62 903.25,-359.62 903.25,-380.38"/>
<text text-anchor="middle" x="857" y="-366.88" font-family="Helvetica,sans-Serif" font-size="10.00">unordered_map</text>
</a>
</g>
</g>
<!-- Node1&#45;&gt;Node27 -->
<g id="edge55_Node000001_Node000027" class="edge">
<title>Node1&#45;&gt;Node27</title>
<g id="a_edge55_Node000001_Node000027"><a xlink:title=" ">
<path fill="none" stroke="#63b8ff" d="M632.04,-425.15C679.12,-415.23 744.2,-401.01 801,-386.75 804.85,-385.78 808.84,-384.74 812.83,-383.67"/>
<polygon fill="#63b8ff" stroke="#63b8ff" points="813.6,-386.82 822.32,-380.8 811.75,-380.07 813.6,-386.82"/>
</a>
</g>
</g>
<!-- Node2&#45;&gt;Node3 -->
<g id="edge2_Node000002_Node000003" class="edge">
<title>Node2&#45;&gt;Node3</title>
<g id="a_edge2_Node000002_Node000003"><a xlink:title=" ">
<path fill="none" stroke="#63b8ff" d="M405.75,-352.78C379.67,-343 346.83,-330.69 322.15,-321.43"/>
<polygon fill="#63b8ff" stroke="#63b8ff" points="323.7,-317.9 313.11,-317.67 321.24,-324.45 323.7,-317.9"/>
</a>
</g>
</g>
<!-- Node2&#45;&gt;Node4 -->
<g id="edge32_Node000002_Node000004" class="edge">
<title>Node2&#45;&gt;Node4</title>
<g id="a_edge32_Node000002_Node000004"><a xlink:title=" ">
<path fill="none" stroke="#63b8ff" d="M439.88,-353.17C406.4,-295.04 290.26,-93.42 253.94,-30.37"/>
<polygon fill="#63b8ff" stroke="#63b8ff" points="256.67,-29.1 248.65,-22.18 250.6,-32.59 256.67,-29.1"/>
</a>
</g>
</g>
<!-- Node17 -->
<g id="Node000017" class="node">
<title>Node17</title>
<g id="a_Node000017"><a xlink:title=" ">
<polygon fill="#e0e0e0" stroke="#999999" points="799.88,-134.25 762.12,-134.25 762.12,-113.5 799.88,-113.5 799.88,-134.25"/>
<text text-anchor="middle" x="781" y="-120.75" font-family="Helvetica,sans-Serif" font-size="10.00">map</text>
</a>
</g>
</g>
<!-- Node2&#45;&gt;Node17 -->
<g id="edge33_Node000002_Node000017" class="edge">
<title>Node2&#45;&gt;Node17</title>
<g id="a_edge33_Node000002_Node000017"><a xlink:title=" ">
<path fill="none" stroke="#63b8ff" d="M457.17,-352.83C472.43,-324.04 507.85,-263.5 553,-227 585.42,-200.79 697.74,-156.35 751.66,-135.84"/>
<polygon fill="#63b8ff" stroke="#63b8ff" points="752.81,-138.77 760.93,-131.96 750.34,-132.22 752.81,-138.77"/>
</a>
</g>
</g>
<!-- Node3&#45;&gt;Node4 -->
<g id="edge3_Node000003_Node000004" class="edge">
<title>Node3&#45;&gt;Node4</title>
<g id="a_edge3_Node000003_Node000004"><a xlink:title=" ">
<path fill="none" stroke="#63b8ff" d="M249.21,-299.23C224.33,-293.02 192.25,-281.44 171,-260.5 127.77,-217.91 130.78,-193.78 119,-134.25 108.88,-83.11 168.35,-45.21 208.46,-25.86"/>
<polygon fill="#63b8ff" stroke="#63b8ff" points="209.84,-28.61 217.43,-21.23 206.89,-22.26 209.84,-28.61"/>
</a>
</g>
</g>
<!-- Node5 -->
<g id="Node000005" class="node">
<title>Node5</title>
<g id="a_Node000005"><a xlink:href="Color_8hpp.html" target="_top" xlink:title=" ">
<polygon fill="white" stroke="#666666" points="261.88,-134.25 128.12,-134.25 128.12,-113.5 261.88,-113.5 261.88,-134.25"/>
<text text-anchor="middle" x="195" y="-120.75" font-family="Helvetica,sans-Serif" font-size="10.00">../core/helpers/Color.hpp</text>
</a>
</g>
</g>
<!-- Node3&#45;&gt;Node5 -->
<g id="edge4_Node000003_Node000005" class="edge">
<title>Node3&#45;&gt;Node5</title>
<g id="a_edge4_Node000003_Node000005"><a xlink:title=" ">
<path fill="none" stroke="#63b8ff" d="M254.74,-296.12C236.1,-288.9 213.18,-277.37 198,-260.5 170,-229.37 160.92,-210.88 171,-170.25 173.27,-161.11 177.75,-151.78 182.24,-143.98"/>
<polygon fill="#63b8ff" stroke="#63b8ff" points="185.67,-146.09 187.95,-135.75 179.71,-142.41 185.67,-146.09"/>
</a>
</g>
</g>
<!-- Node3&#45;&gt;Node6 -->
<g id="edge6_Node000003_Node000006" class="edge">
<title>Node3&#45;&gt;Node6</title>
<g id="a_edge6_Node000003_Node000006"><a xlink:title=" ">
<path fill="none" stroke="#63b8ff" d="M303.79,-296.17C319.63,-287.35 343.28,-273.72 363,-260.5 393.03,-240.36 426.03,-214.69 446.63,-198.2"/>
<polygon fill="#63b8ff" stroke="#63b8ff" points="448.57,-200.32 454.17,-191.32 444.18,-194.87 448.57,-200.32"/>
</a>
</g>
</g>
<!-- Node18 -->
<g id="Node000018" class="node">
<title>Node18</title>
<g id="a_Node000018"><a xlink:href="World_8hpp.html" target="_top" xlink:title=" ">
<polygon fill="white" stroke="#666666" points="354.38,-254.12 217.62,-254.12 217.62,-233.38 354.38,-233.38 354.38,-254.12"/>
<text text-anchor="middle" x="286" y="-240.62" font-family="Helvetica,sans-Serif" font-size="10.00">../core/helpers/World.hpp</text>
</a>
</g>
</g>
<!-- Node3&#45;&gt;Node18 -->
<g id="edge25_Node000003_Node000018" class="edge">
<title>Node3&#45;&gt;Node18</title>
<g id="a_edge25_Node000003_Node000018"><a xlink:title=" ">
<path fill="none" stroke="#63b8ff" d="M280.89,-296.05C279.29,-287.72 278.86,-275.48 279.6,-265.05"/>
<polygon fill="#63b8ff" stroke="#63b8ff" points="283.17,-265.7 280.93,-255.34 276.22,-264.84 283.17,-265.7"/>
</a>
</g>
</g>
<!-- Node3&#45;&gt;Node19 -->
<g id="edge31_Node000003_Node000019" class="edge">
<title>Node3&#45;&gt;Node19</title>
<g id="a_edge31_Node000003_Node000019"><a xlink:title=" ">
<path fill="none" stroke="#63b8ff" d="M254.89,-296.12C238.1,-289.09 218.85,-277.74 209,-260.5 198.73,-242.53 200.59,-218.29 203.83,-201.44"/>
<polygon fill="#63b8ff" stroke="#63b8ff" points="207.37,-202.66 206.17,-192.13 200.54,-201.11 207.37,-202.66"/>
</a>
</g>
</g>
<!-- Node5&#45;&gt;Node4 -->
<g id="edge5_Node000005_Node000004" class="edge">
<title>Node5&#45;&gt;Node4</title>
<g id="a_edge5_Node000005_Node000004"><a xlink:title=" ">
<path fill="none" stroke="#63b8ff" d="M199.09,-113.37C206.92,-95.19 224.14,-55.17 234.54,-31.02"/>
<polygon fill="#63b8ff" stroke="#63b8ff" points="238.04,-32.74 238.78,-22.18 231.61,-29.98 238.04,-32.74"/>
</a>
</g>
</g>
<!-- Node6&#45;&gt;Node4 -->
<g id="edge22_Node000006_Node000004" class="edge">
<title>Node6&#45;&gt;Node4</title>
<g id="a_edge22_Node000006_Node000004"><a xlink:title=" ">
<path fill="none" stroke="#63b8ff" d="M454.34,-170.04C426.96,-149.31 360.17,-98.81 304,-56.75 291,-47.01 276.39,-36.15 264.74,-27.49"/>
<polygon fill="#63b8ff" stroke="#63b8ff" points="267.22,-24.24 257.11,-21.09 263.05,-29.86 267.22,-24.24"/>
</a>
</g>
</g>
<!-- Node6&#45;&gt;Node5 -->
<g id="edge7_Node000006_Node000005" class="edge">
<title>Node6&#45;&gt;Node5</title>
<g id="a_edge7_Node000006_Node000005"><a xlink:title=" ">
<path fill="none" stroke="#63b8ff" d="M418.06,-169.77C372.27,-160.56 303.77,-146.77 254.77,-136.91"/>
<polygon fill="#63b8ff" stroke="#63b8ff" points="255.5,-133.28 245.01,-134.74 254.12,-140.14 255.5,-133.28"/>
</a>
</g>
</g>
<!-- Node7 -->
<g id="Node000007" class="node">
<title>Node7</title>
<g id="a_Node000007"><a xlink:href="Ray_8hpp.html" target="_top" xlink:title=" ">
<polygon fill="white" stroke="#666666" points="558.12,-134.25 431.88,-134.25 431.88,-113.5 558.12,-113.5 558.12,-134.25"/>
<text text-anchor="middle" x="495" y="-120.75" font-family="Helvetica,sans-Serif" font-size="10.00">../core/helpers/Ray.hpp</text>
</a>
</g>
</g>
<!-- Node6&#45;&gt;Node7 -->
<g id="edge8_Node000006_Node000007" class="edge">
<title>Node6&#45;&gt;Node7</title>
<g id="a_edge8_Node000006_Node000007"><a xlink:title=" ">
<path fill="none" stroke="#63b8ff" d="M472.01,-169.84C475.63,-162.75 480.65,-152.94 485.07,-144.29"/>
<polygon fill="#63b8ff" stroke="#63b8ff" points="488.6,-146.08 490.04,-135.58 482.37,-142.89 488.6,-146.08"/>
</a>
</g>
</g>
<!-- Node8 -->
<g id="Node000008" class="node">
<title>Node8</title>
<g id="a_Node000008"><a xlink:href="Math_8hpp.html" target="_top" xlink:title=" ">
<polygon fill="white" stroke="#666666" points="544.62,-77.5 445.38,-77.5 445.38,-56.75 544.62,-56.75 544.62,-77.5"/>
<text text-anchor="middle" x="495" y="-64" font-family="Helvetica,sans-Serif" font-size="10.00">../math/Math.hpp</text>
</a>
</g>
</g>
<!-- Node6&#45;&gt;Node8 -->
<g id="edge12_Node000006_Node000008" class="edge">
<title>Node6&#45;&gt;Node8</title>
<g id="a_edge12_Node000006_Node000008"><a xlink:title=" ">
<path fill="none" stroke="#63b8ff" d="M515.09,-169.83C534.66,-163.22 555.38,-152.28 567,-134.25 580.49,-113.31 554.85,-94.64 530.5,-82.53"/>
<polygon fill="#63b8ff" stroke="#63b8ff" points="532.16,-78.97 521.62,-77.91 529.2,-85.31 532.16,-78.97"/>
</a>
</g>
</g>
<!-- Node10 -->
<g id="Node000010" class="node">
<title>Node10</title>
<g id="a_Node000010"><a xlink:href="Matrix_8hpp.html" target="_top" xlink:title=" ">
<polygon fill="white" stroke="#666666" points="744,-134.25 614,-134.25 614,-113.5 744,-113.5 744,-134.25"/>
<text text-anchor="middle" x="679" y="-120.75" font-family="Helvetica,sans-Serif" font-size="10.00">../core/math/Matrix.hpp</text>
</a>
</g>
</g>
<!-- Node6&#45;&gt;Node10 -->
<g id="edge13_Node000006_Node000010" class="edge">
<title>Node6&#45;&gt;Node10</title>
<g id="a_edge13_Node000006_Node000010"><a xlink:title=" ">
<path fill="none" stroke="#63b8ff" d="M504.9,-169.84C540.06,-160.76 592.57,-147.2 630.72,-137.34"/>
<polygon fill="#63b8ff" stroke="#63b8ff" points="631.26,-140.56 640.07,-134.67 629.51,-133.78 631.26,-140.56"/>
</a>
</g>
</g>
<!-- Node15 -->
<g id="Node000015" class="node">
<title>Node15</title>
<g id="a_Node000015"><a xlink:title=" ">
<polygon fill="#e0e0e0" stroke="#999999" points="427.38,-77.5 380.62,-77.5 380.62,-56.75 427.38,-56.75 427.38,-77.5"/>
<text text-anchor="middle" x="404" y="-64" font-family="Helvetica,sans-Serif" font-size="10.00">vector</text>
</a>
</g>
</g>
<!-- Node6&#45;&gt;Node15 -->
<g id="edge24_Node000006_Node000015" class="edge">
<title>Node6&#45;&gt;Node15</title>
<g id="a_edge24_Node000006_Node000015"><a xlink:title=" ">
<path fill="none" stroke="#63b8ff" d="M454.86,-170.06C444.94,-161.62 431.25,-148.49 423,-134.25 414.76,-120.02 409.89,-101.97 407.14,-88.33"/>
<polygon fill="#63b8ff" stroke="#63b8ff" points="410.45,-87.91 405.25,-78.68 403.55,-89.13 410.45,-87.91"/>
</a>
</g>
</g>
<!-- Node6&#45;&gt;Node17 -->
<g id="edge23_Node000006_Node000017" class="edge">
<title>Node6&#45;&gt;Node17</title>
<g id="a_edge23_Node000006_Node000017"><a xlink:title=" ">
<path fill="none" stroke="#63b8ff" d="M540.25,-171.4C595.93,-164.37 674.49,-152.79 751.48,-134.29"/>
<polygon fill="#63b8ff" stroke="#63b8ff" points="751.96,-137.53 760.84,-131.75 750.3,-130.73 751.96,-137.53"/>
</a>
</g>
</g>
<!-- Node7&#45;&gt;Node8 -->
<g id="edge9_Node000007_Node000008" class="edge">
<title>Node7&#45;&gt;Node8</title>
<g id="a_edge9_Node000007_Node000008"><a xlink:title=" ">
<path fill="none" stroke="#63b8ff" d="M495,-113.09C495,-106.31 495,-97.05 495,-88.69"/>
<polygon fill="#63b8ff" stroke="#63b8ff" points="498.5,-88.83 495,-78.83 491.5,-88.83 498.5,-88.83"/>
</a>
</g>
</g>
<!-- Node8&#45;&gt;Node4 -->
<g id="edge10_Node000008_Node000004" class="edge">
<title>Node8&#45;&gt;Node4</title>
<g id="a_edge10_Node000008_Node000004"><a xlink:title=" ">
<path fill="none" stroke="#63b8ff" d="M449.66,-56.27C402.4,-46.01 329.02,-30.06 283.61,-20.2"/>
<polygon fill="#63b8ff" stroke="#63b8ff" points="284.49,-16.59 273.97,-17.89 283,-23.43 284.49,-16.59"/>
</a>
</g>
</g>
<!-- Node9 -->
<g id="Node000009" class="node">
<title>Node9</title>
<g id="a_Node000009"><a xlink:title=" ">
<polygon fill="#e0e0e0" stroke="#999999" points="518.38,-20.75 471.62,-20.75 471.62,0 518.38,0 518.38,-20.75"/>
<text text-anchor="middle" x="495" y="-7.25" font-family="Helvetica,sans-Serif" font-size="10.00">cmath</text>
</a>
</g>
</g>
<!-- Node8&#45;&gt;Node9 -->
<g id="edge11_Node000008_Node000009" class="edge">
<title>Node8&#45;&gt;Node9</title>
<g id="a_edge11_Node000008_Node000009"><a xlink:title=" ">
<path fill="none" stroke="#63b8ff" d="M495,-56.34C495,-49.56 495,-40.3 495,-31.94"/>
<polygon fill="#63b8ff" stroke="#63b8ff" points="498.5,-32.08 495,-22.08 491.5,-32.08 498.5,-32.08"/>
</a>
</g>
</g>
<!-- Node10&#45;&gt;Node4 -->
<g id="edge19_Node000010_Node000004" class="edge">
<title>Node10&#45;&gt;Node4</title>
<g id="a_edge19_Node000010_Node000004"><a xlink:title=" ">
<path fill="none" stroke="#63b8ff" d="M659.94,-113.07C642.27,-103.94 615.29,-89.93 592,-77.5 575.02,-68.44 572.25,-62.85 554,-56.75 460.65,-25.57 344.45,-15.8 283.95,-12.75"/>
<polygon fill="#63b8ff" stroke="#63b8ff" points="284.11,-9.21 273.96,-12.24 283.79,-16.2 284.11,-9.21"/>
</a>
</g>
</g>
<!-- Node10&#45;&gt;Node8 -->
<g id="edge14_Node000010_Node000008" class="edge">
<title>Node10&#45;&gt;Node8</title>
<g id="a_edge14_Node000010_Node000008"><a xlink:title=" ">
<path fill="none" stroke="#63b8ff" d="M646.1,-113.09C615.98,-104.12 571.18,-90.79 538.19,-80.98"/>
<polygon fill="#63b8ff" stroke="#63b8ff" points="539.5,-77.42 528.92,-77.92 537.51,-84.13 539.5,-77.42"/>
</a>
</g>
</g>
<!-- Node11 -->
<g id="Node000011" class="node">
<title>Node11</title>
<g id="a_Node000011"><a xlink:href="Error_8hpp.html" target="_top" xlink:title=" ">
<polygon fill="white" stroke="#666666" points="863.38,-77.5 768.62,-77.5 768.62,-56.75 863.38,-56.75 863.38,-77.5"/>
<text text-anchor="middle" x="816" y="-64" font-family="Helvetica,sans-Serif" font-size="10.00">../error/Error.hpp</text>
</a>
</g>
</g>
<!-- Node10&#45;&gt;Node11 -->
<g id="edge15_Node000010_Node000011" class="edge">
<title>Node10&#45;&gt;Node11</title>
<g id="a_edge15_Node000010_Node000011"><a xlink:title=" ">
<path fill="none" stroke="#63b8ff" d="M703.49,-113.09C725.31,-104.37 757.46,-91.52 781.81,-81.79"/>
<polygon fill="#63b8ff" stroke="#63b8ff" points="782.73,-84.79 790.72,-77.83 780.13,-78.29 782.73,-84.79"/>
</a>
</g>
</g>
<!-- Node14 -->
<g id="Node000014" class="node">
<title>Node14</title>
<g id="a_Node000014"><a xlink:title=" ">
<polygon fill="#e0e0e0" stroke="#999999" points="683,-77.5 601,-77.5 601,-56.75 683,-56.75 683,-77.5"/>
<text text-anchor="middle" x="642" y="-64" font-family="Helvetica,sans-Serif" font-size="10.00">initializer_list</text>
</a>
</g>
</g>
<!-- Node10&#45;&gt;Node14 -->
<g id="edge18_Node000010_Node000014" class="edge">
<title>Node10&#45;&gt;Node14</title>
<g id="a_edge18_Node000010_Node000014"><a xlink:title=" ">
<path fill="none" stroke="#63b8ff" d="M672.39,-113.09C667.44,-105.77 660.53,-95.54 654.55,-86.69"/>
<polygon fill="#63b8ff" stroke="#63b8ff" points="657.06,-85.15 648.56,-78.83 651.26,-89.07 657.06,-85.15"/>
</a>
</g>
</g>
<!-- Node10&#45;&gt;Node15 -->
<g id="edge20_Node000010_Node000015" class="edge">
<title>Node10&#45;&gt;Node15</title>
<g id="a_edge20_Node000010_Node000015"><a xlink:title=" ">
<path fill="none" stroke="#63b8ff" d="M616.71,-113.02C569.91,-105.2 504.04,-93.36 438.25,-77.87"/>
<polygon fill="#63b8ff" stroke="#63b8ff" points="439.23,-74.27 428.69,-75.35 437.61,-81.08 439.23,-74.27"/>
</a>
</g>
</g>
<!-- Node16 -->
<g id="Node000016" class="node">
<title>Node16</title>
<g id="a_Node000016"><a xlink:title=" ">
<polygon fill="#e0e0e0" stroke="#999999" points="750.5,-77.5 701.5,-77.5 701.5,-56.75 750.5,-56.75 750.5,-77.5"/>
<text text-anchor="middle" x="726" y="-64" font-family="Helvetica,sans-Serif" font-size="10.00">format</text>
</a>
</g>
</g>
<!-- Node10&#45;&gt;Node16 -->
<g id="edge21_Node000010_Node000016" class="edge">
<title>Node10&#45;&gt;Node16</title>
<g id="a_edge21_Node000010_Node000016"><a xlink:title=" ">
<path fill="none" stroke="#63b8ff" d="M687.4,-113.09C693.82,-105.61 702.84,-95.11 710.55,-86.13"/>
<polygon fill="#63b8ff" stroke="#63b8ff" points="713.81,-88.7 717.67,-78.83 708.5,-84.14 713.81,-88.7"/>
</a>
</g>
</g>
<!-- Node12 -->
<g id="Node000012" class="node">
<title>Node12</title>
<g id="a_Node000012"><a xlink:title=" ">
<polygon fill="#e0e0e0" stroke="#999999" points="812,-20.75 748,-20.75 748,0 812,0 812,-20.75"/>
<text text-anchor="middle" x="780" y="-7.25" font-family="Helvetica,sans-Serif" font-size="10.00">stdexcept</text>
</a>
</g>
</g>
<!-- Node11&#45;&gt;Node12 -->
<g id="edge16_Node000011_Node000012" class="edge">
<title>Node11&#45;&gt;Node12</title>
<g id="a_edge16_Node000011_Node000012"><a xlink:title=" ">
<path fill="none" stroke="#63b8ff" d="M809.56,-56.34C804.8,-49.1 798.17,-39.01 792.39,-30.22"/>
<polygon fill="#63b8ff" stroke="#63b8ff" points="794.8,-28.51 786.38,-22.08 788.95,-32.36 794.8,-28.51"/>
</a>
</g>
</g>
<!-- Node13 -->
<g id="Node000013" class="node">
<title>Node13</title>
<g id="a_Node000013"><a xlink:title=" ">
<polygon fill="#e0e0e0" stroke="#999999" points="873.88,-20.75 830.12,-20.75 830.12,0 873.88,0 873.88,-20.75"/>
<text text-anchor="middle" x="852" y="-7.25" font-family="Helvetica,sans-Serif" font-size="10.00">string</text>
</a>
</g>
</g>
<!-- Node11&#45;&gt;Node13 -->
<g id="edge17_Node000011_Node000013" class="edge">
<title>Node11&#45;&gt;Node13</title>
<g id="a_edge17_Node000011_Node000013"><a xlink:title=" ">
<path fill="none" stroke="#63b8ff" d="M822.44,-56.34C827.2,-49.1 833.83,-39.01 839.61,-30.22"/>
<polygon fill="#63b8ff" stroke="#63b8ff" points="843.05,-32.36 845.62,-22.08 837.2,-28.51 843.05,-32.36"/>
</a>
</g>
</g>
<!-- Node18&#45;&gt;Node3 -->
<g id="edge27_Node000018_Node000003" class="edge">
<title>Node18&#45;&gt;Node3</title>
<g id="a_edge27_Node000018_Node000003"><a xlink:title=" ">
<path fill="none" stroke="#63b8ff" d="M291.07,-254.34C292.69,-262.61 293.14,-274.83 292.42,-285.29"/>
<polygon fill="#63b8ff" stroke="#63b8ff" points="288.84,-284.71 291.11,-295.05 295.79,-285.55 288.84,-284.71"/>
</a>
</g>
</g>
<!-- Node18&#45;&gt;Node6 -->
<g id="edge26_Node000018_Node000006" class="edge">
<title>Node18&#45;&gt;Node6</title>
<g id="a_edge26_Node000018_Node000006"><a xlink:title=" ">
<path fill="none" stroke="#63b8ff" d="M315.08,-232.93C345.69,-222.59 394.05,-206.26 427.97,-194.81"/>
<polygon fill="#63b8ff" stroke="#63b8ff" points="428.64,-197.94 436.99,-191.42 426.4,-191.31 428.64,-197.94"/>
</a>
</g>
</g>
<!-- Node18&#45;&gt;Node15 -->
<g id="edge28_Node000018_Node000015" class="edge">
<title>Node18&#45;&gt;Node15</title>
<g id="a_edge28_Node000018_Node000015"><a xlink:title=" ">
<path fill="none" stroke="#63b8ff" d="M292.51,-233.11C311.41,-205.15 366.48,-123.66 391.44,-86.71"/>
<polygon fill="#63b8ff" stroke="#63b8ff" points="394.66,-89.19 397.36,-78.95 388.86,-85.27 394.66,-89.19"/>
</a>
</g>
</g>
<!-- Node18&#45;&gt;Node19 -->
<g id="edge29_Node000018_Node000019" class="edge">
<title>Node18&#45;&gt;Node19</title>
<g id="a_edge29_Node000018_Node000019"><a xlink:title=" ">
<path fill="none" stroke="#63b8ff" d="M273.63,-232.93C261.84,-223.57 243.87,-209.3 229.86,-198.19"/>
<polygon fill="#63b8ff" stroke="#63b8ff" points="232.35,-194.9 222.34,-191.42 228,-200.38 232.35,-194.9"/>
</a>
</g>
</g>
<!-- Node20 -->
<g id="Node000020" class="node">
<title>Node20</title>
<g id="a_Node000020"><a xlink:title=" ">
<polygon fill="#e0e0e0" stroke="#999999" points="299.88,-191 256.12,-191 256.12,-170.25 299.88,-170.25 299.88,-191"/>
<text text-anchor="middle" x="278" y="-177.5" font-family="Helvetica,sans-Serif" font-size="10.00">limits</text>
</a>
</g>
</g>
<!-- Node18&#45;&gt;Node20 -->
<g id="edge30_Node000018_Node000020" class="edge">
<title>Node18&#45;&gt;Node20</title>
<g id="a_edge30_Node000018_Node000020"><a xlink:title=" ">
<path fill="none" stroke="#63b8ff" d="M284.71,-232.93C283.62,-224.59 282.02,-212.36 280.66,-201.93"/>
<polygon fill="#63b8ff" stroke="#63b8ff" points="284.02,-201.68 279.26,-192.22 277.08,-202.59 284.02,-201.68"/>
</a>
</g>
</g>
<!-- Node21&#45;&gt;Node3 -->
<g id="edge36_Node000021_Node000003" class="edge">
<title>Node21&#45;&gt;Node3</title>
<g id="a_edge36_Node000021_Node000003"><a xlink:title=" ">
<path fill="none" stroke="#63b8ff" d="M271.25,-352.94C273.74,-345.34 276.74,-336.19 279.38,-328.12"/>
<polygon fill="#63b8ff" stroke="#63b8ff" points="283,-329.31 282.78,-318.72 276.34,-327.13 283,-329.31"/>
</a>
</g>
</g>
<!-- Node21&#45;&gt;Node4 -->
<g id="edge37_Node000021_Node000004" class="edge">
<title>Node21&#45;&gt;Node4</title>
<g id="a_edge37_Node000021_Node000004"><a xlink:title=" ">
<path fill="none" stroke="#63b8ff" d="M209.35,-362.83C141.82,-351.98 38,-322.62 38,-244.75 38,-244.75 38,-244.75 38,-122.88 38,-48.88 142.34,-23.72 202.14,-15.37"/>
<polygon fill="#63b8ff" stroke="#63b8ff" points="202.28,-18.75 211.75,-14 201.39,-11.81 202.28,-18.75"/>
</a>
</g>
</g>
<!-- Node21&#45;&gt;Node17 -->
<g id="edge38_Node000021_Node000017" class="edge">
<title>Node21&#45;&gt;Node17</title>
<g id="a_edge38_Node000021_Node000017"><a xlink:title=" ">
<path fill="none" stroke="#63b8ff" d="M289.59,-352.78C344.61,-315.6 486.65,-223.37 617,-170.25 671.85,-147.9 691.07,-151.68 751.32,-134.56"/>
<polygon fill="#63b8ff" stroke="#63b8ff" points="752.16,-137.66 760.77,-131.49 750.19,-130.95 752.16,-137.66"/>
</a>
</g>
</g>
<!-- Node22&#45;&gt;Node6 -->
<g id="edge40_Node000022_Node000006" class="edge">
<title>Node22&#45;&gt;Node6</title>
<g id="a_edge40_Node000022_Node000006"><a xlink:title=" ">
<path fill="none" stroke="#63b8ff" d="M577.2,-226.53C553.52,-216.88 523.79,-204.77 501.18,-195.55"/>
<polygon fill="#63b8ff" stroke="#63b8ff" points="502.61,-191.95 492.02,-191.42 499.96,-198.43 502.61,-191.95"/>
</a>
</g>
</g>
<!-- Node22&#45;&gt;Node17 -->
<g id="edge41_Node000022_Node000017" class="edge">
<title>Node22&#45;&gt;Node17</title>
<g id="a_edge41_Node000022_Node000017"><a xlink:title=" ">
<path fill="none" stroke="#63b8ff" d="M639.46,-226.61C670.78,-204.09 727.26,-163.5 758.57,-141"/>
<polygon fill="#63b8ff" stroke="#63b8ff" points="760.34,-143.31 766.42,-134.64 756.26,-137.63 760.34,-143.31"/>
</a>
</g>
</g>
<!-- Node23&#45;&gt;Node6 -->
<g id="edge43_Node000023_Node000006" class="edge">
<title>Node23&#45;&gt;Node6</title>
<g id="a_edge43_Node000023_Node000006"><a xlink:title=" ">
<path fill="none" stroke="#63b8ff" d="M689.79,-228.9C686.82,-228.26 683.88,-227.62 681,-227 627.95,-215.57 567.45,-202.77 524.34,-193.68"/>
<polygon fill="#63b8ff" stroke="#63b8ff" points="525.28,-190.09 514.77,-191.45 523.84,-196.94 525.28,-190.09"/>
</a>
</g>
</g>
<!-- Node23&#45;&gt;Node17 -->
<g id="edge44_Node000023_Node000017" class="edge">
<title>Node23&#45;&gt;Node17</title>
<g id="a_edge44_Node000023_Node000017"><a xlink:title=" ">
<path fill="none" stroke="#63b8ff" d="M756.78,-226.85C761.78,-205.77 770.63,-168.53 776.13,-145.36"/>
<polygon fill="#63b8ff" stroke="#63b8ff" points="779.76,-146.22 778.67,-135.68 772.95,-144.6 779.76,-146.22"/>
</a>
</g>
</g>
<!-- Node24&#45;&gt;Node6 -->
<g id="edge47_Node000024_Node000006" class="edge">
<title>Node24&#45;&gt;Node6</title>
<g id="a_edge47_Node000024_Node000006"><a xlink:title=" ">
<path fill="none" stroke="#63b8ff" d="M833.84,-228.71C830.86,-228.1 827.9,-227.53 825,-227 731.78,-210.02 623.76,-197.27 550.96,-189.67"/>
<polygon fill="#63b8ff" stroke="#63b8ff" points="551.34,-186.09 541.03,-188.54 550.62,-193.05 551.34,-186.09"/>
</a>
</g>
</g>
<!-- Node24&#45;&gt;Node17 -->
<g id="edge48_Node000024_Node000017" class="edge">
<title>Node24&#45;&gt;Node17</title>
<g id="a_edge48_Node000024_Node000017"><a xlink:title=" ">
<path fill="none" stroke="#63b8ff" d="M876.16,-226.85C855.68,-204.9 818.84,-165.42 797.5,-142.56"/>
<polygon fill="#63b8ff" stroke="#63b8ff" points="800.53,-140.61 791.15,-135.68 795.42,-145.38 800.53,-140.61"/>
</a>
</g>
</g>
<!-- Node25&#45;&gt;Node6 -->
<g id="edge50_Node000025_Node000006" class="edge">
<title>Node25&#45;&gt;Node6</title>
<g id="a_edge50_Node000025_Node000006"><a xlink:title=" ">
<path fill="none" stroke="#63b8ff" d="M965.88,-228.54C962.88,-227.98 959.91,-227.47 957,-227 815.31,-204.37 648.63,-191.9 550.73,-186"/>
<polygon fill="#63b8ff" stroke="#63b8ff" points="551.21,-182.47 541.02,-185.37 550.79,-189.45 551.21,-182.47"/>
</a>
</g>
</g>
<!-- Node25&#45;&gt;Node17 -->
<g id="edge51_Node000025_Node000017" class="edge">
<title>Node25&#45;&gt;Node17</title>
<g id="a_edge51_Node000025_Node000017"><a xlink:title=" ">
<path fill="none" stroke="#63b8ff" d="M992.45,-226.61C944.18,-203.38 855.94,-160.93 810.21,-138.93"/>
<polygon fill="#63b8ff" stroke="#63b8ff" points="811.86,-135.36 801.34,-134.18 808.83,-141.67 811.86,-135.36"/>
</a>
</g>
</g>
</g>
</svg>
