<?xml version="1.0" encoding="UTF-8" standalone="no"?>
<!DOCTYPE svg PUBLIC "-//W3C//DTD SVG 1.1//EN"
 "http://www.w3.org/Graphics/SVG/1.1/DTD/svg11.dtd">
<!-- Generated by graphviz version 8.1.0 (20230707.0739)
 -->
<!-- Title: Graphical Class Hierarchy Pages: 1 -->
<svg width="264pt" height="146pt"
 viewBox="0.00 0.00 264.25 145.75" xmlns="http://www.w3.org/2000/svg" xmlns:xlink="http://www.w3.org/1999/xlink">
<g id="graph0" class="graph" transform="scale(1 1) rotate(0) translate(4 141.75)">
<title>Graphical Class Hierarchy</title>
<!-- Node0 -->
<g id="Node000000" class="node">
<title>Node0</title>
<g id="a_Node000000"><a xlink:href="classraytracer_1_1IPrimitive.html" target="_top" xlink:title="Interface de base pour les primitives géométriques dans le moteur de raytracing.">
<polygon fill="white" stroke="#666666" points="113.5,-78.75 0,-78.75 0,-58 113.5,-58 113.5,-78.75"/>
<text text-anchor="middle" x="56.75" y="-65.25" font-family="Helvetica,sans-Serif" font-size="10.00">raytracer::IPrimitive</text>
</a>
</g>
</g>
<!-- Node1 -->
<g id="Node000001" class="node">
<title>Node1</title>
<g id="a_Node000001"><a xlink:href="classraytracer_1_1Cone.html" target="_top" xlink:title="Classe représentant un cône dans un moteur de raytracing.">
<polygon fill="white" stroke="#666666" points="248.38,-137.75 157.38,-137.75 157.38,-117 248.38,-117 248.38,-137.75"/>
<text text-anchor="middle" x="202.88" y="-124.25" font-family="Helvetica,sans-Serif" font-size="10.00">raytracer::Cone</text>
</a>
</g>
</g>
<!-- Node0&#45;&gt;Node1 -->
<g id="edge6_Node000000_Node000001" class="edge">
<title>Node0&#45;&gt;Node1</title>
<g id="a_edge6_Node000000_Node000001"><a xlink:title=" ">
<path fill="none" stroke="#63b8ff" d="M92.65,-83.57C109.73,-90.91 130.62,-99.76 149.5,-107.38 157.08,-110.43 165.33,-113.64 172.99,-116.56"/>
<polygon fill="#63b8ff" stroke="#63b8ff" points="94.14,-79.97 83.57,-79.22 91.36,-86.4 94.14,-79.97"/>
</a>
</g>
</g>
<!-- Node2 -->
<g id="Node000002" class="node">
<title>Node2</title>
<g id="a_Node000002"><a xlink:href="classraytracer_1_1Cylinder.html" target="_top" xlink:title="Représente un cylindre utilisé dans le moteur de raytracing.">
<polygon fill="white" stroke="#666666" points="256.25,-98.75 149.5,-98.75 149.5,-78 256.25,-78 256.25,-98.75"/>
<text text-anchor="middle" x="202.88" y="-85.25" font-family="Helvetica,sans-Serif" font-size="10.00">raytracer::Cylinder</text>
</a>
</g>
</g>
<!-- Node0&#45;&gt;Node2 -->
<g id="edge7_Node000000_Node000002" class="edge">
<title>Node0&#45;&gt;Node2</title>
<g id="a_edge7_Node000000_Node000002"><a xlink:title=" ">
<path fill="none" stroke="#63b8ff" d="M124.7,-77.67C133,-78.82 141.39,-79.98 149.43,-81.1"/>
<polygon fill="#63b8ff" stroke="#63b8ff" points="125.27,-74.07 114.89,-76.16 124.31,-81.01 125.27,-74.07"/>
</a>
</g>
</g>
<!-- Node3 -->
<g id="Node000003" class="node">
<title>Node3</title>
<g id="a_Node000003"><a xlink:href="classraytracer_1_1Plane.html" target="_top" xlink:title="Représente un plan dans la scène de raytracing.">
<polygon fill="white" stroke="#666666" points="249.5,-59.75 156.25,-59.75 156.25,-39 249.5,-39 249.5,-59.75"/>
<text text-anchor="middle" x="202.88" y="-46.25" font-family="Helvetica,sans-Serif" font-size="10.00">raytracer::Plane</text>
</a>
</g>
</g>
<!-- Node0&#45;&gt;Node3 -->
<g id="edge8_Node000000_Node000003" class="edge">
<title>Node0&#45;&gt;Node3</title>
<g id="a_edge8_Node000000_Node000003"><a xlink:title=" ">
<path fill="none" stroke="#63b8ff" d="M124.77,-59.54C135.31,-58.15 145.99,-56.74 155.9,-55.44"/>
<polygon fill="#63b8ff" stroke="#63b8ff" points="124.34,-56.2 114.89,-60.97 125.26,-63.14 124.34,-56.2"/>
</a>
</g>
</g>
<!-- Node4 -->
<g id="Node000004" class="node">
<title>Node4</title>
<g id="a_Node000004"><a xlink:href="classraytracer_1_1Sphere.html" target="_top" xlink:title="Représente une sphère dans la scène 3D pour le moteur de raytracing.">
<polygon fill="white" stroke="#666666" points="252.88,-20.75 152.88,-20.75 152.88,0 252.88,0 252.88,-20.75"/>
<text text-anchor="middle" x="202.88" y="-7.25" font-family="Helvetica,sans-Serif" font-size="10.00">raytracer::Sphere</text>
</a>
</g>
</g>
<!-- Node0&#45;&gt;Node4 -->
<g id="edge9_Node000000_Node000004" class="edge">
<title>Node0&#45;&gt;Node4</title>
<g id="a_edge9_Node000000_Node000004"><a xlink:title=" ">
<path fill="none" stroke="#63b8ff" d="M93.41,-53.33C110.36,-46.26 130.93,-37.77 149.5,-30.38 157.1,-27.35 165.35,-24.16 173,-21.23"/>
<polygon fill="#63b8ff" stroke="#63b8ff" points="92.25,-50.44 84.38,-57.54 94.95,-56.9 92.25,-50.44"/>
</a>
</g>
</g>
</g>
</svg>
