<?xml version="1.0" encoding="UTF-8" standalone="no"?>
<!DOCTYPE svg PUBLIC "-//W3C//DTD SVG 1.1//EN"
 "http://www.w3.org/Graphics/SVG/1.1/DTD/svg11.dtd">
<!-- Generated by graphviz version 8.1.0 (20230707.0739)
 -->
<!-- Title: Graphical Class Hierarchy Pages: 1 -->
<svg width="246pt" height="107pt"
 viewBox="0.00 0.00 245.50 106.75" xmlns="http://www.w3.org/2000/svg" xmlns:xlink="http://www.w3.org/1999/xlink">
<g id="graph0" class="graph" transform="scale(1 1) rotate(0) translate(4 102.75)">
<title>Graphical Class Hierarchy</title>
<!-- Node0 -->
<g id="Node000000" class="node">
<title>Node0</title>
<g id="a_Node000000"><a xlink:title=" ">
<polygon fill="#e0e0e0" stroke="#999999" points="64,-59.75 0,-59.75 0,-39 64,-39 64,-59.75"/>
<text text-anchor="middle" x="32" y="-46.25" font-family="Helvetica,sans-Serif" font-size="10.00">exception</text>
</a>
</g>
</g>
<!-- Node1 -->
<g id="Node000001" class="node">
<title>Node1</title>
<g id="a_Node000001"><a xlink:href="classraytracer_1_1ArgumentError.html" target="_top" xlink:title="Exception levée lors d&#39;une erreur dans les arguments d&#39;une fonction.">
<polygon fill="white" stroke="#666666" points="237.5,-98.75 100,-98.75 100,-78 237.5,-78 237.5,-98.75"/>
<text text-anchor="middle" x="168.75" y="-85.25" font-family="Helvetica,sans-Serif" font-size="10.00">raytracer::ArgumentError</text>
</a>
</g>
</g>
<!-- Node0&#45;&gt;Node1 -->
<g id="edge1_Node000000_Node000001" class="edge">
<title>Node0&#45;&gt;Node1</title>
<g id="a_edge1_Node000000_Node000001"><a xlink:title=" ">
<path fill="none" stroke="#63b8ff" d="M74.65,-61.43C92.47,-66.59 113.12,-72.56 130.44,-77.58"/>
<polygon fill="#63b8ff" stroke="#63b8ff" points="75.83,-57.84 65.25,-58.42 73.89,-64.56 75.83,-57.84"/>
</a>
</g>
</g>
<!-- Node2 -->
<g id="Node000002" class="node">
<title>Node2</title>
<g id="a_Node000002"><a xlink:href="classraytracer_1_1MatrixError.html" target="_top" xlink:title="Exception levée lors d&#39;une erreur de manipulation de matrice.">
<polygon fill="white" stroke="#666666" points="229.25,-59.75 108.25,-59.75 108.25,-39 229.25,-39 229.25,-59.75"/>
<text text-anchor="middle" x="168.75" y="-46.25" font-family="Helvetica,sans-Serif" font-size="10.00">raytracer::MatrixError</text>
</a>
</g>
</g>
<!-- Node0&#45;&gt;Node2 -->
<g id="edge2_Node000000_Node000002" class="edge">
<title>Node0&#45;&gt;Node2</title>
<g id="a_edge2_Node000000_Node000002"><a xlink:title=" ">
<path fill="none" stroke="#63b8ff" d="M75.08,-49.38C85.45,-49.38 96.75,-49.38 107.79,-49.38"/>
<polygon fill="#63b8ff" stroke="#63b8ff" points="75.25,-45.88 65.25,-49.38 75.25,-52.88 75.25,-45.88"/>
</a>
</g>
</g>
<!-- Node3 -->
<g id="Node000003" class="node">
<title>Node3</title>
<g id="a_Node000003"><a xlink:href="classraytracer_1_1ParseError.html" target="_top" xlink:title="Exception levée lors d&#39;une erreur de parsing (analyse de scène, etc.).">
<polygon fill="white" stroke="#666666" points="226.62,-20.75 110.88,-20.75 110.88,0 226.62,0 226.62,-20.75"/>
<text text-anchor="middle" x="168.75" y="-7.25" font-family="Helvetica,sans-Serif" font-size="10.00">raytracer::ParseError</text>
</a>
</g>
</g>
<!-- Node0&#45;&gt;Node3 -->
<g id="edge3_Node000000_Node000003" class="edge">
<title>Node0&#45;&gt;Node3</title>
<g id="a_edge3_Node000000_Node000003"><a xlink:title=" ">
<path fill="none" stroke="#63b8ff" d="M74.65,-37.32C92.47,-32.16 113.12,-26.19 130.44,-21.17"/>
<polygon fill="#63b8ff" stroke="#63b8ff" points="73.89,-34.19 65.25,-40.33 75.83,-40.91 73.89,-34.19"/>
</a>
</g>
</g>
</g>
</svg>
