<?xml version="1.0" encoding="UTF-8" standalone="no"?>
<!DOCTYPE svg PUBLIC "-//W3C//DTD SVG 1.1//EN"
 "http://www.w3.org/Graphics/SVG/1.1/DTD/svg11.dtd">
<!-- Generated by graphviz version 8.1.0 (20230707.0739)
 -->
<!-- Title: src/primitives/IPrimitive.hpp Pages: 1 -->
<svg width="604pt" height="199pt"
 viewBox="0.00 0.00 603.70 199.00" xmlns="http://www.w3.org/2000/svg" xmlns:xlink="http://www.w3.org/1999/xlink">
<g id="graph0" class="graph" transform="scale(1 1) rotate(0) translate(4 195)">
<title>src/primitives/IPrimitive.hpp</title>
<!-- Node1 -->
<g id="Node000001" class="node">
<title>Node1</title>
<g id="a_Node000001"><a xlink:title=" ">
<polygon fill="#999999" stroke="#666666" points="401.32,-191 247.32,-191 247.32,-170.25 401.32,-170.25 401.32,-191"/>
<text text-anchor="middle" x="324.32" y="-177.5" font-family="Helvetica,sans-Serif" font-size="10.00">src/primitives/IPrimitive.hpp</text>
</a>
</g>
</g>
<!-- Node2 -->
<g id="Node000002" class="node">
<title>Node2</title>
<g id="a_Node000002"><a xlink:href="Color_8hpp.html" target="_top" xlink:title=" ">
<polygon fill="white" stroke="#666666" points="152.2,-134.25 18.45,-134.25 18.45,-113.5 152.2,-113.5 152.2,-134.25"/>
<text text-anchor="middle" x="85.32" y="-120.75" font-family="Helvetica,sans-Serif" font-size="10.00">../core/helpers/Color.hpp</text>
</a>
</g>
</g>
<!-- Node1&#45;&gt;Node2 -->
<g id="edge1_Node000001_Node000002" class="edge">
<title>Node1&#45;&gt;Node2</title>
<g id="a_edge1_Node000001_Node000002"><a xlink:title=" ">
<path fill="none" stroke="#63b8ff" d="M281.32,-169.77C241.42,-160.63 181.91,-147 138.93,-137.16"/>
<polygon fill="#63b8ff" stroke="#63b8ff" points="139.91,-133.56 129.38,-134.74 138.35,-140.38 139.91,-133.56"/>
</a>
</g>
</g>
<!-- Node3 -->
<g id="Node000003" class="node">
<title>Node3</title>
<g id="a_Node000003"><a xlink:title=" ">
<polygon fill="#e0e0e0" stroke="#999999" points="119.07,-20.75 59.57,-20.75 59.57,0 119.07,0 119.07,-20.75"/>
<text text-anchor="middle" x="89.32" y="-7.25" font-family="Helvetica,sans-Serif" font-size="10.00">iostream</text>
</a>
</g>
</g>
<!-- Node1&#45;&gt;Node3 -->
<g id="edge17_Node000001_Node000003" class="edge">
<title>Node1&#45;&gt;Node3</title>
<g id="a_edge17_Node000001_Node000003"><a xlink:title=" ">
<path fill="none" stroke="#63b8ff" d="M247.16,-179.62C164,-177.78 39.48,-169.07 9.32,-134.25 -21,-99.25 32.16,-51.95 65.47,-27.5"/>
<polygon fill="#63b8ff" stroke="#63b8ff" points="67.14,-29.9 73.26,-21.24 63.08,-24.2 67.14,-29.9"/>
</a>
</g>
</g>
<!-- Node4 -->
<g id="Node000004" class="node">
<title>Node4</title>
<g id="a_Node000004"><a xlink:href="Ray_8hpp.html" target="_top" xlink:title=" ">
<polygon fill="white" stroke="#666666" points="296.45,-134.25 170.2,-134.25 170.2,-113.5 296.45,-113.5 296.45,-134.25"/>
<text text-anchor="middle" x="233.32" y="-120.75" font-family="Helvetica,sans-Serif" font-size="10.00">../core/helpers/Ray.hpp</text>
</a>
</g>
</g>
<!-- Node1&#45;&gt;Node4 -->
<g id="edge3_Node000001_Node000004" class="edge">
<title>Node1&#45;&gt;Node4</title>
<g id="a_edge3_Node000001_Node000004"><a xlink:title=" ">
<path fill="none" stroke="#63b8ff" d="M308.05,-169.84C294.34,-161.58 274.47,-149.63 258.67,-140.13"/>
<polygon fill="#63b8ff" stroke="#63b8ff" points="260.82,-136.73 250.45,-134.58 257.21,-142.73 260.82,-136.73"/>
</a>
</g>
</g>
<!-- Node5 -->
<g id="Node000005" class="node">
<title>Node5</title>
<g id="a_Node000005"><a xlink:href="Math_8hpp.html" target="_top" xlink:title=" ">
<polygon fill="white" stroke="#666666" points="212.95,-77.5 113.7,-77.5 113.7,-56.75 212.95,-56.75 212.95,-77.5"/>
<text text-anchor="middle" x="163.32" y="-64" font-family="Helvetica,sans-Serif" font-size="10.00">../math/Math.hpp</text>
</a>
</g>
</g>
<!-- Node1&#45;&gt;Node5 -->
<g id="edge7_Node000001_Node000005" class="edge">
<title>Node1&#45;&gt;Node5</title>
<g id="a_edge7_Node000001_Node000005"><a xlink:title=" ">
<path fill="none" stroke="#63b8ff" d="M324.27,-170.15C323.68,-155.94 320.46,-129.1 305.32,-113.5 293.11,-100.92 254.05,-88.95 219.98,-80.46"/>
<polygon fill="#63b8ff" stroke="#63b8ff" points="221.15,-76.9 210.6,-77.94 219.5,-83.7 221.15,-76.9"/>
</a>
</g>
</g>
<!-- Node7 -->
<g id="Node000007" class="node">
<title>Node7</title>
<g id="a_Node000007"><a xlink:href="Matrix_8hpp.html" target="_top" xlink:title=" ">
<polygon fill="white" stroke="#666666" points="482.32,-134.25 352.32,-134.25 352.32,-113.5 482.32,-113.5 482.32,-134.25"/>
<text text-anchor="middle" x="417.32" y="-120.75" font-family="Helvetica,sans-Serif" font-size="10.00">../core/math/Matrix.hpp</text>
</a>
</g>
</g>
<!-- Node1&#45;&gt;Node7 -->
<g id="edge8_Node000001_Node000007" class="edge">
<title>Node1&#45;&gt;Node7</title>
<g id="a_edge8_Node000001_Node000007"><a xlink:title=" ">
<path fill="none" stroke="#63b8ff" d="M340.95,-169.84C354.97,-161.58 375.27,-149.63 391.41,-140.13"/>
<polygon fill="#63b8ff" stroke="#63b8ff" points="393,-142.67 399.84,-134.58 389.45,-136.64 393,-142.67"/>
</a>
</g>
</g>
<!-- Node12 -->
<g id="Node000012" class="node">
<title>Node12</title>
<g id="a_Node000012"><a xlink:title=" ">
<polygon fill="#e0e0e0" stroke="#999999" points="595.7,-77.5 548.95,-77.5 548.95,-56.75 595.7,-56.75 595.7,-77.5"/>
<text text-anchor="middle" x="572.32" y="-64" font-family="Helvetica,sans-Serif" font-size="10.00">vector</text>
</a>
</g>
</g>
<!-- Node1&#45;&gt;Node12 -->
<g id="edge19_Node000001_Node000012" class="edge">
<title>Node1&#45;&gt;Node12</title>
<g id="a_edge19_Node000001_Node000012"><a xlink:title=" ">
<path fill="none" stroke="#63b8ff" d="M383.73,-169.8C416.67,-162.82 457.66,-151.56 491.32,-134.25 516.11,-121.5 540.31,-100.25 555.7,-85.29"/>
<polygon fill="#63b8ff" stroke="#63b8ff" points="557.68,-88.26 562.3,-78.72 552.74,-83.3 557.68,-88.26"/>
</a>
</g>
</g>
<!-- Node14 -->
<g id="Node000014" class="node">
<title>Node14</title>
<g id="a_Node000014"><a xlink:title=" ">
<polygon fill="#e0e0e0" stroke="#999999" points="576.2,-134.25 538.45,-134.25 538.45,-113.5 576.2,-113.5 576.2,-134.25"/>
<text text-anchor="middle" x="557.32" y="-120.75" font-family="Helvetica,sans-Serif" font-size="10.00">map</text>
</a>
</g>
</g>
<!-- Node1&#45;&gt;Node14 -->
<g id="edge18_Node000001_Node000014" class="edge">
<title>Node1&#45;&gt;Node14</title>
<g id="a_edge18_Node000001_Node000014"><a xlink:title=" ">
<path fill="none" stroke="#63b8ff" d="M370.97,-169.79C411.61,-161.03 472.06,-147.59 524.32,-134.25 525.45,-133.96 526.59,-133.66 527.75,-133.36"/>
<polygon fill="#63b8ff" stroke="#63b8ff" points="528.45,-136.52 537.17,-130.5 526.6,-129.77 528.45,-136.52"/>
</a>
</g>
</g>
<!-- Node2&#45;&gt;Node3 -->
<g id="edge2_Node000002_Node000003" class="edge">
<title>Node2&#45;&gt;Node3</title>
<g id="a_edge2_Node000002_Node000003"><a xlink:title=" ">
<path fill="none" stroke="#63b8ff" d="M85.66,-113.37C86.31,-95.44 87.71,-56.25 88.58,-32.01"/>
<polygon fill="#63b8ff" stroke="#63b8ff" points="92.11,-32.29 88.97,-22.18 85.11,-32.04 92.11,-32.29"/>
</a>
</g>
</g>
<!-- Node4&#45;&gt;Node5 -->
<g id="edge4_Node000004_Node000005" class="edge">
<title>Node4&#45;&gt;Node5</title>
<g id="a_edge4_Node000004_Node000005"><a xlink:title=" ">
<path fill="none" stroke="#63b8ff" d="M220.81,-113.09C210.65,-105.15 196.12,-93.78 184.21,-84.46"/>
<polygon fill="#63b8ff" stroke="#63b8ff" points="186.76,-81.23 176.73,-77.83 182.45,-86.75 186.76,-81.23"/>
</a>
</g>
</g>
<!-- Node5&#45;&gt;Node3 -->
<g id="edge5_Node000005_Node000003" class="edge">
<title>Node5&#45;&gt;Node3</title>
<g id="a_edge5_Node000005_Node000003"><a xlink:title=" ">
<path fill="none" stroke="#63b8ff" d="M150.09,-56.34C139.25,-48.32 123.69,-36.81 111.03,-27.44"/>
<polygon fill="#63b8ff" stroke="#63b8ff" points="113.56,-24.21 103.44,-21.08 109.39,-29.84 113.56,-24.21"/>
</a>
</g>
</g>
<!-- Node6 -->
<g id="Node000006" class="node">
<title>Node6</title>
<g id="a_Node000006"><a xlink:title=" ">
<polygon fill="#e0e0e0" stroke="#999999" points="186.7,-20.75 139.95,-20.75 139.95,0 186.7,0 186.7,-20.75"/>
<text text-anchor="middle" x="163.32" y="-7.25" font-family="Helvetica,sans-Serif" font-size="10.00">cmath</text>
</a>
</g>
</g>
<!-- Node5&#45;&gt;Node6 -->
<g id="edge6_Node000005_Node000006" class="edge">
<title>Node5&#45;&gt;Node6</title>
<g id="a_edge6_Node000005_Node000006"><a xlink:title=" ">
<path fill="none" stroke="#63b8ff" d="M163.32,-56.34C163.32,-49.56 163.32,-40.3 163.32,-31.94"/>
<polygon fill="#63b8ff" stroke="#63b8ff" points="166.82,-32.08 163.32,-22.08 159.82,-32.08 166.82,-32.08"/>
</a>
</g>
</g>
<!-- Node7&#45;&gt;Node3 -->
<g id="edge14_Node000007_Node000003" class="edge">
<title>Node7&#45;&gt;Node3</title>
<g id="a_edge14_Node000007_Node000003"><a xlink:title=" ">
<path fill="none" stroke="#63b8ff" d="M373.81,-113.02C341.81,-105.12 297.58,-92.84 260.32,-77.5 242.53,-70.17 239.94,-64.5 222.32,-56.75 192.09,-43.46 156.65,-31.54 129.96,-23.25"/>
<polygon fill="#63b8ff" stroke="#63b8ff" points="131.04,-19.62 120.46,-20.04 129,-26.31 131.04,-19.62"/>
</a>
</g>
</g>
<!-- Node7&#45;&gt;Node5 -->
<g id="edge9_Node000007_Node000005" class="edge">
<title>Node7&#45;&gt;Node5</title>
<g id="a_edge9_Node000007_Node000005"><a xlink:title=" ">
<path fill="none" stroke="#63b8ff" d="M371.62,-113.02C329.04,-103.85 265.43,-90.14 219.72,-80.28"/>
<polygon fill="#63b8ff" stroke="#63b8ff" points="220.6,-76.68 210.09,-77.99 219.12,-83.52 220.6,-76.68"/>
</a>
</g>
</g>
<!-- Node8 -->
<g id="Node000008" class="node">
<title>Node8</title>
<g id="a_Node000008"><a xlink:href="Error_8hpp.html" target="_top" xlink:title=" ">
<polygon fill="white" stroke="#666666" points="363.7,-77.5 268.95,-77.5 268.95,-56.75 363.7,-56.75 363.7,-77.5"/>
<text text-anchor="middle" x="316.32" y="-64" font-family="Helvetica,sans-Serif" font-size="10.00">../error/Error.hpp</text>
</a>
</g>
</g>
<!-- Node7&#45;&gt;Node8 -->
<g id="edge10_Node000007_Node000008" class="edge">
<title>Node7&#45;&gt;Node8</title>
<g id="a_edge10_Node000007_Node000008"><a xlink:title=" ">
<path fill="none" stroke="#63b8ff" d="M399.26,-113.09C383.75,-104.68 361.16,-92.43 343.47,-82.84"/>
<polygon fill="#63b8ff" stroke="#63b8ff" points="345.68,-79.52 335.22,-77.83 342.35,-85.67 345.68,-79.52"/>
</a>
</g>
</g>
<!-- Node11 -->
<g id="Node000011" class="node">
<title>Node11</title>
<g id="a_Node000011"><a xlink:title=" ">
<polygon fill="#e0e0e0" stroke="#999999" points="463.32,-77.5 381.32,-77.5 381.32,-56.75 463.32,-56.75 463.32,-77.5"/>
<text text-anchor="middle" x="422.32" y="-64" font-family="Helvetica,sans-Serif" font-size="10.00">initializer_list</text>
</a>
</g>
</g>
<!-- Node7&#45;&gt;Node11 -->
<g id="edge13_Node000007_Node000011" class="edge">
<title>Node7&#45;&gt;Node11</title>
<g id="a_edge13_Node000007_Node000011"><a xlink:title=" ">
<path fill="none" stroke="#63b8ff" d="M418.22,-113.09C418.83,-106.31 419.68,-97.05 420.44,-88.69"/>
<polygon fill="#63b8ff" stroke="#63b8ff" points="424.01,-89.11 421.44,-78.83 417.04,-88.47 424.01,-89.11"/>
</a>
</g>
</g>
<!-- Node7&#45;&gt;Node12 -->
<g id="edge15_Node000007_Node000012" class="edge">
<title>Node7&#45;&gt;Node12</title>
<g id="a_edge15_Node000007_Node000012"><a xlink:title=" ">
<path fill="none" stroke="#63b8ff" d="M445.03,-113.09C471.28,-103.81 510.76,-89.87 538.77,-79.97"/>
<polygon fill="#63b8ff" stroke="#63b8ff" points="539.64,-83.03 547.9,-76.4 537.31,-76.43 539.64,-83.03"/>
</a>
</g>
</g>
<!-- Node13 -->
<g id="Node000013" class="node">
<title>Node13</title>
<g id="a_Node000013"><a xlink:title=" ">
<polygon fill="#e0e0e0" stroke="#999999" points="530.82,-77.5 481.82,-77.5 481.82,-56.75 530.82,-56.75 530.82,-77.5"/>
<text text-anchor="middle" x="506.32" y="-64" font-family="Helvetica,sans-Serif" font-size="10.00">format</text>
</a>
</g>
</g>
<!-- Node7&#45;&gt;Node13 -->
<g id="edge16_Node000007_Node000013" class="edge">
<title>Node7&#45;&gt;Node13</title>
<g id="a_edge16_Node000007_Node000013"><a xlink:title=" ">
<path fill="none" stroke="#63b8ff" d="M433.23,-113.09C446.65,-104.83 466.08,-92.88 481.53,-83.38"/>
<polygon fill="#63b8ff" stroke="#63b8ff" points="482.86,-86.05 489.55,-77.83 479.2,-80.09 482.86,-86.05"/>
</a>
</g>
</g>
<!-- Node9 -->
<g id="Node000009" class="node">
<title>Node9</title>
<g id="a_Node000009"><a xlink:title=" ">
<polygon fill="#e0e0e0" stroke="#999999" points="312.32,-20.75 248.32,-20.75 248.32,0 312.32,0 312.32,-20.75"/>
<text text-anchor="middle" x="280.32" y="-7.25" font-family="Helvetica,sans-Serif" font-size="10.00">stdexcept</text>
</a>
</g>
</g>
<!-- Node8&#45;&gt;Node9 -->
<g id="edge11_Node000008_Node000009" class="edge">
<title>Node8&#45;&gt;Node9</title>
<g id="a_edge11_Node000008_Node000009"><a xlink:title=" ">
<path fill="none" stroke="#63b8ff" d="M309.89,-56.34C305.12,-49.1 298.49,-39.01 292.71,-30.22"/>
<polygon fill="#63b8ff" stroke="#63b8ff" points="295.12,-28.51 286.7,-22.08 289.27,-32.36 295.12,-28.51"/>
</a>
</g>
</g>
<!-- Node10 -->
<g id="Node000010" class="node">
<title>Node10</title>
<g id="a_Node000010"><a xlink:title=" ">
<polygon fill="#e0e0e0" stroke="#999999" points="374.2,-20.75 330.45,-20.75 330.45,0 374.2,0 374.2,-20.75"/>
<text text-anchor="middle" x="352.32" y="-7.25" font-family="Helvetica,sans-Serif" font-size="10.00">string</text>
</a>
</g>
</g>
<!-- Node8&#45;&gt;Node10 -->
<g id="edge12_Node000008_Node000010" class="edge">
<title>Node8&#45;&gt;Node10</title>
<g id="a_edge12_Node000008_Node000010"><a xlink:title=" ">
<path fill="none" stroke="#63b8ff" d="M322.76,-56.34C327.52,-49.1 334.15,-39.01 339.93,-30.22"/>
<polygon fill="#63b8ff" stroke="#63b8ff" points="343.37,-32.36 345.94,-22.08 337.52,-28.51 343.37,-32.36"/>
</a>
</g>
</g>
</g>
</svg>
