<?xml version="1.0" encoding="UTF-8" standalone="no"?>
<!DOCTYPE svg PUBLIC "-//W3C//DTD SVG 1.1//EN"
 "http://www.w3.org/Graphics/SVG/1.1/DTD/svg11.dtd">
<!-- Generated by graphviz version 8.1.0 (20230707.0739)
 -->
<!-- Title: raytracer::parseRotation Pages: 1 -->
<svg width="419pt" height="42pt"
 viewBox="0.00 0.00 419.00 41.50" xmlns="http://www.w3.org/2000/svg" xmlns:xlink="http://www.w3.org/1999/xlink">
<g id="graph0" class="graph" transform="scale(1 1) rotate(0) translate(4 37.5)">
<title>raytracer::parseRotation</title>
<!-- Node1 -->
<g id="Node000001" class="node">
<title>Node1</title>
<g id="a_Node000001"><a xlink:title=" ">
<polygon fill="#999999" stroke="#666666" points="411,-27.12 276.5,-27.12 276.5,-6.38 411,-6.38 411,-27.12"/>
<text text-anchor="middle" x="343.75" y="-13.62" font-family="Helvetica,sans-Serif" font-size="10.00">raytracer::parseRotation</text>
</a>
</g>
</g>
<!-- Node2 -->
<g id="Node000002" class="node">
<title>Node2</title>
<g id="a_Node000002"><a xlink:href="classraytracer_1_1Parser.html#a3a71c0519348da9f3c3f1bd03cb4963f" target="_top" xlink:title=" ">
<polygon fill="white" stroke="#666666" points="240.5,-33.5 138.25,-33.5 138.25,0 240.5,0 240.5,-33.5"/>
<text text-anchor="start" x="146.25" y="-20" font-family="Helvetica,sans-Serif" font-size="10.00">raytracer::Parser::</text>
<text text-anchor="middle" x="189.38" y="-7.25" font-family="Helvetica,sans-Serif" font-size="10.00">parseLights</text>
</a>
</g>
</g>
<!-- Node1&#45;&gt;Node2 -->
<g id="edge1_Node000001_Node000002" class="edge">
<title>Node1&#45;&gt;Node2</title>
<g id="a_edge1_Node000001_Node000002"><a xlink:title=" ">
<path fill="none" stroke="#63b8ff" d="M265.45,-16.75C257.14,-16.75 248.84,-16.75 240.96,-16.75"/>
<polygon fill="#63b8ff" stroke="#63b8ff" points="265.36,-20.25 275.36,-16.75 265.36,-13.25 265.36,-20.25"/>
</a>
</g>
</g>
<!-- Node3 -->
<g id="Node000003" class="node">
<title>Node3</title>
<g id="a_Node000003"><a xlink:href="classraytracer_1_1Parser.html#addb81b943ef495a2b524f080eeba6294" target="_top" xlink:title=" ">
<polygon fill="white" stroke="#666666" points="102.25,-33.5 0,-33.5 0,0 102.25,0 102.25,-33.5"/>
<text text-anchor="start" x="8" y="-20" font-family="Helvetica,sans-Serif" font-size="10.00">raytracer::Parser::</text>
<text text-anchor="middle" x="51.12" y="-7.25" font-family="Helvetica,sans-Serif" font-size="10.00">parse</text>
</a>
</g>
</g>
<!-- Node2&#45;&gt;Node3 -->
<g id="edge2_Node000002_Node000003" class="edge">
<title>Node2&#45;&gt;Node3</title>
<g id="a_edge2_Node000002_Node000003"><a xlink:title=" ">
<path fill="none" stroke="#63b8ff" d="M127.06,-16.75C118.92,-16.75 110.65,-16.75 102.72,-16.75"/>
<polygon fill="#63b8ff" stroke="#63b8ff" points="127.03,-20.25 137.03,-16.75 127.03,-13.25 127.03,-20.25"/>
</a>
</g>
</g>
</g>
</svg>
