<?xml version="1.0" encoding="UTF-8" standalone="no"?>
<!DOCTYPE svg PUBLIC "-//W3C//DTD SVG 1.1//EN"
 "http://www.w3.org/Graphics/SVG/1.1/DTD/svg11.dtd">
<!-- Generated by graphviz version 8.1.0 (20230707.0739)
 -->
<!-- Title: paser/parse.cpp Pages: 1 -->
<svg width="1907pt" height="452pt"
 viewBox="0.00 0.00 1907.42 451.50" xmlns="http://www.w3.org/2000/svg" xmlns:xlink="http://www.w3.org/1999/xlink">
<g id="graph0" class="graph" transform="scale(1 1) rotate(0) translate(4 447.5)">
<title>paser/parse.cpp</title>
<!-- Node1 -->
<g id="Node000001" class="node">
<title>Node1</title>
<g id="a_Node000001"><a xlink:title=" ">
<polygon fill="#999999" stroke="#666666" points="1545.04,-443.5 1451.79,-443.5 1451.79,-422.75 1545.04,-422.75 1545.04,-443.5"/>
<text text-anchor="middle" x="1498.42" y="-430" font-family="Helvetica,sans-Serif" font-size="10.00">paser/parse.cpp</text>
</a>
</g>
</g>
<!-- Node2 -->
<g id="Node000002" class="node">
<title>Node2</title>
<g id="a_Node000002"><a xlink:href="parse_8hpp.html" target="_top" xlink:title=" ">
<polygon fill="white" stroke="#666666" points="1369.42,-386.75 1305.42,-386.75 1305.42,-366 1369.42,-366 1369.42,-386.75"/>
<text text-anchor="middle" x="1337.42" y="-373.25" font-family="Helvetica,sans-Serif" font-size="10.00">parse.hpp</text>
</a>
</g>
</g>
<!-- Node1&#45;&gt;Node2 -->
<g id="edge1_Node000001_Node000002" class="edge">
<title>Node1&#45;&gt;Node2</title>
<g id="a_edge1_Node000001_Node000002"><a xlink:title=" ">
<path fill="none" stroke="#63b8ff" d="M1469.63,-422.34C1443.62,-413.49 1405.1,-400.39 1376.34,-390.61"/>
<polygon fill="#63b8ff" stroke="#63b8ff" points="1377.82,-387.08 1367.22,-387.17 1375.56,-393.7 1377.82,-387.08"/>
</a>
</g>
</g>
<!-- Node3 -->
<g id="Node000003" class="node">
<title>Node3</title>
<g id="a_Node000003"><a xlink:title=" ">
<polygon fill="#e0e0e0" stroke="#999999" points="1392.29,-20.75 1348.54,-20.75 1348.54,0 1392.29,0 1392.29,-20.75"/>
<text text-anchor="middle" x="1370.42" y="-7.25" font-family="Helvetica,sans-Serif" font-size="10.00">string</text>
</a>
</g>
</g>
<!-- Node1&#45;&gt;Node3 -->
<g id="edge65_Node000001_Node000003" class="edge">
<title>Node1&#45;&gt;Node3</title>
<g id="a_edge65_Node000001_Node000003"><a xlink:title=" ">
<path fill="none" stroke="#63b8ff" d="M1527.17,-422.31C1565.73,-407.11 1629.42,-373.94 1629.42,-320.62 1629.42,-320.62 1629.42,-320.62 1629.42,-129.25 1629.42,-30.97 1473.03,-14.26 1403.3,-11.69"/>
<polygon fill="#63b8ff" stroke="#63b8ff" points="1403.6,-8.16 1393.5,-11.38 1403.4,-15.16 1403.6,-8.16"/>
</a>
</g>
</g>
<!-- Node4 -->
<g id="Node000004" class="node">
<title>Node4</title>
<g id="a_Node000004"><a xlink:href="ErrorHandler_8hpp.html" target="_top" xlink:title=" ">
<polygon fill="white" stroke="#666666" points="1463.29,-266.88 1365.54,-266.88 1365.54,-246.12 1463.29,-246.12 1463.29,-266.88"/>
<text text-anchor="middle" x="1414.42" y="-253.38" font-family="Helvetica,sans-Serif" font-size="10.00">ErrorHandler.hpp</text>
</a>
</g>
</g>
<!-- Node1&#45;&gt;Node4 -->
<g id="edge58_Node000001_Node000004" class="edge">
<title>Node1&#45;&gt;Node4</title>
<g id="a_edge58_Node000001_Node000004"><a xlink:title=" ">
<path fill="none" stroke="#63b8ff" d="M1493.78,-422.49C1480.45,-394.77 1441.8,-314.41 1423.82,-277.04"/>
<polygon fill="#63b8ff" stroke="#63b8ff" points="1426.63,-275.82 1419.14,-268.32 1420.32,-278.85 1426.63,-275.82"/>
</a>
</g>
</g>
<!-- Node18 -->
<g id="Node000018" class="node">
<title>Node18</title>
<g id="a_Node000018"><a xlink:title=" ">
<polygon fill="#e0e0e0" stroke="#999999" points="510.29,-140.62 472.54,-140.62 472.54,-119.88 510.29,-119.88 510.29,-140.62"/>
<text text-anchor="middle" x="491.42" y="-127.12" font-family="Helvetica,sans-Serif" font-size="10.00">map</text>
</a>
</g>
</g>
<!-- Node1&#45;&gt;Node18 -->
<g id="edge64_Node000001_Node000018" class="edge">
<title>Node1&#45;&gt;Node18</title>
<g id="a_edge64_Node000001_Node000018"><a xlink:title=" ">
<path fill="none" stroke="#63b8ff" d="M1451.65,-430.73C1211.06,-423.06 120.36,-382.42 22.42,-273.25 -103.47,-132.92 340.02,-129.13 461.47,-130.65"/>
<polygon fill="#63b8ff" stroke="#63b8ff" points="461.14,-134.16 471.19,-130.81 461.24,-127.16 461.14,-134.16"/>
</a>
</g>
</g>
<!-- Node20 -->
<g id="Node000020" class="node">
<title>Node20</title>
<g id="a_Node000020"><a xlink:href="paser_2Scene_8hpp.html" target="_top" xlink:title=" ">
<polygon fill="white" stroke="#666666" points="803.54,-330 737.29,-330 737.29,-309.25 803.54,-309.25 803.54,-330"/>
<text text-anchor="middle" x="770.42" y="-316.5" font-family="Helvetica,sans-Serif" font-size="10.00">Scene.hpp</text>
</a>
</g>
</g>
<!-- Node1&#45;&gt;Node20 -->
<g id="edge59_Node000001_Node000020" class="edge">
<title>Node1&#45;&gt;Node20</title>
<g id="a_edge59_Node000001_Node000020"><a xlink:title=" ">
<path fill="none" stroke="#63b8ff" d="M1451.49,-424.94C1319.04,-404.65 943.55,-347.14 814.56,-327.39"/>
<polygon fill="#63b8ff" stroke="#63b8ff" points="815.34,-323.81 804.93,-325.76 814.28,-330.73 815.34,-323.81"/>
</a>
</g>
</g>
<!-- Node26 -->
<g id="Node000026" class="node">
<title>Node26</title>
<g id="a_Node000026"><a xlink:href="Camera_8hpp.html" target="_top" xlink:title=" ">
<polygon fill="white" stroke="#666666" points="1112.04,-203.75 970.79,-203.75 970.79,-183 1112.04,-183 1112.04,-203.75"/>
<text text-anchor="middle" x="1041.42" y="-190.25" font-family="Helvetica,sans-Serif" font-size="10.00">../src/camera/Camera.hpp</text>
</a>
</g>
</g>
<!-- Node1&#45;&gt;Node26 -->
<g id="edge62_Node000001_Node000026" class="edge">
<title>Node1&#45;&gt;Node26</title>
<g id="a_edge62_Node000001_Node000026"><a xlink:title=" ">
<path fill="none" stroke="#63b8ff" d="M1508.34,-422.42C1538.51,-391.79 1623.97,-295.89 1572.42,-239.75 1542.69,-207.37 1264.45,-198.06 1123.07,-195.41"/>
<polygon fill="#63b8ff" stroke="#63b8ff" points="1123.36,-191.9 1113.3,-195.22 1123.24,-198.9 1123.36,-191.9"/>
</a>
</g>
</g>
<!-- Node29 -->
<g id="Node000029" class="node">
<title>Node29</title>
<g id="a_Node000029"><a xlink:title=" ">
<polygon fill="#e0e0e0" stroke="#999999" points="1563.79,-266.88 1481.04,-266.88 1481.04,-246.12 1563.79,-246.12 1563.79,-266.88"/>
<text text-anchor="middle" x="1522.42" y="-253.38" font-family="Helvetica,sans-Serif" font-size="10.00">libconfig.h++</text>
</a>
</g>
</g>
<!-- Node1&#45;&gt;Node29 -->
<g id="edge60_Node000001_Node000029" class="edge">
<title>Node1&#45;&gt;Node29</title>
<g id="a_edge60_Node000001_Node000029"><a xlink:title=" ">
<path fill="none" stroke="#63b8ff" d="M1499.74,-422.49C1503.52,-395 1514.41,-315.79 1519.6,-278.01"/>
<polygon fill="#63b8ff" stroke="#63b8ff" points="1523.17,-278.71 1521.07,-268.32 1516.24,-277.75 1523.17,-278.71"/>
</a>
</g>
</g>
<!-- Node30 -->
<g id="Node000030" class="node">
<title>Node30</title>
<g id="a_Node000030"><a xlink:href="Primitive__fact_8hpp.html" target="_top" xlink:title=" ">
<polygon fill="white" stroke="#666666" points="1271.04,-330 1165.79,-330 1165.79,-309.25 1271.04,-309.25 1271.04,-330"/>
<text text-anchor="middle" x="1218.42" y="-316.5" font-family="Helvetica,sans-Serif" font-size="10.00">Primitive_fact.hpp</text>
</a>
</g>
</g>
<!-- Node1&#45;&gt;Node30 -->
<g id="edge49_Node000001_Node000030" class="edge">
<title>Node1&#45;&gt;Node30</title>
<g id="a_edge49_Node000001_Node000030"><a xlink:title=" ">
<path fill="none" stroke="#63b8ff" d="M1451.37,-428.01C1409,-422.83 1345.97,-411.43 1296.42,-386.75 1272.02,-374.6 1248.82,-353.23 1234.17,-338.08"/>
<polygon fill="#63b8ff" stroke="#63b8ff" points="1237.35,-336.29 1227.95,-331.4 1232.25,-341.08 1237.35,-336.29"/>
</a>
</g>
</g>
<!-- Node31 -->
<g id="Node000031" class="node">
<title>Node31</title>
<g id="a_Node000031"><a xlink:title=" ">
<polygon fill="#e0e0e0" stroke="#999999" points="1769.42,-386.75 1657.42,-386.75 1657.42,-366 1769.42,-366 1769.42,-386.75"/>
<text text-anchor="middle" x="1713.42" y="-373.25" font-family="Helvetica,sans-Serif" font-size="10.00">../src/core/Color.hpp</text>
</a>
</g>
</g>
<!-- Node1&#45;&gt;Node31 -->
<g id="edge61_Node000001_Node000031" class="edge">
<title>Node1&#45;&gt;Node31</title>
<g id="a_edge61_Node000001_Node000031"><a xlink:title=" ">
<path fill="none" stroke="#63b8ff" d="M1536.86,-422.34C1572.52,-413.26 1625.76,-399.7 1664.45,-389.84"/>
<polygon fill="#63b8ff" stroke="#63b8ff" points="1665.12,-393.03 1673.95,-387.17 1663.4,-386.25 1665.12,-393.03"/>
</a>
</g>
</g>
<!-- Node32 -->
<g id="Node000032" class="node">
<title>Node32</title>
<g id="a_Node000032"><a xlink:title=" ">
<polygon fill="#e0e0e0" stroke="#999999" points="1899.42,-386.75 1787.42,-386.75 1787.42,-366 1899.42,-366 1899.42,-386.75"/>
<text text-anchor="middle" x="1843.42" y="-373.25" font-family="Helvetica,sans-Serif" font-size="10.00">../src/core/Math.hpp</text>
</a>
</g>
</g>
<!-- Node1&#45;&gt;Node32 -->
<g id="edge63_Node000001_Node000032" class="edge">
<title>Node1&#45;&gt;Node32</title>
<g id="a_edge63_Node000001_Node000032"><a xlink:title=" ">
<path fill="none" stroke="#63b8ff" d="M1545.31,-424.68C1605.03,-415.21 1708.62,-398.77 1776.6,-387.98"/>
<polygon fill="#63b8ff" stroke="#63b8ff" points="1776.86,-391.32 1786.19,-386.3 1775.77,-384.41 1776.86,-391.32"/>
</a>
</g>
</g>
<!-- Node2&#45;&gt;Node3 -->
<g id="edge2_Node000002_Node000003" class="edge">
<title>Node2&#45;&gt;Node3</title>
<g id="a_edge2_Node000002_Node000003"><a xlink:title=" ">
<path fill="none" stroke="#63b8ff" d="M1338.3,-365.64C1342.71,-317 1362.39,-99.97 1368.56,-31.88"/>
<polygon fill="#63b8ff" stroke="#63b8ff" points="1372.13,-32.25 1369.55,-21.97 1365.16,-31.62 1372.13,-32.25"/>
</a>
</g>
</g>
<!-- Node2&#45;&gt;Node4 -->
<g id="edge3_Node000002_Node000004" class="edge">
<title>Node2&#45;&gt;Node4</title>
<g id="a_edge3_Node000002_Node000004"><a xlink:title=" ">
<path fill="none" stroke="#63b8ff" d="M1343.72,-365.73C1356.47,-346.22 1385.51,-301.75 1402.13,-276.31"/>
<polygon fill="#63b8ff" stroke="#63b8ff" points="1405.49,-278.57 1408.03,-268.28 1399.63,-274.74 1405.49,-278.57"/>
</a>
</g>
</g>
<!-- Node5 -->
<g id="Node000005" class="node">
<title>Node5</title>
<g id="a_Node000005"><a xlink:href="Sphere_8hpp.html" target="_top" xlink:title=" ">
<polygon fill="white" stroke="#666666" points="1233.29,-273.25 1105.54,-273.25 1105.54,-239.75 1233.29,-239.75 1233.29,-273.25"/>
<text text-anchor="start" x="1113.54" y="-259.75" font-family="Helvetica,sans-Serif" font-size="10.00">../src/primitives/sphere</text>
<text text-anchor="middle" x="1169.42" y="-247" font-family="Helvetica,sans-Serif" font-size="10.00">/Sphere.hpp</text>
</a>
</g>
</g>
<!-- Node2&#45;&gt;Node5 -->
<g id="edge5_Node000002_Node000005" class="edge">
<title>Node2&#45;&gt;Node5</title>
<g id="a_edge5_Node000002_Node000005"><a xlink:title=" ">
<path fill="none" stroke="#63b8ff" d="M1331.08,-365.7C1321.51,-351.72 1302.17,-325.71 1280.42,-309.25 1263.82,-296.69 1243.69,-286.17 1225.16,-277.97"/>
<polygon fill="#63b8ff" stroke="#63b8ff" points="1226.62,-274.36 1216.05,-273.65 1223.87,-280.8 1226.62,-274.36"/>
</a>
</g>
</g>
<!-- Node19 -->
<g id="Node000019" class="node">
<title>Node19</title>
<g id="a_Node000019"><a xlink:href="Plane_8hpp.html" target="_top" xlink:title=" ">
<polygon fill="white" stroke="#666666" points="787.29,-273.25 665.54,-273.25 665.54,-239.75 787.29,-239.75 787.29,-273.25"/>
<text text-anchor="start" x="673.54" y="-259.75" font-family="Helvetica,sans-Serif" font-size="10.00">../src/primitives/plane</text>
<text text-anchor="middle" x="726.42" y="-247" font-family="Helvetica,sans-Serif" font-size="10.00">/Plane.hpp</text>
</a>
</g>
</g>
<!-- Node2&#45;&gt;Node19 -->
<g id="edge27_Node000002_Node000019" class="edge">
<title>Node2&#45;&gt;Node19</title>
<g id="a_edge27_Node000002_Node000019"><a xlink:title=" ">
<path fill="none" stroke="#63b8ff" d="M1305,-369.12C1210,-350.79 930.63,-296.9 797.95,-271.3"/>
<polygon fill="#63b8ff" stroke="#63b8ff" points="798.98,-267.74 788.5,-269.28 797.65,-274.61 798.98,-267.74"/>
</a>
</g>
</g>
<!-- Node2&#45;&gt;Node20 -->
<g id="edge30_Node000002_Node000020" class="edge">
<title>Node2&#45;&gt;Node20</title>
<g id="a_edge30_Node000002_Node000020"><a xlink:title=" ">
<path fill="none" stroke="#63b8ff" d="M1305.31,-372.27C1209.39,-363.01 924.82,-335.53 814.66,-324.9"/>
<polygon fill="#63b8ff" stroke="#63b8ff" points="815.23,-321.34 804.94,-323.86 814.56,-328.31 815.23,-321.34"/>
</a>
</g>
</g>
<!-- Node2&#45;&gt;Node29 -->
<g id="edge48_Node000002_Node000029" class="edge">
<title>Node2&#45;&gt;Node29</title>
<g id="a_edge48_Node000002_Node000029"><a xlink:title=" ">
<path fill="none" stroke="#63b8ff" d="M1352.87,-365.53C1385.06,-345.02 1459.48,-297.6 1498.13,-272.98"/>
<polygon fill="#63b8ff" stroke="#63b8ff" points="1499.58,-275.56 1506.14,-267.24 1495.82,-269.66 1499.58,-275.56"/>
</a>
</g>
</g>
<!-- Node4&#45;&gt;Node3 -->
<g id="edge4_Node000004_Node000003" class="edge">
<title>Node4&#45;&gt;Node3</title>
<g id="a_edge4_Node000004_Node000003"><a xlink:title=" ">
<path fill="none" stroke="#63b8ff" d="M1413.48,-245.89C1410.56,-217 1400.81,-128.53 1384.42,-56.75 1382.49,-48.33 1379.8,-39.19 1377.29,-31.35"/>
<polygon fill="#63b8ff" stroke="#63b8ff" points="1380.32,-30.38 1373.85,-22 1373.68,-32.59 1380.32,-30.38"/>
</a>
</g>
</g>
<!-- Node6 -->
<g id="Node000006" class="node">
<title>Node6</title>
<g id="a_Node000006"><a xlink:href="IPrimitive_8hpp.html" target="_top" xlink:title=" ">
<polygon fill="white" stroke="#666666" points="775.04,-203.75 681.79,-203.75 681.79,-183 775.04,-183 775.04,-203.75"/>
<text text-anchor="middle" x="728.42" y="-190.25" font-family="Helvetica,sans-Serif" font-size="10.00">../IPrimitive.hpp</text>
</a>
</g>
</g>
<!-- Node5&#45;&gt;Node6 -->
<g id="edge6_Node000005_Node000006" class="edge">
<title>Node5&#45;&gt;Node6</title>
<g id="a_edge6_Node000005_Node000006"><a xlink:title=" ">
<path fill="none" stroke="#63b8ff" d="M1105.39,-241.34C1102.36,-240.78 1099.36,-240.25 1096.42,-239.75 987.3,-221.29 858.77,-207.16 786.11,-199.87"/>
<polygon fill="#63b8ff" stroke="#63b8ff" points="786.67,-196.31 776.38,-198.8 785.98,-203.27 786.67,-196.31"/>
</a>
</g>
</g>
<!-- Node5&#45;&gt;Node18 -->
<g id="edge26_Node000005_Node000018" class="edge">
<title>Node5&#45;&gt;Node18</title>
<g id="a_edge26_Node000005_Node000018"><a xlink:title=" ">
<path fill="none" stroke="#63b8ff" d="M1105.41,-241.21C1102.38,-240.68 1099.37,-240.19 1096.42,-239.75 909.38,-211.75 856.76,-246.02 672.42,-203.75 655.25,-199.81 540.6,-153.95 524.42,-147 523,-146.39 521.55,-145.75 520.09,-145.1"/>
<polygon fill="#63b8ff" stroke="#63b8ff" points="522.04,-141.69 511.5,-140.67 519.11,-148.04 522.04,-141.69"/>
</a>
</g>
</g>
<!-- Node7 -->
<g id="Node000007" class="node">
<title>Node7</title>
<g id="a_Node000007"><a xlink:href="Color_8hpp.html" target="_top" xlink:title=" ">
<polygon fill="white" stroke="#666666" points="700.29,-140.62 566.54,-140.62 566.54,-119.88 700.29,-119.88 700.29,-140.62"/>
<text text-anchor="middle" x="633.42" y="-127.12" font-family="Helvetica,sans-Serif" font-size="10.00">../core/helpers/Color.hpp</text>
</a>
</g>
</g>
<!-- Node6&#45;&gt;Node7 -->
<g id="edge7_Node000006_Node000007" class="edge">
<title>Node6&#45;&gt;Node7</title>
<g id="a_edge7_Node000006_Node000007"><a xlink:title=" ">
<path fill="none" stroke="#63b8ff" d="M713.15,-182.55C698.2,-172.93 675.16,-158.11 657.69,-146.87"/>
<polygon fill="#63b8ff" stroke="#63b8ff" points="659.95,-143.51 649.64,-141.05 656.16,-149.4 659.95,-143.51"/>
</a>
</g>
</g>
<!-- Node8 -->
<g id="Node000008" class="node">
<title>Node8</title>
<g id="a_Node000008"><a xlink:title=" ">
<polygon fill="#e0e0e0" stroke="#999999" points="962.17,-20.75 902.67,-20.75 902.67,0 962.17,0 962.17,-20.75"/>
<text text-anchor="middle" x="932.42" y="-7.25" font-family="Helvetica,sans-Serif" font-size="10.00">iostream</text>
</a>
</g>
</g>
<!-- Node6&#45;&gt;Node8 -->
<g id="edge23_Node000006_Node000008" class="edge">
<title>Node6&#45;&gt;Node8</title>
<g id="a_edge23_Node000006_Node000008"><a xlink:title=" ">
<path fill="none" stroke="#63b8ff" d="M681.48,-186.36C636.24,-179.49 572.49,-166.6 557.42,-147 548.34,-135.2 549.34,-126 557.42,-113.5 639.4,13.33 736.55,-48.56 891.54,-20.7"/>
<polygon fill="#63b8ff" stroke="#63b8ff" points="892.16,-23.95 901.32,-18.63 890.84,-17.08 892.16,-23.95"/>
</a>
</g>
</g>
<!-- Node9 -->
<g id="Node000009" class="node">
<title>Node9</title>
<g id="a_Node000009"><a xlink:href="Ray_8hpp.html" target="_top" xlink:title=" ">
<polygon fill="white" stroke="#666666" points="958.54,-140.62 832.29,-140.62 832.29,-119.88 958.54,-119.88 958.54,-140.62"/>
<text text-anchor="middle" x="895.42" y="-127.12" font-family="Helvetica,sans-Serif" font-size="10.00">../core/helpers/Ray.hpp</text>
</a>
</g>
</g>
<!-- Node6&#45;&gt;Node9 -->
<g id="edge9_Node000006_Node000009" class="edge">
<title>Node6&#45;&gt;Node9</title>
<g id="a_edge9_Node000006_Node000009"><a xlink:title=" ">
<path fill="none" stroke="#63b8ff" d="M755.25,-182.55C783.25,-172.31 827.34,-156.17 858.59,-144.73"/>
<polygon fill="#63b8ff" stroke="#63b8ff" points="859.47,-147.77 867.65,-141.05 857.06,-141.2 859.47,-147.77"/>
</a>
</g>
</g>
<!-- Node10 -->
<g id="Node000010" class="node">
<title>Node10</title>
<g id="a_Node000010"><a xlink:href="Math_8hpp.html" target="_top" xlink:title=" ">
<polygon fill="white" stroke="#666666" points="910.04,-77.5 810.79,-77.5 810.79,-56.75 910.04,-56.75 910.04,-77.5"/>
<text text-anchor="middle" x="860.42" y="-64" font-family="Helvetica,sans-Serif" font-size="10.00">../math/Math.hpp</text>
</a>
</g>
</g>
<!-- Node6&#45;&gt;Node10 -->
<g id="edge13_Node000006_Node000010" class="edge">
<title>Node6&#45;&gt;Node10</title>
<g id="a_edge13_Node000006_Node000010"><a xlink:title=" ">
<path fill="none" stroke="#63b8ff" d="M738.78,-182.63C761.14,-161.58 814.18,-111.65 842.26,-85.22"/>
<polygon fill="#63b8ff" stroke="#63b8ff" points="844.23,-88.23 849.11,-78.83 839.43,-83.13 844.23,-88.23"/>
</a>
</g>
</g>
<!-- Node12 -->
<g id="Node000012" class="node">
<title>Node12</title>
<g id="a_Node000012"><a xlink:href="Matrix_8hpp.html" target="_top" xlink:title=" ">
<polygon fill="white" stroke="#666666" points="1106.42,-140.62 976.42,-140.62 976.42,-119.88 1106.42,-119.88 1106.42,-140.62"/>
<text text-anchor="middle" x="1041.42" y="-127.12" font-family="Helvetica,sans-Serif" font-size="10.00">../core/math/Matrix.hpp</text>
</a>
</g>
</g>
<!-- Node6&#45;&gt;Node12 -->
<g id="edge14_Node000006_Node000012" class="edge">
<title>Node6&#45;&gt;Node12</title>
<g id="a_edge14_Node000006_Node000012"><a xlink:title=" ">
<path fill="none" stroke="#63b8ff" d="M775.19,-183.81C823.41,-174.91 900.76,-160.42 967.42,-147 973.36,-145.8 979.56,-144.53 985.74,-143.24"/>
<polygon fill="#63b8ff" stroke="#63b8ff" points="985.99,-146.55 995.05,-141.07 984.55,-139.7 985.99,-146.55"/>
</a>
</g>
</g>
<!-- Node16 -->
<g id="Node000016" class="node">
<title>Node16</title>
<g id="a_Node000016"><a xlink:title=" ">
<polygon fill="#e0e0e0" stroke="#999999" points="772.79,-77.5 726.04,-77.5 726.04,-56.75 772.79,-56.75 772.79,-77.5"/>
<text text-anchor="middle" x="749.42" y="-64" font-family="Helvetica,sans-Serif" font-size="10.00">vector</text>
</a>
</g>
</g>
<!-- Node6&#45;&gt;Node16 -->
<g id="edge25_Node000006_Node000016" class="edge">
<title>Node6&#45;&gt;Node16</title>
<g id="a_edge25_Node000006_Node000016"><a xlink:title=" ">
<path fill="none" stroke="#63b8ff" d="M730.07,-182.63C733.49,-162.39 741.41,-115.48 745.99,-88.4"/>
<polygon fill="#63b8ff" stroke="#63b8ff" points="749.56,-89.27 747.78,-78.83 742.66,-88.11 749.56,-89.27"/>
</a>
</g>
</g>
<!-- Node6&#45;&gt;Node18 -->
<g id="edge24_Node000006_Node000018" class="edge">
<title>Node6&#45;&gt;Node18</title>
<g id="a_edge24_Node000006_Node000018"><a xlink:title=" ">
<path fill="none" stroke="#63b8ff" d="M681.41,-185.04C639.51,-177.77 576.9,-165.1 524.42,-147 522.92,-146.48 521.4,-145.92 519.87,-145.31"/>
<polygon fill="#63b8ff" stroke="#63b8ff" points="521.52,-141.78 510.96,-141 518.73,-148.2 521.52,-141.78"/>
</a>
</g>
</g>
<!-- Node7&#45;&gt;Node8 -->
<g id="edge8_Node000007_Node000008" class="edge">
<title>Node7&#45;&gt;Node8</title>
<g id="a_edge8_Node000007_Node000008"><a xlink:title=" ">
<path fill="none" stroke="#63b8ff" d="M641.61,-119.5C655.49,-103.68 685.27,-72.58 717.42,-56.75 785.74,-23.12 812.64,-36.57 891.84,-20.73"/>
<polygon fill="#63b8ff" stroke="#63b8ff" points="892.23,-24.01 901.3,-18.53 890.79,-17.16 892.23,-24.01"/>
</a>
</g>
</g>
<!-- Node9&#45;&gt;Node10 -->
<g id="edge10_Node000009_Node000010" class="edge">
<title>Node9&#45;&gt;Node10</title>
<g id="a_edge10_Node000009_Node000010"><a xlink:title=" ">
<path fill="none" stroke="#63b8ff" d="M889.79,-119.43C884.82,-110.73 877.41,-97.8 871.28,-87.09"/>
<polygon fill="#63b8ff" stroke="#63b8ff" points="873.92,-85.66 865.91,-78.72 867.84,-89.14 873.92,-85.66"/>
</a>
</g>
</g>
<!-- Node10&#45;&gt;Node8 -->
<g id="edge11_Node000010_Node000008" class="edge">
<title>Node10&#45;&gt;Node8</title>
<g id="a_edge11_Node000010_Node000008"><a xlink:title=" ">
<path fill="none" stroke="#63b8ff" d="M873.29,-56.34C883.73,-48.4 898.68,-37.03 910.93,-27.71"/>
<polygon fill="#63b8ff" stroke="#63b8ff" points="912.82,-29.92 918.66,-21.08 908.58,-24.35 912.82,-29.92"/>
</a>
</g>
</g>
<!-- Node11 -->
<g id="Node000011" class="node">
<title>Node11</title>
<g id="a_Node000011"><a xlink:title=" ">
<polygon fill="#e0e0e0" stroke="#999999" points="883.79,-20.75 837.04,-20.75 837.04,0 883.79,0 883.79,-20.75"/>
<text text-anchor="middle" x="860.42" y="-7.25" font-family="Helvetica,sans-Serif" font-size="10.00">cmath</text>
</a>
</g>
</g>
<!-- Node10&#45;&gt;Node11 -->
<g id="edge12_Node000010_Node000011" class="edge">
<title>Node10&#45;&gt;Node11</title>
<g id="a_edge12_Node000010_Node000011"><a xlink:title=" ">
<path fill="none" stroke="#63b8ff" d="M860.42,-56.34C860.42,-49.56 860.42,-40.3 860.42,-31.94"/>
<polygon fill="#63b8ff" stroke="#63b8ff" points="863.92,-32.08 860.42,-22.08 856.92,-32.08 863.92,-32.08"/>
</a>
</g>
</g>
<!-- Node12&#45;&gt;Node8 -->
<g id="edge20_Node000012_Node000008" class="edge">
<title>Node12&#45;&gt;Node8</title>
<g id="a_edge20_Node000012_Node000008"><a xlink:title=" ">
<path fill="none" stroke="#63b8ff" d="M1017.04,-119.48C998.42,-110.91 973.34,-96.79 957.42,-77.5 946.43,-64.19 939.97,-45.55 936.38,-31.45"/>
<polygon fill="#63b8ff" stroke="#63b8ff" points="939.61,-30.88 934,-21.89 932.79,-32.42 939.61,-30.88"/>
</a>
</g>
</g>
<!-- Node12&#45;&gt;Node10 -->
<g id="edge15_Node000012_Node000010" class="edge">
<title>Node12&#45;&gt;Node10</title>
<g id="a_edge15_Node000012_Node000010"><a xlink:title=" ">
<path fill="none" stroke="#63b8ff" d="M1012.34,-119.43C981.73,-109.09 933.37,-92.76 899.45,-81.31"/>
<polygon fill="#63b8ff" stroke="#63b8ff" points="901.02,-77.81 890.43,-77.92 898.78,-84.44 901.02,-77.81"/>
</a>
</g>
</g>
<!-- Node13 -->
<g id="Node000013" class="node">
<title>Node13</title>
<g id="a_Node000013"><a xlink:href="Error_8hpp.html" target="_top" xlink:title=" ">
<polygon fill="white" stroke="#666666" points="1060.79,-77.5 966.04,-77.5 966.04,-56.75 1060.79,-56.75 1060.79,-77.5"/>
<text text-anchor="middle" x="1013.42" y="-64" font-family="Helvetica,sans-Serif" font-size="10.00">../error/Error.hpp</text>
</a>
</g>
</g>
<!-- Node12&#45;&gt;Node13 -->
<g id="edge16_Node000012_Node000013" class="edge">
<title>Node12&#45;&gt;Node13</title>
<g id="a_edge16_Node000012_Node000013"><a xlink:title=" ">
<path fill="none" stroke="#63b8ff" d="M1036.92,-119.43C1032.98,-110.82 1027.13,-98.06 1022.26,-87.42"/>
<polygon fill="#63b8ff" stroke="#63b8ff" points="1025.16,-86.35 1017.81,-78.72 1018.8,-89.27 1025.16,-86.35"/>
</a>
</g>
</g>
<!-- Node15 -->
<g id="Node000015" class="node">
<title>Node15</title>
<g id="a_Node000015"><a xlink:title=" ">
<polygon fill="#e0e0e0" stroke="#999999" points="1160.42,-77.5 1078.42,-77.5 1078.42,-56.75 1160.42,-56.75 1160.42,-77.5"/>
<text text-anchor="middle" x="1119.42" y="-64" font-family="Helvetica,sans-Serif" font-size="10.00">initializer_list</text>
</a>
</g>
</g>
<!-- Node12&#45;&gt;Node15 -->
<g id="edge19_Node000012_Node000015" class="edge">
<title>Node12&#45;&gt;Node15</title>
<g id="a_edge19_Node000012_Node000015"><a xlink:title=" ">
<path fill="none" stroke="#63b8ff" d="M1053.95,-119.43C1065.89,-110.07 1084.1,-95.8 1098.28,-84.69"/>
<polygon fill="#63b8ff" stroke="#63b8ff" points="1100.2,-86.84 1105.92,-77.92 1095.89,-81.33 1100.2,-86.84"/>
</a>
</g>
</g>
<!-- Node12&#45;&gt;Node16 -->
<g id="edge21_Node000012_Node000016" class="edge">
<title>Node12&#45;&gt;Node16</title>
<g id="a_edge21_Node000012_Node000016"><a xlink:title=" ">
<path fill="none" stroke="#63b8ff" d="M995.24,-119.39C986.03,-117.43 976.42,-115.39 967.42,-113.5 902.48,-99.83 826.61,-84.09 783.67,-75.2"/>
<polygon fill="#63b8ff" stroke="#63b8ff" points="784.48,-71.59 773.97,-72.99 783.06,-78.45 784.48,-71.59"/>
</a>
</g>
</g>
<!-- Node17 -->
<g id="Node000017" class="node">
<title>Node17</title>
<g id="a_Node000017"><a xlink:title=" ">
<polygon fill="#e0e0e0" stroke="#999999" points="1227.92,-77.5 1178.92,-77.5 1178.92,-56.75 1227.92,-56.75 1227.92,-77.5"/>
<text text-anchor="middle" x="1203.42" y="-64" font-family="Helvetica,sans-Serif" font-size="10.00">format</text>
</a>
</g>
</g>
<!-- Node12&#45;&gt;Node17 -->
<g id="edge22_Node000012_Node000017" class="edge">
<title>Node12&#45;&gt;Node17</title>
<g id="a_edge22_Node000012_Node000017"><a xlink:title=" ">
<path fill="none" stroke="#63b8ff" d="M1067.45,-119.43C1094.81,-109.1 1138.02,-92.8 1168.37,-81.35"/>
<polygon fill="#63b8ff" stroke="#63b8ff" points="1169.4,-84.32 1177.52,-77.52 1166.93,-77.78 1169.4,-84.32"/>
</a>
</g>
</g>
<!-- Node13&#45;&gt;Node3 -->
<g id="edge18_Node000013_Node000003" class="edge">
<title>Node13&#45;&gt;Node3</title>
<g id="a_edge18_Node000013_Node000003"><a xlink:title=" ">
<path fill="none" stroke="#63b8ff" d="M1061.07,-58.09C1063.89,-57.63 1066.69,-57.18 1069.42,-56.75 1166.83,-41.26 1282.2,-24.24 1337.56,-16.15"/>
<polygon fill="#63b8ff" stroke="#63b8ff" points="1337.73,-19.52 1347.12,-14.61 1336.72,-12.59 1337.73,-19.52"/>
</a>
</g>
</g>
<!-- Node14 -->
<g id="Node000014" class="node">
<title>Node14</title>
<g id="a_Node000014"><a xlink:title=" ">
<polygon fill="#e0e0e0" stroke="#999999" points="1045.42,-20.75 981.42,-20.75 981.42,0 1045.42,0 1045.42,-20.75"/>
<text text-anchor="middle" x="1013.42" y="-7.25" font-family="Helvetica,sans-Serif" font-size="10.00">stdexcept</text>
</a>
</g>
</g>
<!-- Node13&#45;&gt;Node14 -->
<g id="edge17_Node000013_Node000014" class="edge">
<title>Node13&#45;&gt;Node14</title>
<g id="a_edge17_Node000013_Node000014"><a xlink:title=" ">
<path fill="none" stroke="#63b8ff" d="M1013.42,-56.34C1013.42,-49.56 1013.42,-40.3 1013.42,-31.94"/>
<polygon fill="#63b8ff" stroke="#63b8ff" points="1016.92,-32.08 1013.42,-22.08 1009.92,-32.08 1016.92,-32.08"/>
</a>
</g>
</g>
<!-- Node19&#45;&gt;Node6 -->
<g id="edge28_Node000019_Node000006" class="edge">
<title>Node19&#45;&gt;Node6</title>
<g id="a_edge28_Node000019_Node000006"><a xlink:title=" ">
<path fill="none" stroke="#63b8ff" d="M726.94,-239.44C727.19,-232.02 727.48,-223.11 727.74,-215.18"/>
<polygon fill="#63b8ff" stroke="#63b8ff" points="731.27,-215.33 728.1,-205.22 724.27,-215.1 731.27,-215.33"/>
</a>
</g>
</g>
<!-- Node19&#45;&gt;Node18 -->
<g id="edge29_Node000019_Node000018" class="edge">
<title>Node19&#45;&gt;Node18</title>
<g id="a_edge29_Node000019_Node000018"><a xlink:title=" ">
<path fill="none" stroke="#63b8ff" d="M689.51,-239.33C667.71,-229.52 639.71,-216.48 615.42,-203.75 580.32,-185.36 541.02,-161.86 516.25,-146.69"/>
<polygon fill="#63b8ff" stroke="#63b8ff" points="518.55,-143.38 508.2,-141.12 514.88,-149.34 518.55,-143.38"/>
</a>
</g>
</g>
<!-- Node20&#45;&gt;Node5 -->
<g id="edge34_Node000020_Node000005" class="edge">
<title>Node20&#45;&gt;Node5</title>
<g id="a_edge34_Node000020_Node000005"><a xlink:title=" ">
<path fill="none" stroke="#63b8ff" d="M803.87,-314.8C861.27,-308.06 982.45,-293.04 1094.88,-273.45"/>
<polygon fill="#63b8ff" stroke="#63b8ff" points="1095.14,-276.78 1104.38,-271.6 1093.92,-269.88 1095.14,-276.78"/>
</a>
</g>
</g>
<!-- Node20&#45;&gt;Node16 -->
<g id="edge46_Node000020_Node000016" class="edge">
<title>Node20&#45;&gt;Node16</title>
<g id="a_edge46_Node000020_Node000016"><a xlink:title=" ">
<path fill="none" stroke="#63b8ff" d="M737.32,-308.81C713.77,-301.05 681.92,-288.91 656.42,-273.25 637.23,-261.47 636.6,-253.03 618.42,-239.75 553.59,-192.4 503.01,-216.84 463.42,-147 456.07,-134.05 453.75,-124.82 463.42,-113.5 495.42,-76.02 646.19,-69.33 715.01,-68.26"/>
<polygon fill="#63b8ff" stroke="#63b8ff" points="714.75,-71.75 724.71,-68.13 714.67,-64.75 714.75,-71.75"/>
</a>
</g>
</g>
<!-- Node20&#45;&gt;Node19 -->
<g id="edge33_Node000020_Node000019" class="edge">
<title>Node20&#45;&gt;Node19</title>
<g id="a_edge33_Node000020_Node000019"><a xlink:title=" ">
<path fill="none" stroke="#63b8ff" d="M763.35,-308.8C758.25,-301.72 751.12,-291.81 744.48,-282.59"/>
<polygon fill="#63b8ff" stroke="#63b8ff" points="746.79,-280.81 738.1,-274.73 741.11,-284.9 746.79,-280.81"/>
</a>
</g>
</g>
<!-- Node21 -->
<g id="Node000021" class="node">
<title>Node21</title>
<g id="a_Node000021"><a xlink:title=" ">
<polygon fill="#e0e0e0" stroke="#999999" points="1087.54,-266.88 919.29,-266.88 919.29,-246.12 1087.54,-246.12 1087.54,-266.88"/>
<text text-anchor="middle" x="1003.42" y="-253.38" font-family="Helvetica,sans-Serif" font-size="10.00">../src/primitives/IPrimitives.hpp</text>
</a>
</g>
</g>
<!-- Node20&#45;&gt;Node21 -->
<g id="edge31_Node000020_Node000021" class="edge">
<title>Node20&#45;&gt;Node21</title>
<g id="a_edge31_Node000020_Node000021"><a xlink:title=" ">
<path fill="none" stroke="#63b8ff" d="M803.8,-309.87C843.53,-299.45 910.15,-281.97 955.4,-270.1"/>
<polygon fill="#63b8ff" stroke="#63b8ff" points="956.07,-273.28 964.85,-267.36 954.29,-266.51 956.07,-273.28"/>
</a>
</g>
</g>
<!-- Node22 -->
<g id="Node000022" class="node">
<title>Node22</title>
<g id="a_Node000022"><a xlink:title=" ">
<polygon fill="#e0e0e0" stroke="#999999" points="157.17,-266.88 31.67,-266.88 31.67,-246.12 157.17,-246.12 157.17,-266.88"/>
<text text-anchor="middle" x="94.42" y="-253.38" font-family="Helvetica,sans-Serif" font-size="10.00">../src/ligths/ILigths.hpp</text>
</a>
</g>
</g>
<!-- Node20&#45;&gt;Node22 -->
<g id="edge32_Node000020_Node000022" class="edge">
<title>Node20&#45;&gt;Node22</title>
<g id="a_edge32_Node000020_Node000022"><a xlink:title=" ">
<path fill="none" stroke="#63b8ff" d="M737.11,-317.8C645.45,-315.18 381.89,-305.21 165.42,-273.25 158.7,-272.26 151.66,-270.99 144.75,-269.6"/>
<polygon fill="#63b8ff" stroke="#63b8ff" points="145.54,-265.98 135.04,-267.34 144.1,-272.83 145.54,-265.98"/>
</a>
</g>
</g>
<!-- Node23 -->
<g id="Node000023" class="node">
<title>Node23</title>
<g id="a_Node000023"><a xlink:title=" ">
<polygon fill="#e0e0e0" stroke="#999999" points="295.92,-273.25 174.92,-273.25 174.92,-239.75 295.92,-239.75 295.92,-273.25"/>
<text text-anchor="start" x="182.92" y="-259.75" font-family="Helvetica,sans-Serif" font-size="10.00">../src/ligths/pointLigth</text>
<text text-anchor="middle" x="235.42" y="-247" font-family="Helvetica,sans-Serif" font-size="10.00">/PointLigth.hpp</text>
</a>
</g>
</g>
<!-- Node20&#45;&gt;Node23 -->
<g id="edge35_Node000020_Node000023" class="edge">
<title>Node20&#45;&gt;Node23</title>
<g id="a_edge35_Node000020_Node000023"><a xlink:title=" ">
<path fill="none" stroke="#63b8ff" d="M736.89,-316.83C661.6,-312.48 473.23,-299.87 306.72,-273.51"/>
<polygon fill="#63b8ff" stroke="#63b8ff" points="307.72,-269.97 297.29,-271.84 306.61,-276.88 307.72,-269.97"/>
</a>
</g>
</g>
<!-- Node24 -->
<g id="Node000024" class="node">
<title>Node24</title>
<g id="a_Node000024"><a xlink:title=" ">
<polygon fill="#e0e0e0" stroke="#999999" points="455.04,-273.25 313.79,-273.25 313.79,-239.75 455.04,-239.75 455.04,-273.25"/>
<text text-anchor="start" x="321.79" y="-259.75" font-family="Helvetica,sans-Serif" font-size="10.00">../src/ligths/directional</text>
<text text-anchor="middle" x="384.42" y="-247" font-family="Helvetica,sans-Serif" font-size="10.00">Ligth/DirectionalLigth.hpp</text>
</a>
</g>
</g>
<!-- Node20&#45;&gt;Node24 -->
<g id="edge36_Node000020_Node000024" class="edge">
<title>Node20&#45;&gt;Node24</title>
<g id="a_edge36_Node000020_Node000024"><a xlink:title=" ">
<path fill="none" stroke="#63b8ff" d="M736.83,-314.17C682.29,-306.83 570.84,-291.35 466.24,-273.52"/>
<polygon fill="#63b8ff" stroke="#63b8ff" points="466.93,-269.91 456.49,-271.67 465.75,-276.81 466.93,-269.91"/>
</a>
</g>
</g>
<!-- Node25 -->
<g id="Node000025" class="node">
<title>Node25</title>
<g id="a_Node000025"><a xlink:title=" ">
<polygon fill="#e0e0e0" stroke="#999999" points="609.79,-273.25 473.04,-273.25 473.04,-239.75 609.79,-239.75 609.79,-273.25"/>
<text text-anchor="start" x="481.04" y="-259.75" font-family="Helvetica,sans-Serif" font-size="10.00">../src/ligths/ambientLigth</text>
<text text-anchor="middle" x="541.42" y="-247" font-family="Helvetica,sans-Serif" font-size="10.00">/ambientLigth.hpp</text>
</a>
</g>
</g>
<!-- Node20&#45;&gt;Node25 -->
<g id="edge37_Node000020_Node000025" class="edge">
<title>Node20&#45;&gt;Node25</title>
<g id="a_edge37_Node000020_Node000025"><a xlink:title=" ">
<path fill="none" stroke="#63b8ff" d="M737.12,-309.74C704.53,-301.04 653.85,-287.51 612.23,-276.4"/>
<polygon fill="#63b8ff" stroke="#63b8ff" points="613.43,-272.83 602.86,-273.63 611.62,-279.6 613.43,-272.83"/>
</a>
</g>
</g>
<!-- Node20&#45;&gt;Node26 -->
<g id="edge38_Node000020_Node000026" class="edge">
<title>Node20&#45;&gt;Node26</title>
<g id="a_edge38_Node000020_Node000026"><a xlink:title=" ">
<path fill="none" stroke="#63b8ff" d="M775.44,-308.84C784.68,-291.9 806.05,-257.24 834.42,-239.75 871.86,-216.67 919.46,-205.25 959.58,-199.63"/>
<polygon fill="#63b8ff" stroke="#63b8ff" points="959.95,-202.99 969.42,-198.23 959.05,-196.05 959.95,-202.99"/>
</a>
</g>
</g>
<!-- Node28 -->
<g id="Node000028" class="node">
<title>Node28</title>
<g id="a_Node000028"><a xlink:title=" ">
<polygon fill="#e0e0e0" stroke="#999999" points="901.04,-266.88 843.79,-266.88 843.79,-246.12 901.04,-246.12 901.04,-266.88"/>
<text text-anchor="middle" x="872.42" y="-253.38" font-family="Helvetica,sans-Serif" font-size="10.00">memory</text>
</a>
</g>
</g>
<!-- Node20&#45;&gt;Node28 -->
<g id="edge47_Node000020_Node000028" class="edge">
<title>Node20&#45;&gt;Node28</title>
<g id="a_edge47_Node000020_Node000028"><a xlink:title=" ">
<path fill="none" stroke="#63b8ff" d="M786.81,-308.8C803.02,-299.09 828.06,-284.08 846.88,-272.81"/>
<polygon fill="#63b8ff" stroke="#63b8ff" points="848.29,-275.44 855.07,-267.3 844.69,-269.43 848.29,-275.44"/>
</a>
</g>
</g>
<!-- Node26&#45;&gt;Node8 -->
<g id="edge44_Node000026_Node000008" class="edge">
<title>Node26&#45;&gt;Node8</title>
<g id="a_edge44_Node000026_Node000008"><a xlink:title=" ">
<path fill="none" stroke="#63b8ff" d="M1112.42,-188.31C1173.53,-183.16 1255.01,-171.74 1275.42,-147 1284.89,-135.51 1278.16,-128.14 1275.42,-113.5 1270.44,-86.91 1274.72,-73.43 1253.42,-56.75 1206.17,-19.76 1049.99,-30.75 973.22,-20.45"/>
<polygon fill="#63b8ff" stroke="#63b8ff" points="973.91,-16.86 963.49,-18.77 972.83,-23.78 973.91,-16.86"/>
</a>
</g>
</g>
<!-- Node26&#45;&gt;Node9 -->
<g id="edge39_Node000026_Node000009" class="edge">
<title>Node26&#45;&gt;Node9</title>
<g id="a_edge39_Node000026_Node000009"><a xlink:title=" ">
<path fill="none" stroke="#63b8ff" d="M1017.96,-182.55C993.8,-172.44 955.94,-156.59 928.69,-145.18"/>
<polygon fill="#63b8ff" stroke="#63b8ff" points="930.39,-141.68 919.82,-141.05 927.69,-148.14 930.39,-141.68"/>
</a>
</g>
</g>
<!-- Node26&#45;&gt;Node12 -->
<g id="edge43_Node000026_Node000012" class="edge">
<title>Node26&#45;&gt;Node12</title>
<g id="a_edge43_Node000026_Node000012"><a xlink:title=" ">
<path fill="none" stroke="#63b8ff" d="M1041.42,-182.55C1041.42,-174.22 1041.42,-161.98 1041.42,-151.55"/>
<polygon fill="#63b8ff" stroke="#63b8ff" points="1044.92,-151.84 1041.42,-141.84 1037.92,-151.84 1044.92,-151.84"/>
</a>
</g>
</g>
<!-- Node26&#45;&gt;Node18 -->
<g id="edge45_Node000026_Node000018" class="edge">
<title>Node26&#45;&gt;Node18</title>
<g id="a_edge45_Node000026_Node000018"><a xlink:title=" ">
<path fill="none" stroke="#63b8ff" d="M970.48,-188.86C875.8,-183.45 703.13,-171.09 557.42,-147 545.48,-145.03 532.49,-142.1 521.22,-139.3"/>
<polygon fill="#63b8ff" stroke="#63b8ff" points="522.18,-135.68 511.62,-136.59 520.44,-142.46 522.18,-135.68"/>
</a>
</g>
</g>
<!-- Node27 -->
<g id="Node000027" class="node">
<title>Node27</title>
<g id="a_Node000027"><a xlink:href="Rectangle3D_8hpp.html" target="_top" xlink:title=" ">
<polygon fill="white" stroke="#666666" points="1266.79,-147 1124.04,-147 1124.04,-113.5 1266.79,-113.5 1266.79,-147"/>
<text text-anchor="start" x="1132.04" y="-133.5" font-family="Helvetica,sans-Serif" font-size="10.00">../core/helpers/Rectangle3</text>
<text text-anchor="middle" x="1195.42" y="-120.75" font-family="Helvetica,sans-Serif" font-size="10.00">D.hpp</text>
</a>
</g>
</g>
<!-- Node26&#45;&gt;Node27 -->
<g id="edge40_Node000026_Node000027" class="edge">
<title>Node26&#45;&gt;Node27</title>
<g id="a_edge40_Node000026_Node000027"><a xlink:title=" ">
<path fill="none" stroke="#63b8ff" d="M1066.16,-182.55C1087.18,-174.21 1118.03,-161.97 1144.32,-151.53"/>
<polygon fill="#63b8ff" stroke="#63b8ff" points="1145.51,-154.43 1153.52,-147.48 1142.93,-147.92 1145.51,-154.43"/>
</a>
</g>
</g>
<!-- Node27&#45;&gt;Node8 -->
<g id="edge41_Node000027_Node000008" class="edge">
<title>Node27&#45;&gt;Node8</title>
<g id="a_edge41_Node000027_Node000008"><a xlink:title=" ">
<path fill="none" stroke="#63b8ff" d="M1215.45,-113.08C1232.3,-97.54 1251.44,-73.96 1236.42,-56.75 1199.38,-14.32 1046.63,-29.78 973.16,-20.4"/>
<polygon fill="#63b8ff" stroke="#63b8ff" points="973.91,-16.82 963.49,-18.75 972.84,-23.74 973.91,-16.82"/>
</a>
</g>
</g>
<!-- Node27&#45;&gt;Node10 -->
<g id="edge42_Node000027_Node000010" class="edge">
<title>Node27&#45;&gt;Node10</title>
<g id="a_edge42_Node000027_Node000010"><a xlink:title=" ">
<path fill="none" stroke="#63b8ff" d="M1123.9,-115.1C1121.04,-114.56 1118.2,-114.02 1115.42,-113.5 1048.99,-101.05 972.66,-87.58 920.95,-78.58"/>
<polygon fill="#63b8ff" stroke="#63b8ff" points="921.76,-74.99 911.31,-76.72 920.56,-81.89 921.76,-74.99"/>
</a>
</g>
</g>
<!-- Node30&#45;&gt;Node3 -->
<g id="edge53_Node000030_Node000003" class="edge">
<title>Node30&#45;&gt;Node3</title>
<g id="a_edge53_Node000030_Node000003"><a xlink:title=" ">
<path fill="none" stroke="#63b8ff" d="M1229.21,-309.04C1238.43,-300.39 1251.58,-286.97 1260.42,-273.25 1288.16,-230.19 1343.32,-84.55 1363.13,-31.18"/>
<polygon fill="#63b8ff" stroke="#63b8ff" points="1366.7,-32.6 1366.89,-22 1360.14,-30.17 1366.7,-32.6"/>
</a>
</g>
</g>
<!-- Node30&#45;&gt;Node4 -->
<g id="edge57_Node000030_Node000004" class="edge">
<title>Node30&#45;&gt;Node4</title>
<g id="a_edge57_Node000030_Node000004"><a xlink:title=" ">
<path fill="none" stroke="#63b8ff" d="M1249.91,-308.8C1283.2,-298.42 1335.87,-281.99 1372.62,-270.53"/>
<polygon fill="#63b8ff" stroke="#63b8ff" points="1373.5,-273.61 1382.01,-267.3 1371.42,-266.93 1373.5,-273.61"/>
</a>
</g>
</g>
<!-- Node30&#45;&gt;Node5 -->
<g id="edge56_Node000030_Node000005" class="edge">
<title>Node30&#45;&gt;Node5</title>
<g id="a_edge56_Node000030_Node000005"><a xlink:title=" ">
<path fill="none" stroke="#63b8ff" d="M1210.55,-308.8C1204.81,-301.64 1196.76,-291.61 1189.3,-282.31"/>
<polygon fill="#63b8ff" stroke="#63b8ff" points="1191.42,-280.35 1182.43,-274.73 1185.96,-284.73 1191.42,-280.35"/>
</a>
</g>
</g>
<!-- Node30&#45;&gt;Node16 -->
<g id="edge54_Node000030_Node000016" class="edge">
<title>Node30&#45;&gt;Node16</title>
<g id="a_edge54_Node000030_Node000016"><a xlink:title=" ">
<path fill="none" stroke="#63b8ff" d="M1226.56,-308.9C1239.14,-292.67 1260.1,-259.84 1242.42,-239.75 1200.83,-192.49 1022.28,-219.86 961.42,-203.75 897.31,-186.78 878.01,-184.65 823.42,-147 799.03,-130.18 776.59,-104.13 762.97,-86.62"/>
<polygon fill="#63b8ff" stroke="#63b8ff" points="765.18,-84.74 756.35,-78.88 759.6,-88.97 765.18,-84.74"/>
</a>
</g>
</g>
<!-- Node30&#45;&gt;Node19 -->
<g id="edge55_Node000030_Node000019" class="edge">
<title>Node30&#45;&gt;Node19</title>
<g id="a_edge55_Node000030_Node000019"><a xlink:title=" ">
<path fill="none" stroke="#63b8ff" d="M1165.56,-312.84C1091.47,-304.63 952.55,-288.84 834.42,-273.25 822.84,-271.72 810.58,-270.02 798.63,-268.31"/>
<polygon fill="#63b8ff" stroke="#63b8ff" points="799.17,-264.71 788.78,-266.74 798.17,-271.63 799.17,-264.71"/>
</a>
</g>
</g>
<!-- Node30&#45;&gt;Node21 -->
<g id="edge50_Node000030_Node000021" class="edge">
<title>Node30&#45;&gt;Node21</title>
<g id="a_edge50_Node000030_Node000021"><a xlink:title=" ">
<path fill="none" stroke="#63b8ff" d="M1183.87,-308.8C1147.04,-298.33 1088.58,-281.71 1048.23,-270.24"/>
<polygon fill="#63b8ff" stroke="#63b8ff" points="1049.45,-266.66 1038.88,-267.3 1047.54,-273.4 1049.45,-266.66"/>
</a>
</g>
</g>
<!-- Node30&#45;&gt;Node28 -->
<g id="edge52_Node000030_Node000028" class="edge">
<title>Node30&#45;&gt;Node28</title>
<g id="a_edge52_Node000030_Node000028"><a xlink:title=" ">
<path fill="none" stroke="#63b8ff" d="M1165.56,-314.82C1103.55,-309.45 998.07,-297.47 910.42,-273.25 908.13,-272.62 905.79,-271.88 903.45,-271.08"/>
<polygon fill="#63b8ff" stroke="#63b8ff" points="904.99,-267.54 894.4,-267.28 902.51,-274.09 904.99,-267.54"/>
</a>
</g>
</g>
<!-- Node30&#45;&gt;Node29 -->
<g id="edge51_Node000030_Node000029" class="edge">
<title>Node30&#45;&gt;Node29</title>
<g id="a_edge51_Node000030_Node000029"><a xlink:title=" ">
<path fill="none" stroke="#63b8ff" d="M1271.37,-311.19C1323.04,-303.47 1403.69,-290.14 1472.42,-273.25 1475.86,-272.4 1479.42,-271.45 1482.98,-270.44"/>
<polygon fill="#63b8ff" stroke="#63b8ff" points="1483.93,-273.51 1492.51,-267.3 1481.93,-266.8 1483.93,-273.51"/>
</a>
</g>
</g>
</g>
</svg>
