<?xml version="1.0" encoding="UTF-8" standalone="no"?>
<!DOCTYPE svg PUBLIC "-//W3C//DTD SVG 1.1//EN"
 "http://www.w3.org/Graphics/SVG/1.1/DTD/svg11.dtd">
<!-- Generated by graphviz version 8.1.0 (20230707.0739)
 -->
<!-- Title: paser/Scene.hpp Pages: 1 -->
<svg width="1293pt" height="338pt"
 viewBox="0.00 0.00 1293.00 338.00" xmlns="http://www.w3.org/2000/svg" xmlns:xlink="http://www.w3.org/1999/xlink">
<g id="graph0" class="graph" transform="scale(1 1) rotate(0) translate(4 334)">
<title>paser/Scene.hpp</title>
<!-- Node1 -->
<g id="Node000001" class="node">
<title>Node1</title>
<g id="a_Node000001"><a xlink:title=" ">
<polygon fill="#999999" stroke="#666666" points="692.25,-330 596,-330 596,-309.25 692.25,-309.25 692.25,-330"/>
<text text-anchor="middle" x="644.12" y="-316.5" font-family="Helvetica,sans-Serif" font-size="10.00">paser/Scene.hpp</text>
</a>
</g>
</g>
<!-- Node2 -->
<g id="Node000002" class="node">
<title>Node2</title>
<g id="a_Node000002"><a xlink:title=" ">
<polygon fill="#e0e0e0" stroke="#999999" points="168.25,-266.88 0,-266.88 0,-246.12 168.25,-246.12 168.25,-266.88"/>
<text text-anchor="middle" x="84.12" y="-253.38" font-family="Helvetica,sans-Serif" font-size="10.00">../src/primitives/IPrimitives.hpp</text>
</a>
</g>
</g>
<!-- Node1&#45;&gt;Node2 -->
<g id="edge1_Node000001_Node000002" class="edge">
<title>Node1&#45;&gt;Node2</title>
<g id="a_edge1_Node000001_Node000002"><a xlink:title=" ">
<path fill="none" stroke="#63b8ff" d="M595.59,-315.05C510.59,-308.53 329.33,-293.51 177.12,-273.25 167.93,-272.03 158.24,-270.57 148.74,-269.05"/>
<polygon fill="#63b8ff" stroke="#63b8ff" points="149.56,-265.47 139.12,-267.31 148.42,-272.38 149.56,-265.47"/>
</a>
</g>
</g>
<!-- Node3 -->
<g id="Node000003" class="node">
<title>Node3</title>
<g id="a_Node000003"><a xlink:title=" ">
<polygon fill="#e0e0e0" stroke="#999999" points="311.88,-266.88 186.38,-266.88 186.38,-246.12 311.88,-246.12 311.88,-266.88"/>
<text text-anchor="middle" x="249.12" y="-253.38" font-family="Helvetica,sans-Serif" font-size="10.00">../src/ligths/ILigths.hpp</text>
</a>
</g>
</g>
<!-- Node1&#45;&gt;Node3 -->
<g id="edge2_Node000001_Node000003" class="edge">
<title>Node1&#45;&gt;Node3</title>
<g id="a_edge2_Node000001_Node000003"><a xlink:title=" ">
<path fill="none" stroke="#63b8ff" d="M595.77,-312.64C533.31,-304.71 421.32,-289.76 326.12,-273.25 319.51,-272.1 312.59,-270.81 305.73,-269.48"/>
<polygon fill="#63b8ff" stroke="#63b8ff" points="306.54,-265.88 296.05,-267.36 305.18,-272.74 306.54,-265.88"/>
</a>
</g>
</g>
<!-- Node4 -->
<g id="Node000004" class="node">
<title>Node4</title>
<g id="a_Node000004"><a xlink:href="Plane_8hpp.html" target="_top" xlink:title=" ">
<polygon fill="white" stroke="#666666" points="636,-273.25 514.25,-273.25 514.25,-239.75 636,-239.75 636,-273.25"/>
<text text-anchor="start" x="522.25" y="-259.75" font-family="Helvetica,sans-Serif" font-size="10.00">../src/primitives/plane</text>
<text text-anchor="middle" x="575.12" y="-247" font-family="Helvetica,sans-Serif" font-size="10.00">/Plane.hpp</text>
</a>
</g>
</g>
<!-- Node1&#45;&gt;Node4 -->
<g id="edge3_Node000001_Node000004" class="edge">
<title>Node1&#45;&gt;Node4</title>
<g id="a_edge3_Node000001_Node000004"><a xlink:title=" ">
<path fill="none" stroke="#63b8ff" d="M633.04,-308.8C624.54,-301.27 612.45,-290.56 601.51,-280.88"/>
<polygon fill="#63b8ff" stroke="#63b8ff" points="604.26,-278.75 594.45,-274.73 599.62,-283.99 604.26,-278.75"/>
</a>
</g>
</g>
<!-- Node16 -->
<g id="Node000016" class="node">
<title>Node16</title>
<g id="a_Node000016"><a xlink:title=" ">
<polygon fill="#e0e0e0" stroke="#999999" points="540.5,-77.5 493.75,-77.5 493.75,-56.75 540.5,-56.75 540.5,-77.5"/>
<text text-anchor="middle" x="517.12" y="-64" font-family="Helvetica,sans-Serif" font-size="10.00">vector</text>
</a>
</g>
</g>
<!-- Node1&#45;&gt;Node16 -->
<g id="edge39_Node000001_Node000016" class="edge">
<title>Node1&#45;&gt;Node16</title>
<g id="a_edge39_Node000001_Node000016"><a xlink:title=" ">
<path fill="none" stroke="#63b8ff" d="M595.68,-318.18C522.46,-316.37 388.97,-308.22 359.12,-273.25 313.04,-219.24 316.41,-170.21 359.12,-113.5 373.95,-93.82 440.66,-80.04 482.51,-73.16"/>
<polygon fill="#63b8ff" stroke="#63b8ff" points="483.01,-76.47 492.34,-71.44 481.91,-69.55 483.01,-76.47"/>
</a>
</g>
</g>
<!-- Node19 -->
<g id="Node000019" class="node">
<title>Node19</title>
<g id="a_Node000019"><a xlink:href="Sphere_8hpp.html" target="_top" xlink:title=" ">
<polygon fill="white" stroke="#666666" points="496,-273.25 368.25,-273.25 368.25,-239.75 496,-239.75 496,-273.25"/>
<text text-anchor="start" x="376.25" y="-259.75" font-family="Helvetica,sans-Serif" font-size="10.00">../src/primitives/sphere</text>
<text text-anchor="middle" x="432.12" y="-247" font-family="Helvetica,sans-Serif" font-size="10.00">/Sphere.hpp</text>
</a>
</g>
</g>
<!-- Node1&#45;&gt;Node19 -->
<g id="edge25_Node000001_Node000019" class="edge">
<title>Node1&#45;&gt;Node19</title>
<g id="a_edge25_Node000001_Node000019"><a xlink:title=" ">
<path fill="none" stroke="#63b8ff" d="M610.06,-308.8C580.11,-300.17 535.64,-287.35 498.65,-276.68"/>
<polygon fill="#63b8ff" stroke="#63b8ff" points="500.01,-273.14 489.43,-273.73 498.07,-279.87 500.01,-273.14"/>
</a>
</g>
</g>
<!-- Node20 -->
<g id="Node000020" class="node">
<title>Node20</title>
<g id="a_Node000020"><a xlink:title=" ">
<polygon fill="#e0e0e0" stroke="#999999" points="774.62,-273.25 653.62,-273.25 653.62,-239.75 774.62,-239.75 774.62,-273.25"/>
<text text-anchor="start" x="661.62" y="-259.75" font-family="Helvetica,sans-Serif" font-size="10.00">../src/ligths/pointLigth</text>
<text text-anchor="middle" x="714.12" y="-247" font-family="Helvetica,sans-Serif" font-size="10.00">/PointLigth.hpp</text>
</a>
</g>
</g>
<!-- Node1&#45;&gt;Node20 -->
<g id="edge28_Node000001_Node000020" class="edge">
<title>Node1&#45;&gt;Node20</title>
<g id="a_edge28_Node000001_Node000020"><a xlink:title=" ">
<path fill="none" stroke="#63b8ff" d="M655.37,-308.8C663.99,-301.27 676.26,-290.56 687.36,-280.88"/>
<polygon fill="#63b8ff" stroke="#63b8ff" points="689.3,-282.95 694.53,-273.73 684.7,-277.68 689.3,-282.95"/>
</a>
</g>
</g>
<!-- Node21 -->
<g id="Node000021" class="node">
<title>Node21</title>
<g id="a_Node000021"><a xlink:title=" ">
<polygon fill="#e0e0e0" stroke="#999999" points="933.75,-273.25 792.5,-273.25 792.5,-239.75 933.75,-239.75 933.75,-273.25"/>
<text text-anchor="start" x="800.5" y="-259.75" font-family="Helvetica,sans-Serif" font-size="10.00">../src/ligths/directional</text>
<text text-anchor="middle" x="863.12" y="-247" font-family="Helvetica,sans-Serif" font-size="10.00">Ligth/DirectionalLigth.hpp</text>
</a>
</g>
</g>
<!-- Node1&#45;&gt;Node21 -->
<g id="edge29_Node000001_Node000021" class="edge">
<title>Node1&#45;&gt;Node21</title>
<g id="a_edge29_Node000001_Node000021"><a xlink:title=" ">
<path fill="none" stroke="#63b8ff" d="M679.31,-308.8C710.26,-300.17 756.2,-287.35 794.4,-276.68"/>
<polygon fill="#63b8ff" stroke="#63b8ff" points="795.27,-279.79 803.96,-273.73 793.39,-273.05 795.27,-279.79"/>
</a>
</g>
</g>
<!-- Node22 -->
<g id="Node000022" class="node">
<title>Node22</title>
<g id="a_Node000022"><a xlink:title=" ">
<polygon fill="#e0e0e0" stroke="#999999" points="1088.5,-273.25 951.75,-273.25 951.75,-239.75 1088.5,-239.75 1088.5,-273.25"/>
<text text-anchor="start" x="959.75" y="-259.75" font-family="Helvetica,sans-Serif" font-size="10.00">../src/ligths/ambientLigth</text>
<text text-anchor="middle" x="1020.12" y="-247" font-family="Helvetica,sans-Serif" font-size="10.00">/ambientLigth.hpp</text>
</a>
</g>
</g>
<!-- Node1&#45;&gt;Node22 -->
<g id="edge30_Node000001_Node000022" class="edge">
<title>Node1&#45;&gt;Node22</title>
<g id="a_edge30_Node000001_Node000022"><a xlink:title=" ">
<path fill="none" stroke="#63b8ff" d="M692.67,-312.04C749.73,-304.12 847.52,-290.01 940.58,-273.66"/>
<polygon fill="#63b8ff" stroke="#63b8ff" points="941.07,-276.95 950.31,-271.76 939.85,-270.05 941.07,-276.95"/>
</a>
</g>
</g>
<!-- Node23 -->
<g id="Node000023" class="node">
<title>Node23</title>
<g id="a_Node000023"><a xlink:href="Camera_8hpp.html" target="_top" xlink:title=" ">
<polygon fill="white" stroke="#666666" points="1069.75,-203.75 928.5,-203.75 928.5,-183 1069.75,-183 1069.75,-203.75"/>
<text text-anchor="middle" x="999.12" y="-190.25" font-family="Helvetica,sans-Serif" font-size="10.00">../src/camera/Camera.hpp</text>
</a>
</g>
</g>
<!-- Node1&#45;&gt;Node23 -->
<g id="edge31_Node000001_Node000023" class="edge">
<title>Node1&#45;&gt;Node23</title>
<g id="a_edge31_Node000001_Node000023"><a xlink:title=" ">
<path fill="none" stroke="#63b8ff" d="M692.52,-317.37C803.78,-313.99 1070.34,-302.85 1097.12,-273.25 1107.11,-262.21 1105.14,-252.3 1097.12,-239.75 1087.64,-224.9 1071.9,-214.84 1055.79,-208.05"/>
<polygon fill="#63b8ff" stroke="#63b8ff" points="1057.36,-204.52 1046.76,-204.23 1054.87,-211.06 1057.36,-204.52"/>
</a>
</g>
</g>
<!-- Node25 -->
<g id="Node000025" class="node">
<title>Node25</title>
<g id="a_Node000025"><a xlink:title=" ">
<polygon fill="#e0e0e0" stroke="#999999" points="1201.75,-266.88 1144.5,-266.88 1144.5,-246.12 1201.75,-246.12 1201.75,-266.88"/>
<text text-anchor="middle" x="1173.12" y="-253.38" font-family="Helvetica,sans-Serif" font-size="10.00">memory</text>
</a>
</g>
</g>
<!-- Node1&#45;&gt;Node25 -->
<g id="edge40_Node000001_Node000025" class="edge">
<title>Node1&#45;&gt;Node25</title>
<g id="a_edge40_Node000001_Node000025"><a xlink:title=" ">
<path fill="none" stroke="#63b8ff" d="M692.71,-318.21C780.93,-316.55 972.86,-308.76 1130.12,-273.25 1133.18,-272.56 1136.31,-271.71 1139.42,-270.77"/>
<polygon fill="#63b8ff" stroke="#63b8ff" points="1140.43,-273.78 1148.8,-267.28 1138.2,-267.15 1140.43,-273.78"/>
</a>
</g>
</g>
<!-- Node5 -->
<g id="Node000005" class="node">
<title>Node5</title>
<g id="a_Node000005"><a xlink:href="IPrimitive_8hpp.html" target="_top" xlink:title=" ">
<polygon fill="white" stroke="#666666" points="621.75,-203.75 528.5,-203.75 528.5,-183 621.75,-183 621.75,-203.75"/>
<text text-anchor="middle" x="575.12" y="-190.25" font-family="Helvetica,sans-Serif" font-size="10.00">../IPrimitive.hpp</text>
</a>
</g>
</g>
<!-- Node4&#45;&gt;Node5 -->
<g id="edge4_Node000004_Node000005" class="edge">
<title>Node4&#45;&gt;Node5</title>
<g id="a_edge4_Node000004_Node000005"><a xlink:title=" ">
<path fill="none" stroke="#63b8ff" d="M575.12,-239.44C575.12,-232.02 575.12,-223.11 575.12,-215.18"/>
<polygon fill="#63b8ff" stroke="#63b8ff" points="578.63,-215.22 575.12,-205.22 571.63,-215.22 578.63,-215.22"/>
</a>
</g>
</g>
<!-- Node18 -->
<g id="Node000018" class="node">
<title>Node18</title>
<g id="a_Node000018"><a xlink:title=" ">
<polygon fill="#e0e0e0" stroke="#999999" points="964,-140.62 926.25,-140.62 926.25,-119.88 964,-119.88 964,-140.62"/>
<text text-anchor="middle" x="945.12" y="-127.12" font-family="Helvetica,sans-Serif" font-size="10.00">map</text>
</a>
</g>
</g>
<!-- Node4&#45;&gt;Node18 -->
<g id="edge24_Node000004_Node000018" class="edge">
<title>Node4&#45;&gt;Node18</title>
<g id="a_edge24_Node000004_Node000018"><a xlink:title=" ">
<path fill="none" stroke="#63b8ff" d="M636.38,-240.84C706.12,-223.07 822.61,-190.07 917.12,-147 917.85,-146.67 918.58,-146.33 919.31,-145.98"/>
<polygon fill="#63b8ff" stroke="#63b8ff" points="920.53,-148.77 927.78,-141.05 917.3,-142.56 920.53,-148.77"/>
</a>
</g>
</g>
<!-- Node6 -->
<g id="Node000006" class="node">
<title>Node6</title>
<g id="a_Node000006"><a xlink:href="Color_8hpp.html" target="_top" xlink:title=" ">
<polygon fill="white" stroke="#666666" points="502,-140.62 368.25,-140.62 368.25,-119.88 502,-119.88 502,-140.62"/>
<text text-anchor="middle" x="435.12" y="-127.12" font-family="Helvetica,sans-Serif" font-size="10.00">../core/helpers/Color.hpp</text>
</a>
</g>
</g>
<!-- Node5&#45;&gt;Node6 -->
<g id="edge5_Node000005_Node000006" class="edge">
<title>Node5&#45;&gt;Node6</title>
<g id="a_edge5_Node000005_Node000006"><a xlink:title=" ">
<path fill="none" stroke="#63b8ff" d="M552.63,-182.55C529.57,-172.48 493.48,-156.73 467.37,-145.33"/>
<polygon fill="#63b8ff" stroke="#63b8ff" points="469.13,-141.84 458.56,-141.05 466.33,-148.26 469.13,-141.84"/>
</a>
</g>
</g>
<!-- Node7 -->
<g id="Node000007" class="node">
<title>Node7</title>
<g id="a_Node000007"><a xlink:title=" ">
<polygon fill="#e0e0e0" stroke="#999999" points="835.88,-20.75 776.38,-20.75 776.38,0 835.88,0 835.88,-20.75"/>
<text text-anchor="middle" x="806.12" y="-7.25" font-family="Helvetica,sans-Serif" font-size="10.00">iostream</text>
</a>
</g>
</g>
<!-- Node5&#45;&gt;Node7 -->
<g id="edge21_Node000005_Node000007" class="edge">
<title>Node5&#45;&gt;Node7</title>
<g id="a_edge21_Node000005_Node000007"><a xlink:title=" ">
<path fill="none" stroke="#63b8ff" d="M576.35,-182.69C580.18,-156.97 594.46,-86.91 639.12,-56.75 677.26,-31 729.54,-19.82 765.39,-14.99"/>
<polygon fill="#63b8ff" stroke="#63b8ff" points="765.46,-18.39 774.95,-13.69 764.6,-11.44 765.46,-18.39"/>
</a>
</g>
</g>
<!-- Node8 -->
<g id="Node000008" class="node">
<title>Node8</title>
<g id="a_Node000008"><a xlink:href="Ray_8hpp.html" target="_top" xlink:title=" ">
<polygon fill="white" stroke="#666666" points="760.25,-140.62 634,-140.62 634,-119.88 760.25,-119.88 760.25,-140.62"/>
<text text-anchor="middle" x="697.12" y="-127.12" font-family="Helvetica,sans-Serif" font-size="10.00">../core/helpers/Ray.hpp</text>
</a>
</g>
</g>
<!-- Node5&#45;&gt;Node8 -->
<g id="edge7_Node000005_Node000008" class="edge">
<title>Node5&#45;&gt;Node8</title>
<g id="a_edge7_Node000005_Node000008"><a xlink:title=" ">
<path fill="none" stroke="#63b8ff" d="M594.73,-182.55C614.47,-172.66 645.17,-157.28 667.81,-145.94"/>
<polygon fill="#63b8ff" stroke="#63b8ff" points="669.2,-148.66 676.57,-141.05 666.06,-142.4 669.2,-148.66"/>
</a>
</g>
</g>
<!-- Node9 -->
<g id="Node000009" class="node">
<title>Node9</title>
<g id="a_Node000009"><a xlink:href="Math_8hpp.html" target="_top" xlink:title=" ">
<polygon fill="white" stroke="#666666" points="747.75,-77.5 648.5,-77.5 648.5,-56.75 747.75,-56.75 747.75,-77.5"/>
<text text-anchor="middle" x="698.12" y="-64" font-family="Helvetica,sans-Serif" font-size="10.00">../math/Math.hpp</text>
</a>
</g>
</g>
<!-- Node5&#45;&gt;Node9 -->
<g id="edge11_Node000005_Node000009" class="edge">
<title>Node5&#45;&gt;Node9</title>
<g id="a_edge11_Node000005_Node000009"><a xlink:title=" ">
<path fill="none" stroke="#63b8ff" d="M579.49,-182.67C587.02,-166.75 603.71,-134.73 625.12,-113.5 637.53,-101.21 653.84,-90.68 667.9,-82.86"/>
<polygon fill="#63b8ff" stroke="#63b8ff" points="669.02,-85.69 676.2,-77.89 665.73,-79.52 669.02,-85.69"/>
</a>
</g>
</g>
<!-- Node11 -->
<g id="Node000011" class="node">
<title>Node11</title>
<g id="a_Node000011"><a xlink:href="Matrix_8hpp.html" target="_top" xlink:title=" ">
<polygon fill="white" stroke="#666666" points="908.12,-140.62 778.12,-140.62 778.12,-119.88 908.12,-119.88 908.12,-140.62"/>
<text text-anchor="middle" x="843.12" y="-127.12" font-family="Helvetica,sans-Serif" font-size="10.00">../core/math/Matrix.hpp</text>
</a>
</g>
</g>
<!-- Node5&#45;&gt;Node11 -->
<g id="edge12_Node000005_Node000011" class="edge">
<title>Node5&#45;&gt;Node11</title>
<g id="a_edge12_Node000005_Node000011"><a xlink:title=" ">
<path fill="none" stroke="#63b8ff" d="M618.18,-182.55C664.78,-171.93 739.14,-154.97 789.5,-143.48"/>
<polygon fill="#63b8ff" stroke="#63b8ff" points="790.2,-146.68 799.17,-141.05 788.65,-139.86 790.2,-146.68"/>
</a>
</g>
</g>
<!-- Node5&#45;&gt;Node16 -->
<g id="edge23_Node000005_Node000016" class="edge">
<title>Node5&#45;&gt;Node16</title>
<g id="a_edge23_Node000005_Node000016"><a xlink:title=" ">
<path fill="none" stroke="#63b8ff" d="M570.57,-182.63C561.04,-162.21 538.84,-114.64 526.25,-87.67"/>
<polygon fill="#63b8ff" stroke="#63b8ff" points="529.06,-86.41 521.66,-78.83 522.71,-89.37 529.06,-86.41"/>
</a>
</g>
</g>
<!-- Node5&#45;&gt;Node18 -->
<g id="edge22_Node000005_Node000018" class="edge">
<title>Node5&#45;&gt;Node18</title>
<g id="a_edge22_Node000005_Node000018"><a xlink:title=" ">
<path fill="none" stroke="#63b8ff" d="M622.11,-188.36C702.61,-181.11 863.44,-164.92 917.12,-147 918.24,-146.63 919.35,-146.21 920.47,-145.76"/>
<polygon fill="#63b8ff" stroke="#63b8ff" points="921.75,-148.54 929.21,-141.02 918.69,-142.25 921.75,-148.54"/>
</a>
</g>
</g>
<!-- Node6&#45;&gt;Node7 -->
<g id="edge6_Node000006_Node000007" class="edge">
<title>Node6&#45;&gt;Node7</title>
<g id="a_edge6_Node000006_Node000007"><a xlink:title=" ">
<path fill="none" stroke="#63b8ff" d="M438.76,-119.57C445.34,-103.54 460.81,-71.79 485.12,-56.75 491.05,-53.09 680.03,-27.92 765.21,-16.73"/>
<polygon fill="#63b8ff" stroke="#63b8ff" points="765.57,-20.08 775.03,-15.3 764.66,-13.14 765.57,-20.08"/>
</a>
</g>
</g>
<!-- Node8&#45;&gt;Node9 -->
<g id="edge8_Node000008_Node000009" class="edge">
<title>Node8&#45;&gt;Node9</title>
<g id="a_edge8_Node000008_Node000009"><a xlink:title=" ">
<path fill="none" stroke="#63b8ff" d="M697.29,-119.43C697.42,-111.09 697.62,-98.86 697.79,-88.43"/>
<polygon fill="#63b8ff" stroke="#63b8ff" points="701.3,-88.78 697.97,-78.72 694.3,-88.66 701.3,-88.78"/>
</a>
</g>
</g>
<!-- Node9&#45;&gt;Node7 -->
<g id="edge9_Node000009_Node000007" class="edge">
<title>Node9&#45;&gt;Node7</title>
<g id="a_edge9_Node000009_Node000007"><a xlink:title=" ">
<path fill="none" stroke="#63b8ff" d="M717.43,-56.34C734.1,-47.89 758.4,-35.57 777.36,-25.96"/>
<polygon fill="#63b8ff" stroke="#63b8ff" points="778.65,-28.72 785.98,-21.08 775.48,-22.48 778.65,-28.72"/>
</a>
</g>
</g>
<!-- Node10 -->
<g id="Node000010" class="node">
<title>Node10</title>
<g id="a_Node000010"><a xlink:title=" ">
<polygon fill="#e0e0e0" stroke="#999999" points="721.5,-20.75 674.75,-20.75 674.75,0 721.5,0 721.5,-20.75"/>
<text text-anchor="middle" x="698.12" y="-7.25" font-family="Helvetica,sans-Serif" font-size="10.00">cmath</text>
</a>
</g>
</g>
<!-- Node9&#45;&gt;Node10 -->
<g id="edge10_Node000009_Node000010" class="edge">
<title>Node9&#45;&gt;Node10</title>
<g id="a_edge10_Node000009_Node000010"><a xlink:title=" ">
<path fill="none" stroke="#63b8ff" d="M698.12,-56.34C698.12,-49.56 698.12,-40.3 698.12,-31.94"/>
<polygon fill="#63b8ff" stroke="#63b8ff" points="701.63,-32.08 698.12,-22.08 694.63,-32.08 701.63,-32.08"/>
</a>
</g>
</g>
<!-- Node11&#45;&gt;Node7 -->
<g id="edge18_Node000011_Node000007" class="edge">
<title>Node11&#45;&gt;Node7</title>
<g id="a_edge18_Node000011_Node000007"><a xlink:title=" ">
<path fill="none" stroke="#63b8ff" d="M841.03,-119.76C837.85,-105.81 831.43,-79 824.12,-56.75 821.32,-48.21 817.76,-38.96 814.54,-31.06"/>
<polygon fill="#63b8ff" stroke="#63b8ff" points="817.41,-29.87 810.33,-21.99 810.95,-32.56 817.41,-29.87"/>
</a>
</g>
</g>
<!-- Node11&#45;&gt;Node9 -->
<g id="edge13_Node000011_Node000009" class="edge">
<title>Node11&#45;&gt;Node9</title>
<g id="a_edge13_Node000011_Node000009"><a xlink:title=" ">
<path fill="none" stroke="#63b8ff" d="M819.83,-119.43C795.83,-109.31 758.23,-93.46 731.17,-82.05"/>
<polygon fill="#63b8ff" stroke="#63b8ff" points="732.94,-78.58 722.36,-77.92 730.22,-85.03 732.94,-78.58"/>
</a>
</g>
</g>
<!-- Node12 -->
<g id="Node000012" class="node">
<title>Node12</title>
<g id="a_Node000012"><a xlink:href="Error_8hpp.html" target="_top" xlink:title=" ">
<polygon fill="white" stroke="#666666" points="1274.5,-77.5 1179.75,-77.5 1179.75,-56.75 1274.5,-56.75 1274.5,-77.5"/>
<text text-anchor="middle" x="1227.12" y="-64" font-family="Helvetica,sans-Serif" font-size="10.00">../error/Error.hpp</text>
</a>
</g>
</g>
<!-- Node11&#45;&gt;Node12 -->
<g id="edge14_Node000011_Node000012" class="edge">
<title>Node11&#45;&gt;Node12</title>
<g id="a_edge14_Node000011_Node000012"><a xlink:title=" ">
<path fill="none" stroke="#63b8ff" d="M886.86,-119.45C896.79,-117.37 907.3,-115.26 917.12,-113.5 1004.37,-97.85 1106.16,-83.73 1168.63,-75.55"/>
<polygon fill="#63b8ff" stroke="#63b8ff" points="1168.98,-78.9 1178.44,-74.14 1168.07,-71.96 1168.98,-78.9"/>
</a>
</g>
</g>
<!-- Node15 -->
<g id="Node000015" class="node">
<title>Node15</title>
<g id="a_Node000015"><a xlink:title=" ">
<polygon fill="#e0e0e0" stroke="#999999" points="953.12,-77.5 871.12,-77.5 871.12,-56.75 953.12,-56.75 953.12,-77.5"/>
<text text-anchor="middle" x="912.12" y="-64" font-family="Helvetica,sans-Serif" font-size="10.00">initializer_list</text>
</a>
</g>
</g>
<!-- Node11&#45;&gt;Node15 -->
<g id="edge17_Node000011_Node000015" class="edge">
<title>Node11&#45;&gt;Node15</title>
<g id="a_edge17_Node000011_Node000015"><a xlink:title=" ">
<path fill="none" stroke="#63b8ff" d="M854.21,-119.43C864.73,-110.11 880.76,-95.91 893.29,-84.81"/>
<polygon fill="#63b8ff" stroke="#63b8ff" points="895.13,-87.97 900.29,-78.72 890.49,-82.73 895.13,-87.97"/>
</a>
</g>
</g>
<!-- Node11&#45;&gt;Node16 -->
<g id="edge19_Node000011_Node000016" class="edge">
<title>Node11&#45;&gt;Node16</title>
<g id="a_edge19_Node000011_Node000016"><a xlink:title=" ">
<path fill="none" stroke="#63b8ff" d="M798.17,-119.44C788.59,-117.42 778.53,-115.35 769.12,-113.5 691.59,-98.27 600.24,-82.32 551.63,-73.98"/>
<polygon fill="#63b8ff" stroke="#63b8ff" points="552.24,-70.37 541.8,-72.13 551.06,-77.27 552.24,-70.37"/>
</a>
</g>
</g>
<!-- Node17 -->
<g id="Node000017" class="node">
<title>Node17</title>
<g id="a_Node000017"><a xlink:title=" ">
<polygon fill="#e0e0e0" stroke="#999999" points="814.62,-77.5 765.62,-77.5 765.62,-56.75 814.62,-56.75 814.62,-77.5"/>
<text text-anchor="middle" x="790.12" y="-64" font-family="Helvetica,sans-Serif" font-size="10.00">format</text>
</a>
</g>
</g>
<!-- Node11&#45;&gt;Node17 -->
<g id="edge20_Node000011_Node000017" class="edge">
<title>Node11&#45;&gt;Node17</title>
<g id="a_edge20_Node000011_Node000017"><a xlink:title=" ">
<path fill="none" stroke="#63b8ff" d="M834.61,-119.43C826.76,-110.38 814.92,-96.72 805.43,-85.78"/>
<polygon fill="#63b8ff" stroke="#63b8ff" points="807.64,-83.98 798.44,-78.72 802.35,-88.57 807.64,-83.98"/>
</a>
</g>
</g>
<!-- Node13 -->
<g id="Node000013" class="node">
<title>Node13</title>
<g id="a_Node000013"><a xlink:title=" ">
<polygon fill="#e0e0e0" stroke="#999999" points="1223.12,-20.75 1159.12,-20.75 1159.12,0 1223.12,0 1223.12,-20.75"/>
<text text-anchor="middle" x="1191.12" y="-7.25" font-family="Helvetica,sans-Serif" font-size="10.00">stdexcept</text>
</a>
</g>
</g>
<!-- Node12&#45;&gt;Node13 -->
<g id="edge15_Node000012_Node000013" class="edge">
<title>Node12&#45;&gt;Node13</title>
<g id="a_edge15_Node000012_Node000013"><a xlink:title=" ">
<path fill="none" stroke="#63b8ff" d="M1220.69,-56.34C1215.93,-49.1 1209.3,-39.01 1203.52,-30.22"/>
<polygon fill="#63b8ff" stroke="#63b8ff" points="1205.92,-28.51 1197.51,-22.08 1200.08,-32.36 1205.92,-28.51"/>
</a>
</g>
</g>
<!-- Node14 -->
<g id="Node000014" class="node">
<title>Node14</title>
<g id="a_Node000014"><a xlink:title=" ">
<polygon fill="#e0e0e0" stroke="#999999" points="1285,-20.75 1241.25,-20.75 1241.25,0 1285,0 1285,-20.75"/>
<text text-anchor="middle" x="1263.12" y="-7.25" font-family="Helvetica,sans-Serif" font-size="10.00">string</text>
</a>
</g>
</g>
<!-- Node12&#45;&gt;Node14 -->
<g id="edge16_Node000012_Node000014" class="edge">
<title>Node12&#45;&gt;Node14</title>
<g id="a_edge16_Node000012_Node000014"><a xlink:title=" ">
<path fill="none" stroke="#63b8ff" d="M1233.56,-56.34C1238.32,-49.1 1244.95,-39.01 1250.73,-30.22"/>
<polygon fill="#63b8ff" stroke="#63b8ff" points="1254.17,-32.36 1256.74,-22.08 1248.33,-28.51 1254.17,-32.36"/>
</a>
</g>
</g>
<!-- Node19&#45;&gt;Node5 -->
<g id="edge26_Node000019_Node000005" class="edge">
<title>Node19&#45;&gt;Node5</title>
<g id="a_edge26_Node000019_Node000005"><a xlink:title=" ">
<path fill="none" stroke="#63b8ff" d="M470.07,-239.28C492.54,-229.68 520.73,-217.63 542.25,-208.43"/>
<polygon fill="#63b8ff" stroke="#63b8ff" points="543.4,-211.31 551.22,-204.17 540.65,-204.88 543.4,-211.31"/>
</a>
</g>
</g>
<!-- Node19&#45;&gt;Node18 -->
<g id="edge27_Node000019_Node000018" class="edge">
<title>Node19&#45;&gt;Node18</title>
<g id="a_edge27_Node000019_Node000018"><a xlink:title=" ">
<path fill="none" stroke="#63b8ff" d="M496.31,-241.66C623.58,-214.15 897.39,-154.57 917.12,-147 918.04,-146.65 918.95,-146.28 919.87,-145.88"/>
<polygon fill="#63b8ff" stroke="#63b8ff" points="921.13,-148.67 928.53,-141.08 918.01,-142.4 921.13,-148.67"/>
</a>
</g>
</g>
<!-- Node23&#45;&gt;Node7 -->
<g id="edge37_Node000023_Node000007" class="edge">
<title>Node23&#45;&gt;Node7</title>
<g id="a_edge37_Node000023_Node000007"><a xlink:title=" ">
<path fill="none" stroke="#63b8ff" d="M1070.06,-185.06C1094.05,-178.81 1118.45,-167.46 1133.12,-147 1141.8,-134.9 1141.46,-125.84 1133.12,-113.5 1100.61,-65.37 927.37,-31.24 847.06,-17.76"/>
<polygon fill="#63b8ff" stroke="#63b8ff" points="847.81,-14.17 837.37,-15.99 846.67,-21.07 847.81,-14.17"/>
</a>
</g>
</g>
<!-- Node23&#45;&gt;Node8 -->
<g id="edge32_Node000023_Node000008" class="edge">
<title>Node23&#45;&gt;Node8</title>
<g id="a_edge32_Node000023_Node000008"><a xlink:title=" ">
<path fill="none" stroke="#63b8ff" d="M947.91,-182.58C901.26,-173.59 830.49,-159.76 769.12,-147 763.49,-145.83 757.61,-144.58 751.74,-143.32"/>
<polygon fill="#63b8ff" stroke="#63b8ff" points="752.78,-139.75 742.26,-141.06 751.3,-146.59 752.78,-139.75"/>
</a>
</g>
</g>
<!-- Node23&#45;&gt;Node11 -->
<g id="edge36_Node000023_Node000011" class="edge">
<title>Node23&#45;&gt;Node11</title>
<g id="a_edge36_Node000023_Node000011"><a xlink:title=" ">
<path fill="none" stroke="#63b8ff" d="M974.06,-182.55C948.13,-172.4 907.43,-156.45 878.29,-145.03"/>
<polygon fill="#63b8ff" stroke="#63b8ff" points="879.71,-141.44 869.13,-141.05 877.16,-147.95 879.71,-141.44"/>
</a>
</g>
</g>
<!-- Node23&#45;&gt;Node18 -->
<g id="edge38_Node000023_Node000018" class="edge">
<title>Node23&#45;&gt;Node18</title>
<g id="a_edge38_Node000023_Node000018"><a xlink:title=" ">
<path fill="none" stroke="#63b8ff" d="M990.45,-182.55C982.45,-173.5 970.39,-159.85 960.72,-148.9"/>
<polygon fill="#63b8ff" stroke="#63b8ff" points="963.85,-147.02 954.6,-141.84 958.6,-151.66 963.85,-147.02"/>
</a>
</g>
</g>
<!-- Node24 -->
<g id="Node000024" class="node">
<title>Node24</title>
<g id="a_Node000024"><a xlink:href="Rectangle3D_8hpp.html" target="_top" xlink:title=" ">
<polygon fill="white" stroke="#666666" points="1124.5,-147 981.75,-147 981.75,-113.5 1124.5,-113.5 1124.5,-147"/>
<text text-anchor="start" x="989.75" y="-133.5" font-family="Helvetica,sans-Serif" font-size="10.00">../core/helpers/Rectangle3</text>
<text text-anchor="middle" x="1053.12" y="-120.75" font-family="Helvetica,sans-Serif" font-size="10.00">D.hpp</text>
</a>
</g>
</g>
<!-- Node23&#45;&gt;Node24 -->
<g id="edge33_Node000023_Node000024" class="edge">
<title>Node23&#45;&gt;Node24</title>
<g id="a_edge33_Node000023_Node000024"><a xlink:title=" ">
<path fill="none" stroke="#63b8ff" d="M1007.8,-182.55C1014.26,-175.25 1023.36,-164.94 1031.72,-155.48"/>
<polygon fill="#63b8ff" stroke="#63b8ff" points="1033.78,-158.3 1037.78,-148.48 1028.54,-153.66 1033.78,-158.3"/>
</a>
</g>
</g>
<!-- Node24&#45;&gt;Node7 -->
<g id="edge34_Node000024_Node000007" class="edge">
<title>Node24&#45;&gt;Node7</title>
<g id="a_edge34_Node000024_Node000007"><a xlink:title=" ">
<path fill="none" stroke="#63b8ff" d="M1037.08,-113.19C1019.91,-96.83 991.18,-71.8 962.12,-56.75 925.22,-37.64 879.12,-25.49 846.63,-18.63"/>
<polygon fill="#63b8ff" stroke="#63b8ff" points="847.67,-15.06 837.17,-16.5 846.27,-21.92 847.67,-15.06"/>
</a>
</g>
</g>
<!-- Node24&#45;&gt;Node9 -->
<g id="edge35_Node000024_Node000009" class="edge">
<title>Node24&#45;&gt;Node9</title>
<g id="a_edge35_Node000024_Node000009"><a xlink:title=" ">
<path fill="none" stroke="#63b8ff" d="M981.62,-115.06C978.75,-114.53 975.91,-114 973.12,-113.5 952.45,-109.76 833.22,-90.2 758.7,-78.02"/>
<polygon fill="#63b8ff" stroke="#63b8ff" points="759.48,-74.44 749.04,-76.28 758.35,-81.34 759.48,-74.44"/>
</a>
</g>
</g>
</g>
</svg>
