<?xml version="1.0" encoding="UTF-8" standalone="no"?>
<!DOCTYPE svg PUBLIC "-//W3C//DTD SVG 1.1//EN"
 "http://www.w3.org/Graphics/SVG/1.1/DTD/svg11.dtd">
<!-- Generated by graphviz version 8.1.0 (20230707.0739)
 -->
<!-- Title: paser/Primitive_fact.cpp Pages: 1 -->
<svg width="1132pt" height="382pt"
 viewBox="0.00 0.00 1132.25 382.00" xmlns="http://www.w3.org/2000/svg" xmlns:xlink="http://www.w3.org/1999/xlink">
<g id="graph0" class="graph" transform="scale(1 1) rotate(0) translate(4 378)">
<title>paser/Primitive_fact.cpp</title>
<!-- Node1 -->
<g id="Node000001" class="node">
<title>Node1</title>
<g id="a_Node000001"><a xlink:title=" ">
<polygon fill="#999999" stroke="#666666" points="894.12,-374 759.62,-374 759.62,-353.25 894.12,-353.25 894.12,-374"/>
<text text-anchor="middle" x="826.88" y="-360.5" font-family="Helvetica,sans-Serif" font-size="10.00">paser/Primitive_fact.cpp</text>
</a>
</g>
</g>
<!-- Node2 -->
<g id="Node000002" class="node">
<title>Node2</title>
<g id="a_Node000002"><a xlink:href="Primitive__fact_8hpp.html" target="_top" xlink:title=" ">
<polygon fill="white" stroke="#666666" points="466.5,-317.25 361.25,-317.25 361.25,-296.5 466.5,-296.5 466.5,-317.25"/>
<text text-anchor="middle" x="413.88" y="-303.75" font-family="Helvetica,sans-Serif" font-size="10.00">Primitive_fact.hpp</text>
</a>
</g>
</g>
<!-- Node1&#45;&gt;Node2 -->
<g id="edge1_Node000001_Node000002" class="edge">
<title>Node1&#45;&gt;Node2</title>
<g id="a_edge1_Node000001_Node000002"><a xlink:title=" ">
<path fill="none" stroke="#63b8ff" d="M759.14,-353.65C681.16,-343.31 554.06,-326.46 477.75,-316.34"/>
<polygon fill="#63b8ff" stroke="#63b8ff" points="478.24,-312.74 467.87,-314.9 477.32,-319.68 478.24,-312.74"/>
</a>
</g>
</g>
<!-- Node8 -->
<g id="Node000008" class="node">
<title>Node8</title>
<g id="a_Node000008"><a xlink:href="Plane_8hpp.html" target="_top" xlink:title=" ">
<polygon fill="white" stroke="#666666" points="675.75,-260.5 554,-260.5 554,-227 675.75,-227 675.75,-260.5"/>
<text text-anchor="start" x="562" y="-247" font-family="Helvetica,sans-Serif" font-size="10.00">../src/primitives/plane</text>
<text text-anchor="middle" x="614.88" y="-234.25" font-family="Helvetica,sans-Serif" font-size="10.00">/Plane.hpp</text>
</a>
</g>
</g>
<!-- Node1&#45;&gt;Node8 -->
<g id="edge34_Node000001_Node000008" class="edge">
<title>Node1&#45;&gt;Node8</title>
<g id="a_edge34_Node000001_Node000008"><a xlink:title=" ">
<path fill="none" stroke="#63b8ff" d="M809.16,-352.78C775.07,-333.82 699.6,-291.86 653.4,-266.17"/>
<polygon fill="#63b8ff" stroke="#63b8ff" points="655.45,-262.75 645.01,-260.95 652.05,-268.87 655.45,-262.75"/>
</a>
</g>
</g>
<!-- Node14 -->
<g id="Node000014" class="node">
<title>Node14</title>
<g id="a_Node000014"><a xlink:title=" ">
<polygon fill="#e0e0e0" stroke="#999999" points="819.25,-20.75 772.5,-20.75 772.5,0 819.25,0 819.25,-20.75"/>
<text text-anchor="middle" x="795.88" y="-7.25" font-family="Helvetica,sans-Serif" font-size="10.00">cmath</text>
</a>
</g>
</g>
<!-- Node1&#45;&gt;Node14 -->
<g id="edge40_Node000001_Node000014" class="edge">
<title>Node1&#45;&gt;Node14</title>
<g id="a_edge40_Node000001_Node000014"><a xlink:title=" ">
<path fill="none" stroke="#63b8ff" d="M836.29,-352.83C853.64,-333.71 888.88,-289.38 888.88,-244.75 888.88,-244.75 888.88,-244.75 888.88,-122.88 888.88,-80.71 849.17,-46.04 821.64,-27.08"/>
<polygon fill="#63b8ff" stroke="#63b8ff" points="823.77,-23.63 813.5,-21.04 819.92,-29.47 823.77,-23.63"/>
</a>
</g>
</g>
<!-- Node20 -->
<g id="Node000020" class="node">
<title>Node20</title>
<g id="a_Node000020"><a xlink:title=" ">
<polygon fill="#e0e0e0" stroke="#999999" points="860.75,-134.25 823,-134.25 823,-113.5 860.75,-113.5 860.75,-134.25"/>
<text text-anchor="middle" x="841.88" y="-120.75" font-family="Helvetica,sans-Serif" font-size="10.00">map</text>
</a>
</g>
</g>
<!-- Node1&#45;&gt;Node20 -->
<g id="edge39_Node000001_Node000020" class="edge">
<title>Node1&#45;&gt;Node20</title>
<g id="a_edge39_Node000001_Node000020"><a xlink:title=" ">
<path fill="none" stroke="#63b8ff" d="M827.48,-353.01C829.71,-317.69 837.47,-194.62 840.58,-145.43"/>
<polygon fill="#63b8ff" stroke="#63b8ff" points="844.12,-145.81 841.26,-135.61 837.14,-145.37 844.12,-145.81"/>
</a>
</g>
</g>
<!-- Node21 -->
<g id="Node000021" class="node">
<title>Node21</title>
<g id="a_Node000021"><a xlink:href="Sphere_8hpp.html" target="_top" xlink:title=" ">
<polygon fill="white" stroke="#666666" points="821.75,-260.5 694,-260.5 694,-227 821.75,-227 821.75,-260.5"/>
<text text-anchor="start" x="702" y="-247" font-family="Helvetica,sans-Serif" font-size="10.00">../src/primitives/sphere</text>
<text text-anchor="middle" x="757.88" y="-234.25" font-family="Helvetica,sans-Serif" font-size="10.00">/Sphere.hpp</text>
</a>
</g>
</g>
<!-- Node1&#45;&gt;Node21 -->
<g id="edge35_Node000001_Node000021" class="edge">
<title>Node1&#45;&gt;Node21</title>
<g id="a_edge35_Node000001_Node000021"><a xlink:title=" ">
<path fill="none" stroke="#63b8ff" d="M821.23,-352.98C810.73,-335.04 787.88,-296 772.69,-270.05"/>
<polygon fill="#63b8ff" stroke="#63b8ff" points="775.35,-268.68 767.28,-261.82 769.31,-272.21 775.35,-268.68"/>
</a>
</g>
</g>
<!-- Node22 -->
<g id="Node000022" class="node">
<title>Node22</title>
<g id="a_Node000022"><a xlink:href="ErrorHandler_8hpp.html" target="_top" xlink:title=" ">
<polygon fill="white" stroke="#666666" points="97.75,-254.12 0,-254.12 0,-233.38 97.75,-233.38 97.75,-254.12"/>
<text text-anchor="middle" x="48.88" y="-240.62" font-family="Helvetica,sans-Serif" font-size="10.00">ErrorHandler.hpp</text>
</a>
</g>
</g>
<!-- Node1&#45;&gt;Node22 -->
<g id="edge36_Node000001_Node000022" class="edge">
<title>Node1&#45;&gt;Node22</title>
<g id="a_edge36_Node000001_Node000022"><a xlink:title=" ">
<path fill="none" stroke="#63b8ff" d="M759.24,-359.09C666.78,-353.58 495.93,-341.05 351.88,-317.25 243.73,-299.39 218.38,-286.4 111.88,-260.5 107.5,-259.44 102.96,-258.32 98.4,-257.2"/>
<polygon fill="#63b8ff" stroke="#63b8ff" points="99.39,-253.59 88.84,-254.57 97.7,-260.38 99.39,-253.59"/>
</a>
</g>
</g>
<!-- Node23 -->
<g id="Node000023" class="node">
<title>Node23</title>
<g id="a_Node000023"><a xlink:title=" ">
<polygon fill="#e0e0e0" stroke="#999999" points="1011.25,-317.25 916.5,-317.25 916.5,-296.5 1011.25,-296.5 1011.25,-317.25"/>
<text text-anchor="middle" x="963.88" y="-303.75" font-family="Helvetica,sans-Serif" font-size="10.00">../core/Math.hpp</text>
</a>
</g>
</g>
<!-- Node1&#45;&gt;Node23 -->
<g id="edge37_Node000001_Node000023" class="edge">
<title>Node1&#45;&gt;Node23</title>
<g id="a_edge37_Node000001_Node000023"><a xlink:title=" ">
<path fill="none" stroke="#63b8ff" d="M851.37,-352.84C873.19,-344.12 905.34,-331.27 929.69,-321.54"/>
<polygon fill="#63b8ff" stroke="#63b8ff" points="930.61,-324.54 938.59,-317.58 928.01,-318.04 930.61,-324.54"/>
</a>
</g>
</g>
<!-- Node24 -->
<g id="Node000024" class="node">
<title>Node24</title>
<g id="a_Node000024"><a xlink:title=" ">
<polygon fill="#e0e0e0" stroke="#999999" points="1124.25,-317.25 1029.5,-317.25 1029.5,-296.5 1124.25,-296.5 1124.25,-317.25"/>
<text text-anchor="middle" x="1076.88" y="-303.75" font-family="Helvetica,sans-Serif" font-size="10.00">../core/Color.hpp</text>
</a>
</g>
</g>
<!-- Node1&#45;&gt;Node24 -->
<g id="edge38_Node000001_Node000024" class="edge">
<title>Node1&#45;&gt;Node24</title>
<g id="a_edge38_Node000001_Node000024"><a xlink:title=" ">
<path fill="none" stroke="#63b8ff" d="M871.86,-352.77C913.77,-343.6 976.37,-329.89 1021.37,-320.03"/>
<polygon fill="#63b8ff" stroke="#63b8ff" points="1021.81,-323.3 1030.83,-317.74 1020.31,-316.46 1021.81,-323.3"/>
</a>
</g>
</g>
<!-- Node3 -->
<g id="Node000003" class="node">
<title>Node3</title>
<g id="a_Node000003"><a xlink:title=" ">
<polygon fill="#e0e0e0" stroke="#999999" points="498,-254.12 329.75,-254.12 329.75,-233.38 498,-233.38 498,-254.12"/>
<text text-anchor="middle" x="413.88" y="-240.62" font-family="Helvetica,sans-Serif" font-size="10.00">../src/primitives/IPrimitives.hpp</text>
</a>
</g>
</g>
<!-- Node2&#45;&gt;Node3 -->
<g id="edge2_Node000002_Node000003" class="edge">
<title>Node2&#45;&gt;Node3</title>
<g id="a_edge2_Node000002_Node000003"><a xlink:title=" ">
<path fill="none" stroke="#63b8ff" d="M413.88,-296.05C413.88,-287.72 413.88,-275.48 413.88,-265.05"/>
<polygon fill="#63b8ff" stroke="#63b8ff" points="417.38,-265.34 413.88,-255.34 410.38,-265.34 417.38,-265.34"/>
</a>
</g>
</g>
<!-- Node4 -->
<g id="Node000004" class="node">
<title>Node4</title>
<g id="a_Node000004"><a xlink:title=" ">
<polygon fill="#e0e0e0" stroke="#999999" points="236.25,-254.12 153.5,-254.12 153.5,-233.38 236.25,-233.38 236.25,-254.12"/>
<text text-anchor="middle" x="194.88" y="-240.62" font-family="Helvetica,sans-Serif" font-size="10.00">libconfig.h++</text>
</a>
</g>
</g>
<!-- Node2&#45;&gt;Node4 -->
<g id="edge3_Node000002_Node000004" class="edge">
<title>Node2&#45;&gt;Node4</title>
<g id="a_edge3_Node000002_Node000004"><a xlink:title=" ">
<path fill="none" stroke="#63b8ff" d="M375.49,-296.07C341.15,-287.18 289.5,-273.51 244.88,-260.5 241.93,-259.64 238.89,-258.73 235.83,-257.81"/>
<polygon fill="#63b8ff" stroke="#63b8ff" points="237.07,-254.22 226.49,-254.62 235.01,-260.91 237.07,-254.22"/>
</a>
</g>
</g>
<!-- Node5 -->
<g id="Node000005" class="node">
<title>Node5</title>
<g id="a_Node000005"><a xlink:title=" ">
<polygon fill="#e0e0e0" stroke="#999999" points="311.5,-254.12 254.25,-254.12 254.25,-233.38 311.5,-233.38 311.5,-254.12"/>
<text text-anchor="middle" x="282.88" y="-240.62" font-family="Helvetica,sans-Serif" font-size="10.00">memory</text>
</a>
</g>
</g>
<!-- Node2&#45;&gt;Node5 -->
<g id="edge4_Node000002_Node000005" class="edge">
<title>Node2&#45;&gt;Node5</title>
<g id="a_edge4_Node000002_Node000005"><a xlink:title=" ">
<path fill="none" stroke="#63b8ff" d="M392.83,-296.05C371.44,-286.07 338.07,-270.5 313.7,-259.13"/>
<polygon fill="#63b8ff" stroke="#63b8ff" points="315.41,-255.6 304.87,-254.55 312.45,-261.95 315.41,-255.6"/>
</a>
</g>
</g>
<!-- Node6 -->
<g id="Node000006" class="node">
<title>Node6</title>
<g id="a_Node000006"><a xlink:title=" ">
<polygon fill="#e0e0e0" stroke="#999999" points="147.75,-20.75 104,-20.75 104,0 147.75,0 147.75,-20.75"/>
<text text-anchor="middle" x="125.88" y="-7.25" font-family="Helvetica,sans-Serif" font-size="10.00">string</text>
</a>
</g>
</g>
<!-- Node2&#45;&gt;Node6 -->
<g id="edge5_Node000002_Node000006" class="edge">
<title>Node2&#45;&gt;Node6</title>
<g id="a_edge5_Node000002_Node000006"><a xlink:title=" ">
<path fill="none" stroke="#63b8ff" d="M360.95,-300.1C287.12,-291.57 160.46,-275.04 144.88,-260.5 118.51,-235.9 125.88,-217.68 125.88,-181.62 125.88,-181.62 125.88,-181.62 125.88,-122.88 125.88,-91.19 125.88,-54.44 125.88,-32.05"/>
<polygon fill="#63b8ff" stroke="#63b8ff" points="129.38,-32.22 125.88,-22.22 122.38,-32.22 129.38,-32.22"/>
</a>
</g>
</g>
<!-- Node7 -->
<g id="Node000007" class="node">
<title>Node7</title>
<g id="a_Node000007"><a xlink:title=" ">
<polygon fill="#e0e0e0" stroke="#999999" points="235.25,-77.5 188.5,-77.5 188.5,-56.75 235.25,-56.75 235.25,-77.5"/>
<text text-anchor="middle" x="211.88" y="-64" font-family="Helvetica,sans-Serif" font-size="10.00">vector</text>
</a>
</g>
</g>
<!-- Node2&#45;&gt;Node7 -->
<g id="edge6_Node000002_Node000007" class="edge">
<title>Node2&#45;&gt;Node7</title>
<g id="a_edge6_Node000002_Node000007"><a xlink:title=" ">
<path fill="none" stroke="#63b8ff" d="M456.5,-296.04C475.36,-289.34 495.74,-278.33 506.88,-260.5 514.76,-247.87 515.38,-239.22 506.88,-227 439.2,-129.71 350.19,-207.31 256.88,-134.25 240.86,-121.71 228.44,-101.88 220.75,-87.2"/>
<polygon fill="#63b8ff" stroke="#63b8ff" points="223.57,-86.01 215.99,-78.6 217.29,-89.12 223.57,-86.01"/>
</a>
</g>
</g>
<!-- Node2&#45;&gt;Node8 -->
<g id="edge7_Node000002_Node000008" class="edge">
<title>Node2&#45;&gt;Node8</title>
<g id="a_edge7_Node000002_Node000008"><a xlink:title=" ">
<path fill="none" stroke="#63b8ff" d="M446.17,-296.05C474.45,-287.45 516.37,-274.7 551.35,-264.07"/>
<polygon fill="#63b8ff" stroke="#63b8ff" points="551.94,-267.24 560.49,-260.98 549.9,-260.55 551.94,-267.24"/>
</a>
</g>
</g>
<!-- Node2&#45;&gt;Node21 -->
<g id="edge29_Node000002_Node000021" class="edge">
<title>Node2&#45;&gt;Node21</title>
<g id="a_edge29_Node000002_Node000021"><a xlink:title=" ">
<path fill="none" stroke="#63b8ff" d="M466.97,-297.73C519.46,-289.52 602.3,-276.1 683.42,-260.73"/>
<polygon fill="#63b8ff" stroke="#63b8ff" points="683.65,-264.06 692.82,-258.75 682.34,-257.18 683.65,-264.06"/>
</a>
</g>
</g>
<!-- Node2&#45;&gt;Node22 -->
<g id="edge32_Node000002_Node000022" class="edge">
<title>Node2&#45;&gt;Node22</title>
<g id="a_edge32_Node000002_Node000022"><a xlink:title=" ">
<path fill="none" stroke="#63b8ff" d="M360.96,-299.49C300.46,-291.82 198.57,-277.81 111.88,-260.5 106.82,-259.49 101.56,-258.34 96.33,-257.13"/>
<polygon fill="#63b8ff" stroke="#63b8ff" points="97.26,-253.51 86.72,-254.59 95.63,-260.32 97.26,-253.51"/>
</a>
</g>
</g>
<!-- Node9 -->
<g id="Node000009" class="node">
<title>Node9</title>
<g id="a_Node000009"><a xlink:href="IPrimitive_8hpp.html" target="_top" xlink:title=" ">
<polygon fill="white" stroke="#666666" points="661.5,-191 568.25,-191 568.25,-170.25 661.5,-170.25 661.5,-191"/>
<text text-anchor="middle" x="614.88" y="-177.5" font-family="Helvetica,sans-Serif" font-size="10.00">../IPrimitive.hpp</text>
</a>
</g>
</g>
<!-- Node8&#45;&gt;Node9 -->
<g id="edge8_Node000008_Node000009" class="edge">
<title>Node8&#45;&gt;Node9</title>
<g id="a_edge8_Node000008_Node000009"><a xlink:title=" ">
<path fill="none" stroke="#63b8ff" d="M614.88,-226.69C614.88,-219.27 614.88,-210.36 614.88,-202.43"/>
<polygon fill="#63b8ff" stroke="#63b8ff" points="618.38,-202.47 614.88,-192.47 611.38,-202.47 618.38,-202.47"/>
</a>
</g>
</g>
<!-- Node8&#45;&gt;Node20 -->
<g id="edge28_Node000008_Node000020" class="edge">
<title>Node8&#45;&gt;Node20</title>
<g id="a_edge28_Node000008_Node000020"><a xlink:title=" ">
<path fill="none" stroke="#63b8ff" d="M645.96,-226.61C690.25,-203.61 770.87,-161.75 813.58,-139.57"/>
<polygon fill="#63b8ff" stroke="#63b8ff" points="814.81,-142.35 822.08,-134.64 811.59,-136.14 814.81,-142.35"/>
</a>
</g>
</g>
<!-- Node9&#45;&gt;Node7 -->
<g id="edge27_Node000009_Node000007" class="edge">
<title>Node9&#45;&gt;Node7</title>
<g id="a_edge27_Node000009_Node000007"><a xlink:title=" ">
<path fill="none" stroke="#63b8ff" d="M568.01,-176.08C491.18,-169.76 342.15,-155.2 293.88,-134.25 267.83,-122.94 243.22,-101.03 227.88,-85.54"/>
<polygon fill="#63b8ff" stroke="#63b8ff" points="230.81,-83.49 221.36,-78.69 225.75,-88.34 230.81,-83.49"/>
</a>
</g>
</g>
<!-- Node10 -->
<g id="Node000010" class="node">
<title>Node10</title>
<g id="a_Node000010"><a xlink:href="Color_8hpp.html" target="_top" xlink:title=" ">
<polygon fill="white" stroke="#666666" points="436.75,-134.25 303,-134.25 303,-113.5 436.75,-113.5 436.75,-134.25"/>
<text text-anchor="middle" x="369.88" y="-120.75" font-family="Helvetica,sans-Serif" font-size="10.00">../core/helpers/Color.hpp</text>
</a>
</g>
</g>
<!-- Node9&#45;&gt;Node10 -->
<g id="edge9_Node000009_Node000010" class="edge">
<title>Node9&#45;&gt;Node10</title>
<g id="a_edge9_Node000009_Node000010"><a xlink:title=" ">
<path fill="none" stroke="#63b8ff" d="M570.79,-169.77C529.81,-160.62 468.63,-146.94 424.55,-137.09"/>
<polygon fill="#63b8ff" stroke="#63b8ff" points="425.54,-133.5 415.02,-134.74 424.01,-140.34 425.54,-133.5"/>
</a>
</g>
</g>
<!-- Node11 -->
<g id="Node000011" class="node">
<title>Node11</title>
<g id="a_Node000011"><a xlink:title=" ">
<polygon fill="#e0e0e0" stroke="#999999" points="630.62,-20.75 571.12,-20.75 571.12,0 630.62,0 630.62,-20.75"/>
<text text-anchor="middle" x="600.88" y="-7.25" font-family="Helvetica,sans-Serif" font-size="10.00">iostream</text>
</a>
</g>
</g>
<!-- Node9&#45;&gt;Node11 -->
<g id="edge25_Node000009_Node000011" class="edge">
<title>Node9&#45;&gt;Node11</title>
<g id="a_edge25_Node000009_Node000011"><a xlink:title=" ">
<path fill="none" stroke="#63b8ff" d="M614.08,-170.1C611.88,-143.62 605.64,-68.68 602.6,-32.05"/>
<polygon fill="#63b8ff" stroke="#63b8ff" points="606.01,-31.89 601.69,-22.22 599.04,-32.47 606.01,-31.89"/>
</a>
</g>
</g>
<!-- Node12 -->
<g id="Node000012" class="node">
<title>Node12</title>
<g id="a_Node000012"><a xlink:href="Ray_8hpp.html" target="_top" xlink:title=" ">
<polygon fill="white" stroke="#666666" points="767,-134.25 640.75,-134.25 640.75,-113.5 767,-113.5 767,-134.25"/>
<text text-anchor="middle" x="703.88" y="-120.75" font-family="Helvetica,sans-Serif" font-size="10.00">../core/helpers/Ray.hpp</text>
</a>
</g>
</g>
<!-- Node9&#45;&gt;Node12 -->
<g id="edge11_Node000009_Node000012" class="edge">
<title>Node9&#45;&gt;Node12</title>
<g id="a_edge11_Node000009_Node000012"><a xlink:title=" ">
<path fill="none" stroke="#63b8ff" d="M630.79,-169.84C644.2,-161.58 663.63,-149.63 679.08,-140.13"/>
<polygon fill="#63b8ff" stroke="#63b8ff" points="680.42,-142.8 687.1,-134.58 676.75,-136.84 680.42,-142.8"/>
</a>
</g>
</g>
<!-- Node13 -->
<g id="Node000013" class="node">
<title>Node13</title>
<g id="a_Node000013"><a xlink:href="Math_8hpp.html" target="_top" xlink:title=" ">
<polygon fill="white" stroke="#666666" points="753.5,-77.5 654.25,-77.5 654.25,-56.75 753.5,-56.75 753.5,-77.5"/>
<text text-anchor="middle" x="703.88" y="-64" font-family="Helvetica,sans-Serif" font-size="10.00">../math/Math.hpp</text>
</a>
</g>
</g>
<!-- Node9&#45;&gt;Node13 -->
<g id="edge15_Node000009_Node000013" class="edge">
<title>Node9&#45;&gt;Node13</title>
<g id="a_edge15_Node000009_Node000013"><a xlink:title=" ">
<path fill="none" stroke="#63b8ff" d="M661.91,-172.74C704.31,-165.46 762.07,-152.48 775.88,-134.25 791.16,-114.06 764.17,-94.95 739,-82.51"/>
<polygon fill="#63b8ff" stroke="#63b8ff" points="740.71,-78.98 730.17,-77.92 737.75,-85.32 740.71,-78.98"/>
</a>
</g>
</g>
<!-- Node15 -->
<g id="Node000015" class="node">
<title>Node15</title>
<g id="a_Node000015"><a xlink:href="Matrix_8hpp.html" target="_top" xlink:title=" ">
<polygon fill="white" stroke="#666666" points="584.88,-134.25 454.88,-134.25 454.88,-113.5 584.88,-113.5 584.88,-134.25"/>
<text text-anchor="middle" x="519.88" y="-120.75" font-family="Helvetica,sans-Serif" font-size="10.00">../core/math/Matrix.hpp</text>
</a>
</g>
</g>
<!-- Node9&#45;&gt;Node15 -->
<g id="edge16_Node000009_Node000015" class="edge">
<title>Node9&#45;&gt;Node15</title>
<g id="a_edge16_Node000009_Node000015"><a xlink:title=" ">
<path fill="none" stroke="#63b8ff" d="M597.89,-169.84C583.44,-161.51 562.44,-149.41 545.87,-139.86"/>
<polygon fill="#63b8ff" stroke="#63b8ff" points="548.12,-136.54 537.71,-134.58 544.63,-142.6 548.12,-136.54"/>
</a>
</g>
</g>
<!-- Node9&#45;&gt;Node20 -->
<g id="edge26_Node000009_Node000020" class="edge">
<title>Node9&#45;&gt;Node20</title>
<g id="a_edge26_Node000009_Node000020"><a xlink:title=" ">
<path fill="none" stroke="#63b8ff" d="M659.71,-169.77C699.13,-160.95 757.98,-147.42 808.88,-134.25 810,-133.96 811.14,-133.66 812.3,-133.35"/>
<polygon fill="#63b8ff" stroke="#63b8ff" points="813.01,-136.51 821.72,-130.48 811.15,-129.76 813.01,-136.51"/>
</a>
</g>
</g>
<!-- Node10&#45;&gt;Node11 -->
<g id="edge10_Node000010_Node000011" class="edge">
<title>Node10&#45;&gt;Node11</title>
<g id="a_edge10_Node000010_Node000011"><a xlink:title=" ">
<path fill="none" stroke="#63b8ff" d="M370.86,-113.15C372.87,-98.6 378.81,-71.33 395.88,-56.75 420.2,-35.97 507.53,-22.36 560.04,-15.85"/>
<polygon fill="#63b8ff" stroke="#63b8ff" points="560.17,-19.24 569.68,-14.57 559.33,-12.29 560.17,-19.24"/>
</a>
</g>
</g>
<!-- Node12&#45;&gt;Node13 -->
<g id="edge12_Node000012_Node000013" class="edge">
<title>Node12&#45;&gt;Node13</title>
<g id="a_edge12_Node000012_Node000013"><a xlink:title=" ">
<path fill="none" stroke="#63b8ff" d="M703.88,-113.09C703.88,-106.31 703.88,-97.05 703.88,-88.69"/>
<polygon fill="#63b8ff" stroke="#63b8ff" points="707.38,-88.83 703.88,-78.83 700.38,-88.83 707.38,-88.83"/>
</a>
</g>
</g>
<!-- Node13&#45;&gt;Node11 -->
<g id="edge13_Node000013_Node000011" class="edge">
<title>Node13&#45;&gt;Node11</title>
<g id="a_edge13_Node000013_Node000011"><a xlink:title=" ">
<path fill="none" stroke="#63b8ff" d="M685.46,-56.34C669.72,-47.97 646.81,-35.79 628.81,-26.22"/>
<polygon fill="#63b8ff" stroke="#63b8ff" points="630.6,-22.68 620.13,-21.08 627.32,-28.86 630.6,-22.68"/>
</a>
</g>
</g>
<!-- Node13&#45;&gt;Node14 -->
<g id="edge14_Node000013_Node000014" class="edge">
<title>Node13&#45;&gt;Node14</title>
<g id="a_edge14_Node000013_Node000014"><a xlink:title=" ">
<path fill="none" stroke="#63b8ff" d="M720.32,-56.34C734.19,-48.08 754.27,-36.13 770.25,-26.63"/>
<polygon fill="#63b8ff" stroke="#63b8ff" points="771.77,-29.2 778.57,-21.08 768.19,-23.18 771.77,-29.2"/>
</a>
</g>
</g>
<!-- Node15&#45;&gt;Node7 -->
<g id="edge23_Node000015_Node000007" class="edge">
<title>Node15&#45;&gt;Node7</title>
<g id="a_edge23_Node000015_Node000007"><a xlink:title=" ">
<path fill="none" stroke="#63b8ff" d="M454.47,-114.21C400.9,-106.63 322.99,-94.5 245.95,-77.52"/>
<polygon fill="#63b8ff" stroke="#63b8ff" points="247.11,-73.97 236.59,-75.21 245.58,-80.8 247.11,-73.97"/>
</a>
</g>
</g>
<!-- Node15&#45;&gt;Node11 -->
<g id="edge22_Node000015_Node000011" class="edge">
<title>Node15&#45;&gt;Node11</title>
<g id="a_edge22_Node000015_Node000011"><a xlink:title=" ">
<path fill="none" stroke="#63b8ff" d="M530.52,-113.04C539.71,-104.25 553.02,-90.73 562.88,-77.5 573.86,-62.75 584.11,-44.55 591.19,-30.97"/>
<polygon fill="#63b8ff" stroke="#63b8ff" points="594.73,-32.74 596.14,-22.24 588.49,-29.56 594.73,-32.74"/>
</a>
</g>
</g>
<!-- Node15&#45;&gt;Node13 -->
<g id="edge17_Node000015_Node000013" class="edge">
<title>Node15&#45;&gt;Node13</title>
<g id="a_edge17_Node000015_Node000013"><a xlink:title=" ">
<path fill="none" stroke="#63b8ff" d="M552.77,-113.09C582.9,-104.12 627.69,-90.79 660.69,-80.98"/>
<polygon fill="#63b8ff" stroke="#63b8ff" points="661.37,-84.13 669.95,-77.92 659.37,-77.42 661.37,-84.13"/>
</a>
</g>
</g>
<!-- Node16 -->
<g id="Node000016" class="node">
<title>Node16</title>
<g id="a_Node000016"><a xlink:href="Error_8hpp.html" target="_top" xlink:title=" ">
<polygon fill="white" stroke="#666666" points="348.25,-77.5 253.5,-77.5 253.5,-56.75 348.25,-56.75 348.25,-77.5"/>
<text text-anchor="middle" x="300.88" y="-64" font-family="Helvetica,sans-Serif" font-size="10.00">../error/Error.hpp</text>
</a>
</g>
</g>
<!-- Node15&#45;&gt;Node16 -->
<g id="edge18_Node000015_Node000016" class="edge">
<title>Node15&#45;&gt;Node16</title>
<g id="a_edge18_Node000015_Node000016"><a xlink:title=" ">
<path fill="none" stroke="#63b8ff" d="M480.47,-113.02C444.22,-103.96 390.3,-90.48 351,-80.66"/>
<polygon fill="#63b8ff" stroke="#63b8ff" points="351.88,-77.02 341.33,-77.99 350.19,-83.81 351.88,-77.02"/>
</a>
</g>
</g>
<!-- Node18 -->
<g id="Node000018" class="node">
<title>Node18</title>
<g id="a_Node000018"><a xlink:title=" ">
<polygon fill="#e0e0e0" stroke="#999999" points="553.88,-77.5 471.88,-77.5 471.88,-56.75 553.88,-56.75 553.88,-77.5"/>
<text text-anchor="middle" x="512.88" y="-64" font-family="Helvetica,sans-Serif" font-size="10.00">initializer_list</text>
</a>
</g>
</g>
<!-- Node15&#45;&gt;Node18 -->
<g id="edge21_Node000015_Node000018" class="edge">
<title>Node15&#45;&gt;Node18</title>
<g id="a_edge21_Node000015_Node000018"><a xlink:title=" ">
<path fill="none" stroke="#63b8ff" d="M518.62,-113.09C517.76,-106.31 516.57,-97.05 515.5,-88.69"/>
<polygon fill="#63b8ff" stroke="#63b8ff" points="518.86,-88.3 514.12,-78.83 511.91,-89.19 518.86,-88.3"/>
</a>
</g>
</g>
<!-- Node19 -->
<g id="Node000019" class="node">
<title>Node19</title>
<g id="a_Node000019"><a xlink:title=" ">
<polygon fill="#e0e0e0" stroke="#999999" points="453.38,-77.5 404.38,-77.5 404.38,-56.75 453.38,-56.75 453.38,-77.5"/>
<text text-anchor="middle" x="428.88" y="-64" font-family="Helvetica,sans-Serif" font-size="10.00">format</text>
</a>
</g>
</g>
<!-- Node15&#45;&gt;Node19 -->
<g id="edge24_Node000015_Node000019" class="edge">
<title>Node15&#45;&gt;Node19</title>
<g id="a_edge24_Node000015_Node000019"><a xlink:title=" ">
<path fill="none" stroke="#63b8ff" d="M503.61,-113.09C489.89,-104.83 470.03,-92.88 454.23,-83.38"/>
<polygon fill="#63b8ff" stroke="#63b8ff" points="456.38,-79.98 446,-77.83 452.77,-85.98 456.38,-79.98"/>
</a>
</g>
</g>
<!-- Node16&#45;&gt;Node6 -->
<g id="edge20_Node000016_Node000006" class="edge">
<title>Node16&#45;&gt;Node6</title>
<g id="a_edge20_Node000016_Node000006"><a xlink:title=" ">
<path fill="none" stroke="#63b8ff" d="M269.59,-56.34C238.14,-46.5 189.9,-31.41 158.12,-21.46"/>
<polygon fill="#63b8ff" stroke="#63b8ff" points="159.61,-17.95 149.02,-18.3 157.52,-24.63 159.61,-17.95"/>
</a>
</g>
</g>
<!-- Node17 -->
<g id="Node000017" class="node">
<title>Node17</title>
<g id="a_Node000017"><a xlink:title=" ">
<polygon fill="#e0e0e0" stroke="#999999" points="332.88,-20.75 268.88,-20.75 268.88,0 332.88,0 332.88,-20.75"/>
<text text-anchor="middle" x="300.88" y="-7.25" font-family="Helvetica,sans-Serif" font-size="10.00">stdexcept</text>
</a>
</g>
</g>
<!-- Node16&#45;&gt;Node17 -->
<g id="edge19_Node000016_Node000017" class="edge">
<title>Node16&#45;&gt;Node17</title>
<g id="a_edge19_Node000016_Node000017"><a xlink:title=" ">
<path fill="none" stroke="#63b8ff" d="M300.88,-56.34C300.88,-49.56 300.88,-40.3 300.88,-31.94"/>
<polygon fill="#63b8ff" stroke="#63b8ff" points="304.38,-32.08 300.88,-22.08 297.38,-32.08 304.38,-32.08"/>
</a>
</g>
</g>
<!-- Node21&#45;&gt;Node9 -->
<g id="edge30_Node000021_Node000009" class="edge">
<title>Node21&#45;&gt;Node9</title>
<g id="a_edge30_Node000021_Node000009"><a xlink:title=" ">
<path fill="none" stroke="#63b8ff" d="M719.93,-226.53C697.46,-216.93 669.27,-204.88 647.75,-195.68"/>
<polygon fill="#63b8ff" stroke="#63b8ff" points="649.35,-192.13 638.78,-191.42 646.6,-198.56 649.35,-192.13"/>
</a>
</g>
</g>
<!-- Node21&#45;&gt;Node20 -->
<g id="edge31_Node000021_Node000020" class="edge">
<title>Node21&#45;&gt;Node20</title>
<g id="a_edge31_Node000021_Node000020"><a xlink:title=" ">
<path fill="none" stroke="#63b8ff" d="M769.2,-226.85C784.64,-205.19 812.24,-166.46 828.62,-143.48"/>
<polygon fill="#63b8ff" stroke="#63b8ff" points="831.93,-145.86 834.89,-135.68 826.23,-141.8 831.93,-145.86"/>
</a>
</g>
</g>
<!-- Node22&#45;&gt;Node6 -->
<g id="edge33_Node000022_Node000006" class="edge">
<title>Node22&#45;&gt;Node6</title>
<g id="a_edge33_Node000022_Node000006"><a xlink:title=" ">
<path fill="none" stroke="#63b8ff" d="M52.09,-233.1C63.66,-198.34 103.36,-79.02 119.24,-31.32"/>
<polygon fill="#63b8ff" stroke="#63b8ff" points="122.81,-32.66 122.65,-22.06 116.17,-30.45 122.81,-32.66"/>
</a>
</g>
</g>
</g>
</svg>
