<?xml version="1.0" encoding="UTF-8" standalone="no"?>
<!DOCTYPE svg PUBLIC "-//W3C//DTD SVG 1.1//EN"
 "http://www.w3.org/Graphics/SVG/1.1/DTD/svg11.dtd">
<!-- Generated by graphviz version 8.1.0 (20230707.0739)
 -->
<!-- Title: src/core/helpers/Ray.hpp Pages: 1 -->
<svg width="143pt" height="142pt"
 viewBox="0.00 0.00 142.50 142.25" xmlns="http://www.w3.org/2000/svg" xmlns:xlink="http://www.w3.org/1999/xlink">
<g id="graph0" class="graph" transform="scale(1 1) rotate(0) translate(4 138.25)">
<title>src/core/helpers/Ray.hpp</title>
<!-- Node1 -->
<g id="Node000001" class="node">
<title>Node1</title>
<g id="a_Node000001"><a xlink:title=" ">
<polygon fill="#999999" stroke="#666666" points="134.5,-134.25 0,-134.25 0,-113.5 134.5,-113.5 134.5,-134.25"/>
<text text-anchor="middle" x="67.25" y="-120.75" font-family="Helvetica,sans-Serif" font-size="10.00">src/core/helpers/Ray.hpp</text>
</a>
</g>
</g>
<!-- Node2 -->
<g id="Node000002" class="node">
<title>Node2</title>
<g id="a_Node000002"><a xlink:href="Math_8hpp.html" target="_top" xlink:title=" ">
<polygon fill="white" stroke="#666666" points="116.88,-77.5 17.62,-77.5 17.62,-56.75 116.88,-56.75 116.88,-77.5"/>
<text text-anchor="middle" x="67.25" y="-64" font-family="Helvetica,sans-Serif" font-size="10.00">../math/Math.hpp</text>
</a>
</g>
</g>
<!-- Node1&#45;&gt;Node2 -->
<g id="edge1_Node000001_Node000002" class="edge">
<title>Node1&#45;&gt;Node2</title>
<g id="a_edge1_Node000001_Node000002"><a xlink:title=" ">
<path fill="none" stroke="#63b8ff" d="M67.25,-113.09C67.25,-106.31 67.25,-97.05 67.25,-88.69"/>
<polygon fill="#63b8ff" stroke="#63b8ff" points="70.75,-88.83 67.25,-78.83 63.75,-88.83 70.75,-88.83"/>
</a>
</g>
</g>
<!-- Node3 -->
<g id="Node000003" class="node">
<title>Node3</title>
<g id="a_Node000003"><a xlink:title=" ">
<polygon fill="#e0e0e0" stroke="#999999" points="62,-20.75 2.5,-20.75 2.5,0 62,0 62,-20.75"/>
<text text-anchor="middle" x="32.25" y="-7.25" font-family="Helvetica,sans-Serif" font-size="10.00">iostream</text>
</a>
</g>
</g>
<!-- Node2&#45;&gt;Node3 -->
<g id="edge2_Node000002_Node000003" class="edge">
<title>Node2&#45;&gt;Node3</title>
<g id="a_edge2_Node000002_Node000003"><a xlink:title=" ">
<path fill="none" stroke="#63b8ff" d="M60.99,-56.34C56.36,-49.1 49.92,-39.01 44.3,-30.22"/>
<polygon fill="#63b8ff" stroke="#63b8ff" points="46.79,-28.62 38.45,-22.08 40.89,-32.39 46.79,-28.62"/>
</a>
</g>
</g>
<!-- Node4 -->
<g id="Node000004" class="node">
<title>Node4</title>
<g id="a_Node000004"><a xlink:title=" ">
<polygon fill="#e0e0e0" stroke="#999999" points="126.62,-20.75 79.88,-20.75 79.88,0 126.62,0 126.62,-20.75"/>
<text text-anchor="middle" x="103.25" y="-7.25" font-family="Helvetica,sans-Serif" font-size="10.00">cmath</text>
</a>
</g>
</g>
<!-- Node2&#45;&gt;Node4 -->
<g id="edge3_Node000002_Node000004" class="edge">
<title>Node2&#45;&gt;Node4</title>
<g id="a_edge3_Node000002_Node000004"><a xlink:title=" ">
<path fill="none" stroke="#63b8ff" d="M73.69,-56.34C78.45,-49.1 85.08,-39.01 90.86,-30.22"/>
<polygon fill="#63b8ff" stroke="#63b8ff" points="94.3,-32.36 96.87,-22.08 88.45,-28.51 94.3,-32.36"/>
</a>
</g>
</g>
</g>
</svg>
