<?xml version="1.0" encoding="UTF-8" standalone="no"?>
<!DOCTYPE svg PUBLIC "-//W3C//DTD SVG 1.1//EN"
 "http://www.w3.org/Graphics/SVG/1.1/DTD/svg11.dtd">
<!-- Generated by graphviz version 8.1.0 (20230707.0739)
 -->
<!-- Title: src/core/helpers/Ray.hpp Pages: 1 -->
<svg width="1743pt" height="521pt"
 viewBox="0.00 0.00 1743.25 521.00" xmlns="http://www.w3.org/2000/svg" xmlns:xlink="http://www.w3.org/1999/xlink">
<g id="graph0" class="graph" transform="scale(1 1) rotate(0) translate(4 517)">
<title>src/core/helpers/Ray.hpp</title>
<!-- Node1 -->
<g id="Node000001" class="node">
<title>Node1</title>
<g id="a_Node000001"><a xlink:title=" ">
<polygon fill="#999999" stroke="#666666" points="265,-513 130.5,-513 130.5,-492.25 265,-492.25 265,-513"/>
<text text-anchor="middle" x="197.75" y="-499.5" font-family="Helvetica,sans-Serif" font-size="10.00">src/core/helpers/Ray.hpp</text>
</a>
</g>
</g>
<!-- Node2 -->
<g id="Node000002" class="node">
<title>Node2</title>
<g id="a_Node000002"><a xlink:href="Camera_8cpp.html" target="_top" xlink:title=" ">
<polygon fill="white" stroke="#666666" points="131.5,-210.12 0,-210.12 0,-189.38 131.5,-189.38 131.5,-210.12"/>
<text text-anchor="middle" x="65.75" y="-196.62" font-family="Helvetica,sans-Serif" font-size="10.00">src/camera/Camera.cpp</text>
</a>
</g>
</g>
<!-- Node1&#45;&gt;Node2 -->
<g id="edge1_Node000001_Node000002" class="edge">
<title>Node1&#45;&gt;Node2</title>
<g id="a_edge1_Node000001_Node000002"><a xlink:title=" ">
<path fill="none" stroke="#63b8ff" d="M165.73,-486.97C132.32,-469.22 84.75,-435.9 84.75,-390.12 84.75,-390.12 84.75,-390.12 84.75,-331.38 84.75,-285.77 73.27,-232.14 68.16,-210.51"/>
<polygon fill="#63b8ff" stroke="#63b8ff" points="163.66,-490.35 174.15,-491.77 166.83,-484.11 163.66,-490.35"/>
</a>
</g>
</g>
<!-- Node3 -->
<g id="Node000003" class="node">
<title>Node3</title>
<g id="a_Node000003"><a xlink:href="Camera_8hpp.html" target="_top" xlink:title=" ">
<polygon fill="white" stroke="#666666" points="263.88,-279.62 131.62,-279.62 131.62,-258.88 263.88,-258.88 263.88,-279.62"/>
<text text-anchor="middle" x="197.75" y="-266.12" font-family="Helvetica,sans-Serif" font-size="10.00">src/camera/Camera.hpp</text>
</a>
</g>
</g>
<!-- Node1&#45;&gt;Node3 -->
<g id="edge2_Node000001_Node000003" class="edge">
<title>Node1&#45;&gt;Node3</title>
<g id="a_edge2_Node000001_Node000003"><a xlink:title=" ">
<path fill="none" stroke="#63b8ff" d="M197.75,-481.13C197.75,-433.09 197.75,-314.62 197.75,-279.94"/>
<polygon fill="#63b8ff" stroke="#63b8ff" points="194.25,-480.98 197.75,-490.98 201.25,-480.98 194.25,-480.98"/>
</a>
</g>
</g>
<!-- Node15 -->
<g id="Node000015" class="node">
<title>Node15</title>
<g id="a_Node000015"><a xlink:href="IPrimitive_8hpp.html" target="_top" xlink:title=" ">
<polygon fill="white" stroke="#666666" points="1109.75,-456.25 955.75,-456.25 955.75,-435.5 1109.75,-435.5 1109.75,-456.25"/>
<text text-anchor="middle" x="1032.75" y="-442.75" font-family="Helvetica,sans-Serif" font-size="10.00">src/primitives/IPrimitive.hpp</text>
</a>
</g>
</g>
<!-- Node1&#45;&gt;Node15 -->
<g id="edge20_Node000001_Node000015" class="edge">
<title>Node1&#45;&gt;Node15</title>
<g id="a_edge20_Node000001_Node000015"><a xlink:title=" ">
<path fill="none" stroke="#63b8ff" d="M276.05,-496.49C435.63,-486.03 796.79,-462.35 955.49,-451.94"/>
<polygon fill="#63b8ff" stroke="#63b8ff" points="276.12,-493.04 266.37,-497.19 276.58,-500.03 276.12,-493.04"/>
</a>
</g>
</g>
<!-- Node3&#45;&gt;Node2 -->
<g id="edge8_Node000003_Node000002" class="edge">
<title>Node3&#45;&gt;Node2</title>
<g id="a_edge8_Node000003_Node000002"><a xlink:title=" ">
<path fill="none" stroke="#63b8ff" d="M169.06,-253.58C143.58,-240.55 107.07,-221.88 84.97,-210.58"/>
<polygon fill="#63b8ff" stroke="#63b8ff" points="167.06,-257 177.56,-258.43 170.25,-250.77 167.06,-257"/>
</a>
</g>
</g>
<!-- Node4 -->
<g id="Node000004" class="node">
<title>Node4</title>
<g id="a_Node000004"><a xlink:href="paser_2Scene_8hpp.html" target="_top" xlink:title=" ">
<polygon fill="white" stroke="#666666" points="452.88,-210.12 356.62,-210.12 356.62,-189.38 452.88,-189.38 452.88,-210.12"/>
<text text-anchor="middle" x="404.75" y="-196.62" font-family="Helvetica,sans-Serif" font-size="10.00">paser/Scene.hpp</text>
</a>
</g>
</g>
<!-- Node3&#45;&gt;Node4 -->
<g id="edge3_Node000003_Node000004" class="edge">
<title>Node3&#45;&gt;Node4</title>
<g id="a_edge3_Node000003_Node000004"><a xlink:title=" ">
<path fill="none" stroke="#63b8ff" d="M238.06,-255.11C278.1,-242.05 338.57,-222.33 374.61,-210.58"/>
<polygon fill="#63b8ff" stroke="#63b8ff" points="237.27,-252.01 228.85,-258.43 239.44,-258.66 237.27,-252.01"/>
</a>
</g>
</g>
<!-- Node5 -->
<g id="Node000005" class="node">
<title>Node5</title>
<g id="a_Node000005"><a xlink:href="parse_8cpp.html" target="_top" xlink:title=" ">
<polygon fill="white" stroke="#666666" points="489.38,-77.5 396.12,-77.5 396.12,-56.75 489.38,-56.75 489.38,-77.5"/>
<text text-anchor="middle" x="442.75" y="-64" font-family="Helvetica,sans-Serif" font-size="10.00">paser/parse.cpp</text>
</a>
</g>
</g>
<!-- Node3&#45;&gt;Node5 -->
<g id="edge7_Node000003_Node000005" class="edge">
<title>Node3&#45;&gt;Node5</title>
<g id="a_edge7_Node000003_Node000005"><a xlink:title=" ">
<path fill="none" stroke="#63b8ff" d="M191.02,-248.22C186.14,-229.79 182.33,-202.44 194.75,-183 239.01,-113.72 336.95,-85.6 395.64,-74.66"/>
<polygon fill="#63b8ff" stroke="#63b8ff" points="187.92,-249.06 194.14,-257.64 194.62,-247.05 187.92,-249.06"/>
</a>
</g>
</g>
<!-- Node7 -->
<g id="Node000007" class="node">
<title>Node7</title>
<g id="a_Node000007"><a xlink:href="src_2core_2scene_2Scene_8hpp.html" target="_top" xlink:title=" ">
<polygon fill="white" stroke="#666666" points="1214.25,-140.62 1075.25,-140.62 1075.25,-119.88 1214.25,-119.88 1214.25,-140.62"/>
<text text-anchor="middle" x="1144.75" y="-127.12" font-family="Helvetica,sans-Serif" font-size="10.00">src/core/scene/Scene.hpp</text>
</a>
</g>
</g>
<!-- Node3&#45;&gt;Node7 -->
<g id="edge9_Node000003_Node000007" class="edge">
<title>Node3&#45;&gt;Node7</title>
<g id="a_edge9_Node000003_Node000007"><a xlink:title=" ">
<path fill="none" stroke="#63b8ff" d="M195.91,-247.48C195.42,-227.63 198.28,-198.49 216.75,-183 251.3,-154.02 982.83,-151.01 1027.75,-147 1044.49,-145.5 1062.51,-143.35 1079.27,-141.12"/>
<polygon fill="#63b8ff" stroke="#63b8ff" points="192.47,-247.65 196.54,-257.44 199.46,-247.25 192.47,-247.65"/>
</a>
</g>
</g>
<!-- Node13 -->
<g id="Node000013" class="node">
<title>Node13</title>
<g id="a_Node000013"><a xlink:href="Parser_8hpp.html" target="_top" xlink:title=" ">
<polygon fill="white" stroke="#666666" points="1157.38,-210.12 1040.12,-210.12 1040.12,-189.38 1157.38,-189.38 1157.38,-210.12"/>
<text text-anchor="middle" x="1098.75" y="-196.62" font-family="Helvetica,sans-Serif" font-size="10.00">src/parser/Parser.hpp</text>
</a>
</g>
</g>
<!-- Node3&#45;&gt;Node13 -->
<g id="edge15_Node000003_Node000013" class="edge">
<title>Node3&#45;&gt;Node13</title>
<g id="a_edge15_Node000003_Node000013"><a xlink:title=" ">
<path fill="none" stroke="#63b8ff" d="M275.05,-264.2C467.54,-254.01 958.19,-227.35 1031.75,-216.5 1041.56,-215.05 1052.05,-212.89 1061.75,-210.62"/>
<polygon fill="#63b8ff" stroke="#63b8ff" points="274.98,-260.75 265.18,-264.78 275.35,-267.74 274.98,-260.75"/>
</a>
</g>
</g>
<!-- Node4&#45;&gt;Node5 -->
<g id="edge4_Node000004_Node000005" class="edge">
<title>Node4&#45;&gt;Node5</title>
<g id="a_edge4_Node000004_Node000005"><a xlink:title=" ">
<path fill="none" stroke="#63b8ff" d="M408.66,-178.31C412.21,-160.89 417.91,-135.3 424.75,-113.5 428.71,-100.89 434.53,-86.8 438.47,-77.71"/>
<polygon fill="#63b8ff" stroke="#63b8ff" points="405.07,-177.42 406.57,-187.91 411.94,-178.78 405.07,-177.42"/>
</a>
</g>
</g>
<!-- Node6 -->
<g id="Node000006" class="node">
<title>Node6</title>
<g id="a_Node000006"><a xlink:href="parse_8hpp.html" target="_top" xlink:title=" ">
<polygon fill="white" stroke="#666666" points="527.75,-140.62 433.75,-140.62 433.75,-119.88 527.75,-119.88 527.75,-140.62"/>
<text text-anchor="middle" x="480.75" y="-127.12" font-family="Helvetica,sans-Serif" font-size="10.00">paser/parse.hpp</text>
</a>
</g>
</g>
<!-- Node4&#45;&gt;Node6 -->
<g id="edge5_Node000004_Node000006" class="edge">
<title>Node4&#45;&gt;Node6</title>
<g id="a_edge5_Node000004_Node000006"><a xlink:title=" ">
<path fill="none" stroke="#63b8ff" d="M423.49,-182.11C437.97,-169.25 457.53,-151.87 469.63,-141.12"/>
<polygon fill="#63b8ff" stroke="#63b8ff" points="421.79,-178.82 416.64,-188.08 426.44,-184.06 421.79,-178.82"/>
</a>
</g>
</g>
<!-- Node6&#45;&gt;Node5 -->
<g id="edge6_Node000006_Node000005" class="edge">
<title>Node6&#45;&gt;Node5</title>
<g id="a_edge6_Node000006_Node000005"><a xlink:title=" ">
<path fill="none" stroke="#63b8ff" d="M468.99,-110.34C462.27,-99.53 454.13,-86.43 448.71,-77.72"/>
<polygon fill="#63b8ff" stroke="#63b8ff" points="466.39,-111.78 474.64,-118.43 472.34,-108.09 466.39,-111.78"/>
</a>
</g>
</g>
<!-- Node8 -->
<g id="Node000008" class="node">
<title>Node8</title>
<g id="a_Node000008"><a xlink:href="RayTracer_8hpp.html" target="_top" xlink:title=" ">
<polygon fill="white" stroke="#666666" points="1057.5,-77.5 932,-77.5 932,-56.75 1057.5,-56.75 1057.5,-77.5"/>
<text text-anchor="middle" x="994.75" y="-64" font-family="Helvetica,sans-Serif" font-size="10.00">src/core/RayTracer.hpp</text>
</a>
</g>
</g>
<!-- Node7&#45;&gt;Node8 -->
<g id="edge10_Node000007_Node000008" class="edge">
<title>Node7&#45;&gt;Node8</title>
<g id="a_edge10_Node000007_Node000008"><a xlink:title=" ">
<path fill="none" stroke="#63b8ff" d="M1110.5,-115.29C1082.49,-103.88 1043.59,-88.03 1018.79,-77.92"/>
<polygon fill="#63b8ff" stroke="#63b8ff" points="1109.07,-118.9 1119.65,-119.43 1111.71,-112.41 1109.07,-118.9"/>
</a>
</g>
</g>
<!-- Node11 -->
<g id="Node000011" class="node">
<title>Node11</title>
<g id="a_Node000011"><a xlink:href="Image_8cpp.html" target="_top" xlink:title="Implémentation des méthodes de la classe Image pour gestion d&#39;image et affichage.">
<polygon fill="white" stroke="#666666" points="1371.62,-77.5 1231.88,-77.5 1231.88,-56.75 1371.62,-56.75 1371.62,-77.5"/>
<text text-anchor="middle" x="1301.75" y="-64" font-family="Helvetica,sans-Serif" font-size="10.00">src/core/scene/Image.cpp</text>
</a>
</g>
</g>
<!-- Node7&#45;&gt;Node11 -->
<g id="edge13_Node000007_Node000011" class="edge">
<title>Node7&#45;&gt;Node11</title>
<g id="a_edge13_Node000007_Node000011"><a xlink:title=" ">
<path fill="none" stroke="#63b8ff" d="M1180.21,-115.44C1209.56,-104.02 1250.52,-88.07 1276.59,-77.92"/>
<polygon fill="#63b8ff" stroke="#63b8ff" points="1179.02,-112.54 1170.97,-119.43 1181.56,-119.06 1179.02,-112.54"/>
</a>
</g>
</g>
<!-- Node12 -->
<g id="Node000012" class="node">
<title>Node12</title>
<g id="a_Node000012"><a xlink:href="Scene_8cpp.html" target="_top" xlink:title=" ">
<polygon fill="white" stroke="#666666" points="1213.88,-77.5 1075.62,-77.5 1075.62,-56.75 1213.88,-56.75 1213.88,-77.5"/>
<text text-anchor="middle" x="1144.75" y="-64" font-family="Helvetica,sans-Serif" font-size="10.00">src/core/scene/Scene.cpp</text>
</a>
</g>
</g>
<!-- Node7&#45;&gt;Node12 -->
<g id="edge14_Node000007_Node000012" class="edge">
<title>Node7&#45;&gt;Node12</title>
<g id="a_edge14_Node000007_Node000012"><a xlink:title=" ">
<path fill="none" stroke="#63b8ff" d="M1144.75,-108.66C1144.75,-98.2 1144.75,-85.99 1144.75,-77.72"/>
<polygon fill="#63b8ff" stroke="#63b8ff" points="1141.25,-108.43 1144.75,-118.43 1148.25,-108.43 1141.25,-108.43"/>
</a>
</g>
</g>
<!-- Node9 -->
<g id="Node000009" class="node">
<title>Node9</title>
<g id="a_Node000009"><a xlink:href="Main_8cpp.html" target="_top" xlink:title=" ">
<polygon fill="white" stroke="#666666" points="980.5,-20.75 879,-20.75 879,0 980.5,0 980.5,-20.75"/>
<text text-anchor="middle" x="929.75" y="-7.25" font-family="Helvetica,sans-Serif" font-size="10.00">src/core/Main.cpp</text>
</a>
</g>
</g>
<!-- Node8&#45;&gt;Node9 -->
<g id="edge11_Node000008_Node000009" class="edge">
<title>Node8&#45;&gt;Node9</title>
<g id="a_edge11_Node000008_Node000009"><a xlink:title=" ">
<path fill="none" stroke="#63b8ff" d="M974.91,-49.41C963.89,-40.13 950.58,-28.92 941.27,-21.08"/>
<polygon fill="#63b8ff" stroke="#63b8ff" points="972.23,-52.57 982.13,-56.34 976.74,-47.22 972.23,-52.57"/>
</a>
</g>
</g>
<!-- Node10 -->
<g id="Node000010" class="node">
<title>Node10</title>
<g id="a_Node000010"><a xlink:href="RayTracer_8cpp.html" target="_top" xlink:title=" ">
<polygon fill="white" stroke="#666666" points="1123.12,-20.75 998.38,-20.75 998.38,0 1123.12,0 1123.12,-20.75"/>
<text text-anchor="middle" x="1060.75" y="-7.25" font-family="Helvetica,sans-Serif" font-size="10.00">src/core/RayTracer.cpp</text>
</a>
</g>
</g>
<!-- Node8&#45;&gt;Node10 -->
<g id="edge12_Node000008_Node000010" class="edge">
<title>Node8&#45;&gt;Node10</title>
<g id="a_edge12_Node000008_Node000010"><a xlink:title=" ">
<path fill="none" stroke="#63b8ff" d="M1014.9,-49.41C1026.08,-40.13 1039.6,-28.92 1049.05,-21.08"/>
<polygon fill="#63b8ff" stroke="#63b8ff" points="1013.01,-47.26 1007.55,-56.34 1017.48,-52.65 1013.01,-47.26"/>
</a>
</g>
</g>
<!-- Node13&#45;&gt;Node7 -->
<g id="edge18_Node000013_Node000007" class="edge">
<title>Node13&#45;&gt;Node7</title>
<g id="a_edge18_Node000013_Node000007"><a xlink:title=" ">
<path fill="none" stroke="#63b8ff" d="M1111.38,-180.22C1120.05,-167.5 1131.21,-151.12 1138.17,-140.9"/>
<polygon fill="#63b8ff" stroke="#63b8ff" points="1108.08,-177.84 1105.34,-188.08 1113.86,-181.79 1108.08,-177.84"/>
</a>
</g>
</g>
<!-- Node13&#45;&gt;Node8 -->
<g id="edge16_Node000013_Node000008" class="edge">
<title>Node13&#45;&gt;Node8</title>
<g id="a_edge16_Node000013_Node000008"><a xlink:title=" ">
<path fill="none" stroke="#63b8ff" d="M1084.15,-180.41C1061.72,-152.24 1019.59,-99.33 1002.37,-77.7"/>
<polygon fill="#63b8ff" stroke="#63b8ff" points="1081.97,-182.29 1090.93,-187.93 1087.44,-177.93 1081.97,-182.29"/>
</a>
</g>
</g>
<!-- Node13&#45;&gt;Node11 -->
<g id="edge17_Node000013_Node000011" class="edge">
<title>Node13&#45;&gt;Node11</title>
<g id="a_edge17_Node000013_Node000011"><a xlink:title=" ">
<path fill="none" stroke="#63b8ff" d="M1142.68,-185.4C1167.67,-176.66 1198.85,-163.74 1223.75,-147 1253.64,-126.91 1281.48,-94.08 1294.32,-77.85"/>
<polygon fill="#63b8ff" stroke="#63b8ff" points="1141.73,-182.37 1133.39,-188.89 1143.98,-189 1141.73,-182.37"/>
</a>
</g>
</g>
<!-- Node14 -->
<g id="Node000014" class="node">
<title>Node14</title>
<g id="a_Node000014"><a xlink:href="Parser_8cpp.html" target="_top" xlink:title="Implémentation des fonctions de parsing des configurations pour la caméra, primitives,...">
<polygon fill="white" stroke="#666666" points="1019,-140.62 902.5,-140.62 902.5,-119.88 1019,-119.88 1019,-140.62"/>
<text text-anchor="middle" x="960.75" y="-127.12" font-family="Helvetica,sans-Serif" font-size="10.00">src/parser/Parser.cpp</text>
</a>
</g>
</g>
<!-- Node13&#45;&gt;Node14 -->
<g id="edge19_Node000013_Node000014" class="edge">
<title>Node13&#45;&gt;Node14</title>
<g id="a_edge19_Node000013_Node000014"><a xlink:title=" ">
<path fill="none" stroke="#63b8ff" d="M1069.1,-184.25C1042.46,-171.22 1004.05,-152.43 980.84,-141.08"/>
<polygon fill="#63b8ff" stroke="#63b8ff" points="1067.16,-187.69 1077.68,-188.93 1070.24,-181.4 1067.16,-187.69"/>
</a>
</g>
</g>
<!-- Node16 -->
<g id="Node000016" class="node">
<title>Node16</title>
<g id="a_Node000016"><a xlink:href="Factory_8hpp.html" target="_top" xlink:title=" ">
<polygon fill="white" stroke="#666666" points="1447.38,-216.5 1318.12,-216.5 1318.12,-183 1447.38,-183 1447.38,-216.5"/>
<text text-anchor="start" x="1326.12" y="-203" font-family="Helvetica,sans-Serif" font-size="10.00">src/core/designPatterns</text>
<text text-anchor="middle" x="1382.75" y="-190.25" font-family="Helvetica,sans-Serif" font-size="10.00">/Factory.hpp</text>
</a>
</g>
</g>
<!-- Node15&#45;&gt;Node16 -->
<g id="edge21_Node000015_Node000016" class="edge">
<title>Node15&#45;&gt;Node16</title>
<g id="a_edge21_Node000015_Node000016"><a xlink:title=" ">
<path fill="none" stroke="#63b8ff" d="M1048.41,-427C1088.28,-381.68 1191.84,-264.92 1211.75,-252.5 1229.78,-241.26 1277.48,-227.23 1317.94,-216.61"/>
<polygon fill="#63b8ff" stroke="#63b8ff" points="1045.3,-424.24 1041.33,-434.07 1050.56,-428.86 1045.3,-424.24"/>
</a>
</g>
</g>
<!-- Node18 -->
<g id="Node000018" class="node">
<title>Node18</title>
<g id="a_Node000018"><a xlink:href="World_8hpp.html" target="_top" xlink:title=" ">
<polygon fill="white" stroke="#666666" points="1366.25,-399.5 1221.25,-399.5 1221.25,-378.75 1366.25,-378.75 1366.25,-399.5"/>
<text text-anchor="middle" x="1293.75" y="-386" font-family="Helvetica,sans-Serif" font-size="10.00">src/core/helpers/World.hpp</text>
</a>
</g>
</g>
<!-- Node15&#45;&gt;Node18 -->
<g id="edge24_Node000015_Node000018" class="edge">
<title>Node15&#45;&gt;Node18</title>
<g id="a_edge24_Node000015_Node000018"><a xlink:title=" ">
<path fill="none" stroke="#63b8ff" d="M1090.33,-432.8C1137.31,-422.94 1202.86,-409.19 1246.72,-399.99"/>
<polygon fill="#63b8ff" stroke="#63b8ff" points="1089.78,-429.55 1080.71,-435.02 1091.22,-436.4 1089.78,-429.55"/>
</a>
</g>
</g>
<!-- Node19 -->
<g id="Node000019" class="node">
<title>Node19</title>
<g id="a_Node000019"><a xlink:href="ILight_8hpp.html" target="_top" xlink:title=" ">
<polygon fill="white" stroke="#666666" points="1399.38,-342.75 1288.12,-342.75 1288.12,-322 1399.38,-322 1399.38,-342.75"/>
<text text-anchor="middle" x="1343.75" y="-329.25" font-family="Helvetica,sans-Serif" font-size="10.00">src/lights/ILight.hpp</text>
</a>
</g>
</g>
<!-- Node15&#45;&gt;Node19 -->
<g id="edge36_Node000015_Node000019" class="edge">
<title>Node15&#45;&gt;Node19</title>
<g id="a_edge36_Node000015_Node000019"><a xlink:title=" ">
<path fill="none" stroke="#63b8ff" d="M1120.95,-439.17C1216.97,-432.05 1359.14,-418.45 1375.75,-399.5 1390.88,-382.24 1368.91,-356.56 1354.54,-342.83"/>
<polygon fill="#63b8ff" stroke="#63b8ff" points="1120.79,-435.75 1111.07,-439.97 1121.3,-442.73 1120.79,-435.75"/>
</a>
</g>
</g>
<!-- Node24 -->
<g id="Node000024" class="node">
<title>Node24</title>
<g id="a_Node000024"><a xlink:href="Cone_8hpp.html" target="_top" xlink:title=" ">
<polygon fill="white" stroke="#666666" points="1022.25,-286 913.25,-286 913.25,-252.5 1022.25,-252.5 1022.25,-286"/>
<text text-anchor="start" x="921.25" y="-272.5" font-family="Helvetica,sans-Serif" font-size="10.00">src/primitives/cone</text>
<text text-anchor="middle" x="967.75" y="-259.75" font-family="Helvetica,sans-Serif" font-size="10.00">/Cone.hpp</text>
</a>
</g>
</g>
<!-- Node15&#45;&gt;Node24 -->
<g id="edge37_Node000015_Node000024" class="edge">
<title>Node15&#45;&gt;Node24</title>
<g id="a_edge37_Node000015_Node000024"><a xlink:title=" ">
<path fill="none" stroke="#63b8ff" d="M1025.48,-425.35C1012.54,-390.58 985.73,-318.54 973.75,-286.38"/>
<polygon fill="#63b8ff" stroke="#63b8ff" points="1022.39,-426.09 1029.16,-434.24 1028.95,-423.64 1022.39,-426.09"/>
</a>
</g>
</g>
<!-- Node26 -->
<g id="Node000026" class="node">
<title>Node26</title>
<g id="a_Node000026"><a xlink:href="Cylinder_8hpp.html" target="_top" xlink:title=" ">
<polygon fill="white" stroke="#666666" points="1165.12,-286 1040.38,-286 1040.38,-252.5 1165.12,-252.5 1165.12,-286"/>
<text text-anchor="start" x="1048.38" y="-272.5" font-family="Helvetica,sans-Serif" font-size="10.00">src/primitives/cylinder</text>
<text text-anchor="middle" x="1102.75" y="-259.75" font-family="Helvetica,sans-Serif" font-size="10.00">/Cylinder.hpp</text>
</a>
</g>
</g>
<!-- Node15&#45;&gt;Node26 -->
<g id="edge41_Node000015_Node000026" class="edge">
<title>Node15&#45;&gt;Node26</title>
<g id="a_edge41_Node000015_Node000026"><a xlink:title=" ">
<path fill="none" stroke="#63b8ff" d="M1040.58,-425.35C1054.52,-390.58 1083.39,-318.54 1096.29,-286.38"/>
<polygon fill="#63b8ff" stroke="#63b8ff" points="1037.09,-423.65 1036.61,-434.24 1043.58,-426.26 1037.09,-423.65"/>
</a>
</g>
</g>
<!-- Node28 -->
<g id="Node000028" class="node">
<title>Node28</title>
<g id="a_Node000028"><a xlink:href="Plane_8hpp.html" target="_top" xlink:title=" ">
<polygon fill="white" stroke="#666666" points="661.12,-286 548.38,-286 548.38,-252.5 661.12,-252.5 661.12,-286"/>
<text text-anchor="start" x="556.38" y="-272.5" font-family="Helvetica,sans-Serif" font-size="10.00">src/primitives/plane</text>
<text text-anchor="middle" x="604.75" y="-259.75" font-family="Helvetica,sans-Serif" font-size="10.00">/Plane.hpp</text>
</a>
</g>
</g>
<!-- Node15&#45;&gt;Node28 -->
<g id="edge45_Node000015_Node000028" class="edge">
<title>Node15&#45;&gt;Node28</title>
<g id="a_edge45_Node000015_Node000028"><a xlink:title=" ">
<path fill="none" stroke="#63b8ff" d="M999.02,-431.11C920.96,-399.26 728.15,-320.6 644.52,-286.47"/>
<polygon fill="#63b8ff" stroke="#63b8ff" points="997.24,-434.58 1007.82,-435.11 999.88,-428.09 997.24,-434.58"/>
</a>
</g>
</g>
<!-- Node32 -->
<g id="Node000032" class="node">
<title>Node32</title>
<g id="a_Node000032"><a xlink:href="Sphere_8hpp.html" target="_top" xlink:title=" ">
<polygon fill="white" stroke="#666666" points="876.12,-286 757.38,-286 757.38,-252.5 876.12,-252.5 876.12,-286"/>
<text text-anchor="start" x="765.38" y="-272.5" font-family="Helvetica,sans-Serif" font-size="10.00">src/primitives/sphere</text>
<text text-anchor="middle" x="816.75" y="-259.75" font-family="Helvetica,sans-Serif" font-size="10.00">/Sphere.hpp</text>
</a>
</g>
</g>
<!-- Node15&#45;&gt;Node32 -->
<g id="edge55_Node000015_Node000032" class="edge">
<title>Node15&#45;&gt;Node32</title>
<g id="a_edge55_Node000015_Node000032"><a xlink:title=" ">
<path fill="none" stroke="#63b8ff" d="M1012.38,-428.41C971.03,-394.98 877.69,-319.52 836.7,-286.38"/>
<polygon fill="#63b8ff" stroke="#63b8ff" points="1009.85,-431.67 1019.83,-435.24 1014.25,-426.23 1009.85,-431.67"/>
</a>
</g>
</g>
<!-- Node16&#45;&gt;Node7 -->
<g id="edge23_Node000016_Node000007" class="edge">
<title>Node16&#45;&gt;Node7</title>
<g id="a_edge23_Node000016_Node000007"><a xlink:title=" ">
<path fill="none" stroke="#63b8ff" d="M1315.35,-179.63C1271.11,-167.09 1215.07,-151.19 1179.55,-141.12"/>
<polygon fill="#63b8ff" stroke="#63b8ff" points="1314.17,-183.22 1324.74,-182.58 1316.08,-176.49 1314.17,-183.22"/>
</a>
</g>
</g>
<!-- Node17 -->
<g id="Node000017" class="node">
<title>Node17</title>
<g id="a_Node000017"><a xlink:href="Factory_8cpp.html" target="_top" xlink:title=" ">
<polygon fill="white" stroke="#666666" points="1447.38,-147 1318.12,-147 1318.12,-113.5 1447.38,-113.5 1447.38,-147"/>
<text text-anchor="start" x="1326.12" y="-133.5" font-family="Helvetica,sans-Serif" font-size="10.00">src/core/designPatterns</text>
<text text-anchor="middle" x="1382.75" y="-120.75" font-family="Helvetica,sans-Serif" font-size="10.00">/Factory.cpp</text>
</a>
</g>
</g>
<!-- Node16&#45;&gt;Node17 -->
<g id="edge22_Node000016_Node000017" class="edge">
<title>Node16&#45;&gt;Node17</title>
<g id="a_edge22_Node000016_Node000017"><a xlink:title=" ">
<path fill="none" stroke="#63b8ff" d="M1382.75,-171.89C1382.75,-163.5 1382.75,-154.51 1382.75,-147.13"/>
<polygon fill="#63b8ff" stroke="#63b8ff" points="1379.25,-171.75 1382.75,-181.75 1386.25,-171.75 1379.25,-171.75"/>
</a>
</g>
</g>
<!-- Node18&#45;&gt;Node19 -->
<g id="edge25_Node000018_Node000019" class="edge">
<title>Node18&#45;&gt;Node19</title>
<g id="a_edge25_Node000018_Node000019"><a xlink:title=" ">
<path fill="none" stroke="#63b8ff" d="M1304.13,-369.74C1311.59,-360.81 1321.42,-350.45 1329.59,-343.08"/>
<polygon fill="#63b8ff" stroke="#63b8ff" points="1300.8,-367.31 1297.37,-377.34 1306.3,-371.63 1300.8,-367.31"/>
</a>
</g>
</g>
<!-- Node19&#45;&gt;Node16 -->
<g id="edge26_Node000019_Node000016" class="edge">
<title>Node19&#45;&gt;Node16</title>
<g id="a_edge26_Node000019_Node000016"><a xlink:title=" ">
<path fill="none" stroke="#63b8ff" d="M1410.16,-320.24C1447.4,-312.5 1488.57,-300.9 1499.75,-286 1508.69,-274.09 1507.87,-264.98 1499.75,-252.5 1487.87,-234.26 1467.94,-222.4 1447.87,-214.71"/>
<polygon fill="#63b8ff" stroke="#63b8ff" points="1409.91,-316.93 1400.79,-322.33 1411.28,-323.79 1409.91,-316.93"/>
</a>
</g>
</g>
<!-- Node19&#45;&gt;Node18 -->
<g id="edge27_Node000019_Node000018" class="edge">
<title>Node19&#45;&gt;Node18</title>
<g id="a_edge27_Node000019_Node000018"><a xlink:title=" ">
<path fill="none" stroke="#63b8ff" d="M1333.46,-351.66C1326.01,-360.57 1316.18,-370.94 1308,-378.34"/>
<polygon fill="#63b8ff" stroke="#63b8ff" points="1336.77,-354.11 1340.19,-344.08 1331.26,-349.79 1336.77,-354.11"/>
</a>
</g>
</g>
<!-- Node20 -->
<g id="Node000020" class="node">
<title>Node20</title>
<g id="a_Node000020"><a xlink:href="DirectionalLight_8hpp.html" target="_top" xlink:title=" ">
<polygon fill="white" stroke="#666666" points="1490.25,-286 1351.25,-286 1351.25,-252.5 1490.25,-252.5 1490.25,-286"/>
<text text-anchor="start" x="1359.25" y="-272.5" font-family="Helvetica,sans-Serif" font-size="10.00">src/lights/directionalLight</text>
<text text-anchor="middle" x="1420.75" y="-259.75" font-family="Helvetica,sans-Serif" font-size="10.00">/DirectionalLight.hpp</text>
</a>
</g>
</g>
<!-- Node19&#45;&gt;Node20 -->
<g id="edge28_Node000019_Node000020" class="edge">
<title>Node19&#45;&gt;Node20</title>
<g id="a_edge28_Node000019_Node000020"><a xlink:title=" ">
<path fill="none" stroke="#63b8ff" d="M1364.73,-314.72C1375.79,-305.94 1389.31,-295.21 1400.3,-286.48"/>
<polygon fill="#63b8ff" stroke="#63b8ff" points="1362.78,-312.6 1357.12,-321.55 1367.13,-318.08 1362.78,-312.6"/>
</a>
</g>
</g>
<!-- Node22 -->
<g id="Node000022" class="node">
<title>Node22</title>
<g id="a_Node000022"><a xlink:href="PointLight_8hpp.html" target="_top" xlink:title=" ">
<polygon fill="white" stroke="#666666" points="1332.75,-286 1220.75,-286 1220.75,-252.5 1332.75,-252.5 1332.75,-286"/>
<text text-anchor="start" x="1228.75" y="-272.5" font-family="Helvetica,sans-Serif" font-size="10.00">src/lights/pointLight</text>
<text text-anchor="middle" x="1276.75" y="-259.75" font-family="Helvetica,sans-Serif" font-size="10.00">/PointLight.hpp</text>
</a>
</g>
</g>
<!-- Node19&#45;&gt;Node22 -->
<g id="edge32_Node000019_Node000022" class="edge">
<title>Node19&#45;&gt;Node22</title>
<g id="a_edge32_Node000019_Node000022"><a xlink:title=" ">
<path fill="none" stroke="#63b8ff" d="M1324.92,-314.19C1315.4,-305.51 1303.91,-295.03 1294.55,-286.48"/>
<polygon fill="#63b8ff" stroke="#63b8ff" points="1322.24,-316.4 1331.99,-320.55 1326.96,-311.23 1322.24,-316.4"/>
</a>
</g>
</g>
<!-- Node20&#45;&gt;Node13 -->
<g id="edge31_Node000020_Node000013" class="edge">
<title>Node20&#45;&gt;Node13</title>
<g id="a_edge31_Node000020_Node000013"><a xlink:title=" ">
<path fill="none" stroke="#63b8ff" d="M1340.28,-252.1C1278.78,-239.71 1199.23,-223.57 1166.75,-216.5 1158.22,-214.64 1149.12,-212.59 1140.43,-210.59"/>
<polygon fill="#63b8ff" stroke="#63b8ff" points="1339.26,-255.66 1349.76,-254.21 1340.65,-248.8 1339.26,-255.66"/>
</a>
</g>
</g>
<!-- Node20&#45;&gt;Node16 -->
<g id="edge29_Node000020_Node000016" class="edge">
<title>Node20&#45;&gt;Node16</title>
<g id="a_edge29_Node000020_Node000016"><a xlink:title=" ">
<path fill="none" stroke="#63b8ff" d="M1406.43,-242.81C1401.48,-234.02 1396.08,-224.43 1391.69,-216.63"/>
<polygon fill="#63b8ff" stroke="#63b8ff" points="1403.79,-244.26 1411.74,-251.25 1409.89,-240.82 1403.79,-244.26"/>
</a>
</g>
</g>
<!-- Node21 -->
<g id="Node000021" class="node">
<title>Node21</title>
<g id="a_Node000021"><a xlink:href="DirectionalLight_8cpp.html" target="_top" xlink:title=" ">
<polygon fill="white" stroke="#666666" points="1735.25,-216.5 1596.25,-216.5 1596.25,-183 1735.25,-183 1735.25,-216.5"/>
<text text-anchor="start" x="1604.25" y="-203" font-family="Helvetica,sans-Serif" font-size="10.00">src/lights/directionalLight</text>
<text text-anchor="middle" x="1665.75" y="-190.25" font-family="Helvetica,sans-Serif" font-size="10.00">/DirectionalLight.cpp</text>
</a>
</g>
</g>
<!-- Node20&#45;&gt;Node21 -->
<g id="edge30_Node000020_Node000021" class="edge">
<title>Node20&#45;&gt;Node21</title>
<g id="a_edge30_Node000020_Node000021"><a xlink:title=" ">
<path fill="none" stroke="#63b8ff" d="M1489.64,-249.27C1526.66,-239.07 1571.81,-226.63 1607.12,-216.9"/>
<polygon fill="#63b8ff" stroke="#63b8ff" points="1489.14,-246.05 1480.43,-252.08 1491,-252.8 1489.14,-246.05"/>
</a>
</g>
</g>
<!-- Node22&#45;&gt;Node13 -->
<g id="edge35_Node000022_Node000013" class="edge">
<title>Node22&#45;&gt;Node13</title>
<g id="a_edge35_Node000022_Node000013"><a xlink:title=" ">
<path fill="none" stroke="#63b8ff" d="M1224.23,-248.34C1191.49,-235.92 1150.78,-220.48 1124.78,-210.62"/>
<polygon fill="#63b8ff" stroke="#63b8ff" points="1222.52,-251.81 1233.11,-252.08 1225.01,-245.26 1222.52,-251.81"/>
</a>
</g>
</g>
<!-- Node22&#45;&gt;Node16 -->
<g id="edge33_Node000022_Node000016" class="edge">
<title>Node22&#45;&gt;Node16</title>
<g id="a_edge33_Node000022_Node000016"><a xlink:title=" ">
<path fill="none" stroke="#63b8ff" d="M1311.19,-246.32C1326.3,-236.7 1343.71,-225.61 1357.57,-216.79"/>
<polygon fill="#63b8ff" stroke="#63b8ff" points="1309.69,-243.76 1303.14,-252.08 1313.45,-249.66 1309.69,-243.76"/>
</a>
</g>
</g>
<!-- Node23 -->
<g id="Node000023" class="node">
<title>Node23</title>
<g id="a_Node000023"><a xlink:href="PointLight_8cpp.html" target="_top" xlink:title=" ">
<polygon fill="white" stroke="#666666" points="1577.75,-216.5 1465.75,-216.5 1465.75,-183 1577.75,-183 1577.75,-216.5"/>
<text text-anchor="start" x="1473.75" y="-203" font-family="Helvetica,sans-Serif" font-size="10.00">src/lights/pointLight</text>
<text text-anchor="middle" x="1521.75" y="-190.25" font-family="Helvetica,sans-Serif" font-size="10.00">/PointLight.cpp</text>
</a>
</g>
</g>
<!-- Node22&#45;&gt;Node23 -->
<g id="edge34_Node000022_Node000023" class="edge">
<title>Node22&#45;&gt;Node23</title>
<g id="a_edge34_Node000022_Node000023"><a xlink:title=" ">
<path fill="none" stroke="#63b8ff" d="M1343.47,-249.87C1381.67,-239.34 1429.06,-226.29 1465.38,-216.28"/>
<polygon fill="#63b8ff" stroke="#63b8ff" points="1342.67,-246.73 1333.96,-252.76 1344.53,-253.48 1342.67,-246.73"/>
</a>
</g>
</g>
<!-- Node24&#45;&gt;Node13 -->
<g id="edge39_Node000024_Node000013" class="edge">
<title>Node24&#45;&gt;Node13</title>
<g id="a_edge39_Node000024_Node000013"><a xlink:title=" ">
<path fill="none" stroke="#63b8ff" d="M1008.63,-247.19C1032.4,-234.94 1061.24,-220.08 1079.79,-210.52"/>
<polygon fill="#63b8ff" stroke="#63b8ff" points="1007.41,-244.39 1000.13,-252.08 1010.62,-250.61 1007.41,-244.39"/>
</a>
</g>
</g>
<!-- Node24&#45;&gt;Node16 -->
<g id="edge38_Node000024_Node000016" class="edge">
<title>Node24&#45;&gt;Node16</title>
<g id="a_edge38_Node000024_Node000016"><a xlink:title=" ">
<path fill="none" stroke="#63b8ff" d="M1033.03,-252.4C1155.62,-230.04 1189.73,-236.87 1308.75,-216.5 1311.73,-215.99 1314.77,-215.45 1317.83,-214.88"/>
<polygon fill="#63b8ff" stroke="#63b8ff" points="1032.67,-249.09 1023.47,-254.35 1033.95,-255.97 1032.67,-249.09"/>
</a>
</g>
</g>
<!-- Node25 -->
<g id="Node000025" class="node">
<title>Node25</title>
<g id="a_Node000025"><a xlink:href="Cone_8cpp.html" target="_top" xlink:title=" ">
<polygon fill="white" stroke="#666666" points="1022.25,-216.5 913.25,-216.5 913.25,-183 1022.25,-183 1022.25,-216.5"/>
<text text-anchor="start" x="921.25" y="-203" font-family="Helvetica,sans-Serif" font-size="10.00">src/primitives/cone</text>
<text text-anchor="middle" x="967.75" y="-190.25" font-family="Helvetica,sans-Serif" font-size="10.00">/Cone.cpp</text>
</a>
</g>
</g>
<!-- Node24&#45;&gt;Node25 -->
<g id="edge40_Node000024_Node000025" class="edge">
<title>Node24&#45;&gt;Node25</title>
<g id="a_edge40_Node000024_Node000025"><a xlink:title=" ">
<path fill="none" stroke="#63b8ff" d="M967.75,-241.39C967.75,-233 967.75,-224.01 967.75,-216.63"/>
<polygon fill="#63b8ff" stroke="#63b8ff" points="964.25,-241.25 967.75,-251.25 971.25,-241.25 964.25,-241.25"/>
</a>
</g>
</g>
<!-- Node26&#45;&gt;Node13 -->
<g id="edge43_Node000026_Node000013" class="edge">
<title>Node26&#45;&gt;Node13</title>
<g id="a_edge43_Node000026_Node000013"><a xlink:title=" ">
<path fill="none" stroke="#63b8ff" d="M1101.16,-241.47C1100.52,-230.58 1099.81,-218.68 1099.33,-210.57"/>
<polygon fill="#63b8ff" stroke="#63b8ff" points="1097.72,-241.48 1101.8,-251.25 1104.7,-241.06 1097.72,-241.48"/>
</a>
</g>
</g>
<!-- Node26&#45;&gt;Node16 -->
<g id="edge42_Node000026_Node000016" class="edge">
<title>Node26&#45;&gt;Node16</title>
<g id="a_edge42_Node000026_Node000016"><a xlink:title=" ">
<path fill="none" stroke="#63b8ff" d="M1176.2,-250.54C1220.1,-239.96 1275.37,-226.64 1317.69,-216.43"/>
<polygon fill="#63b8ff" stroke="#63b8ff" points="1175.49,-247.36 1166.59,-253.1 1177.13,-254.16 1175.49,-247.36"/>
</a>
</g>
</g>
<!-- Node27 -->
<g id="Node000027" class="node">
<title>Node27</title>
<g id="a_Node000027"><a xlink:href="Cylinder_8cpp.html" target="_top" xlink:title=" ">
<polygon fill="white" stroke="#666666" points="1300.12,-216.5 1175.38,-216.5 1175.38,-183 1300.12,-183 1300.12,-216.5"/>
<text text-anchor="start" x="1183.38" y="-203" font-family="Helvetica,sans-Serif" font-size="10.00">src/primitives/cylinder</text>
<text text-anchor="middle" x="1237.75" y="-190.25" font-family="Helvetica,sans-Serif" font-size="10.00">/Cylinder.cpp</text>
</a>
</g>
</g>
<!-- Node26&#45;&gt;Node27 -->
<g id="edge44_Node000026_Node000027" class="edge">
<title>Node26&#45;&gt;Node27</title>
<g id="a_edge44_Node000026_Node000027"><a xlink:title=" ">
<path fill="none" stroke="#63b8ff" d="M1144.72,-247.26C1164.39,-237.43 1187.44,-225.91 1205.68,-216.79"/>
<polygon fill="#63b8ff" stroke="#63b8ff" points="1143.46,-244.48 1136.09,-252.08 1146.6,-250.74 1143.46,-244.48"/>
</a>
</g>
</g>
<!-- Node28&#45;&gt;Node4 -->
<g id="edge50_Node000028_Node000004" class="edge">
<title>Node28&#45;&gt;Node4</title>
<g id="a_edge50_Node000028_Node000004"><a xlink:title=" ">
<path fill="none" stroke="#63b8ff" d="M546.69,-248.66C509.74,-236.19 463.46,-220.57 433.99,-210.62"/>
<polygon fill="#63b8ff" stroke="#63b8ff" points="545.25,-252.2 555.85,-252.08 547.49,-245.57 545.25,-252.2"/>
</a>
</g>
</g>
<!-- Node28&#45;&gt;Node6 -->
<g id="edge51_Node000028_Node000006" class="edge">
<title>Node28&#45;&gt;Node6</title>
<g id="a_edge51_Node000028_Node000006"><a xlink:title=" ">
<path fill="none" stroke="#63b8ff" d="M545.14,-247.37C530.19,-239.68 515.39,-229.55 504.75,-216.5 486.39,-193.97 482.06,-158.24 481.05,-141.08"/>
<polygon fill="#63b8ff" stroke="#63b8ff" points="543.42,-250.91 553.95,-252.08 546.45,-244.6 543.42,-250.91"/>
</a>
</g>
</g>
<!-- Node28&#45;&gt;Node13 -->
<g id="edge53_Node000028_Node000013" class="edge">
<title>Node28&#45;&gt;Node13</title>
<g id="a_edge53_Node000028_Node000013"><a xlink:title=" ">
<path fill="none" stroke="#63b8ff" d="M672.26,-260.48C783.68,-247.6 997.24,-222.63 1031.75,-216.5 1041.04,-214.85 1050.98,-212.72 1060.28,-210.56"/>
<polygon fill="#63b8ff" stroke="#63b8ff" points="672.01,-257.1 662.48,-261.73 672.82,-264.06 672.01,-257.1"/>
</a>
</g>
</g>
<!-- Node28&#45;&gt;Node16 -->
<g id="edge52_Node000028_Node000016" class="edge">
<title>Node28&#45;&gt;Node16</title>
<g id="a_edge52_Node000028_Node000016"><a xlink:title=" ">
<path fill="none" stroke="#63b8ff" d="M672.28,-260.23C696.39,-257.54 723.76,-254.67 748.75,-252.5 997.22,-230.94 1061.68,-250.55 1308.75,-216.5 1311.74,-216.09 1314.8,-215.62 1317.87,-215.12"/>
<polygon fill="#63b8ff" stroke="#63b8ff" points="672,-256.85 662.46,-261.46 672.79,-263.81 672,-256.85"/>
</a>
</g>
</g>
<!-- Node29 -->
<g id="Node000029" class="node">
<title>Node29</title>
<g id="a_Node000029"><a xlink:href="Primitive__fact_8cpp.html" target="_top" xlink:title=" ">
<polygon fill="white" stroke="#666666" points="720,-140.62 585.5,-140.62 585.5,-119.88 720,-119.88 720,-140.62"/>
<text text-anchor="middle" x="652.75" y="-127.12" font-family="Helvetica,sans-Serif" font-size="10.00">paser/Primitive_fact.cpp</text>
</a>
</g>
</g>
<!-- Node28&#45;&gt;Node29 -->
<g id="edge46_Node000028_Node000029" class="edge">
<title>Node28&#45;&gt;Node29</title>
<g id="a_edge46_Node000028_Node000029"><a xlink:title=" ">
<path fill="none" stroke="#63b8ff" d="M585.76,-243.21C574.99,-225.74 565.52,-202.21 575.75,-183 586.43,-162.96 608.7,-149.29 626.56,-141.06"/>
<polygon fill="#63b8ff" stroke="#63b8ff" points="583.31,-244.84 591.76,-251.22 589.14,-240.96 583.31,-244.84"/>
</a>
</g>
</g>
<!-- Node30 -->
<g id="Node000030" class="node">
<title>Node30</title>
<g id="a_Node000030"><a xlink:href="Primitive__fact_8hpp.html" target="_top" xlink:title=" ">
<polygon fill="white" stroke="#666666" points="720.38,-210.12 585.12,-210.12 585.12,-189.38 720.38,-189.38 720.38,-210.12"/>
<text text-anchor="middle" x="652.75" y="-196.62" font-family="Helvetica,sans-Serif" font-size="10.00">paser/Primitive_fact.hpp</text>
</a>
</g>
</g>
<!-- Node28&#45;&gt;Node30 -->
<g id="edge47_Node000028_Node000030" class="edge">
<title>Node28&#45;&gt;Node30</title>
<g id="a_edge47_Node000028_Node000030"><a xlink:title=" ">
<path fill="none" stroke="#63b8ff" d="M622.33,-243.52C630.46,-232.1 639.64,-219.19 645.77,-210.57"/>
<polygon fill="#63b8ff" stroke="#63b8ff" points="619.07,-241.08 616.13,-251.25 624.77,-245.13 619.07,-241.08"/>
</a>
</g>
</g>
<!-- Node31 -->
<g id="Node000031" class="node">
<title>Node31</title>
<g id="a_Node000031"><a xlink:href="Plane_8cpp.html" target="_top" xlink:title=" ">
<polygon fill="white" stroke="#666666" points="338.12,-216.5 225.38,-216.5 225.38,-183 338.12,-183 338.12,-216.5"/>
<text text-anchor="start" x="233.38" y="-203" font-family="Helvetica,sans-Serif" font-size="10.00">src/primitives/plane</text>
<text text-anchor="middle" x="281.75" y="-190.25" font-family="Helvetica,sans-Serif" font-size="10.00">/Plane.cpp</text>
</a>
</g>
</g>
<!-- Node28&#45;&gt;Node31 -->
<g id="edge54_Node000028_Node000031" class="edge">
<title>Node28&#45;&gt;Node31</title>
<g id="a_edge54_Node000028_Node000031"><a xlink:title=" ">
<path fill="none" stroke="#63b8ff" d="M537.23,-255.34C485.32,-245.24 411.87,-230.6 347.75,-216.5 344.76,-215.84 341.69,-215.16 338.6,-214.45"/>
<polygon fill="#63b8ff" stroke="#63b8ff" points="536.49,-258.95 546.97,-257.42 537.82,-252.08 536.49,-258.95"/>
</a>
</g>
</g>
<!-- Node30&#45;&gt;Node5 -->
<g id="edge49_Node000030_Node000005" class="edge">
<title>Node30&#45;&gt;Node5</title>
<g id="a_edge49_Node000030_Node000005"><a xlink:title=" ">
<path fill="none" stroke="#63b8ff" d="M628.1,-182.86C613.01,-172.92 593.46,-159.64 576.75,-147 558.25,-133.01 556.23,-126.08 536.75,-113.5 514.37,-99.05 486.7,-86.23 467.19,-77.94"/>
<polygon fill="#63b8ff" stroke="#63b8ff" points="626.01,-186.33 636.3,-188.88 629.84,-180.47 626.01,-186.33"/>
</a>
</g>
</g>
<!-- Node30&#45;&gt;Node29 -->
<g id="edge48_Node000030_Node000029" class="edge">
<title>Node30&#45;&gt;Node29</title>
<g id="a_edge48_Node000030_Node000029"><a xlink:title=" ">
<path fill="none" stroke="#63b8ff" d="M652.75,-178.33C652.75,-165.91 652.75,-150.62 652.75,-140.9"/>
<polygon fill="#63b8ff" stroke="#63b8ff" points="649.25,-178.08 652.75,-188.08 656.25,-178.08 649.25,-178.08"/>
</a>
</g>
</g>
<!-- Node32&#45;&gt;Node4 -->
<g id="edge58_Node000032_Node000004" class="edge">
<title>Node32&#45;&gt;Node4</title>
<g id="a_edge58_Node000032_Node000004"><a xlink:title=" ">
<path fill="none" stroke="#63b8ff" d="M746.62,-256.76C663.12,-243.08 525.85,-220.59 453.26,-208.7"/>
<polygon fill="#63b8ff" stroke="#63b8ff" points="745.85,-260.34 756.28,-258.51 746.98,-253.44 745.85,-260.34"/>
</a>
</g>
</g>
<!-- Node32&#45;&gt;Node6 -->
<g id="edge59_Node000032_Node000006" class="edge">
<title>Node32&#45;&gt;Node6</title>
<g id="a_edge59_Node000032_Node000006"><a xlink:title=" ">
<path fill="none" stroke="#63b8ff" d="M746.25,-262.79C696.4,-256.68 629.21,-243.75 575.75,-216.5 537.84,-197.18 503.36,-158.89 488.49,-140.95"/>
<polygon fill="#63b8ff" stroke="#63b8ff" points="745.59,-266.35 755.93,-264.03 746.4,-259.4 745.59,-266.35"/>
</a>
</g>
</g>
<!-- Node32&#45;&gt;Node13 -->
<g id="edge61_Node000032_Node000013" class="edge">
<title>Node32&#45;&gt;Node13</title>
<g id="a_edge61_Node000032_Node000013"><a xlink:title=" ">
<path fill="none" stroke="#63b8ff" d="M887.04,-251.42C940.8,-238.56 1013.04,-221.27 1057.72,-210.57"/>
<polygon fill="#63b8ff" stroke="#63b8ff" points="886.47,-248.2 877.55,-253.93 888.1,-255.01 886.47,-248.2"/>
</a>
</g>
</g>
<!-- Node32&#45;&gt;Node16 -->
<g id="edge60_Node000032_Node000016" class="edge">
<title>Node32&#45;&gt;Node16</title>
<g id="a_edge60_Node000032_Node000016"><a xlink:title=" ">
<path fill="none" stroke="#63b8ff" d="M887.03,-255.1C893.01,-254.16 898.98,-253.27 904.75,-252.5 1083.43,-228.6 1130.49,-243.31 1308.75,-216.5 1311.74,-216.05 1314.79,-215.55 1317.86,-215.02"/>
<polygon fill="#63b8ff" stroke="#63b8ff" points="886.59,-251.79 877.28,-256.86 887.72,-258.7 886.59,-251.79"/>
</a>
</g>
</g>
<!-- Node32&#45;&gt;Node29 -->
<g id="edge56_Node000032_Node000029" class="edge">
<title>Node32&#45;&gt;Node29</title>
<g id="a_edge56_Node000032_Node000029"><a xlink:title=" ">
<path fill="none" stroke="#63b8ff" d="M844.93,-245.13C863.23,-227.31 881.07,-202.49 865.75,-183 847.82,-160.19 775.66,-146.19 720.25,-138.6"/>
<polygon fill="#63b8ff" stroke="#63b8ff" points="843.13,-241.96 838.15,-251.31 847.88,-247.1 843.13,-241.96"/>
</a>
</g>
</g>
<!-- Node32&#45;&gt;Node30 -->
<g id="edge57_Node000032_Node000030" class="edge">
<title>Node32&#45;&gt;Node30</title>
<g id="a_edge57_Node000032_Node000030"><a xlink:title=" ">
<path fill="none" stroke="#63b8ff" d="M767.55,-248C737.42,-235.6 700.22,-220.29 676.49,-210.52"/>
<polygon fill="#63b8ff" stroke="#63b8ff" points="765.89,-251.51 776.47,-252.08 768.55,-245.04 765.89,-251.51"/>
</a>
</g>
</g>
<!-- Node33 -->
<g id="Node000033" class="node">
<title>Node33</title>
<g id="a_Node000033"><a xlink:href="Sphere_8cpp.html" target="_top" xlink:title=" ">
<polygon fill="white" stroke="#666666" points="857.12,-216.5 738.38,-216.5 738.38,-183 857.12,-183 857.12,-216.5"/>
<text text-anchor="start" x="746.38" y="-203" font-family="Helvetica,sans-Serif" font-size="10.00">src/primitives/sphere</text>
<text text-anchor="middle" x="797.75" y="-190.25" font-family="Helvetica,sans-Serif" font-size="10.00">/Sphere.cpp</text>
</a>
</g>
</g>
<!-- Node32&#45;&gt;Node33 -->
<g id="edge62_Node000032_Node000033" class="edge">
<title>Node32&#45;&gt;Node33</title>
<g id="a_edge62_Node000032_Node000033"><a xlink:title=" ">
<path fill="none" stroke="#63b8ff" d="M809.27,-241.67C806.88,-233.2 804.32,-224.1 802.22,-216.63"/>
<polygon fill="#63b8ff" stroke="#63b8ff" points="806.17,-242.58 812.25,-251.25 812.91,-240.68 806.17,-242.58"/>
</a>
</g>
</g>
</g>
</svg>
