<?xml version="1.0" encoding="UTF-8" standalone="no"?>
<!DOCTYPE svg PUBLIC "-//W3C//DTD SVG 1.1//EN"
 "http://www.w3.org/Graphics/SVG/1.1/DTD/svg11.dtd">
<!-- Generated by graphviz version 8.1.0 (20230707.0739)
 -->
<!-- Title: src/core/RayTracer.hpp Pages: 1 -->
<svg width="252pt" height="86pt"
 viewBox="0.00 0.00 252.12 85.50" xmlns="http://www.w3.org/2000/svg" xmlns:xlink="http://www.w3.org/1999/xlink">
<g id="graph0" class="graph" transform="scale(1 1) rotate(0) translate(4 81.5)">
<title>src/core/RayTracer.hpp</title>
<!-- Node1 -->
<g id="Node000001" class="node">
<title>Node1</title>
<g id="a_Node000001"><a xlink:title=" ">
<polygon fill="#999999" stroke="#666666" points="178.5,-77.5 53,-77.5 53,-56.75 178.5,-56.75 178.5,-77.5"/>
<text text-anchor="middle" x="115.75" y="-64" font-family="Helvetica,sans-Serif" font-size="10.00">src/core/RayTracer.hpp</text>
</a>
</g>
</g>
<!-- Node2 -->
<g id="Node000002" class="node">
<title>Node2</title>
<g id="a_Node000002"><a xlink:href="Main_8cpp.html" target="_top" xlink:title=" ">
<polygon fill="white" stroke="#666666" points="101.5,-20.75 0,-20.75 0,0 101.5,0 101.5,-20.75"/>
<text text-anchor="middle" x="50.75" y="-7.25" font-family="Helvetica,sans-Serif" font-size="10.00">src/core/Main.cpp</text>
</a>
</g>
</g>
<!-- Node1&#45;&gt;Node2 -->
<g id="edge1_Node000001_Node000002" class="edge">
<title>Node1&#45;&gt;Node2</title>
<g id="a_edge1_Node000001_Node000002"><a xlink:title=" ">
<path fill="none" stroke="#63b8ff" d="M95.91,-49.41C84.89,-40.13 71.58,-28.92 62.27,-21.08"/>
<polygon fill="#63b8ff" stroke="#63b8ff" points="93.23,-52.57 103.13,-56.34 97.74,-47.22 93.23,-52.57"/>
</a>
</g>
</g>
<!-- Node3 -->
<g id="Node000003" class="node">
<title>Node3</title>
<g id="a_Node000003"><a xlink:href="RayTracer_8cpp.html" target="_top" xlink:title=" ">
<polygon fill="white" stroke="#666666" points="244.12,-20.75 119.38,-20.75 119.38,0 244.12,0 244.12,-20.75"/>
<text text-anchor="middle" x="181.75" y="-7.25" font-family="Helvetica,sans-Serif" font-size="10.00">src/core/RayTracer.cpp</text>
</a>
</g>
</g>
<!-- Node1&#45;&gt;Node3 -->
<g id="edge2_Node000001_Node000003" class="edge">
<title>Node1&#45;&gt;Node3</title>
<g id="a_edge2_Node000001_Node000003"><a xlink:title=" ">
<path fill="none" stroke="#63b8ff" d="M135.9,-49.41C147.08,-40.13 160.6,-28.92 170.05,-21.08"/>
<polygon fill="#63b8ff" stroke="#63b8ff" points="134.01,-47.26 128.55,-56.34 138.48,-52.65 134.01,-47.26"/>
</a>
</g>
</g>
</g>
</svg>
