<?xml version="1.0" encoding="UTF-8" standalone="no"?>
<!DOCTYPE svg PUBLIC "-//W3C//DTD SVG 1.1//EN"
 "http://www.w3.org/Graphics/SVG/1.1/DTD/svg11.dtd">
<!-- Generated by graphviz version 8.1.0 (20230707.0739)
 -->
<!-- Title: src/core/helpers/Rectangle3D.hpp Pages: 1 -->
<svg width="852pt" height="325pt"
 viewBox="0.00 0.00 851.88 325.25" xmlns="http://www.w3.org/2000/svg" xmlns:xlink="http://www.w3.org/1999/xlink">
<g id="graph0" class="graph" transform="scale(1 1) rotate(0) translate(4 321.25)">
<title>src/core/helpers/Rectangle3D.hpp</title>
<!-- Node1 -->
<g id="Node000001" class="node">
<title>Node1</title>
<g id="a_Node000001"><a xlink:title=" ">
<polygon fill="#999999" stroke="#666666" points="226.25,-317.25 75.25,-317.25 75.25,-283.75 226.25,-283.75 226.25,-317.25"/>
<text text-anchor="start" x="83.25" y="-303.75" font-family="Helvetica,sans-Serif" font-size="10.00">src/core/helpers/Rectangle3</text>
<text text-anchor="middle" x="150.75" y="-291" font-family="Helvetica,sans-Serif" font-size="10.00">D.hpp</text>
</a>
</g>
</g>
<!-- Node2 -->
<g id="Node000002" class="node">
<title>Node2</title>
<g id="a_Node000002"><a xlink:href="Camera_8cpp.html" target="_top" xlink:title=" ">
<polygon fill="white" stroke="#666666" points="131.5,-191 0,-191 0,-170.25 131.5,-170.25 131.5,-191"/>
<text text-anchor="middle" x="65.75" y="-177.5" font-family="Helvetica,sans-Serif" font-size="10.00">src/camera/Camera.cpp</text>
</a>
</g>
</g>
<!-- Node1&#45;&gt;Node2 -->
<g id="edge1_Node000001_Node000002" class="edge">
<title>Node1&#45;&gt;Node2</title>
<g id="a_edge1_Node000001_Node000002"><a xlink:title=" ">
<path fill="none" stroke="#63b8ff" d="M132.9,-274.74C114.24,-248.87 85.9,-209.57 72.82,-191.43"/>
<polygon fill="#63b8ff" stroke="#63b8ff" points="130.6,-276.54 139.29,-282.6 136.28,-272.44 130.6,-276.54"/>
</a>
</g>
</g>
<!-- Node3 -->
<g id="Node000003" class="node">
<title>Node3</title>
<g id="a_Node000003"><a xlink:href="Camera_8hpp.html" target="_top" xlink:title=" ">
<polygon fill="white" stroke="#666666" points="282.88,-247.75 150.62,-247.75 150.62,-227 282.88,-227 282.88,-247.75"/>
<text text-anchor="middle" x="216.75" y="-234.25" font-family="Helvetica,sans-Serif" font-size="10.00">src/camera/Camera.hpp</text>
</a>
</g>
</g>
<!-- Node1&#45;&gt;Node3 -->
<g id="edge2_Node000001_Node000003" class="edge">
<title>Node1&#45;&gt;Node3</title>
<g id="a_edge2_Node000001_Node000003"><a xlink:title=" ">
<path fill="none" stroke="#63b8ff" d="M176.13,-276C186.54,-266.35 198.03,-255.71 206.12,-248.22"/>
<polygon fill="#63b8ff" stroke="#63b8ff" points="174.05,-273.08 169.09,-282.44 178.81,-278.21 174.05,-273.08"/>
</a>
</g>
</g>
<!-- Node3&#45;&gt;Node2 -->
<g id="edge8_Node000003_Node000002" class="edge">
<title>Node3&#45;&gt;Node2</title>
<g id="a_edge8_Node000003_Node000002"><a xlink:title=" ">
<path fill="none" stroke="#63b8ff" d="M179.56,-222.89C152.67,-213.14 116.96,-200.19 92.77,-191.42"/>
<polygon fill="#63b8ff" stroke="#63b8ff" points="178.16,-226.47 188.75,-226.59 180.55,-219.89 178.16,-226.47"/>
</a>
</g>
</g>
<!-- Node4 -->
<g id="Node000004" class="node">
<title>Node4</title>
<g id="a_Node000004"><a xlink:href="paser_2Scene_8hpp.html" target="_top" xlink:title=" ">
<polygon fill="white" stroke="#666666" points="283.88,-191 187.62,-191 187.62,-170.25 283.88,-170.25 283.88,-191"/>
<text text-anchor="middle" x="235.75" y="-177.5" font-family="Helvetica,sans-Serif" font-size="10.00">paser/Scene.hpp</text>
</a>
</g>
</g>
<!-- Node3&#45;&gt;Node4 -->
<g id="edge3_Node000003_Node000004" class="edge">
<title>Node3&#45;&gt;Node4</title>
<g id="a_edge3_Node000003_Node000004"><a xlink:title=" ">
<path fill="none" stroke="#63b8ff" d="M223.72,-216.28C226.68,-207.77 229.99,-198.24 232.38,-191.33"/>
<polygon fill="#63b8ff" stroke="#63b8ff" points="220.12,-214.99 220.15,-225.59 226.73,-217.29 220.12,-214.99"/>
</a>
</g>
</g>
<!-- Node5 -->
<g id="Node000005" class="node">
<title>Node5</title>
<g id="a_Node000005"><a xlink:href="parse_8cpp.html" target="_top" xlink:title=" ">
<polygon fill="white" stroke="#666666" points="244.38,-77.5 151.12,-77.5 151.12,-56.75 244.38,-56.75 244.38,-77.5"/>
<text text-anchor="middle" x="197.75" y="-64" font-family="Helvetica,sans-Serif" font-size="10.00">paser/parse.cpp</text>
</a>
</g>
</g>
<!-- Node3&#45;&gt;Node5 -->
<g id="edge7_Node000003_Node000005" class="edge">
<title>Node3&#45;&gt;Node5</title>
<g id="a_edge7_Node000003_Node000005"><a xlink:title=" ">
<path fill="none" stroke="#63b8ff" d="M197.27,-219.02C189.99,-211.26 182.56,-201.5 178.75,-191 164.08,-150.63 183.7,-98.77 193.16,-77.68"/>
<polygon fill="#63b8ff" stroke="#63b8ff" points="194.37,-221.06 203.94,-225.59 199.29,-216.08 194.37,-221.06"/>
</a>
</g>
</g>
<!-- Node7 -->
<g id="Node000007" class="node">
<title>Node7</title>
<g id="a_Node000007"><a xlink:href="src_2core_2scene_2Scene_8hpp.html" target="_top" xlink:title=" ">
<polygon fill="white" stroke="#666666" points="687.25,-134.25 548.25,-134.25 548.25,-113.5 687.25,-113.5 687.25,-134.25"/>
<text text-anchor="middle" x="617.75" y="-120.75" font-family="Helvetica,sans-Serif" font-size="10.00">src/core/scene/Scene.hpp</text>
</a>
</g>
</g>
<!-- Node3&#45;&gt;Node7 -->
<g id="edge9_Node000003_Node000007" class="edge">
<title>Node3&#45;&gt;Node7</title>
<g id="a_edge9_Node000003_Node000007"><a xlink:title=" ">
<path fill="none" stroke="#63b8ff" d="M294.09,-231.44C378.06,-225.1 506.03,-212.3 549.75,-191 576.99,-177.73 600.2,-149.37 611.1,-134.47"/>
<polygon fill="#63b8ff" stroke="#63b8ff" points="294.03,-228.01 284.31,-232.24 294.55,-234.99 294.03,-228.01"/>
</a>
</g>
</g>
<!-- Node13 -->
<g id="Node000013" class="node">
<title>Node13</title>
<g id="a_Node000013"><a xlink:href="Parser_8hpp.html" target="_top" xlink:title=" ">
<polygon fill="white" stroke="#666666" points="540.38,-191 423.12,-191 423.12,-170.25 540.38,-170.25 540.38,-191"/>
<text text-anchor="middle" x="481.75" y="-177.5" font-family="Helvetica,sans-Serif" font-size="10.00">src/parser/Parser.hpp</text>
</a>
</g>
</g>
<!-- Node3&#45;&gt;Node13 -->
<g id="edge15_Node000003_Node000013" class="edge">
<title>Node3&#45;&gt;Node13</title>
<g id="a_edge15_Node000003_Node000013"><a xlink:title=" ">
<path fill="none" stroke="#63b8ff" d="M274.92,-224.36C322.64,-214.5 389.37,-200.71 434,-191.49"/>
<polygon fill="#63b8ff" stroke="#63b8ff" points="274.52,-221.07 265.43,-226.52 275.93,-227.93 274.52,-221.07"/>
</a>
</g>
</g>
<!-- Node4&#45;&gt;Node5 -->
<g id="edge4_Node000004_Node000005" class="edge">
<title>Node4&#45;&gt;Node5</title>
<g id="a_edge4_Node000004_Node000005"><a xlink:title=" ">
<path fill="none" stroke="#63b8ff" d="M226.92,-159.95C223.53,-152.04 219.75,-142.79 216.75,-134.25 209.78,-114.42 203.41,-90.6 200.11,-77.65"/>
<polygon fill="#63b8ff" stroke="#63b8ff" points="224.12,-161.27 231.34,-169.02 230.53,-158.45 224.12,-161.27"/>
</a>
</g>
</g>
<!-- Node6 -->
<g id="Node000006" class="node">
<title>Node6</title>
<g id="a_Node000006"><a xlink:href="parse_8hpp.html" target="_top" xlink:title=" ">
<polygon fill="white" stroke="#666666" points="319.75,-134.25 225.75,-134.25 225.75,-113.5 319.75,-113.5 319.75,-134.25"/>
<text text-anchor="middle" x="272.75" y="-120.75" font-family="Helvetica,sans-Serif" font-size="10.00">paser/parse.hpp</text>
</a>
</g>
</g>
<!-- Node4&#45;&gt;Node6 -->
<g id="edge5_Node000004_Node000006" class="edge">
<title>Node4&#45;&gt;Node6</title>
<g id="a_edge5_Node000004_Node000006"><a xlink:title=" ">
<path fill="none" stroke="#63b8ff" d="M248.37,-160.96C254.35,-152.09 261.26,-141.87 266.19,-134.58"/>
<polygon fill="#63b8ff" stroke="#63b8ff" points="245.06,-158.59 242.36,-168.84 250.86,-162.51 245.06,-158.59"/>
</a>
</g>
</g>
<!-- Node6&#45;&gt;Node5 -->
<g id="edge6_Node000006_Node000005" class="edge">
<title>Node6&#45;&gt;Node5</title>
<g id="a_edge6_Node000006_Node000005"><a xlink:title=" ">
<path fill="none" stroke="#63b8ff" d="M250.61,-106.71C237.76,-97.33 221.99,-85.82 211.04,-77.83"/>
<polygon fill="#63b8ff" stroke="#63b8ff" points="248.2,-110.02 258.34,-113.09 252.33,-104.36 248.2,-110.02"/>
</a>
</g>
</g>
<!-- Node8 -->
<g id="Node000008" class="node">
<title>Node8</title>
<g id="a_Node000008"><a xlink:href="RayTracer_8hpp.html" target="_top" xlink:title=" ">
<polygon fill="white" stroke="#666666" points="529.5,-77.5 404,-77.5 404,-56.75 529.5,-56.75 529.5,-77.5"/>
<text text-anchor="middle" x="466.75" y="-64" font-family="Helvetica,sans-Serif" font-size="10.00">src/core/RayTracer.hpp</text>
</a>
</g>
</g>
<!-- Node7&#45;&gt;Node8 -->
<g id="edge10_Node000007_Node000008" class="edge">
<title>Node7&#45;&gt;Node8</title>
<g id="a_edge10_Node000007_Node000008"><a xlink:title=" ">
<path fill="none" stroke="#63b8ff" d="M580.56,-109.39C553.67,-99.64 517.96,-86.69 493.77,-77.92"/>
<polygon fill="#63b8ff" stroke="#63b8ff" points="579.16,-112.97 589.75,-113.09 581.55,-106.39 579.16,-112.97"/>
</a>
</g>
</g>
<!-- Node11 -->
<g id="Node000011" class="node">
<title>Node11</title>
<g id="a_Node000011"><a xlink:href="Image_8cpp.html" target="_top" xlink:title="Implémentation des méthodes de la classe Image pour gestion d&#39;image et affichage.">
<polygon fill="white" stroke="#666666" points="687.62,-77.5 547.88,-77.5 547.88,-56.75 687.62,-56.75 687.62,-77.5"/>
<text text-anchor="middle" x="617.75" y="-64" font-family="Helvetica,sans-Serif" font-size="10.00">src/core/scene/Image.cpp</text>
</a>
</g>
</g>
<!-- Node7&#45;&gt;Node11 -->
<g id="edge13_Node000007_Node000011" class="edge">
<title>Node7&#45;&gt;Node11</title>
<g id="a_edge13_Node000007_Node000011"><a xlink:title=" ">
<path fill="none" stroke="#63b8ff" d="M617.75,-102.21C617.75,-93.84 617.75,-84.58 617.75,-77.83"/>
<polygon fill="#63b8ff" stroke="#63b8ff" points="614.25,-102.09 617.75,-112.09 621.25,-102.09 614.25,-102.09"/>
</a>
</g>
</g>
<!-- Node12 -->
<g id="Node000012" class="node">
<title>Node12</title>
<g id="a_Node000012"><a xlink:href="Scene_8cpp.html" target="_top" xlink:title=" ">
<polygon fill="white" stroke="#666666" points="843.88,-77.5 705.62,-77.5 705.62,-56.75 843.88,-56.75 843.88,-77.5"/>
<text text-anchor="middle" x="774.75" y="-64" font-family="Helvetica,sans-Serif" font-size="10.00">src/core/scene/Scene.cpp</text>
</a>
</g>
</g>
<!-- Node7&#45;&gt;Node12 -->
<g id="edge14_Node000007_Node000012" class="edge">
<title>Node7&#45;&gt;Node12</title>
<g id="a_edge14_Node000007_Node000012"><a xlink:title=" ">
<path fill="none" stroke="#63b8ff" d="M656.05,-109.52C684.05,-99.76 721.39,-86.73 746.66,-77.92"/>
<polygon fill="#63b8ff" stroke="#63b8ff" points="655.11,-106.49 646.82,-113.09 657.41,-113.1 655.11,-106.49"/>
</a>
</g>
</g>
<!-- Node9 -->
<g id="Node000009" class="node">
<title>Node9</title>
<g id="a_Node000009"><a xlink:href="Main_8cpp.html" target="_top" xlink:title=" ">
<polygon fill="white" stroke="#666666" points="452.5,-20.75 351,-20.75 351,0 452.5,0 452.5,-20.75"/>
<text text-anchor="middle" x="401.75" y="-7.25" font-family="Helvetica,sans-Serif" font-size="10.00">src/core/Main.cpp</text>
</a>
</g>
</g>
<!-- Node8&#45;&gt;Node9 -->
<g id="edge11_Node000008_Node000009" class="edge">
<title>Node8&#45;&gt;Node9</title>
<g id="a_edge11_Node000008_Node000009"><a xlink:title=" ">
<path fill="none" stroke="#63b8ff" d="M446.91,-49.41C435.89,-40.13 422.58,-28.92 413.27,-21.08"/>
<polygon fill="#63b8ff" stroke="#63b8ff" points="444.23,-52.57 454.13,-56.34 448.74,-47.22 444.23,-52.57"/>
</a>
</g>
</g>
<!-- Node10 -->
<g id="Node000010" class="node">
<title>Node10</title>
<g id="a_Node000010"><a xlink:href="RayTracer_8cpp.html" target="_top" xlink:title=" ">
<polygon fill="white" stroke="#666666" points="595.12,-20.75 470.38,-20.75 470.38,0 595.12,0 595.12,-20.75"/>
<text text-anchor="middle" x="532.75" y="-7.25" font-family="Helvetica,sans-Serif" font-size="10.00">src/core/RayTracer.cpp</text>
</a>
</g>
</g>
<!-- Node8&#45;&gt;Node10 -->
<g id="edge12_Node000008_Node000010" class="edge">
<title>Node8&#45;&gt;Node10</title>
<g id="a_edge12_Node000008_Node000010"><a xlink:title=" ">
<path fill="none" stroke="#63b8ff" d="M486.9,-49.41C498.08,-40.13 511.6,-28.92 521.05,-21.08"/>
<polygon fill="#63b8ff" stroke="#63b8ff" points="485.01,-47.26 479.55,-56.34 489.48,-52.65 485.01,-47.26"/>
</a>
</g>
</g>
<!-- Node13&#45;&gt;Node7 -->
<g id="edge18_Node000013_Node000007" class="edge">
<title>Node13&#45;&gt;Node7</title>
<g id="a_edge18_Node000013_Node000007"><a xlink:title=" ">
<path fill="none" stroke="#63b8ff" d="M516.25,-165.74C540.43,-156 572.15,-143.23 593.65,-134.58"/>
<polygon fill="#63b8ff" stroke="#63b8ff" points="515.03,-162.86 507.06,-169.84 517.65,-169.35 515.03,-162.86"/>
</a>
</g>
</g>
<!-- Node13&#45;&gt;Node8 -->
<g id="edge16_Node000013_Node000008" class="edge">
<title>Node13&#45;&gt;Node8</title>
<g id="a_edge16_Node000013_Node000008"><a xlink:title=" ">
<path fill="none" stroke="#63b8ff" d="M479.03,-159.38C475.79,-135.31 470.51,-96.09 468.07,-77.93"/>
<polygon fill="#63b8ff" stroke="#63b8ff" points="475.67,-159.67 480.47,-169.12 482.61,-158.74 475.67,-159.67"/>
</a>
</g>
</g>
<!-- Node13&#45;&gt;Node11 -->
<g id="edge17_Node000013_Node000011" class="edge">
<title>Node13&#45;&gt;Node11</title>
<g id="a_edge17_Node000013_Node000011"><a xlink:title=" ">
<path fill="none" stroke="#63b8ff" d="M495.14,-161.34C506.09,-147.19 522.54,-127.67 539.75,-113.5 557.53,-98.86 580.61,-86.07 597.04,-77.84"/>
<polygon fill="#63b8ff" stroke="#63b8ff" points="492.01,-158.67 488.78,-168.76 497.6,-162.89 492.01,-158.67"/>
</a>
</g>
</g>
<!-- Node14 -->
<g id="Node000014" class="node">
<title>Node14</title>
<g id="a_Node000014"><a xlink:href="Parser_8cpp.html" target="_top" xlink:title="Implémentation des fonctions de parsing des configurations pour la caméra, primitives,...">
<polygon fill="white" stroke="#666666" points="454,-134.25 337.5,-134.25 337.5,-113.5 454,-113.5 454,-134.25"/>
<text text-anchor="middle" x="395.75" y="-120.75" font-family="Helvetica,sans-Serif" font-size="10.00">src/parser/Parser.cpp</text>
</a>
</g>
</g>
<!-- Node13&#45;&gt;Node14 -->
<g id="edge19_Node000013_Node000014" class="edge">
<title>Node13&#45;&gt;Node14</title>
<g id="a_edge19_Node000013_Node000014"><a xlink:title=" ">
<path fill="none" stroke="#63b8ff" d="M457.21,-164.01C442.33,-154.53 423.79,-142.73 410.99,-134.58"/>
<polygon fill="#63b8ff" stroke="#63b8ff" points="455.06,-167.42 465.37,-169.84 458.82,-161.51 455.06,-167.42"/>
</a>
</g>
</g>
</g>
</svg>
