<?xml version="1.0" encoding="UTF-8" standalone="no"?>
<!DOCTYPE svg PUBLIC "-//W3C//DTD SVG 1.1//EN"
 "http://www.w3.org/Graphics/SVG/1.1/DTD/svg11.dtd">
<!-- Generated by graphviz version 8.1.0 (20230707.0739)
 -->
<!-- Title: src/camera/Camera.cpp Pages: 1 -->
<svg width="688pt" height="269pt"
 viewBox="0.00 0.00 688.10 268.50" xmlns="http://www.w3.org/2000/svg" xmlns:xlink="http://www.w3.org/1999/xlink">
<g id="graph0" class="graph" transform="scale(1 1) rotate(0) translate(4 264.5)">
<title>src/camera/Camera.cpp</title>
<!-- Node1 -->
<g id="Node000001" class="node">
<title>Node1</title>
<g id="a_Node000001"><a xlink:title=" ">
<polygon fill="#999999" stroke="#666666" points="606.75,-260.5 475.25,-260.5 475.25,-239.75 606.75,-239.75 606.75,-260.5"/>
<text text-anchor="middle" x="541" y="-247" font-family="Helvetica,sans-Serif" font-size="10.00">src/camera/Camera.cpp</text>
</a>
</g>
</g>
<!-- Node2 -->
<g id="Node000002" class="node">
<title>Node2</title>
<g id="a_Node000002"><a xlink:href="Camera_8hpp.html" target="_top" xlink:title=" ">
<polygon fill="white" stroke="#666666" points="392.62,-203.75 317.38,-203.75 317.38,-183 392.62,-183 392.62,-203.75"/>
<text text-anchor="middle" x="355" y="-190.25" font-family="Helvetica,sans-Serif" font-size="10.00">Camera.hpp</text>
</a>
</g>
</g>
<!-- Node1&#45;&gt;Node2 -->
<g id="edge1_Node000001_Node000002" class="edge">
<title>Node1&#45;&gt;Node2</title>
<g id="a_edge1_Node000001_Node000002"><a xlink:title=" ">
<path fill="none" stroke="#63b8ff" d="M507.75,-239.34C477.29,-230.37 432.01,-217.04 398.66,-207.23"/>
<polygon fill="#63b8ff" stroke="#63b8ff" points="399.86,-203.64 389.28,-204.17 397.88,-210.35 399.86,-203.64"/>
</a>
</g>
</g>
<!-- Node3 -->
<g id="Node000003" class="node">
<title>Node3</title>
<g id="a_Node000003"><a xlink:href="Ray_8hpp.html" target="_top" xlink:title=" ">
<polygon fill="white" stroke="#666666" points="662.12,-140.62 535.88,-140.62 535.88,-119.88 662.12,-119.88 662.12,-140.62"/>
<text text-anchor="middle" x="599" y="-127.12" font-family="Helvetica,sans-Serif" font-size="10.00">../core/helpers/Ray.hpp</text>
</a>
</g>
</g>
<!-- Node1&#45;&gt;Node3 -->
<g id="edge20_Node000001_Node000003" class="edge">
<title>Node1&#45;&gt;Node3</title>
<g id="a_edge20_Node000001_Node000003"><a xlink:title=" ">
<path fill="none" stroke="#63b8ff" d="M545.75,-239.48C555.26,-220.14 576.84,-176.29 589.41,-150.74"/>
<polygon fill="#63b8ff" stroke="#63b8ff" points="592.91,-152.55 594.19,-142.03 586.63,-149.46 592.91,-152.55"/>
</a>
</g>
</g>
<!-- Node4 -->
<g id="Node000004" class="node">
<title>Node4</title>
<g id="a_Node000004"><a xlink:href="Math_8hpp.html" target="_top" xlink:title=" ">
<polygon fill="white" stroke="#666666" points="578.62,-77.5 479.38,-77.5 479.38,-56.75 578.62,-56.75 578.62,-77.5"/>
<text text-anchor="middle" x="529" y="-64" font-family="Helvetica,sans-Serif" font-size="10.00">../math/Math.hpp</text>
</a>
</g>
</g>
<!-- Node1&#45;&gt;Node4 -->
<g id="edge21_Node000001_Node000004" class="edge">
<title>Node1&#45;&gt;Node4</title>
<g id="a_edge21_Node000001_Node000004"><a xlink:title=" ">
<path fill="none" stroke="#63b8ff" d="M564.21,-239.26C610.99,-218 708.99,-165.52 671,-113.5 652.38,-88 619.25,-76.5 589.67,-71.45"/>
<polygon fill="#63b8ff" stroke="#63b8ff" points="590.37,-67.86 579.97,-69.86 589.35,-74.79 590.37,-67.86"/>
</a>
</g>
</g>
<!-- Node7 -->
<g id="Node000007" class="node">
<title>Node7</title>
<g id="a_Node000007"><a xlink:href="Rectangle3D_8hpp.html" target="_top" xlink:title=" ">
<polygon fill="white" stroke="#666666" points="517.38,-147 374.62,-147 374.62,-113.5 517.38,-113.5 517.38,-147"/>
<text text-anchor="start" x="382.62" y="-133.5" font-family="Helvetica,sans-Serif" font-size="10.00">../core/helpers/Rectangle3</text>
<text text-anchor="middle" x="446" y="-120.75" font-family="Helvetica,sans-Serif" font-size="10.00">D.hpp</text>
</a>
</g>
</g>
<!-- Node1&#45;&gt;Node7 -->
<g id="edge22_Node000001_Node000007" class="edge">
<title>Node1&#45;&gt;Node7</title>
<g id="a_edge22_Node000001_Node000007"><a xlink:title=" ">
<path fill="none" stroke="#63b8ff" d="M533.23,-239.48C518.64,-221.38 486.75,-181.81 465.84,-155.87"/>
<polygon fill="#63b8ff" stroke="#63b8ff" points="467.95,-153.91 458.95,-148.32 462.5,-158.3 467.95,-153.91"/>
</a>
</g>
</g>
<!-- Node2&#45;&gt;Node3 -->
<g id="edge2_Node000002_Node000003" class="edge">
<title>Node2&#45;&gt;Node3</title>
<g id="a_edge2_Node000002_Node000003"><a xlink:title=" ">
<path fill="none" stroke="#63b8ff" d="M393.12,-182.82C435.28,-172.26 503.33,-155.22 549.55,-143.64"/>
<polygon fill="#63b8ff" stroke="#63b8ff" points="550.08,-146.86 558.93,-141.04 548.38,-140.07 550.08,-146.86"/>
</a>
</g>
</g>
<!-- Node5 -->
<g id="Node000005" class="node">
<title>Node5</title>
<g id="a_Node000005"><a xlink:title=" ">
<polygon fill="#e0e0e0" stroke="#999999" points="461.75,-20.75 402.25,-20.75 402.25,0 461.75,0 461.75,-20.75"/>
<text text-anchor="middle" x="432" y="-7.25" font-family="Helvetica,sans-Serif" font-size="10.00">iostream</text>
</a>
</g>
</g>
<!-- Node2&#45;&gt;Node5 -->
<g id="edge18_Node000002_Node000005" class="edge">
<title>Node2&#45;&gt;Node5</title>
<g id="a_edge18_Node000002_Node000005"><a xlink:title=" ">
<path fill="none" stroke="#63b8ff" d="M317.04,-188.95C266.42,-183.5 180.97,-170.95 162,-147 137.09,-115.56 136.09,-87.37 162,-56.75 190.86,-22.63 322.99,-14.15 391.11,-12.06"/>
<polygon fill="#63b8ff" stroke="#63b8ff" points="390.97,-15.54 400.87,-11.76 390.77,-8.54 390.97,-15.54"/>
</a>
</g>
</g>
<!-- Node2&#45;&gt;Node7 -->
<g id="edge6_Node000002_Node000007" class="edge">
<title>Node2&#45;&gt;Node7</title>
<g id="a_edge6_Node000002_Node000007"><a xlink:title=" ">
<path fill="none" stroke="#63b8ff" d="M369.62,-182.55C381.27,-174.73 398.03,-163.47 412.89,-153.49"/>
<polygon fill="#63b8ff" stroke="#63b8ff" points="414.48,-155.97 420.83,-147.48 410.58,-150.16 414.48,-155.97"/>
</a>
</g>
</g>
<!-- Node8 -->
<g id="Node000008" class="node">
<title>Node8</title>
<g id="a_Node000008"><a xlink:href="Matrix_8hpp.html" target="_top" xlink:title=" ">
<polygon fill="white" stroke="#666666" points="357,-140.62 227,-140.62 227,-119.88 357,-119.88 357,-140.62"/>
<text text-anchor="middle" x="292" y="-127.12" font-family="Helvetica,sans-Serif" font-size="10.00">../core/math/Matrix.hpp</text>
</a>
</g>
</g>
<!-- Node2&#45;&gt;Node8 -->
<g id="edge9_Node000002_Node000008" class="edge">
<title>Node2&#45;&gt;Node8</title>
<g id="a_edge9_Node000002_Node000008"><a xlink:title=" ">
<path fill="none" stroke="#63b8ff" d="M344.88,-182.55C335.36,-173.32 320.92,-159.31 309.53,-148.26"/>
<polygon fill="#63b8ff" stroke="#63b8ff" points="312.5,-146.3 302.89,-141.84 307.63,-151.32 312.5,-146.3"/>
</a>
</g>
</g>
<!-- Node15 -->
<g id="Node000015" class="node">
<title>Node15</title>
<g id="a_Node000015"><a xlink:title=" ">
<polygon fill="#e0e0e0" stroke="#999999" points="208.88,-140.62 171.12,-140.62 171.12,-119.88 208.88,-119.88 208.88,-140.62"/>
<text text-anchor="middle" x="190" y="-127.12" font-family="Helvetica,sans-Serif" font-size="10.00">map</text>
</a>
</g>
</g>
<!-- Node2&#45;&gt;Node15 -->
<g id="edge19_Node000002_Node000015" class="edge">
<title>Node2&#45;&gt;Node15</title>
<g id="a_edge19_Node000002_Node000015"><a xlink:title=" ">
<path fill="none" stroke="#63b8ff" d="M319.1,-182.55C291.04,-174.38 251.34,-161.74 218,-147 217.27,-146.68 216.54,-146.34 215.8,-146"/>
<polygon fill="#63b8ff" stroke="#63b8ff" points="217.81,-142.58 207.31,-141.12 214.6,-148.8 217.81,-142.58"/>
</a>
</g>
</g>
<!-- Node3&#45;&gt;Node4 -->
<g id="edge3_Node000003_Node000004" class="edge">
<title>Node3&#45;&gt;Node4</title>
<g id="a_edge3_Node000003_Node000004"><a xlink:title=" ">
<path fill="none" stroke="#63b8ff" d="M587.75,-119.43C577.08,-110.11 560.82,-95.91 548.11,-84.81"/>
<polygon fill="#63b8ff" stroke="#63b8ff" points="550.82,-81.66 540.99,-77.72 546.22,-86.93 550.82,-81.66"/>
</a>
</g>
</g>
<!-- Node4&#45;&gt;Node5 -->
<g id="edge4_Node000004_Node000005" class="edge">
<title>Node4&#45;&gt;Node5</title>
<g id="a_edge4_Node000004_Node000005"><a xlink:title=" ">
<path fill="none" stroke="#63b8ff" d="M511.66,-56.34C496.9,-48.01 475.46,-35.91 458.55,-26.36"/>
<polygon fill="#63b8ff" stroke="#63b8ff" points="460.62,-22.95 450.19,-21.08 457.18,-29.04 460.62,-22.95"/>
</a>
</g>
</g>
<!-- Node6 -->
<g id="Node000006" class="node">
<title>Node6</title>
<g id="a_Node000006"><a xlink:title=" ">
<polygon fill="#e0e0e0" stroke="#999999" points="552.38,-20.75 505.62,-20.75 505.62,0 552.38,0 552.38,-20.75"/>
<text text-anchor="middle" x="529" y="-7.25" font-family="Helvetica,sans-Serif" font-size="10.00">cmath</text>
</a>
</g>
</g>
<!-- Node4&#45;&gt;Node6 -->
<g id="edge5_Node000004_Node000006" class="edge">
<title>Node4&#45;&gt;Node6</title>
<g id="a_edge5_Node000004_Node000006"><a xlink:title=" ">
<path fill="none" stroke="#63b8ff" d="M529,-56.34C529,-49.56 529,-40.3 529,-31.94"/>
<polygon fill="#63b8ff" stroke="#63b8ff" points="532.5,-32.08 529,-22.08 525.5,-32.08 532.5,-32.08"/>
</a>
</g>
</g>
<!-- Node7&#45;&gt;Node4 -->
<g id="edge8_Node000007_Node000004" class="edge">
<title>Node7&#45;&gt;Node4</title>
<g id="a_edge8_Node000007_Node000004"><a xlink:title=" ">
<path fill="none" stroke="#63b8ff" d="M467.81,-113.19C479.9,-104.28 494.9,-93.24 507.02,-84.31"/>
<polygon fill="#63b8ff" stroke="#63b8ff" points="508.66,-86.72 514.64,-77.97 504.51,-81.08 508.66,-86.72"/>
</a>
</g>
</g>
<!-- Node7&#45;&gt;Node5 -->
<g id="edge7_Node000007_Node000005" class="edge">
<title>Node7&#45;&gt;Node5</title>
<g id="a_edge7_Node000007_Node000005"><a xlink:title=" ">
<path fill="none" stroke="#63b8ff" d="M444.11,-113.35C441.61,-92.27 437.18,-55.03 434.43,-31.86"/>
<polygon fill="#63b8ff" stroke="#63b8ff" points="437.82,-31.7 433.16,-22.18 430.87,-32.53 437.82,-31.7"/>
</a>
</g>
</g>
<!-- Node8&#45;&gt;Node4 -->
<g id="edge10_Node000008_Node000004" class="edge">
<title>Node8&#45;&gt;Node4</title>
<g id="a_edge10_Node000008_Node000004"><a xlink:title=" ">
<path fill="none" stroke="#63b8ff" d="M330.08,-119.43C370.94,-108.89 435.95,-92.12 480.45,-80.65"/>
<polygon fill="#63b8ff" stroke="#63b8ff" points="481.21,-83.81 490.02,-77.92 479.46,-77.03 481.21,-83.81"/>
</a>
</g>
</g>
<!-- Node8&#45;&gt;Node5 -->
<g id="edge15_Node000008_Node000005" class="edge">
<title>Node8&#45;&gt;Node5</title>
<g id="a_edge15_Node000008_Node000005"><a xlink:title=" ">
<path fill="none" stroke="#63b8ff" d="M321.58,-119.51C343.58,-111.1 373.26,-97.19 394,-77.5 407.77,-64.42 418.04,-45.24 424.41,-30.9"/>
<polygon fill="#63b8ff" stroke="#63b8ff" points="427.9,-32.64 428.51,-22.06 421.43,-29.94 427.9,-32.64"/>
</a>
</g>
</g>
<!-- Node9 -->
<g id="Node000009" class="node">
<title>Node9</title>
<g id="a_Node000009"><a xlink:href="Error_8hpp.html" target="_top" xlink:title=" ">
<polygon fill="white" stroke="#666666" points="115.38,-77.5 20.62,-77.5 20.62,-56.75 115.38,-56.75 115.38,-77.5"/>
<text text-anchor="middle" x="68" y="-64" font-family="Helvetica,sans-Serif" font-size="10.00">../error/Error.hpp</text>
</a>
</g>
</g>
<!-- Node8&#45;&gt;Node9 -->
<g id="edge11_Node000008_Node000009" class="edge">
<title>Node8&#45;&gt;Node9</title>
<g id="a_edge11_Node000008_Node000009"><a xlink:title=" ">
<path fill="none" stroke="#63b8ff" d="M256.01,-119.43C217.56,-108.94 156.47,-92.27 114.42,-80.79"/>
<polygon fill="#63b8ff" stroke="#63b8ff" points="115.47,-77.18 104.9,-77.92 113.63,-83.93 115.47,-77.18"/>
</a>
</g>
</g>
<!-- Node12 -->
<g id="Node000012" class="node">
<title>Node12</title>
<g id="a_Node000012"><a xlink:title=" ">
<polygon fill="#e0e0e0" stroke="#999999" points="385,-77.5 303,-77.5 303,-56.75 385,-56.75 385,-77.5"/>
<text text-anchor="middle" x="344" y="-64" font-family="Helvetica,sans-Serif" font-size="10.00">initializer_list</text>
</a>
</g>
</g>
<!-- Node8&#45;&gt;Node12 -->
<g id="edge14_Node000008_Node000012" class="edge">
<title>Node8&#45;&gt;Node12</title>
<g id="a_edge14_Node000008_Node000012"><a xlink:title=" ">
<path fill="none" stroke="#63b8ff" d="M300.35,-119.43C308.06,-110.38 319.67,-96.72 328.98,-85.78"/>
<polygon fill="#63b8ff" stroke="#63b8ff" points="332.02,-88.6 335.84,-78.72 326.69,-84.07 332.02,-88.6"/>
</a>
</g>
</g>
<!-- Node13 -->
<g id="Node000013" class="node">
<title>Node13</title>
<g id="a_Node000013"><a xlink:title=" ">
<polygon fill="#e0e0e0" stroke="#999999" points="217.38,-77.5 170.62,-77.5 170.62,-56.75 217.38,-56.75 217.38,-77.5"/>
<text text-anchor="middle" x="194" y="-64" font-family="Helvetica,sans-Serif" font-size="10.00">vector</text>
</a>
</g>
</g>
<!-- Node8&#45;&gt;Node13 -->
<g id="edge16_Node000008_Node000013" class="edge">
<title>Node8&#45;&gt;Node13</title>
<g id="a_edge16_Node000008_Node000013"><a xlink:title=" ">
<path fill="none" stroke="#63b8ff" d="M276.25,-119.43C260.68,-109.72 236.62,-94.71 218.54,-83.43"/>
<polygon fill="#63b8ff" stroke="#63b8ff" points="221.04,-80.24 210.71,-77.92 217.34,-86.18 221.04,-80.24"/>
</a>
</g>
</g>
<!-- Node14 -->
<g id="Node000014" class="node">
<title>Node14</title>
<g id="a_Node000014"><a xlink:title=" ">
<polygon fill="#e0e0e0" stroke="#999999" points="284.5,-77.5 235.5,-77.5 235.5,-56.75 284.5,-56.75 284.5,-77.5"/>
<text text-anchor="middle" x="260" y="-64" font-family="Helvetica,sans-Serif" font-size="10.00">format</text>
</a>
</g>
</g>
<!-- Node8&#45;&gt;Node14 -->
<g id="edge17_Node000008_Node000014" class="edge">
<title>Node8&#45;&gt;Node14</title>
<g id="a_edge17_Node000008_Node000014"><a xlink:title=" ">
<path fill="none" stroke="#63b8ff" d="M286.86,-119.43C282.35,-110.82 275.67,-98.06 270.1,-87.42"/>
<polygon fill="#63b8ff" stroke="#63b8ff" points="272.76,-85.96 265.02,-78.72 266.56,-89.2 272.76,-85.96"/>
</a>
</g>
</g>
<!-- Node10 -->
<g id="Node000010" class="node">
<title>Node10</title>
<g id="a_Node000010"><a xlink:title=" ">
<polygon fill="#e0e0e0" stroke="#999999" points="64,-20.75 0,-20.75 0,0 64,0 64,-20.75"/>
<text text-anchor="middle" x="32" y="-7.25" font-family="Helvetica,sans-Serif" font-size="10.00">stdexcept</text>
</a>
</g>
</g>
<!-- Node9&#45;&gt;Node10 -->
<g id="edge12_Node000009_Node000010" class="edge">
<title>Node9&#45;&gt;Node10</title>
<g id="a_edge12_Node000009_Node000010"><a xlink:title=" ">
<path fill="none" stroke="#63b8ff" d="M61.56,-56.34C56.8,-49.1 50.17,-39.01 44.39,-30.22"/>
<polygon fill="#63b8ff" stroke="#63b8ff" points="46.8,-28.51 38.38,-22.08 40.95,-32.36 46.8,-28.51"/>
</a>
</g>
</g>
<!-- Node11 -->
<g id="Node000011" class="node">
<title>Node11</title>
<g id="a_Node000011"><a xlink:title=" ">
<polygon fill="#e0e0e0" stroke="#999999" points="125.88,-20.75 82.12,-20.75 82.12,0 125.88,0 125.88,-20.75"/>
<text text-anchor="middle" x="104" y="-7.25" font-family="Helvetica,sans-Serif" font-size="10.00">string</text>
</a>
</g>
</g>
<!-- Node9&#45;&gt;Node11 -->
<g id="edge13_Node000009_Node000011" class="edge">
<title>Node9&#45;&gt;Node11</title>
<g id="a_edge13_Node000009_Node000011"><a xlink:title=" ">
<path fill="none" stroke="#63b8ff" d="M74.44,-56.34C79.2,-49.1 85.83,-39.01 91.61,-30.22"/>
<polygon fill="#63b8ff" stroke="#63b8ff" points="95.05,-32.36 97.62,-22.08 89.2,-28.51 95.05,-32.36"/>
</a>
</g>
</g>
</g>
</svg>
