<?xml version="1.0" encoding="UTF-8" standalone="no"?>
<!DOCTYPE svg PUBLIC "-//W3C//DTD SVG 1.1//EN"
 "http://www.w3.org/Graphics/SVG/1.1/DTD/svg11.dtd">
<!-- Generated by graphviz version 8.1.0 (20230707.0739)
 -->
<!-- Title: src/camera/Camera.hpp Pages: 1 -->
<svg width="643pt" height="212pt"
 viewBox="0.00 0.00 642.69 211.75" xmlns="http://www.w3.org/2000/svg" xmlns:xlink="http://www.w3.org/1999/xlink">
<g id="graph0" class="graph" transform="scale(1 1) rotate(0) translate(4 207.75)">
<title>src/camera/Camera.hpp</title>
<!-- Node1 -->
<g id="Node000001" class="node">
<title>Node1</title>
<g id="a_Node000001"><a xlink:title=" ">
<polygon fill="#999999" stroke="#666666" points="308.94,-203.75 176.69,-203.75 176.69,-183 308.94,-183 308.94,-203.75"/>
<text text-anchor="middle" x="242.82" y="-190.25" font-family="Helvetica,sans-Serif" font-size="10.00">src/camera/Camera.hpp</text>
</a>
</g>
</g>
<!-- Node2 -->
<g id="Node000002" class="node">
<title>Node2</title>
<g id="a_Node000002"><a xlink:href="Ray_8hpp.html" target="_top" xlink:title=" ">
<polygon fill="white" stroke="#666666" points="305.94,-140.62 179.69,-140.62 179.69,-119.88 305.94,-119.88 305.94,-140.62"/>
<text text-anchor="middle" x="242.82" y="-127.12" font-family="Helvetica,sans-Serif" font-size="10.00">../core/helpers/Ray.hpp</text>
</a>
</g>
</g>
<!-- Node1&#45;&gt;Node2 -->
<g id="edge1_Node000001_Node000002" class="edge">
<title>Node1&#45;&gt;Node2</title>
<g id="a_edge1_Node000001_Node000002"><a xlink:title=" ">
<path fill="none" stroke="#63b8ff" d="M242.82,-182.55C242.82,-174.22 242.82,-161.98 242.82,-151.55"/>
<polygon fill="#63b8ff" stroke="#63b8ff" points="246.32,-151.84 242.82,-141.84 239.32,-151.84 246.32,-151.84"/>
</a>
</g>
</g>
<!-- Node4 -->
<g id="Node000004" class="node">
<title>Node4</title>
<g id="a_Node000004"><a xlink:title=" ">
<polygon fill="#e0e0e0" stroke="#999999" points="131.57,-20.75 72.07,-20.75 72.07,0 131.57,0 131.57,-20.75"/>
<text text-anchor="middle" x="101.82" y="-7.25" font-family="Helvetica,sans-Serif" font-size="10.00">iostream</text>
</a>
</g>
</g>
<!-- Node1&#45;&gt;Node4 -->
<g id="edge17_Node000001_Node000004" class="edge">
<title>Node1&#45;&gt;Node4</title>
<g id="a_edge17_Node000001_Node000004"><a xlink:title=" ">
<path fill="none" stroke="#63b8ff" d="M176.21,-188.61C114.96,-183.59 30.59,-172.2 9.82,-147 -23.79,-106.21 39.81,-53.21 77.25,-27.19"/>
<polygon fill="#63b8ff" stroke="#63b8ff" points="78.81,-29.69 85.13,-21.18 74.88,-23.89 78.81,-29.69"/>
</a>
</g>
</g>
<!-- Node6 -->
<g id="Node000006" class="node">
<title>Node6</title>
<g id="a_Node000006"><a xlink:href="Rectangle3D_8hpp.html" target="_top" xlink:title=" ">
<polygon fill="white" stroke="#666666" points="161.19,-147 18.44,-147 18.44,-113.5 161.19,-113.5 161.19,-147"/>
<text text-anchor="start" x="26.44" y="-133.5" font-family="Helvetica,sans-Serif" font-size="10.00">../core/helpers/Rectangle3</text>
<text text-anchor="middle" x="89.82" y="-120.75" font-family="Helvetica,sans-Serif" font-size="10.00">D.hpp</text>
</a>
</g>
</g>
<!-- Node1&#45;&gt;Node6 -->
<g id="edge5_Node000001_Node000006" class="edge">
<title>Node1&#45;&gt;Node6</title>
<g id="a_edge5_Node000001_Node000006"><a xlink:title=" ">
<path fill="none" stroke="#63b8ff" d="M218.24,-182.55C197.36,-174.21 166.71,-161.97 140.58,-151.53"/>
<polygon fill="#63b8ff" stroke="#63b8ff" points="142.04,-147.94 131.46,-147.48 139.44,-154.45 142.04,-147.94"/>
</a>
</g>
</g>
<!-- Node7 -->
<g id="Node000007" class="node">
<title>Node7</title>
<g id="a_Node000007"><a xlink:href="Matrix_8hpp.html" target="_top" xlink:title=" ">
<polygon fill="white" stroke="#666666" points="453.82,-140.62 323.82,-140.62 323.82,-119.88 453.82,-119.88 453.82,-140.62"/>
<text text-anchor="middle" x="388.82" y="-127.12" font-family="Helvetica,sans-Serif" font-size="10.00">../core/math/Matrix.hpp</text>
</a>
</g>
</g>
<!-- Node1&#45;&gt;Node7 -->
<g id="edge8_Node000001_Node000007" class="edge">
<title>Node1&#45;&gt;Node7</title>
<g id="a_edge8_Node000001_Node000007"><a xlink:title=" ">
<path fill="none" stroke="#63b8ff" d="M266.28,-182.55C290.43,-172.44 328.3,-156.59 355.55,-145.18"/>
<polygon fill="#63b8ff" stroke="#63b8ff" points="356.55,-148.14 364.42,-141.05 353.84,-141.68 356.55,-148.14"/>
</a>
</g>
</g>
<!-- Node14 -->
<g id="Node000014" class="node">
<title>Node14</title>
<g id="a_Node000014"><a xlink:title=" ">
<polygon fill="#e0e0e0" stroke="#999999" points="509.69,-140.62 471.94,-140.62 471.94,-119.88 509.69,-119.88 509.69,-140.62"/>
<text text-anchor="middle" x="490.82" y="-127.12" font-family="Helvetica,sans-Serif" font-size="10.00">map</text>
</a>
</g>
</g>
<!-- Node1&#45;&gt;Node14 -->
<g id="edge18_Node000001_Node000014" class="edge">
<title>Node1&#45;&gt;Node14</title>
<g id="a_edge18_Node000001_Node000014"><a xlink:title=" ">
<path fill="none" stroke="#63b8ff" d="M309.28,-184.13C353.72,-177.31 412.96,-165.65 462.82,-147 463.89,-146.6 464.97,-146.16 466.05,-145.7"/>
<polygon fill="#63b8ff" stroke="#63b8ff" points="467.15,-148.56 474.53,-140.97 464.02,-142.3 467.15,-148.56"/>
</a>
</g>
</g>
<!-- Node3 -->
<g id="Node000003" class="node">
<title>Node3</title>
<g id="a_Node000003"><a xlink:href="Math_8hpp.html" target="_top" xlink:title=" ">
<polygon fill="white" stroke="#666666" points="232.44,-77.5 133.19,-77.5 133.19,-56.75 232.44,-56.75 232.44,-77.5"/>
<text text-anchor="middle" x="182.82" y="-64" font-family="Helvetica,sans-Serif" font-size="10.00">../math/Math.hpp</text>
</a>
</g>
</g>
<!-- Node2&#45;&gt;Node3 -->
<g id="edge2_Node000002_Node000003" class="edge">
<title>Node2&#45;&gt;Node3</title>
<g id="a_edge2_Node000002_Node000003"><a xlink:title=" ">
<path fill="none" stroke="#63b8ff" d="M233.18,-119.43C224.2,-110.29 210.63,-96.45 199.83,-85.45"/>
<polygon fill="#63b8ff" stroke="#63b8ff" points="202.74,-83.4 193.24,-78.72 197.74,-88.31 202.74,-83.4"/>
</a>
</g>
</g>
<!-- Node3&#45;&gt;Node4 -->
<g id="edge3_Node000003_Node000004" class="edge">
<title>Node3&#45;&gt;Node4</title>
<g id="a_edge3_Node000003_Node000004"><a xlink:title=" ">
<path fill="none" stroke="#63b8ff" d="M168.34,-56.34C156.36,-48.24 139.11,-36.58 125.18,-27.17"/>
<polygon fill="#63b8ff" stroke="#63b8ff" points="127.42,-23.78 117.17,-21.08 123.5,-29.58 127.42,-23.78"/>
</a>
</g>
</g>
<!-- Node5 -->
<g id="Node000005" class="node">
<title>Node5</title>
<g id="a_Node000005"><a xlink:title=" ">
<polygon fill="#e0e0e0" stroke="#999999" points="206.19,-20.75 159.44,-20.75 159.44,0 206.19,0 206.19,-20.75"/>
<text text-anchor="middle" x="182.82" y="-7.25" font-family="Helvetica,sans-Serif" font-size="10.00">cmath</text>
</a>
</g>
</g>
<!-- Node3&#45;&gt;Node5 -->
<g id="edge4_Node000003_Node000005" class="edge">
<title>Node3&#45;&gt;Node5</title>
<g id="a_edge4_Node000003_Node000005"><a xlink:title=" ">
<path fill="none" stroke="#63b8ff" d="M182.82,-56.34C182.82,-49.56 182.82,-40.3 182.82,-31.94"/>
<polygon fill="#63b8ff" stroke="#63b8ff" points="186.32,-32.08 182.82,-22.08 179.32,-32.08 186.32,-32.08"/>
</a>
</g>
</g>
<!-- Node6&#45;&gt;Node3 -->
<g id="edge7_Node000006_Node000003" class="edge">
<title>Node6&#45;&gt;Node3</title>
<g id="a_edge7_Node000006_Node000003"><a xlink:title=" ">
<path fill="none" stroke="#63b8ff" d="M114.25,-113.19C128.07,-104.11 145.27,-92.8 158.99,-83.79"/>
<polygon fill="#63b8ff" stroke="#63b8ff" points="160.41,-86.38 166.84,-77.97 156.57,-80.53 160.41,-86.38"/>
</a>
</g>
</g>
<!-- Node6&#45;&gt;Node4 -->
<g id="edge6_Node000006_Node000004" class="edge">
<title>Node6&#45;&gt;Node4</title>
<g id="a_edge6_Node000006_Node000004"><a xlink:title=" ">
<path fill="none" stroke="#63b8ff" d="M91.44,-113.35C93.58,-92.27 97.37,-55.03 99.73,-31.86"/>
<polygon fill="#63b8ff" stroke="#63b8ff" points="103.29,-32.49 100.82,-22.18 96.33,-31.78 103.29,-32.49"/>
</a>
</g>
</g>
<!-- Node7&#45;&gt;Node3 -->
<g id="edge9_Node000007_Node000003" class="edge">
<title>Node7&#45;&gt;Node3</title>
<g id="a_edge9_Node000007_Node000003"><a xlink:title=" ">
<path fill="none" stroke="#63b8ff" d="M355.72,-119.43C320.58,-109 264.89,-92.48 226.25,-81.01"/>
<polygon fill="#63b8ff" stroke="#63b8ff" points="227.42,-77.41 216.83,-77.92 225.43,-84.12 227.42,-77.41"/>
</a>
</g>
</g>
<!-- Node7&#45;&gt;Node4 -->
<g id="edge14_Node000007_Node000004" class="edge">
<title>Node7&#45;&gt;Node4</title>
<g id="a_edge14_Node000007_Node000004"><a xlink:title=" ">
<path fill="none" stroke="#63b8ff" d="M371.1,-119.46C343.86,-104.66 289.8,-76.24 241.82,-56.75 208.97,-43.41 170.59,-31.2 142.34,-22.81"/>
<polygon fill="#63b8ff" stroke="#63b8ff" points="143.62,-19.25 133.04,-19.79 141.65,-25.96 143.62,-19.25"/>
</a>
</g>
</g>
<!-- Node8 -->
<g id="Node000008" class="node">
<title>Node8</title>
<g id="a_Node000008"><a xlink:href="Error_8hpp.html" target="_top" xlink:title=" ">
<polygon fill="white" stroke="#666666" points="624.19,-77.5 529.44,-77.5 529.44,-56.75 624.19,-56.75 624.19,-77.5"/>
<text text-anchor="middle" x="576.82" y="-64" font-family="Helvetica,sans-Serif" font-size="10.00">../error/Error.hpp</text>
</a>
</g>
</g>
<!-- Node7&#45;&gt;Node8 -->
<g id="edge10_Node000007_Node000008" class="edge">
<title>Node7&#45;&gt;Node8</title>
<g id="a_edge10_Node000007_Node000008"><a xlink:title=" ">
<path fill="none" stroke="#63b8ff" d="M419.02,-119.43C450.82,-109.09 501.05,-92.76 536.27,-81.31"/>
<polygon fill="#63b8ff" stroke="#63b8ff" points="537.26,-84.34 545.69,-77.92 535.1,-77.68 537.26,-84.34"/>
</a>
</g>
</g>
<!-- Node11 -->
<g id="Node000011" class="node">
<title>Node11</title>
<g id="a_Node000011"><a xlink:title=" ">
<polygon fill="#e0e0e0" stroke="#999999" points="511.82,-77.5 429.82,-77.5 429.82,-56.75 511.82,-56.75 511.82,-77.5"/>
<text text-anchor="middle" x="470.82" y="-64" font-family="Helvetica,sans-Serif" font-size="10.00">initializer_list</text>
</a>
</g>
</g>
<!-- Node7&#45;&gt;Node11 -->
<g id="edge13_Node000007_Node000011" class="edge">
<title>Node7&#45;&gt;Node11</title>
<g id="a_edge13_Node000007_Node000011"><a xlink:title=" ">
<path fill="none" stroke="#63b8ff" d="M401.99,-119.43C414.67,-109.98 434.05,-95.53 449.02,-84.37"/>
<polygon fill="#63b8ff" stroke="#63b8ff" points="450.75,-86.7 456.68,-77.92 446.57,-81.09 450.75,-86.7"/>
</a>
</g>
</g>
<!-- Node12 -->
<g id="Node000012" class="node">
<title>Node12</title>
<g id="a_Node000012"><a xlink:title=" ">
<polygon fill="#e0e0e0" stroke="#999999" points="344.19,-77.5 297.44,-77.5 297.44,-56.75 344.19,-56.75 344.19,-77.5"/>
<text text-anchor="middle" x="320.82" y="-64" font-family="Helvetica,sans-Serif" font-size="10.00">vector</text>
</a>
</g>
</g>
<!-- Node7&#45;&gt;Node12 -->
<g id="edge15_Node000007_Node000012" class="edge">
<title>Node7&#45;&gt;Node12</title>
<g id="a_edge15_Node000007_Node000012"><a xlink:title=" ">
<path fill="none" stroke="#63b8ff" d="M377.89,-119.43C367.52,-110.11 351.73,-95.91 339.38,-84.81"/>
<polygon fill="#63b8ff" stroke="#63b8ff" points="342.27,-82.8 332.49,-78.72 337.59,-88.01 342.27,-82.8"/>
</a>
</g>
</g>
<!-- Node13 -->
<g id="Node000013" class="node">
<title>Node13</title>
<g id="a_Node000013"><a xlink:title=" ">
<polygon fill="#e0e0e0" stroke="#999999" points="411.32,-77.5 362.32,-77.5 362.32,-56.75 411.32,-56.75 411.32,-77.5"/>
<text text-anchor="middle" x="386.82" y="-64" font-family="Helvetica,sans-Serif" font-size="10.00">format</text>
</a>
</g>
</g>
<!-- Node7&#45;&gt;Node13 -->
<g id="edge16_Node000007_Node000013" class="edge">
<title>Node7&#45;&gt;Node13</title>
<g id="a_edge16_Node000007_Node000013"><a xlink:title=" ">
<path fill="none" stroke="#63b8ff" d="M388.5,-119.43C388.22,-111.09 387.82,-98.86 387.48,-88.43"/>
<polygon fill="#63b8ff" stroke="#63b8ff" points="390.96,-88.6 387.13,-78.72 383.96,-88.83 390.96,-88.6"/>
</a>
</g>
</g>
<!-- Node9 -->
<g id="Node000009" class="node">
<title>Node9</title>
<g id="a_Node000009"><a xlink:title=" ">
<polygon fill="#e0e0e0" stroke="#999999" points="572.82,-20.75 508.82,-20.75 508.82,0 572.82,0 572.82,-20.75"/>
<text text-anchor="middle" x="540.82" y="-7.25" font-family="Helvetica,sans-Serif" font-size="10.00">stdexcept</text>
</a>
</g>
</g>
<!-- Node8&#45;&gt;Node9 -->
<g id="edge11_Node000008_Node000009" class="edge">
<title>Node8&#45;&gt;Node9</title>
<g id="a_edge11_Node000008_Node000009"><a xlink:title=" ">
<path fill="none" stroke="#63b8ff" d="M570.38,-56.34C565.62,-49.1 558.99,-39.01 553.21,-30.22"/>
<polygon fill="#63b8ff" stroke="#63b8ff" points="555.62,-28.51 547.2,-22.08 549.77,-32.36 555.62,-28.51"/>
</a>
</g>
</g>
<!-- Node10 -->
<g id="Node000010" class="node">
<title>Node10</title>
<g id="a_Node000010"><a xlink:title=" ">
<polygon fill="#e0e0e0" stroke="#999999" points="634.69,-20.75 590.94,-20.75 590.94,0 634.69,0 634.69,-20.75"/>
<text text-anchor="middle" x="612.82" y="-7.25" font-family="Helvetica,sans-Serif" font-size="10.00">string</text>
</a>
</g>
</g>
<!-- Node8&#45;&gt;Node10 -->
<g id="edge12_Node000008_Node000010" class="edge">
<title>Node8&#45;&gt;Node10</title>
<g id="a_edge12_Node000008_Node000010"><a xlink:title=" ">
<path fill="none" stroke="#63b8ff" d="M583.25,-56.34C588.02,-49.1 594.65,-39.01 600.43,-30.22"/>
<polygon fill="#63b8ff" stroke="#63b8ff" points="603.87,-32.36 606.44,-22.08 598.02,-28.51 603.87,-32.36"/>
</a>
</g>
</g>
</g>
</svg>
