<?xml version="1.0" encoding="UTF-8" standalone="no"?>
<!DOCTYPE svg PUBLIC "-//W3C//DTD SVG 1.1//EN"
 "http://www.w3.org/Graphics/SVG/1.1/DTD/svg11.dtd">
<!-- Generated by graphviz version 8.1.0 (20230707.0739)
 -->
<!-- Title: raytracer::World::getDistance Pages: 1 -->
<svg width="346pt" height="94pt"
 viewBox="0.00 0.00 346.00 93.50" xmlns="http://www.w3.org/2000/svg" xmlns:xlink="http://www.w3.org/1999/xlink">
<g id="graph0" class="graph" transform="scale(1 1) rotate(0) translate(4 89.5)">
<title>raytracer::World::getDistance</title>
<!-- Node1 -->
<g id="Node000001" class="node">
<title>Node1</title>
<g id="a_Node000001"><a xlink:title=" ">
<polygon fill="#999999" stroke="#666666" points="338,-53.12 179.5,-53.12 179.5,-32.38 338,-32.38 338,-53.12"/>
<text text-anchor="middle" x="258.75" y="-39.62" font-family="Helvetica,sans-Serif" font-size="10.00">raytracer::World::getDistance</text>
</a>
</g>
</g>
<!-- Node2 -->
<g id="Node000002" class="node">
<title>Node2</title>
<g id="a_Node000002"><a xlink:href="classraytracer_1_1DirectionalLight.html#ad38770a14fe4abd20d648f8c95ef394e" target="_top" xlink:title="Calcule la couleur de la lumière en tenant compte des ombres.">
<polygon fill="white" stroke="#666666" points="143.5,-85.5 0,-85.5 0,-52 143.5,-52 143.5,-85.5"/>
<text text-anchor="start" x="8" y="-72" font-family="Helvetica,sans-Serif" font-size="10.00">raytracer::DirectionalLight</text>
<text text-anchor="middle" x="71.75" y="-59.25" font-family="Helvetica,sans-Serif" font-size="10.00">::getColorShadow</text>
</a>
</g>
</g>
<!-- Node1&#45;&gt;Node2 -->
<g id="edge1_Node000001_Node000002" class="edge">
<title>Node1&#45;&gt;Node2</title>
<g id="a_edge1_Node000001_Node000002"><a xlink:title=" ">
<path fill="none" stroke="#63b8ff" d="M169.99,-55.08C161.22,-56.32 152.39,-57.56 143.83,-58.76"/>
<polygon fill="#63b8ff" stroke="#63b8ff" points="170.22,-58.45 179.63,-53.59 169.24,-51.51 170.22,-58.45"/>
</a>
</g>
</g>
<!-- Node3 -->
<g id="Node000003" class="node">
<title>Node3</title>
<g id="a_Node000003"><a xlink:href="classraytracer_1_1PointLight.html#adc1015f0e17f9f9af7f6d7c460c47473" target="_top" xlink:title="Calcule la couleur de l&#39;ombre au point d&#39;intersection donné.">
<polygon fill="white" stroke="#666666" points="129.25,-33.5 14.25,-33.5 14.25,0 129.25,0 129.25,-33.5"/>
<text text-anchor="start" x="22.25" y="-20" font-family="Helvetica,sans-Serif" font-size="10.00">raytracer::PointLight</text>
<text text-anchor="middle" x="71.75" y="-7.25" font-family="Helvetica,sans-Serif" font-size="10.00">::getColorShadow</text>
</a>
</g>
</g>
<!-- Node1&#45;&gt;Node3 -->
<g id="edge2_Node000001_Node000003" class="edge">
<title>Node1&#45;&gt;Node3</title>
<g id="a_edge2_Node000001_Node000003"><a xlink:title=" ">
<path fill="none" stroke="#63b8ff" d="M169.77,-30.39C156.16,-28.47 142.42,-26.54 129.73,-24.76"/>
<polygon fill="#63b8ff" stroke="#63b8ff" points="169.24,-33.99 179.63,-31.91 170.22,-27.05 169.24,-33.99"/>
</a>
</g>
</g>
</g>
</svg>
