<?xml version="1.0" encoding="UTF-8" standalone="no"?>
<!DOCTYPE svg PUBLIC "-//W3C//DTD SVG 1.1//EN"
 "http://www.w3.org/Graphics/SVG/1.1/DTD/svg11.dtd">
<!-- Generated by graphviz version 8.1.0 (20230707.0739)
 -->
<!-- Title: raytracer::Scene::getColor Pages: 1 -->
<svg width="674pt" height="247pt"
 viewBox="0.00 0.00 674.25 247.12" xmlns="http://www.w3.org/2000/svg" xmlns:xlink="http://www.w3.org/1999/xlink">
<g id="graph0" class="graph" transform="scale(1 1) rotate(0) translate(4 243.12)">
<title>raytracer::Scene::getColor</title>
<!-- Node1 -->
<g id="Node000001" class="node">
<title>Node1</title>
<g id="a_Node000001"><a xlink:title="Calcule la couleur d&#39;un pixel donné dans l&#39;image.">
<polygon fill="#999999" stroke="#666666" points="142.75,-146.12 0,-146.12 0,-125.38 142.75,-125.38 142.75,-146.12"/>
<text text-anchor="middle" x="71.38" y="-132.62" font-family="Helvetica,sans-Serif" font-size="10.00">raytracer::Scene::getColor</text>
</a>
</g>
</g>
<!-- Node2 -->
<g id="Node000002" class="node">
<title>Node2</title>
<g id="a_Node000002"><a xlink:href="classraytracer_1_1Color.html#af57a11390d98eeb60d1f804f2a85bb72" target="_top" xlink:title=" ">
<polygon fill="white" stroke="#666666" points="483.75,-239.12 356,-239.12 356,-218.38 483.75,-218.38 483.75,-239.12"/>
<text text-anchor="middle" x="419.88" y="-225.62" font-family="Helvetica,sans-Serif" font-size="10.00">raytracer::Color::clamp</text>
</a>
</g>
</g>
<!-- Node1&#45;&gt;Node2 -->
<g id="edge1_Node000001_Node000002" class="edge">
<title>Node1&#45;&gt;Node2</title>
<g id="a_edge1_Node000001_Node000002"><a xlink:title=" ">
<path fill="none" stroke="#63b8ff" d="M86.99,-146.62C106.71,-160.68 143.46,-184.8 178.75,-196.75 232.63,-215 296.62,-222.9 344.98,-226.29"/>
<polygon fill="#63b8ff" stroke="#63b8ff" points="344.47,-229.83 354.68,-226.98 344.92,-222.84 344.47,-229.83"/>
</a>
</g>
</g>
<!-- Node3 -->
<g id="Node000003" class="node">
<title>Node3</title>
<g id="a_Node000003"><a xlink:href="classraytracer_1_1Scene.html#a47df2dc8ff0d5b2c53a1119e4dbc78a5" target="_top" xlink:title="Calcule la couleur de la lumière sur une primitive à un point d&#39;intersection donné.">
<polygon fill="white" stroke="#666666" points="320,-187.5 178.75,-187.5 178.75,-154 320,-154 320,-187.5"/>
<text text-anchor="start" x="186.75" y="-174" font-family="Helvetica,sans-Serif" font-size="10.00">raytracer::Scene::getLight</text>
<text text-anchor="middle" x="249.38" y="-161.25" font-family="Helvetica,sans-Serif" font-size="10.00">Color</text>
</a>
</g>
</g>
<!-- Node1&#45;&gt;Node3 -->
<g id="edge2_Node000001_Node000003" class="edge">
<title>Node1&#45;&gt;Node3</title>
<g id="a_edge2_Node000001_Node000003"><a xlink:title=" ">
<path fill="none" stroke="#63b8ff" d="M126.62,-146.54C139.66,-149.13 153.86,-151.95 167.81,-154.73"/>
<polygon fill="#63b8ff" stroke="#63b8ff" points="166.92,-158.32 177.41,-156.84 168.28,-151.45 166.92,-158.32"/>
</a>
</g>
</g>
<!-- Node5 -->
<g id="Node000005" class="node">
<title>Node5</title>
<g id="a_Node000005"><a xlink:href="classmath_1_1Vector3D.html#ae0c26833a0b58f2709884880a02bdc52" target="_top" xlink:title="Normalise le vecteur actuel (modifie en place).">
<polygon fill="white" stroke="#666666" points="666.25,-124.12 519.75,-124.12 519.75,-103.38 666.25,-103.38 666.25,-124.12"/>
<text text-anchor="middle" x="593" y="-110.62" font-family="Helvetica,sans-Serif" font-size="10.00">math::Vector3D::normalize</text>
</a>
</g>
</g>
<!-- Node1&#45;&gt;Node5 -->
<g id="edge6_Node000001_Node000005" class="edge">
<title>Node1&#45;&gt;Node5</title>
<g id="a_edge6_Node000001_Node000005"><a xlink:title=" ">
<path fill="none" stroke="#63b8ff" d="M142.99,-132.76C238.17,-128.73 407.34,-121.57 508.65,-117.28"/>
<polygon fill="#63b8ff" stroke="#63b8ff" points="508.6,-120.74 518.44,-116.82 508.3,-113.75 508.6,-120.74"/>
</a>
</g>
</g>
<!-- Node6 -->
<g id="Node000006" class="node">
<title>Node6</title>
<g id="a_Node000006"><a xlink:href="classraytracer_1_1Camera.html#aa6be6292787a7ffd1833c7184aed42af" target="_top" xlink:title="Génère un rayon à partir des coordonnées normalisées sur le plan de l&#39;écran.">
<polygon fill="white" stroke="#666666" points="312.5,-79.12 186.25,-79.12 186.25,-58.38 312.5,-58.38 312.5,-79.12"/>
<text text-anchor="middle" x="249.38" y="-65.62" font-family="Helvetica,sans-Serif" font-size="10.00">raytracer::Camera::ray</text>
</a>
</g>
</g>
<!-- Node1&#45;&gt;Node6 -->
<g id="edge7_Node000001_Node000006" class="edge">
<title>Node1&#45;&gt;Node6</title>
<g id="a_edge7_Node000001_Node000006"><a xlink:title=" ">
<path fill="none" stroke="#63b8ff" d="M100.65,-124.99C130.2,-113.74 176.76,-96.01 209.7,-83.47"/>
<polygon fill="#63b8ff" stroke="#63b8ff" points="210.78,-86.43 218.88,-79.6 208.28,-79.89 210.78,-86.43"/>
</a>
</g>
</g>
<!-- Node3&#45;&gt;Node2 -->
<g id="edge3_Node000003_Node000002" class="edge">
<title>Node3&#45;&gt;Node2</title>
<g id="a_edge3_Node000003_Node000002"><a xlink:title=" ">
<path fill="none" stroke="#63b8ff" d="M297.04,-187.96C315.37,-194.61 336.62,-202.18 356,-208.75 361.84,-210.73 368,-212.76 374.09,-214.73"/>
<polygon fill="#63b8ff" stroke="#63b8ff" points="372.62,-218.25 383.21,-217.98 374.76,-211.59 372.62,-218.25"/>
</a>
</g>
</g>
<!-- Node4 -->
<g id="Node000004" class="node">
<title>Node4</title>
<g id="a_Node000004"><a xlink:href="classmath_1_1Vector3D.html#ac86c5f9ee96342aed93b22387a86e247" target="_top" xlink:title="Calcule le produit scalaire avec un autre vecteur.">
<polygon fill="white" stroke="#666666" points="476.62,-200.12 363.12,-200.12 363.12,-179.38 476.62,-179.38 476.62,-200.12"/>
<text text-anchor="middle" x="419.88" y="-186.62" font-family="Helvetica,sans-Serif" font-size="10.00">math::Vector3D::dot</text>
</a>
</g>
</g>
<!-- Node3&#45;&gt;Node4 -->
<g id="edge4_Node000003_Node000004" class="edge">
<title>Node3&#45;&gt;Node4</title>
<g id="a_edge4_Node000003_Node000004"><a xlink:title=" ">
<path fill="none" stroke="#63b8ff" d="M320.37,-178.64C330.84,-179.82 341.61,-181.04 352.01,-182.21"/>
<polygon fill="#63b8ff" stroke="#63b8ff" points="351.36,-185.77 361.69,-183.41 352.15,-178.82 351.36,-185.77"/>
</a>
</g>
</g>
<!-- Node3&#45;&gt;Node5 -->
<g id="edge5_Node000003_Node000005" class="edge">
<title>Node3&#45;&gt;Node5</title>
<g id="a_edge5_Node000003_Node000005"><a xlink:title=" ">
<path fill="none" stroke="#63b8ff" d="M320.33,-159.08C377.39,-149.56 457.85,-136.13 516.39,-126.37"/>
<polygon fill="#63b8ff" stroke="#63b8ff" points="516.76,-129.68 526.05,-124.59 515.61,-122.78 516.76,-129.68"/>
</a>
</g>
</g>
<!-- Node7 -->
<g id="Node000007" class="node">
<title>Node7</title>
<g id="a_Node000007"><a xlink:href="classraytracer_1_1Camera.html#a8afe32e5da7b2f482ab823a45ef428c0" target="_top" xlink:title="Calcule la direction d’un rayon depuis la caméra vers un point de l&#39;écran.">
<polygon fill="white" stroke="#666666" points="475.12,-85.5 364.62,-85.5 364.62,-52 475.12,-52 475.12,-85.5"/>
<text text-anchor="start" x="372.62" y="-72" font-family="Helvetica,sans-Serif" font-size="10.00">raytracer::Camera::</text>
<text text-anchor="middle" x="419.88" y="-59.25" font-family="Helvetica,sans-Serif" font-size="10.00">calculateDirection</text>
</a>
</g>
</g>
<!-- Node6&#45;&gt;Node7 -->
<g id="edge8_Node000006_Node000007" class="edge">
<title>Node6&#45;&gt;Node7</title>
<g id="a_edge8_Node000006_Node000007"><a xlink:title=" ">
<path fill="none" stroke="#63b8ff" d="M312.64,-68.75C326.03,-68.75 340.21,-68.75 353.71,-68.75"/>
<polygon fill="#63b8ff" stroke="#63b8ff" points="353.36,-72.25 363.36,-68.75 353.36,-65.25 353.36,-72.25"/>
</a>
</g>
</g>
<!-- Node8 -->
<g id="Node000008" class="node">
<title>Node8</title>
<g id="a_Node000008"><a xlink:href="classraytracer_1_1Camera.html#a94d16e4d450ae1cfbb908623768561b3" target="_top" xlink:title="Calcule la position 3D sur le plan de l&#39;écran à partir des coordonnées (u, v).">
<polygon fill="white" stroke="#666666" points="475.12,-33.5 364.62,-33.5 364.62,0 475.12,0 475.12,-33.5"/>
<text text-anchor="start" x="372.62" y="-20" font-family="Helvetica,sans-Serif" font-size="10.00">raytracer::Camera::</text>
<text text-anchor="middle" x="419.88" y="-7.25" font-family="Helvetica,sans-Serif" font-size="10.00">calculateScreenPos</text>
</a>
</g>
</g>
<!-- Node6&#45;&gt;Node8 -->
<g id="edge10_Node000006_Node000008" class="edge">
<title>Node6&#45;&gt;Node8</title>
<g id="a_edge10_Node000006_Node000008"><a xlink:title=" ">
<path fill="none" stroke="#63b8ff" d="M285.29,-57.98C305.19,-51.83 330.76,-43.94 354.19,-36.71"/>
<polygon fill="#63b8ff" stroke="#63b8ff" points="354.91,-39.84 363.43,-33.55 352.84,-33.16 354.91,-39.84"/>
</a>
</g>
</g>
<!-- Node7&#45;&gt;Node5 -->
<g id="edge9_Node000007_Node000005" class="edge">
<title>Node7&#45;&gt;Node5</title>
<g id="a_edge9_Node000007_Node000005"><a xlink:title=" ">
<path fill="none" stroke="#63b8ff" d="M475.49,-83.11C496.31,-88.59 519.96,-94.81 540.49,-100.2"/>
<polygon fill="#63b8ff" stroke="#63b8ff" points="539.35,-103.79 549.91,-102.94 541.13,-97.02 539.35,-103.79"/>
</a>
</g>
</g>
<!-- Node9 -->
<g id="Node000009" class="node">
<title>Node9</title>
<g id="a_Node000009"><a xlink:href="classraytracer_1_1Rectangle3D.html#a1076e494c43ceb9b232a87ec150b2044" target="_top" xlink:title=" ">
<polygon fill="white" stroke="#666666" points="657.25,-33.5 528.75,-33.5 528.75,0 657.25,0 657.25,-33.5"/>
<text text-anchor="start" x="536.75" y="-20" font-family="Helvetica,sans-Serif" font-size="10.00">raytracer::Rectangle3D</text>
<text text-anchor="middle" x="593" y="-7.25" font-family="Helvetica,sans-Serif" font-size="10.00">::pointAt</text>
</a>
</g>
</g>
<!-- Node8&#45;&gt;Node9 -->
<g id="edge11_Node000008_Node000009" class="edge">
<title>Node8&#45;&gt;Node9</title>
<g id="a_edge11_Node000008_Node000009"><a xlink:title=" ">
<path fill="none" stroke="#63b8ff" d="M475.49,-16.75C488.9,-16.75 503.48,-16.75 517.64,-16.75"/>
<polygon fill="#63b8ff" stroke="#63b8ff" points="517.36,-20.25 527.36,-16.75 517.36,-13.25 517.36,-20.25"/>
</a>
</g>
</g>
</g>
</svg>
