<?xml version="1.0" encoding="UTF-8" standalone="no"?>
<!DOCTYPE svg PUBLIC "-//W3C//DTD SVG 1.1//EN"
 "http://www.w3.org/Graphics/SVG/1.1/DTD/svg11.dtd">
<!-- Generated by graphviz version 8.1.0 (20230707.0739)
 -->
<!-- Title: raytracer::Camera::ray Pages: 1 -->
<svg width="708pt" height="29pt"
 viewBox="0.00 0.00 707.50 28.75" xmlns="http://www.w3.org/2000/svg" xmlns:xlink="http://www.w3.org/1999/xlink">
<g id="graph0" class="graph" transform="scale(1 1) rotate(0) translate(4 24.75)">
<title>raytracer::Camera::ray</title>
<!-- Node1 -->
<g id="Node000001" class="node">
<title>Node1</title>
<g id="a_Node000001"><a xlink:title="Génère un rayon à partir des coordonnées normalisées sur le plan de l&#39;écran.">
<polygon fill="#999999" stroke="#666666" points="699.5,-20.75 573.25,-20.75 573.25,0 699.5,0 699.5,-20.75"/>
<text text-anchor="middle" x="636.38" y="-7.25" font-family="Helvetica,sans-Serif" font-size="10.00">raytracer::Camera::ray</text>
</a>
</g>
</g>
<!-- Node2 -->
<g id="Node000002" class="node">
<title>Node2</title>
<g id="a_Node000002"><a xlink:href="classraytracer_1_1Scene.html#a3e1cc90ae8e645a806ebc45eb6681958" target="_top" xlink:title="Calcule la couleur d&#39;un pixel donné dans l&#39;image.">
<polygon fill="white" stroke="#666666" points="537.25,-20.75 394.5,-20.75 394.5,0 537.25,0 537.25,-20.75"/>
<text text-anchor="middle" x="465.88" y="-7.25" font-family="Helvetica,sans-Serif" font-size="10.00">raytracer::Scene::getColor</text>
</a>
</g>
</g>
<!-- Node1&#45;&gt;Node2 -->
<g id="edge1_Node000001_Node000002" class="edge">
<title>Node1&#45;&gt;Node2</title>
<g id="a_edge1_Node000001_Node000002"><a xlink:title=" ">
<path fill="none" stroke="#63b8ff" d="M562.16,-10.38C554.04,-10.38 545.78,-10.38 537.69,-10.38"/>
<polygon fill="#63b8ff" stroke="#63b8ff" points="562.11,-13.88 572.11,-10.38 562.11,-6.88 562.11,-13.88"/>
</a>
</g>
</g>
<!-- Node3 -->
<g id="Node000003" class="node">
<title>Node3</title>
<g id="a_Node000003"><a xlink:href="classraytracer_1_1Scene.html#acda226b04c50587c0125112e5bfa5e7b" target="_top" xlink:title="Lance le rendu de la scène dans l&#39;image fournie.">
<polygon fill="white" stroke="#666666" points="358.5,-20.75 225.5,-20.75 225.5,0 358.5,0 358.5,-20.75"/>
<text text-anchor="middle" x="292" y="-7.25" font-family="Helvetica,sans-Serif" font-size="10.00">raytracer::Scene::render</text>
</a>
</g>
</g>
<!-- Node2&#45;&gt;Node3 -->
<g id="edge2_Node000002_Node000003" class="edge">
<title>Node2&#45;&gt;Node3</title>
<g id="a_edge2_Node000002_Node000003"><a xlink:title=" ">
<path fill="none" stroke="#63b8ff" d="M383.62,-10.38C375.33,-10.38 366.97,-10.38 358.87,-10.38"/>
<polygon fill="#63b8ff" stroke="#63b8ff" points="383.47,-13.88 393.47,-10.38 383.47,-6.88 383.47,-13.88"/>
</a>
</g>
</g>
<!-- Node4 -->
<g id="Node000004" class="node">
<title>Node4</title>
<g id="a_Node000004"><a xlink:href="classcore_1_1RayTracer.html#a859673b935c3ccddb6c3db5a3710f6fd" target="_top" xlink:title="Lance l&#39;exécution principale du programme.">
<polygon fill="white" stroke="#666666" points="189.5,-20.75 76.75,-20.75 76.75,0 189.5,0 189.5,-20.75"/>
<text text-anchor="middle" x="133.12" y="-7.25" font-family="Helvetica,sans-Serif" font-size="10.00">core::RayTracer::run</text>
</a>
</g>
</g>
<!-- Node3&#45;&gt;Node4 -->
<g id="edge3_Node000003_Node000004" class="edge">
<title>Node3&#45;&gt;Node4</title>
<g id="a_edge3_Node000003_Node000004"><a xlink:title=" ">
<path fill="none" stroke="#63b8ff" d="M214.4,-10.38C206.01,-10.38 197.6,-10.38 189.54,-10.38"/>
<polygon fill="#63b8ff" stroke="#63b8ff" points="214.38,-13.88 224.38,-10.38 214.38,-6.88 214.38,-13.88"/>
</a>
</g>
</g>
<!-- Node5 -->
<g id="Node000005" class="node">
<title>Node5</title>
<g id="a_Node000005"><a xlink:href="Main_8cpp.html#a3c04138a5bfe5d72780bb7e82a18e627" target="_top" xlink:title="Point d&#39;entrée principal du programme.">
<polygon fill="white" stroke="#666666" points="40.75,-20.75 0,-20.75 0,0 40.75,0 40.75,-20.75"/>
<text text-anchor="middle" x="20.38" y="-7.25" font-family="Helvetica,sans-Serif" font-size="10.00">main</text>
</a>
</g>
</g>
<!-- Node4&#45;&gt;Node5 -->
<g id="edge4_Node000004_Node000005" class="edge">
<title>Node4&#45;&gt;Node5</title>
<g id="a_edge4_Node000004_Node000005"><a xlink:title=" ">
<path fill="none" stroke="#63b8ff" d="M65.47,-10.38C56.6,-10.38 48.14,-10.38 41.04,-10.38"/>
<polygon fill="#63b8ff" stroke="#63b8ff" points="65.43,-13.88 75.43,-10.38 65.43,-6.88 65.43,-13.88"/>
</a>
</g>
</g>
</g>
</svg>
