<?xml version="1.0" encoding="UTF-8" standalone="no"?>
<!DOCTYPE svg PUBLIC "-//W3C//DTD SVG 1.1//EN"
 "http://www.w3.org/Graphics/SVG/1.1/DTD/svg11.dtd">
<!-- Generated by graphviz version 8.1.0 (20230707.0739)
 -->
<!-- Title: raytracer::Scene::getLightColor Pages: 1 -->
<svg width="332pt" height="107pt"
 viewBox="0.00 0.00 331.75 106.75" xmlns="http://www.w3.org/2000/svg" xmlns:xlink="http://www.w3.org/1999/xlink">
<g id="graph0" class="graph" transform="scale(1 1) rotate(0) translate(4 102.75)">
<title>raytracer::Scene::getLightColor</title>
<!-- Node1 -->
<g id="Node000001" class="node">
<title>Node1</title>
<g id="a_Node000001"><a xlink:title="Calcule la couleur de la lumière sur une primitive à un point d&#39;intersection donné.">
<polygon fill="#999999" stroke="#666666" points="141.25,-66.12 0,-66.12 0,-32.62 141.25,-32.62 141.25,-66.12"/>
<text text-anchor="start" x="8" y="-52.62" font-family="Helvetica,sans-Serif" font-size="10.00">raytracer::Scene::getLight</text>
<text text-anchor="middle" x="70.62" y="-39.88" font-family="Helvetica,sans-Serif" font-size="10.00">Color</text>
</a>
</g>
</g>
<!-- Node2 -->
<g id="Node000002" class="node">
<title>Node2</title>
<g id="a_Node000002"><a xlink:href="classraytracer_1_1Color.html#af57a11390d98eeb60d1f804f2a85bb72" target="_top" xlink:title=" ">
<polygon fill="white" stroke="#666666" points="314.38,-98.75 186.62,-98.75 186.62,-78 314.38,-78 314.38,-98.75"/>
<text text-anchor="middle" x="250.5" y="-85.25" font-family="Helvetica,sans-Serif" font-size="10.00">raytracer::Color::clamp</text>
</a>
</g>
</g>
<!-- Node1&#45;&gt;Node2 -->
<g id="edge1_Node000001_Node000002" class="edge">
<title>Node1&#45;&gt;Node2</title>
<g id="a_edge1_Node000001_Node000002"><a xlink:title=" ">
<path fill="none" stroke="#63b8ff" d="M141.67,-64.73C157.55,-68.21 174.27,-71.88 189.68,-75.26"/>
<polygon fill="#63b8ff" stroke="#63b8ff" points="188.59,-78.82 199.11,-77.55 190.09,-71.98 188.59,-78.82"/>
</a>
</g>
</g>
<!-- Node3 -->
<g id="Node000003" class="node">
<title>Node3</title>
<g id="a_Node000003"><a xlink:href="classmath_1_1Vector3D.html#ac86c5f9ee96342aed93b22387a86e247" target="_top" xlink:title="Calcule le produit scalaire avec un autre vecteur.">
<polygon fill="white" stroke="#666666" points="307.25,-59.75 193.75,-59.75 193.75,-39 307.25,-39 307.25,-59.75"/>
<text text-anchor="middle" x="250.5" y="-46.25" font-family="Helvetica,sans-Serif" font-size="10.00">math::Vector3D::dot</text>
</a>
</g>
</g>
<!-- Node1&#45;&gt;Node3 -->
<g id="edge2_Node000001_Node000003" class="edge">
<title>Node1&#45;&gt;Node3</title>
<g id="a_edge2_Node000001_Node000003"><a xlink:title=" ">
<path fill="none" stroke="#63b8ff" d="M141.67,-49.38C155.25,-49.38 169.44,-49.38 182.91,-49.38"/>
<polygon fill="#63b8ff" stroke="#63b8ff" points="182.52,-52.88 192.52,-49.38 182.52,-45.88 182.52,-52.88"/>
</a>
</g>
</g>
<!-- Node4 -->
<g id="Node000004" class="node">
<title>Node4</title>
<g id="a_Node000004"><a xlink:href="classmath_1_1Vector3D.html#ae0c26833a0b58f2709884880a02bdc52" target="_top" xlink:title="Normalise le vecteur actuel (modifie en place).">
<polygon fill="white" stroke="#666666" points="323.75,-20.75 177.25,-20.75 177.25,0 323.75,0 323.75,-20.75"/>
<text text-anchor="middle" x="250.5" y="-7.25" font-family="Helvetica,sans-Serif" font-size="10.00">math::Vector3D::normalize</text>
</a>
</g>
</g>
<!-- Node1&#45;&gt;Node4 -->
<g id="edge3_Node000001_Node000004" class="edge">
<title>Node1&#45;&gt;Node4</title>
<g id="a_edge3_Node000001_Node000004"><a xlink:title=" ">
<path fill="none" stroke="#63b8ff" d="M141.67,-34.02C157.55,-30.54 174.27,-26.87 189.68,-23.49"/>
<polygon fill="#63b8ff" stroke="#63b8ff" points="190.09,-26.77 199.11,-21.2 188.59,-19.93 190.09,-26.77"/>
</a>
</g>
</g>
</g>
</svg>
