<?xml version="1.0" encoding="UTF-8" standalone="no"?>
<!DOCTYPE svg PUBLIC "-//W3C//DTD SVG 1.1//EN"
 "http://www.w3.org/Graphics/SVG/1.1/DTD/svg11.dtd">
<!-- Generated by graphviz version 8.1.0 (20230707.0739)
 -->
<!-- Title: raytracer::Parser::parsePlanes Pages: 1 -->
<svg width="626pt" height="42pt"
 viewBox="0.00 0.00 626.25 41.50" xmlns="http://www.w3.org/2000/svg" xmlns:xlink="http://www.w3.org/1999/xlink">
<g id="graph0" class="graph" transform="scale(1 1) rotate(0) translate(4 37.5)">
<title>raytracer::Parser::parsePlanes</title>
<!-- Node1 -->
<g id="Node000001" class="node">
<title>Node1</title>
<g id="a_Node000001"><a xlink:title=" ">
<polygon fill="#999999" stroke="#666666" points="102.25,-33.5 0,-33.5 0,0 102.25,0 102.25,-33.5"/>
<text text-anchor="start" x="8" y="-20" font-family="Helvetica,sans-Serif" font-size="10.00">raytracer::Parser::</text>
<text text-anchor="middle" x="51.12" y="-7.25" font-family="Helvetica,sans-Serif" font-size="10.00">parsePlanes</text>
</a>
</g>
</g>
<!-- Node2 -->
<g id="Node000002" class="node">
<title>Node2</title>
<g id="a_Node000002"><a xlink:href="classraytracer_1_1PrimitiveFact.html#a5e6ab2f9d4aeb2134676906a9fbe5a08" target="_top" xlink:title=" ">
<polygon fill="white" stroke="#666666" points="268.25,-33.5 138.25,-33.5 138.25,0 268.25,0 268.25,-33.5"/>
<text text-anchor="start" x="146.25" y="-20" font-family="Helvetica,sans-Serif" font-size="10.00">raytracer::PrimitiveFact</text>
<text text-anchor="middle" x="203.25" y="-7.25" font-family="Helvetica,sans-Serif" font-size="10.00">::createPlane</text>
</a>
</g>
</g>
<!-- Node1&#45;&gt;Node2 -->
<g id="edge1_Node000001_Node000002" class="edge">
<title>Node1&#45;&gt;Node2</title>
<g id="a_edge1_Node000001_Node000002"><a xlink:title=" ">
<path fill="none" stroke="#63b8ff" d="M102.53,-16.75C110.41,-16.75 118.69,-16.75 126.98,-16.75"/>
<polygon fill="#63b8ff" stroke="#63b8ff" points="126.85,-20.25 136.85,-16.75 126.85,-13.25 126.85,-20.25"/>
</a>
</g>
</g>
<!-- Node3 -->
<g id="Node000003" class="node">
<title>Node3</title>
<g id="a_Node000003"><a xlink:href="namespaceraytracer.html#a5eda32471807534b237361fc8ecb497d" target="_top" xlink:title=" ">
<polygon fill="white" stroke="#666666" points="454.5,-27.12 304.25,-27.12 304.25,-6.38 454.5,-6.38 454.5,-27.12"/>
<text text-anchor="middle" x="379.38" y="-13.62" font-family="Helvetica,sans-Serif" font-size="10.00">raytracer::parseSinglePlane</text>
</a>
</g>
</g>
<!-- Node2&#45;&gt;Node3 -->
<g id="edge2_Node000002_Node000003" class="edge">
<title>Node2&#45;&gt;Node3</title>
<g id="a_edge2_Node000002_Node000003"><a xlink:title=" ">
<path fill="none" stroke="#63b8ff" d="M268.59,-16.75C276.61,-16.75 284.9,-16.75 293.17,-16.75"/>
<polygon fill="#63b8ff" stroke="#63b8ff" points="293,-20.25 303,-16.75 293,-13.25 293,-20.25"/>
</a>
</g>
</g>
<!-- Node4 -->
<g id="Node000004" class="node">
<title>Node4</title>
<g id="a_Node000004"><a xlink:href="classraytracer_1_1ErrorHandler.html#aada9238fd341b8db1101c7b8d7ea337e" target="_top" xlink:title=" ">
<polygon fill="white" stroke="#666666" points="618.25,-33.5 490.5,-33.5 490.5,0 618.25,0 618.25,-33.5"/>
<text text-anchor="start" x="498.5" y="-20" font-family="Helvetica,sans-Serif" font-size="10.00">raytracer::ErrorHandler</text>
<text text-anchor="middle" x="554.38" y="-7.25" font-family="Helvetica,sans-Serif" font-size="10.00">::report</text>
</a>
</g>
</g>
<!-- Node3&#45;&gt;Node4 -->
<g id="edge3_Node000003_Node000004" class="edge">
<title>Node3&#45;&gt;Node4</title>
<g id="a_edge3_Node000003_Node000004"><a xlink:title=" ">
<path fill="none" stroke="#63b8ff" d="M455,-16.75C463.05,-16.75 471.23,-16.75 479.27,-16.75"/>
<polygon fill="#63b8ff" stroke="#63b8ff" points="479.12,-20.25 489.12,-16.75 479.12,-13.25 479.12,-20.25"/>
</a>
</g>
</g>
</g>
</svg>
