<?xml version="1.0" encoding="UTF-8" standalone="no"?>
<!DOCTYPE svg PUBLIC "-//W3C//DTD SVG 1.1//EN"
 "http://www.w3.org/Graphics/SVG/1.1/DTD/svg11.dtd">
<!-- Generated by graphviz version 8.1.0 (20230707.0739)
 -->
<!-- Title: core::Parser::parseSpheres Pages: 1 -->
<svg width="348pt" height="107pt"
 viewBox="0.00 0.00 348.25 106.75" xmlns="http://www.w3.org/2000/svg" xmlns:xlink="http://www.w3.org/1999/xlink">
<g id="graph0" class="graph" transform="scale(1 1) rotate(0) translate(4 102.75)">
<title>core::Parser::parseSpheres</title>
<!-- Node1 -->
<g id="Node000001" class="node">
<title>Node1</title>
<g id="a_Node000001"><a xlink:title="Parse les sphères depuis un Setting libconfig.">
<polygon fill="#999999" stroke="#666666" points="145,-59.75 0,-59.75 0,-39 145,-39 145,-59.75"/>
<text text-anchor="middle" x="72.5" y="-46.25" font-family="Helvetica,sans-Serif" font-size="10.00">core::Parser::parseSpheres</text>
</a>
</g>
</g>
<!-- Node2 -->
<g id="Node000002" class="node">
<title>Node2</title>
<g id="a_Node000002"><a xlink:href="classcore_1_1Parser.html#a0e784fcb7abfd2acb77227eb7f41299e" target="_top" xlink:title="Parse la rotation depuis un Setting libconfig.">
<polygon fill="white" stroke="#666666" points="334.25,-98.75 187,-98.75 187,-78 334.25,-78 334.25,-98.75"/>
<text text-anchor="middle" x="260.62" y="-85.25" font-family="Helvetica,sans-Serif" font-size="10.00">core::Parser::parseRotation</text>
</a>
</g>
</g>
<!-- Node1&#45;&gt;Node2 -->
<g id="edge1_Node000001_Node000002" class="edge">
<title>Node1&#45;&gt;Node2</title>
<g id="a_edge1_Node000001_Node000002"><a xlink:title=" ">
<path fill="none" stroke="#63b8ff" d="M125.35,-60.24C147.64,-64.91 173.89,-70.41 197.24,-75.3"/>
<polygon fill="#63b8ff" stroke="#63b8ff" points="196.23,-78.88 206.73,-77.5 197.66,-72.03 196.23,-78.88"/>
</a>
</g>
</g>
<!-- Node3 -->
<g id="Node000003" class="node">
<title>Node3</title>
<g id="a_Node000003"><a xlink:href="classcore_1_1Parser.html#a2c5a6c558a3f1d8969d064a6d4a2c272" target="_top" xlink:title="Parse l&#39;échelle (scale) depuis un Setting libconfig.">
<polygon fill="white" stroke="#666666" points="326.75,-59.75 194.5,-59.75 194.5,-39 326.75,-39 326.75,-59.75"/>
<text text-anchor="middle" x="260.62" y="-46.25" font-family="Helvetica,sans-Serif" font-size="10.00">core::Parser::parseScale</text>
</a>
</g>
</g>
<!-- Node1&#45;&gt;Node3 -->
<g id="edge2_Node000001_Node000003" class="edge">
<title>Node1&#45;&gt;Node3</title>
<g id="a_edge2_Node000001_Node000003"><a xlink:title=" ">
<path fill="none" stroke="#63b8ff" d="M145.46,-49.38C157.88,-49.38 170.83,-49.38 183.36,-49.38"/>
<polygon fill="#63b8ff" stroke="#63b8ff" points="183.24,-52.88 193.24,-49.38 183.24,-45.88 183.24,-52.88"/>
</a>
</g>
</g>
<!-- Node4 -->
<g id="Node000004" class="node">
<title>Node4</title>
<g id="a_Node000004"><a xlink:href="classcore_1_1Parser.html#a287c3afa62b684f3aac0620aced380a8" target="_top" xlink:title="Parse la translation depuis un Setting libconfig.">
<polygon fill="white" stroke="#666666" points="340.25,-20.75 181,-20.75 181,0 340.25,0 340.25,-20.75"/>
<text text-anchor="middle" x="260.62" y="-7.25" font-family="Helvetica,sans-Serif" font-size="10.00">core::Parser::parseTranslation</text>
</a>
</g>
</g>
<!-- Node1&#45;&gt;Node4 -->
<g id="edge3_Node000001_Node000004" class="edge">
<title>Node1&#45;&gt;Node4</title>
<g id="a_edge3_Node000001_Node000004"><a xlink:title=" ">
<path fill="none" stroke="#63b8ff" d="M125.35,-38.51C147.64,-33.84 173.89,-28.34 197.24,-23.45"/>
<polygon fill="#63b8ff" stroke="#63b8ff" points="197.66,-26.72 206.73,-21.25 196.23,-19.87 197.66,-26.72"/>
</a>
</g>
</g>
</g>
</svg>
