<?xml version="1.0" encoding="UTF-8" standalone="no"?>
<!DOCTYPE svg PUBLIC "-//W3C//DTD SVG 1.1//EN"
 "http://www.w3.org/Graphics/SVG/1.1/DTD/svg11.dtd">
<!-- Generated by graphviz version 8.1.0 (20230707.0739)
 -->
<!-- Title: raytracer::Color::getG Pages: 1 -->
<svg width="555pt" height="68pt"
 viewBox="0.00 0.00 555.00 67.75" xmlns="http://www.w3.org/2000/svg" xmlns:xlink="http://www.w3.org/1999/xlink">
<g id="graph0" class="graph" transform="scale(1 1) rotate(0) translate(4 63.75)">
<title>raytracer::Color::getG</title>
<!-- Node1 -->
<g id="Node000001" class="node">
<title>Node1</title>
<g id="a_Node000001"><a xlink:title=" ">
<polygon fill="#999999" stroke="#666666" points="547,-39.75 426,-39.75 426,-19 547,-19 547,-39.75"/>
<text text-anchor="middle" x="486.5" y="-26.25" font-family="Helvetica,sans-Serif" font-size="10.00">raytracer::Color::getG</text>
</a>
</g>
</g>
<!-- Node2 -->
<g id="Node000002" class="node">
<title>Node2</title>
<g id="a_Node000002"><a xlink:href="classraytracer_1_1Image.html#abe65792dcbc7154fc9c4673c482c3356" target="_top" xlink:title="Affiche l&#39;image dans la fenêtre SFML.">
<polygon fill="white" stroke="#666666" points="390,-59.75 225.5,-59.75 225.5,-39 390,-39 390,-59.75"/>
<text text-anchor="middle" x="307.75" y="-46.25" font-family="Helvetica,sans-Serif" font-size="10.00">raytracer::Image::displaySFML</text>
</a>
</g>
</g>
<!-- Node1&#45;&gt;Node2 -->
<g id="edge1_Node000001_Node000002" class="edge">
<title>Node1&#45;&gt;Node2</title>
<g id="a_edge1_Node000001_Node000002"><a xlink:title=" ">
<path fill="none" stroke="#63b8ff" d="M414.87,-37.37C406.85,-38.27 398.62,-39.21 390.47,-40.13"/>
<polygon fill="#63b8ff" stroke="#63b8ff" points="415.12,-40.75 424.66,-36.15 414.33,-33.79 415.12,-40.75"/>
</a>
</g>
</g>
<!-- Node5 -->
<g id="Node000005" class="node">
<title>Node5</title>
<g id="a_Node000005"><a xlink:href="Color_8cpp.html#aba7e81ae9d4f890dc3360babae2d2f27" target="_top" xlink:title=" ">
<polygon fill="white" stroke="#666666" points="344.62,-20.75 270.88,-20.75 270.88,0 344.62,0 344.62,-20.75"/>
<text text-anchor="middle" x="307.75" y="-7.25" font-family="Helvetica,sans-Serif" font-size="10.00">operator&lt;&lt;</text>
</a>
</g>
</g>
<!-- Node1&#45;&gt;Node5 -->
<g id="edge4_Node000001_Node000005" class="edge">
<title>Node1&#45;&gt;Node5</title>
<g id="a_edge4_Node000001_Node000005"><a xlink:title=" ">
<path fill="none" stroke="#63b8ff" d="M414.83,-21.78C390.91,-19.21 365.19,-16.44 345.07,-14.28"/>
<polygon fill="#63b8ff" stroke="#63b8ff" points="414.34,-25.35 424.66,-22.94 415.09,-18.39 414.34,-25.35"/>
</a>
</g>
</g>
<!-- Node3 -->
<g id="Node000003" class="node">
<title>Node3</title>
<g id="a_Node000003"><a xlink:href="classcore_1_1RayTracer.html#a859673b935c3ccddb6c3db5a3710f6fd" target="_top" xlink:title="Lance l&#39;exécution principale du programme.">
<polygon fill="white" stroke="#666666" points="189.5,-59.75 76.75,-59.75 76.75,-39 189.5,-39 189.5,-59.75"/>
<text text-anchor="middle" x="133.12" y="-46.25" font-family="Helvetica,sans-Serif" font-size="10.00">core::RayTracer::run</text>
</a>
</g>
</g>
<!-- Node2&#45;&gt;Node3 -->
<g id="edge2_Node000002_Node000003" class="edge">
<title>Node2&#45;&gt;Node3</title>
<g id="a_edge2_Node000002_Node000003"><a xlink:title=" ">
<path fill="none" stroke="#63b8ff" d="M214.5,-49.38C206.04,-49.38 197.65,-49.38 189.67,-49.38"/>
<polygon fill="#63b8ff" stroke="#63b8ff" points="214.24,-52.88 224.24,-49.38 214.24,-45.88 214.24,-52.88"/>
</a>
</g>
</g>
<!-- Node4 -->
<g id="Node000004" class="node">
<title>Node4</title>
<g id="a_Node000004"><a xlink:href="Main_8cpp.html#a3c04138a5bfe5d72780bb7e82a18e627" target="_top" xlink:title="Point d&#39;entrée principal du programme.">
<polygon fill="white" stroke="#666666" points="40.75,-59.75 0,-59.75 0,-39 40.75,-39 40.75,-59.75"/>
<text text-anchor="middle" x="20.38" y="-46.25" font-family="Helvetica,sans-Serif" font-size="10.00">main</text>
</a>
</g>
</g>
<!-- Node3&#45;&gt;Node4 -->
<g id="edge3_Node000003_Node000004" class="edge">
<title>Node3&#45;&gt;Node4</title>
<g id="a_edge3_Node000003_Node000004"><a xlink:title=" ">
<path fill="none" stroke="#63b8ff" d="M65.47,-49.38C56.6,-49.38 48.14,-49.38 41.04,-49.38"/>
<polygon fill="#63b8ff" stroke="#63b8ff" points="65.43,-52.88 75.43,-49.38 65.43,-45.88 65.43,-52.88"/>
</a>
</g>
</g>
</g>
</svg>
