<?xml version="1.0" encoding="UTF-8" standalone="no"?>
<!DOCTYPE svg PUBLIC "-//W3C//DTD SVG 1.1//EN"
 "http://www.w3.org/Graphics/SVG/1.1/DTD/svg11.dtd">
<!-- Generated by graphviz version 8.1.0 (20230707.0739)
 -->
<!-- Title: raytracer::DirectionalLight::getColorShadow Pages: 1 -->
<svg width="346pt" height="107pt"
 viewBox="0.00 0.00 346.00 106.75" xmlns="http://www.w3.org/2000/svg" xmlns:xlink="http://www.w3.org/1999/xlink">
<g id="graph0" class="graph" transform="scale(1 1) rotate(0) translate(4 102.75)">
<title>raytracer::DirectionalLight::getColorShadow</title>
<!-- Node1 -->
<g id="Node000001" class="node">
<title>Node1</title>
<g id="a_Node000001"><a xlink:title="Calcule la couleur de la lumière en tenant compte des ombres.">
<polygon fill="#999999" stroke="#666666" points="143.5,-66.12 0,-66.12 0,-32.62 143.5,-32.62 143.5,-66.12"/>
<text text-anchor="start" x="8" y="-52.62" font-family="Helvetica,sans-Serif" font-size="10.00">raytracer::DirectionalLight</text>
<text text-anchor="middle" x="71.75" y="-39.88" font-family="Helvetica,sans-Serif" font-size="10.00">::getColorShadow</text>
</a>
</g>
</g>
<!-- Node2 -->
<g id="Node000002" class="node">
<title>Node2</title>
<g id="a_Node000002"><a xlink:href="classraytracer_1_1World.html#ab66d6d418e5ee32c0671023ac942040b" target="_top" xlink:title=" ">
<polygon fill="white" stroke="#666666" points="338,-98.75 179.5,-98.75 179.5,-78 338,-78 338,-98.75"/>
<text text-anchor="middle" x="258.75" y="-85.25" font-family="Helvetica,sans-Serif" font-size="10.00">raytracer::World::getDistance</text>
</a>
</g>
</g>
<!-- Node1&#45;&gt;Node2 -->
<g id="edge1_Node000001_Node000002" class="edge">
<title>Node1&#45;&gt;Node2</title>
<g id="a_edge1_Node000001_Node000002"><a xlink:title=" ">
<path fill="none" stroke="#63b8ff" d="M143.75,-64.34C160.8,-67.94 178.88,-71.75 195.5,-75.25"/>
<polygon fill="#63b8ff" stroke="#63b8ff" points="194.68,-78.87 205.19,-77.5 196.12,-72.02 194.68,-78.87"/>
</a>
</g>
</g>
<!-- Node3 -->
<g id="Node000003" class="node">
<title>Node3</title>
<g id="a_Node000003"><a xlink:href="classraytracer_1_1World.html#a15d271da5ddc1439c0f0c58ab5f7b55c" target="_top" xlink:title=" ">
<polygon fill="white" stroke="#666666" points="315.12,-59.75 202.38,-59.75 202.38,-39 315.12,-39 315.12,-59.75"/>
<text text-anchor="middle" x="258.75" y="-46.25" font-family="Helvetica,sans-Serif" font-size="10.00">raytracer::World::hit</text>
</a>
</g>
</g>
<!-- Node1&#45;&gt;Node3 -->
<g id="edge2_Node000001_Node000003" class="edge">
<title>Node1&#45;&gt;Node3</title>
<g id="a_edge2_Node000001_Node000003"><a xlink:title=" ">
<path fill="none" stroke="#63b8ff" d="M143.75,-49.38C159.24,-49.38 175.59,-49.38 190.92,-49.38"/>
<polygon fill="#63b8ff" stroke="#63b8ff" points="190.88,-52.88 200.88,-49.38 190.88,-45.88 190.88,-52.88"/>
</a>
</g>
</g>
<!-- Node4 -->
<g id="Node000004" class="node">
<title>Node4</title>
<g id="a_Node000004"><a xlink:href="classmath_1_1Vector3D.html#ae0c26833a0b58f2709884880a02bdc52" target="_top" xlink:title="Normalise le vecteur actuel (modifie en place).">
<polygon fill="white" stroke="#666666" points="332,-20.75 185.5,-20.75 185.5,0 332,0 332,-20.75"/>
<text text-anchor="middle" x="258.75" y="-7.25" font-family="Helvetica,sans-Serif" font-size="10.00">math::Vector3D::normalize</text>
</a>
</g>
</g>
<!-- Node1&#45;&gt;Node4 -->
<g id="edge3_Node000001_Node000004" class="edge">
<title>Node1&#45;&gt;Node4</title>
<g id="a_edge3_Node000001_Node000004"><a xlink:title=" ">
<path fill="none" stroke="#63b8ff" d="M143.75,-34.41C160.8,-30.81 178.88,-27 195.5,-23.5"/>
<polygon fill="#63b8ff" stroke="#63b8ff" points="196.12,-26.73 205.19,-21.25 194.68,-19.88 196.12,-26.73"/>
</a>
</g>
</g>
</g>
</svg>
