<?xml version="1.0" encoding="UTF-8" standalone="no"?>
<!DOCTYPE svg PUBLIC "-//W3C//DTD SVG 1.1//EN"
 "http://www.w3.org/Graphics/SVG/1.1/DTD/svg11.dtd">
<!-- Generated by graphviz version 8.1.0 (20230707.0739)
 -->
<!-- Title: raytracer::ArgumentError Pages: 1 -->
<svg width="139pt" height="177pt"
 viewBox="0.00 0.00 139.00 176.75" xmlns="http://www.w3.org/2000/svg" xmlns:xlink="http://www.w3.org/1999/xlink">
<g id="graph0" class="graph" transform="scale(1 1) rotate(0) translate(4 172.75)">
<title>raytracer::ArgumentError</title>
<!-- Node1 -->
<g id="Node000001" class="node">
<title>Node1</title>
<g id="a_Node000001"><a xlink:title="Exception levée lors d&#39;une erreur dans les arguments d&#39;une fonction.">
<polygon fill="#999999" stroke="none" points="131,-68 0,-68 0,0 131,0 131,-68"/>
<text text-anchor="start" x="4.75" y="-54.5" font-family="Helvetica,sans-Serif" font-size="10.00">raytracer::ArgumentError</text>
<text text-anchor="start" x="64" y="-38.5" font-family="Helvetica,sans-Serif" font-size="10.00"> </text>
<text text-anchor="start" x="11.88" y="-22.5" font-family="Helvetica,sans-Serif" font-size="10.00">+</text>
<text text-anchor="start" x="32" y="-22.5" font-family="Helvetica,sans-Serif" font-size="10.00">ArgumentError()</text>
<text text-anchor="start" x="11.88" y="-6.5" font-family="Helvetica,sans-Serif" font-size="10.00">+</text>
<text text-anchor="start" x="32" y="-6.5" font-family="Helvetica,sans-Serif" font-size="10.00">what()</text>
<polygon fill="#666666" stroke="#666666" points="0,-50 0,-50 131,-50 131,-50 0,-50"/>
<polygon fill="#666666" stroke="#666666" points="0,-34 0,-34 131,-34 131,-34 0,-34"/>
<polygon fill="none" stroke="#666666" points="0,0 0,-68 131,-68 131,0 0,0"/>
</a>
</g>
</g>
<!-- Node2 -->
<g id="Node000002" class="node">
<title>Node2</title>
<g id="a_Node000002"><a xlink:title=" ">
<polygon fill="white" stroke="none" points="61.5,-168.75 3.5,-168.75 3.5,-116.75 61.5,-116.75 61.5,-168.75"/>
<text text-anchor="start" x="8.5" y="-155.25" font-family="Helvetica,sans-Serif" font-size="10.00">exception</text>
<text text-anchor="start" x="31" y="-139.25" font-family="Helvetica,sans-Serif" font-size="10.00"> </text>
<text text-anchor="start" x="31" y="-123.25" font-family="Helvetica,sans-Serif" font-size="10.00"> </text>
<polygon fill="#666666" stroke="#666666" points="3.5,-150.75 3.5,-150.75 61.5,-150.75 61.5,-150.75 3.5,-150.75"/>
<polygon fill="#666666" stroke="#666666" points="3.5,-134.75 3.5,-134.75 61.5,-134.75 61.5,-134.75 3.5,-134.75"/>
<polygon fill="none" stroke="#666666" points="3.5,-116.75 3.5,-168.75 61.5,-168.75 61.5,-116.75 3.5,-116.75"/>
</a>
</g>
</g>
<!-- Node2&#45;&gt;Node1 -->
<g id="edge1_Node000001_Node000002" class="edge">
<title>Node2&#45;&gt;Node1</title>
<g id="a_edge1_Node000001_Node000002"><a xlink:title=" ">
<path fill="none" stroke="#63b8ff" d="M43.29,-106.86C47.18,-94.27 51.55,-80.11 55.39,-67.72"/>
<polygon fill="none" stroke="#63b8ff" points="39.76,-105.4 40.15,-115.99 46.45,-107.47 39.76,-105.4"/>
</a>
</g>
</g>
<!-- Node3 -->
<g id="Node000003" class="node">
<title>Node3</title>
<g id="a_Node000003"><a xlink:title=" ">
<polygon fill="white" stroke="none" points="117,-168.75 80,-168.75 80,-116.75 117,-116.75 117,-168.75"/>
<text text-anchor="start" x="84.62" y="-155.25" font-family="Helvetica,sans-Serif" font-size="10.00">string</text>
<text text-anchor="start" x="97" y="-139.25" font-family="Helvetica,sans-Serif" font-size="10.00"> </text>
<text text-anchor="start" x="97" y="-123.25" font-family="Helvetica,sans-Serif" font-size="10.00"> </text>
<polygon fill="#666666" stroke="#666666" points="80,-150.75 80,-150.75 117,-150.75 117,-150.75 80,-150.75"/>
<polygon fill="#666666" stroke="#666666" points="80,-134.75 80,-134.75 117,-134.75 117,-134.75 80,-134.75"/>
<polygon fill="none" stroke="#666666" points="80,-116.75 80,-168.75 117,-168.75 117,-116.75 80,-116.75"/>
</a>
</g>
</g>
<!-- Node3&#45;&gt;Node1 -->
<g id="edge2_Node000001_Node000003" class="edge">
<title>Node3&#45;&gt;Node1</title>
<g id="a_edge2_Node000001_Node000003"><a xlink:title=" ">
<path fill="none" stroke="#63b8ff" d="M90.85,-116.99C87.45,-106 83.34,-92.7 79.43,-80.05"/>
<polygon fill="none" stroke="#63b8ff" points="79.42,-80.04 73.83,-75.49 75.88,-68.58 81.47,-73.13 79.42,-80.04"/>
</a>
</g>
<text text-anchor="middle" x="102.88" y="-89.25" font-family="Helvetica,sans-Serif" font-size="10.00" fill="grey"> &#45;mText</text>
</g>
</g>
</svg>
