<?xml version="1.0" encoding="UTF-8" standalone="no"?>
<!DOCTYPE svg PUBLIC "-//W3C//DTD SVG 1.1//EN"
 "http://www.w3.org/Graphics/SVG/1.1/DTD/svg11.dtd">
<!-- Generated by graphviz version 8.1.0 (20230707.0739)
 -->
<!-- Title: raytracer::Sphere Pages: 1 -->
<svg width="115pt" height="468pt"
 viewBox="0.00 0.00 115.00 468.00" xmlns="http://www.w3.org/2000/svg" xmlns:xlink="http://www.w3.org/1999/xlink">
<g id="graph0" class="graph" transform="scale(1 1) rotate(0) translate(4 464)">
<title>raytracer::Sphere</title>
<!-- Node1 -->
<g id="Node000001" class="node">
<title>Node1</title>
<g id="a_Node000001"><a xlink:title="Représente une sphère dans la scène 3D pour le moteur de raytracing.">
<polygon fill="#999999" stroke="none" points="104,-212 3,-212 3,0 104,0 104,-212"/>
<text text-anchor="start" x="11.5" y="-198.5" font-family="Helvetica,sans-Serif" font-size="10.00">raytracer::Sphere</text>
<text text-anchor="start" x="6.88" y="-182.5" font-family="Helvetica,sans-Serif" font-size="10.00">+</text>
<text text-anchor="start" x="19" y="-182.5" font-family="Helvetica,sans-Serif" font-size="10.00">mX</text>
<text text-anchor="start" x="6.88" y="-166.5" font-family="Helvetica,sans-Serif" font-size="10.00">+</text>
<text text-anchor="start" x="19" y="-166.5" font-family="Helvetica,sans-Serif" font-size="10.00">mY</text>
<text text-anchor="start" x="6.88" y="-150.5" font-family="Helvetica,sans-Serif" font-size="10.00">+</text>
<text text-anchor="start" x="19" y="-150.5" font-family="Helvetica,sans-Serif" font-size="10.00">mZ</text>
<text text-anchor="start" x="6.88" y="-134.5" font-family="Helvetica,sans-Serif" font-size="10.00">+</text>
<text text-anchor="start" x="19" y="-134.5" font-family="Helvetica,sans-Serif" font-size="10.00">mRadius</text>
<text text-anchor="start" x="6.88" y="-118.5" font-family="Helvetica,sans-Serif" font-size="10.00">+</text>
<text text-anchor="start" x="19" y="-118.5" font-family="Helvetica,sans-Serif" font-size="10.00">mColor</text>
<text text-anchor="start" x="6.88" y="-102.5" font-family="Helvetica,sans-Serif" font-size="10.00">+</text>
<text text-anchor="start" x="19" y="-102.5" font-family="Helvetica,sans-Serif" font-size="10.00">mAllMatrix</text>
<text text-anchor="start" x="6.88" y="-86.5" font-family="Helvetica,sans-Serif" font-size="10.00">+</text>
<text text-anchor="start" x="19" y="-86.5" font-family="Helvetica,sans-Serif" font-size="10.00">mVectorRotation</text>
<text text-anchor="start" x="6.88" y="-70.5" font-family="Helvetica,sans-Serif" font-size="10.00">+</text>
<text text-anchor="start" x="19" y="-70.5" font-family="Helvetica,sans-Serif" font-size="10.00">Sphere()</text>
<text text-anchor="start" x="6.88" y="-54.5" font-family="Helvetica,sans-Serif" font-size="10.00">+</text>
<text text-anchor="start" x="19" y="-54.5" font-family="Helvetica,sans-Serif" font-size="10.00">Sphere()</text>
<text text-anchor="start" x="6.88" y="-38.5" font-family="Helvetica,sans-Serif" font-size="10.00">+</text>
<text text-anchor="start" x="19" y="-38.5" font-family="Helvetica,sans-Serif" font-size="10.00">~Sphere()</text>
<text text-anchor="start" x="6.88" y="-22.5" font-family="Helvetica,sans-Serif" font-size="10.00">+</text>
<text text-anchor="start" x="19" y="-22.5" font-family="Helvetica,sans-Serif" font-size="10.00">hits()</text>
<text text-anchor="start" x="6.88" y="-6.5" font-family="Helvetica,sans-Serif" font-size="10.00">+</text>
<text text-anchor="start" x="19" y="-6.5" font-family="Helvetica,sans-Serif" font-size="10.00">getNormal()</text>
<polygon fill="#666666" stroke="#666666" points="3,-194 3,-194 104,-194 104,-194 3,-194"/>
<polygon fill="#666666" stroke="#666666" points="3,-82 3,-82 17,-82 17,-82 3,-82"/>
<polygon fill="#666666" stroke="#666666" points="17,-82 17,-82 104,-82 104,-82 17,-82"/>
<polygon fill="none" stroke="#666666" points="3,0 3,-212 104,-212 104,0 3,0"/>
</a>
</g>
</g>
<!-- Node2 -->
<g id="Node000002" class="node">
<title>Node2</title>
<g id="a_Node000002"><a xlink:href="classraytracer_1_1IPrimitive.html" target="_top" xlink:title="Interface de base pour les primitives géométriques dans le moteur de raytracing.">
<polygon fill="white" stroke="none" points="107,-460 0,-460 0,-248 107,-248 107,-460"/>
<text text-anchor="start" x="4.75" y="-446.5" font-family="Helvetica,sans-Serif" font-size="10.00">raytracer::IPrimitive</text>
<text text-anchor="start" x="5.88" y="-430.5" font-family="Helvetica,sans-Serif" font-size="10.00">+</text>
<text text-anchor="start" x="20" y="-430.5" font-family="Helvetica,sans-Serif" font-size="10.00">mBaseColor</text>
<text text-anchor="start" x="5.88" y="-414.5" font-family="Helvetica,sans-Serif" font-size="10.00">+</text>
<text text-anchor="start" x="20" y="-414.5" font-family="Helvetica,sans-Serif" font-size="10.00">mBaseCenter</text>
<text text-anchor="start" x="5.88" y="-398.5" font-family="Helvetica,sans-Serif" font-size="10.00">+</text>
<text text-anchor="start" x="20" y="-398.5" font-family="Helvetica,sans-Serif" font-size="10.00">mBaseRadius</text>
<text text-anchor="start" x="5.88" y="-382.5" font-family="Helvetica,sans-Serif" font-size="10.00">+</text>
<text text-anchor="start" x="20" y="-382.5" font-family="Helvetica,sans-Serif" font-size="10.00">mBaseAxis</text>
<text text-anchor="start" x="5.88" y="-366.5" font-family="Helvetica,sans-Serif" font-size="10.00">+</text>
<text text-anchor="start" x="20" y="-366.5" font-family="Helvetica,sans-Serif" font-size="10.00">mBasePosition</text>
<text text-anchor="start" x="5.88" y="-350.5" font-family="Helvetica,sans-Serif" font-size="10.00">+</text>
<text text-anchor="start" x="20" y="-350.5" font-family="Helvetica,sans-Serif" font-size="10.00">mBaseHeight</text>
<text text-anchor="start" x="5.88" y="-334.5" font-family="Helvetica,sans-Serif" font-size="10.00">+</text>
<text text-anchor="start" x="20" y="-334.5" font-family="Helvetica,sans-Serif" font-size="10.00">mBaseAllMatrix</text>
<text text-anchor="start" x="5.88" y="-318.5" font-family="Helvetica,sans-Serif" font-size="10.00">+</text>
<text text-anchor="start" x="20" y="-318.5" font-family="Helvetica,sans-Serif" font-size="10.00">mBaseRotation</text>
<text text-anchor="start" x="5.88" y="-302.5" font-family="Helvetica,sans-Serif" font-size="10.00">+</text>
<text text-anchor="start" x="20" y="-302.5" font-family="Helvetica,sans-Serif" font-size="10.00">IPrimitive()</text>
<text text-anchor="start" x="5.88" y="-286.5" font-family="Helvetica,sans-Serif" font-size="10.00">+</text>
<text text-anchor="start" x="20" y="-286.5" font-family="Helvetica,sans-Serif" font-size="10.00">~IPrimitive()</text>
<text text-anchor="start" x="5.88" y="-270.5" font-family="Helvetica,sans-Serif" font-size="10.00">+</text>
<text text-anchor="start" x="20" y="-270.5" font-family="Helvetica,sans-Serif" font-size="10.00">hits()</text>
<text text-anchor="start" x="5.88" y="-254.5" font-family="Helvetica,sans-Serif" font-size="10.00">+</text>
<text text-anchor="start" x="20" y="-254.5" font-family="Helvetica,sans-Serif" font-size="10.00">getNormal()</text>
<polygon fill="#666666" stroke="#666666" points="0,-442 0,-442 107,-442 107,-442 0,-442"/>
<polygon fill="#666666" stroke="#666666" points="0,-314 0,-314 18,-314 18,-314 0,-314"/>
<polygon fill="#666666" stroke="#666666" points="18,-314 18,-314 107,-314 107,-314 18,-314"/>
<polygon fill="none" stroke="#666666" points="0,-248 0,-460 107,-460 107,-248 0,-248"/>
</a>
</g>
</g>
<!-- Node2&#45;&gt;Node1 -->
<g id="edge1_Node000001_Node000002" class="edge">
<title>Node2&#45;&gt;Node1</title>
<g id="a_edge1_Node000001_Node000002"><a xlink:title=" ">
<path fill="none" stroke="#63b8ff" d="M53.5,-237.55C53.5,-229.02 53.5,-220.44 53.5,-211.98"/>
<polygon fill="none" stroke="#63b8ff" points="50,-237.32 53.5,-247.32 57,-237.32 50,-237.32"/>
</a>
</g>
</g>
</g>
</svg>
