<?xml version="1.0" encoding="UTF-8" standalone="no"?>
<!DOCTYPE svg PUBLIC "-//W3C//DTD SVG 1.1//EN"
 "http://www.w3.org/Graphics/SVG/1.1/DTD/svg11.dtd">
<!-- Generated by graphviz version 8.1.0 (20230707.0739)
 -->
<!-- Title: raytracer::ParseError Pages: 1 -->
<svg width="126pt" height="177pt"
 viewBox="0.00 0.00 125.75 176.75" xmlns="http://www.w3.org/2000/svg" xmlns:xlink="http://www.w3.org/1999/xlink">
<g id="graph0" class="graph" transform="scale(1 1) rotate(0) translate(4 172.75)">
<title>raytracer::ParseError</title>
<!-- Node1 -->
<g id="Node000001" class="node">
<title>Node1</title>
<g id="a_Node000001"><a xlink:title="Exception levée lors d&#39;une erreur de parsing (analyse de scène, etc.).">
<polygon fill="#999999" stroke="none" points="116.5,-68 7.5,-68 7.5,0 116.5,0 116.5,-68"/>
<text text-anchor="start" x="12.12" y="-54.5" font-family="Helvetica,sans-Serif" font-size="10.00">raytracer::ParseError</text>
<text text-anchor="start" x="60.5" y="-38.5" font-family="Helvetica,sans-Serif" font-size="10.00"> </text>
<text text-anchor="start" x="19.38" y="-22.5" font-family="Helvetica,sans-Serif" font-size="10.00">+</text>
<text text-anchor="start" x="39.5" y="-22.5" font-family="Helvetica,sans-Serif" font-size="10.00">ParseError()</text>
<text text-anchor="start" x="19.38" y="-6.5" font-family="Helvetica,sans-Serif" font-size="10.00">+</text>
<text text-anchor="start" x="39.5" y="-6.5" font-family="Helvetica,sans-Serif" font-size="10.00">what()</text>
<polygon fill="#666666" stroke="#666666" points="7.5,-50 7.5,-50 116.5,-50 116.5,-50 7.5,-50"/>
<polygon fill="#666666" stroke="#666666" points="7.5,-34 7.5,-34 116.5,-34 116.5,-34 7.5,-34"/>
<polygon fill="none" stroke="#666666" points="7.5,0 7.5,-68 116.5,-68 116.5,0 7.5,0"/>
</a>
</g>
</g>
<!-- Node2 -->
<g id="Node000002" class="node">
<title>Node2</title>
<g id="a_Node000002"><a xlink:title=" ">
<polygon fill="white" stroke="none" points="58,-168.75 0,-168.75 0,-116.75 58,-116.75 58,-168.75"/>
<text text-anchor="start" x="5" y="-155.25" font-family="Helvetica,sans-Serif" font-size="10.00">exception</text>
<text text-anchor="start" x="27.5" y="-139.25" font-family="Helvetica,sans-Serif" font-size="10.00"> </text>
<text text-anchor="start" x="27.5" y="-123.25" font-family="Helvetica,sans-Serif" font-size="10.00"> </text>
<polygon fill="#666666" stroke="#666666" points="0,-150.75 0,-150.75 58,-150.75 58,-150.75 0,-150.75"/>
<polygon fill="#666666" stroke="#666666" points="0,-134.75 0,-134.75 58,-134.75 58,-134.75 0,-134.75"/>
<polygon fill="none" stroke="#666666" points="0,-116.75 0,-168.75 58,-168.75 58,-116.75 0,-116.75"/>
</a>
</g>
</g>
<!-- Node2&#45;&gt;Node1 -->
<g id="edge1_Node000001_Node000002" class="edge">
<title>Node2&#45;&gt;Node1</title>
<g id="a_edge1_Node000001_Node000002"><a xlink:title=" ">
<path fill="none" stroke="#63b8ff" d="M39.79,-106.86C43.68,-94.27 48.05,-80.11 51.89,-67.72"/>
<polygon fill="none" stroke="#63b8ff" points="36.26,-105.4 36.65,-115.99 42.95,-107.47 36.26,-105.4"/>
</a>
</g>
</g>
<!-- Node3 -->
<g id="Node000003" class="node">
<title>Node3</title>
<g id="a_Node000003"><a xlink:title=" ">
<polygon fill="white" stroke="none" points="113.5,-168.75 76.5,-168.75 76.5,-116.75 113.5,-116.75 113.5,-168.75"/>
<text text-anchor="start" x="81.12" y="-155.25" font-family="Helvetica,sans-Serif" font-size="10.00">string</text>
<text text-anchor="start" x="93.5" y="-139.25" font-family="Helvetica,sans-Serif" font-size="10.00"> </text>
<text text-anchor="start" x="93.5" y="-123.25" font-family="Helvetica,sans-Serif" font-size="10.00"> </text>
<polygon fill="#666666" stroke="#666666" points="76.5,-150.75 76.5,-150.75 113.5,-150.75 113.5,-150.75 76.5,-150.75"/>
<polygon fill="#666666" stroke="#666666" points="76.5,-134.75 76.5,-134.75 113.5,-134.75 113.5,-134.75 76.5,-134.75"/>
<polygon fill="none" stroke="#666666" points="76.5,-116.75 76.5,-168.75 113.5,-168.75 113.5,-116.75 76.5,-116.75"/>
</a>
</g>
</g>
<!-- Node3&#45;&gt;Node1 -->
<g id="edge2_Node000001_Node000003" class="edge">
<title>Node3&#45;&gt;Node1</title>
<g id="a_edge2_Node000001_Node000003"><a xlink:title=" ">
<path fill="none" stroke="#63b8ff" d="M87.35,-116.99C83.95,-106 79.84,-92.7 75.93,-80.05"/>
<polygon fill="none" stroke="#63b8ff" points="75.92,-80.04 70.33,-75.49 72.38,-68.58 77.97,-73.13 75.92,-80.04"/>
</a>
</g>
<text text-anchor="middle" x="99.38" y="-89.25" font-family="Helvetica,sans-Serif" font-size="10.00" fill="grey"> &#45;mText</text>
</g>
</g>
</svg>
