<?xml version="1.0" encoding="UTF-8" standalone="no"?>
<!DOCTYPE svg PUBLIC "-//W3C//DTD SVG 1.1//EN"
 "http://www.w3.org/Graphics/SVG/1.1/DTD/svg11.dtd">
<!-- Generated by graphviz version 8.1.0 (20230707.0739)
 -->
<!-- Title: raytracer::Cone Pages: 1 -->
<svg width="615pt" height="794pt"
 viewBox="0.00 0.00 614.50 793.75" xmlns="http://www.w3.org/2000/svg" xmlns:xlink="http://www.w3.org/1999/xlink">
<g id="graph0" class="graph" transform="scale(1 1) rotate(0) translate(4 789.75)">
<title>raytracer::Cone</title>
<!-- Node1 -->
<g id="Node000001" class="node">
<title>Node1</title>
<g id="a_Node000001"><a xlink:title="Classe représentant un cône dans un moteur de raytracing.">
<polygon fill="#999999" stroke="none" points="301,-260 214,-260 214,0 301,0 301,-260"/>
<text text-anchor="start" x="220" y="-246.5" font-family="Helvetica,sans-Serif" font-size="10.00">raytracer::Cone</text>
<text text-anchor="start" x="217.88" y="-230.5" font-family="Helvetica,sans-Serif" font-size="10.00">+</text>
<text text-anchor="start" x="230" y="-230.5" font-family="Helvetica,sans-Serif" font-size="10.00">mX</text>
<text text-anchor="start" x="217.88" y="-214.5" font-family="Helvetica,sans-Serif" font-size="10.00">+</text>
<text text-anchor="start" x="230" y="-214.5" font-family="Helvetica,sans-Serif" font-size="10.00">mY</text>
<text text-anchor="start" x="217.88" y="-198.5" font-family="Helvetica,sans-Serif" font-size="10.00">+</text>
<text text-anchor="start" x="230" y="-198.5" font-family="Helvetica,sans-Serif" font-size="10.00">mZ</text>
<text text-anchor="start" x="217.88" y="-182.5" font-family="Helvetica,sans-Serif" font-size="10.00">+</text>
<text text-anchor="start" x="230" y="-182.5" font-family="Helvetica,sans-Serif" font-size="10.00">mRadius</text>
<text text-anchor="start" x="217.88" y="-166.5" font-family="Helvetica,sans-Serif" font-size="10.00">+</text>
<text text-anchor="start" x="230" y="-166.5" font-family="Helvetica,sans-Serif" font-size="10.00">mHeight</text>
<text text-anchor="start" x="217.88" y="-150.5" font-family="Helvetica,sans-Serif" font-size="10.00">+</text>
<text text-anchor="start" x="230" y="-150.5" font-family="Helvetica,sans-Serif" font-size="10.00">mAllMatrix</text>
<text text-anchor="start" x="217.88" y="-134.5" font-family="Helvetica,sans-Serif" font-size="10.00">+</text>
<text text-anchor="start" x="230" y="-134.5" font-family="Helvetica,sans-Serif" font-size="10.00">Cone()</text>
<text text-anchor="start" x="217.88" y="-118.5" font-family="Helvetica,sans-Serif" font-size="10.00">+</text>
<text text-anchor="start" x="230" y="-118.5" font-family="Helvetica,sans-Serif" font-size="10.00">Cone()</text>
<text text-anchor="start" x="217.88" y="-102.5" font-family="Helvetica,sans-Serif" font-size="10.00">+</text>
<text text-anchor="start" x="230" y="-102.5" font-family="Helvetica,sans-Serif" font-size="10.00">~Cone()</text>
<text text-anchor="start" x="217.88" y="-86.5" font-family="Helvetica,sans-Serif" font-size="10.00">+</text>
<text text-anchor="start" x="230" y="-86.5" font-family="Helvetica,sans-Serif" font-size="10.00">hits()</text>
<text text-anchor="start" x="217.88" y="-70.5" font-family="Helvetica,sans-Serif" font-size="10.00">+</text>
<text text-anchor="start" x="230" y="-70.5" font-family="Helvetica,sans-Serif" font-size="10.00">rotateVector()</text>
<text text-anchor="start" x="217.88" y="-54.5" font-family="Helvetica,sans-Serif" font-size="10.00">+</text>
<text text-anchor="start" x="230" y="-54.5" font-family="Helvetica,sans-Serif" font-size="10.00">rotateX()</text>
<text text-anchor="start" x="217.88" y="-38.5" font-family="Helvetica,sans-Serif" font-size="10.00">+</text>
<text text-anchor="start" x="230" y="-38.5" font-family="Helvetica,sans-Serif" font-size="10.00">rotateY()</text>
<text text-anchor="start" x="217.88" y="-22.5" font-family="Helvetica,sans-Serif" font-size="10.00">+</text>
<text text-anchor="start" x="230" y="-22.5" font-family="Helvetica,sans-Serif" font-size="10.00">rotateZ()</text>
<text text-anchor="start" x="217.88" y="-6.5" font-family="Helvetica,sans-Serif" font-size="10.00">+</text>
<text text-anchor="start" x="230" y="-6.5" font-family="Helvetica,sans-Serif" font-size="10.00">getNormal()</text>
<polygon fill="#666666" stroke="#666666" points="214,-242 214,-242 301,-242 301,-242 214,-242"/>
<polygon fill="#666666" stroke="#666666" points="214,-146 214,-146 228,-146 228,-146 214,-146"/>
<polygon fill="#666666" stroke="#666666" points="228,-146 228,-146 301,-146 301,-146 228,-146"/>
<polygon fill="none" stroke="#666666" points="214,0 214,-260 301,-260 301,0 214,0"/>
</a>
</g>
</g>
<!-- Node2 -->
<g id="Node000002" class="node">
<title>Node2</title>
<g id="a_Node000002"><a xlink:href="classraytracer_1_1IPrimitive.html" target="_top" xlink:title="Interface de base pour les primitives géométriques dans le moteur de raytracing.">
<polygon fill="white" stroke="none" points="311,-429 204,-429 204,-297 311,-297 311,-429"/>
<text text-anchor="start" x="208.75" y="-415.5" font-family="Helvetica,sans-Serif" font-size="10.00">raytracer::IPrimitive</text>
<text text-anchor="start" x="211.38" y="-399.5" font-family="Helvetica,sans-Serif" font-size="10.00">+</text>
<text text-anchor="start" x="227" y="-399.5" font-family="Helvetica,sans-Serif" font-size="10.00">mBaseRadius</text>
<text text-anchor="start" x="211.38" y="-383.5" font-family="Helvetica,sans-Serif" font-size="10.00">+</text>
<text text-anchor="start" x="227" y="-383.5" font-family="Helvetica,sans-Serif" font-size="10.00">mBasePosition</text>
<text text-anchor="start" x="211.38" y="-367.5" font-family="Helvetica,sans-Serif" font-size="10.00">+</text>
<text text-anchor="start" x="227" y="-367.5" font-family="Helvetica,sans-Serif" font-size="10.00">mBaseHeight</text>
<text text-anchor="start" x="211.38" y="-351.5" font-family="Helvetica,sans-Serif" font-size="10.00">+</text>
<text text-anchor="start" x="227" y="-351.5" font-family="Helvetica,sans-Serif" font-size="10.00">IPrimitive()</text>
<text text-anchor="start" x="211.38" y="-335.5" font-family="Helvetica,sans-Serif" font-size="10.00">+</text>
<text text-anchor="start" x="227" y="-335.5" font-family="Helvetica,sans-Serif" font-size="10.00">~IPrimitive()</text>
<text text-anchor="start" x="211.38" y="-319.5" font-family="Helvetica,sans-Serif" font-size="10.00">+</text>
<text text-anchor="start" x="227" y="-319.5" font-family="Helvetica,sans-Serif" font-size="10.00">hits()</text>
<text text-anchor="start" x="211.38" y="-303.5" font-family="Helvetica,sans-Serif" font-size="10.00">+</text>
<text text-anchor="start" x="227" y="-303.5" font-family="Helvetica,sans-Serif" font-size="10.00">getNormal()</text>
<polygon fill="#666666" stroke="#666666" points="204,-411 204,-411 311,-411 311,-411 204,-411"/>
<polygon fill="#666666" stroke="#666666" points="204,-363 204,-363 225,-363 225,-363 204,-363"/>
<polygon fill="#666666" stroke="#666666" points="225,-363 225,-363 311,-363 311,-363 225,-363"/>
<polygon fill="none" stroke="#666666" points="204,-297 204,-429 311,-429 311,-297 204,-297"/>
</a>
</g>
</g>
<!-- Node2&#45;&gt;Node1 -->
<g id="edge1_Node000001_Node000002" class="edge">
<title>Node2&#45;&gt;Node1</title>
<g id="a_edge1_Node000001_Node000002"><a xlink:title=" ">
<path fill="none" stroke="#63b8ff" d="M257.5,-286.08C257.5,-277.59 257.5,-268.77 257.5,-259.85"/>
<polygon fill="none" stroke="#63b8ff" points="254,-286.04 257.5,-296.04 261,-286.04 254,-286.04"/>
</a>
</g>
</g>
<!-- Node3 -->
<g id="Node000003" class="node">
<title>Node3</title>
<g id="a_Node000003"><a xlink:href="classraytracer_1_1Color.html" target="_top" xlink:title=" ">
<polygon fill="white" stroke="none" points="85,-785.75 0,-785.75 0,-477.75 85,-477.75 85,-785.75"/>
<text text-anchor="start" x="4.62" y="-772.25" font-family="Helvetica,sans-Serif" font-size="10.00">raytracer::Color</text>
<text text-anchor="start" x="6.12" y="-756.25" font-family="Helvetica,sans-Serif" font-size="10.00">&#45;</text>
<text text-anchor="start" x="16" y="-756.25" font-family="Helvetica,sans-Serif" font-size="10.00">_r</text>
<text text-anchor="start" x="6.12" y="-740.25" font-family="Helvetica,sans-Serif" font-size="10.00">&#45;</text>
<text text-anchor="start" x="16" y="-740.25" font-family="Helvetica,sans-Serif" font-size="10.00">_g</text>
<text text-anchor="start" x="6.12" y="-724.25" font-family="Helvetica,sans-Serif" font-size="10.00">&#45;</text>
<text text-anchor="start" x="16" y="-724.25" font-family="Helvetica,sans-Serif" font-size="10.00">_b</text>
<text text-anchor="start" x="3.88" y="-708.25" font-family="Helvetica,sans-Serif" font-size="10.00">+</text>
<text text-anchor="start" x="16" y="-708.25" font-family="Helvetica,sans-Serif" font-size="10.00">Color()</text>
<text text-anchor="start" x="3.88" y="-692.25" font-family="Helvetica,sans-Serif" font-size="10.00">+</text>
<text text-anchor="start" x="16" y="-692.25" font-family="Helvetica,sans-Serif" font-size="10.00">Color()</text>
<text text-anchor="start" x="3.88" y="-676.25" font-family="Helvetica,sans-Serif" font-size="10.00">+</text>
<text text-anchor="start" x="16" y="-676.25" font-family="Helvetica,sans-Serif" font-size="10.00">~Color()</text>
<text text-anchor="start" x="3.88" y="-660.25" font-family="Helvetica,sans-Serif" font-size="10.00">+</text>
<text text-anchor="start" x="16" y="-660.25" font-family="Helvetica,sans-Serif" font-size="10.00">operator*()</text>
<text text-anchor="start" x="3.88" y="-644.25" font-family="Helvetica,sans-Serif" font-size="10.00">+</text>
<text text-anchor="start" x="16" y="-644.25" font-family="Helvetica,sans-Serif" font-size="10.00">operator*()</text>
<text text-anchor="start" x="3.88" y="-628.25" font-family="Helvetica,sans-Serif" font-size="10.00">+</text>
<text text-anchor="start" x="16" y="-628.25" font-family="Helvetica,sans-Serif" font-size="10.00">operator*()</text>
<text text-anchor="start" x="3.88" y="-612.25" font-family="Helvetica,sans-Serif" font-size="10.00">+</text>
<text text-anchor="start" x="16" y="-612.25" font-family="Helvetica,sans-Serif" font-size="10.00">operator/=()</text>
<text text-anchor="start" x="3.88" y="-596.25" font-family="Helvetica,sans-Serif" font-size="10.00">+</text>
<text text-anchor="start" x="16" y="-596.25" font-family="Helvetica,sans-Serif" font-size="10.00">operator+=()</text>
<text text-anchor="start" x="3.88" y="-580.25" font-family="Helvetica,sans-Serif" font-size="10.00">+</text>
<text text-anchor="start" x="16" y="-580.25" font-family="Helvetica,sans-Serif" font-size="10.00">operator+=()</text>
<text text-anchor="start" x="3.88" y="-564.25" font-family="Helvetica,sans-Serif" font-size="10.00">+</text>
<text text-anchor="start" x="16" y="-564.25" font-family="Helvetica,sans-Serif" font-size="10.00">operator+()</text>
<text text-anchor="start" x="3.88" y="-548.25" font-family="Helvetica,sans-Serif" font-size="10.00">+</text>
<text text-anchor="start" x="16" y="-548.25" font-family="Helvetica,sans-Serif" font-size="10.00">operator/()</text>
<text text-anchor="start" x="3.88" y="-532.25" font-family="Helvetica,sans-Serif" font-size="10.00">+</text>
<text text-anchor="start" x="16" y="-532.25" font-family="Helvetica,sans-Serif" font-size="10.00">clamp()</text>
<text text-anchor="start" x="3.88" y="-516.25" font-family="Helvetica,sans-Serif" font-size="10.00">+</text>
<text text-anchor="start" x="16" y="-516.25" font-family="Helvetica,sans-Serif" font-size="10.00">getR()</text>
<text text-anchor="start" x="3.88" y="-500.25" font-family="Helvetica,sans-Serif" font-size="10.00">+</text>
<text text-anchor="start" x="16" y="-500.25" font-family="Helvetica,sans-Serif" font-size="10.00">getG()</text>
<text text-anchor="start" x="3.88" y="-484.25" font-family="Helvetica,sans-Serif" font-size="10.00">+</text>
<text text-anchor="start" x="16" y="-484.25" font-family="Helvetica,sans-Serif" font-size="10.00">getB()</text>
<polygon fill="#666666" stroke="#666666" points="0,-767.75 0,-767.75 85,-767.75 85,-767.75 0,-767.75"/>
<polygon fill="#666666" stroke="#666666" points="0,-719.75 0,-719.75 14,-719.75 14,-719.75 0,-719.75"/>
<polygon fill="#666666" stroke="#666666" points="14,-719.75 14,-719.75 85,-719.75 85,-719.75 14,-719.75"/>
<polygon fill="none" stroke="#666666" points="0,-477.75 0,-785.75 85,-785.75 85,-477.75 0,-477.75"/>
</a>
</g>
</g>
<!-- Node3&#45;&gt;Node1 -->
<g id="edge7_Node000001_Node000003" class="edge">
<title>Node3&#45;&gt;Node1</title>
<g id="a_edge7_Node000001_Node000003"><a xlink:title=" ">
<path fill="none" stroke="#63b8ff" d="M76.25,-477.81C79.19,-467.33 82.28,-456.98 85.5,-447 107.69,-378.27 114.08,-360.76 148,-297 165.33,-264.43 187.28,-230.12 206.96,-201.2"/>
<polygon fill="none" stroke="#63b8ff" points="206.8,-201.44 206.9,-194.23 213.59,-191.55 213.49,-198.76 206.8,-201.44"/>
</a>
</g>
<text text-anchor="middle" x="171.75" y="-359.88" font-family="Helvetica,sans-Serif" font-size="10.00" fill="grey"> +mColor</text>
</g>
<!-- Node3&#45;&gt;Node2 -->
<g id="edge2_Node000002_Node000003" class="edge">
<title>Node3&#45;&gt;Node2</title>
<g id="a_edge2_Node000002_Node000003"><a xlink:title=" ">
<path fill="none" stroke="#63b8ff" d="M77.82,-477.79C83.56,-466.79 90.24,-456.36 98,-447 122.29,-417.7 159.62,-397.48 192.06,-384.34"/>
<polygon fill="none" stroke="#63b8ff" points="192.18,-384.29 196.34,-378.4 203.38,-379.97 199.22,-385.86 192.18,-384.29"/>
</a>
</g>
<text text-anchor="middle" x="133.75" y="-450.25" font-family="Helvetica,sans-Serif" font-size="10.00" fill="grey"> +mBaseColor</text>
</g>
<!-- Node4 -->
<g id="Node000004" class="node">
<title>Node4</title>
<g id="a_Node000004"><a xlink:href="classmath_1_1Point3D.html" target="_top" xlink:title="Représente un point 3D. Peut interagir avec Vector3D.">
<polygon fill="white" stroke="none" points="200,-729.75 115,-729.75 115,-533.75 200,-533.75 200,-729.75"/>
<text text-anchor="start" x="122.62" y="-716.25" font-family="Helvetica,sans-Serif" font-size="10.00">math::Point3D</text>
<text text-anchor="start" x="118.88" y="-700.25" font-family="Helvetica,sans-Serif" font-size="10.00">+</text>
<text text-anchor="start" x="131" y="-700.25" font-family="Helvetica,sans-Serif" font-size="10.00">mX</text>
<text text-anchor="start" x="118.88" y="-684.25" font-family="Helvetica,sans-Serif" font-size="10.00">+</text>
<text text-anchor="start" x="131" y="-684.25" font-family="Helvetica,sans-Serif" font-size="10.00">mY</text>
<text text-anchor="start" x="118.88" y="-668.25" font-family="Helvetica,sans-Serif" font-size="10.00">+</text>
<text text-anchor="start" x="131" y="-668.25" font-family="Helvetica,sans-Serif" font-size="10.00">mZ</text>
<text text-anchor="start" x="118.88" y="-652.25" font-family="Helvetica,sans-Serif" font-size="10.00">+</text>
<text text-anchor="start" x="131" y="-652.25" font-family="Helvetica,sans-Serif" font-size="10.00">Point3D()</text>
<text text-anchor="start" x="118.88" y="-636.25" font-family="Helvetica,sans-Serif" font-size="10.00">+</text>
<text text-anchor="start" x="131" y="-636.25" font-family="Helvetica,sans-Serif" font-size="10.00">Point3D()</text>
<text text-anchor="start" x="118.88" y="-620.25" font-family="Helvetica,sans-Serif" font-size="10.00">+</text>
<text text-anchor="start" x="131" y="-620.25" font-family="Helvetica,sans-Serif" font-size="10.00">~Point3D()</text>
<text text-anchor="start" x="118.88" y="-604.25" font-family="Helvetica,sans-Serif" font-size="10.00">+</text>
<text text-anchor="start" x="131" y="-604.25" font-family="Helvetica,sans-Serif" font-size="10.00">operator+()</text>
<text text-anchor="start" x="118.88" y="-588.25" font-family="Helvetica,sans-Serif" font-size="10.00">+</text>
<text text-anchor="start" x="131" y="-588.25" font-family="Helvetica,sans-Serif" font-size="10.00">operator+()</text>
<text text-anchor="start" x="118.88" y="-572.25" font-family="Helvetica,sans-Serif" font-size="10.00">+</text>
<text text-anchor="start" x="131" y="-572.25" font-family="Helvetica,sans-Serif" font-size="10.00">operator+=()</text>
<text text-anchor="start" x="118.88" y="-556.25" font-family="Helvetica,sans-Serif" font-size="10.00">+</text>
<text text-anchor="start" x="131" y="-556.25" font-family="Helvetica,sans-Serif" font-size="10.00">operator&#45;()</text>
<text text-anchor="start" x="118.88" y="-540.25" font-family="Helvetica,sans-Serif" font-size="10.00">+</text>
<text text-anchor="start" x="131" y="-540.25" font-family="Helvetica,sans-Serif" font-size="10.00">operator&#45;()</text>
<polygon fill="#666666" stroke="#666666" points="115,-711.75 115,-711.75 200,-711.75 200,-711.75 115,-711.75"/>
<polygon fill="#666666" stroke="#666666" points="115,-663.75 115,-663.75 129,-663.75 129,-663.75 115,-663.75"/>
<polygon fill="#666666" stroke="#666666" points="129,-663.75 129,-663.75 200,-663.75 200,-663.75 129,-663.75"/>
<polygon fill="none" stroke="#666666" points="115,-533.75 115,-729.75 200,-729.75 200,-533.75 115,-533.75"/>
</a>
</g>
</g>
<!-- Node4&#45;&gt;Node2 -->
<g id="edge3_Node000002_Node000004" class="edge">
<title>Node4&#45;&gt;Node2</title>
<g id="a_edge3_Node000002_Node000004"><a xlink:title=" ">
<path fill="none" stroke="#63b8ff" d="M155.31,-534.03C157.79,-504.96 163.73,-473.71 176.25,-447 181.21,-436.41 188.1,-426.35 195.78,-417.14"/>
<polygon fill="none" stroke="#63b8ff" points="195.8,-417.12 196.8,-409.97 203.78,-408.15 202.78,-415.29 195.8,-417.12"/>
</a>
</g>
<text text-anchor="middle" x="215.12" y="-450.25" font-family="Helvetica,sans-Serif" font-size="10.00" fill="grey"> +mBaseCenter</text>
</g>
<!-- Node5 -->
<g id="Node000005" class="node">
<title>Node5</title>
<g id="a_Node000005"><a xlink:title=" ">
<polygon fill="white" stroke="none" points="275,-657.75 238,-657.75 238,-605.75 275,-605.75 275,-657.75"/>
<text text-anchor="start" x="242.62" y="-644.25" font-family="Helvetica,sans-Serif" font-size="10.00">string</text>
<text text-anchor="start" x="255" y="-628.25" font-family="Helvetica,sans-Serif" font-size="10.00"> </text>
<text text-anchor="start" x="255" y="-612.25" font-family="Helvetica,sans-Serif" font-size="10.00"> </text>
<polygon fill="#666666" stroke="#666666" points="238,-639.75 238,-639.75 275,-639.75 275,-639.75 238,-639.75"/>
<polygon fill="#666666" stroke="#666666" points="238,-623.75 238,-623.75 275,-623.75 275,-623.75 238,-623.75"/>
<polygon fill="none" stroke="#666666" points="238,-605.75 238,-657.75 275,-657.75 275,-605.75 238,-605.75"/>
</a>
</g>
</g>
<!-- Node5&#45;&gt;Node2 -->
<g id="edge4_Node000002_Node000005" class="edge">
<title>Node5&#45;&gt;Node2</title>
<g id="a_edge4_Node000002_Node000005"><a xlink:title=" ">
<path fill="none" stroke="#63b8ff" d="M256.59,-606.13C256.73,-569.1 257,-497.45 257.21,-441.66"/>
<polygon fill="none" stroke="#63b8ff" points="257.21,-441.84 253.23,-435.82 257.25,-429.84 261.23,-435.85 257.21,-441.84"/>
</a>
</g>
<text text-anchor="middle" x="290.5" y="-450.25" font-family="Helvetica,sans-Serif" font-size="10.00" fill="grey"> +mBaseAxis</text>
</g>
<!-- Node6 -->
<g id="Node000006" class="node">
<title>Node6</title>
<g id="a_Node000006"><a xlink:title=" ">
<polygon fill="white" stroke="none" points="401.5,-664.25 293.5,-664.25 293.5,-599.25 401.5,-599.25 401.5,-664.25"/>
<text text-anchor="start" x="298.38" y="-650.75" font-family="Helvetica,sans-Serif" font-size="10.00">map&lt; string, math::</text>
<text text-anchor="start" x="298.38" y="-638" font-family="Helvetica,sans-Serif" font-size="10.00">Matrix&lt; double &gt; &gt;</text>
<text text-anchor="start" x="346" y="-621.75" font-family="Helvetica,sans-Serif" font-size="10.00"> </text>
<text text-anchor="start" x="346" y="-605.75" font-family="Helvetica,sans-Serif" font-size="10.00"> </text>
<polygon fill="#666666" stroke="#666666" points="293.5,-633.25 293.5,-633.25 401.5,-633.25 401.5,-633.25 293.5,-633.25"/>
<polygon fill="#666666" stroke="#666666" points="293.5,-617.25 293.5,-617.25 401.5,-617.25 401.5,-617.25 293.5,-617.25"/>
<polygon fill="none" stroke="#666666" points="293.5,-599.25 293.5,-664.25 401.5,-664.25 401.5,-599.25 293.5,-599.25"/>
</a>
</g>
</g>
<!-- Node6&#45;&gt;Node2 -->
<g id="edge5_Node000002_Node000006" class="edge">
<title>Node6&#45;&gt;Node2</title>
<g id="a_edge5_Node000002_Node000006"><a xlink:title=" ">
<path fill="none" stroke="#63b8ff" d="M348.69,-599.5C349,-561.83 345.88,-497.3 324.5,-447 322.52,-442.34 320.2,-437.73 317.63,-433.21"/>
<polygon fill="none" stroke="#63b8ff" points="317.59,-433.15 311.03,-430.16 311.27,-422.95 317.83,-425.94 317.59,-433.15"/>
</a>
</g>
<text text-anchor="middle" x="372.12" y="-450.25" font-family="Helvetica,sans-Serif" font-size="10.00" fill="grey"> +mBaseAllMatrix</text>
</g>
<!-- Node7 -->
<g id="Node000007" class="node">
<title>Node7</title>
<g id="a_Node000007"><a xlink:href="classmath_1_1Vector3D.html" target="_top" xlink:title="Représente un vecteur 3D avec des opérations vectorielles de base.">
<polygon fill="white" stroke="none" points="554,-761.75 469,-761.75 469,-501.75 554,-501.75 554,-761.75"/>
<text text-anchor="start" x="473.62" y="-748.25" font-family="Helvetica,sans-Serif" font-size="10.00">math::Vector3D</text>
<text text-anchor="start" x="472.88" y="-732.25" font-family="Helvetica,sans-Serif" font-size="10.00">+</text>
<text text-anchor="start" x="485" y="-732.25" font-family="Helvetica,sans-Serif" font-size="10.00">mX</text>
<text text-anchor="start" x="472.88" y="-716.25" font-family="Helvetica,sans-Serif" font-size="10.00">+</text>
<text text-anchor="start" x="485" y="-716.25" font-family="Helvetica,sans-Serif" font-size="10.00">mY</text>
<text text-anchor="start" x="472.88" y="-700.25" font-family="Helvetica,sans-Serif" font-size="10.00">+</text>
<text text-anchor="start" x="485" y="-700.25" font-family="Helvetica,sans-Serif" font-size="10.00">mZ</text>
<text text-anchor="start" x="472.88" y="-684.25" font-family="Helvetica,sans-Serif" font-size="10.00">+</text>
<text text-anchor="start" x="485" y="-684.25" font-family="Helvetica,sans-Serif" font-size="10.00">Vector3D()</text>
<text text-anchor="start" x="472.88" y="-668.25" font-family="Helvetica,sans-Serif" font-size="10.00">+</text>
<text text-anchor="start" x="485" y="-668.25" font-family="Helvetica,sans-Serif" font-size="10.00">Vector3D()</text>
<text text-anchor="start" x="472.88" y="-652.25" font-family="Helvetica,sans-Serif" font-size="10.00">+</text>
<text text-anchor="start" x="485" y="-652.25" font-family="Helvetica,sans-Serif" font-size="10.00">~Vector3D()</text>
<text text-anchor="start" x="472.88" y="-636.25" font-family="Helvetica,sans-Serif" font-size="10.00">+</text>
<text text-anchor="start" x="485" y="-636.25" font-family="Helvetica,sans-Serif" font-size="10.00">length()</text>
<text text-anchor="start" x="472.88" y="-620.25" font-family="Helvetica,sans-Serif" font-size="10.00">+</text>
<text text-anchor="start" x="485" y="-620.25" font-family="Helvetica,sans-Serif" font-size="10.00">dot()</text>
<text text-anchor="start" x="472.88" y="-604.25" font-family="Helvetica,sans-Serif" font-size="10.00">+</text>
<text text-anchor="start" x="485" y="-604.25" font-family="Helvetica,sans-Serif" font-size="10.00">operator+()</text>
<text text-anchor="start" x="472.88" y="-588.25" font-family="Helvetica,sans-Serif" font-size="10.00">+</text>
<text text-anchor="start" x="485" y="-588.25" font-family="Helvetica,sans-Serif" font-size="10.00">operator+=()</text>
<text text-anchor="start" x="472.88" y="-572.25" font-family="Helvetica,sans-Serif" font-size="10.00">+</text>
<text text-anchor="start" x="485" y="-572.25" font-family="Helvetica,sans-Serif" font-size="10.00">operator&#45;()</text>
<text text-anchor="start" x="472.88" y="-556.25" font-family="Helvetica,sans-Serif" font-size="10.00">+</text>
<text text-anchor="start" x="485" y="-556.25" font-family="Helvetica,sans-Serif" font-size="10.00">operator&#45;=()</text>
<text text-anchor="start" x="472.88" y="-540.25" font-family="Helvetica,sans-Serif" font-size="10.00">+</text>
<text text-anchor="start" x="485" y="-540.25" font-family="Helvetica,sans-Serif" font-size="10.00">operator*()</text>
<text text-anchor="start" x="485" y="-524.25" font-family="Helvetica,sans-Serif" font-size="10.00">and 9 more...</text>
<text text-anchor="start" x="472.88" y="-508.25" font-family="Helvetica,sans-Serif" font-size="10.00">+</text>
<text text-anchor="start" x="485" y="-508.25" font-family="Helvetica,sans-Serif" font-size="10.00">normalize()</text>
<polygon fill="#666666" stroke="#666666" points="469,-743.75 469,-743.75 554,-743.75 554,-743.75 469,-743.75"/>
<polygon fill="#666666" stroke="#666666" points="469,-695.75 469,-695.75 483,-695.75 483,-695.75 469,-695.75"/>
<polygon fill="#666666" stroke="#666666" points="483,-695.75 483,-695.75 554,-695.75 554,-695.75 483,-695.75"/>
<polygon fill="none" stroke="#666666" points="469,-501.75 469,-761.75 554,-761.75 554,-501.75 469,-501.75"/>
</a>
</g>
</g>
<!-- Node7&#45;&gt;Node1 -->
<g id="edge8_Node000001_Node000007" class="edge">
<title>Node7&#45;&gt;Node1</title>
<g id="a_edge8_Node000001_Node000007"><a xlink:title=" ">
<path fill="none" stroke="#63b8ff" d="M531.51,-501.79C530.71,-483.05 527.76,-464.27 521.5,-447 479.62,-331.54 375.04,-228.73 310.79,-173.59"/>
<polygon fill="none" stroke="#63b8ff" points="310.68,-173.5 303.52,-172.67 301.53,-165.74 308.69,-166.57 310.68,-173.5"/>
</a>
</g>
<text text-anchor="middle" x="560" y="-359.88" font-family="Helvetica,sans-Serif" font-size="10.00" fill="grey"> +mVectorRotation</text>
</g>
<!-- Node7&#45;&gt;Node2 -->
<g id="edge6_Node000002_Node000007" class="edge">
<title>Node7&#45;&gt;Node2</title>
<g id="a_edge6_Node000002_Node000007"><a xlink:title=" ">
<path fill="none" stroke="#63b8ff" d="M469.01,-516.42C456.1,-491.51 440.02,-466.74 420.5,-447 393.35,-419.55 355.23,-399.45 322.68,-385.92"/>
<polygon fill="none" stroke="#63b8ff" points="322.95,-386.02 315.89,-387.5 311.81,-381.56 318.86,-380.08 322.95,-386.02"/>
</a>
</g>
<text text-anchor="middle" x="474.62" y="-450.25" font-family="Helvetica,sans-Serif" font-size="10.00" fill="grey"> +mBaseRotation</text>
</g>
</g>
</svg>
