<?xml version="1.0" encoding="UTF-8" standalone="no"?>
<!DOCTYPE svg PUBLIC "-//W3C//DTD SVG 1.1//EN"
 "http://www.w3.org/Graphics/SVG/1.1/DTD/svg11.dtd">
<!-- Generated by graphviz version 8.1.0 (20230707.0739)
 -->
<!-- Title: raytracer::ILight Pages: 1 -->
<svg width="352pt" height="446pt"
 viewBox="0.00 0.00 352.00 445.50" xmlns="http://www.w3.org/2000/svg" xmlns:xlink="http://www.w3.org/1999/xlink">
<g id="graph0" class="graph" transform="scale(1 1) rotate(0) translate(4 441.5)">
<title>raytracer::ILight</title>
<!-- Node1 -->
<g id="Node000001" class="node">
<title>Node1</title>
<g id="a_Node000001"><a xlink:title="Interface abstraite représentant une source lumineuse dans la scène.">
<polygon fill="#999999" stroke="none" points="199,-68 92,-68 92,0 199,0 199,-68"/>
<text text-anchor="start" x="106.88" y="-54.5" font-family="Helvetica,sans-Serif" font-size="10.00">raytracer::ILight</text>
<text text-anchor="start" x="144" y="-38.5" font-family="Helvetica,sans-Serif" font-size="10.00"> </text>
<text text-anchor="start" x="95.88" y="-22.5" font-family="Helvetica,sans-Serif" font-size="10.00">+</text>
<text text-anchor="start" x="108" y="-22.5" font-family="Helvetica,sans-Serif" font-size="10.00">~ILight()</text>
<text text-anchor="start" x="95.88" y="-6.5" font-family="Helvetica,sans-Serif" font-size="10.00">+</text>
<text text-anchor="start" x="108" y="-6.5" font-family="Helvetica,sans-Serif" font-size="10.00">getColorShadow()</text>
<polygon fill="#666666" stroke="#666666" points="92,-50 92,-50 199,-50 199,-50 92,-50"/>
<polygon fill="#666666" stroke="#666666" points="92,-34 92,-34 199,-34 199,-34 92,-34"/>
<polygon fill="none" stroke="#666666" points="92,0 92,-68 199,-68 199,0 92,0"/>
</a>
</g>
</g>
<!-- Node2 -->
<g id="Node000002" class="node">
<title>Node2</title>
<g id="a_Node000002"><a xlink:href="classmath_1_1Point3D.html" target="_top" xlink:title="Représente un point 3D. Peut interagir avec Vector3D.">
<polygon fill="white" stroke="none" points="85,-381.5 0,-381.5 0,-185.5 85,-185.5 85,-381.5"/>
<text text-anchor="start" x="7.62" y="-368" font-family="Helvetica,sans-Serif" font-size="10.00">math::Point3D</text>
<text text-anchor="start" x="3.88" y="-352" font-family="Helvetica,sans-Serif" font-size="10.00">+</text>
<text text-anchor="start" x="16" y="-352" font-family="Helvetica,sans-Serif" font-size="10.00">mX</text>
<text text-anchor="start" x="3.88" y="-336" font-family="Helvetica,sans-Serif" font-size="10.00">+</text>
<text text-anchor="start" x="16" y="-336" font-family="Helvetica,sans-Serif" font-size="10.00">mY</text>
<text text-anchor="start" x="3.88" y="-320" font-family="Helvetica,sans-Serif" font-size="10.00">+</text>
<text text-anchor="start" x="16" y="-320" font-family="Helvetica,sans-Serif" font-size="10.00">mZ</text>
<text text-anchor="start" x="3.88" y="-304" font-family="Helvetica,sans-Serif" font-size="10.00">+</text>
<text text-anchor="start" x="16" y="-304" font-family="Helvetica,sans-Serif" font-size="10.00">Point3D()</text>
<text text-anchor="start" x="3.88" y="-288" font-family="Helvetica,sans-Serif" font-size="10.00">+</text>
<text text-anchor="start" x="16" y="-288" font-family="Helvetica,sans-Serif" font-size="10.00">Point3D()</text>
<text text-anchor="start" x="3.88" y="-272" font-family="Helvetica,sans-Serif" font-size="10.00">+</text>
<text text-anchor="start" x="16" y="-272" font-family="Helvetica,sans-Serif" font-size="10.00">~Point3D()</text>
<text text-anchor="start" x="3.88" y="-256" font-family="Helvetica,sans-Serif" font-size="10.00">+</text>
<text text-anchor="start" x="16" y="-256" font-family="Helvetica,sans-Serif" font-size="10.00">operator+()</text>
<text text-anchor="start" x="3.88" y="-240" font-family="Helvetica,sans-Serif" font-size="10.00">+</text>
<text text-anchor="start" x="16" y="-240" font-family="Helvetica,sans-Serif" font-size="10.00">operator+()</text>
<text text-anchor="start" x="3.88" y="-224" font-family="Helvetica,sans-Serif" font-size="10.00">+</text>
<text text-anchor="start" x="16" y="-224" font-family="Helvetica,sans-Serif" font-size="10.00">operator+=()</text>
<text text-anchor="start" x="3.88" y="-208" font-family="Helvetica,sans-Serif" font-size="10.00">+</text>
<text text-anchor="start" x="16" y="-208" font-family="Helvetica,sans-Serif" font-size="10.00">operator&#45;()</text>
<text text-anchor="start" x="3.88" y="-192" font-family="Helvetica,sans-Serif" font-size="10.00">+</text>
<text text-anchor="start" x="16" y="-192" font-family="Helvetica,sans-Serif" font-size="10.00">operator&#45;()</text>
<polygon fill="#666666" stroke="#666666" points="0,-363.5 0,-363.5 85,-363.5 85,-363.5 0,-363.5"/>
<polygon fill="#666666" stroke="#666666" points="0,-315.5 0,-315.5 14,-315.5 14,-315.5 0,-315.5"/>
<polygon fill="#666666" stroke="#666666" points="14,-315.5 14,-315.5 85,-315.5 85,-315.5 14,-315.5"/>
<polygon fill="none" stroke="#666666" points="0,-185.5 0,-381.5 85,-381.5 85,-185.5 0,-185.5"/>
</a>
</g>
</g>
<!-- Node2&#45;&gt;Node1 -->
<g id="edge1_Node000001_Node000002" class="edge">
<title>Node2&#45;&gt;Node1</title>
<g id="a_edge1_Node000001_Node000002"><a xlink:title=" ">
<path fill="none" stroke="#63b8ff" d="M38.49,-185.75C41.12,-152.05 48.87,-115.36 67.25,-86 71.27,-79.57 76.44,-73.79 82.19,-68.63"/>
<polygon fill="none" stroke="#63b8ff" points="82.25,-68.59 84.45,-61.72 91.63,-61.1 89.44,-67.97 82.25,-68.59"/>
</a>
</g>
<text text-anchor="middle" x="104.62" y="-95.62" font-family="Helvetica,sans-Serif" font-size="10.00" fill="grey"> +mBaseOrigin</text>
</g>
<!-- Node3 -->
<g id="Node000003" class="node">
<title>Node3</title>
<g id="a_Node000003"><a xlink:href="classmath_1_1Vector3D.html" target="_top" xlink:title="Représente un vecteur 3D avec des opérations vectorielles de base.">
<polygon fill="white" stroke="none" points="188,-413.5 103,-413.5 103,-153.5 188,-153.5 188,-413.5"/>
<text text-anchor="start" x="107.62" y="-400" font-family="Helvetica,sans-Serif" font-size="10.00">math::Vector3D</text>
<text text-anchor="start" x="106.88" y="-384" font-family="Helvetica,sans-Serif" font-size="10.00">+</text>
<text text-anchor="start" x="119" y="-384" font-family="Helvetica,sans-Serif" font-size="10.00">mX</text>
<text text-anchor="start" x="106.88" y="-368" font-family="Helvetica,sans-Serif" font-size="10.00">+</text>
<text text-anchor="start" x="119" y="-368" font-family="Helvetica,sans-Serif" font-size="10.00">mY</text>
<text text-anchor="start" x="106.88" y="-352" font-family="Helvetica,sans-Serif" font-size="10.00">+</text>
<text text-anchor="start" x="119" y="-352" font-family="Helvetica,sans-Serif" font-size="10.00">mZ</text>
<text text-anchor="start" x="106.88" y="-336" font-family="Helvetica,sans-Serif" font-size="10.00">+</text>
<text text-anchor="start" x="119" y="-336" font-family="Helvetica,sans-Serif" font-size="10.00">Vector3D()</text>
<text text-anchor="start" x="106.88" y="-320" font-family="Helvetica,sans-Serif" font-size="10.00">+</text>
<text text-anchor="start" x="119" y="-320" font-family="Helvetica,sans-Serif" font-size="10.00">Vector3D()</text>
<text text-anchor="start" x="106.88" y="-304" font-family="Helvetica,sans-Serif" font-size="10.00">+</text>
<text text-anchor="start" x="119" y="-304" font-family="Helvetica,sans-Serif" font-size="10.00">~Vector3D()</text>
<text text-anchor="start" x="106.88" y="-288" font-family="Helvetica,sans-Serif" font-size="10.00">+</text>
<text text-anchor="start" x="119" y="-288" font-family="Helvetica,sans-Serif" font-size="10.00">length()</text>
<text text-anchor="start" x="106.88" y="-272" font-family="Helvetica,sans-Serif" font-size="10.00">+</text>
<text text-anchor="start" x="119" y="-272" font-family="Helvetica,sans-Serif" font-size="10.00">dot()</text>
<text text-anchor="start" x="106.88" y="-256" font-family="Helvetica,sans-Serif" font-size="10.00">+</text>
<text text-anchor="start" x="119" y="-256" font-family="Helvetica,sans-Serif" font-size="10.00">operator+()</text>
<text text-anchor="start" x="106.88" y="-240" font-family="Helvetica,sans-Serif" font-size="10.00">+</text>
<text text-anchor="start" x="119" y="-240" font-family="Helvetica,sans-Serif" font-size="10.00">operator+=()</text>
<text text-anchor="start" x="106.88" y="-224" font-family="Helvetica,sans-Serif" font-size="10.00">+</text>
<text text-anchor="start" x="119" y="-224" font-family="Helvetica,sans-Serif" font-size="10.00">operator&#45;()</text>
<text text-anchor="start" x="106.88" y="-208" font-family="Helvetica,sans-Serif" font-size="10.00">+</text>
<text text-anchor="start" x="119" y="-208" font-family="Helvetica,sans-Serif" font-size="10.00">operator&#45;=()</text>
<text text-anchor="start" x="106.88" y="-192" font-family="Helvetica,sans-Serif" font-size="10.00">+</text>
<text text-anchor="start" x="119" y="-192" font-family="Helvetica,sans-Serif" font-size="10.00">operator*()</text>
<text text-anchor="start" x="119" y="-176" font-family="Helvetica,sans-Serif" font-size="10.00">and 9 more...</text>
<text text-anchor="start" x="106.88" y="-160" font-family="Helvetica,sans-Serif" font-size="10.00">+</text>
<text text-anchor="start" x="119" y="-160" font-family="Helvetica,sans-Serif" font-size="10.00">normalize()</text>
<polygon fill="#666666" stroke="#666666" points="103,-395.5 103,-395.5 188,-395.5 188,-395.5 103,-395.5"/>
<polygon fill="#666666" stroke="#666666" points="103,-347.5 103,-347.5 117,-347.5 117,-347.5 103,-347.5"/>
<polygon fill="#666666" stroke="#666666" points="117,-347.5 117,-347.5 188,-347.5 188,-347.5 117,-347.5"/>
<polygon fill="none" stroke="#666666" points="103,-153.5 103,-413.5 188,-413.5 188,-153.5 103,-153.5"/>
</a>
</g>
</g>
<!-- Node3&#45;&gt;Node1 -->
<g id="edge2_Node000001_Node000003" class="edge">
<title>Node3&#45;&gt;Node1</title>
<g id="a_edge2_Node000001_Node000003"><a xlink:title=" ">
<path fill="none" stroke="#63b8ff" d="M145.5,-153.68C145.5,-127.56 145.5,-101.75 145.5,-80.91"/>
<polygon fill="none" stroke="#63b8ff" points="145.5,-80.87 141.5,-74.87 145.5,-68.87 149.5,-74.87 145.5,-80.87"/>
</a>
</g>
<text text-anchor="middle" x="202.5" y="-102" font-family="Helvetica,sans-Serif" font-size="10.00" fill="grey"> +mBaseDirection</text>
<text text-anchor="middle" x="202.5" y="-89.25" font-family="Helvetica,sans-Serif" font-size="10.00" fill="grey">+mBaseVectorRotation</text>
</g>
<!-- Node4 -->
<g id="Node000004" class="node">
<title>Node4</title>
<g id="a_Node000004"><a xlink:href="classraytracer_1_1Color.html" target="_top" xlink:title=" ">
<polygon fill="white" stroke="none" points="325,-437.5 240,-437.5 240,-129.5 325,-129.5 325,-437.5"/>
<text text-anchor="start" x="244.62" y="-424" font-family="Helvetica,sans-Serif" font-size="10.00">raytracer::Color</text>
<text text-anchor="start" x="246.12" y="-408" font-family="Helvetica,sans-Serif" font-size="10.00">&#45;</text>
<text text-anchor="start" x="256" y="-408" font-family="Helvetica,sans-Serif" font-size="10.00">_r</text>
<text text-anchor="start" x="246.12" y="-392" font-family="Helvetica,sans-Serif" font-size="10.00">&#45;</text>
<text text-anchor="start" x="256" y="-392" font-family="Helvetica,sans-Serif" font-size="10.00">_g</text>
<text text-anchor="start" x="246.12" y="-376" font-family="Helvetica,sans-Serif" font-size="10.00">&#45;</text>
<text text-anchor="start" x="256" y="-376" font-family="Helvetica,sans-Serif" font-size="10.00">_b</text>
<text text-anchor="start" x="243.88" y="-360" font-family="Helvetica,sans-Serif" font-size="10.00">+</text>
<text text-anchor="start" x="256" y="-360" font-family="Helvetica,sans-Serif" font-size="10.00">Color()</text>
<text text-anchor="start" x="243.88" y="-344" font-family="Helvetica,sans-Serif" font-size="10.00">+</text>
<text text-anchor="start" x="256" y="-344" font-family="Helvetica,sans-Serif" font-size="10.00">Color()</text>
<text text-anchor="start" x="243.88" y="-328" font-family="Helvetica,sans-Serif" font-size="10.00">+</text>
<text text-anchor="start" x="256" y="-328" font-family="Helvetica,sans-Serif" font-size="10.00">~Color()</text>
<text text-anchor="start" x="243.88" y="-312" font-family="Helvetica,sans-Serif" font-size="10.00">+</text>
<text text-anchor="start" x="256" y="-312" font-family="Helvetica,sans-Serif" font-size="10.00">operator*()</text>
<text text-anchor="start" x="243.88" y="-296" font-family="Helvetica,sans-Serif" font-size="10.00">+</text>
<text text-anchor="start" x="256" y="-296" font-family="Helvetica,sans-Serif" font-size="10.00">operator*()</text>
<text text-anchor="start" x="243.88" y="-280" font-family="Helvetica,sans-Serif" font-size="10.00">+</text>
<text text-anchor="start" x="256" y="-280" font-family="Helvetica,sans-Serif" font-size="10.00">operator*()</text>
<text text-anchor="start" x="243.88" y="-264" font-family="Helvetica,sans-Serif" font-size="10.00">+</text>
<text text-anchor="start" x="256" y="-264" font-family="Helvetica,sans-Serif" font-size="10.00">operator/=()</text>
<text text-anchor="start" x="243.88" y="-248" font-family="Helvetica,sans-Serif" font-size="10.00">+</text>
<text text-anchor="start" x="256" y="-248" font-family="Helvetica,sans-Serif" font-size="10.00">operator+=()</text>
<text text-anchor="start" x="243.88" y="-232" font-family="Helvetica,sans-Serif" font-size="10.00">+</text>
<text text-anchor="start" x="256" y="-232" font-family="Helvetica,sans-Serif" font-size="10.00">operator+=()</text>
<text text-anchor="start" x="243.88" y="-216" font-family="Helvetica,sans-Serif" font-size="10.00">+</text>
<text text-anchor="start" x="256" y="-216" font-family="Helvetica,sans-Serif" font-size="10.00">operator+()</text>
<text text-anchor="start" x="243.88" y="-200" font-family="Helvetica,sans-Serif" font-size="10.00">+</text>
<text text-anchor="start" x="256" y="-200" font-family="Helvetica,sans-Serif" font-size="10.00">operator/()</text>
<text text-anchor="start" x="243.88" y="-184" font-family="Helvetica,sans-Serif" font-size="10.00">+</text>
<text text-anchor="start" x="256" y="-184" font-family="Helvetica,sans-Serif" font-size="10.00">clamp()</text>
<text text-anchor="start" x="243.88" y="-168" font-family="Helvetica,sans-Serif" font-size="10.00">+</text>
<text text-anchor="start" x="256" y="-168" font-family="Helvetica,sans-Serif" font-size="10.00">getR()</text>
<text text-anchor="start" x="243.88" y="-152" font-family="Helvetica,sans-Serif" font-size="10.00">+</text>
<text text-anchor="start" x="256" y="-152" font-family="Helvetica,sans-Serif" font-size="10.00">getG()</text>
<text text-anchor="start" x="243.88" y="-136" font-family="Helvetica,sans-Serif" font-size="10.00">+</text>
<text text-anchor="start" x="256" y="-136" font-family="Helvetica,sans-Serif" font-size="10.00">getB()</text>
<polygon fill="#666666" stroke="#666666" points="240,-419.5 240,-419.5 325,-419.5 325,-419.5 240,-419.5"/>
<polygon fill="#666666" stroke="#666666" points="240,-371.5 240,-371.5 254,-371.5 254,-371.5 240,-371.5"/>
<polygon fill="#666666" stroke="#666666" points="254,-371.5 254,-371.5 325,-371.5 325,-371.5 254,-371.5"/>
<polygon fill="none" stroke="#666666" points="240,-129.5 240,-437.5 325,-437.5 325,-129.5 240,-129.5"/>
</a>
</g>
</g>
<!-- Node4&#45;&gt;Node1 -->
<g id="edge3_Node000001_Node000004" class="edge">
<title>Node4&#45;&gt;Node1</title>
<g id="a_edge3_Node000001_Node000004"><a xlink:title=" ">
<path fill="none" stroke="#63b8ff" d="M281.67,-129.96C276.96,-114.19 270.14,-99.15 260.5,-86 248.37,-69.45 229.65,-58.18 210.82,-50.54"/>
<polygon fill="none" stroke="#63b8ff" points="210.92,-50.58 203.91,-52.26 199.66,-46.44 206.67,-44.75 210.92,-50.58"/>
</a>
</g>
<text text-anchor="middle" x="308.75" y="-95.62" font-family="Helvetica,sans-Serif" font-size="10.00" fill="grey"> +mBaseColor</text>
</g>
</g>
</svg>
