<?xml version="1.0" encoding="UTF-8" standalone="no"?>
<!DOCTYPE svg PUBLIC "-//W3C//DTD SVG 1.1//EN"
 "http://www.w3.org/Graphics/SVG/1.1/DTD/svg11.dtd">
<!-- Generated by graphviz version 8.1.0 (20230707.0739)
 -->
<!-- Title: raytracer::IPrimitive Pages: 1 -->
<svg width="512pt" height="497pt"
 viewBox="0.00 0.00 511.75 496.75" xmlns="http://www.w3.org/2000/svg" xmlns:xlink="http://www.w3.org/1999/xlink">
<g id="graph0" class="graph" transform="scale(1 1) rotate(0) translate(4 492.75)">
<title>raytracer::IPrimitive</title>
<!-- Node1 -->
<g id="Node000001" class="node">
<title>Node1</title>
<g id="a_Node000001"><a xlink:title="Interface de base pour les primitives géométriques dans le moteur de raytracing.">
<polygon fill="#999999" stroke="none" points="299,-132 192,-132 192,0 299,0 299,-132"/>
<text text-anchor="start" x="196.75" y="-118.5" font-family="Helvetica,sans-Serif" font-size="10.00">raytracer::IPrimitive</text>
<text text-anchor="start" x="199.38" y="-102.5" font-family="Helvetica,sans-Serif" font-size="10.00">+</text>
<text text-anchor="start" x="215" y="-102.5" font-family="Helvetica,sans-Serif" font-size="10.00">mBaseRadius</text>
<text text-anchor="start" x="199.38" y="-86.5" font-family="Helvetica,sans-Serif" font-size="10.00">+</text>
<text text-anchor="start" x="215" y="-86.5" font-family="Helvetica,sans-Serif" font-size="10.00">mBasePosition</text>
<text text-anchor="start" x="199.38" y="-70.5" font-family="Helvetica,sans-Serif" font-size="10.00">+</text>
<text text-anchor="start" x="215" y="-70.5" font-family="Helvetica,sans-Serif" font-size="10.00">mBaseHeight</text>
<text text-anchor="start" x="199.38" y="-54.5" font-family="Helvetica,sans-Serif" font-size="10.00">+</text>
<text text-anchor="start" x="215" y="-54.5" font-family="Helvetica,sans-Serif" font-size="10.00">IPrimitive()</text>
<text text-anchor="start" x="199.38" y="-38.5" font-family="Helvetica,sans-Serif" font-size="10.00">+</text>
<text text-anchor="start" x="215" y="-38.5" font-family="Helvetica,sans-Serif" font-size="10.00">~IPrimitive()</text>
<text text-anchor="start" x="199.38" y="-22.5" font-family="Helvetica,sans-Serif" font-size="10.00">+</text>
<text text-anchor="start" x="215" y="-22.5" font-family="Helvetica,sans-Serif" font-size="10.00">hits()</text>
<text text-anchor="start" x="199.38" y="-6.5" font-family="Helvetica,sans-Serif" font-size="10.00">+</text>
<text text-anchor="start" x="215" y="-6.5" font-family="Helvetica,sans-Serif" font-size="10.00">getNormal()</text>
<polygon fill="#666666" stroke="#666666" points="192,-114 192,-114 299,-114 299,-114 192,-114"/>
<polygon fill="#666666" stroke="#666666" points="192,-66 192,-66 213,-66 213,-66 192,-66"/>
<polygon fill="#666666" stroke="#666666" points="213,-66 213,-66 299,-66 299,-66 213,-66"/>
<polygon fill="none" stroke="#666666" points="192,0 192,-132 299,-132 299,0 192,0"/>
</a>
</g>
</g>
<!-- Node2 -->
<g id="Node000002" class="node">
<title>Node2</title>
<g id="a_Node000002"><a xlink:href="classraytracer_1_1Color.html" target="_top" xlink:title=" ">
<polygon fill="white" stroke="none" points="85,-488.75 0,-488.75 0,-180.75 85,-180.75 85,-488.75"/>
<text text-anchor="start" x="4.62" y="-475.25" font-family="Helvetica,sans-Serif" font-size="10.00">raytracer::Color</text>
<text text-anchor="start" x="6.12" y="-459.25" font-family="Helvetica,sans-Serif" font-size="10.00">&#45;</text>
<text text-anchor="start" x="16" y="-459.25" font-family="Helvetica,sans-Serif" font-size="10.00">_r</text>
<text text-anchor="start" x="6.12" y="-443.25" font-family="Helvetica,sans-Serif" font-size="10.00">&#45;</text>
<text text-anchor="start" x="16" y="-443.25" font-family="Helvetica,sans-Serif" font-size="10.00">_g</text>
<text text-anchor="start" x="6.12" y="-427.25" font-family="Helvetica,sans-Serif" font-size="10.00">&#45;</text>
<text text-anchor="start" x="16" y="-427.25" font-family="Helvetica,sans-Serif" font-size="10.00">_b</text>
<text text-anchor="start" x="3.88" y="-411.25" font-family="Helvetica,sans-Serif" font-size="10.00">+</text>
<text text-anchor="start" x="16" y="-411.25" font-family="Helvetica,sans-Serif" font-size="10.00">Color()</text>
<text text-anchor="start" x="3.88" y="-395.25" font-family="Helvetica,sans-Serif" font-size="10.00">+</text>
<text text-anchor="start" x="16" y="-395.25" font-family="Helvetica,sans-Serif" font-size="10.00">Color()</text>
<text text-anchor="start" x="3.88" y="-379.25" font-family="Helvetica,sans-Serif" font-size="10.00">+</text>
<text text-anchor="start" x="16" y="-379.25" font-family="Helvetica,sans-Serif" font-size="10.00">~Color()</text>
<text text-anchor="start" x="3.88" y="-363.25" font-family="Helvetica,sans-Serif" font-size="10.00">+</text>
<text text-anchor="start" x="16" y="-363.25" font-family="Helvetica,sans-Serif" font-size="10.00">operator*()</text>
<text text-anchor="start" x="3.88" y="-347.25" font-family="Helvetica,sans-Serif" font-size="10.00">+</text>
<text text-anchor="start" x="16" y="-347.25" font-family="Helvetica,sans-Serif" font-size="10.00">operator*()</text>
<text text-anchor="start" x="3.88" y="-331.25" font-family="Helvetica,sans-Serif" font-size="10.00">+</text>
<text text-anchor="start" x="16" y="-331.25" font-family="Helvetica,sans-Serif" font-size="10.00">operator*()</text>
<text text-anchor="start" x="3.88" y="-315.25" font-family="Helvetica,sans-Serif" font-size="10.00">+</text>
<text text-anchor="start" x="16" y="-315.25" font-family="Helvetica,sans-Serif" font-size="10.00">operator/=()</text>
<text text-anchor="start" x="3.88" y="-299.25" font-family="Helvetica,sans-Serif" font-size="10.00">+</text>
<text text-anchor="start" x="16" y="-299.25" font-family="Helvetica,sans-Serif" font-size="10.00">operator+=()</text>
<text text-anchor="start" x="3.88" y="-283.25" font-family="Helvetica,sans-Serif" font-size="10.00">+</text>
<text text-anchor="start" x="16" y="-283.25" font-family="Helvetica,sans-Serif" font-size="10.00">operator+=()</text>
<text text-anchor="start" x="3.88" y="-267.25" font-family="Helvetica,sans-Serif" font-size="10.00">+</text>
<text text-anchor="start" x="16" y="-267.25" font-family="Helvetica,sans-Serif" font-size="10.00">operator+()</text>
<text text-anchor="start" x="3.88" y="-251.25" font-family="Helvetica,sans-Serif" font-size="10.00">+</text>
<text text-anchor="start" x="16" y="-251.25" font-family="Helvetica,sans-Serif" font-size="10.00">operator/()</text>
<text text-anchor="start" x="3.88" y="-235.25" font-family="Helvetica,sans-Serif" font-size="10.00">+</text>
<text text-anchor="start" x="16" y="-235.25" font-family="Helvetica,sans-Serif" font-size="10.00">clamp()</text>
<text text-anchor="start" x="3.88" y="-219.25" font-family="Helvetica,sans-Serif" font-size="10.00">+</text>
<text text-anchor="start" x="16" y="-219.25" font-family="Helvetica,sans-Serif" font-size="10.00">getR()</text>
<text text-anchor="start" x="3.88" y="-203.25" font-family="Helvetica,sans-Serif" font-size="10.00">+</text>
<text text-anchor="start" x="16" y="-203.25" font-family="Helvetica,sans-Serif" font-size="10.00">getG()</text>
<text text-anchor="start" x="3.88" y="-187.25" font-family="Helvetica,sans-Serif" font-size="10.00">+</text>
<text text-anchor="start" x="16" y="-187.25" font-family="Helvetica,sans-Serif" font-size="10.00">getB()</text>
<polygon fill="#666666" stroke="#666666" points="0,-470.75 0,-470.75 85,-470.75 85,-470.75 0,-470.75"/>
<polygon fill="#666666" stroke="#666666" points="0,-422.75 0,-422.75 14,-422.75 14,-422.75 0,-422.75"/>
<polygon fill="#666666" stroke="#666666" points="14,-422.75 14,-422.75 85,-422.75 85,-422.75 14,-422.75"/>
<polygon fill="none" stroke="#666666" points="0,-180.75 0,-488.75 85,-488.75 85,-180.75 0,-180.75"/>
</a>
</g>
</g>
<!-- Node2&#45;&gt;Node1 -->
<g id="edge1_Node000001_Node000002" class="edge">
<title>Node2&#45;&gt;Node1</title>
<g id="a_edge1_Node000001_Node000002"><a xlink:title=" ">
<path fill="none" stroke="#63b8ff" d="M65.59,-180.95C70.62,-169.92 76.69,-159.44 84,-150 107.99,-119.04 146.73,-98.58 180.26,-85.72"/>
<polygon fill="none" stroke="#63b8ff" points="180.21,-85.74 184.48,-79.93 191.49,-81.63 187.22,-87.44 180.21,-85.74"/>
</a>
</g>
<text text-anchor="middle" x="118.75" y="-153.25" font-family="Helvetica,sans-Serif" font-size="10.00" fill="grey"> +mBaseColor</text>
</g>
<!-- Node3 -->
<g id="Node000003" class="node">
<title>Node3</title>
<g id="a_Node000003"><a xlink:href="classmath_1_1Point3D.html" target="_top" xlink:title="Représente un point 3D. Peut interagir avec Vector3D.">
<polygon fill="white" stroke="none" points="188,-432.75 103,-432.75 103,-236.75 188,-236.75 188,-432.75"/>
<text text-anchor="start" x="110.62" y="-419.25" font-family="Helvetica,sans-Serif" font-size="10.00">math::Point3D</text>
<text text-anchor="start" x="106.88" y="-403.25" font-family="Helvetica,sans-Serif" font-size="10.00">+</text>
<text text-anchor="start" x="119" y="-403.25" font-family="Helvetica,sans-Serif" font-size="10.00">mX</text>
<text text-anchor="start" x="106.88" y="-387.25" font-family="Helvetica,sans-Serif" font-size="10.00">+</text>
<text text-anchor="start" x="119" y="-387.25" font-family="Helvetica,sans-Serif" font-size="10.00">mY</text>
<text text-anchor="start" x="106.88" y="-371.25" font-family="Helvetica,sans-Serif" font-size="10.00">+</text>
<text text-anchor="start" x="119" y="-371.25" font-family="Helvetica,sans-Serif" font-size="10.00">mZ</text>
<text text-anchor="start" x="106.88" y="-355.25" font-family="Helvetica,sans-Serif" font-size="10.00">+</text>
<text text-anchor="start" x="119" y="-355.25" font-family="Helvetica,sans-Serif" font-size="10.00">Point3D()</text>
<text text-anchor="start" x="106.88" y="-339.25" font-family="Helvetica,sans-Serif" font-size="10.00">+</text>
<text text-anchor="start" x="119" y="-339.25" font-family="Helvetica,sans-Serif" font-size="10.00">Point3D()</text>
<text text-anchor="start" x="106.88" y="-323.25" font-family="Helvetica,sans-Serif" font-size="10.00">+</text>
<text text-anchor="start" x="119" y="-323.25" font-family="Helvetica,sans-Serif" font-size="10.00">~Point3D()</text>
<text text-anchor="start" x="106.88" y="-307.25" font-family="Helvetica,sans-Serif" font-size="10.00">+</text>
<text text-anchor="start" x="119" y="-307.25" font-family="Helvetica,sans-Serif" font-size="10.00">operator+()</text>
<text text-anchor="start" x="106.88" y="-291.25" font-family="Helvetica,sans-Serif" font-size="10.00">+</text>
<text text-anchor="start" x="119" y="-291.25" font-family="Helvetica,sans-Serif" font-size="10.00">operator+()</text>
<text text-anchor="start" x="106.88" y="-275.25" font-family="Helvetica,sans-Serif" font-size="10.00">+</text>
<text text-anchor="start" x="119" y="-275.25" font-family="Helvetica,sans-Serif" font-size="10.00">operator+=()</text>
<text text-anchor="start" x="106.88" y="-259.25" font-family="Helvetica,sans-Serif" font-size="10.00">+</text>
<text text-anchor="start" x="119" y="-259.25" font-family="Helvetica,sans-Serif" font-size="10.00">operator&#45;()</text>
<text text-anchor="start" x="106.88" y="-243.25" font-family="Helvetica,sans-Serif" font-size="10.00">+</text>
<text text-anchor="start" x="119" y="-243.25" font-family="Helvetica,sans-Serif" font-size="10.00">operator&#45;()</text>
<polygon fill="#666666" stroke="#666666" points="103,-414.75 103,-414.75 188,-414.75 188,-414.75 103,-414.75"/>
<polygon fill="#666666" stroke="#666666" points="103,-366.75 103,-366.75 117,-366.75 117,-366.75 103,-366.75"/>
<polygon fill="#666666" stroke="#666666" points="117,-366.75 117,-366.75 188,-366.75 188,-366.75 117,-366.75"/>
<polygon fill="none" stroke="#666666" points="103,-236.75 103,-432.75 188,-432.75 188,-236.75 103,-236.75"/>
</a>
</g>
</g>
<!-- Node3&#45;&gt;Node1 -->
<g id="edge2_Node000001_Node000003" class="edge">
<title>Node3&#45;&gt;Node1</title>
<g id="a_edge2_Node000001_Node000003"><a xlink:title=" ">
<path fill="none" stroke="#63b8ff" d="M142.6,-237C144.91,-207.93 150.73,-176.69 163.25,-150 168.37,-139.09 175.53,-128.78 183.52,-119.38"/>
<polygon fill="none" stroke="#63b8ff" points="183.44,-119.47 184.5,-112.34 191.49,-110.58 190.43,-117.71 183.44,-119.47"/>
</a>
</g>
<text text-anchor="middle" x="201.12" y="-153.25" font-family="Helvetica,sans-Serif" font-size="10.00" fill="grey"> +mBaseCenter</text>
</g>
<!-- Node4 -->
<g id="Node000004" class="node">
<title>Node4</title>
<g id="a_Node000004"><a xlink:title=" ">
<polygon fill="white" stroke="none" points="263,-360.75 226,-360.75 226,-308.75 263,-308.75 263,-360.75"/>
<text text-anchor="start" x="230.62" y="-347.25" font-family="Helvetica,sans-Serif" font-size="10.00">string</text>
<text text-anchor="start" x="243" y="-331.25" font-family="Helvetica,sans-Serif" font-size="10.00"> </text>
<text text-anchor="start" x="243" y="-315.25" font-family="Helvetica,sans-Serif" font-size="10.00"> </text>
<polygon fill="#666666" stroke="#666666" points="226,-342.75 226,-342.75 263,-342.75 263,-342.75 226,-342.75"/>
<polygon fill="#666666" stroke="#666666" points="226,-326.75 226,-326.75 263,-326.75 263,-326.75 226,-326.75"/>
<polygon fill="none" stroke="#666666" points="226,-308.75 226,-360.75 263,-360.75 263,-308.75 226,-308.75"/>
</a>
</g>
</g>
<!-- Node4&#45;&gt;Node1 -->
<g id="edge3_Node000001_Node000004" class="edge">
<title>Node4&#45;&gt;Node1</title>
<g id="a_edge3_Node000001_Node000004"><a xlink:title=" ">
<path fill="none" stroke="#63b8ff" d="M244.59,-309.13C244.73,-272.1 245,-200.45 245.21,-144.66"/>
<polygon fill="none" stroke="#63b8ff" points="245.21,-144.84 241.23,-138.82 245.25,-132.84 249.23,-138.85 245.21,-144.84"/>
</a>
</g>
<text text-anchor="middle" x="277.5" y="-153.25" font-family="Helvetica,sans-Serif" font-size="10.00" fill="grey"> +mBaseAxis</text>
</g>
<!-- Node5 -->
<g id="Node000005" class="node">
<title>Node5</title>
<g id="a_Node000005"><a xlink:title=" ">
<polygon fill="white" stroke="none" points="389.5,-367.25 281.5,-367.25 281.5,-302.25 389.5,-302.25 389.5,-367.25"/>
<text text-anchor="start" x="286.38" y="-353.75" font-family="Helvetica,sans-Serif" font-size="10.00">map&lt; string, math::</text>
<text text-anchor="start" x="286.38" y="-341" font-family="Helvetica,sans-Serif" font-size="10.00">Matrix&lt; double &gt; &gt;</text>
<text text-anchor="start" x="334" y="-324.75" font-family="Helvetica,sans-Serif" font-size="10.00"> </text>
<text text-anchor="start" x="334" y="-308.75" font-family="Helvetica,sans-Serif" font-size="10.00"> </text>
<polygon fill="#666666" stroke="#666666" points="281.5,-336.25 281.5,-336.25 389.5,-336.25 389.5,-336.25 281.5,-336.25"/>
<polygon fill="#666666" stroke="#666666" points="281.5,-320.25 281.5,-320.25 389.5,-320.25 389.5,-320.25 281.5,-320.25"/>
<polygon fill="none" stroke="#666666" points="281.5,-302.25 281.5,-367.25 389.5,-367.25 389.5,-302.25 281.5,-302.25"/>
</a>
</g>
</g>
<!-- Node5&#45;&gt;Node1 -->
<g id="edge4_Node000001_Node000005" class="edge">
<title>Node5&#45;&gt;Node1</title>
<g id="a_edge4_Node000001_Node000005"><a xlink:title=" ">
<path fill="none" stroke="#63b8ff" d="M336.97,-302.48C337.59,-264.79 334.91,-200.25 313.5,-150 311.3,-144.85 308.69,-139.76 305.78,-134.8"/>
<polygon fill="none" stroke="#63b8ff" points="305.92,-135.02 299.32,-132.11 299.47,-124.9 306.07,-127.81 305.92,-135.02"/>
</a>
</g>
<text text-anchor="middle" x="361.12" y="-153.25" font-family="Helvetica,sans-Serif" font-size="10.00" fill="grey"> +mBaseAllMatrix</text>
</g>
<!-- Node6 -->
<g id="Node000006" class="node">
<title>Node6</title>
<g id="a_Node000006"><a xlink:href="classmath_1_1Vector3D.html" target="_top" xlink:title="Représente un vecteur 3D avec des opérations vectorielles de base.">
<polygon fill="white" stroke="none" points="493,-464.75 408,-464.75 408,-204.75 493,-204.75 493,-464.75"/>
<text text-anchor="start" x="412.62" y="-451.25" font-family="Helvetica,sans-Serif" font-size="10.00">math::Vector3D</text>
<text text-anchor="start" x="411.88" y="-435.25" font-family="Helvetica,sans-Serif" font-size="10.00">+</text>
<text text-anchor="start" x="424" y="-435.25" font-family="Helvetica,sans-Serif" font-size="10.00">mX</text>
<text text-anchor="start" x="411.88" y="-419.25" font-family="Helvetica,sans-Serif" font-size="10.00">+</text>
<text text-anchor="start" x="424" y="-419.25" font-family="Helvetica,sans-Serif" font-size="10.00">mY</text>
<text text-anchor="start" x="411.88" y="-403.25" font-family="Helvetica,sans-Serif" font-size="10.00">+</text>
<text text-anchor="start" x="424" y="-403.25" font-family="Helvetica,sans-Serif" font-size="10.00">mZ</text>
<text text-anchor="start" x="411.88" y="-387.25" font-family="Helvetica,sans-Serif" font-size="10.00">+</text>
<text text-anchor="start" x="424" y="-387.25" font-family="Helvetica,sans-Serif" font-size="10.00">Vector3D()</text>
<text text-anchor="start" x="411.88" y="-371.25" font-family="Helvetica,sans-Serif" font-size="10.00">+</text>
<text text-anchor="start" x="424" y="-371.25" font-family="Helvetica,sans-Serif" font-size="10.00">Vector3D()</text>
<text text-anchor="start" x="411.88" y="-355.25" font-family="Helvetica,sans-Serif" font-size="10.00">+</text>
<text text-anchor="start" x="424" y="-355.25" font-family="Helvetica,sans-Serif" font-size="10.00">~Vector3D()</text>
<text text-anchor="start" x="411.88" y="-339.25" font-family="Helvetica,sans-Serif" font-size="10.00">+</text>
<text text-anchor="start" x="424" y="-339.25" font-family="Helvetica,sans-Serif" font-size="10.00">length()</text>
<text text-anchor="start" x="411.88" y="-323.25" font-family="Helvetica,sans-Serif" font-size="10.00">+</text>
<text text-anchor="start" x="424" y="-323.25" font-family="Helvetica,sans-Serif" font-size="10.00">dot()</text>
<text text-anchor="start" x="411.88" y="-307.25" font-family="Helvetica,sans-Serif" font-size="10.00">+</text>
<text text-anchor="start" x="424" y="-307.25" font-family="Helvetica,sans-Serif" font-size="10.00">operator+()</text>
<text text-anchor="start" x="411.88" y="-291.25" font-family="Helvetica,sans-Serif" font-size="10.00">+</text>
<text text-anchor="start" x="424" y="-291.25" font-family="Helvetica,sans-Serif" font-size="10.00">operator+=()</text>
<text text-anchor="start" x="411.88" y="-275.25" font-family="Helvetica,sans-Serif" font-size="10.00">+</text>
<text text-anchor="start" x="424" y="-275.25" font-family="Helvetica,sans-Serif" font-size="10.00">operator&#45;()</text>
<text text-anchor="start" x="411.88" y="-259.25" font-family="Helvetica,sans-Serif" font-size="10.00">+</text>
<text text-anchor="start" x="424" y="-259.25" font-family="Helvetica,sans-Serif" font-size="10.00">operator&#45;=()</text>
<text text-anchor="start" x="411.88" y="-243.25" font-family="Helvetica,sans-Serif" font-size="10.00">+</text>
<text text-anchor="start" x="424" y="-243.25" font-family="Helvetica,sans-Serif" font-size="10.00">operator*()</text>
<text text-anchor="start" x="424" y="-227.25" font-family="Helvetica,sans-Serif" font-size="10.00">and 9 more...</text>
<text text-anchor="start" x="411.88" y="-211.25" font-family="Helvetica,sans-Serif" font-size="10.00">+</text>
<text text-anchor="start" x="424" y="-211.25" font-family="Helvetica,sans-Serif" font-size="10.00">normalize()</text>
<polygon fill="#666666" stroke="#666666" points="408,-446.75 408,-446.75 493,-446.75 493,-446.75 408,-446.75"/>
<polygon fill="#666666" stroke="#666666" points="408,-398.75 408,-398.75 422,-398.75 422,-398.75 408,-398.75"/>
<polygon fill="#666666" stroke="#666666" points="422,-398.75 422,-398.75 493,-398.75 493,-398.75 422,-398.75"/>
<polygon fill="none" stroke="#666666" points="408,-204.75 408,-464.75 493,-464.75 493,-204.75 408,-204.75"/>
</a>
</g>
</g>
<!-- Node6&#45;&gt;Node1 -->
<g id="edge5_Node000001_Node000006" class="edge">
<title>Node6&#45;&gt;Node1</title>
<g id="a_edge5_Node000001_Node000006"><a xlink:title=" ">
<path fill="none" stroke="#63b8ff" d="M437.13,-205.15C430.9,-185.33 422.04,-166.13 409.5,-150 384.88,-118.34 344.91,-97.76 310.59,-85.01"/>
<polygon fill="none" stroke="#63b8ff" points="310.89,-85.12 303.9,-86.89 299.57,-81.13 306.56,-79.35 310.89,-85.12"/>
</a>
</g>
<text text-anchor="middle" x="460.62" y="-153.25" font-family="Helvetica,sans-Serif" font-size="10.00" fill="grey"> +mBaseRotation</text>
</g>
</g>
</svg>
