<?xml version="1.0" encoding="UTF-8" standalone="no"?>
<!DOCTYPE svg PUBLIC "-//W3C//DTD SVG 1.1//EN"
 "http://www.w3.org/Graphics/SVG/1.1/DTD/svg11.dtd">
<!-- Generated by graphviz version 8.1.0 (20230707.0739)
 -->
<!-- Title: raytracer::Sphere Pages: 1 -->
<svg width="632pt" height="698pt"
 viewBox="0.00 0.00 631.50 697.75" xmlns="http://www.w3.org/2000/svg" xmlns:xlink="http://www.w3.org/1999/xlink">
<g id="graph0" class="graph" transform="scale(1 1) rotate(0) translate(4 693.75)">
<title>raytracer::Sphere</title>
<!-- Node1 -->
<g id="Node000001" class="node">
<title>Node1</title>
<g id="a_Node000001"><a xlink:title="Représente une sphère dans la scène 3D pour le moteur de raytracing.">
<polygon fill="#999999" stroke="none" points="232.5,-164 138.5,-164 138.5,0 232.5,0 232.5,-164"/>
<text text-anchor="start" x="143.5" y="-150.5" font-family="Helvetica,sans-Serif" font-size="10.00">raytracer::Sphere</text>
<text text-anchor="start" x="145.88" y="-134.5" font-family="Helvetica,sans-Serif" font-size="10.00">+</text>
<text text-anchor="start" x="161.5" y="-134.5" font-family="Helvetica,sans-Serif" font-size="10.00">mX</text>
<text text-anchor="start" x="145.88" y="-118.5" font-family="Helvetica,sans-Serif" font-size="10.00">+</text>
<text text-anchor="start" x="161.5" y="-118.5" font-family="Helvetica,sans-Serif" font-size="10.00">mY</text>
<text text-anchor="start" x="145.88" y="-102.5" font-family="Helvetica,sans-Serif" font-size="10.00">+</text>
<text text-anchor="start" x="161.5" y="-102.5" font-family="Helvetica,sans-Serif" font-size="10.00">mZ</text>
<text text-anchor="start" x="145.88" y="-86.5" font-family="Helvetica,sans-Serif" font-size="10.00">+</text>
<text text-anchor="start" x="161.5" y="-86.5" font-family="Helvetica,sans-Serif" font-size="10.00">mRadius</text>
<text text-anchor="start" x="145.88" y="-70.5" font-family="Helvetica,sans-Serif" font-size="10.00">+</text>
<text text-anchor="start" x="161.5" y="-70.5" font-family="Helvetica,sans-Serif" font-size="10.00">Sphere()</text>
<text text-anchor="start" x="145.88" y="-54.5" font-family="Helvetica,sans-Serif" font-size="10.00">+</text>
<text text-anchor="start" x="161.5" y="-54.5" font-family="Helvetica,sans-Serif" font-size="10.00">Sphere()</text>
<text text-anchor="start" x="145.88" y="-38.5" font-family="Helvetica,sans-Serif" font-size="10.00">+</text>
<text text-anchor="start" x="161.5" y="-38.5" font-family="Helvetica,sans-Serif" font-size="10.00">~Sphere()</text>
<text text-anchor="start" x="145.88" y="-22.5" font-family="Helvetica,sans-Serif" font-size="10.00">+</text>
<text text-anchor="start" x="161.5" y="-22.5" font-family="Helvetica,sans-Serif" font-size="10.00">hits()</text>
<text text-anchor="start" x="145.88" y="-6.5" font-family="Helvetica,sans-Serif" font-size="10.00">+</text>
<text text-anchor="start" x="161.5" y="-6.5" font-family="Helvetica,sans-Serif" font-size="10.00">getNormal()</text>
<polygon fill="#666666" stroke="#666666" points="138.5,-146 138.5,-146 232.5,-146 232.5,-146 138.5,-146"/>
<polygon fill="#666666" stroke="#666666" points="138.5,-82 138.5,-82 159.5,-82 159.5,-82 138.5,-82"/>
<polygon fill="#666666" stroke="#666666" points="159.5,-82 159.5,-82 232.5,-82 232.5,-82 159.5,-82"/>
<polygon fill="none" stroke="#666666" points="138.5,0 138.5,-164 232.5,-164 232.5,0 138.5,0"/>
</a>
</g>
</g>
<!-- Node2 -->
<g id="Node000002" class="node">
<title>Node2</title>
<g id="a_Node000002"><a xlink:href="classraytracer_1_1IPrimitive.html" target="_top" xlink:title="Interface de base pour les primitives géométriques dans le moteur de raytracing.">
<polygon fill="white" stroke="none" points="339,-333 232,-333 232,-201 339,-201 339,-333"/>
<text text-anchor="start" x="236.75" y="-319.5" font-family="Helvetica,sans-Serif" font-size="10.00">raytracer::IPrimitive</text>
<text text-anchor="start" x="239.38" y="-303.5" font-family="Helvetica,sans-Serif" font-size="10.00">+</text>
<text text-anchor="start" x="255" y="-303.5" font-family="Helvetica,sans-Serif" font-size="10.00">mBaseRadius</text>
<text text-anchor="start" x="239.38" y="-287.5" font-family="Helvetica,sans-Serif" font-size="10.00">+</text>
<text text-anchor="start" x="255" y="-287.5" font-family="Helvetica,sans-Serif" font-size="10.00">mBasePosition</text>
<text text-anchor="start" x="239.38" y="-271.5" font-family="Helvetica,sans-Serif" font-size="10.00">+</text>
<text text-anchor="start" x="255" y="-271.5" font-family="Helvetica,sans-Serif" font-size="10.00">mBaseHeight</text>
<text text-anchor="start" x="239.38" y="-255.5" font-family="Helvetica,sans-Serif" font-size="10.00">+</text>
<text text-anchor="start" x="255" y="-255.5" font-family="Helvetica,sans-Serif" font-size="10.00">IPrimitive()</text>
<text text-anchor="start" x="239.38" y="-239.5" font-family="Helvetica,sans-Serif" font-size="10.00">+</text>
<text text-anchor="start" x="255" y="-239.5" font-family="Helvetica,sans-Serif" font-size="10.00">~IPrimitive()</text>
<text text-anchor="start" x="239.38" y="-223.5" font-family="Helvetica,sans-Serif" font-size="10.00">+</text>
<text text-anchor="start" x="255" y="-223.5" font-family="Helvetica,sans-Serif" font-size="10.00">hits()</text>
<text text-anchor="start" x="239.38" y="-207.5" font-family="Helvetica,sans-Serif" font-size="10.00">+</text>
<text text-anchor="start" x="255" y="-207.5" font-family="Helvetica,sans-Serif" font-size="10.00">getNormal()</text>
<polygon fill="#666666" stroke="#666666" points="232,-315 232,-315 339,-315 339,-315 232,-315"/>
<polygon fill="#666666" stroke="#666666" points="232,-267 232,-267 253,-267 253,-267 232,-267"/>
<polygon fill="#666666" stroke="#666666" points="253,-267 253,-267 339,-267 339,-267 253,-267"/>
<polygon fill="none" stroke="#666666" points="232,-201 232,-333 339,-333 339,-201 232,-201"/>
</a>
</g>
</g>
<!-- Node2&#45;&gt;Node1 -->
<g id="edge1_Node000001_Node000002" class="edge">
<title>Node2&#45;&gt;Node1</title>
<g id="a_edge1_Node000001_Node000002"><a xlink:title=" ">
<path fill="none" stroke="#63b8ff" d="M244.91,-191.72C239.87,-182.5 234.7,-173.04 229.61,-163.73"/>
<polygon fill="none" stroke="#63b8ff" points="242.24,-193.13 250.1,-200.22 248.38,-189.77 242.24,-193.13"/>
</a>
</g>
</g>
<!-- Node3 -->
<g id="Node000003" class="node">
<title>Node3</title>
<g id="a_Node000003"><a xlink:href="classraytracer_1_1Color.html" target="_top" xlink:title=" ">
<polygon fill="white" stroke="none" points="85,-689.75 0,-689.75 0,-381.75 85,-381.75 85,-689.75"/>
<text text-anchor="start" x="4.62" y="-676.25" font-family="Helvetica,sans-Serif" font-size="10.00">raytracer::Color</text>
<text text-anchor="start" x="6.12" y="-660.25" font-family="Helvetica,sans-Serif" font-size="10.00">&#45;</text>
<text text-anchor="start" x="16" y="-660.25" font-family="Helvetica,sans-Serif" font-size="10.00">_r</text>
<text text-anchor="start" x="6.12" y="-644.25" font-family="Helvetica,sans-Serif" font-size="10.00">&#45;</text>
<text text-anchor="start" x="16" y="-644.25" font-family="Helvetica,sans-Serif" font-size="10.00">_g</text>
<text text-anchor="start" x="6.12" y="-628.25" font-family="Helvetica,sans-Serif" font-size="10.00">&#45;</text>
<text text-anchor="start" x="16" y="-628.25" font-family="Helvetica,sans-Serif" font-size="10.00">_b</text>
<text text-anchor="start" x="3.88" y="-612.25" font-family="Helvetica,sans-Serif" font-size="10.00">+</text>
<text text-anchor="start" x="16" y="-612.25" font-family="Helvetica,sans-Serif" font-size="10.00">Color()</text>
<text text-anchor="start" x="3.88" y="-596.25" font-family="Helvetica,sans-Serif" font-size="10.00">+</text>
<text text-anchor="start" x="16" y="-596.25" font-family="Helvetica,sans-Serif" font-size="10.00">Color()</text>
<text text-anchor="start" x="3.88" y="-580.25" font-family="Helvetica,sans-Serif" font-size="10.00">+</text>
<text text-anchor="start" x="16" y="-580.25" font-family="Helvetica,sans-Serif" font-size="10.00">~Color()</text>
<text text-anchor="start" x="3.88" y="-564.25" font-family="Helvetica,sans-Serif" font-size="10.00">+</text>
<text text-anchor="start" x="16" y="-564.25" font-family="Helvetica,sans-Serif" font-size="10.00">operator*()</text>
<text text-anchor="start" x="3.88" y="-548.25" font-family="Helvetica,sans-Serif" font-size="10.00">+</text>
<text text-anchor="start" x="16" y="-548.25" font-family="Helvetica,sans-Serif" font-size="10.00">operator*()</text>
<text text-anchor="start" x="3.88" y="-532.25" font-family="Helvetica,sans-Serif" font-size="10.00">+</text>
<text text-anchor="start" x="16" y="-532.25" font-family="Helvetica,sans-Serif" font-size="10.00">operator*()</text>
<text text-anchor="start" x="3.88" y="-516.25" font-family="Helvetica,sans-Serif" font-size="10.00">+</text>
<text text-anchor="start" x="16" y="-516.25" font-family="Helvetica,sans-Serif" font-size="10.00">operator/=()</text>
<text text-anchor="start" x="3.88" y="-500.25" font-family="Helvetica,sans-Serif" font-size="10.00">+</text>
<text text-anchor="start" x="16" y="-500.25" font-family="Helvetica,sans-Serif" font-size="10.00">operator+=()</text>
<text text-anchor="start" x="3.88" y="-484.25" font-family="Helvetica,sans-Serif" font-size="10.00">+</text>
<text text-anchor="start" x="16" y="-484.25" font-family="Helvetica,sans-Serif" font-size="10.00">operator+=()</text>
<text text-anchor="start" x="3.88" y="-468.25" font-family="Helvetica,sans-Serif" font-size="10.00">+</text>
<text text-anchor="start" x="16" y="-468.25" font-family="Helvetica,sans-Serif" font-size="10.00">operator+()</text>
<text text-anchor="start" x="3.88" y="-452.25" font-family="Helvetica,sans-Serif" font-size="10.00">+</text>
<text text-anchor="start" x="16" y="-452.25" font-family="Helvetica,sans-Serif" font-size="10.00">operator/()</text>
<text text-anchor="start" x="3.88" y="-436.25" font-family="Helvetica,sans-Serif" font-size="10.00">+</text>
<text text-anchor="start" x="16" y="-436.25" font-family="Helvetica,sans-Serif" font-size="10.00">clamp()</text>
<text text-anchor="start" x="3.88" y="-420.25" font-family="Helvetica,sans-Serif" font-size="10.00">+</text>
<text text-anchor="start" x="16" y="-420.25" font-family="Helvetica,sans-Serif" font-size="10.00">getR()</text>
<text text-anchor="start" x="3.88" y="-404.25" font-family="Helvetica,sans-Serif" font-size="10.00">+</text>
<text text-anchor="start" x="16" y="-404.25" font-family="Helvetica,sans-Serif" font-size="10.00">getG()</text>
<text text-anchor="start" x="3.88" y="-388.25" font-family="Helvetica,sans-Serif" font-size="10.00">+</text>
<text text-anchor="start" x="16" y="-388.25" font-family="Helvetica,sans-Serif" font-size="10.00">getB()</text>
<polygon fill="#666666" stroke="#666666" points="0,-671.75 0,-671.75 85,-671.75 85,-671.75 0,-671.75"/>
<polygon fill="#666666" stroke="#666666" points="0,-623.75 0,-623.75 14,-623.75 14,-623.75 0,-623.75"/>
<polygon fill="#666666" stroke="#666666" points="14,-623.75 14,-623.75 85,-623.75 85,-623.75 14,-623.75"/>
<polygon fill="none" stroke="#666666" points="0,-381.75 0,-689.75 85,-689.75 85,-381.75 0,-381.75"/>
</a>
</g>
</g>
<!-- Node3&#45;&gt;Node1 -->
<g id="edge7_Node000001_Node000003" class="edge">
<title>Node3&#45;&gt;Node1</title>
<g id="a_edge7_Node000001_Node000003"><a xlink:title=" ">
<path fill="none" stroke="#63b8ff" d="M54.01,-381.92C62.18,-323.63 76.14,-257.62 100,-201 107.89,-182.27 119.25,-163.68 131.12,-146.98"/>
<polygon fill="none" stroke="#63b8ff" points="130.92,-147.25 131.25,-140.05 138.02,-137.57 137.7,-144.78 130.92,-147.25"/>
</a>
</g>
<text text-anchor="middle" x="123.75" y="-263.88" font-family="Helvetica,sans-Serif" font-size="10.00" fill="grey"> +mColor</text>
</g>
<!-- Node3&#45;&gt;Node2 -->
<g id="edge2_Node000002_Node000003" class="edge">
<title>Node3&#45;&gt;Node2</title>
<g id="a_edge2_Node000002_Node000003"><a xlink:title=" ">
<path fill="none" stroke="#63b8ff" d="M84.65,-381.81C93.01,-369.89 103.01,-359.29 115,-351 151.6,-325.69 173.57,-352.66 213.5,-333 216.24,-331.65 218.95,-330.17 221.63,-328.57"/>
<polygon fill="none" stroke="#63b8ff" points="221.63,-328.57 224.44,-321.93 231.65,-321.97 228.84,-328.61 221.63,-328.57"/>
</a>
</g>
<text text-anchor="middle" x="150.75" y="-354.25" font-family="Helvetica,sans-Serif" font-size="10.00" fill="grey"> +mBaseColor</text>
</g>
<!-- Node4 -->
<g id="Node000004" class="node">
<title>Node4</title>
<g id="a_Node000004"><a xlink:href="classmath_1_1Point3D.html" target="_top" xlink:title="Représente un point 3D. Peut interagir avec Vector3D.">
<polygon fill="white" stroke="none" points="332,-633.75 247,-633.75 247,-437.75 332,-437.75 332,-633.75"/>
<text text-anchor="start" x="254.62" y="-620.25" font-family="Helvetica,sans-Serif" font-size="10.00">math::Point3D</text>
<text text-anchor="start" x="250.88" y="-604.25" font-family="Helvetica,sans-Serif" font-size="10.00">+</text>
<text text-anchor="start" x="263" y="-604.25" font-family="Helvetica,sans-Serif" font-size="10.00">mX</text>
<text text-anchor="start" x="250.88" y="-588.25" font-family="Helvetica,sans-Serif" font-size="10.00">+</text>
<text text-anchor="start" x="263" y="-588.25" font-family="Helvetica,sans-Serif" font-size="10.00">mY</text>
<text text-anchor="start" x="250.88" y="-572.25" font-family="Helvetica,sans-Serif" font-size="10.00">+</text>
<text text-anchor="start" x="263" y="-572.25" font-family="Helvetica,sans-Serif" font-size="10.00">mZ</text>
<text text-anchor="start" x="250.88" y="-556.25" font-family="Helvetica,sans-Serif" font-size="10.00">+</text>
<text text-anchor="start" x="263" y="-556.25" font-family="Helvetica,sans-Serif" font-size="10.00">Point3D()</text>
<text text-anchor="start" x="250.88" y="-540.25" font-family="Helvetica,sans-Serif" font-size="10.00">+</text>
<text text-anchor="start" x="263" y="-540.25" font-family="Helvetica,sans-Serif" font-size="10.00">Point3D()</text>
<text text-anchor="start" x="250.88" y="-524.25" font-family="Helvetica,sans-Serif" font-size="10.00">+</text>
<text text-anchor="start" x="263" y="-524.25" font-family="Helvetica,sans-Serif" font-size="10.00">~Point3D()</text>
<text text-anchor="start" x="250.88" y="-508.25" font-family="Helvetica,sans-Serif" font-size="10.00">+</text>
<text text-anchor="start" x="263" y="-508.25" font-family="Helvetica,sans-Serif" font-size="10.00">operator+()</text>
<text text-anchor="start" x="250.88" y="-492.25" font-family="Helvetica,sans-Serif" font-size="10.00">+</text>
<text text-anchor="start" x="263" y="-492.25" font-family="Helvetica,sans-Serif" font-size="10.00">operator+()</text>
<text text-anchor="start" x="250.88" y="-476.25" font-family="Helvetica,sans-Serif" font-size="10.00">+</text>
<text text-anchor="start" x="263" y="-476.25" font-family="Helvetica,sans-Serif" font-size="10.00">operator+=()</text>
<text text-anchor="start" x="250.88" y="-460.25" font-family="Helvetica,sans-Serif" font-size="10.00">+</text>
<text text-anchor="start" x="263" y="-460.25" font-family="Helvetica,sans-Serif" font-size="10.00">operator&#45;()</text>
<text text-anchor="start" x="250.88" y="-444.25" font-family="Helvetica,sans-Serif" font-size="10.00">+</text>
<text text-anchor="start" x="263" y="-444.25" font-family="Helvetica,sans-Serif" font-size="10.00">operator&#45;()</text>
<polygon fill="#666666" stroke="#666666" points="247,-615.75 247,-615.75 332,-615.75 332,-615.75 247,-615.75"/>
<polygon fill="#666666" stroke="#666666" points="247,-567.75 247,-567.75 261,-567.75 261,-567.75 247,-567.75"/>
<polygon fill="#666666" stroke="#666666" points="261,-567.75 261,-567.75 332,-567.75 332,-567.75 261,-567.75"/>
<polygon fill="none" stroke="#666666" points="247,-437.75 247,-633.75 332,-633.75 332,-437.75 247,-437.75"/>
</a>
</g>
</g>
<!-- Node4&#45;&gt;Node2 -->
<g id="edge3_Node000002_Node000004" class="edge">
<title>Node4&#45;&gt;Node2</title>
<g id="a_edge3_Node000002_Node000004"><a xlink:title=" ">
<path fill="none" stroke="#63b8ff" d="M288.05,-438.07C287.59,-407.68 287.1,-374.54 286.66,-345.66"/>
<polygon fill="none" stroke="#63b8ff" points="286.66,-345.61 282.57,-339.67 286.48,-333.61 290.57,-339.55 286.66,-345.61"/>
</a>
</g>
<text text-anchor="middle" x="325.12" y="-354.25" font-family="Helvetica,sans-Serif" font-size="10.00" fill="grey"> +mBaseCenter</text>
</g>
<!-- Node5 -->
<g id="Node000005" class="node">
<title>Node5</title>
<g id="a_Node000005"><a xlink:title=" ">
<polygon fill="white" stroke="none" points="408,-561.75 371,-561.75 371,-509.75 408,-509.75 408,-561.75"/>
<text text-anchor="start" x="375.62" y="-548.25" font-family="Helvetica,sans-Serif" font-size="10.00">string</text>
<text text-anchor="start" x="388" y="-532.25" font-family="Helvetica,sans-Serif" font-size="10.00"> </text>
<text text-anchor="start" x="388" y="-516.25" font-family="Helvetica,sans-Serif" font-size="10.00"> </text>
<polygon fill="#666666" stroke="#666666" points="371,-543.75 371,-543.75 408,-543.75 408,-543.75 371,-543.75"/>
<polygon fill="#666666" stroke="#666666" points="371,-527.75 371,-527.75 408,-527.75 408,-527.75 371,-527.75"/>
<polygon fill="none" stroke="#666666" points="371,-509.75 371,-561.75 408,-561.75 408,-509.75 371,-509.75"/>
</a>
</g>
</g>
<!-- Node5&#45;&gt;Node2 -->
<g id="edge4_Node000002_Node000005" class="edge">
<title>Node5&#45;&gt;Node2</title>
<g id="a_edge4_Node000002_Node000005"><a xlink:title=" ">
<path fill="none" stroke="#63b8ff" d="M391.46,-509.86C393.29,-473.16 392.69,-403.24 367.5,-351 362.4,-340.41 355.39,-330.36 347.62,-321.15"/>
<polygon fill="none" stroke="#63b8ff" points="347.56,-321.08 340.57,-319.3 339.53,-312.16 346.52,-313.95 347.56,-321.08"/>
</a>
</g>
<text text-anchor="middle" x="404.5" y="-354.25" font-family="Helvetica,sans-Serif" font-size="10.00" fill="grey"> +mBaseAxis</text>
</g>
<!-- Node6 -->
<g id="Node000006" class="node">
<title>Node6</title>
<g id="a_Node000006"><a xlink:title=" ">
<polygon fill="white" stroke="none" points="213.5,-568.25 105.5,-568.25 105.5,-503.25 213.5,-503.25 213.5,-568.25"/>
<text text-anchor="start" x="110.38" y="-554.75" font-family="Helvetica,sans-Serif" font-size="10.00">map&lt; string, math::</text>
<text text-anchor="start" x="110.38" y="-542" font-family="Helvetica,sans-Serif" font-size="10.00">Matrix&lt; double &gt; &gt;</text>
<text text-anchor="start" x="158" y="-525.75" font-family="Helvetica,sans-Serif" font-size="10.00"> </text>
<text text-anchor="start" x="158" y="-509.75" font-family="Helvetica,sans-Serif" font-size="10.00"> </text>
<polygon fill="#666666" stroke="#666666" points="105.5,-537.25 105.5,-537.25 213.5,-537.25 213.5,-537.25 105.5,-537.25"/>
<polygon fill="#666666" stroke="#666666" points="105.5,-521.25 105.5,-521.25 213.5,-521.25 213.5,-521.25 105.5,-521.25"/>
<polygon fill="none" stroke="#666666" points="105.5,-503.25 105.5,-568.25 213.5,-568.25 213.5,-503.25 105.5,-503.25"/>
</a>
</g>
</g>
<!-- Node6&#45;&gt;Node1 -->
<g id="edge8_Node000001_Node000006" class="edge">
<title>Node6&#45;&gt;Node1</title>
<g id="a_edge8_Node000001_Node000006"><a xlink:title=" ">
<path fill="none" stroke="#63b8ff" d="M156.7,-503.32C152,-443.98 144.21,-311.49 157.25,-201 158.2,-192.94 159.51,-184.64 161.04,-176.34"/>
<polygon fill="none" stroke="#63b8ff" points="161.01,-176.46 158.25,-169.79 163.34,-164.68 166.1,-171.34 161.01,-176.46"/>
</a>
</g>
<text text-anchor="middle" x="190.12" y="-263.88" font-family="Helvetica,sans-Serif" font-size="10.00" fill="grey"> +mAllMatrix</text>
</g>
<!-- Node6&#45;&gt;Node2 -->
<g id="edge5_Node000002_Node000006" class="edge">
<title>Node6&#45;&gt;Node2</title>
<g id="a_edge5_Node000002_Node000006"><a xlink:title=" ">
<path fill="none" stroke="#63b8ff" d="M159.19,-503.41C160.12,-465.08 166.03,-399.33 193.25,-351 199.16,-340.51 204.53,-341.03 213.5,-333 216.42,-330.39 219.4,-327.71 222.41,-325.01"/>
<polygon fill="none" stroke="#63b8ff" points="222.48,-324.95 224.26,-317.96 231.4,-316.92 229.61,-323.91 222.48,-324.95"/>
</a>
</g>
<text text-anchor="middle" x="238.12" y="-354.25" font-family="Helvetica,sans-Serif" font-size="10.00" fill="grey"> +mBaseAllMatrix</text>
</g>
<!-- Node7 -->
<g id="Node000007" class="node">
<title>Node7</title>
<g id="a_Node000007"><a xlink:href="classmath_1_1Vector3D.html" target="_top" xlink:title="Représente un vecteur 3D avec des opérations vectorielles de base.">
<polygon fill="white" stroke="none" points="571,-665.75 486,-665.75 486,-405.75 571,-405.75 571,-665.75"/>
<text text-anchor="start" x="490.62" y="-652.25" font-family="Helvetica,sans-Serif" font-size="10.00">math::Vector3D</text>
<text text-anchor="start" x="489.88" y="-636.25" font-family="Helvetica,sans-Serif" font-size="10.00">+</text>
<text text-anchor="start" x="502" y="-636.25" font-family="Helvetica,sans-Serif" font-size="10.00">mX</text>
<text text-anchor="start" x="489.88" y="-620.25" font-family="Helvetica,sans-Serif" font-size="10.00">+</text>
<text text-anchor="start" x="502" y="-620.25" font-family="Helvetica,sans-Serif" font-size="10.00">mY</text>
<text text-anchor="start" x="489.88" y="-604.25" font-family="Helvetica,sans-Serif" font-size="10.00">+</text>
<text text-anchor="start" x="502" y="-604.25" font-family="Helvetica,sans-Serif" font-size="10.00">mZ</text>
<text text-anchor="start" x="489.88" y="-588.25" font-family="Helvetica,sans-Serif" font-size="10.00">+</text>
<text text-anchor="start" x="502" y="-588.25" font-family="Helvetica,sans-Serif" font-size="10.00">Vector3D()</text>
<text text-anchor="start" x="489.88" y="-572.25" font-family="Helvetica,sans-Serif" font-size="10.00">+</text>
<text text-anchor="start" x="502" y="-572.25" font-family="Helvetica,sans-Serif" font-size="10.00">Vector3D()</text>
<text text-anchor="start" x="489.88" y="-556.25" font-family="Helvetica,sans-Serif" font-size="10.00">+</text>
<text text-anchor="start" x="502" y="-556.25" font-family="Helvetica,sans-Serif" font-size="10.00">~Vector3D()</text>
<text text-anchor="start" x="489.88" y="-540.25" font-family="Helvetica,sans-Serif" font-size="10.00">+</text>
<text text-anchor="start" x="502" y="-540.25" font-family="Helvetica,sans-Serif" font-size="10.00">length()</text>
<text text-anchor="start" x="489.88" y="-524.25" font-family="Helvetica,sans-Serif" font-size="10.00">+</text>
<text text-anchor="start" x="502" y="-524.25" font-family="Helvetica,sans-Serif" font-size="10.00">dot()</text>
<text text-anchor="start" x="489.88" y="-508.25" font-family="Helvetica,sans-Serif" font-size="10.00">+</text>
<text text-anchor="start" x="502" y="-508.25" font-family="Helvetica,sans-Serif" font-size="10.00">operator+()</text>
<text text-anchor="start" x="489.88" y="-492.25" font-family="Helvetica,sans-Serif" font-size="10.00">+</text>
<text text-anchor="start" x="502" y="-492.25" font-family="Helvetica,sans-Serif" font-size="10.00">operator+=()</text>
<text text-anchor="start" x="489.88" y="-476.25" font-family="Helvetica,sans-Serif" font-size="10.00">+</text>
<text text-anchor="start" x="502" y="-476.25" font-family="Helvetica,sans-Serif" font-size="10.00">operator&#45;()</text>
<text text-anchor="start" x="489.88" y="-460.25" font-family="Helvetica,sans-Serif" font-size="10.00">+</text>
<text text-anchor="start" x="502" y="-460.25" font-family="Helvetica,sans-Serif" font-size="10.00">operator&#45;=()</text>
<text text-anchor="start" x="489.88" y="-444.25" font-family="Helvetica,sans-Serif" font-size="10.00">+</text>
<text text-anchor="start" x="502" y="-444.25" font-family="Helvetica,sans-Serif" font-size="10.00">operator*()</text>
<text text-anchor="start" x="502" y="-428.25" font-family="Helvetica,sans-Serif" font-size="10.00">and 9 more...</text>
<text text-anchor="start" x="489.88" y="-412.25" font-family="Helvetica,sans-Serif" font-size="10.00">+</text>
<text text-anchor="start" x="502" y="-412.25" font-family="Helvetica,sans-Serif" font-size="10.00">normalize()</text>
<polygon fill="#666666" stroke="#666666" points="486,-647.75 486,-647.75 571,-647.75 571,-647.75 486,-647.75"/>
<polygon fill="#666666" stroke="#666666" points="486,-599.75 486,-599.75 500,-599.75 500,-599.75 486,-599.75"/>
<polygon fill="#666666" stroke="#666666" points="500,-599.75 500,-599.75 571,-599.75 571,-599.75 500,-599.75"/>
<polygon fill="none" stroke="#666666" points="486,-405.75 486,-665.75 571,-665.75 571,-405.75 486,-405.75"/>
</a>
</g>
</g>
<!-- Node7&#45;&gt;Node1 -->
<g id="edge9_Node000001_Node000007" class="edge">
<title>Node7&#45;&gt;Node1</title>
<g id="a_edge9_Node000001_Node000007"><a xlink:title=" ">
<path fill="none" stroke="#63b8ff" d="M554.48,-405.89C553.57,-386.84 549.79,-367.95 541.5,-351 480.17,-225.66 328.52,-143.9 244.28,-106.53"/>
<polygon fill="none" stroke="#63b8ff" points="244.19,-106.49 237.09,-107.76 233.19,-101.7 240.29,-100.43 244.19,-106.49"/>
</a>
</g>
<text text-anchor="middle" x="577" y="-263.88" font-family="Helvetica,sans-Serif" font-size="10.00" fill="grey"> +mVectorRotation</text>
</g>
<!-- Node7&#45;&gt;Node2 -->
<g id="edge6_Node000002_Node000007" class="edge">
<title>Node7&#45;&gt;Node2</title>
<g id="a_edge6_Node000002_Node000007"><a xlink:title=" ">
<path fill="none" stroke="#63b8ff" d="M486.2,-416.36C474.21,-392.91 459.41,-369.77 441.5,-351 416.45,-324.75 381.23,-305.03 350.6,-291.42"/>
<polygon fill="none" stroke="#63b8ff" points="350.54,-291.39 343.46,-292.71 339.51,-286.68 346.6,-285.36 350.54,-291.39"/>
</a>
</g>
<text text-anchor="middle" x="494.62" y="-354.25" font-family="Helvetica,sans-Serif" font-size="10.00" fill="grey"> +mBaseRotation</text>
</g>
</g>
</svg>
