<?xml version="1.0" encoding="UTF-8" standalone="no"?>
<!DOCTYPE svg PUBLIC "-//W3C//DTD SVG 1.1//EN"
 "http://www.w3.org/Graphics/SVG/1.1/DTD/svg11.dtd">
<!-- Generated by graphviz version 8.1.0 (20230707.0739)
 -->
<!-- Title: raytracer::Color::clamp Pages: 1 -->
<svg width="886pt" height="57pt"
 viewBox="0.00 0.00 886.25 57.12" xmlns="http://www.w3.org/2000/svg" xmlns:xlink="http://www.w3.org/1999/xlink">
<g id="graph0" class="graph" transform="scale(1 1) rotate(0) translate(4 53.12)">
<title>raytracer::Color::clamp</title>
<!-- Node1 -->
<g id="Node000001" class="node">
<title>Node1</title>
<g id="a_Node000001"><a xlink:title=" ">
<polygon fill="#999999" stroke="#666666" points="878.25,-49.12 750.5,-49.12 750.5,-28.38 878.25,-28.38 878.25,-49.12"/>
<text text-anchor="middle" x="814.38" y="-35.62" font-family="Helvetica,sans-Serif" font-size="10.00">raytracer::Color::clamp</text>
</a>
</g>
</g>
<!-- Node2 -->
<g id="Node000002" class="node">
<title>Node2</title>
<g id="a_Node000002"><a xlink:href="classraytracer_1_1Scene.html#a3e1cc90ae8e645a806ebc45eb6681958" target="_top" xlink:title="Calcule la couleur d&#39;un pixel donné dans l&#39;image.">
<polygon fill="white" stroke="#666666" points="537.25,-49.12 394.5,-49.12 394.5,-28.38 537.25,-28.38 537.25,-49.12"/>
<text text-anchor="middle" x="465.88" y="-35.62" font-family="Helvetica,sans-Serif" font-size="10.00">raytracer::Scene::getColor</text>
</a>
</g>
</g>
<!-- Node1&#45;&gt;Node2 -->
<g id="edge1_Node000001_Node000002" class="edge">
<title>Node1&#45;&gt;Node2</title>
<g id="a_edge1_Node000001_Node000002"><a xlink:title=" ">
<path fill="none" stroke="#63b8ff" d="M739.19,-42.08C730.87,-42.35 722.5,-42.59 714.5,-42.75 651.74,-44.02 636.02,-43.93 573.25,-42.75 561.7,-42.53 549.45,-42.18 537.53,-41.78"/>
<polygon fill="#63b8ff" stroke="#63b8ff" points="739.22,-45.54 749.09,-41.69 738.97,-38.55 739.22,-45.54"/>
</a>
</g>
</g>
<!-- Node6 -->
<g id="Node000006" class="node">
<title>Node6</title>
<g id="a_Node000006"><a xlink:href="classraytracer_1_1Scene.html#a47df2dc8ff0d5b2c53a1119e4dbc78a5" target="_top" xlink:title="Calcule la couleur de la lumière sur une primitive à un point d&#39;intersection donné.">
<polygon fill="white" stroke="#666666" points="714.5,-33.5 573.25,-33.5 573.25,0 714.5,0 714.5,-33.5"/>
<text text-anchor="start" x="581.25" y="-20" font-family="Helvetica,sans-Serif" font-size="10.00">raytracer::Scene::getLight</text>
<text text-anchor="middle" x="643.88" y="-7.25" font-family="Helvetica,sans-Serif" font-size="10.00">Color</text>
</a>
</g>
</g>
<!-- Node1&#45;&gt;Node6 -->
<g id="edge5_Node000001_Node000006" class="edge">
<title>Node1&#45;&gt;Node6</title>
<g id="a_edge5_Node000001_Node000006"><a xlink:title=" ">
<path fill="none" stroke="#63b8ff" d="M739.25,-29.07C731.18,-28.02 722.98,-26.95 714.95,-25.9"/>
<polygon fill="#63b8ff" stroke="#63b8ff" points="738.78,-32.67 749.15,-30.5 739.69,-25.73 738.78,-32.67"/>
</a>
</g>
</g>
<!-- Node3 -->
<g id="Node000003" class="node">
<title>Node3</title>
<g id="a_Node000003"><a xlink:href="classraytracer_1_1Scene.html#acda226b04c50587c0125112e5bfa5e7b" target="_top" xlink:title="Lance le rendu de la scène dans l&#39;image fournie.">
<polygon fill="white" stroke="#666666" points="358.5,-49.12 225.5,-49.12 225.5,-28.38 358.5,-28.38 358.5,-49.12"/>
<text text-anchor="middle" x="292" y="-35.62" font-family="Helvetica,sans-Serif" font-size="10.00">raytracer::Scene::render</text>
</a>
</g>
</g>
<!-- Node2&#45;&gt;Node3 -->
<g id="edge2_Node000002_Node000003" class="edge">
<title>Node2&#45;&gt;Node3</title>
<g id="a_edge2_Node000002_Node000003"><a xlink:title=" ">
<path fill="none" stroke="#63b8ff" d="M383.62,-38.75C375.33,-38.75 366.97,-38.75 358.87,-38.75"/>
<polygon fill="#63b8ff" stroke="#63b8ff" points="383.47,-42.25 393.47,-38.75 383.47,-35.25 383.47,-42.25"/>
</a>
</g>
</g>
<!-- Node4 -->
<g id="Node000004" class="node">
<title>Node4</title>
<g id="a_Node000004"><a xlink:href="classcore_1_1RayTracer.html#a859673b935c3ccddb6c3db5a3710f6fd" target="_top" xlink:title="Lance l&#39;exécution principale du programme.">
<polygon fill="white" stroke="#666666" points="189.5,-49.12 76.75,-49.12 76.75,-28.38 189.5,-28.38 189.5,-49.12"/>
<text text-anchor="middle" x="133.12" y="-35.62" font-family="Helvetica,sans-Serif" font-size="10.00">core::RayTracer::run</text>
</a>
</g>
</g>
<!-- Node3&#45;&gt;Node4 -->
<g id="edge3_Node000003_Node000004" class="edge">
<title>Node3&#45;&gt;Node4</title>
<g id="a_edge3_Node000003_Node000004"><a xlink:title=" ">
<path fill="none" stroke="#63b8ff" d="M214.4,-38.75C206.01,-38.75 197.6,-38.75 189.54,-38.75"/>
<polygon fill="#63b8ff" stroke="#63b8ff" points="214.38,-42.25 224.38,-38.75 214.38,-35.25 214.38,-42.25"/>
</a>
</g>
</g>
<!-- Node5 -->
<g id="Node000005" class="node">
<title>Node5</title>
<g id="a_Node000005"><a xlink:href="Main_8cpp.html#a3c04138a5bfe5d72780bb7e82a18e627" target="_top" xlink:title="Point d&#39;entrée principal du programme.">
<polygon fill="white" stroke="#666666" points="40.75,-49.12 0,-49.12 0,-28.38 40.75,-28.38 40.75,-49.12"/>
<text text-anchor="middle" x="20.38" y="-35.62" font-family="Helvetica,sans-Serif" font-size="10.00">main</text>
</a>
</g>
</g>
<!-- Node4&#45;&gt;Node5 -->
<g id="edge4_Node000004_Node000005" class="edge">
<title>Node4&#45;&gt;Node5</title>
<g id="a_edge4_Node000004_Node000005"><a xlink:title=" ">
<path fill="none" stroke="#63b8ff" d="M65.47,-38.75C56.6,-38.75 48.14,-38.75 41.04,-38.75"/>
<polygon fill="#63b8ff" stroke="#63b8ff" points="65.43,-42.25 75.43,-38.75 65.43,-35.25 65.43,-42.25"/>
</a>
</g>
</g>
<!-- Node6&#45;&gt;Node2 -->
<g id="edge6_Node000006_Node000002" class="edge">
<title>Node6&#45;&gt;Node2</title>
<g id="a_edge6_Node000006_Node000002"><a xlink:title=" ">
<path fill="none" stroke="#63b8ff" d="M562.11,-26.85C553.92,-27.87 545.64,-28.9 537.56,-29.91"/>
<polygon fill="#63b8ff" stroke="#63b8ff" points="562.32,-30.22 571.81,-25.51 561.45,-23.28 562.32,-30.22"/>
</a>
</g>
</g>
</g>
</svg>
