<?xml version="1.0" encoding="UTF-8" standalone="no"?>
<!DOCTYPE svg PUBLIC "-//W3C//DTD SVG 1.1//EN"
 "http://www.w3.org/Graphics/SVG/1.1/DTD/svg11.dtd">
<!-- Generated by graphviz version 8.1.0 (20230707.0739)
 -->
<!-- Title: raytracer::ILight Pages: 1 -->
<svg width="272pt" height="324pt"
 viewBox="0.00 0.00 272.00 324.00" xmlns="http://www.w3.org/2000/svg" xmlns:xlink="http://www.w3.org/1999/xlink">
<g id="graph0" class="graph" transform="scale(1 1) rotate(0) translate(4 320)">
<title>raytracer::ILight</title>
<!-- Node1 -->
<g id="Node000001" class="node">
<title>Node1</title>
<g id="a_Node000001"><a xlink:title="Interface abstraite représentant une source lumineuse dans la scène.">
<polygon fill="#999999" stroke="none" points="201,-316 76,-316 76,-200 201,-200 201,-316"/>
<text text-anchor="start" x="99.88" y="-302.5" font-family="Helvetica,sans-Serif" font-size="10.00">raytracer::ILight</text>
<text text-anchor="start" x="79.88" y="-286.5" font-family="Helvetica,sans-Serif" font-size="10.00">+</text>
<text text-anchor="start" x="92" y="-286.5" font-family="Helvetica,sans-Serif" font-size="10.00">mBaseOrigin</text>
<text text-anchor="start" x="79.88" y="-270.5" font-family="Helvetica,sans-Serif" font-size="10.00">+</text>
<text text-anchor="start" x="92" y="-270.5" font-family="Helvetica,sans-Serif" font-size="10.00">mBaseDirection</text>
<text text-anchor="start" x="79.88" y="-254.5" font-family="Helvetica,sans-Serif" font-size="10.00">+</text>
<text text-anchor="start" x="92" y="-254.5" font-family="Helvetica,sans-Serif" font-size="10.00">mBaseColor</text>
<text text-anchor="start" x="79.88" y="-238.5" font-family="Helvetica,sans-Serif" font-size="10.00">+</text>
<text text-anchor="start" x="92" y="-238.5" font-family="Helvetica,sans-Serif" font-size="10.00">mBaseVectorRotation</text>
<text text-anchor="start" x="79.88" y="-222.5" font-family="Helvetica,sans-Serif" font-size="10.00">+</text>
<text text-anchor="start" x="92" y="-222.5" font-family="Helvetica,sans-Serif" font-size="10.00">~ILight()</text>
<text text-anchor="start" x="79.88" y="-206.5" font-family="Helvetica,sans-Serif" font-size="10.00">+</text>
<text text-anchor="start" x="92" y="-206.5" font-family="Helvetica,sans-Serif" font-size="10.00">getColorShadow()</text>
<polygon fill="#666666" stroke="#666666" points="76,-298 76,-298 201,-298 201,-298 76,-298"/>
<polygon fill="#666666" stroke="#666666" points="76,-234 76,-234 90,-234 90,-234 76,-234"/>
<polygon fill="#666666" stroke="#666666" points="90,-234 90,-234 201,-234 201,-234 90,-234"/>
<polygon fill="none" stroke="#666666" points="76,-200 76,-316 201,-316 201,-200 76,-200"/>
</a>
</g>
</g>
<!-- Node2 -->
<g id="Node000002" class="node">
<title>Node2</title>
<g id="a_Node000002"><a xlink:href="classraytracer_1_1DirectionalLight.html" target="_top" xlink:title=" ">
<polygon fill="white" stroke="none" points="137,-164 0,-164 0,0 137,0 137,-164"/>
<text text-anchor="start" x="4.75" y="-150.5" font-family="Helvetica,sans-Serif" font-size="10.00">raytracer::DirectionalLight</text>
<text text-anchor="start" x="9.88" y="-134.5" font-family="Helvetica,sans-Serif" font-size="10.00">+</text>
<text text-anchor="start" x="28" y="-134.5" font-family="Helvetica,sans-Serif" font-size="10.00">mDirection</text>
<text text-anchor="start" x="9.88" y="-118.5" font-family="Helvetica,sans-Serif" font-size="10.00">+</text>
<text text-anchor="start" x="28" y="-118.5" font-family="Helvetica,sans-Serif" font-size="10.00">mOrigin</text>
<text text-anchor="start" x="9.88" y="-102.5" font-family="Helvetica,sans-Serif" font-size="10.00">+</text>
<text text-anchor="start" x="28" y="-102.5" font-family="Helvetica,sans-Serif" font-size="10.00">mColor</text>
<text text-anchor="start" x="9.88" y="-86.5" font-family="Helvetica,sans-Serif" font-size="10.00">+</text>
<text text-anchor="start" x="28" y="-86.5" font-family="Helvetica,sans-Serif" font-size="10.00">mAllMatrix</text>
<text text-anchor="start" x="9.88" y="-70.5" font-family="Helvetica,sans-Serif" font-size="10.00">+</text>
<text text-anchor="start" x="28" y="-70.5" font-family="Helvetica,sans-Serif" font-size="10.00">mVectorRotation</text>
<text text-anchor="start" x="9.88" y="-54.5" font-family="Helvetica,sans-Serif" font-size="10.00">+</text>
<text text-anchor="start" x="28" y="-54.5" font-family="Helvetica,sans-Serif" font-size="10.00">DirectionalLight()</text>
<text text-anchor="start" x="9.88" y="-38.5" font-family="Helvetica,sans-Serif" font-size="10.00">+</text>
<text text-anchor="start" x="28" y="-38.5" font-family="Helvetica,sans-Serif" font-size="10.00">DirectionalLight()</text>
<text text-anchor="start" x="9.88" y="-22.5" font-family="Helvetica,sans-Serif" font-size="10.00">+</text>
<text text-anchor="start" x="28" y="-22.5" font-family="Helvetica,sans-Serif" font-size="10.00">~DirectionalLight()</text>
<text text-anchor="start" x="9.88" y="-6.5" font-family="Helvetica,sans-Serif" font-size="10.00">+</text>
<text text-anchor="start" x="28" y="-6.5" font-family="Helvetica,sans-Serif" font-size="10.00">getColorShadow()</text>
<polygon fill="#666666" stroke="#666666" points="0,-146 0,-146 137,-146 137,-146 0,-146"/>
<polygon fill="#666666" stroke="#666666" points="0,-66 0,-66 26,-66 26,-66 0,-66"/>
<polygon fill="#666666" stroke="#666666" points="26,-66 26,-66 137,-66 137,-66 26,-66"/>
<polygon fill="none" stroke="#666666" points="0,0 0,-164 137,-164 137,0 0,0"/>
</a>
</g>
</g>
<!-- Node1&#45;&gt;Node2 -->
<g id="edge1_Node000001_Node000002" class="edge">
<title>Node1&#45;&gt;Node2</title>
<g id="a_edge1_Node000001_Node000002"><a xlink:title=" ">
<path fill="none" stroke="#63b8ff" d="M111.57,-190.07C108.11,-181.46 104.54,-172.58 101,-163.78"/>
<polygon fill="none" stroke="#63b8ff" points="108.6,-191.05 115.58,-199.03 115.09,-188.44 108.6,-191.05"/>
</a>
</g>
</g>
<!-- Node3 -->
<g id="Node000003" class="node">
<title>Node3</title>
<g id="a_Node000003"><a xlink:href="classraytracer_1_1PointLight.html" target="_top" xlink:title="Classe représentant une source lumineuse ponctuelle (point light).">
<polygon fill="white" stroke="none" points="264,-156 155,-156 155,-8 264,-8 264,-156"/>
<text text-anchor="start" x="160" y="-142.5" font-family="Helvetica,sans-Serif" font-size="10.00">raytracer::PointLight</text>
<text text-anchor="start" x="159.38" y="-126.5" font-family="Helvetica,sans-Serif" font-size="10.00">+</text>
<text text-anchor="start" x="172" y="-126.5" font-family="Helvetica,sans-Serif" font-size="10.00">mOrigin</text>
<text text-anchor="start" x="159.38" y="-110.5" font-family="Helvetica,sans-Serif" font-size="10.00">+</text>
<text text-anchor="start" x="172" y="-110.5" font-family="Helvetica,sans-Serif" font-size="10.00">mColor</text>
<text text-anchor="start" x="159.38" y="-94.5" font-family="Helvetica,sans-Serif" font-size="10.00">+</text>
<text text-anchor="start" x="172" y="-94.5" font-family="Helvetica,sans-Serif" font-size="10.00">mAllMatrix</text>
<text text-anchor="start" x="159.38" y="-78.5" font-family="Helvetica,sans-Serif" font-size="10.00">+</text>
<text text-anchor="start" x="172" y="-78.5" font-family="Helvetica,sans-Serif" font-size="10.00">mVectorRotation</text>
<text text-anchor="start" x="159.38" y="-62.5" font-family="Helvetica,sans-Serif" font-size="10.00">+</text>
<text text-anchor="start" x="172" y="-62.5" font-family="Helvetica,sans-Serif" font-size="10.00">PointLight()</text>
<text text-anchor="start" x="159.38" y="-46.5" font-family="Helvetica,sans-Serif" font-size="10.00">+</text>
<text text-anchor="start" x="172" y="-46.5" font-family="Helvetica,sans-Serif" font-size="10.00">PointLight()</text>
<text text-anchor="start" x="159.38" y="-30.5" font-family="Helvetica,sans-Serif" font-size="10.00">+</text>
<text text-anchor="start" x="172" y="-30.5" font-family="Helvetica,sans-Serif" font-size="10.00">~PointLight()</text>
<text text-anchor="start" x="159.38" y="-14.5" font-family="Helvetica,sans-Serif" font-size="10.00">+</text>
<text text-anchor="start" x="172" y="-14.5" font-family="Helvetica,sans-Serif" font-size="10.00">getColorShadow()</text>
<polygon fill="#666666" stroke="#666666" points="155,-138 155,-138 264,-138 264,-138 155,-138"/>
<polygon fill="#666666" stroke="#666666" points="155,-74 155,-74 170,-74 170,-74 155,-74"/>
<polygon fill="#666666" stroke="#666666" points="170,-74 170,-74 264,-74 264,-74 170,-74"/>
<polygon fill="none" stroke="#666666" points="155,-8 155,-156 264,-156 264,-8 155,-8"/>
</a>
</g>
</g>
<!-- Node1&#45;&gt;Node3 -->
<g id="edge2_Node000001_Node000003" class="edge">
<title>Node1&#45;&gt;Node3</title>
<g id="a_edge2_Node000001_Node000003"><a xlink:title=" ">
<path fill="none" stroke="#63b8ff" d="M165.86,-189.96C170.4,-178.82 175.13,-167.23 179.73,-155.96"/>
<polygon fill="none" stroke="#63b8ff" points="162.29,-188.44 161.75,-199.03 168.77,-191.09 162.29,-188.44"/>
</a>
</g>
</g>
</g>
</svg>
