<?xml version="1.0" encoding="UTF-8" standalone="no"?>
<!DOCTYPE svg PUBLIC "-//W3C//DTD SVG 1.1//EN"
 "http://www.w3.org/Graphics/SVG/1.1/DTD/svg11.dtd">
<!-- Generated by graphviz version 8.1.0 (20230707.0739)
 -->
<!-- Title: raytracer::Scene::render Pages: 1 -->
<svg width="852pt" height="247pt"
 viewBox="0.00 0.00 851.50 247.12" xmlns="http://www.w3.org/2000/svg" xmlns:xlink="http://www.w3.org/1999/xlink">
<g id="graph0" class="graph" transform="scale(1 1) rotate(0) translate(4 243.12)">
<title>raytracer::Scene::render</title>
<!-- Node1 -->
<g id="Node000001" class="node">
<title>Node1</title>
<g id="a_Node000001"><a xlink:title="Lance le rendu de la scène dans l&#39;image fournie.">
<polygon fill="#999999" stroke="#666666" points="133,-93.12 0,-93.12 0,-72.38 133,-72.38 133,-93.12"/>
<text text-anchor="middle" x="66.5" y="-79.62" font-family="Helvetica,sans-Serif" font-size="10.00">raytracer::Scene::render</text>
</a>
</g>
</g>
<!-- Node2 -->
<g id="Node000002" class="node">
<title>Node2</title>
<g id="a_Node000002"><a xlink:href="classraytracer_1_1Scene.html#a3e1cc90ae8e645a806ebc45eb6681958" target="_top" xlink:title="Calcule la couleur d&#39;un pixel donné dans l&#39;image.">
<polygon fill="white" stroke="#666666" points="315.88,-152.12 173.12,-152.12 173.12,-131.38 315.88,-131.38 315.88,-152.12"/>
<text text-anchor="middle" x="244.5" y="-138.62" font-family="Helvetica,sans-Serif" font-size="10.00">raytracer::Scene::getColor</text>
</a>
</g>
</g>
<!-- Node1&#45;&gt;Node2 -->
<g id="edge1_Node000001_Node000002" class="edge">
<title>Node1&#45;&gt;Node2</title>
<g id="a_edge1_Node000001_Node000002"><a xlink:title=" ">
<path fill="none" stroke="#63b8ff" d="M93.52,-93.61C113.86,-101.89 142.97,-113.28 169,-121.75 175.67,-123.92 182.74,-126.04 189.75,-128.04"/>
<polygon fill="#63b8ff" stroke="#63b8ff" points="188.37,-131.57 198.94,-130.88 190.24,-124.82 188.37,-131.57"/>
</a>
</g>
</g>
<!-- Node11 -->
<g id="Node000011" class="node">
<title>Node11</title>
<g id="a_Node000011"><a xlink:href="classraytracer_1_1Image.html#ac2ba89c5465c0bc307b3dfa87ea4bf33" target="_top" xlink:title="Getter pour la hauteur de l&#39;image.">
<polygon fill="white" stroke="#666666" points="320,-113.12 169,-113.12 169,-92.38 320,-92.38 320,-113.12"/>
<text text-anchor="middle" x="244.5" y="-99.62" font-family="Helvetica,sans-Serif" font-size="10.00">raytracer::Image::getHeight</text>
</a>
</g>
</g>
<!-- Node1&#45;&gt;Node11 -->
<g id="edge13_Node000001_Node000011" class="edge">
<title>Node1&#45;&gt;Node11</title>
<g id="a_edge13_Node000001_Node000011"><a xlink:title=" ">
<path fill="none" stroke="#63b8ff" d="M133.29,-90.23C141.3,-91.14 149.57,-92.08 157.82,-93.01"/>
<polygon fill="#63b8ff" stroke="#63b8ff" points="157.29,-96.59 167.62,-94.24 158.08,-89.63 157.29,-96.59"/>
</a>
</g>
</g>
<!-- Node12 -->
<g id="Node000012" class="node">
<title>Node12</title>
<g id="a_Node000012"><a xlink:href="classraytracer_1_1Image.html#a97f45882442cf62c1ae8c76b99991b59" target="_top" xlink:title="Getter pour la largeur de l&#39;image.">
<polygon fill="white" stroke="#666666" points="318.12,-74.12 170.88,-74.12 170.88,-53.38 318.12,-53.38 318.12,-74.12"/>
<text text-anchor="middle" x="244.5" y="-60.62" font-family="Helvetica,sans-Serif" font-size="10.00">raytracer::Image::getWidth</text>
</a>
</g>
</g>
<!-- Node1&#45;&gt;Node12 -->
<g id="edge14_Node000001_Node000012" class="edge">
<title>Node1&#45;&gt;Node12</title>
<g id="a_edge14_Node000001_Node000012"><a xlink:title=" ">
<path fill="none" stroke="#63b8ff" d="M133.29,-75.65C141.89,-74.72 150.8,-73.76 159.66,-72.8"/>
<polygon fill="#63b8ff" stroke="#63b8ff" points="159.84,-76.19 169.41,-71.64 159.09,-69.23 159.84,-76.19"/>
</a>
</g>
</g>
<!-- Node13 -->
<g id="Node000013" class="node">
<title>Node13</title>
<g id="a_Node000013"><a xlink:href="classraytracer_1_1Image.html#a35cb4abe430709e46e24beb3ac4bee63" target="_top" xlink:title="Définit la couleur d&#39;un pixel à une position donnée.">
<polygon fill="white" stroke="#666666" points="315.12,-35.12 173.88,-35.12 173.88,-14.38 315.12,-14.38 315.12,-35.12"/>
<text text-anchor="middle" x="244.5" y="-21.62" font-family="Helvetica,sans-Serif" font-size="10.00">raytracer::Image::setPixel</text>
</a>
</g>
</g>
<!-- Node1&#45;&gt;Node13 -->
<g id="edge15_Node000001_Node000013" class="edge">
<title>Node1&#45;&gt;Node13</title>
<g id="a_edge15_Node000001_Node000013"><a xlink:title=" ">
<path fill="none" stroke="#63b8ff" d="M94.39,-71.88C114.71,-63.86 143.38,-52.96 169,-44.75 175.77,-42.58 182.93,-40.45 190.04,-38.44"/>
<polygon fill="#63b8ff" stroke="#63b8ff" points="190.65,-41.62 199.35,-35.58 188.78,-34.88 190.65,-41.62"/>
</a>
</g>
</g>
<!-- Node3 -->
<g id="Node000003" class="node">
<title>Node3</title>
<g id="a_Node000003"><a xlink:href="classraytracer_1_1Color.html#af57a11390d98eeb60d1f804f2a85bb72" target="_top" xlink:title=" ">
<polygon fill="white" stroke="#666666" points="661,-239.12 533.25,-239.12 533.25,-218.38 661,-218.38 661,-239.12"/>
<text text-anchor="middle" x="597.12" y="-225.62" font-family="Helvetica,sans-Serif" font-size="10.00">raytracer::Color::clamp</text>
</a>
</g>
</g>
<!-- Node2&#45;&gt;Node3 -->
<g id="edge2_Node000002_Node000003" class="edge">
<title>Node2&#45;&gt;Node3</title>
<g id="a_edge2_Node000002_Node000003"><a xlink:title=" ">
<path fill="none" stroke="#63b8ff" d="M262.74,-152.59C283.87,-165.33 321.17,-186.08 356,-196.75 410.19,-213.34 473.86,-221.34 522.02,-225.18"/>
<polygon fill="#63b8ff" stroke="#63b8ff" points="521.75,-228.75 531.98,-226.01 522.27,-221.77 521.75,-228.75"/>
</a>
</g>
</g>
<!-- Node4 -->
<g id="Node000004" class="node">
<title>Node4</title>
<g id="a_Node000004"><a xlink:href="classraytracer_1_1Scene.html#a47df2dc8ff0d5b2c53a1119e4dbc78a5" target="_top" xlink:title="Calcule la couleur de la lumière sur une primitive à un point d&#39;intersection donné.">
<polygon fill="white" stroke="#666666" points="497.25,-187.5 356,-187.5 356,-154 497.25,-154 497.25,-187.5"/>
<text text-anchor="start" x="364" y="-174" font-family="Helvetica,sans-Serif" font-size="10.00">raytracer::Scene::getLight</text>
<text text-anchor="middle" x="426.62" y="-161.25" font-family="Helvetica,sans-Serif" font-size="10.00">Color</text>
</a>
</g>
</g>
<!-- Node2&#45;&gt;Node4 -->
<g id="edge3_Node000002_Node000004" class="edge">
<title>Node2&#45;&gt;Node4</title>
<g id="a_edge3_Node000002_Node000004"><a xlink:title=" ">
<path fill="none" stroke="#63b8ff" d="M312.83,-152.59C323.32,-154.28 334.25,-156.04 345,-157.77"/>
<polygon fill="#63b8ff" stroke="#63b8ff" points="344.24,-161.35 354.67,-159.49 345.36,-154.44 344.24,-161.35"/>
</a>
</g>
</g>
<!-- Node6 -->
<g id="Node000006" class="node">
<title>Node6</title>
<g id="a_Node000006"><a xlink:href="classmath_1_1Vector3D.html#ae0c26833a0b58f2709884880a02bdc52" target="_top" xlink:title="Normalise le vecteur actuel (modifie en place).">
<polygon fill="white" stroke="#666666" points="843.5,-124.12 697,-124.12 697,-103.38 843.5,-103.38 843.5,-124.12"/>
<text text-anchor="middle" x="770.25" y="-110.62" font-family="Helvetica,sans-Serif" font-size="10.00">math::Vector3D::normalize</text>
</a>
</g>
</g>
<!-- Node2&#45;&gt;Node6 -->
<g id="edge7_Node000002_Node000006" class="edge">
<title>Node2&#45;&gt;Node6</title>
<g id="a_edge7_Node000002_Node000006"><a xlink:title=" ">
<path fill="none" stroke="#63b8ff" d="M316.14,-137.97C412.18,-132.84 583.68,-123.67 685.91,-118.21"/>
<polygon fill="#63b8ff" stroke="#63b8ff" points="686,-121.65 695.8,-117.62 685.62,-114.66 686,-121.65"/>
</a>
</g>
</g>
<!-- Node7 -->
<g id="Node000007" class="node">
<title>Node7</title>
<g id="a_Node000007"><a xlink:href="classraytracer_1_1Camera.html#aa6be6292787a7ffd1833c7184aed42af" target="_top" xlink:title="Génère un rayon à partir des coordonnées normalisées sur le plan de l&#39;écran.">
<polygon fill="white" stroke="#666666" points="489.75,-79.12 363.5,-79.12 363.5,-58.38 489.75,-58.38 489.75,-79.12"/>
<text text-anchor="middle" x="426.62" y="-65.62" font-family="Helvetica,sans-Serif" font-size="10.00">raytracer::Camera::ray</text>
</a>
</g>
</g>
<!-- Node2&#45;&gt;Node7 -->
<g id="edge8_Node000002_Node000007" class="edge">
<title>Node2&#45;&gt;Node7</title>
<g id="a_edge8_Node000002_Node000007"><a xlink:title=" ">
<path fill="none" stroke="#63b8ff" d="M293.88,-130.93C302.72,-128.35 311.75,-125.29 320,-121.75 337.23,-114.35 339.4,-108.47 356,-99.75 366.56,-94.2 378.32,-88.71 389.13,-83.93"/>
<polygon fill="#63b8ff" stroke="#63b8ff" points="390.35,-86.79 398.12,-79.59 387.56,-80.37 390.35,-86.79"/>
</a>
</g>
</g>
<!-- Node4&#45;&gt;Node3 -->
<g id="edge4_Node000004_Node000003" class="edge">
<title>Node4&#45;&gt;Node3</title>
<g id="a_edge4_Node000004_Node000003"><a xlink:title=" ">
<path fill="none" stroke="#63b8ff" d="M474.29,-187.96C492.62,-194.61 513.87,-202.18 533.25,-208.75 539.09,-210.73 545.25,-212.76 551.34,-214.73"/>
<polygon fill="#63b8ff" stroke="#63b8ff" points="549.87,-218.25 560.46,-217.98 552.01,-211.59 549.87,-218.25"/>
</a>
</g>
</g>
<!-- Node5 -->
<g id="Node000005" class="node">
<title>Node5</title>
<g id="a_Node000005"><a xlink:href="classmath_1_1Vector3D.html#ac86c5f9ee96342aed93b22387a86e247" target="_top" xlink:title="Calcule le produit scalaire avec un autre vecteur.">
<polygon fill="white" stroke="#666666" points="653.88,-200.12 540.38,-200.12 540.38,-179.38 653.88,-179.38 653.88,-200.12"/>
<text text-anchor="middle" x="597.12" y="-186.62" font-family="Helvetica,sans-Serif" font-size="10.00">math::Vector3D::dot</text>
</a>
</g>
</g>
<!-- Node4&#45;&gt;Node5 -->
<g id="edge5_Node000004_Node000005" class="edge">
<title>Node4&#45;&gt;Node5</title>
<g id="a_edge5_Node000004_Node000005"><a xlink:title=" ">
<path fill="none" stroke="#63b8ff" d="M497.62,-178.64C508.09,-179.82 518.86,-181.04 529.26,-182.21"/>
<polygon fill="#63b8ff" stroke="#63b8ff" points="528.61,-185.77 538.94,-183.41 529.4,-178.82 528.61,-185.77"/>
</a>
</g>
</g>
<!-- Node4&#45;&gt;Node6 -->
<g id="edge6_Node000004_Node000006" class="edge">
<title>Node4&#45;&gt;Node6</title>
<g id="a_edge6_Node000004_Node000006"><a xlink:title=" ">
<path fill="none" stroke="#63b8ff" d="M497.58,-159.08C554.64,-149.56 635.1,-136.13 693.64,-126.37"/>
<polygon fill="#63b8ff" stroke="#63b8ff" points="694.01,-129.68 703.3,-124.59 692.86,-122.78 694.01,-129.68"/>
</a>
</g>
</g>
<!-- Node8 -->
<g id="Node000008" class="node">
<title>Node8</title>
<g id="a_Node000008"><a xlink:href="classraytracer_1_1Camera.html#a8afe32e5da7b2f482ab823a45ef428c0" target="_top" xlink:title="Calcule la direction d’un rayon depuis la caméra vers un point de l&#39;écran.">
<polygon fill="white" stroke="#666666" points="652.38,-85.5 541.88,-85.5 541.88,-52 652.38,-52 652.38,-85.5"/>
<text text-anchor="start" x="549.88" y="-72" font-family="Helvetica,sans-Serif" font-size="10.00">raytracer::Camera::</text>
<text text-anchor="middle" x="597.12" y="-59.25" font-family="Helvetica,sans-Serif" font-size="10.00">calculateDirection</text>
</a>
</g>
</g>
<!-- Node7&#45;&gt;Node8 -->
<g id="edge9_Node000007_Node000008" class="edge">
<title>Node7&#45;&gt;Node8</title>
<g id="a_edge9_Node000007_Node000008"><a xlink:title=" ">
<path fill="none" stroke="#63b8ff" d="M489.89,-68.75C503.28,-68.75 517.46,-68.75 530.96,-68.75"/>
<polygon fill="#63b8ff" stroke="#63b8ff" points="530.61,-72.25 540.61,-68.75 530.61,-65.25 530.61,-72.25"/>
</a>
</g>
</g>
<!-- Node9 -->
<g id="Node000009" class="node">
<title>Node9</title>
<g id="a_Node000009"><a xlink:href="classraytracer_1_1Camera.html#a94d16e4d450ae1cfbb908623768561b3" target="_top" xlink:title="Calcule la position 3D sur le plan de l&#39;écran à partir des coordonnées (u, v).">
<polygon fill="white" stroke="#666666" points="652.38,-33.5 541.88,-33.5 541.88,0 652.38,0 652.38,-33.5"/>
<text text-anchor="start" x="549.88" y="-20" font-family="Helvetica,sans-Serif" font-size="10.00">raytracer::Camera::</text>
<text text-anchor="middle" x="597.12" y="-7.25" font-family="Helvetica,sans-Serif" font-size="10.00">calculateScreenPos</text>
</a>
</g>
</g>
<!-- Node7&#45;&gt;Node9 -->
<g id="edge11_Node000007_Node000009" class="edge">
<title>Node7&#45;&gt;Node9</title>
<g id="a_edge11_Node000007_Node000009"><a xlink:title=" ">
<path fill="none" stroke="#63b8ff" d="M462.54,-57.98C482.44,-51.83 508.01,-43.94 531.44,-36.71"/>
<polygon fill="#63b8ff" stroke="#63b8ff" points="532.16,-39.84 540.68,-33.55 530.09,-33.16 532.16,-39.84"/>
</a>
</g>
</g>
<!-- Node8&#45;&gt;Node6 -->
<g id="edge10_Node000008_Node000006" class="edge">
<title>Node8&#45;&gt;Node6</title>
<g id="a_edge10_Node000008_Node000006"><a xlink:title=" ">
<path fill="none" stroke="#63b8ff" d="M652.74,-83.11C673.56,-88.59 697.21,-94.81 717.74,-100.2"/>
<polygon fill="#63b8ff" stroke="#63b8ff" points="716.6,-103.79 727.16,-102.94 718.38,-97.02 716.6,-103.79"/>
</a>
</g>
</g>
<!-- Node10 -->
<g id="Node000010" class="node">
<title>Node10</title>
<g id="a_Node000010"><a xlink:href="classraytracer_1_1Rectangle3D.html#a1076e494c43ceb9b232a87ec150b2044" target="_top" xlink:title=" ">
<polygon fill="white" stroke="#666666" points="834.5,-33.5 706,-33.5 706,0 834.5,0 834.5,-33.5"/>
<text text-anchor="start" x="714" y="-20" font-family="Helvetica,sans-Serif" font-size="10.00">raytracer::Rectangle3D</text>
<text text-anchor="middle" x="770.25" y="-7.25" font-family="Helvetica,sans-Serif" font-size="10.00">::pointAt</text>
</a>
</g>
</g>
<!-- Node9&#45;&gt;Node10 -->
<g id="edge12_Node000009_Node000010" class="edge">
<title>Node9&#45;&gt;Node10</title>
<g id="a_edge12_Node000009_Node000010"><a xlink:title=" ">
<path fill="none" stroke="#63b8ff" d="M652.74,-16.75C666.15,-16.75 680.73,-16.75 694.89,-16.75"/>
<polygon fill="#63b8ff" stroke="#63b8ff" points="694.61,-20.25 704.61,-16.75 694.61,-13.25 694.61,-20.25"/>
</a>
</g>
</g>
</g>
</svg>
