<?xml version="1.0" encoding="UTF-8" standalone="no"?>
<!DOCTYPE svg PUBLIC "-//W3C//DTD SVG 1.1//EN"
 "http://www.w3.org/Graphics/SVG/1.1/DTD/svg11.dtd">
<!-- Generated by graphviz version 8.1.0 (20230707.0739)
 -->
<!-- Title: raytracer::Parser::parseLights Pages: 1 -->
<svg width="319pt" height="236pt"
 viewBox="0.00 0.00 319.00 235.50" xmlns="http://www.w3.org/2000/svg" xmlns:xlink="http://www.w3.org/1999/xlink">
<g id="graph0" class="graph" transform="scale(1 1) rotate(0) translate(4 231.5)">
<title>raytracer::Parser::parseLights</title>
<!-- Node1 -->
<g id="Node000001" class="node">
<title>Node1</title>
<g id="a_Node000001"><a xlink:title=" ">
<polygon fill="#999999" stroke="#666666" points="102.25,-123.5 0,-123.5 0,-90 102.25,-90 102.25,-123.5"/>
<text text-anchor="start" x="8" y="-110" font-family="Helvetica,sans-Serif" font-size="10.00">raytracer::Parser::</text>
<text text-anchor="middle" x="51.12" y="-97.25" font-family="Helvetica,sans-Serif" font-size="10.00">parseLights</text>
</a>
</g>
</g>
<!-- Node2 -->
<g id="Node000002" class="node">
<title>Node2</title>
<g id="a_Node000002"><a xlink:href="classraytracer_1_1Scene.html#a61edaa90e29d64faef449a9343ca2970" target="_top" xlink:title=" ">
<polygon fill="white" stroke="#666666" points="305,-227.5 144.25,-227.5 144.25,-194 305,-194 305,-227.5"/>
<text text-anchor="start" x="152.25" y="-214" font-family="Helvetica,sans-Serif" font-size="10.00">raytracer::Scene::addAmbient</text>
<text text-anchor="middle" x="224.62" y="-201.25" font-family="Helvetica,sans-Serif" font-size="10.00">Light</text>
</a>
</g>
</g>
<!-- Node1&#45;&gt;Node2 -->
<g id="edge1_Node000001_Node000002" class="edge">
<title>Node1&#45;&gt;Node2</title>
<g id="a_edge1_Node000001_Node000002"><a xlink:title=" ">
<path fill="none" stroke="#63b8ff" d="M66.64,-123.73C82.55,-141.34 109.65,-168.53 138.25,-184.75 140.97,-186.29 143.78,-187.75 146.67,-189.13"/>
<polygon fill="#63b8ff" stroke="#63b8ff" points="145.14,-192.72 155.7,-193.53 147.95,-186.31 145.14,-192.72"/>
</a>
</g>
</g>
<!-- Node3 -->
<g id="Node000003" class="node">
<title>Node3</title>
<g id="a_Node000003"><a xlink:href="classraytracer_1_1Scene.html#ad82888c1f75cb772cf854bc203202ec7" target="_top" xlink:title=" ">
<polygon fill="white" stroke="#666666" points="311,-175.5 138.25,-175.5 138.25,-142 311,-142 311,-175.5"/>
<text text-anchor="start" x="146.25" y="-162" font-family="Helvetica,sans-Serif" font-size="10.00">raytracer::Scene::addDirectional</text>
<text text-anchor="middle" x="224.62" y="-149.25" font-family="Helvetica,sans-Serif" font-size="10.00">Light</text>
</a>
</g>
</g>
<!-- Node1&#45;&gt;Node3 -->
<g id="edge2_Node000001_Node000003" class="edge">
<title>Node1&#45;&gt;Node3</title>
<g id="a_edge2_Node000001_Node000003"><a xlink:title=" ">
<path fill="none" stroke="#63b8ff" d="M102.65,-122.07C119.5,-127.18 138.55,-132.95 156.46,-138.38"/>
<polygon fill="#63b8ff" stroke="#63b8ff" points="155.26,-141.98 165.85,-141.53 157.29,-135.28 155.26,-141.98"/>
</a>
</g>
</g>
<!-- Node4 -->
<g id="Node000004" class="node">
<title>Node4</title>
<g id="a_Node000004"><a xlink:href="classraytracer_1_1Scene.html#a337179ae15098abc513326c6bc54fec5" target="_top" xlink:title=" ">
<polygon fill="white" stroke="#666666" points="296.75,-123.5 152.5,-123.5 152.5,-90 296.75,-90 296.75,-123.5"/>
<text text-anchor="start" x="160.5" y="-110" font-family="Helvetica,sans-Serif" font-size="10.00">raytracer::Scene::addPoint</text>
<text text-anchor="middle" x="224.62" y="-97.25" font-family="Helvetica,sans-Serif" font-size="10.00">Light</text>
</a>
</g>
</g>
<!-- Node1&#45;&gt;Node4 -->
<g id="edge3_Node000001_Node000004" class="edge">
<title>Node1&#45;&gt;Node4</title>
<g id="a_edge3_Node000001_Node000004"><a xlink:title=" ">
<path fill="none" stroke="#63b8ff" d="M102.65,-106.75C114.77,-106.75 128.03,-106.75 141.18,-106.75"/>
<polygon fill="#63b8ff" stroke="#63b8ff" points="141.17,-110.25 151.17,-106.75 141.17,-103.25 141.17,-110.25"/>
</a>
</g>
</g>
<!-- Node5 -->
<g id="Node000005" class="node">
<title>Node5</title>
<g id="a_Node000005"><a xlink:href="namespaceraytracer.html#ab2cdf2245a3477d8696a50e3e19f07da" target="_top" xlink:title=" ">
<polygon fill="white" stroke="#666666" points="291.88,-72.12 157.38,-72.12 157.38,-51.38 291.88,-51.38 291.88,-72.12"/>
<text text-anchor="middle" x="224.62" y="-58.62" font-family="Helvetica,sans-Serif" font-size="10.00">raytracer::parseRotation</text>
</a>
</g>
</g>
<!-- Node1&#45;&gt;Node5 -->
<g id="edge4_Node000001_Node000005" class="edge">
<title>Node1&#45;&gt;Node5</title>
<g id="a_edge4_Node000001_Node000005"><a xlink:title=" ">
<path fill="none" stroke="#63b8ff" d="M102.5,-90.86C114.19,-87.36 126.62,-83.8 138.25,-80.75 145.72,-78.79 153.6,-76.86 161.42,-75.03"/>
<polygon fill="#63b8ff" stroke="#63b8ff" points="162.05,-78.24 171.01,-72.59 160.48,-71.42 162.05,-78.24"/>
</a>
</g>
</g>
<!-- Node6 -->
<g id="Node000006" class="node">
<title>Node6</title>
<g id="a_Node000006"><a xlink:href="classraytracer_1_1ErrorHandler.html#aada9238fd341b8db1101c7b8d7ea337e" target="_top" xlink:title=" ">
<polygon fill="white" stroke="#666666" points="288.5,-33.5 160.75,-33.5 160.75,0 288.5,0 288.5,-33.5"/>
<text text-anchor="start" x="168.75" y="-20" font-family="Helvetica,sans-Serif" font-size="10.00">raytracer::ErrorHandler</text>
<text text-anchor="middle" x="224.62" y="-7.25" font-family="Helvetica,sans-Serif" font-size="10.00">::report</text>
</a>
</g>
</g>
<!-- Node1&#45;&gt;Node6 -->
<g id="edge5_Node000001_Node000006" class="edge">
<title>Node1&#45;&gt;Node6</title>
<g id="a_edge5_Node000001_Node000006"><a xlink:title=" ">
<path fill="none" stroke="#63b8ff" d="M71.03,-89.68C87.69,-75.41 113.14,-55.42 138.25,-42.75 142.22,-40.75 146.37,-38.87 150.61,-37.11"/>
<polygon fill="#63b8ff" stroke="#63b8ff" points="151.58,-40.1 159.64,-33.22 149.05,-33.57 151.58,-40.1"/>
</a>
</g>
</g>
</g>
</svg>
