<?xml version="1.0" encoding="UTF-8" standalone="no"?>
<!DOCTYPE svg PUBLIC "-//W3C//DTD SVG 1.1//EN"
 "http://www.w3.org/Graphics/SVG/1.1/DTD/svg11.dtd">
<!-- Generated by graphviz version 8.1.0 (20230707.0739)
 -->
<!-- Title: raytracer::PointLight::getColorShadow Pages: 1 -->
<svg width="318pt" height="146pt"
 viewBox="0.00 0.00 317.50 145.75" xmlns="http://www.w3.org/2000/svg" xmlns:xlink="http://www.w3.org/1999/xlink">
<g id="graph0" class="graph" transform="scale(1 1) rotate(0) translate(4 141.75)">
<title>raytracer::PointLight::getColorShadow</title>
<!-- Node1 -->
<g id="Node000001" class="node">
<title>Node1</title>
<g id="a_Node000001"><a xlink:title="Calcule la couleur de l&#39;ombre au point d&#39;intersection donné.">
<polygon fill="#999999" stroke="#666666" points="115,-85.12 0,-85.12 0,-51.62 115,-51.62 115,-85.12"/>
<text text-anchor="start" x="8" y="-71.62" font-family="Helvetica,sans-Serif" font-size="10.00">raytracer::PointLight</text>
<text text-anchor="middle" x="57.5" y="-58.88" font-family="Helvetica,sans-Serif" font-size="10.00">::getColorShadow</text>
</a>
</g>
</g>
<!-- Node2 -->
<g id="Node000002" class="node">
<title>Node2</title>
<g id="a_Node000002"><a xlink:href="classraytracer_1_1World.html#ab66d6d418e5ee32c0671023ac942040b" target="_top" xlink:title=" ">
<polygon fill="white" stroke="#666666" points="309.5,-137.75 151,-137.75 151,-117 309.5,-117 309.5,-137.75"/>
<text text-anchor="middle" x="230.25" y="-124.25" font-family="Helvetica,sans-Serif" font-size="10.00">raytracer::World::getDistance</text>
</a>
</g>
</g>
<!-- Node1&#45;&gt;Node2 -->
<g id="edge1_Node000001_Node000002" class="edge">
<title>Node1&#45;&gt;Node2</title>
<g id="a_edge1_Node000001_Node000002"><a xlink:title=" ">
<path fill="none" stroke="#63b8ff" d="M95.82,-85.6C112.48,-92.91 132.5,-101.15 151,-107.38 157.7,-109.63 164.79,-111.77 171.86,-113.76"/>
<polygon fill="#63b8ff" stroke="#63b8ff" points="170.59,-117.31 181.16,-116.55 172.43,-110.55 170.59,-117.31"/>
</a>
</g>
</g>
<!-- Node3 -->
<g id="Node000003" class="node">
<title>Node3</title>
<g id="a_Node000003"><a xlink:href="classraytracer_1_1World.html#a15d271da5ddc1439c0f0c58ab5f7b55c" target="_top" xlink:title=" ">
<polygon fill="white" stroke="#666666" points="286.62,-98.75 173.88,-98.75 173.88,-78 286.62,-78 286.62,-98.75"/>
<text text-anchor="middle" x="230.25" y="-85.25" font-family="Helvetica,sans-Serif" font-size="10.00">raytracer::World::hit</text>
</a>
</g>
</g>
<!-- Node1&#45;&gt;Node3 -->
<g id="edge2_Node000001_Node000003" class="edge">
<title>Node1&#45;&gt;Node3</title>
<g id="a_edge2_Node000001_Node000003"><a xlink:title=" ">
<path fill="none" stroke="#63b8ff" d="M115.36,-75.03C130.57,-76.82 147.15,-78.76 162.83,-80.59"/>
<polygon fill="#63b8ff" stroke="#63b8ff" points="162.17,-84.16 172.51,-81.85 162.99,-77.21 162.17,-84.16"/>
</a>
</g>
</g>
<!-- Node4 -->
<g id="Node000004" class="node">
<title>Node4</title>
<g id="a_Node000004"><a xlink:href="classmath_1_1Vector3D.html#a90e99b3a4832265f71dcb38d05fc96ea" target="_top" xlink:title="Calcule la norme (longueur) du vecteur.">
<polygon fill="white" stroke="#666666" points="294.5,-59.75 166,-59.75 166,-39 294.5,-39 294.5,-59.75"/>
<text text-anchor="middle" x="230.25" y="-46.25" font-family="Helvetica,sans-Serif" font-size="10.00">math::Vector3D::length</text>
</a>
</g>
</g>
<!-- Node1&#45;&gt;Node4 -->
<g id="edge3_Node000001_Node000004" class="edge">
<title>Node1&#45;&gt;Node4</title>
<g id="a_edge3_Node000001_Node000004"><a xlink:title=" ">
<path fill="none" stroke="#63b8ff" d="M115.36,-62.05C128.06,-60.63 141.72,-59.11 155.02,-57.64"/>
<polygon fill="#63b8ff" stroke="#63b8ff" points="155.02,-61.04 164.57,-56.46 154.25,-54.09 155.02,-61.04"/>
</a>
</g>
</g>
<!-- Node5 -->
<g id="Node000005" class="node">
<title>Node5</title>
<g id="a_Node000005"><a xlink:href="classmath_1_1Vector3D.html#ae0c26833a0b58f2709884880a02bdc52" target="_top" xlink:title="Normalise le vecteur actuel (modifie en place).">
<polygon fill="white" stroke="#666666" points="303.5,-20.75 157,-20.75 157,0 303.5,0 303.5,-20.75"/>
<text text-anchor="middle" x="230.25" y="-7.25" font-family="Helvetica,sans-Serif" font-size="10.00">math::Vector3D::normalize</text>
</a>
</g>
</g>
<!-- Node1&#45;&gt;Node5 -->
<g id="edge4_Node000001_Node000005" class="edge">
<title>Node1&#45;&gt;Node5</title>
<g id="a_edge4_Node000001_Node000005"><a xlink:title=" ">
<path fill="none" stroke="#63b8ff" d="M96.75,-51.26C113.24,-44.24 132.87,-36.38 151,-30.38 157.8,-28.12 164.99,-25.97 172.16,-23.97"/>
<polygon fill="#63b8ff" stroke="#63b8ff" points="172.85,-27.14 181.6,-21.16 171.03,-20.39 172.85,-27.14"/>
</a>
</g>
</g>
</g>
</svg>
