<?xml version="1.0" encoding="UTF-8" standalone="no"?>
<!DOCTYPE svg PUBLIC "-//W3C//DTD SVG 1.1//EN"
 "http://www.w3.org/Graphics/SVG/1.1/DTD/svg11.dtd">
<!-- Generated by graphviz version 8.1.0 (20230707.0739)
 -->
<!-- Title: raytracer::Scene Pages: 1 -->
<svg width="791pt" height="1060pt"
 viewBox="0.00 0.00 790.86 1059.75" xmlns="http://www.w3.org/2000/svg" xmlns:xlink="http://www.w3.org/1999/xlink">
<g id="graph0" class="graph" transform="scale(1 1) rotate(0) translate(4 1055.75)">
<title>raytracer::Scene</title>
<!-- Node1 -->
<g id="Node000001" class="node">
<title>Node1</title>
<g id="a_Node000001"><a xlink:title="Classe représentant une scène 3D pour le ray tracing.">
<polygon fill="#999999" stroke="none" points="553.36,-324 447.36,-324 447.36,0 553.36,0 553.36,-324"/>
<text text-anchor="start" x="460.61" y="-310.5" font-family="Helvetica,sans-Serif" font-size="10.00">raytracer::Scene</text>
<text text-anchor="start" x="451.23" y="-294.5" font-family="Helvetica,sans-Serif" font-size="10.00">+</text>
<text text-anchor="start" x="463.36" y="-294.5" font-family="Helvetica,sans-Serif" font-size="10.00">_ambient</text>
<text text-anchor="start" x="451.23" y="-278.5" font-family="Helvetica,sans-Serif" font-size="10.00">+</text>
<text text-anchor="start" x="463.36" y="-278.5" font-family="Helvetica,sans-Serif" font-size="10.00">_diffuse</text>
<text text-anchor="start" x="453.48" y="-262.5" font-family="Helvetica,sans-Serif" font-size="10.00">&#45;</text>
<text text-anchor="start" x="463.36" y="-262.5" font-family="Helvetica,sans-Serif" font-size="10.00">planes</text>
<text text-anchor="start" x="453.48" y="-246.5" font-family="Helvetica,sans-Serif" font-size="10.00">&#45;</text>
<text text-anchor="start" x="463.36" y="-246.5" font-family="Helvetica,sans-Serif" font-size="10.00">spheres</text>
<text text-anchor="start" x="453.48" y="-230.5" font-family="Helvetica,sans-Serif" font-size="10.00">&#45;</text>
<text text-anchor="start" x="463.36" y="-230.5" font-family="Helvetica,sans-Serif" font-size="10.00">lights_</text>
<text text-anchor="start" x="453.48" y="-214.5" font-family="Helvetica,sans-Serif" font-size="10.00">&#45;</text>
<text text-anchor="start" x="463.36" y="-214.5" font-family="Helvetica,sans-Serif" font-size="10.00">_ambientLights</text>
<text text-anchor="start" x="453.48" y="-198.5" font-family="Helvetica,sans-Serif" font-size="10.00">&#45;</text>
<text text-anchor="start" x="463.36" y="-198.5" font-family="Helvetica,sans-Serif" font-size="10.00">_pointLights</text>
<text text-anchor="start" x="453.48" y="-182.5" font-family="Helvetica,sans-Serif" font-size="10.00">&#45;</text>
<text text-anchor="start" x="463.36" y="-182.5" font-family="Helvetica,sans-Serif" font-size="10.00">_directionalLights</text>
<text text-anchor="start" x="451.23" y="-166.5" font-family="Helvetica,sans-Serif" font-size="10.00">+</text>
<text text-anchor="start" x="463.36" y="-166.5" font-family="Helvetica,sans-Serif" font-size="10.00">Scene()</text>
<text text-anchor="start" x="451.23" y="-150.5" font-family="Helvetica,sans-Serif" font-size="10.00">+</text>
<text text-anchor="start" x="463.36" y="-150.5" font-family="Helvetica,sans-Serif" font-size="10.00">~Scene()</text>
<text text-anchor="start" x="451.23" y="-134.5" font-family="Helvetica,sans-Serif" font-size="10.00">+</text>
<text text-anchor="start" x="463.36" y="-134.5" font-family="Helvetica,sans-Serif" font-size="10.00">render()</text>
<text text-anchor="start" x="451.23" y="-118.5" font-family="Helvetica,sans-Serif" font-size="10.00">+</text>
<text text-anchor="start" x="463.36" y="-118.5" font-family="Helvetica,sans-Serif" font-size="10.00">init()</text>
<text text-anchor="start" x="451.23" y="-102.5" font-family="Helvetica,sans-Serif" font-size="10.00">+</text>
<text text-anchor="start" x="463.36" y="-102.5" font-family="Helvetica,sans-Serif" font-size="10.00">initPlanes()</text>
<text text-anchor="start" x="451.23" y="-86.5" font-family="Helvetica,sans-Serif" font-size="10.00">+</text>
<text text-anchor="start" x="463.36" y="-86.5" font-family="Helvetica,sans-Serif" font-size="10.00">initSpheres()</text>
<text text-anchor="start" x="451.23" y="-70.5" font-family="Helvetica,sans-Serif" font-size="10.00">+</text>
<text text-anchor="start" x="463.36" y="-70.5" font-family="Helvetica,sans-Serif" font-size="10.00">initCylinders()</text>
<text text-anchor="start" x="451.23" y="-54.5" font-family="Helvetica,sans-Serif" font-size="10.00">+</text>
<text text-anchor="start" x="463.36" y="-54.5" font-family="Helvetica,sans-Serif" font-size="10.00">initCones()</text>
<text text-anchor="start" x="451.23" y="-38.5" font-family="Helvetica,sans-Serif" font-size="10.00">+</text>
<text text-anchor="start" x="463.36" y="-38.5" font-family="Helvetica,sans-Serif" font-size="10.00">initPoints()</text>
<text text-anchor="start" x="451.23" y="-22.5" font-family="Helvetica,sans-Serif" font-size="10.00">+</text>
<text text-anchor="start" x="463.36" y="-22.5" font-family="Helvetica,sans-Serif" font-size="10.00">initDirectionals()</text>
<text text-anchor="start" x="463.36" y="-6.5" font-family="Helvetica,sans-Serif" font-size="10.00">and 16 more...</text>
<polygon fill="#666666" stroke="#666666" points="447.36,-306 447.36,-306 553.36,-306 553.36,-306 447.36,-306"/>
<polygon fill="#666666" stroke="#666666" points="447.36,-178 447.36,-178 461.36,-178 461.36,-178 447.36,-178"/>
<polygon fill="#666666" stroke="#666666" points="461.36,-178 461.36,-178 553.36,-178 553.36,-178 461.36,-178"/>
<polygon fill="none" stroke="#666666" points="447.36,0 447.36,-324 553.36,-324 553.36,0 447.36,0"/>
</a>
</g>
</g>
<!-- Node2 -->
<g id="Node000002" class="node">
<title>Node2</title>
<g id="a_Node000002"><a xlink:href="classraytracer_1_1Camera.html" target="_top" xlink:title="Classe représentant une caméra dans le moteur de raytracing.">
<polygon fill="white" stroke="none" points="262.36,-581.5 140.36,-581.5 140.36,-385.5 262.36,-385.5 262.36,-581.5"/>
<text text-anchor="start" x="157.11" y="-568" font-family="Helvetica,sans-Serif" font-size="10.00">raytracer::Camera</text>
<text text-anchor="start" x="144.23" y="-552" font-family="Helvetica,sans-Serif" font-size="10.00">+</text>
<text text-anchor="start" x="156.36" y="-552" font-family="Helvetica,sans-Serif" font-size="10.00">width</text>
<text text-anchor="start" x="144.23" y="-536" font-family="Helvetica,sans-Serif" font-size="10.00">+</text>
<text text-anchor="start" x="156.36" y="-536" font-family="Helvetica,sans-Serif" font-size="10.00">height</text>
<text text-anchor="start" x="144.23" y="-520" font-family="Helvetica,sans-Serif" font-size="10.00">+</text>
<text text-anchor="start" x="156.36" y="-520" font-family="Helvetica,sans-Serif" font-size="10.00">posX</text>
<text text-anchor="start" x="144.23" y="-504" font-family="Helvetica,sans-Serif" font-size="10.00">+</text>
<text text-anchor="start" x="156.36" y="-504" font-family="Helvetica,sans-Serif" font-size="10.00">posY</text>
<text text-anchor="start" x="144.23" y="-488" font-family="Helvetica,sans-Serif" font-size="10.00">+</text>
<text text-anchor="start" x="156.36" y="-488" font-family="Helvetica,sans-Serif" font-size="10.00">posZ</text>
<text text-anchor="start" x="144.23" y="-472" font-family="Helvetica,sans-Serif" font-size="10.00">+</text>
<text text-anchor="start" x="156.36" y="-472" font-family="Helvetica,sans-Serif" font-size="10.00">fieldOfView</text>
<text text-anchor="start" x="144.23" y="-456" font-family="Helvetica,sans-Serif" font-size="10.00">+</text>
<text text-anchor="start" x="156.36" y="-456" font-family="Helvetica,sans-Serif" font-size="10.00">Camera()</text>
<text text-anchor="start" x="144.23" y="-440" font-family="Helvetica,sans-Serif" font-size="10.00">+</text>
<text text-anchor="start" x="156.36" y="-440" font-family="Helvetica,sans-Serif" font-size="10.00">~Camera()</text>
<text text-anchor="start" x="144.23" y="-424" font-family="Helvetica,sans-Serif" font-size="10.00">+</text>
<text text-anchor="start" x="156.36" y="-424" font-family="Helvetica,sans-Serif" font-size="10.00">ray()</text>
<text text-anchor="start" x="144.23" y="-408" font-family="Helvetica,sans-Serif" font-size="10.00">+</text>
<text text-anchor="start" x="156.36" y="-408" font-family="Helvetica,sans-Serif" font-size="10.00">calculateScreenPos()</text>
<text text-anchor="start" x="144.23" y="-392" font-family="Helvetica,sans-Serif" font-size="10.00">+</text>
<text text-anchor="start" x="156.36" y="-392" font-family="Helvetica,sans-Serif" font-size="10.00">calculateDirection()</text>
<polygon fill="#666666" stroke="#666666" points="140.36,-563.5 140.36,-563.5 262.36,-563.5 262.36,-563.5 140.36,-563.5"/>
<polygon fill="#666666" stroke="#666666" points="140.36,-467.5 140.36,-467.5 154.36,-467.5 154.36,-467.5 140.36,-467.5"/>
<polygon fill="#666666" stroke="#666666" points="154.36,-467.5 154.36,-467.5 262.36,-467.5 262.36,-467.5 154.36,-467.5"/>
<polygon fill="none" stroke="#666666" points="140.36,-385.5 140.36,-581.5 262.36,-581.5 262.36,-385.5 140.36,-385.5"/>
</a>
</g>
</g>
<!-- Node2&#45;&gt;Node1 -->
<g id="edge1_Node000001_Node000002" class="edge">
<title>Node2&#45;&gt;Node1</title>
<g id="a_edge1_Node000001_Node000002"><a xlink:title=" ">
<path fill="none" stroke="#63b8ff" d="M262.01,-396.69C265.11,-392.86 268.24,-389.11 271.36,-385.5 323.9,-324.67 390.4,-261.36 438.18,-217.9"/>
<polygon fill="none" stroke="#63b8ff" points="438.21,-217.87 439.98,-210.88 447.11,-209.81 445.35,-216.81 438.21,-217.87"/>
</a>
</g>
<text text-anchor="middle" x="332.98" y="-358" font-family="Helvetica,sans-Serif" font-size="10.00" fill="grey"> +_camera</text>
<text text-anchor="middle" x="332.98" y="-345.25" font-family="Helvetica,sans-Serif" font-size="10.00" fill="grey">&#45;camera_</text>
</g>
<!-- Node3 -->
<g id="Node000003" class="node">
<title>Node3</title>
<g id="a_Node000003"><a xlink:href="classraytracer_1_1Rectangle3D.html" target="_top" xlink:title=" ">
<polygon fill="white" stroke="none" points="200.36,-730.25 78.36,-730.25 78.36,-630.25 200.36,-630.25 200.36,-730.25"/>
<text text-anchor="start" x="83.11" y="-716.75" font-family="Helvetica,sans-Serif" font-size="10.00">raytracer::Rectangle3D</text>
<text text-anchor="start" x="137.86" y="-700.75" font-family="Helvetica,sans-Serif" font-size="10.00"> </text>
<text text-anchor="start" x="88.23" y="-684.75" font-family="Helvetica,sans-Serif" font-size="10.00">+</text>
<text text-anchor="start" x="106.36" y="-684.75" font-family="Helvetica,sans-Serif" font-size="10.00">Rectangle3D()</text>
<text text-anchor="start" x="88.23" y="-668.75" font-family="Helvetica,sans-Serif" font-size="10.00">+</text>
<text text-anchor="start" x="106.36" y="-668.75" font-family="Helvetica,sans-Serif" font-size="10.00">Rectangle3D()</text>
<text text-anchor="start" x="88.23" y="-652.75" font-family="Helvetica,sans-Serif" font-size="10.00">+</text>
<text text-anchor="start" x="106.36" y="-652.75" font-family="Helvetica,sans-Serif" font-size="10.00">~Rectangle3D()</text>
<text text-anchor="start" x="88.23" y="-636.75" font-family="Helvetica,sans-Serif" font-size="10.00">+</text>
<text text-anchor="start" x="106.36" y="-636.75" font-family="Helvetica,sans-Serif" font-size="10.00">pointAt()</text>
<polygon fill="#666666" stroke="#666666" points="78.36,-712.25 78.36,-712.25 200.36,-712.25 200.36,-712.25 78.36,-712.25"/>
<polygon fill="#666666" stroke="#666666" points="78.36,-696.25 78.36,-696.25 200.36,-696.25 200.36,-696.25 78.36,-696.25"/>
<polygon fill="none" stroke="#666666" points="78.36,-630.25 78.36,-730.25 200.36,-730.25 200.36,-630.25 78.36,-630.25"/>
</a>
</g>
</g>
<!-- Node3&#45;&gt;Node2 -->
<g id="edge2_Node000002_Node000003" class="edge">
<title>Node3&#45;&gt;Node2</title>
<g id="a_edge2_Node000002_Node000003"><a xlink:title=" ">
<path fill="none" stroke="#63b8ff" d="M154.92,-630.36C158.54,-619 162.53,-606.46 166.61,-593.65"/>
<polygon fill="none" stroke="#63b8ff" points="166.62,-593.6 164.63,-586.67 170.26,-582.17 172.26,-589.1 166.62,-593.6"/>
</a>
</g>
<text text-anchor="middle" x="190.36" y="-602.75" font-family="Helvetica,sans-Serif" font-size="10.00" fill="grey"> +mScreen</text>
</g>
<!-- Node4 -->
<g id="Node000004" class="node">
<title>Node4</title>
<g id="a_Node000004"><a xlink:href="classmath_1_1Point3D.html" target="_top" xlink:title="Représente un point 3D. Peut interagir avec Vector3D.">
<polygon fill="white" stroke="none" points="92.86,-1019.75 7.86,-1019.75 7.86,-823.75 92.86,-823.75 92.86,-1019.75"/>
<text text-anchor="start" x="15.48" y="-1006.25" font-family="Helvetica,sans-Serif" font-size="10.00">math::Point3D</text>
<text text-anchor="start" x="11.73" y="-990.25" font-family="Helvetica,sans-Serif" font-size="10.00">+</text>
<text text-anchor="start" x="23.86" y="-990.25" font-family="Helvetica,sans-Serif" font-size="10.00">mX</text>
<text text-anchor="start" x="11.73" y="-974.25" font-family="Helvetica,sans-Serif" font-size="10.00">+</text>
<text text-anchor="start" x="23.86" y="-974.25" font-family="Helvetica,sans-Serif" font-size="10.00">mY</text>
<text text-anchor="start" x="11.73" y="-958.25" font-family="Helvetica,sans-Serif" font-size="10.00">+</text>
<text text-anchor="start" x="23.86" y="-958.25" font-family="Helvetica,sans-Serif" font-size="10.00">mZ</text>
<text text-anchor="start" x="11.73" y="-942.25" font-family="Helvetica,sans-Serif" font-size="10.00">+</text>
<text text-anchor="start" x="23.86" y="-942.25" font-family="Helvetica,sans-Serif" font-size="10.00">Point3D()</text>
<text text-anchor="start" x="11.73" y="-926.25" font-family="Helvetica,sans-Serif" font-size="10.00">+</text>
<text text-anchor="start" x="23.86" y="-926.25" font-family="Helvetica,sans-Serif" font-size="10.00">Point3D()</text>
<text text-anchor="start" x="11.73" y="-910.25" font-family="Helvetica,sans-Serif" font-size="10.00">+</text>
<text text-anchor="start" x="23.86" y="-910.25" font-family="Helvetica,sans-Serif" font-size="10.00">~Point3D()</text>
<text text-anchor="start" x="11.73" y="-894.25" font-family="Helvetica,sans-Serif" font-size="10.00">+</text>
<text text-anchor="start" x="23.86" y="-894.25" font-family="Helvetica,sans-Serif" font-size="10.00">operator+()</text>
<text text-anchor="start" x="11.73" y="-878.25" font-family="Helvetica,sans-Serif" font-size="10.00">+</text>
<text text-anchor="start" x="23.86" y="-878.25" font-family="Helvetica,sans-Serif" font-size="10.00">operator+()</text>
<text text-anchor="start" x="11.73" y="-862.25" font-family="Helvetica,sans-Serif" font-size="10.00">+</text>
<text text-anchor="start" x="23.86" y="-862.25" font-family="Helvetica,sans-Serif" font-size="10.00">operator+=()</text>
<text text-anchor="start" x="11.73" y="-846.25" font-family="Helvetica,sans-Serif" font-size="10.00">+</text>
<text text-anchor="start" x="23.86" y="-846.25" font-family="Helvetica,sans-Serif" font-size="10.00">operator&#45;()</text>
<text text-anchor="start" x="11.73" y="-830.25" font-family="Helvetica,sans-Serif" font-size="10.00">+</text>
<text text-anchor="start" x="23.86" y="-830.25" font-family="Helvetica,sans-Serif" font-size="10.00">operator&#45;()</text>
<polygon fill="#666666" stroke="#666666" points="7.86,-1001.75 7.86,-1001.75 92.86,-1001.75 92.86,-1001.75 7.86,-1001.75"/>
<polygon fill="#666666" stroke="#666666" points="7.86,-953.75 7.86,-953.75 21.86,-953.75 21.86,-953.75 7.86,-953.75"/>
<polygon fill="#666666" stroke="#666666" points="21.86,-953.75 21.86,-953.75 92.86,-953.75 92.86,-953.75 21.86,-953.75"/>
<polygon fill="none" stroke="#666666" points="7.86,-823.75 7.86,-1019.75 92.86,-1019.75 92.86,-823.75 7.86,-823.75"/>
</a>
</g>
</g>
<!-- Node4&#45;&gt;Node2 -->
<g id="edge5_Node000002_Node000004" class="edge">
<title>Node4&#45;&gt;Node2</title>
<g id="a_edge5_Node000002_Node000004"><a xlink:title=" ">
<path fill="none" stroke="#63b8ff" d="M14.78,-823.78C-0.79,-765.09 -9.74,-690.25 19.11,-630.25 41.97,-582.69 88.75,-545.79 129.19,-521.02"/>
<polygon fill="none" stroke="#63b8ff" points="129.31,-520.95 132.43,-514.45 139.63,-514.82 136.51,-521.33 129.31,-520.95"/>
</a>
</g>
<text text-anchor="middle" x="44.48" y="-677.12" font-family="Helvetica,sans-Serif" font-size="10.00" fill="grey"> +mOrigin</text>
</g>
<!-- Node4&#45;&gt;Node3 -->
<g id="edge3_Node000003_Node000004" class="edge">
<title>Node4&#45;&gt;Node3</title>
<g id="a_edge3_Node000003_Node000004"><a xlink:title=" ">
<path fill="none" stroke="#63b8ff" d="M70.72,-824.06C77.52,-798.85 86.11,-772.08 96.61,-748.25 97.61,-745.98 98.68,-743.69 99.81,-741.41"/>
<polygon fill="none" stroke="#63b8ff" points="99.79,-741.45 99.07,-734.28 105.42,-730.86 106.13,-738.03 99.79,-741.45"/>
</a>
</g>
<text text-anchor="middle" x="120.23" y="-757.88" font-family="Helvetica,sans-Serif" font-size="10.00" fill="grey"> &#45;mOrigin</text>
</g>
<!-- Node5 -->
<g id="Node000005" class="node">
<title>Node5</title>
<g id="a_Node000005"><a xlink:href="classmath_1_1Vector3D.html" target="_top" xlink:title="Représente un vecteur 3D avec des opérations vectorielles de base.">
<polygon fill="white" stroke="none" points="208.86,-1051.75 123.86,-1051.75 123.86,-791.75 208.86,-791.75 208.86,-1051.75"/>
<text text-anchor="start" x="128.48" y="-1038.25" font-family="Helvetica,sans-Serif" font-size="10.00">math::Vector3D</text>
<text text-anchor="start" x="127.73" y="-1022.25" font-family="Helvetica,sans-Serif" font-size="10.00">+</text>
<text text-anchor="start" x="139.86" y="-1022.25" font-family="Helvetica,sans-Serif" font-size="10.00">mX</text>
<text text-anchor="start" x="127.73" y="-1006.25" font-family="Helvetica,sans-Serif" font-size="10.00">+</text>
<text text-anchor="start" x="139.86" y="-1006.25" font-family="Helvetica,sans-Serif" font-size="10.00">mY</text>
<text text-anchor="start" x="127.73" y="-990.25" font-family="Helvetica,sans-Serif" font-size="10.00">+</text>
<text text-anchor="start" x="139.86" y="-990.25" font-family="Helvetica,sans-Serif" font-size="10.00">mZ</text>
<text text-anchor="start" x="127.73" y="-974.25" font-family="Helvetica,sans-Serif" font-size="10.00">+</text>
<text text-anchor="start" x="139.86" y="-974.25" font-family="Helvetica,sans-Serif" font-size="10.00">Vector3D()</text>
<text text-anchor="start" x="127.73" y="-958.25" font-family="Helvetica,sans-Serif" font-size="10.00">+</text>
<text text-anchor="start" x="139.86" y="-958.25" font-family="Helvetica,sans-Serif" font-size="10.00">Vector3D()</text>
<text text-anchor="start" x="127.73" y="-942.25" font-family="Helvetica,sans-Serif" font-size="10.00">+</text>
<text text-anchor="start" x="139.86" y="-942.25" font-family="Helvetica,sans-Serif" font-size="10.00">~Vector3D()</text>
<text text-anchor="start" x="127.73" y="-926.25" font-family="Helvetica,sans-Serif" font-size="10.00">+</text>
<text text-anchor="start" x="139.86" y="-926.25" font-family="Helvetica,sans-Serif" font-size="10.00">length()</text>
<text text-anchor="start" x="127.73" y="-910.25" font-family="Helvetica,sans-Serif" font-size="10.00">+</text>
<text text-anchor="start" x="139.86" y="-910.25" font-family="Helvetica,sans-Serif" font-size="10.00">dot()</text>
<text text-anchor="start" x="127.73" y="-894.25" font-family="Helvetica,sans-Serif" font-size="10.00">+</text>
<text text-anchor="start" x="139.86" y="-894.25" font-family="Helvetica,sans-Serif" font-size="10.00">operator+()</text>
<text text-anchor="start" x="127.73" y="-878.25" font-family="Helvetica,sans-Serif" font-size="10.00">+</text>
<text text-anchor="start" x="139.86" y="-878.25" font-family="Helvetica,sans-Serif" font-size="10.00">operator+=()</text>
<text text-anchor="start" x="127.73" y="-862.25" font-family="Helvetica,sans-Serif" font-size="10.00">+</text>
<text text-anchor="start" x="139.86" y="-862.25" font-family="Helvetica,sans-Serif" font-size="10.00">operator&#45;()</text>
<text text-anchor="start" x="127.73" y="-846.25" font-family="Helvetica,sans-Serif" font-size="10.00">+</text>
<text text-anchor="start" x="139.86" y="-846.25" font-family="Helvetica,sans-Serif" font-size="10.00">operator&#45;=()</text>
<text text-anchor="start" x="127.73" y="-830.25" font-family="Helvetica,sans-Serif" font-size="10.00">+</text>
<text text-anchor="start" x="139.86" y="-830.25" font-family="Helvetica,sans-Serif" font-size="10.00">operator*()</text>
<text text-anchor="start" x="139.86" y="-814.25" font-family="Helvetica,sans-Serif" font-size="10.00">and 9 more...</text>
<text text-anchor="start" x="127.73" y="-798.25" font-family="Helvetica,sans-Serif" font-size="10.00">+</text>
<text text-anchor="start" x="139.86" y="-798.25" font-family="Helvetica,sans-Serif" font-size="10.00">normalize()</text>
<polygon fill="#666666" stroke="#666666" points="123.86,-1033.75 123.86,-1033.75 208.86,-1033.75 208.86,-1033.75 123.86,-1033.75"/>
<polygon fill="#666666" stroke="#666666" points="123.86,-985.75 123.86,-985.75 137.86,-985.75 137.86,-985.75 123.86,-985.75"/>
<polygon fill="#666666" stroke="#666666" points="137.86,-985.75 137.86,-985.75 208.86,-985.75 208.86,-985.75 137.86,-985.75"/>
<polygon fill="none" stroke="#666666" points="123.86,-791.75 123.86,-1051.75 208.86,-1051.75 208.86,-791.75 123.86,-791.75"/>
</a>
</g>
</g>
<!-- Node5&#45;&gt;Node2 -->
<g id="edge7_Node000002_Node000005" class="edge">
<title>Node5&#45;&gt;Node2</title>
<g id="a_edge7_Node000002_Node000005"><a xlink:title=" ">
<path fill="none" stroke="#63b8ff" d="M208.82,-824.13C214.43,-807.61 219.29,-790.4 222.36,-773.75 233.18,-714.96 229.44,-648.48 222.33,-594.09"/>
<polygon fill="none" stroke="#63b8ff" points="222.32,-594.04 217.54,-588.64 220.68,-582.15 225.46,-587.55 222.32,-594.04"/>
</a>
</g>
<text text-anchor="middle" x="275.86" y="-677.12" font-family="Helvetica,sans-Serif" font-size="10.00" fill="grey"> +mVectorRotation</text>
</g>
<!-- Node5&#45;&gt;Node3 -->
<g id="edge4_Node000003_Node000005" class="edge">
<title>Node5&#45;&gt;Node3</title>
<g id="a_edge4_Node000003_Node000005"><a xlink:title=" ">
<path fill="none" stroke="#63b8ff" d="M150.92,-792.09C150.22,-785.89 149.52,-779.75 148.86,-773.75 147.76,-763.82 146.63,-753.29 145.56,-743.02"/>
<polygon fill="none" stroke="#63b8ff" points="145.57,-743.06 140.97,-737.51 144.33,-731.13 148.93,-736.68 145.57,-743.06"/>
</a>
</g>
<text text-anchor="middle" x="186.11" y="-764.25" font-family="Helvetica,sans-Serif" font-size="10.00" fill="grey"> &#45;mBottomSide</text>
<text text-anchor="middle" x="186.11" y="-751.5" font-family="Helvetica,sans-Serif" font-size="10.00" fill="grey">&#45;mLeftSide</text>
</g>
<!-- Node6 -->
<g id="Node000006" class="node">
<title>Node6</title>
<g id="a_Node000006"><a xlink:title=" ">
<polygon fill="white" stroke="none" points="455.36,-712.75 347.36,-712.75 347.36,-647.75 455.36,-647.75 455.36,-712.75"/>
<text text-anchor="start" x="352.23" y="-699.25" font-family="Helvetica,sans-Serif" font-size="10.00">map&lt; string, math::</text>
<text text-anchor="start" x="352.23" y="-686.5" font-family="Helvetica,sans-Serif" font-size="10.00">Matrix&lt; double &gt; &gt;</text>
<text text-anchor="start" x="399.86" y="-670.25" font-family="Helvetica,sans-Serif" font-size="10.00"> </text>
<text text-anchor="start" x="399.86" y="-654.25" font-family="Helvetica,sans-Serif" font-size="10.00"> </text>
<polygon fill="#666666" stroke="#666666" points="347.36,-681.75 347.36,-681.75 455.36,-681.75 455.36,-681.75 347.36,-681.75"/>
<polygon fill="#666666" stroke="#666666" points="347.36,-665.75 347.36,-665.75 455.36,-665.75 455.36,-665.75 347.36,-665.75"/>
<polygon fill="none" stroke="#666666" points="347.36,-647.75 347.36,-712.75 455.36,-712.75 455.36,-647.75 347.36,-647.75"/>
</a>
</g>
</g>
<!-- Node6&#45;&gt;Node2 -->
<g id="edge6_Node000002_Node000006" class="edge">
<title>Node6&#45;&gt;Node2</title>
<g id="a_edge6_Node000002_Node000006"><a xlink:title=" ">
<path fill="none" stroke="#63b8ff" d="M358.15,-647.75C323.29,-622.19 278.87,-589.16 271.36,-581.5 271.26,-581.4 271.17,-581.31 271.07,-581.21"/>
<polygon fill="none" stroke="#63b8ff" points="271.09,-581.23 264.07,-579.55 262.92,-572.44 269.93,-574.11 271.09,-581.23"/>
</a>
</g>
<text text-anchor="middle" x="341.98" y="-602.75" font-family="Helvetica,sans-Serif" font-size="10.00" fill="grey"> +mAllMatrix</text>
</g>
<!-- Node7 -->
<g id="Node000007" class="node">
<title>Node7</title>
<g id="a_Node000007"><a xlink:title=" ">
<polygon fill="white" stroke="none" points="421.86,-516 280.86,-516 280.86,-451 421.86,-451 421.86,-516"/>
<text text-anchor="start" x="285.73" y="-502.5" font-family="Helvetica,sans-Serif" font-size="10.00">vector&lt; unique_ptr</text>
<text text-anchor="start" x="285.73" y="-489.75" font-family="Helvetica,sans-Serif" font-size="10.00">&lt; raytracer::IPrimitive &gt; &gt;</text>
<text text-anchor="start" x="349.86" y="-473.5" font-family="Helvetica,sans-Serif" font-size="10.00"> </text>
<text text-anchor="start" x="349.86" y="-457.5" font-family="Helvetica,sans-Serif" font-size="10.00"> </text>
<polygon fill="#666666" stroke="#666666" points="280.86,-485 280.86,-485 421.86,-485 421.86,-485 280.86,-485"/>
<polygon fill="#666666" stroke="#666666" points="280.86,-469 280.86,-469 421.86,-469 421.86,-469 280.86,-469"/>
<polygon fill="none" stroke="#666666" points="280.86,-451 280.86,-516 421.86,-516 421.86,-451 280.86,-451"/>
</a>
</g>
</g>
<!-- Node7&#45;&gt;Node1 -->
<g id="edge8_Node000001_Node000007" class="edge">
<title>Node7&#45;&gt;Node1</title>
<g id="a_edge8_Node000001_Node000007"><a xlink:title=" ">
<path fill="none" stroke="#63b8ff" d="M365.92,-451.28C383.53,-413.52 414.25,-347.64 441.89,-288.38"/>
<polygon fill="none" stroke="#63b8ff" points="441.91,-288.32 440.82,-281.19 446.99,-277.45 448.07,-284.58 441.91,-288.32"/>
</a>
</g>
<text text-anchor="middle" x="446.36" y="-351.62" font-family="Helvetica,sans-Serif" font-size="10.00" fill="grey"> +_primitives</text>
</g>
<!-- Node8 -->
<g id="Node000008" class="node">
<title>Node8</title>
<g id="a_Node000008"><a xlink:title=" ">
<polygon fill="white" stroke="none" points="560.86,-516 439.86,-516 439.86,-451 560.86,-451 560.86,-516"/>
<text text-anchor="start" x="444.86" y="-502.5" font-family="Helvetica,sans-Serif" font-size="10.00">vector&lt; unique_ptr</text>
<text text-anchor="start" x="444.86" y="-489.75" font-family="Helvetica,sans-Serif" font-size="10.00">&lt; raytracer::ILight &gt; &gt;</text>
<text text-anchor="start" x="498.86" y="-473.5" font-family="Helvetica,sans-Serif" font-size="10.00"> </text>
<text text-anchor="start" x="498.86" y="-457.5" font-family="Helvetica,sans-Serif" font-size="10.00"> </text>
<polygon fill="#666666" stroke="#666666" points="439.86,-485 439.86,-485 560.86,-485 560.86,-485 439.86,-485"/>
<polygon fill="#666666" stroke="#666666" points="439.86,-469 439.86,-469 560.86,-469 560.86,-469 439.86,-469"/>
<polygon fill="none" stroke="#666666" points="439.86,-451 439.86,-516 560.86,-516 560.86,-451 439.86,-451"/>
</a>
</g>
</g>
<!-- Node8&#45;&gt;Node1 -->
<g id="edge9_Node000001_Node000008" class="edge">
<title>Node8&#45;&gt;Node1</title>
<g id="a_edge9_Node000001_Node000008"><a xlink:title=" ">
<path fill="none" stroke="#63b8ff" d="M500.36,-451.28C500.36,-423.64 500.36,-380.93 500.36,-336.78"/>
<polygon fill="none" stroke="#63b8ff" points="500.36,-336.89 496.36,-330.89 500.36,-324.89 504.36,-330.89 500.36,-336.89"/>
</a>
</g>
<text text-anchor="middle" x="522.11" y="-351.62" font-family="Helvetica,sans-Serif" font-size="10.00" fill="grey"> +_lights</text>
</g>
<!-- Node9 -->
<g id="Node000009" class="node">
<title>Node9</title>
<g id="a_Node000009"><a xlink:title=" ">
<polygon fill="white" stroke="none" points="631.86,-509.5 578.86,-509.5 578.86,-457.5 631.86,-457.5 631.86,-509.5"/>
<text text-anchor="start" x="583.61" y="-496" font-family="Helvetica,sans-Serif" font-size="10.00">mt19937</text>
<text text-anchor="start" x="603.86" y="-480" font-family="Helvetica,sans-Serif" font-size="10.00"> </text>
<text text-anchor="start" x="603.86" y="-464" font-family="Helvetica,sans-Serif" font-size="10.00"> </text>
<polygon fill="#666666" stroke="#666666" points="578.86,-491.5 578.86,-491.5 631.86,-491.5 631.86,-491.5 578.86,-491.5"/>
<polygon fill="#666666" stroke="#666666" points="578.86,-475.5 578.86,-475.5 631.86,-475.5 631.86,-475.5 578.86,-475.5"/>
<polygon fill="none" stroke="#666666" points="578.86,-457.5 578.86,-509.5 631.86,-509.5 631.86,-457.5 578.86,-457.5"/>
</a>
</g>
</g>
<!-- Node9&#45;&gt;Node1 -->
<g id="edge10_Node000001_Node000009" class="edge">
<title>Node9&#45;&gt;Node1</title>
<g id="a_edge10_Node000001_Node000009"><a xlink:title=" ">
<path fill="none" stroke="#63b8ff" d="M597.21,-457.7C588.23,-430.39 572.98,-383.97 557.19,-335.94"/>
<polygon fill="none" stroke="#63b8ff" points="557.2,-335.96 551.53,-331.51 553.45,-324.56 559.13,-329.01 557.2,-335.96"/>
</a>
</g>
<text text-anchor="middle" x="581.61" y="-351.62" font-family="Helvetica,sans-Serif" font-size="10.00" fill="grey"> +_gen</text>
</g>
<!-- Node10 -->
<g id="Node000010" class="node">
<title>Node10</title>
<g id="a_Node000010"><a xlink:title=" ">
<polygon fill="white" stroke="none" points="782.86,-516 649.86,-516 649.86,-451 782.86,-451 782.86,-516"/>
<text text-anchor="start" x="654.86" y="-502.5" font-family="Helvetica,sans-Serif" font-size="10.00">uniform_real_distribution</text>
<text text-anchor="start" x="688.61" y="-489.75" font-family="Helvetica,sans-Serif" font-size="10.00">&lt; double &gt;</text>
<text text-anchor="start" x="714.86" y="-473.5" font-family="Helvetica,sans-Serif" font-size="10.00"> </text>
<text text-anchor="start" x="714.86" y="-457.5" font-family="Helvetica,sans-Serif" font-size="10.00"> </text>
<polygon fill="#666666" stroke="#666666" points="649.86,-485 649.86,-485 782.86,-485 782.86,-485 649.86,-485"/>
<polygon fill="#666666" stroke="#666666" points="649.86,-469 649.86,-469 782.86,-469 782.86,-469 649.86,-469"/>
<polygon fill="none" stroke="#666666" points="649.86,-451 649.86,-516 782.86,-516 782.86,-451 649.86,-451"/>
</a>
</g>
</g>
<!-- Node10&#45;&gt;Node1 -->
<g id="edge11_Node000001_Node000010" class="edge">
<title>Node10&#45;&gt;Node1</title>
<g id="a_edge11_Node000001_Node000010"><a xlink:title=" ">
<path fill="none" stroke="#63b8ff" d="M695.25,-451.28C664.27,-405.45 605.27,-318.18 560.27,-251.62"/>
<polygon fill="none" stroke="#63b8ff" points="560.4,-251.81 553.73,-249.08 553.68,-241.87 560.35,-244.6 560.4,-251.81"/>
</a>
</g>
<text text-anchor="middle" x="648.73" y="-351.62" font-family="Helvetica,sans-Serif" font-size="10.00" fill="grey"> +_dis</text>
</g>
</g>
</svg>
