<?xml version="1.0" encoding="UTF-8" standalone="no"?>
<!DOCTYPE svg PUBLIC "-//W3C//DTD SVG 1.1//EN"
 "http://www.w3.org/Graphics/SVG/1.1/DTD/svg11.dtd">
<!-- Generated by graphviz version 8.1.0 (20230707.0739)
 -->
<!-- Title: raytracer::Parser Pages: 1 -->
<svg width="129pt" height="241pt"
 viewBox="0.00 0.00 129.00 240.75" xmlns="http://www.w3.org/2000/svg" xmlns:xlink="http://www.w3.org/1999/xlink">
<g id="graph0" class="graph" transform="scale(1 1) rotate(0) translate(4 236.75)">
<title>raytracer::Parser</title>
<!-- Node1 -->
<g id="Node000001" class="node">
<title>Node1</title>
<g id="a_Node000001"><a xlink:title=" ">
<polygon fill="#999999" stroke="none" points="107,-132 14,-132 14,0 107,0 107,-132"/>
<text text-anchor="start" x="20.38" y="-118.5" font-family="Helvetica,sans-Serif" font-size="10.00">raytracer::Parser</text>
<text text-anchor="start" x="20.12" y="-102.5" font-family="Helvetica,sans-Serif" font-size="10.00">&#45;</text>
<text text-anchor="start" x="30" y="-102.5" font-family="Helvetica,sans-Serif" font-size="10.00">cfg_</text>
<text text-anchor="start" x="17.88" y="-86.5" font-family="Helvetica,sans-Serif" font-size="10.00">+</text>
<text text-anchor="start" x="30" y="-86.5" font-family="Helvetica,sans-Serif" font-size="10.00">Parser()</text>
<text text-anchor="start" x="17.88" y="-70.5" font-family="Helvetica,sans-Serif" font-size="10.00">+</text>
<text text-anchor="start" x="30" y="-70.5" font-family="Helvetica,sans-Serif" font-size="10.00">parse()</text>
<text text-anchor="start" x="17.88" y="-54.5" font-family="Helvetica,sans-Serif" font-size="10.00">+</text>
<text text-anchor="start" x="30" y="-54.5" font-family="Helvetica,sans-Serif" font-size="10.00">parsePlanes()</text>
<text text-anchor="start" x="17.88" y="-38.5" font-family="Helvetica,sans-Serif" font-size="10.00">+</text>
<text text-anchor="start" x="30" y="-38.5" font-family="Helvetica,sans-Serif" font-size="10.00">parseSpheres()</text>
<text text-anchor="start" x="20.12" y="-22.5" font-family="Helvetica,sans-Serif" font-size="10.00">&#45;</text>
<text text-anchor="start" x="30" y="-22.5" font-family="Helvetica,sans-Serif" font-size="10.00">parseCamera()</text>
<text text-anchor="start" x="20.12" y="-6.5" font-family="Helvetica,sans-Serif" font-size="10.00">&#45;</text>
<text text-anchor="start" x="30" y="-6.5" font-family="Helvetica,sans-Serif" font-size="10.00">parseLights()</text>
<polygon fill="#666666" stroke="#666666" points="14,-114 14,-114 107,-114 107,-114 14,-114"/>
<polygon fill="#666666" stroke="#666666" points="14,-98 14,-98 28,-98 28,-98 14,-98"/>
<polygon fill="#666666" stroke="#666666" points="28,-98 28,-98 107,-98 107,-98 28,-98"/>
<polygon fill="none" stroke="#666666" points="14,0 14,-132 107,-132 107,0 14,0"/>
</a>
</g>
</g>
<!-- Node2 -->
<g id="Node000002" class="node">
<title>Node2</title>
<g id="a_Node000002"><a xlink:href="classraytracer_1_1ErrorHandler.html" target="_top" xlink:title=" ">
<polygon fill="white" stroke="none" points="121,-232.75 0,-232.75 0,-180.75 121,-180.75 121,-232.75"/>
<text text-anchor="start" x="4.62" y="-219.25" font-family="Helvetica,sans-Serif" font-size="10.00">raytracer::ErrorHandler</text>
<text text-anchor="start" x="59" y="-203.25" font-family="Helvetica,sans-Serif" font-size="10.00"> </text>
<text text-anchor="start" x="19.88" y="-187.25" font-family="Helvetica,sans-Serif" font-size="10.00">+</text>
<text text-anchor="start" x="48" y="-187.25" font-family="Helvetica,sans-Serif" font-size="10.00">report()</text>
<polygon fill="#666666" stroke="#666666" points="0,-214.75 0,-214.75 121,-214.75 121,-214.75 0,-214.75"/>
<polygon fill="#666666" stroke="#666666" points="0,-198.75 0,-198.75 121,-198.75 121,-198.75 0,-198.75"/>
<polygon fill="none" stroke="#666666" points="0,-180.75 0,-232.75 121,-232.75 121,-180.75 0,-180.75"/>
</a>
</g>
</g>
<!-- Node2&#45;&gt;Node1 -->
<g id="edge1_Node000001_Node000002" class="edge">
<title>Node2&#45;&gt;Node1</title>
<g id="a_edge1_Node000001_Node000002"><a xlink:title=" ">
<path fill="none" stroke="#63b8ff" d="M60.5,-180.94C60.5,-170.49 60.5,-157.69 60.5,-144.5"/>
<polygon fill="none" stroke="#63b8ff" points="60.5,-144.69 56.5,-138.69 60.5,-132.69 64.5,-138.69 60.5,-144.69"/>
</a>
</g>
<text text-anchor="middle" x="80.75" y="-153.25" font-family="Helvetica,sans-Serif" font-size="10.00" fill="grey"> &#45;errors_</text>
</g>
</g>
</svg>
