<?xml version="1.0" encoding="UTF-8" standalone="no"?>
<!DOCTYPE svg PUBLIC "-//W3C//DTD SVG 1.1//EN"
 "http://www.w3.org/Graphics/SVG/1.1/DTD/svg11.dtd">
<!-- Generated by graphviz version 8.1.0 (20230707.0739)
 -->
<!-- Title: core::RayTracer::run Pages: 1 -->
<svg width="1032pt" height="347pt"
 viewBox="0.00 0.00 1031.75 347.12" xmlns="http://www.w3.org/2000/svg" xmlns:xlink="http://www.w3.org/1999/xlink">
<g id="graph0" class="graph" transform="scale(1 1) rotate(0) translate(4 343.12)">
<title>core::RayTracer::run</title>
<!-- Node1 -->
<g id="Node000001" class="node">
<title>Node1</title>
<g id="a_Node000001"><a xlink:title="Lance l&#39;exécution principale du programme.">
<polygon fill="#999999" stroke="#666666" points="112.75,-190.12 0,-190.12 0,-169.38 112.75,-169.38 112.75,-190.12"/>
<text text-anchor="middle" x="56.38" y="-176.62" font-family="Helvetica,sans-Serif" font-size="10.00">core::RayTracer::run</text>
</a>
</g>
</g>
<!-- Node2 -->
<g id="Node000002" class="node">
<title>Node2</title>
<g id="a_Node000002"><a xlink:href="classraytracer_1_1Image.html#a7f155ce4e88c2d73d11212e853509a24" target="_top" xlink:title="Exporte l&#39;image au format PPM dans un fichier.">
<polygon fill="white" stroke="#666666" points="310.62,-339.12 151.38,-339.12 151.38,-318.38 310.62,-318.38 310.62,-339.12"/>
<text text-anchor="middle" x="231" y="-325.62" font-family="Helvetica,sans-Serif" font-size="10.00">raytracer::Image::displayPPM</text>
</a>
</g>
</g>
<!-- Node1&#45;&gt;Node2 -->
<g id="edge1_Node000001_Node000002" class="edge">
<title>Node1&#45;&gt;Node2</title>
<g id="a_edge1_Node000001_Node000002"><a xlink:title=" ">
<path fill="none" stroke="#63b8ff" d="M61.74,-190.38C72.53,-215.27 102.93,-277.54 148.75,-308.75 151.2,-310.42 153.77,-311.95 156.44,-313.35"/>
<polygon fill="#63b8ff" stroke="#63b8ff" points="154.86,-316.93 165.41,-317.89 157.76,-310.56 154.86,-316.93"/>
</a>
</g>
</g>
<!-- Node3 -->
<g id="Node000003" class="node">
<title>Node3</title>
<g id="a_Node000003"><a xlink:href="classraytracer_1_1Image.html#abe65792dcbc7154fc9c4673c482c3356" target="_top" xlink:title="Affiche l&#39;image dans la fenêtre SFML.">
<polygon fill="white" stroke="#666666" points="313.25,-300.12 148.75,-300.12 148.75,-279.38 313.25,-279.38 313.25,-300.12"/>
<text text-anchor="middle" x="231" y="-286.62" font-family="Helvetica,sans-Serif" font-size="10.00">raytracer::Image::displaySFML</text>
</a>
</g>
</g>
<!-- Node1&#45;&gt;Node3 -->
<g id="edge2_Node000001_Node000003" class="edge">
<title>Node1&#45;&gt;Node3</title>
<g id="a_edge2_Node000001_Node000003"><a xlink:title=" ">
<path fill="none" stroke="#63b8ff" d="M64.82,-190.36C78.9,-209.56 111.36,-250 148.75,-270.75 151.48,-272.27 154.33,-273.66 157.25,-274.94"/>
<polygon fill="#63b8ff" stroke="#63b8ff" points="155.85,-278.54 166.44,-278.9 158.38,-272.02 155.85,-278.54"/>
</a>
</g>
</g>
<!-- Node7 -->
<g id="Node000007" class="node">
<title>Node7</title>
<g id="a_Node000007"><a xlink:href="classcore_1_1Parser.html#aa8ccbef1c1e0165d9a6d60a216aab028" target="_top" xlink:title="Vérifie si le fichier de configuration contient les éléments de base nécessaires.">
<polygon fill="white" stroke="#666666" points="312.5,-261.5 149.5,-261.5 149.5,-228 312.5,-228 312.5,-261.5"/>
<text text-anchor="start" x="157.5" y="-248" font-family="Helvetica,sans-Serif" font-size="10.00">core::Parser::hasBasicElement</text>
<text text-anchor="middle" x="231" y="-235.25" font-family="Helvetica,sans-Serif" font-size="10.00">InFiles</text>
</a>
</g>
</g>
<!-- Node1&#45;&gt;Node7 -->
<g id="edge6_Node000001_Node000007" class="edge">
<title>Node1&#45;&gt;Node7</title>
<g id="a_edge6_Node000001_Node000007"><a xlink:title=" ">
<path fill="none" stroke="#63b8ff" d="M80.8,-190.46C99.11,-198.67 125.31,-210.02 148.75,-218.75 153.53,-220.53 158.49,-222.3 163.51,-224.04"/>
<polygon fill="#63b8ff" stroke="#63b8ff" points="162.22,-227.64 172.82,-227.53 164.47,-221.01 162.22,-227.64"/>
</a>
</g>
</g>
<!-- Node8 -->
<g id="Node000008" class="node">
<title>Node8</title>
<g id="a_Node000008"><a xlink:href="classcore_1_1RayTracer.html#ae56ff19119f785b1977dbe607ce2f666" target="_top" xlink:title="Affiche l&#39;aide et les instructions d&#39;utilisation du programme.">
<polygon fill="white" stroke="#666666" points="290,-210.12 172,-210.12 172,-189.38 290,-189.38 290,-210.12"/>
<text text-anchor="middle" x="231" y="-196.62" font-family="Helvetica,sans-Serif" font-size="10.00">core::RayTracer::help</text>
</a>
</g>
</g>
<!-- Node1&#45;&gt;Node8 -->
<g id="edge7_Node000001_Node000008" class="edge">
<title>Node1&#45;&gt;Node8</title>
<g id="a_edge7_Node000001_Node000008"><a xlink:title=" ">
<path fill="none" stroke="#63b8ff" d="M112.94,-186.19C128.16,-187.95 144.84,-189.88 160.72,-191.72"/>
<polygon fill="#63b8ff" stroke="#63b8ff" points="160.22,-195.31 170.56,-192.98 161.03,-188.35 160.22,-195.31"/>
</a>
</g>
</g>
<!-- Node9 -->
<g id="Node000009" class="node">
<title>Node9</title>
<g id="a_Node000009"><a xlink:href="classraytracer_1_1Scene.html#aaf51a8dcfe52d8c58bde2e7f8d10ad12" target="_top" xlink:title="Initialise la scène à partir d&#39;un parser de fichier de scène.">
<polygon fill="white" stroke="#666666" points="289.62,-171.12 172.38,-171.12 172.38,-150.38 289.62,-150.38 289.62,-171.12"/>
<text text-anchor="middle" x="231" y="-157.62" font-family="Helvetica,sans-Serif" font-size="10.00">raytracer::Scene::init</text>
</a>
</g>
</g>
<!-- Node1&#45;&gt;Node9 -->
<g id="edge8_Node000001_Node000009" class="edge">
<title>Node1&#45;&gt;Node9</title>
<g id="a_edge8_Node000001_Node000009"><a xlink:title=" ">
<path fill="none" stroke="#63b8ff" d="M112.94,-173.63C128.47,-171.93 145.52,-170.05 161.69,-168.27"/>
<polygon fill="#63b8ff" stroke="#63b8ff" points="161.6,-171.69 171.16,-167.12 160.84,-164.73 161.6,-171.69"/>
</a>
</g>
</g>
<!-- Node10 -->
<g id="Node000010" class="node">
<title>Node10</title>
<g id="a_Node000010"><a xlink:href="classcore_1_1Parser.html#ad9565e3daafe0d2410ebdbb77eee1278" target="_top" xlink:title="Parse un fichier de configuration complet.">
<polygon fill="white" stroke="#666666" points="292.62,-132.12 169.38,-132.12 169.38,-111.38 292.62,-111.38 292.62,-132.12"/>
<text text-anchor="middle" x="231" y="-118.62" font-family="Helvetica,sans-Serif" font-size="10.00">core::Parser::parseFile</text>
</a>
</g>
</g>
<!-- Node1&#45;&gt;Node10 -->
<g id="edge9_Node000001_Node000010" class="edge">
<title>Node1&#45;&gt;Node10</title>
<g id="a_edge9_Node000001_Node000010"><a xlink:title=" ">
<path fill="none" stroke="#63b8ff" d="M80.67,-168.9C98.91,-160.69 125.08,-149.53 148.75,-141.75 155.61,-139.49 162.87,-137.36 170.12,-135.38"/>
<polygon fill="#63b8ff" stroke="#63b8ff" points="170.89,-138.54 179.68,-132.61 169.12,-131.77 170.89,-138.54"/>
</a>
</g>
</g>
<!-- Node11 -->
<g id="Node000011" class="node">
<title>Node11</title>
<g id="a_Node000011"><a xlink:href="classraytracer_1_1Scene.html#acda226b04c50587c0125112e5bfa5e7b" target="_top" xlink:title="Lance le rendu de la scène dans l&#39;image fournie.">
<polygon fill="white" stroke="#666666" points="297.5,-93.12 164.5,-93.12 164.5,-72.38 297.5,-72.38 297.5,-93.12"/>
<text text-anchor="middle" x="231" y="-79.62" font-family="Helvetica,sans-Serif" font-size="10.00">raytracer::Scene::render</text>
</a>
</g>
</g>
<!-- Node1&#45;&gt;Node11 -->
<g id="edge10_Node000001_Node000011" class="edge">
<title>Node1&#45;&gt;Node11</title>
<g id="a_edge10_Node000001_Node000011"><a xlink:title=" ">
<path fill="none" stroke="#63b8ff" d="M66.92,-169.01C82.41,-152.27 114.73,-120.06 148.75,-102.75 152.94,-100.62 157.37,-98.7 161.91,-96.99"/>
<polygon fill="#63b8ff" stroke="#63b8ff" points="162.66,-100.09 170.99,-93.54 160.39,-93.47 162.66,-100.09"/>
</a>
</g>
</g>
<!-- Node24 -->
<g id="Node000024" class="node">
<title>Node24</title>
<g id="a_Node000024"><a xlink:href="classraytracer_1_1ParseError.html#af3ba10831de951716cd91098e3d40261" target="_top" xlink:title="Renvoie le message d&#39;erreur.">
<polygon fill="white" stroke="#666666" points="288.88,-54.5 173.12,-54.5 173.12,-21 288.88,-21 288.88,-54.5"/>
<text text-anchor="start" x="181.12" y="-41" font-family="Helvetica,sans-Serif" font-size="10.00">raytracer::ParseError</text>
<text text-anchor="middle" x="231" y="-28.25" font-family="Helvetica,sans-Serif" font-size="10.00">::what</text>
</a>
</g>
</g>
<!-- Node1&#45;&gt;Node24 -->
<g id="edge26_Node000001_Node000024" class="edge">
<title>Node1&#45;&gt;Node24</title>
<g id="a_edge26_Node000001_Node000024"><a xlink:title=" ">
<path fill="none" stroke="#63b8ff" d="M62.9,-169.04C75.19,-146.25 107.05,-92.69 148.75,-63.75 153.2,-60.66 158.03,-57.93 163.06,-55.51"/>
<polygon fill="#63b8ff" stroke="#63b8ff" points="164.11,-58.43 171.89,-51.23 161.32,-52.01 164.11,-58.43"/>
</a>
</g>
</g>
<!-- Node4 -->
<g id="Node000004" class="node">
<title>Node4</title>
<g id="a_Node000004"><a xlink:href="classraytracer_1_1Color.html#a22e077d8468e9f9006e37389372f3501" target="_top" xlink:title=" ">
<polygon fill="white" stroke="#666666" points="484.88,-339.12 364.62,-339.12 364.62,-318.38 484.88,-318.38 484.88,-339.12"/>
<text text-anchor="middle" x="424.75" y="-325.62" font-family="Helvetica,sans-Serif" font-size="10.00">raytracer::Color::getB</text>
</a>
</g>
</g>
<!-- Node3&#45;&gt;Node4 -->
<g id="edge3_Node000003_Node000004" class="edge">
<title>Node3&#45;&gt;Node4</title>
<g id="a_edge3_Node000003_Node000004"><a xlink:title=" ">
<path fill="none" stroke="#63b8ff" d="M285.41,-300.61C308.48,-305.31 335.67,-310.83 359.8,-315.74"/>
<polygon fill="#63b8ff" stroke="#63b8ff" points="358.79,-319.31 369.29,-317.88 360.19,-312.45 358.79,-319.31"/>
</a>
</g>
</g>
<!-- Node5 -->
<g id="Node000005" class="node">
<title>Node5</title>
<g id="a_Node000005"><a xlink:href="classraytracer_1_1Color.html#a4002ae54e8836e8f8b506ff2ef4fa9a2" target="_top" xlink:title=" ">
<polygon fill="white" stroke="#666666" points="485.25,-300.12 364.25,-300.12 364.25,-279.38 485.25,-279.38 485.25,-300.12"/>
<text text-anchor="middle" x="424.75" y="-286.62" font-family="Helvetica,sans-Serif" font-size="10.00">raytracer::Color::getG</text>
</a>
</g>
</g>
<!-- Node3&#45;&gt;Node5 -->
<g id="edge4_Node000003_Node000005" class="edge">
<title>Node3&#45;&gt;Node5</title>
<g id="a_edge4_Node000003_Node000005"><a xlink:title=" ">
<path fill="none" stroke="#63b8ff" d="M313.6,-289.75C326.82,-289.75 340.41,-289.75 353.33,-289.75"/>
<polygon fill="#63b8ff" stroke="#63b8ff" points="353.01,-293.25 363.01,-289.75 353.01,-286.25 353.01,-293.25"/>
</a>
</g>
</g>
<!-- Node6 -->
<g id="Node000006" class="node">
<title>Node6</title>
<g id="a_Node000006"><a xlink:href="classraytracer_1_1Color.html#aa32ae9b17373389db6c03fda0d90c87a" target="_top" xlink:title=" ">
<polygon fill="white" stroke="#666666" points="484.88,-261.12 364.62,-261.12 364.62,-240.38 484.88,-240.38 484.88,-261.12"/>
<text text-anchor="middle" x="424.75" y="-247.62" font-family="Helvetica,sans-Serif" font-size="10.00">raytracer::Color::getR</text>
</a>
</g>
</g>
<!-- Node3&#45;&gt;Node6 -->
<g id="edge5_Node000003_Node000006" class="edge">
<title>Node3&#45;&gt;Node6</title>
<g id="a_edge5_Node000003_Node000006"><a xlink:title=" ">
<path fill="none" stroke="#63b8ff" d="M285.41,-278.89C308.48,-274.19 335.67,-268.67 359.8,-263.76"/>
<polygon fill="#63b8ff" stroke="#63b8ff" points="360.19,-267.05 369.29,-261.62 358.79,-260.19 360.19,-267.05"/>
</a>
</g>
</g>
<!-- Node12 -->
<g id="Node000012" class="node">
<title>Node12</title>
<g id="a_Node000012"><a xlink:href="classraytracer_1_1Scene.html#a3e1cc90ae8e645a806ebc45eb6681958" target="_top" xlink:title="Calcule la couleur d&#39;un pixel donné dans l&#39;image.">
<polygon fill="white" stroke="#666666" points="496.12,-152.12 353.38,-152.12 353.38,-131.38 496.12,-131.38 496.12,-152.12"/>
<text text-anchor="middle" x="424.75" y="-138.62" font-family="Helvetica,sans-Serif" font-size="10.00">raytracer::Scene::getColor</text>
</a>
</g>
</g>
<!-- Node11&#45;&gt;Node12 -->
<g id="edge11_Node000011_Node000012" class="edge">
<title>Node11&#45;&gt;Node12</title>
<g id="a_edge11_Node000011_Node000012"><a xlink:title=" ">
<path fill="none" stroke="#63b8ff" d="M284.16,-93.58C293.96,-96.18 304.02,-99.24 313.25,-102.75 330.16,-109.18 332.41,-115.14 349.25,-121.75 354.92,-123.98 360.93,-126.04 366.97,-127.93"/>
<polygon fill="#63b8ff" stroke="#63b8ff" points="365.55,-131.46 376.13,-130.95 367.54,-124.75 365.55,-131.46"/>
</a>
</g>
</g>
<!-- Node21 -->
<g id="Node000021" class="node">
<title>Node21</title>
<g id="a_Node000021"><a xlink:href="classraytracer_1_1Image.html#ac2ba89c5465c0bc307b3dfa87ea4bf33" target="_top" xlink:title="Getter pour la hauteur de l&#39;image.">
<polygon fill="white" stroke="#666666" points="500.25,-113.12 349.25,-113.12 349.25,-92.38 500.25,-92.38 500.25,-113.12"/>
<text text-anchor="middle" x="424.75" y="-99.62" font-family="Helvetica,sans-Serif" font-size="10.00">raytracer::Image::getHeight</text>
</a>
</g>
</g>
<!-- Node11&#45;&gt;Node21 -->
<g id="edge23_Node000011_Node000021" class="edge">
<title>Node11&#45;&gt;Node21</title>
<g id="a_edge23_Node000011_Node000021"><a xlink:title=" ">
<path fill="none" stroke="#63b8ff" d="M297.99,-89.63C310.98,-90.99 324.79,-92.43 338.32,-93.84"/>
<polygon fill="#63b8ff" stroke="#63b8ff" points="337.77,-97.41 348.08,-94.96 338.5,-90.44 337.77,-97.41"/>
</a>
</g>
</g>
<!-- Node22 -->
<g id="Node000022" class="node">
<title>Node22</title>
<g id="a_Node000022"><a xlink:href="classraytracer_1_1Image.html#a97f45882442cf62c1ae8c76b99991b59" target="_top" xlink:title="Getter pour la largeur de l&#39;image.">
<polygon fill="white" stroke="#666666" points="498.38,-74.12 351.12,-74.12 351.12,-53.38 498.38,-53.38 498.38,-74.12"/>
<text text-anchor="middle" x="424.75" y="-60.62" font-family="Helvetica,sans-Serif" font-size="10.00">raytracer::Image::getWidth</text>
</a>
</g>
</g>
<!-- Node11&#45;&gt;Node22 -->
<g id="edge24_Node000011_Node000022" class="edge">
<title>Node11&#45;&gt;Node22</title>
<g id="a_edge24_Node000011_Node000022"><a xlink:title=" ">
<path fill="none" stroke="#63b8ff" d="M297.99,-76.21C311.54,-74.87 325.98,-73.44 340.06,-72.04"/>
<polygon fill="#63b8ff" stroke="#63b8ff" points="340.14,-75.45 349.74,-70.98 339.45,-68.49 340.14,-75.45"/>
</a>
</g>
</g>
<!-- Node23 -->
<g id="Node000023" class="node">
<title>Node23</title>
<g id="a_Node000023"><a xlink:href="classraytracer_1_1Image.html#a35cb4abe430709e46e24beb3ac4bee63" target="_top" xlink:title="Définit la couleur d&#39;un pixel à une position donnée.">
<polygon fill="white" stroke="#666666" points="495.38,-35.12 354.12,-35.12 354.12,-14.38 495.38,-14.38 495.38,-35.12"/>
<text text-anchor="middle" x="424.75" y="-21.62" font-family="Helvetica,sans-Serif" font-size="10.00">raytracer::Image::setPixel</text>
</a>
</g>
</g>
<!-- Node11&#45;&gt;Node23 -->
<g id="edge25_Node000011_Node000023" class="edge">
<title>Node11&#45;&gt;Node23</title>
<g id="a_edge25_Node000011_Node000023"><a xlink:title=" ">
<path fill="none" stroke="#63b8ff" d="M286.77,-71.97C295.73,-69.63 304.84,-66.89 313.25,-63.75 330.2,-57.42 332.41,-51.36 349.25,-44.75 354.92,-42.52 360.93,-40.46 366.97,-38.57"/>
<polygon fill="#63b8ff" stroke="#63b8ff" points="367.54,-41.75 376.13,-35.55 365.55,-35.04 367.54,-41.75"/>
</a>
</g>
</g>
<!-- Node13 -->
<g id="Node000013" class="node">
<title>Node13</title>
<g id="a_Node000013"><a xlink:href="classraytracer_1_1Color.html#af57a11390d98eeb60d1f804f2a85bb72" target="_top" xlink:title=" ">
<polygon fill="white" stroke="#666666" points="841.25,-239.12 713.5,-239.12 713.5,-218.38 841.25,-218.38 841.25,-239.12"/>
<text text-anchor="middle" x="777.38" y="-225.62" font-family="Helvetica,sans-Serif" font-size="10.00">raytracer::Color::clamp</text>
</a>
</g>
</g>
<!-- Node12&#45;&gt;Node13 -->
<g id="edge12_Node000012_Node000013" class="edge">
<title>Node12&#45;&gt;Node13</title>
<g id="a_edge12_Node000012_Node000013"><a xlink:title=" ">
<path fill="none" stroke="#63b8ff" d="M442.99,-152.59C464.12,-165.33 501.42,-186.08 536.25,-196.75 590.44,-213.34 654.11,-221.34 702.27,-225.18"/>
<polygon fill="#63b8ff" stroke="#63b8ff" points="702,-228.75 712.23,-226.01 702.52,-221.77 702,-228.75"/>
</a>
</g>
</g>
<!-- Node14 -->
<g id="Node000014" class="node">
<title>Node14</title>
<g id="a_Node000014"><a xlink:href="classraytracer_1_1Scene.html#a47df2dc8ff0d5b2c53a1119e4dbc78a5" target="_top" xlink:title="Calcule la couleur de la lumière sur une primitive à un point d&#39;intersection donné.">
<polygon fill="white" stroke="#666666" points="677.5,-187.5 536.25,-187.5 536.25,-154 677.5,-154 677.5,-187.5"/>
<text text-anchor="start" x="544.25" y="-174" font-family="Helvetica,sans-Serif" font-size="10.00">raytracer::Scene::getLight</text>
<text text-anchor="middle" x="606.88" y="-161.25" font-family="Helvetica,sans-Serif" font-size="10.00">Color</text>
</a>
</g>
</g>
<!-- Node12&#45;&gt;Node14 -->
<g id="edge13_Node000012_Node000014" class="edge">
<title>Node12&#45;&gt;Node14</title>
<g id="a_edge13_Node000012_Node000014"><a xlink:title=" ">
<path fill="none" stroke="#63b8ff" d="M493.08,-152.59C503.57,-154.28 514.5,-156.04 525.25,-157.77"/>
<polygon fill="#63b8ff" stroke="#63b8ff" points="524.49,-161.35 534.92,-159.49 525.61,-154.44 524.49,-161.35"/>
</a>
</g>
</g>
<!-- Node16 -->
<g id="Node000016" class="node">
<title>Node16</title>
<g id="a_Node000016"><a xlink:href="classmath_1_1Vector3D.html#ae0c26833a0b58f2709884880a02bdc52" target="_top" xlink:title="Normalise le vecteur actuel (modifie en place).">
<polygon fill="white" stroke="#666666" points="1023.75,-124.12 877.25,-124.12 877.25,-103.38 1023.75,-103.38 1023.75,-124.12"/>
<text text-anchor="middle" x="950.5" y="-110.62" font-family="Helvetica,sans-Serif" font-size="10.00">math::Vector3D::normalize</text>
</a>
</g>
</g>
<!-- Node12&#45;&gt;Node16 -->
<g id="edge17_Node000012_Node000016" class="edge">
<title>Node12&#45;&gt;Node16</title>
<g id="a_edge17_Node000012_Node000016"><a xlink:title=" ">
<path fill="none" stroke="#63b8ff" d="M496.39,-137.97C592.43,-132.84 763.93,-123.67 866.16,-118.21"/>
<polygon fill="#63b8ff" stroke="#63b8ff" points="866.25,-121.65 876.05,-117.62 865.87,-114.66 866.25,-121.65"/>
</a>
</g>
</g>
<!-- Node17 -->
<g id="Node000017" class="node">
<title>Node17</title>
<g id="a_Node000017"><a xlink:href="classraytracer_1_1Camera.html#aa6be6292787a7ffd1833c7184aed42af" target="_top" xlink:title="Génère un rayon à partir des coordonnées normalisées sur le plan de l&#39;écran.">
<polygon fill="white" stroke="#666666" points="670,-79.12 543.75,-79.12 543.75,-58.38 670,-58.38 670,-79.12"/>
<text text-anchor="middle" x="606.88" y="-65.62" font-family="Helvetica,sans-Serif" font-size="10.00">raytracer::Camera::ray</text>
</a>
</g>
</g>
<!-- Node12&#45;&gt;Node17 -->
<g id="edge18_Node000012_Node000017" class="edge">
<title>Node12&#45;&gt;Node17</title>
<g id="a_edge18_Node000012_Node000017"><a xlink:title=" ">
<path fill="none" stroke="#63b8ff" d="M474.13,-130.93C482.97,-128.35 492,-125.29 500.25,-121.75 517.48,-114.35 519.65,-108.47 536.25,-99.75 546.81,-94.2 558.57,-88.71 569.38,-83.93"/>
<polygon fill="#63b8ff" stroke="#63b8ff" points="570.6,-86.79 578.37,-79.59 567.81,-80.37 570.6,-86.79"/>
</a>
</g>
</g>
<!-- Node14&#45;&gt;Node13 -->
<g id="edge14_Node000014_Node000013" class="edge">
<title>Node14&#45;&gt;Node13</title>
<g id="a_edge14_Node000014_Node000013"><a xlink:title=" ">
<path fill="none" stroke="#63b8ff" d="M654.54,-187.96C672.87,-194.61 694.12,-202.18 713.5,-208.75 719.34,-210.73 725.5,-212.76 731.59,-214.73"/>
<polygon fill="#63b8ff" stroke="#63b8ff" points="730.12,-218.25 740.71,-217.98 732.26,-211.59 730.12,-218.25"/>
</a>
</g>
</g>
<!-- Node15 -->
<g id="Node000015" class="node">
<title>Node15</title>
<g id="a_Node000015"><a xlink:href="classmath_1_1Vector3D.html#ac86c5f9ee96342aed93b22387a86e247" target="_top" xlink:title="Calcule le produit scalaire avec un autre vecteur.">
<polygon fill="white" stroke="#666666" points="834.12,-200.12 720.62,-200.12 720.62,-179.38 834.12,-179.38 834.12,-200.12"/>
<text text-anchor="middle" x="777.38" y="-186.62" font-family="Helvetica,sans-Serif" font-size="10.00">math::Vector3D::dot</text>
</a>
</g>
</g>
<!-- Node14&#45;&gt;Node15 -->
<g id="edge15_Node000014_Node000015" class="edge">
<title>Node14&#45;&gt;Node15</title>
<g id="a_edge15_Node000014_Node000015"><a xlink:title=" ">
<path fill="none" stroke="#63b8ff" d="M677.87,-178.64C688.34,-179.82 699.11,-181.04 709.51,-182.21"/>
<polygon fill="#63b8ff" stroke="#63b8ff" points="708.86,-185.77 719.19,-183.41 709.65,-178.82 708.86,-185.77"/>
</a>
</g>
</g>
<!-- Node14&#45;&gt;Node16 -->
<g id="edge16_Node000014_Node000016" class="edge">
<title>Node14&#45;&gt;Node16</title>
<g id="a_edge16_Node000014_Node000016"><a xlink:title=" ">
<path fill="none" stroke="#63b8ff" d="M677.83,-159.08C734.89,-149.56 815.35,-136.13 873.89,-126.37"/>
<polygon fill="#63b8ff" stroke="#63b8ff" points="874.26,-129.68 883.55,-124.59 873.11,-122.78 874.26,-129.68"/>
</a>
</g>
</g>
<!-- Node18 -->
<g id="Node000018" class="node">
<title>Node18</title>
<g id="a_Node000018"><a xlink:href="classraytracer_1_1Camera.html#a8afe32e5da7b2f482ab823a45ef428c0" target="_top" xlink:title="Calcule la direction d’un rayon depuis la caméra vers un point de l&#39;écran.">
<polygon fill="white" stroke="#666666" points="832.62,-85.5 722.12,-85.5 722.12,-52 832.62,-52 832.62,-85.5"/>
<text text-anchor="start" x="730.12" y="-72" font-family="Helvetica,sans-Serif" font-size="10.00">raytracer::Camera::</text>
<text text-anchor="middle" x="777.38" y="-59.25" font-family="Helvetica,sans-Serif" font-size="10.00">calculateDirection</text>
</a>
</g>
</g>
<!-- Node17&#45;&gt;Node18 -->
<g id="edge19_Node000017_Node000018" class="edge">
<title>Node17&#45;&gt;Node18</title>
<g id="a_edge19_Node000017_Node000018"><a xlink:title=" ">
<path fill="none" stroke="#63b8ff" d="M670.14,-68.75C683.53,-68.75 697.71,-68.75 711.21,-68.75"/>
<polygon fill="#63b8ff" stroke="#63b8ff" points="710.86,-72.25 720.86,-68.75 710.86,-65.25 710.86,-72.25"/>
</a>
</g>
</g>
<!-- Node19 -->
<g id="Node000019" class="node">
<title>Node19</title>
<g id="a_Node000019"><a xlink:href="classraytracer_1_1Camera.html#a94d16e4d450ae1cfbb908623768561b3" target="_top" xlink:title="Calcule la position 3D sur le plan de l&#39;écran à partir des coordonnées (u, v).">
<polygon fill="white" stroke="#666666" points="832.62,-33.5 722.12,-33.5 722.12,0 832.62,0 832.62,-33.5"/>
<text text-anchor="start" x="730.12" y="-20" font-family="Helvetica,sans-Serif" font-size="10.00">raytracer::Camera::</text>
<text text-anchor="middle" x="777.38" y="-7.25" font-family="Helvetica,sans-Serif" font-size="10.00">calculateScreenPos</text>
</a>
</g>
</g>
<!-- Node17&#45;&gt;Node19 -->
<g id="edge21_Node000017_Node000019" class="edge">
<title>Node17&#45;&gt;Node19</title>
<g id="a_edge21_Node000017_Node000019"><a xlink:title=" ">
<path fill="none" stroke="#63b8ff" d="M642.79,-57.98C662.69,-51.83 688.26,-43.94 711.69,-36.71"/>
<polygon fill="#63b8ff" stroke="#63b8ff" points="712.41,-39.84 720.93,-33.55 710.34,-33.16 712.41,-39.84"/>
</a>
</g>
</g>
<!-- Node18&#45;&gt;Node16 -->
<g id="edge20_Node000018_Node000016" class="edge">
<title>Node18&#45;&gt;Node16</title>
<g id="a_edge20_Node000018_Node000016"><a xlink:title=" ">
<path fill="none" stroke="#63b8ff" d="M832.99,-83.11C853.81,-88.59 877.46,-94.81 897.99,-100.2"/>
<polygon fill="#63b8ff" stroke="#63b8ff" points="896.85,-103.79 907.41,-102.94 898.63,-97.02 896.85,-103.79"/>
</a>
</g>
</g>
<!-- Node20 -->
<g id="Node000020" class="node">
<title>Node20</title>
<g id="a_Node000020"><a xlink:href="classraytracer_1_1Rectangle3D.html#a1076e494c43ceb9b232a87ec150b2044" target="_top" xlink:title=" ">
<polygon fill="white" stroke="#666666" points="1014.75,-33.5 886.25,-33.5 886.25,0 1014.75,0 1014.75,-33.5"/>
<text text-anchor="start" x="894.25" y="-20" font-family="Helvetica,sans-Serif" font-size="10.00">raytracer::Rectangle3D</text>
<text text-anchor="middle" x="950.5" y="-7.25" font-family="Helvetica,sans-Serif" font-size="10.00">::pointAt</text>
</a>
</g>
</g>
<!-- Node19&#45;&gt;Node20 -->
<g id="edge22_Node000019_Node000020" class="edge">
<title>Node19&#45;&gt;Node20</title>
<g id="a_edge22_Node000019_Node000020"><a xlink:title=" ">
<path fill="none" stroke="#63b8ff" d="M832.99,-16.75C846.4,-16.75 860.98,-16.75 875.14,-16.75"/>
<polygon fill="#63b8ff" stroke="#63b8ff" points="874.86,-20.25 884.86,-16.75 874.86,-13.25 874.86,-20.25"/>
</a>
</g>
</g>
</g>
</svg>
