<?xml version="1.0" encoding="UTF-8" standalone="no"?>
<!DOCTYPE svg PUBLIC "-//W3C//DTD SVG 1.1//EN"
 "http://www.w3.org/Graphics/SVG/1.1/DTD/svg11.dtd">
<!-- Generated by graphviz version 8.1.0 (20230707.0739)
 -->
<!-- Title: core::Parser Pages: 1 -->
<svg width="1010pt" height="999pt"
 viewBox="0.00 0.00 1010.36 999.00" xmlns="http://www.w3.org/2000/svg" xmlns:xlink="http://www.w3.org/1999/xlink">
<g id="graph0" class="graph" transform="scale(1 1) rotate(0) translate(4 995)">
<title>core::Parser</title>
<!-- Node1 -->
<g id="Node000001" class="node">
<title>Node1</title>
<g id="a_Node000001"><a xlink:title="Classe responsable du parsing des fichiers de configuration pour la scène 3D.">
<polygon fill="#999999" stroke="none" points="658.86,-276 551.86,-276 551.86,0 658.86,0 658.86,-276"/>
<text text-anchor="start" x="576.86" y="-262.5" font-family="Helvetica,sans-Serif" font-size="10.00">core::Parser</text>
<text text-anchor="start" x="557.98" y="-246.5" font-family="Helvetica,sans-Serif" font-size="10.00">&#45;</text>
<text text-anchor="start" x="567.86" y="-246.5" font-family="Helvetica,sans-Serif" font-size="10.00">_ambient</text>
<text text-anchor="start" x="557.98" y="-230.5" font-family="Helvetica,sans-Serif" font-size="10.00">&#45;</text>
<text text-anchor="start" x="567.86" y="-230.5" font-family="Helvetica,sans-Serif" font-size="10.00">_diffuse</text>
<text text-anchor="start" x="555.73" y="-214.5" font-family="Helvetica,sans-Serif" font-size="10.00">+</text>
<text text-anchor="start" x="567.86" y="-214.5" font-family="Helvetica,sans-Serif" font-size="10.00">Parser()</text>
<text text-anchor="start" x="555.73" y="-198.5" font-family="Helvetica,sans-Serif" font-size="10.00">+</text>
<text text-anchor="start" x="567.86" y="-198.5" font-family="Helvetica,sans-Serif" font-size="10.00">~Parser()</text>
<text text-anchor="start" x="555.73" y="-182.5" font-family="Helvetica,sans-Serif" font-size="10.00">+</text>
<text text-anchor="start" x="567.86" y="-182.5" font-family="Helvetica,sans-Serif" font-size="10.00">parseCamera()</text>
<text text-anchor="start" x="555.73" y="-166.5" font-family="Helvetica,sans-Serif" font-size="10.00">+</text>
<text text-anchor="start" x="567.86" y="-166.5" font-family="Helvetica,sans-Serif" font-size="10.00">parsePrimitive()</text>
<text text-anchor="start" x="555.73" y="-150.5" font-family="Helvetica,sans-Serif" font-size="10.00">+</text>
<text text-anchor="start" x="567.86" y="-150.5" font-family="Helvetica,sans-Serif" font-size="10.00">parseSpheres()</text>
<text text-anchor="start" x="555.73" y="-134.5" font-family="Helvetica,sans-Serif" font-size="10.00">+</text>
<text text-anchor="start" x="567.86" y="-134.5" font-family="Helvetica,sans-Serif" font-size="10.00">parsePlanes()</text>
<text text-anchor="start" x="555.73" y="-118.5" font-family="Helvetica,sans-Serif" font-size="10.00">+</text>
<text text-anchor="start" x="567.86" y="-118.5" font-family="Helvetica,sans-Serif" font-size="10.00">parseCylinders()</text>
<text text-anchor="start" x="555.73" y="-102.5" font-family="Helvetica,sans-Serif" font-size="10.00">+</text>
<text text-anchor="start" x="567.86" y="-102.5" font-family="Helvetica,sans-Serif" font-size="10.00">parseCones()</text>
<text text-anchor="start" x="555.73" y="-86.5" font-family="Helvetica,sans-Serif" font-size="10.00">+</text>
<text text-anchor="start" x="567.86" y="-86.5" font-family="Helvetica,sans-Serif" font-size="10.00">parseLights()</text>
<text text-anchor="start" x="555.73" y="-70.5" font-family="Helvetica,sans-Serif" font-size="10.00">+</text>
<text text-anchor="start" x="567.86" y="-70.5" font-family="Helvetica,sans-Serif" font-size="10.00">parseFile()</text>
<text text-anchor="start" x="567.86" y="-54.5" font-family="Helvetica,sans-Serif" font-size="10.00">and 9 more...</text>
<text text-anchor="start" x="557.98" y="-38.5" font-family="Helvetica,sans-Serif" font-size="10.00">&#45;</text>
<text text-anchor="start" x="567.86" y="-38.5" font-family="Helvetica,sans-Serif" font-size="10.00">parseRotation()</text>
<text text-anchor="start" x="557.98" y="-22.5" font-family="Helvetica,sans-Serif" font-size="10.00">&#45;</text>
<text text-anchor="start" x="567.86" y="-22.5" font-family="Helvetica,sans-Serif" font-size="10.00">parseTranslation()</text>
<text text-anchor="start" x="557.98" y="-6.5" font-family="Helvetica,sans-Serif" font-size="10.00">&#45;</text>
<text text-anchor="start" x="567.86" y="-6.5" font-family="Helvetica,sans-Serif" font-size="10.00">parseScale()</text>
<polygon fill="#666666" stroke="#666666" points="551.86,-258 551.86,-258 658.86,-258 658.86,-258 551.86,-258"/>
<polygon fill="#666666" stroke="#666666" points="551.86,-226 551.86,-226 565.86,-226 565.86,-226 551.86,-226"/>
<polygon fill="#666666" stroke="#666666" points="565.86,-226 565.86,-226 658.86,-226 658.86,-226 565.86,-226"/>
<polygon fill="none" stroke="#666666" points="551.86,0 551.86,-276 658.86,-276 658.86,0 551.86,0"/>
</a>
</g>
</g>
<!-- Node2 -->
<g id="Node000002" class="node">
<title>Node2</title>
<g id="a_Node000002"><a xlink:href="classraytracer_1_1Camera.html" target="_top" xlink:title="Classe représentant une caméra dans le moteur de raytracing.">
<polygon fill="white" stroke="none" points="262.36,-520.75 140.36,-520.75 140.36,-324.75 262.36,-324.75 262.36,-520.75"/>
<text text-anchor="start" x="157.11" y="-507.25" font-family="Helvetica,sans-Serif" font-size="10.00">raytracer::Camera</text>
<text text-anchor="start" x="144.23" y="-491.25" font-family="Helvetica,sans-Serif" font-size="10.00">+</text>
<text text-anchor="start" x="156.36" y="-491.25" font-family="Helvetica,sans-Serif" font-size="10.00">width</text>
<text text-anchor="start" x="144.23" y="-475.25" font-family="Helvetica,sans-Serif" font-size="10.00">+</text>
<text text-anchor="start" x="156.36" y="-475.25" font-family="Helvetica,sans-Serif" font-size="10.00">height</text>
<text text-anchor="start" x="144.23" y="-459.25" font-family="Helvetica,sans-Serif" font-size="10.00">+</text>
<text text-anchor="start" x="156.36" y="-459.25" font-family="Helvetica,sans-Serif" font-size="10.00">posX</text>
<text text-anchor="start" x="144.23" y="-443.25" font-family="Helvetica,sans-Serif" font-size="10.00">+</text>
<text text-anchor="start" x="156.36" y="-443.25" font-family="Helvetica,sans-Serif" font-size="10.00">posY</text>
<text text-anchor="start" x="144.23" y="-427.25" font-family="Helvetica,sans-Serif" font-size="10.00">+</text>
<text text-anchor="start" x="156.36" y="-427.25" font-family="Helvetica,sans-Serif" font-size="10.00">posZ</text>
<text text-anchor="start" x="144.23" y="-411.25" font-family="Helvetica,sans-Serif" font-size="10.00">+</text>
<text text-anchor="start" x="156.36" y="-411.25" font-family="Helvetica,sans-Serif" font-size="10.00">fieldOfView</text>
<text text-anchor="start" x="144.23" y="-395.25" font-family="Helvetica,sans-Serif" font-size="10.00">+</text>
<text text-anchor="start" x="156.36" y="-395.25" font-family="Helvetica,sans-Serif" font-size="10.00">Camera()</text>
<text text-anchor="start" x="144.23" y="-379.25" font-family="Helvetica,sans-Serif" font-size="10.00">+</text>
<text text-anchor="start" x="156.36" y="-379.25" font-family="Helvetica,sans-Serif" font-size="10.00">~Camera()</text>
<text text-anchor="start" x="144.23" y="-363.25" font-family="Helvetica,sans-Serif" font-size="10.00">+</text>
<text text-anchor="start" x="156.36" y="-363.25" font-family="Helvetica,sans-Serif" font-size="10.00">ray()</text>
<text text-anchor="start" x="144.23" y="-347.25" font-family="Helvetica,sans-Serif" font-size="10.00">+</text>
<text text-anchor="start" x="156.36" y="-347.25" font-family="Helvetica,sans-Serif" font-size="10.00">calculateScreenPos()</text>
<text text-anchor="start" x="144.23" y="-331.25" font-family="Helvetica,sans-Serif" font-size="10.00">+</text>
<text text-anchor="start" x="156.36" y="-331.25" font-family="Helvetica,sans-Serif" font-size="10.00">calculateDirection()</text>
<polygon fill="#666666" stroke="#666666" points="140.36,-502.75 140.36,-502.75 262.36,-502.75 262.36,-502.75 140.36,-502.75"/>
<polygon fill="#666666" stroke="#666666" points="140.36,-406.75 140.36,-406.75 154.36,-406.75 154.36,-406.75 140.36,-406.75"/>
<polygon fill="#666666" stroke="#666666" points="154.36,-406.75 154.36,-406.75 262.36,-406.75 262.36,-406.75 154.36,-406.75"/>
<polygon fill="none" stroke="#666666" points="140.36,-324.75 140.36,-520.75 262.36,-520.75 262.36,-324.75 140.36,-324.75"/>
</a>
</g>
</g>
<!-- Node2&#45;&gt;Node1 -->
<g id="edge1_Node000001_Node000002" class="edge">
<title>Node2&#45;&gt;Node1</title>
<g id="a_edge1_Node000001_Node000002"><a xlink:title=" ">
<path fill="none" stroke="#63b8ff" d="M262.23,-333.47C265.21,-330.43 268.25,-327.51 271.36,-324.75 353.28,-251.93 468.55,-195.75 540.02,-165.05"/>
<polygon fill="none" stroke="#63b8ff" points="540.09,-165.02 544.05,-158.99 551.14,-160.33 547.18,-166.36 540.09,-165.02"/>
</a>
</g>
<text text-anchor="middle" x="327.73" y="-297.25" font-family="Helvetica,sans-Serif" font-size="10.00" fill="grey"> &#45;_camera</text>
</g>
<!-- Node3 -->
<g id="Node000003" class="node">
<title>Node3</title>
<g id="a_Node000003"><a xlink:href="classraytracer_1_1Rectangle3D.html" target="_top" xlink:title=" ">
<polygon fill="white" stroke="none" points="200.36,-669.5 78.36,-669.5 78.36,-569.5 200.36,-569.5 200.36,-669.5"/>
<text text-anchor="start" x="83.11" y="-656" font-family="Helvetica,sans-Serif" font-size="10.00">raytracer::Rectangle3D</text>
<text text-anchor="start" x="137.86" y="-640" font-family="Helvetica,sans-Serif" font-size="10.00"> </text>
<text text-anchor="start" x="88.23" y="-624" font-family="Helvetica,sans-Serif" font-size="10.00">+</text>
<text text-anchor="start" x="106.36" y="-624" font-family="Helvetica,sans-Serif" font-size="10.00">Rectangle3D()</text>
<text text-anchor="start" x="88.23" y="-608" font-family="Helvetica,sans-Serif" font-size="10.00">+</text>
<text text-anchor="start" x="106.36" y="-608" font-family="Helvetica,sans-Serif" font-size="10.00">Rectangle3D()</text>
<text text-anchor="start" x="88.23" y="-592" font-family="Helvetica,sans-Serif" font-size="10.00">+</text>
<text text-anchor="start" x="106.36" y="-592" font-family="Helvetica,sans-Serif" font-size="10.00">~Rectangle3D()</text>
<text text-anchor="start" x="88.23" y="-576" font-family="Helvetica,sans-Serif" font-size="10.00">+</text>
<text text-anchor="start" x="106.36" y="-576" font-family="Helvetica,sans-Serif" font-size="10.00">pointAt()</text>
<polygon fill="#666666" stroke="#666666" points="78.36,-651.5 78.36,-651.5 200.36,-651.5 200.36,-651.5 78.36,-651.5"/>
<polygon fill="#666666" stroke="#666666" points="78.36,-635.5 78.36,-635.5 200.36,-635.5 200.36,-635.5 78.36,-635.5"/>
<polygon fill="none" stroke="#666666" points="78.36,-569.5 78.36,-669.5 200.36,-669.5 200.36,-569.5 78.36,-569.5"/>
</a>
</g>
</g>
<!-- Node3&#45;&gt;Node2 -->
<g id="edge2_Node000002_Node000003" class="edge">
<title>Node3&#45;&gt;Node2</title>
<g id="a_edge2_Node000002_Node000003"><a xlink:title=" ">
<path fill="none" stroke="#63b8ff" d="M154.92,-569.61C158.54,-558.25 162.53,-545.71 166.61,-532.9"/>
<polygon fill="none" stroke="#63b8ff" points="166.62,-532.85 164.63,-525.92 170.26,-521.42 172.26,-528.35 166.62,-532.85"/>
</a>
</g>
<text text-anchor="middle" x="190.36" y="-542" font-family="Helvetica,sans-Serif" font-size="10.00" fill="grey"> +mScreen</text>
</g>
<!-- Node4 -->
<g id="Node000004" class="node">
<title>Node4</title>
<g id="a_Node000004"><a xlink:href="classmath_1_1Point3D.html" target="_top" xlink:title="Représente un point 3D. Peut interagir avec Vector3D.">
<polygon fill="white" stroke="none" points="92.86,-959 7.86,-959 7.86,-763 92.86,-763 92.86,-959"/>
<text text-anchor="start" x="15.48" y="-945.5" font-family="Helvetica,sans-Serif" font-size="10.00">math::Point3D</text>
<text text-anchor="start" x="11.73" y="-929.5" font-family="Helvetica,sans-Serif" font-size="10.00">+</text>
<text text-anchor="start" x="23.86" y="-929.5" font-family="Helvetica,sans-Serif" font-size="10.00">mX</text>
<text text-anchor="start" x="11.73" y="-913.5" font-family="Helvetica,sans-Serif" font-size="10.00">+</text>
<text text-anchor="start" x="23.86" y="-913.5" font-family="Helvetica,sans-Serif" font-size="10.00">mY</text>
<text text-anchor="start" x="11.73" y="-897.5" font-family="Helvetica,sans-Serif" font-size="10.00">+</text>
<text text-anchor="start" x="23.86" y="-897.5" font-family="Helvetica,sans-Serif" font-size="10.00">mZ</text>
<text text-anchor="start" x="11.73" y="-881.5" font-family="Helvetica,sans-Serif" font-size="10.00">+</text>
<text text-anchor="start" x="23.86" y="-881.5" font-family="Helvetica,sans-Serif" font-size="10.00">Point3D()</text>
<text text-anchor="start" x="11.73" y="-865.5" font-family="Helvetica,sans-Serif" font-size="10.00">+</text>
<text text-anchor="start" x="23.86" y="-865.5" font-family="Helvetica,sans-Serif" font-size="10.00">Point3D()</text>
<text text-anchor="start" x="11.73" y="-849.5" font-family="Helvetica,sans-Serif" font-size="10.00">+</text>
<text text-anchor="start" x="23.86" y="-849.5" font-family="Helvetica,sans-Serif" font-size="10.00">~Point3D()</text>
<text text-anchor="start" x="11.73" y="-833.5" font-family="Helvetica,sans-Serif" font-size="10.00">+</text>
<text text-anchor="start" x="23.86" y="-833.5" font-family="Helvetica,sans-Serif" font-size="10.00">operator+()</text>
<text text-anchor="start" x="11.73" y="-817.5" font-family="Helvetica,sans-Serif" font-size="10.00">+</text>
<text text-anchor="start" x="23.86" y="-817.5" font-family="Helvetica,sans-Serif" font-size="10.00">operator+()</text>
<text text-anchor="start" x="11.73" y="-801.5" font-family="Helvetica,sans-Serif" font-size="10.00">+</text>
<text text-anchor="start" x="23.86" y="-801.5" font-family="Helvetica,sans-Serif" font-size="10.00">operator+=()</text>
<text text-anchor="start" x="11.73" y="-785.5" font-family="Helvetica,sans-Serif" font-size="10.00">+</text>
<text text-anchor="start" x="23.86" y="-785.5" font-family="Helvetica,sans-Serif" font-size="10.00">operator&#45;()</text>
<text text-anchor="start" x="11.73" y="-769.5" font-family="Helvetica,sans-Serif" font-size="10.00">+</text>
<text text-anchor="start" x="23.86" y="-769.5" font-family="Helvetica,sans-Serif" font-size="10.00">operator&#45;()</text>
<polygon fill="#666666" stroke="#666666" points="7.86,-941 7.86,-941 92.86,-941 92.86,-941 7.86,-941"/>
<polygon fill="#666666" stroke="#666666" points="7.86,-893 7.86,-893 21.86,-893 21.86,-893 7.86,-893"/>
<polygon fill="#666666" stroke="#666666" points="21.86,-893 21.86,-893 92.86,-893 92.86,-893 21.86,-893"/>
<polygon fill="none" stroke="#666666" points="7.86,-763 7.86,-959 92.86,-959 92.86,-763 7.86,-763"/>
</a>
</g>
</g>
<!-- Node4&#45;&gt;Node2 -->
<g id="edge5_Node000002_Node000004" class="edge">
<title>Node4&#45;&gt;Node2</title>
<g id="a_edge5_Node000002_Node000004"><a xlink:title=" ">
<path fill="none" stroke="#63b8ff" d="M14.78,-763.03C-0.79,-704.34 -9.74,-629.5 19.11,-569.5 41.97,-521.94 88.75,-485.04 129.19,-460.27"/>
<polygon fill="none" stroke="#63b8ff" points="129.31,-460.2 132.43,-453.7 139.63,-454.07 136.51,-460.58 129.31,-460.2"/>
</a>
</g>
<text text-anchor="middle" x="44.48" y="-616.38" font-family="Helvetica,sans-Serif" font-size="10.00" fill="grey"> +mOrigin</text>
</g>
<!-- Node4&#45;&gt;Node3 -->
<g id="edge3_Node000003_Node000004" class="edge">
<title>Node4&#45;&gt;Node3</title>
<g id="a_edge3_Node000003_Node000004"><a xlink:title=" ">
<path fill="none" stroke="#63b8ff" d="M70.72,-763.31C77.52,-738.1 86.11,-711.33 96.61,-687.5 97.61,-685.23 98.68,-682.94 99.81,-680.66"/>
<polygon fill="none" stroke="#63b8ff" points="99.79,-680.7 99.07,-673.53 105.42,-670.11 106.13,-677.28 99.79,-680.7"/>
</a>
</g>
<text text-anchor="middle" x="120.23" y="-697.12" font-family="Helvetica,sans-Serif" font-size="10.00" fill="grey"> &#45;mOrigin</text>
</g>
<!-- Node5 -->
<g id="Node000005" class="node">
<title>Node5</title>
<g id="a_Node000005"><a xlink:href="classmath_1_1Vector3D.html" target="_top" xlink:title="Représente un vecteur 3D avec des opérations vectorielles de base.">
<polygon fill="white" stroke="none" points="208.86,-991 123.86,-991 123.86,-731 208.86,-731 208.86,-991"/>
<text text-anchor="start" x="128.48" y="-977.5" font-family="Helvetica,sans-Serif" font-size="10.00">math::Vector3D</text>
<text text-anchor="start" x="127.73" y="-961.5" font-family="Helvetica,sans-Serif" font-size="10.00">+</text>
<text text-anchor="start" x="139.86" y="-961.5" font-family="Helvetica,sans-Serif" font-size="10.00">mX</text>
<text text-anchor="start" x="127.73" y="-945.5" font-family="Helvetica,sans-Serif" font-size="10.00">+</text>
<text text-anchor="start" x="139.86" y="-945.5" font-family="Helvetica,sans-Serif" font-size="10.00">mY</text>
<text text-anchor="start" x="127.73" y="-929.5" font-family="Helvetica,sans-Serif" font-size="10.00">+</text>
<text text-anchor="start" x="139.86" y="-929.5" font-family="Helvetica,sans-Serif" font-size="10.00">mZ</text>
<text text-anchor="start" x="127.73" y="-913.5" font-family="Helvetica,sans-Serif" font-size="10.00">+</text>
<text text-anchor="start" x="139.86" y="-913.5" font-family="Helvetica,sans-Serif" font-size="10.00">Vector3D()</text>
<text text-anchor="start" x="127.73" y="-897.5" font-family="Helvetica,sans-Serif" font-size="10.00">+</text>
<text text-anchor="start" x="139.86" y="-897.5" font-family="Helvetica,sans-Serif" font-size="10.00">Vector3D()</text>
<text text-anchor="start" x="127.73" y="-881.5" font-family="Helvetica,sans-Serif" font-size="10.00">+</text>
<text text-anchor="start" x="139.86" y="-881.5" font-family="Helvetica,sans-Serif" font-size="10.00">~Vector3D()</text>
<text text-anchor="start" x="127.73" y="-865.5" font-family="Helvetica,sans-Serif" font-size="10.00">+</text>
<text text-anchor="start" x="139.86" y="-865.5" font-family="Helvetica,sans-Serif" font-size="10.00">length()</text>
<text text-anchor="start" x="127.73" y="-849.5" font-family="Helvetica,sans-Serif" font-size="10.00">+</text>
<text text-anchor="start" x="139.86" y="-849.5" font-family="Helvetica,sans-Serif" font-size="10.00">dot()</text>
<text text-anchor="start" x="127.73" y="-833.5" font-family="Helvetica,sans-Serif" font-size="10.00">+</text>
<text text-anchor="start" x="139.86" y="-833.5" font-family="Helvetica,sans-Serif" font-size="10.00">operator+()</text>
<text text-anchor="start" x="127.73" y="-817.5" font-family="Helvetica,sans-Serif" font-size="10.00">+</text>
<text text-anchor="start" x="139.86" y="-817.5" font-family="Helvetica,sans-Serif" font-size="10.00">operator+=()</text>
<text text-anchor="start" x="127.73" y="-801.5" font-family="Helvetica,sans-Serif" font-size="10.00">+</text>
<text text-anchor="start" x="139.86" y="-801.5" font-family="Helvetica,sans-Serif" font-size="10.00">operator&#45;()</text>
<text text-anchor="start" x="127.73" y="-785.5" font-family="Helvetica,sans-Serif" font-size="10.00">+</text>
<text text-anchor="start" x="139.86" y="-785.5" font-family="Helvetica,sans-Serif" font-size="10.00">operator&#45;=()</text>
<text text-anchor="start" x="127.73" y="-769.5" font-family="Helvetica,sans-Serif" font-size="10.00">+</text>
<text text-anchor="start" x="139.86" y="-769.5" font-family="Helvetica,sans-Serif" font-size="10.00">operator*()</text>
<text text-anchor="start" x="139.86" y="-753.5" font-family="Helvetica,sans-Serif" font-size="10.00">and 9 more...</text>
<text text-anchor="start" x="127.73" y="-737.5" font-family="Helvetica,sans-Serif" font-size="10.00">+</text>
<text text-anchor="start" x="139.86" y="-737.5" font-family="Helvetica,sans-Serif" font-size="10.00">normalize()</text>
<polygon fill="#666666" stroke="#666666" points="123.86,-973 123.86,-973 208.86,-973 208.86,-973 123.86,-973"/>
<polygon fill="#666666" stroke="#666666" points="123.86,-925 123.86,-925 137.86,-925 137.86,-925 123.86,-925"/>
<polygon fill="#666666" stroke="#666666" points="137.86,-925 137.86,-925 208.86,-925 208.86,-925 137.86,-925"/>
<polygon fill="none" stroke="#666666" points="123.86,-731 123.86,-991 208.86,-991 208.86,-731 123.86,-731"/>
</a>
</g>
</g>
<!-- Node5&#45;&gt;Node2 -->
<g id="edge7_Node000002_Node000005" class="edge">
<title>Node5&#45;&gt;Node2</title>
<g id="a_edge7_Node000002_Node000005"><a xlink:title=" ">
<path fill="none" stroke="#63b8ff" d="M208.82,-763.38C214.43,-746.86 219.29,-729.65 222.36,-713 233.18,-654.21 229.44,-587.73 222.33,-533.34"/>
<polygon fill="none" stroke="#63b8ff" points="222.32,-533.29 217.54,-527.89 220.68,-521.4 225.46,-526.8 222.32,-533.29"/>
</a>
</g>
<text text-anchor="middle" x="275.86" y="-616.38" font-family="Helvetica,sans-Serif" font-size="10.00" fill="grey"> +mVectorRotation</text>
</g>
<!-- Node5&#45;&gt;Node3 -->
<g id="edge4_Node000003_Node000005" class="edge">
<title>Node5&#45;&gt;Node3</title>
<g id="a_edge4_Node000003_Node000005"><a xlink:title=" ">
<path fill="none" stroke="#63b8ff" d="M150.92,-731.34C150.22,-725.14 149.52,-719 148.86,-713 147.76,-703.07 146.63,-692.54 145.56,-682.27"/>
<polygon fill="none" stroke="#63b8ff" points="145.57,-682.31 140.97,-676.76 144.33,-670.38 148.93,-675.93 145.57,-682.31"/>
</a>
</g>
<text text-anchor="middle" x="186.11" y="-703.5" font-family="Helvetica,sans-Serif" font-size="10.00" fill="grey"> &#45;mBottomSide</text>
<text text-anchor="middle" x="186.11" y="-690.75" font-family="Helvetica,sans-Serif" font-size="10.00" fill="grey">&#45;mLeftSide</text>
</g>
<!-- Node6 -->
<g id="Node000006" class="node">
<title>Node6</title>
<g id="a_Node000006"><a xlink:title=" ">
<polygon fill="white" stroke="none" points="455.36,-652 347.36,-652 347.36,-587 455.36,-587 455.36,-652"/>
<text text-anchor="start" x="352.23" y="-638.5" font-family="Helvetica,sans-Serif" font-size="10.00">map&lt; string, math::</text>
<text text-anchor="start" x="352.23" y="-625.75" font-family="Helvetica,sans-Serif" font-size="10.00">Matrix&lt; double &gt; &gt;</text>
<text text-anchor="start" x="399.86" y="-609.5" font-family="Helvetica,sans-Serif" font-size="10.00"> </text>
<text text-anchor="start" x="399.86" y="-593.5" font-family="Helvetica,sans-Serif" font-size="10.00"> </text>
<polygon fill="#666666" stroke="#666666" points="347.36,-621 347.36,-621 455.36,-621 455.36,-621 347.36,-621"/>
<polygon fill="#666666" stroke="#666666" points="347.36,-605 347.36,-605 455.36,-605 455.36,-605 347.36,-605"/>
<polygon fill="none" stroke="#666666" points="347.36,-587 347.36,-652 455.36,-652 455.36,-587 347.36,-587"/>
</a>
</g>
</g>
<!-- Node6&#45;&gt;Node2 -->
<g id="edge6_Node000002_Node000006" class="edge">
<title>Node6&#45;&gt;Node2</title>
<g id="a_edge6_Node000002_Node000006"><a xlink:title=" ">
<path fill="none" stroke="#63b8ff" d="M358.15,-587C323.29,-561.44 278.87,-528.41 271.36,-520.75 271.26,-520.65 271.17,-520.56 271.07,-520.46"/>
<polygon fill="none" stroke="#63b8ff" points="271.09,-520.48 264.07,-518.8 262.92,-511.69 269.93,-513.36 271.09,-520.48"/>
</a>
</g>
<text text-anchor="middle" x="341.98" y="-542" font-family="Helvetica,sans-Serif" font-size="10.00" fill="grey"> +mAllMatrix</text>
</g>
<!-- Node7 -->
<g id="Node000007" class="node">
<title>Node7</title>
<g id="a_Node000007"><a xlink:title=" ">
<polygon fill="white" stroke="none" points="383.86,-448.75 280.86,-448.75 280.86,-396.75 383.86,-396.75 383.86,-448.75"/>
<text text-anchor="start" x="285.48" y="-435.25" font-family="Helvetica,sans-Serif" font-size="10.00">vector&lt; Cylinder &gt;</text>
<text text-anchor="start" x="330.86" y="-419.25" font-family="Helvetica,sans-Serif" font-size="10.00"> </text>
<text text-anchor="start" x="330.86" y="-403.25" font-family="Helvetica,sans-Serif" font-size="10.00"> </text>
<polygon fill="#666666" stroke="#666666" points="280.86,-430.75 280.86,-430.75 383.86,-430.75 383.86,-430.75 280.86,-430.75"/>
<polygon fill="#666666" stroke="#666666" points="280.86,-414.75 280.86,-414.75 383.86,-414.75 383.86,-414.75 280.86,-414.75"/>
<polygon fill="none" stroke="#666666" points="280.86,-396.75 280.86,-448.75 383.86,-448.75 383.86,-396.75 280.86,-396.75"/>
</a>
</g>
</g>
<!-- Node7&#45;&gt;Node1 -->
<g id="edge8_Node000001_Node000007" class="edge">
<title>Node7&#45;&gt;Node1</title>
<g id="a_edge8_Node000001_Node000007"><a xlink:title=" ">
<path fill="none" stroke="#63b8ff" d="M345.34,-396.9C356.61,-376.46 374.12,-347.3 393.36,-324.75 438,-272.43 497.53,-221.57 542.14,-186.33"/>
<polygon fill="none" stroke="#63b8ff" points="542.12,-186.35 544.38,-179.5 551.57,-178.95 549.31,-185.8 542.12,-186.35"/>
</a>
</g>
<text text-anchor="middle" x="447.48" y="-297.25" font-family="Helvetica,sans-Serif" font-size="10.00" fill="grey"> &#45;_cylinders</text>
</g>
<!-- Node8 -->
<g id="Node000008" class="node">
<title>Node8</title>
<g id="a_Node000008"><a xlink:title=" ">
<polygon fill="white" stroke="none" points="542.36,-448.75 402.36,-448.75 402.36,-396.75 542.36,-396.75 542.36,-448.75"/>
<text text-anchor="start" x="407.11" y="-435.25" font-family="Helvetica,sans-Serif" font-size="10.00">vector&lt; DirectionalLight &gt;</text>
<text text-anchor="start" x="470.86" y="-419.25" font-family="Helvetica,sans-Serif" font-size="10.00"> </text>
<text text-anchor="start" x="470.86" y="-403.25" font-family="Helvetica,sans-Serif" font-size="10.00"> </text>
<polygon fill="#666666" stroke="#666666" points="402.36,-430.75 402.36,-430.75 542.36,-430.75 542.36,-430.75 402.36,-430.75"/>
<polygon fill="#666666" stroke="#666666" points="402.36,-414.75 402.36,-414.75 542.36,-414.75 542.36,-414.75 402.36,-414.75"/>
<polygon fill="none" stroke="#666666" points="402.36,-396.75 402.36,-448.75 542.36,-448.75 542.36,-396.75 402.36,-396.75"/>
</a>
</g>
</g>
<!-- Node8&#45;&gt;Node1 -->
<g id="edge9_Node000001_Node000008" class="edge">
<title>Node8&#45;&gt;Node1</title>
<g id="a_edge9_Node000001_Node000008"><a xlink:title=" ">
<path fill="none" stroke="#63b8ff" d="M477.14,-397.02C482.71,-370.74 493.15,-328.34 508.36,-294 518.59,-270.91 531.82,-247.2 545.22,-225.49"/>
<polygon fill="none" stroke="#63b8ff" points="545.15,-225.59 544.95,-218.39 551.52,-215.43 551.72,-222.64 545.15,-225.59"/>
</a>
</g>
<text text-anchor="middle" x="554.86" y="-297.25" font-family="Helvetica,sans-Serif" font-size="10.00" fill="grey"> &#45;_directionalLights</text>
</g>
<!-- Node9 -->
<g id="Node000009" class="node">
<title>Node9</title>
<g id="a_Node000009"><a xlink:title=" ">
<polygon fill="white" stroke="none" points="650.36,-448.75 560.36,-448.75 560.36,-396.75 650.36,-396.75 650.36,-448.75"/>
<text text-anchor="start" x="565.23" y="-435.25" font-family="Helvetica,sans-Serif" font-size="10.00">vector&lt; Plane &gt;</text>
<text text-anchor="start" x="603.86" y="-419.25" font-family="Helvetica,sans-Serif" font-size="10.00"> </text>
<text text-anchor="start" x="603.86" y="-403.25" font-family="Helvetica,sans-Serif" font-size="10.00"> </text>
<polygon fill="#666666" stroke="#666666" points="560.36,-430.75 560.36,-430.75 650.36,-430.75 650.36,-430.75 560.36,-430.75"/>
<polygon fill="#666666" stroke="#666666" points="560.36,-414.75 560.36,-414.75 650.36,-414.75 650.36,-414.75 560.36,-414.75"/>
<polygon fill="none" stroke="#666666" points="560.36,-396.75 560.36,-448.75 650.36,-448.75 650.36,-396.75 560.36,-396.75"/>
</a>
</g>
</g>
<!-- Node9&#45;&gt;Node1 -->
<g id="edge10_Node000001_Node000009" class="edge">
<title>Node9&#45;&gt;Node1</title>
<g id="a_edge10_Node000001_Node000009"><a xlink:title=" ">
<path fill="none" stroke="#63b8ff" d="M605.36,-397.15C605.36,-372.02 605.36,-330.78 605.36,-288.57"/>
<polygon fill="none" stroke="#63b8ff" points="605.36,-288.65 601.36,-282.65 605.36,-276.65 609.36,-282.65 605.36,-288.65"/>
</a>
</g>
<text text-anchor="middle" x="627.48" y="-297.25" font-family="Helvetica,sans-Serif" font-size="10.00" fill="grey"> &#45;_planes</text>
</g>
<!-- Node10 -->
<g id="Node000010" class="node">
<title>Node10</title>
<g id="a_Node000010"><a xlink:title=" ">
<polygon fill="white" stroke="none" points="780.36,-448.75 668.36,-448.75 668.36,-396.75 780.36,-396.75 780.36,-448.75"/>
<text text-anchor="start" x="673.36" y="-435.25" font-family="Helvetica,sans-Serif" font-size="10.00">vector&lt; PointLight &gt;</text>
<text text-anchor="start" x="722.86" y="-419.25" font-family="Helvetica,sans-Serif" font-size="10.00"> </text>
<text text-anchor="start" x="722.86" y="-403.25" font-family="Helvetica,sans-Serif" font-size="10.00"> </text>
<polygon fill="#666666" stroke="#666666" points="668.36,-430.75 668.36,-430.75 780.36,-430.75 780.36,-430.75 668.36,-430.75"/>
<polygon fill="#666666" stroke="#666666" points="668.36,-414.75 668.36,-414.75 780.36,-414.75 780.36,-414.75 668.36,-414.75"/>
<polygon fill="none" stroke="#666666" points="668.36,-396.75 668.36,-448.75 780.36,-448.75 780.36,-396.75 668.36,-396.75"/>
</a>
</g>
</g>
<!-- Node10&#45;&gt;Node1 -->
<g id="edge11_Node000001_Node000010" class="edge">
<title>Node10&#45;&gt;Node1</title>
<g id="a_edge11_Node000001_Node000010"><a xlink:title=" ">
<path fill="none" stroke="#63b8ff" d="M714.01,-397.15C702.54,-369.9 683.1,-323.72 663.81,-277.89"/>
<polygon fill="none" stroke="#63b8ff" points="663.79,-277.83 657.78,-273.86 659.13,-266.77 665.15,-270.75 663.79,-277.83"/>
</a>
</g>
<text text-anchor="middle" x="708.36" y="-297.25" font-family="Helvetica,sans-Serif" font-size="10.00" fill="grey"> &#45;_pointLights</text>
</g>
<!-- Node11 -->
<g id="Node000011" class="node">
<title>Node11</title>
<g id="a_Node000011"><a xlink:title=" ">
<polygon fill="white" stroke="none" points="895.86,-448.75 798.86,-448.75 798.86,-396.75 895.86,-396.75 895.86,-448.75"/>
<text text-anchor="start" x="803.86" y="-435.25" font-family="Helvetica,sans-Serif" font-size="10.00">vector&lt; Sphere &gt;</text>
<text text-anchor="start" x="845.86" y="-419.25" font-family="Helvetica,sans-Serif" font-size="10.00"> </text>
<text text-anchor="start" x="845.86" y="-403.25" font-family="Helvetica,sans-Serif" font-size="10.00"> </text>
<polygon fill="#666666" stroke="#666666" points="798.86,-430.75 798.86,-430.75 895.86,-430.75 895.86,-430.75 798.86,-430.75"/>
<polygon fill="#666666" stroke="#666666" points="798.86,-414.75 798.86,-414.75 895.86,-414.75 895.86,-414.75 798.86,-414.75"/>
<polygon fill="none" stroke="#666666" points="798.86,-396.75 798.86,-448.75 895.86,-448.75 895.86,-396.75 798.86,-396.75"/>
</a>
</g>
</g>
<!-- Node11&#45;&gt;Node1 -->
<g id="edge12_Node000001_Node000011" class="edge">
<title>Node11&#45;&gt;Node1</title>
<g id="a_edge12_Node000001_Node000011"><a xlink:title=" ">
<path fill="none" stroke="#63b8ff" d="M834.6,-396.78C823.76,-376.53 807.16,-347.69 789.36,-324.75 752.94,-277.8 705.65,-230.3 668.14,-195.08"/>
<polygon fill="none" stroke="#63b8ff" points="668.26,-195.2 661.14,-194.03 659.48,-187.02 666.6,-188.18 668.26,-195.2"/>
</a>
</g>
<text text-anchor="middle" x="796.48" y="-297.25" font-family="Helvetica,sans-Serif" font-size="10.00" fill="grey"> &#45;_spheres</text>
</g>
<!-- Node12 -->
<g id="Node000012" class="node">
<title>Node12</title>
<g id="a_Node000012"><a xlink:title=" ">
<polygon fill="white" stroke="none" points="1002.36,-448.75 914.36,-448.75 914.36,-396.75 1002.36,-396.75 1002.36,-448.75"/>
<text text-anchor="start" x="919.36" y="-435.25" font-family="Helvetica,sans-Serif" font-size="10.00">vector&lt; Cone &gt;</text>
<text text-anchor="start" x="956.86" y="-419.25" font-family="Helvetica,sans-Serif" font-size="10.00"> </text>
<text text-anchor="start" x="956.86" y="-403.25" font-family="Helvetica,sans-Serif" font-size="10.00"> </text>
<polygon fill="#666666" stroke="#666666" points="914.36,-430.75 914.36,-430.75 1002.36,-430.75 1002.36,-430.75 914.36,-430.75"/>
<polygon fill="#666666" stroke="#666666" points="914.36,-414.75 914.36,-414.75 1002.36,-414.75 1002.36,-414.75 914.36,-414.75"/>
<polygon fill="none" stroke="#666666" points="914.36,-396.75 914.36,-448.75 1002.36,-448.75 1002.36,-396.75 914.36,-396.75"/>
</a>
</g>
</g>
<!-- Node12&#45;&gt;Node1 -->
<g id="edge13_Node000001_Node000012" class="edge">
<title>Node12&#45;&gt;Node1</title>
<g id="a_edge13_Node000001_Node000012"><a xlink:title=" ">
<path fill="none" stroke="#63b8ff" d="M948.98,-396.8C940.14,-375.76 925.28,-345.79 905.36,-324.75 837.41,-253 735.97,-197.92 670.23,-166.99"/>
<polygon fill="none" stroke="#63b8ff" points="670.5,-167.11 663.37,-168.21 659.61,-162.06 666.74,-160.96 670.5,-167.11"/>
</a>
</g>
<text text-anchor="middle" x="904.61" y="-297.25" font-family="Helvetica,sans-Serif" font-size="10.00" fill="grey"> &#45;_cones</text>
</g>
</g>
</svg>
