<?xml version="1.0" encoding="UTF-8" standalone="no"?>
<!DOCTYPE svg PUBLIC "-//W3C//DTD SVG 1.1//EN"
 "http://www.w3.org/Graphics/SVG/1.1/DTD/svg11.dtd">
<!-- Generated by graphviz version 8.1.0 (20230707.0739)
 -->
<!-- Title: raytracer::Factory Pages: 1 -->
<svg width="316pt" height="254pt"
 viewBox="0.00 0.00 315.50 253.75" xmlns="http://www.w3.org/2000/svg" xmlns:xlink="http://www.w3.org/1999/xlink">
<g id="graph0" class="graph" transform="scale(1 1) rotate(0) translate(4 249.75)">
<title>raytracer::Factory</title>
<!-- Node1 -->
<g id="Node000001" class="node">
<title>Node1</title>
<g id="a_Node000001"><a xlink:title="Gère la création d&#39;objets (primitives et lumières) dans le moteur de raytracing.">
<polygon fill="#999999" stroke="none" points="206.5,-132 97.5,-132 97.5,0 206.5,0 206.5,-132"/>
<text text-anchor="start" x="109.25" y="-118.5" font-family="Helvetica,sans-Serif" font-size="10.00">raytracer::Factory</text>
<text text-anchor="start" x="150.5" y="-102.5" font-family="Helvetica,sans-Serif" font-size="10.00"> </text>
<text text-anchor="start" x="101.38" y="-86.5" font-family="Helvetica,sans-Serif" font-size="10.00">+</text>
<text text-anchor="start" x="113.5" y="-86.5" font-family="Helvetica,sans-Serif" font-size="10.00">Factory()</text>
<text text-anchor="start" x="101.38" y="-70.5" font-family="Helvetica,sans-Serif" font-size="10.00">+</text>
<text text-anchor="start" x="113.5" y="-70.5" font-family="Helvetica,sans-Serif" font-size="10.00">~Factory()</text>
<text text-anchor="start" x="101.38" y="-54.5" font-family="Helvetica,sans-Serif" font-size="10.00">+</text>
<text text-anchor="start" x="113.5" y="-54.5" font-family="Helvetica,sans-Serif" font-size="10.00">registerPrimitive()</text>
<text text-anchor="start" x="101.38" y="-38.5" font-family="Helvetica,sans-Serif" font-size="10.00">+</text>
<text text-anchor="start" x="113.5" y="-38.5" font-family="Helvetica,sans-Serif" font-size="10.00">registerLight()</text>
<text text-anchor="start" x="101.38" y="-22.5" font-family="Helvetica,sans-Serif" font-size="10.00">+</text>
<text text-anchor="start" x="113.5" y="-22.5" font-family="Helvetica,sans-Serif" font-size="10.00">createPrimitive()</text>
<text text-anchor="start" x="101.38" y="-6.5" font-family="Helvetica,sans-Serif" font-size="10.00">+</text>
<text text-anchor="start" x="113.5" y="-6.5" font-family="Helvetica,sans-Serif" font-size="10.00">createLight()</text>
<polygon fill="#666666" stroke="#666666" points="97.5,-114 97.5,-114 206.5,-114 206.5,-114 97.5,-114"/>
<polygon fill="#666666" stroke="#666666" points="97.5,-98 97.5,-98 206.5,-98 206.5,-98 97.5,-98"/>
<polygon fill="none" stroke="#666666" points="97.5,0 97.5,-132 206.5,-132 206.5,0 97.5,0"/>
</a>
</g>
</g>
<!-- Node2 -->
<g id="Node000002" class="node">
<title>Node2</title>
<g id="a_Node000002"><a xlink:title=" ">
<polygon fill="white" stroke="none" points="142,-245.75 0,-245.75 0,-180.75 142,-180.75 142,-245.75"/>
<text text-anchor="start" x="5" y="-232.25" font-family="Helvetica,sans-Serif" font-size="10.00">unordered_map&lt; Primitive</text>
<text text-anchor="start" x="8.38" y="-219.5" font-family="Helvetica,sans-Serif" font-size="10.00">Type, CreatorPrimitives &gt;</text>
<text text-anchor="start" x="69.5" y="-203.25" font-family="Helvetica,sans-Serif" font-size="10.00"> </text>
<text text-anchor="start" x="69.5" y="-187.25" font-family="Helvetica,sans-Serif" font-size="10.00"> </text>
<polygon fill="#666666" stroke="#666666" points="0,-214.75 0,-214.75 142,-214.75 142,-214.75 0,-214.75"/>
<polygon fill="#666666" stroke="#666666" points="0,-198.75 0,-198.75 142,-198.75 142,-198.75 0,-198.75"/>
<polygon fill="none" stroke="#666666" points="0,-180.75 0,-245.75 142,-245.75 142,-180.75 0,-180.75"/>
</a>
</g>
</g>
<!-- Node2&#45;&gt;Node1 -->
<g id="edge1_Node000001_Node000002" class="edge">
<title>Node2&#45;&gt;Node1</title>
<g id="a_edge1_Node000001_Node000002"><a xlink:title=" ">
<path fill="none" stroke="#63b8ff" d="M87.87,-180.83C93.22,-170.94 99.2,-159.99 104.75,-150 106.04,-147.68 107.35,-145.32 108.68,-142.95"/>
<polygon fill="none" stroke="#63b8ff" points="108.67,-142.97 108.12,-135.78 114.54,-132.51 115.09,-139.7 108.67,-142.97"/>
</a>
</g>
<text text-anchor="middle" x="157.62" y="-153.25" font-family="Helvetica,sans-Serif" font-size="10.00" fill="grey"> &#45;mCreatorsPrimitives</text>
</g>
<!-- Node3 -->
<g id="Node000003" class="node">
<title>Node3</title>
<g id="a_Node000003"><a xlink:title=" ">
<polygon fill="white" stroke="none" points="307.5,-245.75 160.5,-245.75 160.5,-180.75 307.5,-180.75 307.5,-245.75"/>
<text text-anchor="start" x="165.38" y="-232.25" font-family="Helvetica,sans-Serif" font-size="10.00">unordered_map&lt; LightType,</text>
<text text-anchor="start" x="194.25" y="-219.5" font-family="Helvetica,sans-Serif" font-size="10.00"> CreatorLights &gt;</text>
<text text-anchor="start" x="232.5" y="-203.25" font-family="Helvetica,sans-Serif" font-size="10.00"> </text>
<text text-anchor="start" x="232.5" y="-187.25" font-family="Helvetica,sans-Serif" font-size="10.00"> </text>
<polygon fill="#666666" stroke="#666666" points="160.5,-214.75 160.5,-214.75 307.5,-214.75 307.5,-214.75 160.5,-214.75"/>
<polygon fill="#666666" stroke="#666666" points="160.5,-198.75 160.5,-198.75 307.5,-198.75 307.5,-198.75 160.5,-198.75"/>
<polygon fill="none" stroke="#666666" points="160.5,-180.75 160.5,-245.75 307.5,-245.75 307.5,-180.75 160.5,-180.75"/>
</a>
</g>
</g>
<!-- Node3&#45;&gt;Node1 -->
<g id="edge2_Node000001_Node000003" class="edge">
<title>Node3&#45;&gt;Node1</title>
<g id="a_edge2_Node000001_Node000003"><a xlink:title=" ">
<path fill="none" stroke="#63b8ff" d="M224.84,-180.8C221.39,-170.7 217.06,-159.64 212,-150 210.69,-147.5 209.32,-145 207.89,-142.5"/>
<polygon fill="none" stroke="#63b8ff" points="207.96,-142.62 201.44,-139.54 201.77,-132.34 208.29,-135.42 207.96,-142.62"/>
</a>
</g>
<text text-anchor="middle" x="260.5" y="-153.25" font-family="Helvetica,sans-Serif" font-size="10.00" fill="grey"> &#45;mCreatorsLights</text>
</g>
</g>
</svg>
