<?xml version="1.0" encoding="UTF-8" standalone="no"?>
<!DOCTYPE svg PUBLIC "-//W3C//DTD SVG 1.1//EN"
 "http://www.w3.org/Graphics/SVG/1.1/DTD/svg11.dtd">
<!-- Generated by graphviz version 8.1.0 (20230707.0739)
 -->
<!-- Title: raytracer::Image Pages: 1 -->
<svg width="122pt" height="350pt"
 viewBox="0.00 0.00 122.00 349.75" xmlns="http://www.w3.org/2000/svg" xmlns:xlink="http://www.w3.org/1999/xlink">
<g id="graph0" class="graph" transform="scale(1 1) rotate(0) translate(4 345.75)">
<title>raytracer::Image</title>
<!-- Node1 -->
<g id="Node000001" class="node">
<title>Node1</title>
<g id="a_Node000001"><a xlink:title="Classe représentant une image 2D pouvant être affichée via SFML ou exportée en PPM.">
<polygon fill="#999999" stroke="none" points="111,-228 3,-228 3,0 111,0 111,-228"/>
<text text-anchor="start" x="16.5" y="-214.5" font-family="Helvetica,sans-Serif" font-size="10.00">raytracer::Image</text>
<text text-anchor="start" x="9.12" y="-198.5" font-family="Helvetica,sans-Serif" font-size="10.00">&#45;</text>
<text text-anchor="start" x="19" y="-198.5" font-family="Helvetica,sans-Serif" font-size="10.00">_width</text>
<text text-anchor="start" x="9.12" y="-182.5" font-family="Helvetica,sans-Serif" font-size="10.00">&#45;</text>
<text text-anchor="start" x="19" y="-182.5" font-family="Helvetica,sans-Serif" font-size="10.00">_height</text>
<text text-anchor="start" x="9.12" y="-166.5" font-family="Helvetica,sans-Serif" font-size="10.00">&#45;</text>
<text text-anchor="start" x="19" y="-166.5" font-family="Helvetica,sans-Serif" font-size="10.00">_window</text>
<text text-anchor="start" x="9.12" y="-150.5" font-family="Helvetica,sans-Serif" font-size="10.00">&#45;</text>
<text text-anchor="start" x="19" y="-150.5" font-family="Helvetica,sans-Serif" font-size="10.00">mTexture</text>
<text text-anchor="start" x="9.12" y="-134.5" font-family="Helvetica,sans-Serif" font-size="10.00">&#45;</text>
<text text-anchor="start" x="19" y="-134.5" font-family="Helvetica,sans-Serif" font-size="10.00">mSprite</text>
<text text-anchor="start" x="6.88" y="-118.5" font-family="Helvetica,sans-Serif" font-size="10.00">+</text>
<text text-anchor="start" x="19" y="-118.5" font-family="Helvetica,sans-Serif" font-size="10.00">Image()</text>
<text text-anchor="start" x="6.88" y="-102.5" font-family="Helvetica,sans-Serif" font-size="10.00">+</text>
<text text-anchor="start" x="19" y="-102.5" font-family="Helvetica,sans-Serif" font-size="10.00">~Image()</text>
<text text-anchor="start" x="6.88" y="-86.5" font-family="Helvetica,sans-Serif" font-size="10.00">+</text>
<text text-anchor="start" x="19" y="-86.5" font-family="Helvetica,sans-Serif" font-size="10.00">initializeWindow()</text>
<text text-anchor="start" x="6.88" y="-70.5" font-family="Helvetica,sans-Serif" font-size="10.00">+</text>
<text text-anchor="start" x="19" y="-70.5" font-family="Helvetica,sans-Serif" font-size="10.00">setPixel()</text>
<text text-anchor="start" x="6.88" y="-54.5" font-family="Helvetica,sans-Serif" font-size="10.00">+</text>
<text text-anchor="start" x="19" y="-54.5" font-family="Helvetica,sans-Serif" font-size="10.00">displayPPM()</text>
<text text-anchor="start" x="6.88" y="-38.5" font-family="Helvetica,sans-Serif" font-size="10.00">+</text>
<text text-anchor="start" x="19" y="-38.5" font-family="Helvetica,sans-Serif" font-size="10.00">displaySFML()</text>
<text text-anchor="start" x="6.88" y="-22.5" font-family="Helvetica,sans-Serif" font-size="10.00">+</text>
<text text-anchor="start" x="19" y="-22.5" font-family="Helvetica,sans-Serif" font-size="10.00">getWidth()</text>
<text text-anchor="start" x="6.88" y="-6.5" font-family="Helvetica,sans-Serif" font-size="10.00">+</text>
<text text-anchor="start" x="19" y="-6.5" font-family="Helvetica,sans-Serif" font-size="10.00">getHeight()</text>
<polygon fill="#666666" stroke="#666666" points="3,-210 3,-210 111,-210 111,-210 3,-210"/>
<polygon fill="#666666" stroke="#666666" points="3,-130 3,-130 17,-130 17,-130 3,-130"/>
<polygon fill="#666666" stroke="#666666" points="17,-130 17,-130 111,-130 111,-130 17,-130"/>
<polygon fill="none" stroke="#666666" points="3,0 3,-228 111,-228 111,0 3,0"/>
</a>
</g>
</g>
<!-- Node2 -->
<g id="Node000002" class="node">
<title>Node2</title>
<g id="a_Node000002"><a xlink:title=" ">
<polygon fill="white" stroke="none" points="114,-341.75 0,-341.75 0,-276.75 114,-276.75 114,-341.75"/>
<text text-anchor="start" x="4.88" y="-328.25" font-family="Helvetica,sans-Serif" font-size="10.00">map&lt; tuple&lt; int, int</text>
<text text-anchor="start" x="4.88" y="-315.5" font-family="Helvetica,sans-Serif" font-size="10.00"> &gt;, raytracer::Color &gt;</text>
<text text-anchor="start" x="55.5" y="-299.25" font-family="Helvetica,sans-Serif" font-size="10.00"> </text>
<text text-anchor="start" x="55.5" y="-283.25" font-family="Helvetica,sans-Serif" font-size="10.00"> </text>
<polygon fill="#666666" stroke="#666666" points="0,-310.75 0,-310.75 114,-310.75 114,-310.75 0,-310.75"/>
<polygon fill="#666666" stroke="#666666" points="0,-294.75 0,-294.75 114,-294.75 114,-294.75 0,-294.75"/>
<polygon fill="none" stroke="#666666" points="0,-276.75 0,-341.75 114,-341.75 114,-276.75 0,-276.75"/>
</a>
</g>
</g>
<!-- Node2&#45;&gt;Node1 -->
<g id="edge1_Node000001_Node000002" class="edge">
<title>Node2&#45;&gt;Node1</title>
<g id="a_edge1_Node000001_Node000002"><a xlink:title=" ">
<path fill="none" stroke="#63b8ff" d="M57,-276.77C57,-266.32 57,-253.96 57,-240.8"/>
<polygon fill="none" stroke="#63b8ff" points="57,-240.88 53,-234.88 57,-228.88 61,-234.88 57,-240.88"/>
</a>
</g>
<text text-anchor="middle" x="77.25" y="-249.25" font-family="Helvetica,sans-Serif" font-size="10.00" fill="grey"> &#45;_pixels</text>
</g>
</g>
</svg>
