<?xml version="1.0" encoding="UTF-8" standalone="no"?>
<!DOCTYPE svg PUBLIC "-//W3C//DTD SVG 1.1//EN"
 "http://www.w3.org/Graphics/SVG/1.1/DTD/svg11.dtd">
<!-- Generated by graphviz version 8.1.0 (20230707.0739)
 -->
<!-- Title: raytracer::Rectangle3D Pages: 1 -->
<svg width="210pt" height="430pt"
 viewBox="0.00 0.00 210.00 429.50" xmlns="http://www.w3.org/2000/svg" xmlns:xlink="http://www.w3.org/1999/xlink">
<g id="graph0" class="graph" transform="scale(1 1) rotate(0) translate(4 425.5)">
<title>raytracer::Rectangle3D</title>
<!-- Node1 -->
<g id="Node000001" class="node">
<title>Node1</title>
<g id="a_Node000001"><a xlink:title=" ">
<polygon fill="#999999" stroke="none" points="154.5,-100 32.5,-100 32.5,0 154.5,0 154.5,-100"/>
<text text-anchor="start" x="37.25" y="-86.5" font-family="Helvetica,sans-Serif" font-size="10.00">raytracer::Rectangle3D</text>
<text text-anchor="start" x="92" y="-70.5" font-family="Helvetica,sans-Serif" font-size="10.00"> </text>
<text text-anchor="start" x="42.38" y="-54.5" font-family="Helvetica,sans-Serif" font-size="10.00">+</text>
<text text-anchor="start" x="60.5" y="-54.5" font-family="Helvetica,sans-Serif" font-size="10.00">Rectangle3D()</text>
<text text-anchor="start" x="42.38" y="-38.5" font-family="Helvetica,sans-Serif" font-size="10.00">+</text>
<text text-anchor="start" x="60.5" y="-38.5" font-family="Helvetica,sans-Serif" font-size="10.00">Rectangle3D()</text>
<text text-anchor="start" x="42.38" y="-22.5" font-family="Helvetica,sans-Serif" font-size="10.00">+</text>
<text text-anchor="start" x="60.5" y="-22.5" font-family="Helvetica,sans-Serif" font-size="10.00">~Rectangle3D()</text>
<text text-anchor="start" x="42.38" y="-6.5" font-family="Helvetica,sans-Serif" font-size="10.00">+</text>
<text text-anchor="start" x="60.5" y="-6.5" font-family="Helvetica,sans-Serif" font-size="10.00">pointAt()</text>
<polygon fill="#666666" stroke="#666666" points="32.5,-82 32.5,-82 154.5,-82 154.5,-82 32.5,-82"/>
<polygon fill="#666666" stroke="#666666" points="32.5,-66 32.5,-66 154.5,-66 154.5,-66 32.5,-66"/>
<polygon fill="none" stroke="#666666" points="32.5,0 32.5,-100 154.5,-100 154.5,0 32.5,0"/>
</a>
</g>
</g>
<!-- Node2 -->
<g id="Node000002" class="node">
<title>Node2</title>
<g id="a_Node000002"><a xlink:href="classmath_1_1Point3D.html" target="_top" xlink:title="Représente un point 3D. Peut interagir avec Vector3D.">
<polygon fill="white" stroke="none" points="85,-389.5 0,-389.5 0,-193.5 85,-193.5 85,-389.5"/>
<text text-anchor="start" x="7.62" y="-376" font-family="Helvetica,sans-Serif" font-size="10.00">math::Point3D</text>
<text text-anchor="start" x="3.88" y="-360" font-family="Helvetica,sans-Serif" font-size="10.00">+</text>
<text text-anchor="start" x="16" y="-360" font-family="Helvetica,sans-Serif" font-size="10.00">mX</text>
<text text-anchor="start" x="3.88" y="-344" font-family="Helvetica,sans-Serif" font-size="10.00">+</text>
<text text-anchor="start" x="16" y="-344" font-family="Helvetica,sans-Serif" font-size="10.00">mY</text>
<text text-anchor="start" x="3.88" y="-328" font-family="Helvetica,sans-Serif" font-size="10.00">+</text>
<text text-anchor="start" x="16" y="-328" font-family="Helvetica,sans-Serif" font-size="10.00">mZ</text>
<text text-anchor="start" x="3.88" y="-312" font-family="Helvetica,sans-Serif" font-size="10.00">+</text>
<text text-anchor="start" x="16" y="-312" font-family="Helvetica,sans-Serif" font-size="10.00">Point3D()</text>
<text text-anchor="start" x="3.88" y="-296" font-family="Helvetica,sans-Serif" font-size="10.00">+</text>
<text text-anchor="start" x="16" y="-296" font-family="Helvetica,sans-Serif" font-size="10.00">Point3D()</text>
<text text-anchor="start" x="3.88" y="-280" font-family="Helvetica,sans-Serif" font-size="10.00">+</text>
<text text-anchor="start" x="16" y="-280" font-family="Helvetica,sans-Serif" font-size="10.00">~Point3D()</text>
<text text-anchor="start" x="3.88" y="-264" font-family="Helvetica,sans-Serif" font-size="10.00">+</text>
<text text-anchor="start" x="16" y="-264" font-family="Helvetica,sans-Serif" font-size="10.00">operator+()</text>
<text text-anchor="start" x="3.88" y="-248" font-family="Helvetica,sans-Serif" font-size="10.00">+</text>
<text text-anchor="start" x="16" y="-248" font-family="Helvetica,sans-Serif" font-size="10.00">operator+()</text>
<text text-anchor="start" x="3.88" y="-232" font-family="Helvetica,sans-Serif" font-size="10.00">+</text>
<text text-anchor="start" x="16" y="-232" font-family="Helvetica,sans-Serif" font-size="10.00">operator+=()</text>
<text text-anchor="start" x="3.88" y="-216" font-family="Helvetica,sans-Serif" font-size="10.00">+</text>
<text text-anchor="start" x="16" y="-216" font-family="Helvetica,sans-Serif" font-size="10.00">operator&#45;()</text>
<text text-anchor="start" x="3.88" y="-200" font-family="Helvetica,sans-Serif" font-size="10.00">+</text>
<text text-anchor="start" x="16" y="-200" font-family="Helvetica,sans-Serif" font-size="10.00">operator&#45;()</text>
<polygon fill="#666666" stroke="#666666" points="0,-371.5 0,-371.5 85,-371.5 85,-371.5 0,-371.5"/>
<polygon fill="#666666" stroke="#666666" points="0,-323.5 0,-323.5 14,-323.5 14,-323.5 0,-323.5"/>
<polygon fill="#666666" stroke="#666666" points="14,-323.5 14,-323.5 85,-323.5 85,-323.5 14,-323.5"/>
<polygon fill="none" stroke="#666666" points="0,-193.5 0,-389.5 85,-389.5 85,-193.5 0,-193.5"/>
</a>
</g>
</g>
<!-- Node2&#45;&gt;Node1 -->
<g id="edge1_Node000001_Node000002" class="edge">
<title>Node2&#45;&gt;Node1</title>
<g id="a_edge1_Node000001_Node000002"><a xlink:title=" ">
<path fill="none" stroke="#63b8ff" d="M61.76,-193.69C66.82,-168.98 72.37,-142.48 77.75,-118 78.15,-116.18 78.56,-114.33 78.98,-112.46"/>
<polygon fill="none" stroke="#63b8ff" points="78.95,-112.58 76.38,-105.84 81.61,-100.87 84.18,-107.61 78.95,-112.58"/>
</a>
</g>
<text text-anchor="middle" x="100.38" y="-127.62" font-family="Helvetica,sans-Serif" font-size="10.00" fill="grey"> &#45;mOrigin</text>
</g>
<!-- Node3 -->
<g id="Node000003" class="node">
<title>Node3</title>
<g id="a_Node000003"><a xlink:href="classmath_1_1Vector3D.html" target="_top" xlink:title="Représente un vecteur 3D avec des opérations vectorielles de base.">
<polygon fill="white" stroke="none" points="188,-421.5 103,-421.5 103,-161.5 188,-161.5 188,-421.5"/>
<text text-anchor="start" x="107.62" y="-408" font-family="Helvetica,sans-Serif" font-size="10.00">math::Vector3D</text>
<text text-anchor="start" x="106.88" y="-392" font-family="Helvetica,sans-Serif" font-size="10.00">+</text>
<text text-anchor="start" x="119" y="-392" font-family="Helvetica,sans-Serif" font-size="10.00">mX</text>
<text text-anchor="start" x="106.88" y="-376" font-family="Helvetica,sans-Serif" font-size="10.00">+</text>
<text text-anchor="start" x="119" y="-376" font-family="Helvetica,sans-Serif" font-size="10.00">mY</text>
<text text-anchor="start" x="106.88" y="-360" font-family="Helvetica,sans-Serif" font-size="10.00">+</text>
<text text-anchor="start" x="119" y="-360" font-family="Helvetica,sans-Serif" font-size="10.00">mZ</text>
<text text-anchor="start" x="106.88" y="-344" font-family="Helvetica,sans-Serif" font-size="10.00">+</text>
<text text-anchor="start" x="119" y="-344" font-family="Helvetica,sans-Serif" font-size="10.00">Vector3D()</text>
<text text-anchor="start" x="106.88" y="-328" font-family="Helvetica,sans-Serif" font-size="10.00">+</text>
<text text-anchor="start" x="119" y="-328" font-family="Helvetica,sans-Serif" font-size="10.00">Vector3D()</text>
<text text-anchor="start" x="106.88" y="-312" font-family="Helvetica,sans-Serif" font-size="10.00">+</text>
<text text-anchor="start" x="119" y="-312" font-family="Helvetica,sans-Serif" font-size="10.00">~Vector3D()</text>
<text text-anchor="start" x="106.88" y="-296" font-family="Helvetica,sans-Serif" font-size="10.00">+</text>
<text text-anchor="start" x="119" y="-296" font-family="Helvetica,sans-Serif" font-size="10.00">length()</text>
<text text-anchor="start" x="106.88" y="-280" font-family="Helvetica,sans-Serif" font-size="10.00">+</text>
<text text-anchor="start" x="119" y="-280" font-family="Helvetica,sans-Serif" font-size="10.00">dot()</text>
<text text-anchor="start" x="106.88" y="-264" font-family="Helvetica,sans-Serif" font-size="10.00">+</text>
<text text-anchor="start" x="119" y="-264" font-family="Helvetica,sans-Serif" font-size="10.00">operator+()</text>
<text text-anchor="start" x="106.88" y="-248" font-family="Helvetica,sans-Serif" font-size="10.00">+</text>
<text text-anchor="start" x="119" y="-248" font-family="Helvetica,sans-Serif" font-size="10.00">operator+=()</text>
<text text-anchor="start" x="106.88" y="-232" font-family="Helvetica,sans-Serif" font-size="10.00">+</text>
<text text-anchor="start" x="119" y="-232" font-family="Helvetica,sans-Serif" font-size="10.00">operator&#45;()</text>
<text text-anchor="start" x="106.88" y="-216" font-family="Helvetica,sans-Serif" font-size="10.00">+</text>
<text text-anchor="start" x="119" y="-216" font-family="Helvetica,sans-Serif" font-size="10.00">operator&#45;=()</text>
<text text-anchor="start" x="106.88" y="-200" font-family="Helvetica,sans-Serif" font-size="10.00">+</text>
<text text-anchor="start" x="119" y="-200" font-family="Helvetica,sans-Serif" font-size="10.00">operator*()</text>
<text text-anchor="start" x="119" y="-184" font-family="Helvetica,sans-Serif" font-size="10.00">and 9 more...</text>
<text text-anchor="start" x="106.88" y="-168" font-family="Helvetica,sans-Serif" font-size="10.00">+</text>
<text text-anchor="start" x="119" y="-168" font-family="Helvetica,sans-Serif" font-size="10.00">normalize()</text>
<polygon fill="#666666" stroke="#666666" points="103,-403.5 103,-403.5 188,-403.5 188,-403.5 103,-403.5"/>
<polygon fill="#666666" stroke="#666666" points="103,-355.5 103,-355.5 117,-355.5 117,-355.5 103,-355.5"/>
<polygon fill="#666666" stroke="#666666" points="117,-355.5 117,-355.5 188,-355.5 188,-355.5 117,-355.5"/>
<polygon fill="none" stroke="#666666" points="103,-161.5 103,-421.5 188,-421.5 188,-161.5 103,-161.5"/>
</a>
</g>
</g>
<!-- Node3&#45;&gt;Node1 -->
<g id="edge2_Node000001_Node000003" class="edge">
<title>Node3&#45;&gt;Node1</title>
<g id="a_edge2_Node000001_Node000003"><a xlink:title=" ">
<path fill="none" stroke="#63b8ff" d="M133.29,-161.55C130.64,-146.74 127.42,-131.95 123.5,-118 122.95,-116.03 122.34,-114.04 121.7,-112.04"/>
<polygon fill="none" stroke="#63b8ff" points="121.66,-111.93 115.87,-107.63 117.61,-100.63 123.4,-104.93 121.66,-111.93"/>
</a>
</g>
<text text-anchor="middle" x="165.25" y="-134" font-family="Helvetica,sans-Serif" font-size="10.00" fill="grey"> &#45;mBottomSide</text>
<text text-anchor="middle" x="165.25" y="-121.25" font-family="Helvetica,sans-Serif" font-size="10.00" fill="grey">&#45;mLeftSide</text>
</g>
</g>
</svg>
