<?xml version="1.0" encoding="UTF-8" standalone="no"?>
<!DOCTYPE svg PUBLIC "-//W3C//DTD SVG 1.1//EN"
 "http://www.w3.org/Graphics/SVG/1.1/DTD/svg11.dtd">
<!-- Generated by graphviz version 8.1.0 (20230707.0739)
 -->
<!-- Title: src/core/helpers/Color.cpp Pages: 1 -->
<svg width="149pt" height="142pt"
 viewBox="0.00 0.00 149.25 142.25" xmlns="http://www.w3.org/2000/svg" xmlns:xlink="http://www.w3.org/1999/xlink">
<g id="graph0" class="graph" transform="scale(1 1) rotate(0) translate(4 138.25)">
<title>src/core/helpers/Color.cpp</title>
<!-- Node1 -->
<g id="Node000001" class="node">
<title>Node1</title>
<g id="a_Node000001"><a xlink:title=" ">
<polygon fill="#999999" stroke="#666666" points="141.25,-134.25 0,-134.25 0,-113.5 141.25,-113.5 141.25,-134.25"/>
<text text-anchor="middle" x="70.62" y="-120.75" font-family="Helvetica,sans-Serif" font-size="10.00">src/core/helpers/Color.cpp</text>
</a>
</g>
</g>
<!-- Node2 -->
<g id="Node000002" class="node">
<title>Node2</title>
<g id="a_Node000002"><a xlink:href="Color_8hpp.html" target="_top" xlink:title=" ">
<polygon fill="white" stroke="#666666" points="101.5,-77.5 39.75,-77.5 39.75,-56.75 101.5,-56.75 101.5,-77.5"/>
<text text-anchor="middle" x="70.62" y="-64" font-family="Helvetica,sans-Serif" font-size="10.00">Color.hpp</text>
</a>
</g>
</g>
<!-- Node1&#45;&gt;Node2 -->
<g id="edge1_Node000001_Node000002" class="edge">
<title>Node1&#45;&gt;Node2</title>
<g id="a_edge1_Node000001_Node000002"><a xlink:title=" ">
<path fill="none" stroke="#63b8ff" d="M70.62,-113.09C70.62,-106.31 70.62,-97.05 70.62,-88.69"/>
<polygon fill="#63b8ff" stroke="#63b8ff" points="74.13,-88.83 70.62,-78.83 67.13,-88.83 74.13,-88.83"/>
</a>
</g>
</g>
<!-- Node3 -->
<g id="Node000003" class="node">
<title>Node3</title>
<g id="a_Node000003"><a xlink:title=" ">
<polygon fill="#e0e0e0" stroke="#999999" points="100.38,-20.75 40.88,-20.75 40.88,0 100.38,0 100.38,-20.75"/>
<text text-anchor="middle" x="70.62" y="-7.25" font-family="Helvetica,sans-Serif" font-size="10.00">iostream</text>
</a>
</g>
</g>
<!-- Node2&#45;&gt;Node3 -->
<g id="edge2_Node000002_Node000003" class="edge">
<title>Node2&#45;&gt;Node3</title>
<g id="a_edge2_Node000002_Node000003"><a xlink:title=" ">
<path fill="none" stroke="#63b8ff" d="M70.62,-56.34C70.62,-49.56 70.62,-40.3 70.62,-31.94"/>
<polygon fill="#63b8ff" stroke="#63b8ff" points="74.13,-32.08 70.62,-22.08 67.13,-32.08 74.13,-32.08"/>
</a>
</g>
</g>
</g>
</svg>
