<?xml version="1.0" encoding="UTF-8" standalone="no"?>
<!DOCTYPE svg PUBLIC "-//W3C//DTD SVG 1.1//EN"
 "http://www.w3.org/Graphics/SVG/1.1/DTD/svg11.dtd">
<!-- Generated by graphviz version 8.1.0 (20230707.0739)
 -->
<!-- Title: src/core/helpers/Color.hpp Pages: 1 -->
<svg width="1753pt" height="464pt"
 viewBox="0.00 0.00 1753.00 464.25" xmlns="http://www.w3.org/2000/svg" xmlns:xlink="http://www.w3.org/1999/xlink">
<g id="graph0" class="graph" transform="scale(1 1) rotate(0) translate(4 460.25)">
<title>src/core/helpers/Color.hpp</title>
<!-- Node1 -->
<g id="Node000001" class="node">
<title>Node1</title>
<g id="a_Node000001"><a xlink:title=" ">
<polygon fill="#999999" stroke="#666666" points="278.62,-456.25 136.62,-456.25 136.62,-435.5 278.62,-435.5 278.62,-456.25"/>
<text text-anchor="middle" x="207.62" y="-442.75" font-family="Helvetica,sans-Serif" font-size="10.00">src/core/helpers/Color.hpp</text>
</a>
</g>
</g>
<!-- Node2 -->
<g id="Node000002" class="node">
<title>Node2</title>
<g id="a_Node000002"><a xlink:href="Color_8cpp.html" target="_top" xlink:title=" ">
<polygon fill="white" stroke="#666666" points="141.25,-399.5 0,-399.5 0,-378.75 141.25,-378.75 141.25,-399.5"/>
<text text-anchor="middle" x="70.62" y="-386" font-family="Helvetica,sans-Serif" font-size="10.00">src/core/helpers/Color.cpp</text>
</a>
</g>
</g>
<!-- Node1&#45;&gt;Node2 -->
<g id="edge1_Node000001_Node000002" class="edge">
<title>Node1&#45;&gt;Node2</title>
<g id="a_edge1_Node000001_Node000002"><a xlink:title=" ">
<path fill="none" stroke="#63b8ff" d="M173.2,-431.12C148.8,-421.37 116.66,-408.52 94.91,-399.83"/>
<polygon fill="#63b8ff" stroke="#63b8ff" points="171.55,-434.63 182.13,-435.09 174.15,-428.13 171.55,-434.63"/>
</a>
</g>
</g>
<!-- Node3 -->
<g id="Node000003" class="node">
<title>Node3</title>
<g id="a_Node000003"><a xlink:href="Image_8hpp.html" target="_top" xlink:title=" ">
<polygon fill="white" stroke="#666666" points="179.88,-210.12 39.38,-210.12 39.38,-189.38 179.88,-189.38 179.88,-210.12"/>
<text text-anchor="middle" x="109.62" y="-196.62" font-family="Helvetica,sans-Serif" font-size="10.00">src/core/scene/Image.hpp</text>
</a>
</g>
</g>
<!-- Node1&#45;&gt;Node3 -->
<g id="edge2_Node000001_Node000003" class="edge">
<title>Node1&#45;&gt;Node3</title>
<g id="a_edge2_Node000001_Node000003"><a xlink:title=" ">
<path fill="none" stroke="#63b8ff" d="M199.59,-424.87C179.59,-375.04 128.12,-246.81 113.53,-210.48"/>
<polygon fill="#63b8ff" stroke="#63b8ff" points="196.69,-426.03 203.66,-434 203.18,-423.42 196.69,-426.03"/>
</a>
</g>
</g>
<!-- Node8 -->
<g id="Node000008" class="node">
<title>Node8</title>
<g id="a_Node000008"><a xlink:href="src_2core_2scene_2Scene_8hpp.html" target="_top" xlink:title=" ">
<polygon fill="white" stroke="#666666" points="482.12,-140.62 343.12,-140.62 343.12,-119.88 482.12,-119.88 482.12,-140.62"/>
<text text-anchor="middle" x="412.62" y="-127.12" font-family="Helvetica,sans-Serif" font-size="10.00">src/core/scene/Scene.hpp</text>
</a>
</g>
</g>
<!-- Node1&#45;&gt;Node8 -->
<g id="edge11_Node000001_Node000008" class="edge">
<title>Node1&#45;&gt;Node8</title>
<g id="a_edge11_Node000001_Node000008"><a xlink:title=" ">
<path fill="none" stroke="#63b8ff" d="M207.62,-424.2C207.62,-401.81 207.62,-365.06 207.62,-333.38 207.62,-333.38 207.62,-333.38 207.62,-268.25 207.62,-229.33 200.69,-211.1 227.62,-183 245.05,-164.82 306.28,-150.08 353.58,-141.05"/>
<polygon fill="#63b8ff" stroke="#63b8ff" points="204.13,-424.03 207.62,-434.03 211.13,-424.03 204.13,-424.03"/>
</a>
</g>
</g>
<!-- Node10 -->
<g id="Node000010" class="node">
<title>Node10</title>
<g id="a_Node000010"><a xlink:href="ILight_8hpp.html" target="_top" xlink:title=" ">
<polygon fill="white" stroke="#666666" points="562.25,-342.75 451,-342.75 451,-322 562.25,-322 562.25,-342.75"/>
<text text-anchor="middle" x="506.62" y="-329.25" font-family="Helvetica,sans-Serif" font-size="10.00">src/lights/ILight.hpp</text>
</a>
</g>
</g>
<!-- Node1&#45;&gt;Node10 -->
<g id="edge12_Node000001_Node000010" class="edge">
<title>Node1&#45;&gt;Node10</title>
<g id="a_edge12_Node000001_Node000010"><a xlink:title=" ">
<path fill="none" stroke="#63b8ff" d="M243.86,-431.36C304.97,-408.57 427.05,-363.05 480.52,-343.11"/>
<polygon fill="#63b8ff" stroke="#63b8ff" points="243.04,-428.3 234.9,-435.08 245.49,-434.86 243.04,-428.3"/>
</a>
</g>
</g>
<!-- Node20 -->
<g id="Node000020" class="node">
<title>Node20</title>
<g id="a_Node000020"><a xlink:href="IPrimitive_8hpp.html" target="_top" xlink:title=" ">
<polygon fill="white" stroke="#666666" points="861.62,-399.5 707.62,-399.5 707.62,-378.75 861.62,-378.75 861.62,-399.5"/>
<text text-anchor="middle" x="784.62" y="-386" font-family="Helvetica,sans-Serif" font-size="10.00">src/primitives/IPrimitive.hpp</text>
</a>
</g>
</g>
<!-- Node1&#45;&gt;Node20 -->
<g id="edge30_Node000001_Node000020" class="edge">
<title>Node1&#45;&gt;Node20</title>
<g id="a_edge30_Node000001_Node000020"><a xlink:title=" ">
<path fill="none" stroke="#63b8ff" d="M289.79,-437.08C401.21,-426.51 598.74,-407.76 707.49,-397.44"/>
<polygon fill="#63b8ff" stroke="#63b8ff" points="289.58,-433.68 279.96,-438.11 290.24,-440.65 289.58,-433.68"/>
</a>
</g>
</g>
<!-- Node4 -->
<g id="Node000004" class="node">
<title>Node4</title>
<g id="a_Node000004"><a xlink:href="RayTracer_8hpp.html" target="_top" xlink:title=" ">
<polygon fill="white" stroke="#666666" points="475.38,-77.5 349.88,-77.5 349.88,-56.75 475.38,-56.75 475.38,-77.5"/>
<text text-anchor="middle" x="412.62" y="-64" font-family="Helvetica,sans-Serif" font-size="10.00">src/core/RayTracer.hpp</text>
</a>
</g>
</g>
<!-- Node3&#45;&gt;Node4 -->
<g id="edge3_Node000003_Node000004" class="edge">
<title>Node3&#45;&gt;Node4</title>
<g id="a_edge3_Node000003_Node000004"><a xlink:title=" ">
<path fill="none" stroke="#63b8ff" d="M131.94,-182.92C159.27,-164.15 207.51,-132.94 252.62,-113.5 289.48,-97.61 333.48,-85.6 366.01,-77.94"/>
<polygon fill="#63b8ff" stroke="#63b8ff" points="130.4,-180.43 124.18,-189.01 134.39,-186.18 130.4,-180.43"/>
</a>
</g>
</g>
<!-- Node7 -->
<g id="Node000007" class="node">
<title>Node7</title>
<g id="a_Node000007"><a xlink:href="Image_8cpp.html" target="_top" xlink:title="Implémentation des méthodes de la classe Image pour gestion d&#39;image et affichage.">
<polygon fill="white" stroke="#666666" points="633.5,-77.5 493.75,-77.5 493.75,-56.75 633.5,-56.75 633.5,-77.5"/>
<text text-anchor="middle" x="563.62" y="-64" font-family="Helvetica,sans-Serif" font-size="10.00">src/core/scene/Image.cpp</text>
</a>
</g>
</g>
<!-- Node3&#45;&gt;Node7 -->
<g id="edge6_Node000003_Node000007" class="edge">
<title>Node3&#45;&gt;Node7</title>
<g id="a_edge6_Node000003_Node000007"><a xlink:title=" ">
<path fill="none" stroke="#63b8ff" d="M144.05,-184.9C197.37,-163.59 297.64,-124.09 334.62,-113.5 389.37,-97.82 453,-85.69 499.27,-77.93"/>
<polygon fill="#63b8ff" stroke="#63b8ff" points="143.03,-181.94 135.04,-188.91 145.63,-188.44 143.03,-181.94"/>
</a>
</g>
</g>
<!-- Node3&#45;&gt;Node8 -->
<g id="edge7_Node000003_Node000008" class="edge">
<title>Node3&#45;&gt;Node8</title>
<g id="a_edge7_Node000003_Node000008"><a xlink:title=" ">
<path fill="none" stroke="#63b8ff" d="M164.2,-186.59C222.69,-173.56 314.41,-153.13 368.51,-141.08"/>
<polygon fill="#63b8ff" stroke="#63b8ff" points="163.68,-183.34 154.68,-188.93 165.21,-190.18 163.68,-183.34"/>
</a>
</g>
</g>
<!-- Node5 -->
<g id="Node000005" class="node">
<title>Node5</title>
<g id="a_Node000005"><a xlink:href="Main_8cpp.html" target="_top" xlink:title=" ">
<polygon fill="white" stroke="#666666" points="397.38,-20.75 295.88,-20.75 295.88,0 397.38,0 397.38,-20.75"/>
<text text-anchor="middle" x="346.62" y="-7.25" font-family="Helvetica,sans-Serif" font-size="10.00">src/core/Main.cpp</text>
</a>
</g>
</g>
<!-- Node4&#45;&gt;Node5 -->
<g id="edge4_Node000004_Node000005" class="edge">
<title>Node4&#45;&gt;Node5</title>
<g id="a_edge4_Node000004_Node000005"><a xlink:title=" ">
<path fill="none" stroke="#63b8ff" d="M392.48,-49.41C381.29,-40.13 367.77,-28.92 358.32,-21.08"/>
<polygon fill="#63b8ff" stroke="#63b8ff" points="389.89,-52.65 399.83,-56.34 394.36,-47.26 389.89,-52.65"/>
</a>
</g>
</g>
<!-- Node6 -->
<g id="Node000006" class="node">
<title>Node6</title>
<g id="a_Node000006"><a xlink:href="RayTracer_8cpp.html" target="_top" xlink:title=" ">
<polygon fill="white" stroke="#666666" points="540,-20.75 415.25,-20.75 415.25,0 540,0 540,-20.75"/>
<text text-anchor="middle" x="477.62" y="-7.25" font-family="Helvetica,sans-Serif" font-size="10.00">src/core/RayTracer.cpp</text>
</a>
</g>
</g>
<!-- Node4&#45;&gt;Node6 -->
<g id="edge5_Node000004_Node000006" class="edge">
<title>Node4&#45;&gt;Node6</title>
<g id="a_edge5_Node000004_Node000006"><a xlink:title=" ">
<path fill="none" stroke="#63b8ff" d="M432.47,-49.41C443.48,-40.13 456.8,-28.92 466.1,-21.08"/>
<polygon fill="#63b8ff" stroke="#63b8ff" points="430.64,-47.22 425.25,-56.34 435.15,-52.57 430.64,-47.22"/>
</a>
</g>
</g>
<!-- Node8&#45;&gt;Node4 -->
<g id="edge8_Node000008_Node000004" class="edge">
<title>Node8&#45;&gt;Node4</title>
<g id="a_edge8_Node000008_Node000004"><a xlink:title=" ">
<path fill="none" stroke="#63b8ff" d="M412.62,-108.66C412.62,-98.2 412.62,-85.99 412.62,-77.72"/>
<polygon fill="#63b8ff" stroke="#63b8ff" points="409.13,-108.43 412.62,-118.43 416.13,-108.43 409.13,-108.43"/>
</a>
</g>
</g>
<!-- Node8&#45;&gt;Node7 -->
<g id="edge9_Node000008_Node000007" class="edge">
<title>Node8&#45;&gt;Node7</title>
<g id="a_edge9_Node000008_Node000007"><a xlink:title=" ">
<path fill="none" stroke="#63b8ff" d="M446.73,-115.44C474.96,-104.02 514.35,-88.07 539.42,-77.92"/>
<polygon fill="#63b8ff" stroke="#63b8ff" points="445.84,-112.43 437.89,-119.43 448.47,-118.92 445.84,-112.43"/>
</a>
</g>
</g>
<!-- Node9 -->
<g id="Node000009" class="node">
<title>Node9</title>
<g id="a_Node000009"><a xlink:href="Scene_8cpp.html" target="_top" xlink:title=" ">
<polygon fill="white" stroke="#666666" points="331.75,-77.5 193.5,-77.5 193.5,-56.75 331.75,-56.75 331.75,-77.5"/>
<text text-anchor="middle" x="262.62" y="-64" font-family="Helvetica,sans-Serif" font-size="10.00">src/core/scene/Scene.cpp</text>
</a>
</g>
</g>
<!-- Node8&#45;&gt;Node9 -->
<g id="edge10_Node000008_Node000009" class="edge">
<title>Node8&#45;&gt;Node9</title>
<g id="a_edge10_Node000008_Node000009"><a xlink:title=" ">
<path fill="none" stroke="#63b8ff" d="M378.37,-115.29C350.36,-103.88 311.46,-88.03 286.67,-77.92"/>
<polygon fill="#63b8ff" stroke="#63b8ff" points="376.94,-118.9 387.52,-119.43 379.59,-112.41 376.94,-118.9"/>
</a>
</g>
</g>
<!-- Node11 -->
<g id="Node000011" class="node">
<title>Node11</title>
<g id="a_Node000011"><a xlink:href="Factory_8hpp.html" target="_top" xlink:title=" ">
<polygon fill="white" stroke="#666666" points="653.25,-216.5 524,-216.5 524,-183 653.25,-183 653.25,-216.5"/>
<text text-anchor="start" x="532" y="-203" font-family="Helvetica,sans-Serif" font-size="10.00">src/core/designPatterns</text>
<text text-anchor="middle" x="588.62" y="-190.25" font-family="Helvetica,sans-Serif" font-size="10.00">/Factory.hpp</text>
</a>
</g>
</g>
<!-- Node10&#45;&gt;Node11 -->
<g id="edge13_Node000010_Node000011" class="edge">
<title>Node10&#45;&gt;Node11</title>
<g id="a_edge13_Node000010_Node000011"><a xlink:title=" ">
<path fill="none" stroke="#63b8ff" d="M472.96,-316.33C460.8,-309.04 448.4,-299 441.62,-286 434.74,-272.8 433.02,-264.65 441.62,-252.5 451.75,-238.2 489.25,-225.13 523.83,-215.7"/>
<polygon fill="#63b8ff" stroke="#63b8ff" points="471.1,-319.85 481.55,-321.59 474.46,-313.71 471.1,-319.85"/>
</a>
</g>
</g>
<!-- Node13 -->
<g id="Node000013" class="node">
<title>Node13</title>
<g id="a_Node000013"><a xlink:href="World_8hpp.html" target="_top" xlink:title=" ">
<polygon fill="white" stroke="#666666" points="726.12,-279.62 581.12,-279.62 581.12,-258.88 726.12,-258.88 726.12,-279.62"/>
<text text-anchor="middle" x="653.62" y="-266.12" font-family="Helvetica,sans-Serif" font-size="10.00">src/core/helpers/World.hpp</text>
</a>
</g>
</g>
<!-- Node10&#45;&gt;Node13 -->
<g id="edge16_Node000010_Node000013" class="edge">
<title>Node10&#45;&gt;Node13</title>
<g id="a_edge16_Node000010_Node000013"><a xlink:title=" ">
<path fill="none" stroke="#63b8ff" d="M535.11,-317.12C561.05,-305.72 598.95,-290.06 624.96,-280.05"/>
<polygon fill="#63b8ff" stroke="#63b8ff" points="533.84,-314.29 526.13,-321.55 536.69,-320.69 533.84,-314.29"/>
</a>
</g>
</g>
<!-- Node14 -->
<g id="Node000014" class="node">
<title>Node14</title>
<g id="a_Node000014"><a xlink:href="DirectionalLight_8hpp.html" target="_top" xlink:title=" ">
<polygon fill="white" stroke="#666666" points="394.12,-286 255.12,-286 255.12,-252.5 394.12,-252.5 394.12,-286"/>
<text text-anchor="start" x="263.12" y="-272.5" font-family="Helvetica,sans-Serif" font-size="10.00">src/lights/directionalLight</text>
<text text-anchor="middle" x="324.62" y="-259.75" font-family="Helvetica,sans-Serif" font-size="10.00">/DirectionalLight.hpp</text>
</a>
</g>
</g>
<!-- Node10&#45;&gt;Node14 -->
<g id="edge18_Node000010_Node000014" class="edge">
<title>Node10&#45;&gt;Node14</title>
<g id="a_edge18_Node000010_Node000014"><a xlink:title=" ">
<path fill="none" stroke="#63b8ff" d="M467.28,-318.16C439.62,-308.87 402.44,-296.38 372.96,-286.48"/>
<polygon fill="#63b8ff" stroke="#63b8ff" points="465.79,-321.69 476.38,-321.55 468.02,-315.05 465.79,-321.69"/>
</a>
</g>
</g>
<!-- Node18 -->
<g id="Node000018" class="node">
<title>Node18</title>
<g id="a_Node000018"><a xlink:href="PointLight_8hpp.html" target="_top" xlink:title=" ">
<polygon fill="white" stroke="#666666" points="562.62,-286 450.62,-286 450.62,-252.5 562.62,-252.5 562.62,-286"/>
<text text-anchor="start" x="458.62" y="-272.5" font-family="Helvetica,sans-Serif" font-size="10.00">src/lights/pointLight</text>
<text text-anchor="middle" x="506.62" y="-259.75" font-family="Helvetica,sans-Serif" font-size="10.00">/PointLight.hpp</text>
</a>
</g>
</g>
<!-- Node10&#45;&gt;Node18 -->
<g id="edge26_Node000010_Node000018" class="edge">
<title>Node10&#45;&gt;Node18</title>
<g id="a_edge26_Node000010_Node000018"><a xlink:title=" ">
<path fill="none" stroke="#63b8ff" d="M506.62,-310.65C506.62,-302.76 506.62,-293.9 506.62,-286.48"/>
<polygon fill="#63b8ff" stroke="#63b8ff" points="503.13,-310.55 506.62,-320.55 510.13,-310.55 503.13,-310.55"/>
</a>
</g>
</g>
<!-- Node11&#45;&gt;Node8 -->
<g id="edge15_Node000011_Node000008" class="edge">
<title>Node11&#45;&gt;Node8</title>
<g id="a_edge15_Node000011_Node000008"><a xlink:title=" ">
<path fill="none" stroke="#63b8ff" d="M536.28,-178.67C503.98,-166.29 463.96,-150.94 438.36,-141.12"/>
<polygon fill="#63b8ff" stroke="#63b8ff" points="534.88,-182.27 545.47,-182.58 537.39,-175.73 534.88,-182.27"/>
</a>
</g>
</g>
<!-- Node12 -->
<g id="Node000012" class="node">
<title>Node12</title>
<g id="a_Node000012"><a xlink:href="Factory_8cpp.html" target="_top" xlink:title=" ">
<polygon fill="white" stroke="#666666" points="653.25,-147 524,-147 524,-113.5 653.25,-113.5 653.25,-147"/>
<text text-anchor="start" x="532" y="-133.5" font-family="Helvetica,sans-Serif" font-size="10.00">src/core/designPatterns</text>
<text text-anchor="middle" x="588.62" y="-120.75" font-family="Helvetica,sans-Serif" font-size="10.00">/Factory.cpp</text>
</a>
</g>
</g>
<!-- Node11&#45;&gt;Node12 -->
<g id="edge14_Node000011_Node000012" class="edge">
<title>Node11&#45;&gt;Node12</title>
<g id="a_edge14_Node000011_Node000012"><a xlink:title=" ">
<path fill="none" stroke="#63b8ff" d="M588.62,-171.89C588.62,-163.5 588.62,-154.51 588.62,-147.13"/>
<polygon fill="#63b8ff" stroke="#63b8ff" points="585.13,-171.75 588.62,-181.75 592.13,-171.75 585.13,-171.75"/>
</a>
</g>
</g>
<!-- Node13&#45;&gt;Node10 -->
<g id="edge17_Node000013_Node000010" class="edge">
<title>Node13&#45;&gt;Node10</title>
<g id="a_edge17_Node000013_Node000010"><a xlink:title=" ">
<path fill="none" stroke="#63b8ff" d="M625.21,-284.48C599.29,-295.87 561.39,-311.53 535.36,-321.55"/>
<polygon fill="#63b8ff" stroke="#63b8ff" points="626.46,-287.31 634.18,-280.05 623.62,-280.91 626.46,-287.31"/>
</a>
</g>
</g>
<!-- Node14&#45;&gt;Node11 -->
<g id="edge19_Node000014_Node000011" class="edge">
<title>Node14&#45;&gt;Node11</title>
<g id="a_edge19_Node000014_Node000011"><a xlink:title=" ">
<path fill="none" stroke="#63b8ff" d="M398.35,-249.4C438.33,-239.18 487.23,-226.67 525.45,-216.9"/>
<polygon fill="#63b8ff" stroke="#63b8ff" points="397.68,-246.21 388.86,-252.08 399.41,-253 397.68,-246.21"/>
</a>
</g>
</g>
<!-- Node15 -->
<g id="Node000015" class="node">
<title>Node15</title>
<g id="a_Node000015"><a xlink:href="DirectionalLight_8cpp.html" target="_top" xlink:title=" ">
<polygon fill="white" stroke="#666666" points="375.12,-216.5 236.12,-216.5 236.12,-183 375.12,-183 375.12,-216.5"/>
<text text-anchor="start" x="244.12" y="-203" font-family="Helvetica,sans-Serif" font-size="10.00">src/lights/directionalLight</text>
<text text-anchor="middle" x="305.62" y="-190.25" font-family="Helvetica,sans-Serif" font-size="10.00">/DirectionalLight.cpp</text>
</a>
</g>
</g>
<!-- Node14&#45;&gt;Node15 -->
<g id="edge20_Node000014_Node000015" class="edge">
<title>Node14&#45;&gt;Node15</title>
<g id="a_edge20_Node000014_Node000015"><a xlink:title=" ">
<path fill="none" stroke="#63b8ff" d="M317.14,-241.67C314.76,-233.2 312.2,-224.1 310.1,-216.63"/>
<polygon fill="#63b8ff" stroke="#63b8ff" points="314.04,-242.58 320.12,-251.25 320.78,-240.68 314.04,-242.58"/>
</a>
</g>
</g>
<!-- Node16 -->
<g id="Node000016" class="node">
<title>Node16</title>
<g id="a_Node000016"><a xlink:href="Parser_8hpp.html" target="_top" xlink:title=" ">
<polygon fill="white" stroke="#666666" points="915.25,-210.12 798,-210.12 798,-189.38 915.25,-189.38 915.25,-210.12"/>
<text text-anchor="middle" x="856.62" y="-196.62" font-family="Helvetica,sans-Serif" font-size="10.00">src/parser/Parser.hpp</text>
</a>
</g>
</g>
<!-- Node14&#45;&gt;Node16 -->
<g id="edge21_Node000014_Node000016" class="edge">
<title>Node14&#45;&gt;Node16</title>
<g id="a_edge21_Node000014_Node000016"><a xlink:title=" ">
<path fill="none" stroke="#63b8ff" d="M405.14,-257.08C417.36,-255.48 429.82,-253.9 441.62,-252.5 596.03,-234.13 636.3,-242.34 789.62,-216.5 799.05,-214.91 809.13,-212.78 818.53,-210.59"/>
<polygon fill="#63b8ff" stroke="#63b8ff" points="404.95,-253.71 395.49,-258.49 405.86,-260.65 404.95,-253.71"/>
</a>
</g>
</g>
<!-- Node16&#45;&gt;Node4 -->
<g id="edge22_Node000016_Node000004" class="edge">
<title>Node16&#45;&gt;Node4</title>
<g id="a_edge22_Node000016_Node000004"><a xlink:title=" ">
<path fill="none" stroke="#63b8ff" d="M808.36,-185.79C778.69,-176.88 740.4,-163.66 708.62,-147 686.23,-135.26 685.88,-123.45 662.62,-113.5 629.78,-99.44 538.39,-85 475.71,-76.3"/>
<polygon fill="#63b8ff" stroke="#63b8ff" points="807.3,-189.42 817.88,-188.88 809.27,-182.7 807.3,-189.42"/>
</a>
</g>
</g>
<!-- Node16&#45;&gt;Node7 -->
<g id="edge23_Node000016_Node000007" class="edge">
<title>Node16&#45;&gt;Node7</title>
<g id="a_edge23_Node000016_Node000007"><a xlink:title=" ">
<path fill="none" stroke="#63b8ff" d="M832.9,-182.89C804.36,-164.35 754.54,-133.62 708.62,-113.5 674.08,-98.36 632.88,-85.98 603.24,-77.99"/>
<polygon fill="#63b8ff" stroke="#63b8ff" points="830.79,-186.35 841.07,-188.91 834.63,-180.5 830.79,-186.35"/>
</a>
</g>
</g>
<!-- Node16&#45;&gt;Node8 -->
<g id="edge24_Node000016_Node000008" class="edge">
<title>Node16&#45;&gt;Node8</title>
<g id="a_edge24_Node000016_Node000008"><a xlink:title=" ">
<path fill="none" stroke="#63b8ff" d="M807.26,-186.55C801.33,-185.26 795.36,-184.05 789.62,-183 668.36,-160.87 636.65,-164.41 514.62,-147 501.76,-145.17 488.01,-143.11 474.89,-141.1"/>
<polygon fill="#63b8ff" stroke="#63b8ff" points="806.27,-190.14 816.79,-188.92 807.8,-183.31 806.27,-190.14"/>
</a>
</g>
</g>
<!-- Node17 -->
<g id="Node000017" class="node">
<title>Node17</title>
<g id="a_Node000017"><a xlink:href="Parser_8cpp.html" target="_top" xlink:title="Implémentation des fonctions de parsing des configurations pour la caméra, primitives,...">
<polygon fill="white" stroke="#666666" points="914.88,-140.62 798.38,-140.62 798.38,-119.88 914.88,-119.88 914.88,-140.62"/>
<text text-anchor="middle" x="856.62" y="-127.12" font-family="Helvetica,sans-Serif" font-size="10.00">src/parser/Parser.cpp</text>
</a>
</g>
</g>
<!-- Node16&#45;&gt;Node17 -->
<g id="edge25_Node000016_Node000017" class="edge">
<title>Node16&#45;&gt;Node17</title>
<g id="a_edge25_Node000016_Node000017"><a xlink:title=" ">
<path fill="none" stroke="#63b8ff" d="M856.62,-178.33C856.62,-165.91 856.62,-150.62 856.62,-140.9"/>
<polygon fill="#63b8ff" stroke="#63b8ff" points="853.13,-178.08 856.62,-188.08 860.13,-178.08 853.13,-178.08"/>
</a>
</g>
</g>
<!-- Node18&#45;&gt;Node11 -->
<g id="edge27_Node000018_Node000011" class="edge">
<title>Node18&#45;&gt;Node11</title>
<g id="a_edge27_Node000018_Node000011"><a xlink:title=" ">
<path fill="none" stroke="#63b8ff" d="M534.4,-245.39C545.78,-236.02 558.68,-225.4 569.05,-216.87"/>
<polygon fill="#63b8ff" stroke="#63b8ff" points="532.55,-243.2 527.06,-252.25 537,-248.6 532.55,-243.2"/>
</a>
</g>
</g>
<!-- Node18&#45;&gt;Node16 -->
<g id="edge29_Node000018_Node000016" class="edge">
<title>Node18&#45;&gt;Node16</title>
<g id="a_edge29_Node000018_Node000016"><a xlink:title=" ">
<path fill="none" stroke="#63b8ff" d="M573.62,-252.39C670.26,-233.29 697.04,-235.04 789.62,-216.5 798.41,-214.74 807.8,-212.66 816.69,-210.6"/>
<polygon fill="#63b8ff" stroke="#63b8ff" points="573.21,-249.11 564.09,-254.5 574.59,-255.97 573.21,-249.11"/>
</a>
</g>
</g>
<!-- Node19 -->
<g id="Node000019" class="node">
<title>Node19</title>
<g id="a_Node000019"><a xlink:href="PointLight_8cpp.html" target="_top" xlink:title=" ">
<polygon fill="white" stroke="#666666" points="505.62,-216.5 393.62,-216.5 393.62,-183 505.62,-183 505.62,-216.5"/>
<text text-anchor="start" x="401.62" y="-203" font-family="Helvetica,sans-Serif" font-size="10.00">src/lights/pointLight</text>
<text text-anchor="middle" x="449.62" y="-190.25" font-family="Helvetica,sans-Serif" font-size="10.00">/PointLight.cpp</text>
</a>
</g>
</g>
<!-- Node18&#45;&gt;Node19 -->
<g id="edge28_Node000018_Node000019" class="edge">
<title>Node18&#45;&gt;Node19</title>
<g id="a_edge28_Node000018_Node000019"><a xlink:title=" ">
<path fill="none" stroke="#63b8ff" d="M486.1,-243.94C478.42,-234.85 469.91,-224.77 463.04,-216.63"/>
<polygon fill="#63b8ff" stroke="#63b8ff" points="483.99,-245.87 493.12,-251.25 489.34,-241.35 483.99,-245.87"/>
</a>
</g>
</g>
<!-- Node20&#45;&gt;Node10 -->
<g id="edge33_Node000020_Node000010" class="edge">
<title>Node20&#45;&gt;Node10</title>
<g id="a_edge33_Node000020_Node000010"><a xlink:title=" ">
<path fill="none" stroke="#63b8ff" d="M723.92,-376.17C673.84,-366.31 603.63,-352.48 556.71,-343.24"/>
<polygon fill="#63b8ff" stroke="#63b8ff" points="723.12,-379.78 733.6,-378.27 724.47,-372.91 723.12,-379.78"/>
</a>
</g>
</g>
<!-- Node20&#45;&gt;Node11 -->
<g id="edge31_Node000020_Node000011" class="edge">
<title>Node20&#45;&gt;Node11</title>
<g id="a_edge31_Node000020_Node000011"><a xlink:title=" ">
<path fill="none" stroke="#63b8ff" d="M782.7,-367.84C778.87,-338.5 767.65,-284.27 735.62,-252.5 723.09,-240.07 685.14,-226.86 650.93,-216.9"/>
<polygon fill="#63b8ff" stroke="#63b8ff" points="779.3,-367.88 783.9,-377.42 786.26,-367.09 779.3,-367.88"/>
</a>
</g>
</g>
<!-- Node20&#45;&gt;Node13 -->
<g id="edge32_Node000020_Node000013" class="edge">
<title>Node20&#45;&gt;Node13</title>
<g id="a_edge32_Node000020_Node000013"><a xlink:title=" ">
<path fill="none" stroke="#63b8ff" d="M765.76,-371.15C737.93,-346.11 686.79,-300.09 664.49,-280.03"/>
<polygon fill="#63b8ff" stroke="#63b8ff" points="763.13,-373.39 772.9,-377.48 767.81,-368.19 763.13,-373.39"/>
</a>
</g>
</g>
<!-- Node21 -->
<g id="Node000021" class="node">
<title>Node21</title>
<g id="a_Node000021"><a xlink:href="Cone_8hpp.html" target="_top" xlink:title=" ">
<polygon fill="white" stroke="#666666" points="892.12,-286 783.12,-286 783.12,-252.5 892.12,-252.5 892.12,-286"/>
<text text-anchor="start" x="791.12" y="-272.5" font-family="Helvetica,sans-Serif" font-size="10.00">src/primitives/cone</text>
<text text-anchor="middle" x="837.62" y="-259.75" font-family="Helvetica,sans-Serif" font-size="10.00">/Cone.hpp</text>
</a>
</g>
</g>
<!-- Node20&#45;&gt;Node21 -->
<g id="edge34_Node000020_Node000021" class="edge">
<title>Node20&#45;&gt;Node21</title>
<g id="a_edge34_Node000020_Node000021"><a xlink:title=" ">
<path fill="none" stroke="#63b8ff" d="M793.45,-368.49C803.81,-345.45 820.79,-307.69 830.4,-286.32"/>
<polygon fill="#63b8ff" stroke="#63b8ff" points="789.87,-366.92 788.96,-377.48 796.26,-369.79 789.87,-366.92"/>
</a>
</g>
</g>
<!-- Node23 -->
<g id="Node000023" class="node">
<title>Node23</title>
<g id="a_Node000023"><a xlink:href="Cylinder_8hpp.html" target="_top" xlink:title=" ">
<polygon fill="white" stroke="#666666" points="1035,-286 910.25,-286 910.25,-252.5 1035,-252.5 1035,-286"/>
<text text-anchor="start" x="918.25" y="-272.5" font-family="Helvetica,sans-Serif" font-size="10.00">src/primitives/cylinder</text>
<text text-anchor="middle" x="972.62" y="-259.75" font-family="Helvetica,sans-Serif" font-size="10.00">/Cylinder.hpp</text>
</a>
</g>
</g>
<!-- Node20&#45;&gt;Node23 -->
<g id="edge38_Node000020_Node000023" class="edge">
<title>Node20&#45;&gt;Node23</title>
<g id="a_edge38_Node000020_Node000023"><a xlink:title=" ">
<path fill="none" stroke="#63b8ff" d="M809.56,-372.49C845.26,-350.11 910.6,-309.14 946.79,-286.45"/>
<polygon fill="#63b8ff" stroke="#63b8ff" points="807.94,-370 801.33,-378.28 811.66,-375.93 807.94,-370"/>
</a>
</g>
</g>
<!-- Node25 -->
<g id="Node000025" class="node">
<title>Node25</title>
<g id="a_Node000025"><a xlink:href="Plane_8hpp.html" target="_top" xlink:title=" ">
<polygon fill="white" stroke="#666666" points="1212,-286 1099.25,-286 1099.25,-252.5 1212,-252.5 1212,-286"/>
<text text-anchor="start" x="1107.25" y="-272.5" font-family="Helvetica,sans-Serif" font-size="10.00">src/primitives/plane</text>
<text text-anchor="middle" x="1155.62" y="-259.75" font-family="Helvetica,sans-Serif" font-size="10.00">/Plane.hpp</text>
</a>
</g>
</g>
<!-- Node20&#45;&gt;Node25 -->
<g id="edge42_Node000020_Node000025" class="edge">
<title>Node20&#45;&gt;Node25</title>
<g id="a_edge42_Node000020_Node000025"><a xlink:title=" ">
<path fill="none" stroke="#63b8ff" d="M825.98,-374.99C894.28,-353.28 1030.48,-310.01 1104.64,-286.45"/>
<polygon fill="#63b8ff" stroke="#63b8ff" points="825.09,-371.91 816.62,-378.28 827.21,-378.59 825.09,-371.91"/>
</a>
</g>
</g>
<!-- Node32 -->
<g id="Node000032" class="node">
<title>Node32</title>
<g id="a_Node000032"><a xlink:href="Sphere_8hpp.html" target="_top" xlink:title=" ">
<polygon fill="white" stroke="#666666" points="1439,-286 1320.25,-286 1320.25,-252.5 1439,-252.5 1439,-286"/>
<text text-anchor="start" x="1328.25" y="-272.5" font-family="Helvetica,sans-Serif" font-size="10.00">src/primitives/sphere</text>
<text text-anchor="middle" x="1379.62" y="-259.75" font-family="Helvetica,sans-Serif" font-size="10.00">/Sphere.hpp</text>
</a>
</g>
</g>
<!-- Node20&#45;&gt;Node32 -->
<g id="edge55_Node000020_Node000032" class="edge">
<title>Node20&#45;&gt;Node32</title>
<g id="a_edge55_Node000020_Node000032"><a xlink:title=" ">
<path fill="none" stroke="#63b8ff" d="M844.97,-376.17C959.33,-353.51 1206.3,-304.59 1320.05,-282.05"/>
<polygon fill="#63b8ff" stroke="#63b8ff" points="844.46,-372.9 835.33,-378.28 845.82,-379.77 844.46,-372.9"/>
</a>
</g>
</g>
<!-- Node21&#45;&gt;Node11 -->
<g id="edge35_Node000021_Node000011" class="edge">
<title>Node21&#45;&gt;Node11</title>
<g id="a_edge35_Node000021_Node000011"><a xlink:title=" ">
<path fill="none" stroke="#63b8ff" d="M772.12,-250.49C733.71,-240.08 685.56,-227.03 648.22,-216.91"/>
<polygon fill="#63b8ff" stroke="#63b8ff" points="771.11,-254.11 781.67,-253.35 772.94,-247.36 771.11,-254.11"/>
</a>
</g>
</g>
<!-- Node21&#45;&gt;Node16 -->
<g id="edge36_Node000021_Node000016" class="edge">
<title>Node21&#45;&gt;Node16</title>
<g id="a_edge36_Node000021_Node000016"><a xlink:title=" ">
<path fill="none" stroke="#63b8ff" d="M845.07,-241.82C848.16,-230.83 851.55,-218.77 853.86,-210.57"/>
<polygon fill="#63b8ff" stroke="#63b8ff" points="841.47,-240.68 842.13,-251.25 848.21,-242.58 841.47,-240.68"/>
</a>
</g>
</g>
<!-- Node22 -->
<g id="Node000022" class="node">
<title>Node22</title>
<g id="a_Node000022"><a xlink:href="Cone_8cpp.html" target="_top" xlink:title=" ">
<polygon fill="white" stroke="#666666" points="780.12,-216.5 671.12,-216.5 671.12,-183 780.12,-183 780.12,-216.5"/>
<text text-anchor="start" x="679.12" y="-203" font-family="Helvetica,sans-Serif" font-size="10.00">src/primitives/cone</text>
<text text-anchor="middle" x="725.62" y="-190.25" font-family="Helvetica,sans-Serif" font-size="10.00">/Cone.cpp</text>
</a>
</g>
</g>
<!-- Node21&#45;&gt;Node22 -->
<g id="edge37_Node000021_Node000022" class="edge">
<title>Node21&#45;&gt;Node22</title>
<g id="a_edge37_Node000021_Node000022"><a xlink:title=" ">
<path fill="none" stroke="#63b8ff" d="M801.68,-246.59C785.62,-236.91 767.02,-225.7 752.23,-216.79"/>
<polygon fill="#63b8ff" stroke="#63b8ff" points="799.43,-249.92 809.8,-252.08 803.04,-243.92 799.43,-249.92"/>
</a>
</g>
</g>
<!-- Node23&#45;&gt;Node11 -->
<g id="edge39_Node000023_Node000011" class="edge">
<title>Node23&#45;&gt;Node11</title>
<g id="a_edge39_Node000023_Node000011"><a xlink:title=" ">
<path fill="none" stroke="#63b8ff" d="M899.2,-252.12C794.15,-233.02 764.91,-235.07 662.62,-216.5 659.65,-215.96 656.62,-215.39 653.55,-214.8"/>
<polygon fill="#63b8ff" stroke="#63b8ff" points="898.48,-255.73 908.95,-254.1 899.75,-248.85 898.48,-255.73"/>
</a>
</g>
</g>
<!-- Node23&#45;&gt;Node16 -->
<g id="edge40_Node000023_Node000016" class="edge">
<title>Node23&#45;&gt;Node16</title>
<g id="a_edge40_Node000023_Node000016"><a xlink:title=" ">
<path fill="none" stroke="#63b8ff" d="M935.59,-246.7C914.7,-234.54 889.62,-219.95 873.42,-210.52"/>
<polygon fill="#63b8ff" stroke="#63b8ff" points="933.44,-250.08 943.84,-252.08 936.96,-244.03 933.44,-250.08"/>
</a>
</g>
</g>
<!-- Node24 -->
<g id="Node000024" class="node">
<title>Node24</title>
<g id="a_Node000024"><a xlink:href="Cylinder_8cpp.html" target="_top" xlink:title=" ">
<polygon fill="white" stroke="#666666" points="1058,-216.5 933.25,-216.5 933.25,-183 1058,-183 1058,-216.5"/>
<text text-anchor="start" x="941.25" y="-203" font-family="Helvetica,sans-Serif" font-size="10.00">src/primitives/cylinder</text>
<text text-anchor="middle" x="995.62" y="-190.25" font-family="Helvetica,sans-Serif" font-size="10.00">/Cylinder.cpp</text>
</a>
</g>
</g>
<!-- Node23&#45;&gt;Node24 -->
<g id="edge41_Node000023_Node000024" class="edge">
<title>Node23&#45;&gt;Node24</title>
<g id="a_edge41_Node000023_Node000024"><a xlink:title=" ">
<path fill="none" stroke="#63b8ff" d="M981.58,-241.96C984.5,-233.41 987.64,-224.18 990.21,-216.63"/>
<polygon fill="#63b8ff" stroke="#63b8ff" points="977.99,-240.66 978.08,-251.25 984.61,-242.92 977.99,-240.66"/>
</a>
</g>
</g>
<!-- Node25&#45;&gt;Node11 -->
<g id="edge52_Node000025_Node000011" class="edge">
<title>Node25&#45;&gt;Node11</title>
<g id="a_edge52_Node000025_Node000011"><a xlink:title=" ">
<path fill="none" stroke="#63b8ff" d="M1088.43,-258.29C1073.68,-256.25 1058.14,-254.21 1043.62,-252.5 874.7,-232.65 830.75,-242.25 662.62,-216.5 659.64,-216.04 656.59,-215.54 653.52,-215"/>
<polygon fill="#63b8ff" stroke="#63b8ff" points="1087.61,-261.85 1098,-259.78 1088.58,-254.92 1087.61,-261.85"/>
</a>
</g>
</g>
<!-- Node25&#45;&gt;Node16 -->
<g id="edge53_Node000025_Node000016" class="edge">
<title>Node25&#45;&gt;Node16</title>
<g id="a_edge53_Node000025_Node000016"><a xlink:title=" ">
<path fill="none" stroke="#63b8ff" d="M1088.65,-253.38C1042.52,-243.1 979.83,-229.08 924.62,-216.5 916.24,-214.59 907.27,-212.53 898.69,-210.54"/>
<polygon fill="#63b8ff" stroke="#63b8ff" points="1087.59,-256.95 1098.11,-255.71 1089.11,-250.12 1087.59,-256.95"/>
</a>
</g>
</g>
<!-- Node26 -->
<g id="Node000026" class="node">
<title>Node26</title>
<g id="a_Node000026"><a xlink:href="Primitive__fact_8cpp.html" target="_top" xlink:title=" ">
<polygon fill="white" stroke="#666666" points="1361.88,-140.62 1227.38,-140.62 1227.38,-119.88 1361.88,-119.88 1361.88,-140.62"/>
<text text-anchor="middle" x="1294.62" y="-127.12" font-family="Helvetica,sans-Serif" font-size="10.00">paser/Primitive_fact.cpp</text>
</a>
</g>
</g>
<!-- Node25&#45;&gt;Node26 -->
<g id="edge43_Node000025_Node000026" class="edge">
<title>Node25&#45;&gt;Node26</title>
<g id="a_edge43_Node000025_Node000026"><a xlink:title=" ">
<path fill="none" stroke="#63b8ff" d="M1177.12,-244.12C1192.89,-226.71 1215.06,-202.88 1235.62,-183 1251.49,-167.66 1270.9,-151.01 1283.02,-140.85"/>
<polygon fill="#63b8ff" stroke="#63b8ff" points="1175.02,-241.33 1170.92,-251.1 1180.22,-246.01 1175.02,-241.33"/>
</a>
</g>
</g>
<!-- Node27 -->
<g id="Node000027" class="node">
<title>Node27</title>
<g id="a_Node000027"><a xlink:href="Primitive__fact_8hpp.html" target="_top" xlink:title=" ">
<polygon fill="white" stroke="#666666" points="1380.25,-210.12 1245,-210.12 1245,-189.38 1380.25,-189.38 1380.25,-210.12"/>
<text text-anchor="middle" x="1312.62" y="-196.62" font-family="Helvetica,sans-Serif" font-size="10.00">paser/Primitive_fact.hpp</text>
</a>
</g>
</g>
<!-- Node25&#45;&gt;Node27 -->
<g id="edge44_Node000025_Node000027" class="edge">
<title>Node25&#45;&gt;Node27</title>
<g id="a_edge44_Node000025_Node000027"><a xlink:title=" ">
<path fill="none" stroke="#63b8ff" d="M1203.1,-247.84C1231.87,-235.47 1267.28,-220.25 1289.9,-210.52"/>
<polygon fill="#63b8ff" stroke="#63b8ff" points="1202.03,-244.92 1194.23,-252.08 1204.8,-251.35 1202.03,-244.92"/>
</a>
</g>
</g>
<!-- Node29 -->
<g id="Node000029" class="node">
<title>Node29</title>
<g id="a_Node000029"><a xlink:href="paser_2Scene_8hpp.html" target="_top" xlink:title=" ">
<polygon fill="white" stroke="#666666" points="1570.75,-210.12 1474.5,-210.12 1474.5,-189.38 1570.75,-189.38 1570.75,-210.12"/>
<text text-anchor="middle" x="1522.62" y="-196.62" font-family="Helvetica,sans-Serif" font-size="10.00">paser/Scene.hpp</text>
</a>
</g>
</g>
<!-- Node25&#45;&gt;Node29 -->
<g id="edge47_Node000025_Node000029" class="edge">
<title>Node25&#45;&gt;Node29</title>
<g id="a_edge47_Node000025_Node000029"><a xlink:title=" ">
<path fill="none" stroke="#63b8ff" d="M1222.58,-255.93C1295.32,-242.56 1409.74,-221.51 1474.23,-209.65"/>
<polygon fill="#63b8ff" stroke="#63b8ff" points="1222.37,-252.6 1213.16,-257.85 1223.63,-259.48 1222.37,-252.6"/>
</a>
</g>
</g>
<!-- Node30 -->
<g id="Node000030" class="node">
<title>Node30</title>
<g id="a_Node000030"><a xlink:href="parse_8hpp.html" target="_top" xlink:title=" ">
<polygon fill="white" stroke="#666666" points="1511.62,-140.62 1417.62,-140.62 1417.62,-119.88 1511.62,-119.88 1511.62,-140.62"/>
<text text-anchor="middle" x="1464.62" y="-127.12" font-family="Helvetica,sans-Serif" font-size="10.00">paser/parse.hpp</text>
</a>
</g>
</g>
<!-- Node25&#45;&gt;Node30 -->
<g id="edge51_Node000025_Node000030" class="edge">
<title>Node25&#45;&gt;Node30</title>
<g id="a_edge51_Node000025_Node000030"><a xlink:title=" ">
<path fill="none" stroke="#63b8ff" d="M1222.99,-264.5C1272.09,-259.22 1338.67,-246.6 1389.62,-216.5 1422.21,-197.25 1448.11,-158.92 1459.02,-140.96"/>
<polygon fill="#63b8ff" stroke="#63b8ff" points="1222.77,-261.11 1213.16,-265.58 1223.46,-268.07 1222.77,-261.11"/>
</a>
</g>
</g>
<!-- Node31 -->
<g id="Node000031" class="node">
<title>Node31</title>
<g id="a_Node000031"><a xlink:href="Plane_8cpp.html" target="_top" xlink:title=" ">
<polygon fill="white" stroke="#666666" points="1189,-216.5 1076.25,-216.5 1076.25,-183 1189,-183 1189,-216.5"/>
<text text-anchor="start" x="1084.25" y="-203" font-family="Helvetica,sans-Serif" font-size="10.00">src/primitives/plane</text>
<text text-anchor="middle" x="1132.62" y="-190.25" font-family="Helvetica,sans-Serif" font-size="10.00">/Plane.cpp</text>
</a>
</g>
</g>
<!-- Node25&#45;&gt;Node31 -->
<g id="edge54_Node000025_Node000031" class="edge">
<title>Node25&#45;&gt;Node31</title>
<g id="a_edge54_Node000025_Node000031"><a xlink:title=" ">
<path fill="none" stroke="#63b8ff" d="M1146.67,-241.96C1143.75,-233.41 1140.61,-224.18 1138.04,-216.63"/>
<polygon fill="#63b8ff" stroke="#63b8ff" points="1143.64,-242.92 1150.17,-251.25 1150.26,-240.66 1143.64,-242.92"/>
</a>
</g>
</g>
<!-- Node27&#45;&gt;Node26 -->
<g id="edge45_Node000027_Node000026" class="edge">
<title>Node27&#45;&gt;Node26</title>
<g id="a_edge45_Node000027_Node000026"><a xlink:title=" ">
<path fill="none" stroke="#63b8ff" d="M1307.28,-178.71C1303.95,-166.22 1299.82,-150.72 1297.2,-140.9"/>
<polygon fill="#63b8ff" stroke="#63b8ff" points="1304.09,-179.32 1310.05,-188.08 1310.85,-177.51 1304.09,-179.32"/>
</a>
</g>
</g>
<!-- Node28 -->
<g id="Node000028" class="node">
<title>Node28</title>
<g id="a_Node000028"><a xlink:href="parse_8cpp.html" target="_top" xlink:title=" ">
<polygon fill="white" stroke="#666666" points="1511.25,-77.5 1418,-77.5 1418,-56.75 1511.25,-56.75 1511.25,-77.5"/>
<text text-anchor="middle" x="1464.62" y="-64" font-family="Helvetica,sans-Serif" font-size="10.00">paser/parse.cpp</text>
</a>
</g>
</g>
<!-- Node27&#45;&gt;Node28 -->
<g id="edge46_Node000027_Node000028" class="edge">
<title>Node27&#45;&gt;Node28</title>
<g id="a_edge46_Node000027_Node000028"><a xlink:title=" ">
<path fill="none" stroke="#63b8ff" d="M1331.48,-181.92C1357.22,-158.97 1401.03,-119.95 1408.62,-113.5 1423.51,-100.87 1441.05,-86.78 1452.48,-77.71"/>
<polygon fill="#63b8ff" stroke="#63b8ff" points="1329.66,-178.75 1324.53,-188.02 1334.32,-183.97 1329.66,-178.75"/>
</a>
</g>
</g>
<!-- Node29&#45;&gt;Node28 -->
<g id="edge48_Node000029_Node000028" class="edge">
<title>Node29&#45;&gt;Node28</title>
<g id="a_edge48_Node000029_Node000028"><a xlink:title=" ">
<path fill="none" stroke="#63b8ff" d="M1526.78,-178.21C1529.38,-160.2 1530.59,-133.79 1520.62,-113.5 1512.9,-97.78 1496.88,-85.68 1483.94,-77.95"/>
<polygon fill="#63b8ff" stroke="#63b8ff" points="1523.18,-177.47 1524.93,-187.92 1530.08,-178.67 1523.18,-177.47"/>
</a>
</g>
</g>
<!-- Node29&#45;&gt;Node30 -->
<g id="edge49_Node000029_Node000030" class="edge">
<title>Node29&#45;&gt;Node30</title>
<g id="a_edge49_Node000029_Node000030"><a xlink:title=" ">
<path fill="none" stroke="#63b8ff" d="M1507.34,-180.97C1496.33,-168.14 1481.87,-151.32 1472.92,-140.9"/>
<polygon fill="#63b8ff" stroke="#63b8ff" points="1505.14,-182.78 1514.32,-188.08 1510.45,-178.21 1505.14,-182.78"/>
</a>
</g>
</g>
<!-- Node30&#45;&gt;Node28 -->
<g id="edge50_Node000030_Node000028" class="edge">
<title>Node30&#45;&gt;Node28</title>
<g id="a_edge50_Node000030_Node000028"><a xlink:title=" ">
<path fill="none" stroke="#63b8ff" d="M1464.62,-108.66C1464.62,-98.2 1464.62,-85.99 1464.62,-77.72"/>
<polygon fill="#63b8ff" stroke="#63b8ff" points="1461.13,-108.43 1464.62,-118.43 1468.13,-108.43 1461.13,-108.43"/>
</a>
</g>
</g>
<!-- Node32&#45;&gt;Node11 -->
<g id="edge60_Node000032_Node000011" class="edge">
<title>Node32&#45;&gt;Node11</title>
<g id="a_edge60_Node000032_Node000011"><a xlink:title=" ">
<path fill="none" stroke="#63b8ff" d="M1309.27,-260.76C1281.65,-257.95 1249.67,-254.87 1220.62,-252.5 972.94,-232.25 908.81,-250.46 662.62,-216.5 659.63,-216.09 656.58,-215.62 653.5,-215.12"/>
<polygon fill="#63b8ff" stroke="#63b8ff" points="1308.72,-264.32 1319.02,-261.86 1309.43,-257.36 1308.72,-264.32"/>
</a>
</g>
</g>
<!-- Node32&#45;&gt;Node16 -->
<g id="edge61_Node000032_Node000016" class="edge">
<title>Node32&#45;&gt;Node16</title>
<g id="a_edge61_Node000032_Node000016"><a xlink:title=" ">
<path fill="none" stroke="#63b8ff" d="M1309.31,-261.25C1200.61,-250.25 996.78,-228.92 924.62,-216.5 915.19,-214.88 905.1,-212.75 895.66,-210.6"/>
<polygon fill="#63b8ff" stroke="#63b8ff" points="1308.86,-264.82 1319.17,-262.34 1309.57,-257.86 1308.86,-264.82"/>
</a>
</g>
</g>
<!-- Node32&#45;&gt;Node26 -->
<g id="edge56_Node000032_Node000026" class="edge">
<title>Node32&#45;&gt;Node26</title>
<g id="a_edge56_Node000032_Node000026"><a xlink:title=" ">
<path fill="none" stroke="#63b8ff" d="M1390.7,-241.99C1396.38,-224.17 1400.15,-200.72 1389.62,-183 1377.06,-161.85 1352.48,-148.79 1331.47,-141.09"/>
<polygon fill="#63b8ff" stroke="#63b8ff" points="1387.1,-240.67 1387.02,-251.26 1393.69,-243.03 1387.1,-240.67"/>
</a>
</g>
</g>
<!-- Node32&#45;&gt;Node27 -->
<g id="edge57_Node000032_Node000027" class="edge">
<title>Node32&#45;&gt;Node27</title>
<g id="a_edge57_Node000032_Node000027"><a xlink:title=" ">
<path fill="none" stroke="#63b8ff" d="M1356.09,-244.54C1344.51,-232.87 1331.19,-219.45 1322.37,-210.57"/>
<polygon fill="#63b8ff" stroke="#63b8ff" points="1353.22,-246.62 1362.75,-251.25 1358.19,-241.69 1353.22,-246.62"/>
</a>
</g>
</g>
<!-- Node32&#45;&gt;Node29 -->
<g id="edge58_Node000032_Node000029" class="edge">
<title>Node32&#45;&gt;Node29</title>
<g id="a_edge58_Node000032_Node000029"><a xlink:title=" ">
<path fill="none" stroke="#63b8ff" d="M1423.55,-247.51C1449.64,-235.2 1481.5,-220.16 1501.92,-210.52"/>
<polygon fill="#63b8ff" stroke="#63b8ff" points="1422.43,-244.65 1414.88,-252.08 1425.41,-250.98 1422.43,-244.65"/>
</a>
</g>
</g>
<!-- Node32&#45;&gt;Node30 -->
<g id="edge59_Node000032_Node000030" class="edge">
<title>Node32&#45;&gt;Node30</title>
<g id="a_edge59_Node000032_Node000030"><a xlink:title=" ">
<path fill="none" stroke="#63b8ff" d="M1450.17,-259.2C1501.11,-251.05 1563.64,-237.15 1579.62,-216.5 1588.74,-204.73 1587.71,-195.5 1579.62,-183 1564.65,-159.83 1536.55,-146.94 1511.88,-139.81"/>
<polygon fill="#63b8ff" stroke="#63b8ff" points="1449.84,-255.87 1440.5,-260.86 1450.91,-262.79 1449.84,-255.87"/>
</a>
</g>
</g>
<!-- Node33 -->
<g id="Node000033" class="node">
<title>Node33</title>
<g id="a_Node000033"><a xlink:href="Sphere_8cpp.html" target="_top" xlink:title=" ">
<polygon fill="white" stroke="#666666" points="1745,-216.5 1626.25,-216.5 1626.25,-183 1745,-183 1745,-216.5"/>
<text text-anchor="start" x="1634.25" y="-203" font-family="Helvetica,sans-Serif" font-size="10.00">src/primitives/sphere</text>
<text text-anchor="middle" x="1685.62" y="-190.25" font-family="Helvetica,sans-Serif" font-size="10.00">/Sphere.cpp</text>
</a>
</g>
</g>
<!-- Node32&#45;&gt;Node33 -->
<g id="edge62_Node000032_Node000033" class="edge">
<title>Node32&#45;&gt;Node33</title>
<g id="a_edge62_Node000032_Node000033"><a xlink:title=" ">
<path fill="none" stroke="#63b8ff" d="M1450.06,-252.71C1503.23,-240.98 1575.4,-225.07 1625.79,-213.95"/>
<polygon fill="#63b8ff" stroke="#63b8ff" points="1449.36,-249.5 1440.35,-255.08 1450.87,-256.34 1449.36,-249.5"/>
</a>
</g>
</g>
</g>
</svg>
