<?xml version="1.0" encoding="UTF-8" standalone="no"?>
<!DOCTYPE svg PUBLIC "-//W3C//DTD SVG 1.1//EN"
 "http://www.w3.org/Graphics/SVG/1.1/DTD/svg11.dtd">
<!-- Generated by graphviz version 8.1.0 (20230707.0739)
 -->
<!-- Title: src/core/scene Pages: 1 -->
<svg width="317pt" height="138pt"
 viewBox="0.00 0.00 317.38 138.25" xmlns="http://www.w3.org/2000/svg" xmlns:xlink="http://www.w3.org/1999/xlink">
<g id="graph0" class="graph" transform="scale(1 1) rotate(0) translate(4 134.25)">
<title>src/core/scene</title>
<g id="clust1" class="cluster">
<title>clusterdir_aebb8dcc11953d78e620bbef0b9e2183</title>
<g id="a_clust1"><a xlink:href="dir_aebb8dcc11953d78e620bbef0b9e2183.html" target="_top" xlink:title="core">
<polygon fill="#edf0f7" stroke="#7f7f7f" stroke-dasharray="5,2" points="8,-8 8,-122.25 182,-122.25 182,-8 8,-8"/>
<text text-anchor="middle" x="95" y="-108.75" font-family="Helvetica,sans-Serif" font-size="10.00">core</text>
</a>
</g>
</g>
<!-- dir_707aa52d67938117542c6646238d6f70 -->
<g id="node1" class="node">
<title>dir_707aa52d67938117542c6646238d6f70</title>
<g id="a_node1"><a xlink:href="dir_707aa52d67938117542c6646238d6f70.html" target="_top" xlink:title="helpers">
<polygon fill="#a2b4d6" stroke="#404040" points="68,-36.75 16,-36.75 16,-16 68,-16 68,-36.75"/>
<text text-anchor="middle" x="42" y="-23.25" font-family="Helvetica,sans-Serif" font-size="10.00">helpers</text>
</a>
</g>
</g>
<!-- dir_ab48efd81a2f3614f2823df61996c271 -->
<g id="node2" class="node">
<title>dir_ab48efd81a2f3614f2823df61996c271</title>
<g id="a_node2"><a xlink:href="dir_ab48efd81a2f3614f2823df61996c271.html" target="_top" xlink:title="designPatterns">
<polygon fill="#a2b4d6" stroke="#404040" points="174,-36.75 86,-36.75 86,-16 174,-16 174,-36.75"/>
<text text-anchor="middle" x="130" y="-23.25" font-family="Helvetica,sans-Serif" font-size="10.00">designPatterns</text>
</a>
</g>
</g>
<!-- dir_12355b369e7660217f2146e44ab7e3e8 -->
<g id="node3" class="node">
<title>dir_12355b369e7660217f2146e44ab7e3e8</title>
<g id="a_node3"><a xlink:href="dir_12355b369e7660217f2146e44ab7e3e8.html" target="_top" xlink:title="scene">
<polygon fill="#edf0f7" stroke="#404040" stroke-width="2" points="163.25,-93.5 118.75,-93.5 118.75,-72.75 163.25,-72.75 163.25,-93.5"/>
<text text-anchor="middle" x="141" y="-80" font-family="Helvetica,sans-Serif" font-size="10.00">scene</text>
</a>
</g>
</g>
<!-- dir_12355b369e7660217f2146e44ab7e3e8&#45;&gt;dir_707aa52d67938117542c6646238d6f70 -->
<g id="edge3" class="edge">
<title>dir_12355b369e7660217f2146e44ab7e3e8&#45;&gt;dir_707aa52d67938117542c6646238d6f70</title>
<path fill="none" stroke="#63b8ff" d="M123.3,-72.34C108.24,-64.01 86.36,-51.91 69.09,-42.36"/>
<polygon fill="#63b8ff" stroke="#63b8ff" points="70.99,-38.86 60.55,-37.08 67.6,-44.98 70.99,-38.86"/>
<g id="a_edge3&#45;headlabel"><a xlink:href="dir_000015_000007.html" target="_top" xlink:title="2">
<text text-anchor="middle" x="74.51" y="-34.99" font-family="Helvetica,sans-Serif" font-size="10.00" fill="#63b8ff">2</text>
</a>
</g>
</g>
<!-- dir_12355b369e7660217f2146e44ab7e3e8&#45;&gt;dir_ab48efd81a2f3614f2823df61996c271 -->
<g id="edge4" class="edge">
<title>dir_12355b369e7660217f2146e44ab7e3e8&#45;&gt;dir_ab48efd81a2f3614f2823df61996c271</title>
<path fill="none" stroke="#63b8ff" d="M139.03,-72.34C137.66,-65.49 135.77,-56.09 134.07,-47.65"/>
<polygon fill="#63b8ff" stroke="#63b8ff" points="137.35,-47.19 131.95,-38.08 130.49,-48.57 137.35,-47.19"/>
<g id="a_edge4&#45;headlabel"><a xlink:href="dir_000015_000004.html" target="_top" xlink:title="1">
<text text-anchor="middle" x="140.84" y="-46.03" font-family="Helvetica,sans-Serif" font-size="10.00" fill="#63b8ff">1</text>
</a>
</g>
</g>
<!-- dir_34519bff5ae72130fe71a8620cbf1fc0 -->
<g id="node4" class="node">
<title>dir_34519bff5ae72130fe71a8620cbf1fc0</title>
<g id="a_node4"><a xlink:href="dir_34519bff5ae72130fe71a8620cbf1fc0.html" target="_top" xlink:title="camera">
<polygon fill="#edf0f7" stroke="#7f7f7f" points="244.38,-36.75 191.62,-36.75 191.62,-16 244.38,-16 244.38,-36.75"/>
<text text-anchor="middle" x="218" y="-23.25" font-family="Helvetica,sans-Serif" font-size="10.00">camera</text>
</a>
</g>
</g>
<!-- dir_12355b369e7660217f2146e44ab7e3e8&#45;&gt;dir_34519bff5ae72130fe71a8620cbf1fc0 -->
<g id="edge1" class="edge">
<title>dir_12355b369e7660217f2146e44ab7e3e8&#45;&gt;dir_34519bff5ae72130fe71a8620cbf1fc0</title>
<path fill="none" stroke="#63b8ff" d="M154.77,-72.34C166.04,-64.32 182.23,-52.81 195.41,-43.44"/>
<polygon fill="#63b8ff" stroke="#63b8ff" points="197.23,-45.73 203.35,-37.08 193.18,-40.02 197.23,-45.73"/>
<g id="a_edge1&#45;headlabel"><a xlink:href="dir_000015_000000.html" target="_top" xlink:title="1">
<text text-anchor="middle" x="196.95" y="-47" font-family="Helvetica,sans-Serif" font-size="10.00" fill="#63b8ff">1</text>
</a>
</g>
</g>
<!-- dir_6cd8491d143eb218b70983dbdb3c58bc -->
<g id="node5" class="node">
<title>dir_6cd8491d143eb218b70983dbdb3c58bc</title>
<g id="a_node5"><a xlink:href="dir_6cd8491d143eb218b70983dbdb3c58bc.html" target="_top" xlink:title="parser">
<polygon fill="#edf0f7" stroke="#7f7f7f" points="309.38,-36.75 262.62,-36.75 262.62,-16 309.38,-16 309.38,-36.75"/>
<text text-anchor="middle" x="286" y="-23.25" font-family="Helvetica,sans-Serif" font-size="10.00">parser</text>
</a>
</g>
</g>
<!-- dir_12355b369e7660217f2146e44ab7e3e8&#45;&gt;dir_6cd8491d143eb218b70983dbdb3c58bc -->
<g id="edge2" class="edge">
<title>dir_12355b369e7660217f2146e44ab7e3e8&#45;&gt;dir_6cd8491d143eb218b70983dbdb3c58bc</title>
<path fill="none" stroke="#63b8ff" d="M163.66,-73.57C187.42,-64.6 225.04,-50.39 252.29,-40.1"/>
<polygon fill="#63b8ff" stroke="#63b8ff" points="253.42,-43.04 261.54,-36.23 250.95,-36.49 253.42,-43.04"/>
<g id="a_edge2&#45;headlabel"><a xlink:href="dir_000015_000010.html" target="_top" xlink:title="2">
<text text-anchor="middle" x="252.06" y="-43.84" font-family="Helvetica,sans-Serif" font-size="10.00" fill="#63b8ff">2</text>
</a>
</g>
</g>
</g>
</svg>
