<?xml version="1.0" encoding="UTF-8" standalone="no"?>
<!DOCTYPE svg PUBLIC "-//W3C//DTD SVG 1.1//EN"
 "http://www.w3.org/Graphics/SVG/1.1/DTD/svg11.dtd">
<!-- Generated by graphviz version 8.1.0 (20230707.0739)
 -->
<!-- Title: src/core/error/Error.hpp Pages: 1 -->
<svg width="140pt" height="86pt"
 viewBox="0.00 0.00 139.50 85.50" xmlns="http://www.w3.org/2000/svg" xmlns:xlink="http://www.w3.org/1999/xlink">
<g id="graph0" class="graph" transform="scale(1 1) rotate(0) translate(4 81.5)">
<title>src/core/error/Error.hpp</title>
<!-- Node1 -->
<g id="Node000001" class="node">
<title>Node1</title>
<g id="a_Node000001"><a xlink:title=" ">
<polygon fill="#999999" stroke="#666666" points="131.5,-77.5 4.5,-77.5 4.5,-56.75 131.5,-56.75 131.5,-77.5"/>
<text text-anchor="middle" x="68" y="-64" font-family="Helvetica,sans-Serif" font-size="10.00">src/core/error/Error.hpp</text>
</a>
</g>
</g>
<!-- Node2 -->
<g id="Node000002" class="node">
<title>Node2</title>
<g id="a_Node000002"><a xlink:title=" ">
<polygon fill="#e0e0e0" stroke="#999999" points="64,-20.75 0,-20.75 0,0 64,0 64,-20.75"/>
<text text-anchor="middle" x="32" y="-7.25" font-family="Helvetica,sans-Serif" font-size="10.00">stdexcept</text>
</a>
</g>
</g>
<!-- Node1&#45;&gt;Node2 -->
<g id="edge1_Node000001_Node000002" class="edge">
<title>Node1&#45;&gt;Node2</title>
<g id="a_edge1_Node000001_Node000002"><a xlink:title=" ">
<path fill="none" stroke="#63b8ff" d="M61.56,-56.34C56.8,-49.1 50.17,-39.01 44.39,-30.22"/>
<polygon fill="#63b8ff" stroke="#63b8ff" points="46.8,-28.51 38.38,-22.08 40.95,-32.36 46.8,-28.51"/>
</a>
</g>
</g>
<!-- Node3 -->
<g id="Node000003" class="node">
<title>Node3</title>
<g id="a_Node000003"><a xlink:title=" ">
<polygon fill="#e0e0e0" stroke="#999999" points="125.88,-20.75 82.12,-20.75 82.12,0 125.88,0 125.88,-20.75"/>
<text text-anchor="middle" x="104" y="-7.25" font-family="Helvetica,sans-Serif" font-size="10.00">string</text>
</a>
</g>
</g>
<!-- Node1&#45;&gt;Node3 -->
<g id="edge2_Node000001_Node000003" class="edge">
<title>Node1&#45;&gt;Node3</title>
<g id="a_edge2_Node000001_Node000003"><a xlink:title=" ">
<path fill="none" stroke="#63b8ff" d="M74.44,-56.34C79.2,-49.1 85.83,-39.01 91.61,-30.22"/>
<polygon fill="#63b8ff" stroke="#63b8ff" points="95.05,-32.36 97.62,-22.08 89.2,-28.51 95.05,-32.36"/>
</a>
</g>
</g>
</g>
</svg>
