<?xml version="1.0" encoding="UTF-8" standalone="no"?>
<!DOCTYPE svg PUBLIC "-//W3C//DTD SVG 1.1//EN"
 "http://www.w3.org/Graphics/SVG/1.1/DTD/svg11.dtd">
<!-- Generated by graphviz version 8.1.0 (20230707.0739)
 -->
<!-- Title: src/core/error/Error.hpp Pages: 1 -->
<svg width="1838pt" height="578pt"
 viewBox="0.00 0.00 1837.89 577.75" xmlns="http://www.w3.org/2000/svg" xmlns:xlink="http://www.w3.org/1999/xlink">
<g id="graph0" class="graph" transform="scale(1 1) rotate(0) translate(4 573.75)">
<title>src/core/error/Error.hpp</title>
<!-- Node1 -->
<g id="Node000001" class="node">
<title>Node1</title>
<g id="a_Node000001"><a xlink:title=" ">
<polygon fill="#999999" stroke="#666666" points="214.5,-569.75 87.5,-569.75 87.5,-549 214.5,-549 214.5,-569.75"/>
<text text-anchor="middle" x="151" y="-556.25" font-family="Helvetica,sans-Serif" font-size="10.00">src/core/error/Error.hpp</text>
</a>
</g>
</g>
<!-- Node2 -->
<g id="Node000002" class="node">
<title>Node2</title>
<g id="a_Node000002"><a xlink:href="Main_8cpp.html" target="_top" xlink:title=" ">
<polygon fill="white" stroke="#666666" points="353.75,-20.75 252.25,-20.75 252.25,0 353.75,0 353.75,-20.75"/>
<text text-anchor="middle" x="303" y="-7.25" font-family="Helvetica,sans-Serif" font-size="10.00">src/core/Main.cpp</text>
</a>
</g>
</g>
<!-- Node1&#45;&gt;Node2 -->
<g id="edge1_Node000001_Node000002" class="edge">
<title>Node1&#45;&gt;Node2</title>
<g id="a_edge1_Node000001_Node000002"><a xlink:title=" ">
<path fill="none" stroke="#63b8ff" d="M103.36,-545.14C59.1,-529.6 0,-499.07 0,-446.88 0,-446.88 0,-446.88 0,-129.25 0,-75.84 165.59,-36.98 251.94,-20.34"/>
<polygon fill="#63b8ff" stroke="#63b8ff" points="102.08,-548.74 112.67,-548.59 104.3,-542.1 102.08,-548.74"/>
</a>
</g>
</g>
<!-- Node3 -->
<g id="Node000003" class="node">
<title>Node3</title>
<g id="a_Node000003"><a xlink:href="RayTracer_8hpp.html" target="_top" xlink:title=" ">
<polygon fill="white" stroke="#666666" points="761.75,-77.5 636.25,-77.5 636.25,-56.75 761.75,-56.75 761.75,-77.5"/>
<text text-anchor="middle" x="699" y="-64" font-family="Helvetica,sans-Serif" font-size="10.00">src/core/RayTracer.hpp</text>
</a>
</g>
</g>
<!-- Node1&#45;&gt;Node3 -->
<g id="edge2_Node000001_Node000003" class="edge">
<title>Node1&#45;&gt;Node3</title>
<g id="a_edge2_Node000001_Node000003"><a xlink:title=" ">
<path fill="none" stroke="#63b8ff" d="M118.98,-543.72C85.57,-525.97 38,-492.65 38,-446.88 38,-446.88 38,-446.88 38,-198.75 38,-138.18 470.7,-90.11 635.92,-73.97"/>
<polygon fill="#63b8ff" stroke="#63b8ff" points="116.91,-547.1 127.4,-548.52 120.08,-540.86 116.91,-547.1"/>
</a>
</g>
</g>
<!-- Node5 -->
<g id="Node000005" class="node">
<title>Node5</title>
<g id="a_Node000005"><a xlink:href="Factory_8cpp.html" target="_top" xlink:title=" ">
<polygon fill="white" stroke="#666666" points="1696.62,-147 1567.38,-147 1567.38,-113.5 1696.62,-113.5 1696.62,-147"/>
<text text-anchor="start" x="1575.38" y="-133.5" font-family="Helvetica,sans-Serif" font-size="10.00">src/core/designPatterns</text>
<text text-anchor="middle" x="1632" y="-120.75" font-family="Helvetica,sans-Serif" font-size="10.00">/Factory.cpp</text>
</a>
</g>
</g>
<!-- Node1&#45;&gt;Node5 -->
<g id="edge5_Node000001_Node000005" class="edge">
<title>Node1&#45;&gt;Node5</title>
<g id="a_edge5_Node000001_Node000005"><a xlink:title=" ">
<path fill="none" stroke="#63b8ff" d="M225.66,-557.38C550.91,-552.54 1828,-528.36 1828,-446.88 1828,-446.88 1828,-446.88 1828,-268.25 1828,-229.43 1835.54,-211.33 1809,-183 1780.33,-152.39 1734.65,-139.56 1696.88,-134.32"/>
<polygon fill="#63b8ff" stroke="#63b8ff" points="225.89,-553.89 215.95,-557.53 226,-560.89 225.89,-553.89"/>
</a>
</g>
</g>
<!-- Node6 -->
<g id="Node000006" class="node">
<title>Node6</title>
<g id="a_Node000006"><a xlink:href="Matrix_8hpp.html" target="_top" xlink:title=" ">
<polygon fill="white" stroke="#666666" points="333.12,-513 194.88,-513 194.88,-492.25 333.12,-492.25 333.12,-513"/>
<text text-anchor="middle" x="264" y="-499.5" font-family="Helvetica,sans-Serif" font-size="10.00">src/core/math/Matrix.hpp</text>
</a>
</g>
</g>
<!-- Node1&#45;&gt;Node6 -->
<g id="edge6_Node000001_Node000006" class="edge">
<title>Node1&#45;&gt;Node6</title>
<g id="a_edge6_Node000001_Node000006"><a xlink:title=" ">
<path fill="none" stroke="#63b8ff" d="M181.02,-543.83C200.93,-534.18 226.51,-521.79 243.97,-513.33"/>
<polygon fill="#63b8ff" stroke="#63b8ff" points="179.68,-541.08 172.2,-548.59 182.73,-547.38 179.68,-541.08"/>
</a>
</g>
</g>
<!-- Node3&#45;&gt;Node2 -->
<g id="edge3_Node000003_Node000002" class="edge">
<title>Node3&#45;&gt;Node2</title>
<g id="a_edge3_Node000003_Node000002"><a xlink:title=" ">
<path fill="none" stroke="#63b8ff" d="M624.97,-55.89C545.94,-44.96 422.84,-27.94 354,-18.43"/>
<polygon fill="#63b8ff" stroke="#63b8ff" points="624.43,-59.49 634.81,-57.39 625.39,-52.55 624.43,-59.49"/>
</a>
</g>
</g>
<!-- Node4 -->
<g id="Node000004" class="node">
<title>Node4</title>
<g id="a_Node000004"><a xlink:href="RayTracer_8cpp.html" target="_top" xlink:title=" ">
<polygon fill="white" stroke="#666666" points="761.38,-20.75 636.62,-20.75 636.62,0 761.38,0 761.38,-20.75"/>
<text text-anchor="middle" x="699" y="-7.25" font-family="Helvetica,sans-Serif" font-size="10.00">src/core/RayTracer.cpp</text>
</a>
</g>
</g>
<!-- Node3&#45;&gt;Node4 -->
<g id="edge4_Node000003_Node000004" class="edge">
<title>Node3&#45;&gt;Node4</title>
<g id="a_edge4_Node000003_Node000004"><a xlink:title=" ">
<path fill="none" stroke="#63b8ff" d="M699,-45.46C699,-37.09 699,-27.83 699,-21.08"/>
<polygon fill="#63b8ff" stroke="#63b8ff" points="695.5,-45.34 699,-55.34 702.5,-45.34 695.5,-45.34"/>
</a>
</g>
</g>
<!-- Node7 -->
<g id="Node000007" class="node">
<title>Node7</title>
<g id="a_Node000007"><a xlink:href="Camera_8hpp.html" target="_top" xlink:title=" ">
<polygon fill="white" stroke="#666666" points="330.12,-279.62 197.88,-279.62 197.88,-258.88 330.12,-258.88 330.12,-279.62"/>
<text text-anchor="middle" x="264" y="-266.12" font-family="Helvetica,sans-Serif" font-size="10.00">src/camera/Camera.hpp</text>
</a>
</g>
</g>
<!-- Node6&#45;&gt;Node7 -->
<g id="edge7_Node000006_Node000007" class="edge">
<title>Node6&#45;&gt;Node7</title>
<g id="a_edge7_Node000006_Node000007"><a xlink:title=" ">
<path fill="none" stroke="#63b8ff" d="M264,-481.13C264,-433.09 264,-314.62 264,-279.94"/>
<polygon fill="#63b8ff" stroke="#63b8ff" points="260.5,-480.98 264,-490.98 267.5,-480.98 260.5,-480.98"/>
</a>
</g>
</g>
<!-- Node17 -->
<g id="Node000017" class="node">
<title>Node17</title>
<g id="a_Node000017"><a xlink:href="IPrimitive_8hpp.html" target="_top" xlink:title=" ">
<polygon fill="white" stroke="#666666" points="1131,-456.25 977,-456.25 977,-435.5 1131,-435.5 1131,-456.25"/>
<text text-anchor="middle" x="1054" y="-442.75" font-family="Helvetica,sans-Serif" font-size="10.00">src/primitives/IPrimitive.hpp</text>
</a>
</g>
</g>
<!-- Node6&#45;&gt;Node17 -->
<g id="edge23_Node000006_Node000017" class="edge">
<title>Node6&#45;&gt;Node17</title>
<g id="a_edge23_Node000006_Node000017"><a xlink:title=" ">
<path fill="none" stroke="#63b8ff" d="M344.08,-496.08C496.48,-485.51 826.41,-462.65 976.66,-452.24"/>
<polygon fill="#63b8ff" stroke="#63b8ff" points="344.15,-492.63 334.41,-496.81 344.63,-499.61 344.15,-492.63"/>
</a>
</g>
</g>
<!-- Node8 -->
<g id="Node000008" class="node">
<title>Node8</title>
<g id="a_Node000008"><a xlink:href="paser_2Scene_8hpp.html" target="_top" xlink:title=" ">
<polygon fill="white" stroke="#666666" points="388.12,-210.12 291.88,-210.12 291.88,-189.38 388.12,-189.38 388.12,-210.12"/>
<text text-anchor="middle" x="340" y="-196.62" font-family="Helvetica,sans-Serif" font-size="10.00">paser/Scene.hpp</text>
</a>
</g>
</g>
<!-- Node7&#45;&gt;Node8 -->
<g id="edge8_Node000007_Node000008" class="edge">
<title>Node7&#45;&gt;Node8</title>
<g id="a_edge8_Node000007_Node000008"><a xlink:title=" ">
<path fill="none" stroke="#63b8ff" d="M282.74,-251.61C297.22,-238.75 316.78,-221.37 328.88,-210.62"/>
<polygon fill="#63b8ff" stroke="#63b8ff" points="281.04,-248.32 275.89,-257.58 285.69,-253.56 281.04,-248.32"/>
</a>
</g>
</g>
<!-- Node9 -->
<g id="Node000009" class="node">
<title>Node9</title>
<g id="a_Node000009"><a xlink:href="parse_8cpp.html" target="_top" xlink:title=" ">
<polygon fill="white" stroke="#666666" points="423.62,-77.5 330.38,-77.5 330.38,-56.75 423.62,-56.75 423.62,-77.5"/>
<text text-anchor="middle" x="377" y="-64" font-family="Helvetica,sans-Serif" font-size="10.00">paser/parse.cpp</text>
</a>
</g>
</g>
<!-- Node7&#45;&gt;Node9 -->
<g id="edge12_Node000007_Node000009" class="edge">
<title>Node7&#45;&gt;Node9</title>
<g id="a_edge12_Node000007_Node000009"><a xlink:title=" ">
<path fill="none" stroke="#63b8ff" d="M187.1,-257.58C130.37,-246.19 67.47,-223.95 95,-183 147.8,-104.47 264.64,-79.6 330.14,-71.74"/>
<polygon fill="#63b8ff" stroke="#63b8ff" points="186.12,-261.15 196.59,-259.58 187.43,-254.27 186.12,-261.15"/>
</a>
</g>
</g>
<!-- Node11 -->
<g id="Node000011" class="node">
<title>Node11</title>
<g id="a_Node000011"><a xlink:href="Camera_8cpp.html" target="_top" xlink:title=" ">
<polygon fill="white" stroke="#666666" points="235.75,-210.12 104.25,-210.12 104.25,-189.38 235.75,-189.38 235.75,-210.12"/>
<text text-anchor="middle" x="170" y="-196.62" font-family="Helvetica,sans-Serif" font-size="10.00">src/camera/Camera.cpp</text>
</a>
</g>
</g>
<!-- Node7&#45;&gt;Node11 -->
<g id="edge13_Node000007_Node000011" class="edge">
<title>Node7&#45;&gt;Node11</title>
<g id="a_edge13_Node000007_Node000011"><a xlink:title=" ">
<path fill="none" stroke="#63b8ff" d="M241.82,-252.33C223.82,-239.4 199,-221.57 183.75,-210.62"/>
<polygon fill="#63b8ff" stroke="#63b8ff" points="239.37,-255.59 249.53,-258.58 243.45,-249.9 239.37,-255.59"/>
</a>
</g>
</g>
<!-- Node12 -->
<g id="Node000012" class="node">
<title>Node12</title>
<g id="a_Node000012"><a xlink:href="src_2core_2scene_2Scene_8hpp.html" target="_top" xlink:title=" ">
<polygon fill="white" stroke="#666666" points="1184.5,-140.62 1045.5,-140.62 1045.5,-119.88 1184.5,-119.88 1184.5,-140.62"/>
<text text-anchor="middle" x="1115" y="-127.12" font-family="Helvetica,sans-Serif" font-size="10.00">src/core/scene/Scene.hpp</text>
</a>
</g>
</g>
<!-- Node7&#45;&gt;Node12 -->
<g id="edge14_Node000007_Node000012" class="edge">
<title>Node7&#45;&gt;Node12</title>
<g id="a_edge14_Node000007_Node000012"><a xlink:title=" ">
<path fill="none" stroke="#63b8ff" d="M262.18,-247.5C261.71,-227.67 264.57,-198.55 283,-183 343.79,-131.7 918.79,-154.31 998,-147 1014.63,-145.46 1032.53,-143.31 1049.21,-141.09"/>
<polygon fill="#63b8ff" stroke="#63b8ff" points="258.74,-247.66 262.8,-257.45 265.73,-247.27 258.74,-247.66"/>
</a>
</g>
</g>
<!-- Node15 -->
<g id="Node000015" class="node">
<title>Node15</title>
<g id="a_Node000015"><a xlink:href="Parser_8hpp.html" target="_top" xlink:title=" ">
<polygon fill="white" stroke="#666666" points="1222.62,-210.12 1105.38,-210.12 1105.38,-189.38 1222.62,-189.38 1222.62,-210.12"/>
<text text-anchor="middle" x="1164" y="-196.62" font-family="Helvetica,sans-Serif" font-size="10.00">src/parser/Parser.hpp</text>
</a>
</g>
</g>
<!-- Node7&#45;&gt;Node15 -->
<g id="edge18_Node000007_Node000015" class="edge">
<title>Node7&#45;&gt;Node15</title>
<g id="a_edge18_Node000007_Node000015"><a xlink:title=" ">
<path fill="none" stroke="#63b8ff" d="M341.2,-264.2C533.47,-254.01 1023.53,-227.34 1097,-216.5 1106.81,-215.05 1117.3,-212.89 1127,-210.62"/>
<polygon fill="#63b8ff" stroke="#63b8ff" points="341.15,-260.75 331.35,-264.77 341.52,-267.74 341.15,-260.75"/>
</a>
</g>
</g>
<!-- Node8&#45;&gt;Node9 -->
<g id="edge9_Node000008_Node000009" class="edge">
<title>Node8&#45;&gt;Node9</title>
<g id="a_edge9_Node000008_Node000009"><a xlink:title=" ">
<path fill="none" stroke="#63b8ff" d="M343.61,-178.3C346.92,-160.88 352.3,-135.28 359,-113.5 362.89,-100.86 368.72,-86.78 372.69,-77.7"/>
<polygon fill="#63b8ff" stroke="#63b8ff" points="340.03,-177.44 341.67,-187.9 346.92,-178.7 340.03,-177.44"/>
</a>
</g>
</g>
<!-- Node10 -->
<g id="Node000010" class="node">
<title>Node10</title>
<g id="a_Node000010"><a xlink:href="parse_8hpp.html" target="_top" xlink:title=" ">
<polygon fill="white" stroke="#666666" points="462,-140.62 368,-140.62 368,-119.88 462,-119.88 462,-140.62"/>
<text text-anchor="middle" x="415" y="-127.12" font-family="Helvetica,sans-Serif" font-size="10.00">paser/parse.hpp</text>
</a>
</g>
</g>
<!-- Node8&#45;&gt;Node10 -->
<g id="edge10_Node000008_Node000010" class="edge">
<title>Node8&#45;&gt;Node10</title>
<g id="a_edge10_Node000008_Node000010"><a xlink:title=" ">
<path fill="none" stroke="#63b8ff" d="M358.54,-182.07C372.92,-169.12 392.36,-151.62 404.27,-140.9"/>
<polygon fill="#63b8ff" stroke="#63b8ff" points="356.84,-178.79 351.75,-188.08 361.52,-183.99 356.84,-178.79"/>
</a>
</g>
</g>
<!-- Node10&#45;&gt;Node9 -->
<g id="edge11_Node000010_Node000009" class="edge">
<title>Node10&#45;&gt;Node9</title>
<g id="a_edge11_Node000010_Node000009"><a xlink:title=" ">
<path fill="none" stroke="#63b8ff" d="M403.24,-110.34C396.52,-99.53 388.38,-86.43 382.96,-77.72"/>
<polygon fill="#63b8ff" stroke="#63b8ff" points="400.64,-111.78 408.89,-118.43 406.59,-108.09 400.64,-111.78"/>
</a>
</g>
</g>
<!-- Node12&#45;&gt;Node3 -->
<g id="edge15_Node000012_Node000003" class="edge">
<title>Node12&#45;&gt;Node3</title>
<g id="a_edge15_Node000012_Node000003"><a xlink:title=" ">
<path fill="none" stroke="#63b8ff" d="M1054.3,-117.5C1046.47,-116.09 1038.55,-114.72 1031,-113.5 937.68,-98.38 829.06,-84.18 762.17,-75.81"/>
<polygon fill="#63b8ff" stroke="#63b8ff" points="1053.41,-121.08 1063.88,-119.43 1054.67,-114.19 1053.41,-121.08"/>
</a>
</g>
</g>
<!-- Node13 -->
<g id="Node000013" class="node">
<title>Node13</title>
<g id="a_Node000013"><a xlink:href="Image_8cpp.html" target="_top" xlink:title="Implémentation des méthodes de la classe Image pour gestion d&#39;image et affichage.">
<polygon fill="white" stroke="#666666" points="1282.88,-77.5 1143.12,-77.5 1143.12,-56.75 1282.88,-56.75 1282.88,-77.5"/>
<text text-anchor="middle" x="1213" y="-64" font-family="Helvetica,sans-Serif" font-size="10.00">src/core/scene/Image.cpp</text>
</a>
</g>
</g>
<!-- Node12&#45;&gt;Node13 -->
<g id="edge16_Node000012_Node000013" class="edge">
<title>Node12&#45;&gt;Node13</title>
<g id="a_edge16_Node000012_Node000013"><a xlink:title=" ">
<path fill="none" stroke="#63b8ff" d="M1139.59,-113.92C1157.68,-102.63 1181.73,-87.63 1197.29,-77.92"/>
<polygon fill="#63b8ff" stroke="#63b8ff" points="1138.38,-111.17 1131.75,-119.43 1142.08,-117.11 1138.38,-111.17"/>
</a>
</g>
</g>
<!-- Node14 -->
<g id="Node000014" class="node">
<title>Node14</title>
<g id="a_Node000014"><a xlink:href="Scene_8cpp.html" target="_top" xlink:title=" ">
<polygon fill="white" stroke="#666666" points="1125.12,-77.5 986.88,-77.5 986.88,-56.75 1125.12,-56.75 1125.12,-77.5"/>
<text text-anchor="middle" x="1056" y="-64" font-family="Helvetica,sans-Serif" font-size="10.00">src/core/scene/Scene.cpp</text>
</a>
</g>
</g>
<!-- Node12&#45;&gt;Node14 -->
<g id="edge17_Node000012_Node000014" class="edge">
<title>Node12&#45;&gt;Node14</title>
<g id="a_edge17_Node000012_Node000014"><a xlink:title=" ">
<path fill="none" stroke="#63b8ff" d="M1098.01,-111.65C1087.35,-100.6 1074.01,-86.79 1065.26,-77.72"/>
<polygon fill="#63b8ff" stroke="#63b8ff" points="1095.06,-113.66 1104.52,-118.43 1100.09,-108.8 1095.06,-113.66"/>
</a>
</g>
</g>
<!-- Node15&#45;&gt;Node3 -->
<g id="edge19_Node000015_Node000003" class="edge">
<title>Node15&#45;&gt;Node3</title>
<g id="a_edge19_Node000015_Node000003"><a xlink:title=" ">
<path fill="none" stroke="#63b8ff" d="M1121.75,-185.4C1096.23,-176.42 1063.61,-163.25 1037,-147 1017.5,-135.09 1018.77,-123.03 998,-113.5 921.88,-78.58 824.55,-69.56 761.98,-67.72"/>
<polygon fill="#63b8ff" stroke="#63b8ff" points="1120.26,-188.94 1130.85,-188.88 1122.53,-182.32 1120.26,-188.94"/>
</a>
</g>
</g>
<!-- Node15&#45;&gt;Node12 -->
<g id="edge21_Node000015_Node000012" class="edge">
<title>Node15&#45;&gt;Node12</title>
<g id="a_edge21_Node000015_Node000012"><a xlink:title=" ">
<path fill="none" stroke="#63b8ff" d="M1150.55,-180.22C1141.31,-167.5 1129.43,-151.12 1122.01,-140.9"/>
<polygon fill="#63b8ff" stroke="#63b8ff" points="1148.27,-182.04 1156.98,-188.08 1153.94,-177.93 1148.27,-182.04"/>
</a>
</g>
</g>
<!-- Node15&#45;&gt;Node13 -->
<g id="edge20_Node000015_Node000013" class="edge">
<title>Node15&#45;&gt;Node13</title>
<g id="a_edge20_Node000015_Node000013"><a xlink:title=" ">
<path fill="none" stroke="#63b8ff" d="M1176.67,-179.95C1182.63,-170.41 1189.42,-158.45 1194,-147 1203.58,-123.07 1209.17,-93.05 1211.58,-77.87"/>
<polygon fill="#63b8ff" stroke="#63b8ff" points="1173.38,-177.59 1170.89,-187.88 1179.26,-181.39 1173.38,-177.59"/>
</a>
</g>
</g>
<!-- Node16 -->
<g id="Node000016" class="node">
<title>Node16</title>
<g id="a_Node000016"><a xlink:href="Parser_8cpp.html" target="_top" xlink:title="Implémentation des fonctions de parsing des configurations pour la caméra, primitives,...">
<polygon fill="white" stroke="#666666" points="989.25,-140.62 872.75,-140.62 872.75,-119.88 989.25,-119.88 989.25,-140.62"/>
<text text-anchor="middle" x="931" y="-127.12" font-family="Helvetica,sans-Serif" font-size="10.00">src/parser/Parser.cpp</text>
</a>
</g>
</g>
<!-- Node15&#45;&gt;Node16 -->
<g id="edge22_Node000015_Node000016" class="edge">
<title>Node15&#45;&gt;Node16</title>
<g id="a_edge22_Node000015_Node000016"><a xlink:title=" ">
<path fill="none" stroke="#63b8ff" d="M1119.77,-185.94C1074.72,-172.89 1005.84,-152.93 964.92,-141.08"/>
<polygon fill="#63b8ff" stroke="#63b8ff" points="1118.54,-189.51 1129.12,-188.93 1120.49,-182.79 1118.54,-189.51"/>
</a>
</g>
</g>
<!-- Node18 -->
<g id="Node000018" class="node">
<title>Node18</title>
<g id="a_Node000018"><a xlink:href="Factory_8hpp.html" target="_top" xlink:title=" ">
<polygon fill="white" stroke="#666666" points="1500.62,-216.5 1371.38,-216.5 1371.38,-183 1500.62,-183 1500.62,-216.5"/>
<text text-anchor="start" x="1379.38" y="-203" font-family="Helvetica,sans-Serif" font-size="10.00">src/core/designPatterns</text>
<text text-anchor="middle" x="1436" y="-190.25" font-family="Helvetica,sans-Serif" font-size="10.00">/Factory.hpp</text>
</a>
</g>
</g>
<!-- Node17&#45;&gt;Node18 -->
<g id="edge24_Node000017_Node000018" class="edge">
<title>Node17&#45;&gt;Node18</title>
<g id="a_edge24_Node000017_Node000018"><a xlink:title=" ">
<path fill="none" stroke="#63b8ff" d="M1129.09,-433.3C1259.31,-411.46 1517.86,-359.64 1567,-286 1575.26,-273.61 1575.37,-264.81 1567,-252.5 1558.2,-239.56 1525.45,-226.62 1494.9,-216.92"/>
<polygon fill="#63b8ff" stroke="#63b8ff" points="1128.71,-429.98 1119.42,-435.07 1129.86,-436.89 1128.71,-429.98"/>
</a>
</g>
</g>
<!-- Node19 -->
<g id="Node000019" class="node">
<title>Node19</title>
<g id="a_Node000019"><a xlink:href="World_8hpp.html" target="_top" xlink:title=" ">
<polygon fill="white" stroke="#666666" points="1246.5,-399.5 1101.5,-399.5 1101.5,-378.75 1246.5,-378.75 1246.5,-399.5"/>
<text text-anchor="middle" x="1174" y="-386" font-family="Helvetica,sans-Serif" font-size="10.00">src/core/helpers/World.hpp</text>
</a>
</g>
</g>
<!-- Node17&#45;&gt;Node19 -->
<g id="edge27_Node000017_Node000019" class="edge">
<title>Node17&#45;&gt;Node19</title>
<g id="a_edge27_Node000017_Node000019"><a xlink:title=" ">
<path fill="none" stroke="#63b8ff" d="M1085.3,-430.59C1106.53,-420.91 1134.02,-408.37 1152.73,-399.83"/>
<polygon fill="#63b8ff" stroke="#63b8ff" points="1084.1,-427.75 1076.45,-435.09 1087,-434.12 1084.1,-427.75"/>
</a>
</g>
</g>
<!-- Node20 -->
<g id="Node000020" class="node">
<title>Node20</title>
<g id="a_Node000020"><a xlink:href="ILight_8hpp.html" target="_top" xlink:title=" ">
<polygon fill="white" stroke="#666666" points="1229.62,-342.75 1118.38,-342.75 1118.38,-322 1229.62,-322 1229.62,-342.75"/>
<text text-anchor="middle" x="1174" y="-329.25" font-family="Helvetica,sans-Serif" font-size="10.00">src/lights/ILight.hpp</text>
</a>
</g>
</g>
<!-- Node17&#45;&gt;Node20 -->
<g id="edge39_Node000017_Node000020" class="edge">
<title>Node17&#45;&gt;Node20</title>
<g id="a_edge39_Node000017_Node000020"><a xlink:title=" ">
<path fill="none" stroke="#63b8ff" d="M1062.06,-425.52C1068.74,-411.26 1079.33,-392.12 1093,-378.75 1109.13,-362.97 1131.85,-350.88 1149.12,-343.16"/>
<polygon fill="#63b8ff" stroke="#63b8ff" points="1058.58,-423.73 1057.74,-434.29 1064.99,-426.56 1058.58,-423.73"/>
</a>
</g>
</g>
<!-- Node25 -->
<g id="Node000025" class="node">
<title>Node25</title>
<g id="a_Node000025"><a xlink:href="Cone_8hpp.html" target="_top" xlink:title=" ">
<polygon fill="white" stroke="#666666" points="1089.5,-286 980.5,-286 980.5,-252.5 1089.5,-252.5 1089.5,-286"/>
<text text-anchor="start" x="988.5" y="-272.5" font-family="Helvetica,sans-Serif" font-size="10.00">src/primitives/cone</text>
<text text-anchor="middle" x="1035" y="-259.75" font-family="Helvetica,sans-Serif" font-size="10.00">/Cone.hpp</text>
</a>
</g>
</g>
<!-- Node17&#45;&gt;Node25 -->
<g id="edge40_Node000017_Node000025" class="edge">
<title>Node17&#45;&gt;Node25</title>
<g id="a_edge40_Node000017_Node000025"><a xlink:title=" ">
<path fill="none" stroke="#63b8ff" d="M1051.78,-424.44C1047.96,-389.33 1040.22,-318.26 1036.75,-286.38"/>
<polygon fill="#63b8ff" stroke="#63b8ff" points="1048.39,-424.67 1052.95,-434.24 1055.35,-423.92 1048.39,-424.67"/>
</a>
</g>
</g>
<!-- Node27 -->
<g id="Node000027" class="node">
<title>Node27</title>
<g id="a_Node000027"><a xlink:href="Cylinder_8hpp.html" target="_top" xlink:title=" ">
<polygon fill="white" stroke="#666666" points="1558.38,-286 1433.62,-286 1433.62,-252.5 1558.38,-252.5 1558.38,-286"/>
<text text-anchor="start" x="1441.62" y="-272.5" font-family="Helvetica,sans-Serif" font-size="10.00">src/primitives/cylinder</text>
<text text-anchor="middle" x="1496" y="-259.75" font-family="Helvetica,sans-Serif" font-size="10.00">/Cylinder.hpp</text>
</a>
</g>
</g>
<!-- Node17&#45;&gt;Node27 -->
<g id="edge44_Node000017_Node000027" class="edge">
<title>Node17&#45;&gt;Node27</title>
<g id="a_edge44_Node000017_Node000027"><a xlink:title=" ">
<path fill="none" stroke="#63b8ff" d="M1129.18,-433.05C1167.81,-425.71 1215.22,-414.73 1256,-399.5 1339.12,-368.45 1429.23,-313.55 1471.5,-286.39"/>
<polygon fill="#63b8ff" stroke="#63b8ff" points="1128.72,-429.76 1119.53,-435.02 1130,-436.64 1128.72,-429.76"/>
</a>
</g>
</g>
<!-- Node29 -->
<g id="Node000029" class="node">
<title>Node29</title>
<g id="a_Node000029"><a xlink:href="Plane_8hpp.html" target="_top" xlink:title=" ">
<polygon fill="white" stroke="#666666" points="711.38,-286 598.62,-286 598.62,-252.5 711.38,-252.5 711.38,-286"/>
<text text-anchor="start" x="606.62" y="-272.5" font-family="Helvetica,sans-Serif" font-size="10.00">src/primitives/plane</text>
<text text-anchor="middle" x="655" y="-259.75" font-family="Helvetica,sans-Serif" font-size="10.00">/Plane.hpp</text>
</a>
</g>
</g>
<!-- Node17&#45;&gt;Node29 -->
<g id="edge48_Node000017_Node000029" class="edge">
<title>Node17&#45;&gt;Node29</title>
<g id="a_edge48_Node000017_Node000029"><a xlink:title=" ">
<path fill="none" stroke="#63b8ff" d="M1021.66,-430.72C948.32,-398.62 769.72,-320.46 692.07,-286.47"/>
<polygon fill="#63b8ff" stroke="#63b8ff" points="1020.13,-434.31 1030.69,-435.11 1022.94,-427.9 1020.13,-434.31"/>
</a>
</g>
</g>
<!-- Node33 -->
<g id="Node000033" class="node">
<title>Node33</title>
<g id="a_Node000033"><a xlink:href="Sphere_8hpp.html" target="_top" xlink:title=" ">
<polygon fill="white" stroke="#666666" points="867.38,-286 748.62,-286 748.62,-252.5 867.38,-252.5 867.38,-286"/>
<text text-anchor="start" x="756.62" y="-272.5" font-family="Helvetica,sans-Serif" font-size="10.00">src/primitives/sphere</text>
<text text-anchor="middle" x="808" y="-259.75" font-family="Helvetica,sans-Serif" font-size="10.00">/Sphere.hpp</text>
</a>
</g>
</g>
<!-- Node17&#45;&gt;Node33 -->
<g id="edge58_Node000017_Node000033" class="edge">
<title>Node17&#45;&gt;Node33</title>
<g id="a_edge58_Node000017_Node000033"><a xlink:title=" ">
<path fill="none" stroke="#63b8ff" d="M1031.69,-429.04C985.05,-395.93 877.7,-319.73 830.72,-286.38"/>
<polygon fill="#63b8ff" stroke="#63b8ff" points="1029.24,-432.3 1039.42,-435.24 1033.3,-426.6 1029.24,-432.3"/>
</a>
</g>
</g>
<!-- Node18&#45;&gt;Node5 -->
<g id="edge25_Node000018_Node000005" class="edge">
<title>Node18&#45;&gt;Node5</title>
<g id="a_edge25_Node000018_Node000005"><a xlink:title=" ">
<path fill="none" stroke="#63b8ff" d="M1493.02,-179.11C1522.27,-169.04 1557.45,-156.92 1585.1,-147.4"/>
<polygon fill="#63b8ff" stroke="#63b8ff" points="1492.26,-176.02 1483.95,-182.58 1494.54,-182.64 1492.26,-176.02"/>
</a>
</g>
</g>
<!-- Node18&#45;&gt;Node12 -->
<g id="edge26_Node000018_Node000012" class="edge">
<title>Node18&#45;&gt;Node12</title>
<g id="a_edge26_Node000018_Node000012"><a xlink:title=" ">
<path fill="none" stroke="#63b8ff" d="M1360.42,-182.67C1285.15,-166.79 1209.36,-150.94 1161.9,-141.03"/>
<polygon fill="#63b8ff" stroke="#63b8ff" points="1359.52,-186.27 1370.03,-184.91 1360.97,-179.42 1359.52,-186.27"/>
</a>
</g>
</g>
<!-- Node19&#45;&gt;Node20 -->
<g id="edge28_Node000019_Node000020" class="edge">
<title>Node19&#45;&gt;Node20</title>
<g id="a_edge28_Node000019_Node000020"><a xlink:title=" ">
<path fill="none" stroke="#63b8ff" d="M1167.43,-367.46C1166.97,-359.09 1167.39,-349.83 1168.7,-343.08"/>
<polygon fill="#63b8ff" stroke="#63b8ff" points="1164.06,-367.8 1168.68,-377.34 1171.02,-367 1164.06,-367.8"/>
</a>
</g>
</g>
<!-- Node20&#45;&gt;Node18 -->
<g id="edge29_Node000020_Node000018" class="edge">
<title>Node20&#45;&gt;Node18</title>
<g id="a_edge29_Node000020_Node000018"><a xlink:title=" ">
<path fill="none" stroke="#63b8ff" d="M1194.28,-314.8C1204.7,-306.25 1217.57,-295.62 1229,-286 1246.48,-271.28 1247.99,-263.54 1268,-252.5 1299.93,-234.88 1338.66,-222.43 1370.88,-214.17"/>
<polygon fill="#63b8ff" stroke="#63b8ff" points="1192.37,-312.66 1186.86,-321.71 1196.81,-318.08 1192.37,-312.66"/>
</a>
</g>
</g>
<!-- Node20&#45;&gt;Node19 -->
<g id="edge30_Node000020_Node000019" class="edge">
<title>Node20&#45;&gt;Node19</title>
<g id="a_edge30_Node000020_Node000019"><a xlink:title=" ">
<path fill="none" stroke="#63b8ff" d="M1180.56,-353.94C1181.03,-362.3 1180.62,-371.56 1179.32,-378.34"/>
<polygon fill="#63b8ff" stroke="#63b8ff" points="1183.93,-353.61 1179.3,-344.08 1176.98,-354.42 1183.93,-353.61"/>
</a>
</g>
</g>
<!-- Node21 -->
<g id="Node000021" class="node">
<title>Node21</title>
<g id="a_Node000021"><a xlink:href="DirectionalLight_8hpp.html" target="_top" xlink:title=" ">
<polygon fill="white" stroke="#666666" points="1415.5,-286 1276.5,-286 1276.5,-252.5 1415.5,-252.5 1415.5,-286"/>
<text text-anchor="start" x="1284.5" y="-272.5" font-family="Helvetica,sans-Serif" font-size="10.00">src/lights/directionalLight</text>
<text text-anchor="middle" x="1346" y="-259.75" font-family="Helvetica,sans-Serif" font-size="10.00">/DirectionalLight.hpp</text>
</a>
</g>
</g>
<!-- Node20&#45;&gt;Node21 -->
<g id="edge31_Node000020_Node000021" class="edge">
<title>Node20&#45;&gt;Node21</title>
<g id="a_edge31_Node000020_Node000021"><a xlink:title=" ">
<path fill="none" stroke="#63b8ff" d="M1211.87,-317.92C1237.94,-308.65 1272.71,-296.3 1300.32,-286.48"/>
<polygon fill="#63b8ff" stroke="#63b8ff" points="1210.89,-314.91 1202.63,-321.55 1213.23,-321.5 1210.89,-314.91"/>
</a>
</g>
</g>
<!-- Node23 -->
<g id="Node000023" class="node">
<title>Node23</title>
<g id="a_Node000023"><a xlink:href="PointLight_8hpp.html" target="_top" xlink:title=" ">
<polygon fill="white" stroke="#666666" points="1220,-286 1108,-286 1108,-252.5 1220,-252.5 1220,-286"/>
<text text-anchor="start" x="1116" y="-272.5" font-family="Helvetica,sans-Serif" font-size="10.00">src/lights/pointLight</text>
<text text-anchor="middle" x="1164" y="-259.75" font-family="Helvetica,sans-Serif" font-size="10.00">/PointLight.hpp</text>
</a>
</g>
</g>
<!-- Node20&#45;&gt;Node23 -->
<g id="edge35_Node000020_Node000023" class="edge">
<title>Node20&#45;&gt;Node23</title>
<g id="a_edge35_Node000020_Node000023"><a xlink:title=" ">
<path fill="none" stroke="#63b8ff" d="M1170.65,-310.93C1169.35,-302.97 1167.88,-293.98 1166.66,-286.48"/>
<polygon fill="#63b8ff" stroke="#63b8ff" points="1167.32,-311.25 1172.39,-320.55 1174.23,-310.12 1167.32,-311.25"/>
</a>
</g>
</g>
<!-- Node21&#45;&gt;Node15 -->
<g id="edge34_Node000021_Node000015" class="edge">
<title>Node21&#45;&gt;Node15</title>
<g id="a_edge34_Node000021_Node000015"><a xlink:title=" ">
<path fill="none" stroke="#63b8ff" d="M1292.3,-248.34C1258.82,-235.92 1217.2,-220.48 1190.61,-210.62"/>
<polygon fill="#63b8ff" stroke="#63b8ff" points="1290.81,-251.89 1301.41,-252.08 1293.25,-245.32 1290.81,-251.89"/>
</a>
</g>
</g>
<!-- Node21&#45;&gt;Node18 -->
<g id="edge32_Node000021_Node000018" class="edge">
<title>Node21&#45;&gt;Node18</title>
<g id="a_edge32_Node000021_Node000018"><a xlink:title=" ">
<path fill="none" stroke="#63b8ff" d="M1376.11,-245.66C1388.7,-236.23 1403.03,-225.48 1414.51,-216.87"/>
<polygon fill="#63b8ff" stroke="#63b8ff" points="1374.23,-243.45 1368.33,-252.25 1378.43,-249.05 1374.23,-243.45"/>
</a>
</g>
</g>
<!-- Node22 -->
<g id="Node000022" class="node">
<title>Node22</title>
<g id="a_Node000022"><a xlink:href="DirectionalLight_8cpp.html" target="_top" xlink:title=" ">
<polygon fill="white" stroke="#666666" points="1657.5,-216.5 1518.5,-216.5 1518.5,-183 1657.5,-183 1657.5,-216.5"/>
<text text-anchor="start" x="1526.5" y="-203" font-family="Helvetica,sans-Serif" font-size="10.00">src/lights/directionalLight</text>
<text text-anchor="middle" x="1588" y="-190.25" font-family="Helvetica,sans-Serif" font-size="10.00">/DirectionalLight.cpp</text>
</a>
</g>
</g>
<!-- Node21&#45;&gt;Node22 -->
<g id="edge33_Node000021_Node000022" class="edge">
<title>Node21&#45;&gt;Node22</title>
<g id="a_edge33_Node000021_Node000022"><a xlink:title=" ">
<path fill="none" stroke="#63b8ff" d="M1414.52,-249.14C1450.99,-238.97 1495.35,-226.59 1530.09,-216.9"/>
<polygon fill="#63b8ff" stroke="#63b8ff" points="1413.66,-246.02 1404.97,-252.08 1415.54,-252.77 1413.66,-246.02"/>
</a>
</g>
</g>
<!-- Node23&#45;&gt;Node15 -->
<g id="edge38_Node000023_Node000015" class="edge">
<title>Node23&#45;&gt;Node15</title>
<g id="a_edge38_Node000023_Node000015"><a xlink:title=" ">
<path fill="none" stroke="#63b8ff" d="M1164,-241.47C1164,-230.58 1164,-218.68 1164,-210.57"/>
<polygon fill="#63b8ff" stroke="#63b8ff" points="1160.5,-241.25 1164,-251.25 1167.5,-241.25 1160.5,-241.25"/>
</a>
</g>
</g>
<!-- Node23&#45;&gt;Node18 -->
<g id="edge36_Node000023_Node000018" class="edge">
<title>Node23&#45;&gt;Node18</title>
<g id="a_edge36_Node000023_Node000018"><a xlink:title=" ">
<path fill="none" stroke="#63b8ff" d="M1230.94,-251.64C1273.67,-241.03 1328.79,-227.36 1371.11,-216.85"/>
<polygon fill="#63b8ff" stroke="#63b8ff" points="1230.22,-248.46 1221.36,-254.26 1231.91,-255.25 1230.22,-248.46"/>
</a>
</g>
</g>
<!-- Node24 -->
<g id="Node000024" class="node">
<title>Node24</title>
<g id="a_Node000024"><a xlink:href="PointLight_8cpp.html" target="_top" xlink:title=" ">
<polygon fill="white" stroke="#666666" points="1353,-216.5 1241,-216.5 1241,-183 1353,-183 1353,-216.5"/>
<text text-anchor="start" x="1249" y="-203" font-family="Helvetica,sans-Serif" font-size="10.00">src/lights/pointLight</text>
<text text-anchor="middle" x="1297" y="-190.25" font-family="Helvetica,sans-Serif" font-size="10.00">/PointLight.cpp</text>
</a>
</g>
</g>
<!-- Node23&#45;&gt;Node24 -->
<g id="edge37_Node000023_Node000024" class="edge">
<title>Node23&#45;&gt;Node24</title>
<g id="a_edge37_Node000023_Node000024"><a xlink:title=" ">
<path fill="none" stroke="#63b8ff" d="M1205.62,-247.13C1224.93,-237.33 1247.52,-225.86 1265.4,-216.79"/>
<polygon fill="#63b8ff" stroke="#63b8ff" points="1204.19,-244.44 1196.86,-252.08 1207.36,-250.68 1204.19,-244.44"/>
</a>
</g>
</g>
<!-- Node25&#45;&gt;Node15 -->
<g id="edge42_Node000025_Node000015" class="edge">
<title>Node25&#45;&gt;Node15</title>
<g id="a_edge42_Node000025_Node000015"><a xlink:title=" ">
<path fill="none" stroke="#63b8ff" d="M1075.56,-247.02C1098.92,-234.81 1127.14,-220.03 1145.33,-210.52"/>
<polygon fill="#63b8ff" stroke="#63b8ff" points="1074.14,-244.34 1066.9,-252.08 1077.38,-250.55 1074.14,-244.34"/>
</a>
</g>
</g>
<!-- Node25&#45;&gt;Node18 -->
<g id="edge41_Node000025_Node000018" class="edge">
<title>Node25&#45;&gt;Node18</title>
<g id="a_edge41_Node000025_Node000018"><a xlink:title=" ">
<path fill="none" stroke="#63b8ff" d="M1100.49,-252.35C1216.77,-230.73 1249.18,-236.2 1362,-216.5 1364.98,-215.98 1368.01,-215.43 1371.08,-214.85"/>
<polygon fill="#63b8ff" stroke="#63b8ff" points="1099.91,-249.08 1090.73,-254.38 1101.21,-255.96 1099.91,-249.08"/>
</a>
</g>
</g>
<!-- Node26 -->
<g id="Node000026" class="node">
<title>Node26</title>
<g id="a_Node000026"><a xlink:href="Cone_8cpp.html" target="_top" xlink:title=" ">
<polygon fill="white" stroke="#666666" points="1087.5,-216.5 978.5,-216.5 978.5,-183 1087.5,-183 1087.5,-216.5"/>
<text text-anchor="start" x="986.5" y="-203" font-family="Helvetica,sans-Serif" font-size="10.00">src/primitives/cone</text>
<text text-anchor="middle" x="1033" y="-190.25" font-family="Helvetica,sans-Serif" font-size="10.00">/Cone.cpp</text>
</a>
</g>
</g>
<!-- Node25&#45;&gt;Node26 -->
<g id="edge43_Node000025_Node000026" class="edge">
<title>Node25&#45;&gt;Node26</title>
<g id="a_edge43_Node000025_Node000026"><a xlink:title=" ">
<path fill="none" stroke="#63b8ff" d="M1034.2,-241.39C1033.96,-233 1033.69,-224.01 1033.47,-216.63"/>
<polygon fill="#63b8ff" stroke="#63b8ff" points="1030.73,-241.36 1034.53,-251.25 1037.73,-241.15 1030.73,-241.36"/>
</a>
</g>
</g>
<!-- Node27&#45;&gt;Node15 -->
<g id="edge46_Node000027_Node000015" class="edge">
<title>Node27&#45;&gt;Node15</title>
<g id="a_edge46_Node000027_Node000015"><a xlink:title=" ">
<path fill="none" stroke="#63b8ff" d="M1422.63,-252.06C1337.68,-234.97 1314.08,-233.65 1232,-216.5 1223.34,-214.69 1214.09,-212.63 1205.29,-210.61"/>
<polygon fill="#63b8ff" stroke="#63b8ff" points="1421.81,-255.66 1432.3,-254.22 1423.2,-248.8 1421.81,-255.66"/>
</a>
</g>
</g>
<!-- Node27&#45;&gt;Node18 -->
<g id="edge45_Node000027_Node000018" class="edge">
<title>Node27&#45;&gt;Node18</title>
<g id="a_edge45_Node000027_Node000018"><a xlink:title=" ">
<path fill="none" stroke="#63b8ff" d="M1474.64,-244.22C1466.5,-235.06 1457.42,-224.85 1450.12,-216.63"/>
<polygon fill="#63b8ff" stroke="#63b8ff" points="1471.52,-246.1 1480.78,-251.25 1476.75,-241.45 1471.52,-246.1"/>
</a>
</g>
</g>
<!-- Node28 -->
<g id="Node000028" class="node">
<title>Node28</title>
<g id="a_Node000028"><a xlink:href="Cylinder_8cpp.html" target="_top" xlink:title=" ">
<polygon fill="white" stroke="#666666" points="1800.38,-216.5 1675.62,-216.5 1675.62,-183 1800.38,-183 1800.38,-216.5"/>
<text text-anchor="start" x="1683.62" y="-203" font-family="Helvetica,sans-Serif" font-size="10.00">src/primitives/cylinder</text>
<text text-anchor="middle" x="1738" y="-190.25" font-family="Helvetica,sans-Serif" font-size="10.00">/Cylinder.cpp</text>
</a>
</g>
</g>
<!-- Node27&#45;&gt;Node28 -->
<g id="edge47_Node000027_Node000028" class="edge">
<title>Node27&#45;&gt;Node28</title>
<g id="a_edge47_Node000027_Node000028"><a xlink:title=" ">
<path fill="none" stroke="#63b8ff" d="M1564.52,-249.14C1600.99,-238.97 1645.35,-226.59 1680.09,-216.9"/>
<polygon fill="#63b8ff" stroke="#63b8ff" points="1563.66,-246.02 1554.97,-252.08 1565.54,-252.77 1563.66,-246.02"/>
</a>
</g>
</g>
<!-- Node29&#45;&gt;Node8 -->
<g id="edge53_Node000029_Node000008" class="edge">
<title>Node29&#45;&gt;Node8</title>
<g id="a_edge53_Node000029_Node000008"><a xlink:title=" ">
<path fill="none" stroke="#63b8ff" d="M587.74,-255.39C536.65,-245.4 464.73,-230.87 402,-216.5 394.1,-214.69 385.66,-212.63 377.64,-210.61"/>
<polygon fill="#63b8ff" stroke="#63b8ff" points="586.83,-258.97 597.31,-257.45 588.17,-252.1 586.83,-258.97"/>
</a>
</g>
</g>
<!-- Node29&#45;&gt;Node10 -->
<g id="edge54_Node000029_Node000010" class="edge">
<title>Node29&#45;&gt;Node10</title>
<g id="a_edge54_Node000029_Node000010"><a xlink:title=" ">
<path fill="none" stroke="#63b8ff" d="M587.53,-260.23C531.01,-252.14 456.27,-237.78 435,-216.5 414.47,-195.96 413.44,-158.62 414.24,-140.97"/>
<polygon fill="#63b8ff" stroke="#63b8ff" points="586.82,-263.8 597.21,-261.71 587.78,-256.87 586.82,-263.8"/>
</a>
</g>
</g>
<!-- Node29&#45;&gt;Node15 -->
<g id="edge56_Node000029_Node000015" class="edge">
<title>Node29&#45;&gt;Node15</title>
<g id="a_edge56_Node000029_Node000015"><a xlink:title=" ">
<path fill="none" stroke="#63b8ff" d="M722.31,-255.25C728.28,-254.26 734.24,-253.32 740,-252.5 897.87,-229.95 939.71,-242.8 1097,-216.5 1106.43,-214.92 1116.51,-212.79 1125.91,-210.61"/>
<polygon fill="#63b8ff" stroke="#63b8ff" points="721.85,-251.95 712.59,-257.09 723.04,-258.85 721.85,-251.95"/>
</a>
</g>
</g>
<!-- Node29&#45;&gt;Node18 -->
<g id="edge55_Node000029_Node000018" class="edge">
<title>Node29&#45;&gt;Node18</title>
<g id="a_edge55_Node000029_Node000018"><a xlink:title=" ">
<path fill="none" stroke="#63b8ff" d="M722.27,-254.98C728.25,-254.05 734.23,-253.2 740,-252.5 1014.9,-219.21 1087.57,-253.43 1362,-216.5 1364.99,-216.1 1368.05,-215.64 1371.13,-215.14"/>
<polygon fill="#63b8ff" stroke="#63b8ff" points="721.84,-251.67 712.54,-256.75 722.98,-258.58 721.84,-251.67"/>
</a>
</g>
</g>
<!-- Node30 -->
<g id="Node000030" class="node">
<title>Node30</title>
<g id="a_Node000030"><a xlink:href="Primitive__fact_8cpp.html" target="_top" xlink:title=" ">
<polygon fill="white" stroke="#666666" points="727.25,-140.62 592.75,-140.62 592.75,-119.88 727.25,-119.88 727.25,-140.62"/>
<text text-anchor="middle" x="660" y="-127.12" font-family="Helvetica,sans-Serif" font-size="10.00">paser/Primitive_fact.cpp</text>
</a>
</g>
</g>
<!-- Node29&#45;&gt;Node30 -->
<g id="edge49_Node000029_Node000030" class="edge">
<title>Node29&#45;&gt;Node30</title>
<g id="a_edge49_Node000029_Node000030"><a xlink:title=" ">
<path fill="none" stroke="#63b8ff" d="M648.92,-241.5C645.9,-224.68 643.4,-202.54 646,-183 647.99,-168.05 653.06,-151.3 656.53,-141.01"/>
<polygon fill="#63b8ff" stroke="#63b8ff" points="645.66,-242.06 651.03,-251.19 652.53,-240.7 645.66,-242.06"/>
</a>
</g>
</g>
<!-- Node31 -->
<g id="Node000031" class="node">
<title>Node31</title>
<g id="a_Node000031"><a xlink:href="Primitive__fact_8hpp.html" target="_top" xlink:title=" ">
<polygon fill="white" stroke="#666666" points="823.62,-210.12 688.38,-210.12 688.38,-189.38 823.62,-189.38 823.62,-210.12"/>
<text text-anchor="middle" x="756" y="-196.62" font-family="Helvetica,sans-Serif" font-size="10.00">paser/Primitive_fact.hpp</text>
</a>
</g>
</g>
<!-- Node29&#45;&gt;Node31 -->
<g id="edge50_Node000029_Node000031" class="edge">
<title>Node29&#45;&gt;Node31</title>
<g id="a_edge50_Node000029_Node000031"><a xlink:title=" ">
<path fill="none" stroke="#63b8ff" d="M688.24,-246.04C706.22,-234.02 727.53,-219.78 741.38,-210.52"/>
<polygon fill="#63b8ff" stroke="#63b8ff" points="686.56,-243.62 680.19,-252.08 690.45,-249.44 686.56,-243.62"/>
</a>
</g>
</g>
<!-- Node32 -->
<g id="Node000032" class="node">
<title>Node32</title>
<g id="a_Node000032"><a xlink:href="Plane_8cpp.html" target="_top" xlink:title=" ">
<polygon fill="white" stroke="#666666" points="556.38,-216.5 443.62,-216.5 443.62,-183 556.38,-183 556.38,-216.5"/>
<text text-anchor="start" x="451.62" y="-203" font-family="Helvetica,sans-Serif" font-size="10.00">src/primitives/plane</text>
<text text-anchor="middle" x="500" y="-190.25" font-family="Helvetica,sans-Serif" font-size="10.00">/Plane.cpp</text>
</a>
</g>
</g>
<!-- Node29&#45;&gt;Node32 -->
<g id="edge57_Node000029_Node000032" class="edge">
<title>Node29&#45;&gt;Node32</title>
<g id="a_edge57_Node000029_Node000032"><a xlink:title=" ">
<path fill="none" stroke="#63b8ff" d="M608.08,-247.82C585.33,-237.91 558.38,-226.18 537.09,-216.9"/>
<polygon fill="#63b8ff" stroke="#63b8ff" points="606.31,-251.3 616.87,-252.08 609.1,-244.88 606.31,-251.3"/>
</a>
</g>
</g>
<!-- Node31&#45;&gt;Node9 -->
<g id="edge52_Node000031_Node000009" class="edge">
<title>Node31&#45;&gt;Node9</title>
<g id="a_edge52_Node000031_Node000009"><a xlink:title=" ">
<path fill="none" stroke="#63b8ff" d="M757.3,-178.27C757.33,-158.64 753.96,-129.67 736,-113.5 691.06,-73.04 510.72,-67.77 424.01,-67.65"/>
<polygon fill="#63b8ff" stroke="#63b8ff" points="753.77,-177.98 756.94,-188.09 760.77,-178.21 753.77,-177.98"/>
</a>
</g>
</g>
<!-- Node31&#45;&gt;Node30 -->
<g id="edge51_Node000031_Node000030" class="edge">
<title>Node31&#45;&gt;Node30</title>
<g id="a_edge51_Node000031_Node000030"><a xlink:title=" ">
<path fill="none" stroke="#63b8ff" d="M733.35,-182.83C714.96,-169.9 689.61,-152.07 674.04,-141.12"/>
<polygon fill="#63b8ff" stroke="#63b8ff" points="731.05,-186.19 741.25,-189.08 735.08,-180.46 731.05,-186.19"/>
</a>
</g>
</g>
<!-- Node33&#45;&gt;Node8 -->
<g id="edge61_Node000033_Node000008" class="edge">
<title>Node33&#45;&gt;Node8</title>
<g id="a_edge61_Node000033_Node000008"><a xlink:title=" ">
<path fill="none" stroke="#63b8ff" d="M737.69,-255.33C731.71,-254.34 725.75,-253.38 720,-252.5 593.79,-233.25 561.33,-234.94 435,-216.5 419.78,-214.28 403.23,-211.62 388.27,-209.12"/>
<polygon fill="#63b8ff" stroke="#63b8ff" points="736.98,-258.93 747.42,-257.16 738.15,-252.03 736.98,-258.93"/>
</a>
</g>
</g>
<!-- Node33&#45;&gt;Node10 -->
<g id="edge62_Node000033_Node000010" class="edge">
<title>Node33&#45;&gt;Node10</title>
<g id="a_edge62_Node000033_Node000010"><a xlink:title=" ">
<path fill="none" stroke="#63b8ff" d="M750.68,-248.46C722.97,-238.87 689.24,-227.14 659,-216.5 617.16,-201.78 606.85,-197.68 565,-183 522.89,-168.23 474.01,-151.43 443.79,-141.08"/>
<polygon fill="#63b8ff" stroke="#63b8ff" points="749.4,-252.07 759.99,-252.03 751.69,-245.45 749.4,-252.07"/>
</a>
</g>
</g>
<!-- Node33&#45;&gt;Node15 -->
<g id="edge64_Node000033_Node000015" class="edge">
<title>Node33&#45;&gt;Node15</title>
<g id="a_edge64_Node000033_Node000015"><a xlink:title=" ">
<path fill="none" stroke="#63b8ff" d="M878.31,-256.75C936.95,-246.89 1022.64,-231.89 1097,-216.5 1105.66,-214.71 1114.91,-212.64 1123.69,-210.6"/>
<polygon fill="#63b8ff" stroke="#63b8ff" points="877.96,-253.42 868.68,-258.53 879.12,-260.33 877.96,-253.42"/>
</a>
</g>
</g>
<!-- Node33&#45;&gt;Node18 -->
<g id="edge63_Node000033_Node000018" class="edge">
<title>Node33&#45;&gt;Node18</title>
<g id="a_edge63_Node000033_Node000018"><a xlink:title=" ">
<path fill="none" stroke="#63b8ff" d="M878.44,-261.43C907.42,-258.64 941.32,-255.39 972,-252.5 1145.3,-236.18 1189.91,-242.66 1362,-216.5 1364.99,-216.05 1368.03,-215.55 1371.11,-215.01"/>
<polygon fill="#63b8ff" stroke="#63b8ff" points="878.21,-258.03 868.59,-262.47 878.88,-265 878.21,-258.03"/>
</a>
</g>
</g>
<!-- Node33&#45;&gt;Node30 -->
<g id="edge59_Node000033_Node000030" class="edge">
<title>Node33&#45;&gt;Node30</title>
<g id="a_edge59_Node000033_Node000030"><a xlink:title=" ">
<path fill="none" stroke="#63b8ff" d="M738.15,-253.83C716.4,-246.12 694.17,-234.36 679,-216.5 660.35,-194.54 658.92,-158.22 659.42,-140.95"/>
<polygon fill="#63b8ff" stroke="#63b8ff" points="736.82,-257.41 747.41,-257.2 739,-250.76 736.82,-257.41"/>
</a>
</g>
</g>
<!-- Node33&#45;&gt;Node31 -->
<g id="edge60_Node000033_Node000031" class="edge">
<title>Node33&#45;&gt;Node31</title>
<g id="a_edge60_Node000033_Node000031"><a xlink:title=" ">
<path fill="none" stroke="#63b8ff" d="M789.21,-243.86C780.35,-232.36 770.27,-219.28 763.57,-210.57"/>
<polygon fill="#63b8ff" stroke="#63b8ff" points="786.8,-245.47 795.68,-251.25 792.35,-241.2 786.8,-245.47"/>
</a>
</g>
</g>
<!-- Node34 -->
<g id="Node000034" class="node">
<title>Node34</title>
<g id="a_Node000034"><a xlink:href="Sphere_8cpp.html" target="_top" xlink:title=" ">
<polygon fill="white" stroke="#666666" points="960.38,-216.5 841.62,-216.5 841.62,-183 960.38,-183 960.38,-216.5"/>
<text text-anchor="start" x="849.62" y="-203" font-family="Helvetica,sans-Serif" font-size="10.00">src/primitives/sphere</text>
<text text-anchor="middle" x="901" y="-190.25" font-family="Helvetica,sans-Serif" font-size="10.00">/Sphere.cpp</text>
</a>
</g>
</g>
<!-- Node33&#45;&gt;Node34 -->
<g id="edge65_Node000033_Node000034" class="edge">
<title>Node33&#45;&gt;Node34</title>
<g id="a_edge65_Node000033_Node000034"><a xlink:title=" ">
<path fill="none" stroke="#63b8ff" d="M838.74,-245.94C851.83,-236.44 866.81,-225.56 878.8,-216.87"/>
<polygon fill="#63b8ff" stroke="#63b8ff" points="837.08,-243.55 831.04,-252.25 841.19,-249.21 837.08,-243.55"/>
</a>
</g>
</g>
</g>
</svg>
