<?xml version="1.0" encoding="UTF-8" standalone="no"?>
<!DOCTYPE svg PUBLIC "-//W3C//DTD SVG 1.1//EN"
 "http://www.w3.org/Graphics/SVG/1.1/DTD/svg11.dtd">
<!-- Generated by graphviz version 8.1.0 (20230707.0739)
 -->
<!-- Title: src/core/designPatterns/Factory.hpp Pages: 1 -->
<svg width="501pt" height="225pt"
 viewBox="0.00 0.00 500.88 224.50" xmlns="http://www.w3.org/2000/svg" xmlns:xlink="http://www.w3.org/1999/xlink">
<g id="graph0" class="graph" transform="scale(1 1) rotate(0) translate(4 220.5)">
<title>src/core/designPatterns/Factory.hpp</title>
<!-- Node1 -->
<g id="Node000001" class="node">
<title>Node1</title>
<g id="a_Node000001"><a xlink:title=" ">
<polygon fill="#999999" stroke="#666666" points="255.38,-216.5 126.12,-216.5 126.12,-183 255.38,-183 255.38,-216.5"/>
<text text-anchor="start" x="134.12" y="-203" font-family="Helvetica,sans-Serif" font-size="10.00">src/core/designPatterns</text>
<text text-anchor="middle" x="190.75" y="-190.25" font-family="Helvetica,sans-Serif" font-size="10.00">/Factory.hpp</text>
</a>
</g>
</g>
<!-- Node2 -->
<g id="Node000002" class="node">
<title>Node2</title>
<g id="a_Node000002"><a xlink:href="Factory_8cpp.html" target="_top" xlink:title=" ">
<polygon fill="white" stroke="#666666" points="179.38,-147 50.12,-147 50.12,-113.5 179.38,-113.5 179.38,-147"/>
<text text-anchor="start" x="58.12" y="-133.5" font-family="Helvetica,sans-Serif" font-size="10.00">src/core/designPatterns</text>
<text text-anchor="middle" x="114.75" y="-120.75" font-family="Helvetica,sans-Serif" font-size="10.00">/Factory.cpp</text>
</a>
</g>
</g>
<!-- Node1&#45;&gt;Node2 -->
<g id="edge1_Node000001_Node000002" class="edge">
<title>Node1&#45;&gt;Node2</title>
<g id="a_edge1_Node000001_Node000002"><a xlink:title=" ">
<path fill="none" stroke="#63b8ff" d="M164.7,-175.61C154.23,-166.31 142.41,-155.81 132.9,-147.37"/>
<polygon fill="#63b8ff" stroke="#63b8ff" points="161.94,-177.73 171.74,-181.75 166.59,-172.5 161.94,-177.73"/>
</a>
</g>
</g>
<!-- Node3 -->
<g id="Node000003" class="node">
<title>Node3</title>
<g id="a_Node000003"><a xlink:href="src_2core_2scene_2Scene_8hpp.html" target="_top" xlink:title=" ">
<polygon fill="white" stroke="#666666" points="336.25,-140.62 197.25,-140.62 197.25,-119.88 336.25,-119.88 336.25,-140.62"/>
<text text-anchor="middle" x="266.75" y="-127.12" font-family="Helvetica,sans-Serif" font-size="10.00">src/core/scene/Scene.hpp</text>
</a>
</g>
</g>
<!-- Node1&#45;&gt;Node3 -->
<g id="edge2_Node000001_Node000003" class="edge">
<title>Node1&#45;&gt;Node3</title>
<g id="a_edge2_Node000001_Node000003"><a xlink:title=" ">
<path fill="none" stroke="#63b8ff" d="M216.69,-175.71C230,-163.89 245.5,-150.12 255.69,-141.07"/>
<polygon fill="#63b8ff" stroke="#63b8ff" points="214.91,-172.5 209.76,-181.75 219.56,-177.73 214.91,-172.5"/>
</a>
</g>
</g>
<!-- Node4 -->
<g id="Node000004" class="node">
<title>Node4</title>
<g id="a_Node000004"><a xlink:href="RayTracer_8hpp.html" target="_top" xlink:title=" ">
<polygon fill="white" stroke="#666666" points="178.5,-77.5 53,-77.5 53,-56.75 178.5,-56.75 178.5,-77.5"/>
<text text-anchor="middle" x="115.75" y="-64" font-family="Helvetica,sans-Serif" font-size="10.00">src/core/RayTracer.hpp</text>
</a>
</g>
</g>
<!-- Node3&#45;&gt;Node4 -->
<g id="edge3_Node000003_Node000004" class="edge">
<title>Node3&#45;&gt;Node4</title>
<g id="a_edge3_Node000003_Node000004"><a xlink:title=" ">
<path fill="none" stroke="#63b8ff" d="M232.64,-115.44C204.42,-104.02 165.02,-88.07 139.95,-77.92"/>
<polygon fill="#63b8ff" stroke="#63b8ff" points="230.91,-118.92 241.49,-119.43 233.53,-112.43 230.91,-118.92"/>
</a>
</g>
</g>
<!-- Node7 -->
<g id="Node000007" class="node">
<title>Node7</title>
<g id="a_Node000007"><a xlink:href="Image_8cpp.html" target="_top" xlink:title="Implémentation des méthodes de la classe Image pour gestion d&#39;image et affichage.">
<polygon fill="white" stroke="#666666" points="336.62,-77.5 196.88,-77.5 196.88,-56.75 336.62,-56.75 336.62,-77.5"/>
<text text-anchor="middle" x="266.75" y="-64" font-family="Helvetica,sans-Serif" font-size="10.00">src/core/scene/Image.cpp</text>
</a>
</g>
</g>
<!-- Node3&#45;&gt;Node7 -->
<g id="edge6_Node000003_Node000007" class="edge">
<title>Node3&#45;&gt;Node7</title>
<g id="a_edge6_Node000003_Node000007"><a xlink:title=" ">
<path fill="none" stroke="#63b8ff" d="M266.75,-108.66C266.75,-98.2 266.75,-85.99 266.75,-77.72"/>
<polygon fill="#63b8ff" stroke="#63b8ff" points="263.25,-108.43 266.75,-118.43 270.25,-108.43 263.25,-108.43"/>
</a>
</g>
</g>
<!-- Node8 -->
<g id="Node000008" class="node">
<title>Node8</title>
<g id="a_Node000008"><a xlink:href="Scene_8cpp.html" target="_top" xlink:title=" ">
<polygon fill="white" stroke="#666666" points="492.88,-77.5 354.62,-77.5 354.62,-56.75 492.88,-56.75 492.88,-77.5"/>
<text text-anchor="middle" x="423.75" y="-64" font-family="Helvetica,sans-Serif" font-size="10.00">src/core/scene/Scene.cpp</text>
</a>
</g>
</g>
<!-- Node3&#45;&gt;Node8 -->
<g id="edge7_Node000003_Node000008" class="edge">
<title>Node3&#45;&gt;Node8</title>
<g id="a_edge7_Node000003_Node000008"><a xlink:title=" ">
<path fill="none" stroke="#63b8ff" d="M302.21,-115.44C331.56,-104.02 372.52,-88.07 398.59,-77.92"/>
<polygon fill="#63b8ff" stroke="#63b8ff" points="301.02,-112.54 292.97,-119.43 303.56,-119.06 301.02,-112.54"/>
</a>
</g>
</g>
<!-- Node5 -->
<g id="Node000005" class="node">
<title>Node5</title>
<g id="a_Node000005"><a xlink:href="Main_8cpp.html" target="_top" xlink:title=" ">
<polygon fill="white" stroke="#666666" points="101.5,-20.75 0,-20.75 0,0 101.5,0 101.5,-20.75"/>
<text text-anchor="middle" x="50.75" y="-7.25" font-family="Helvetica,sans-Serif" font-size="10.00">src/core/Main.cpp</text>
</a>
</g>
</g>
<!-- Node4&#45;&gt;Node5 -->
<g id="edge4_Node000004_Node000005" class="edge">
<title>Node4&#45;&gt;Node5</title>
<g id="a_edge4_Node000004_Node000005"><a xlink:title=" ">
<path fill="none" stroke="#63b8ff" d="M95.91,-49.41C84.89,-40.13 71.58,-28.92 62.27,-21.08"/>
<polygon fill="#63b8ff" stroke="#63b8ff" points="93.23,-52.57 103.13,-56.34 97.74,-47.22 93.23,-52.57"/>
</a>
</g>
</g>
<!-- Node6 -->
<g id="Node000006" class="node">
<title>Node6</title>
<g id="a_Node000006"><a xlink:href="RayTracer_8cpp.html" target="_top" xlink:title=" ">
<polygon fill="white" stroke="#666666" points="244.12,-20.75 119.38,-20.75 119.38,0 244.12,0 244.12,-20.75"/>
<text text-anchor="middle" x="181.75" y="-7.25" font-family="Helvetica,sans-Serif" font-size="10.00">src/core/RayTracer.cpp</text>
</a>
</g>
</g>
<!-- Node4&#45;&gt;Node6 -->
<g id="edge5_Node000004_Node000006" class="edge">
<title>Node4&#45;&gt;Node6</title>
<g id="a_edge5_Node000004_Node000006"><a xlink:title=" ">
<path fill="none" stroke="#63b8ff" d="M135.9,-49.41C147.08,-40.13 160.6,-28.92 170.05,-21.08"/>
<polygon fill="#63b8ff" stroke="#63b8ff" points="134.01,-47.26 128.55,-56.34 138.48,-52.65 134.01,-47.26"/>
</a>
</g>
</g>
</g>
</svg>
