<?xml version="1.0" encoding="UTF-8" standalone="no"?>
<!DOCTYPE svg PUBLIC "-//W3C//DTD SVG 1.1//EN"
 "http://www.w3.org/Graphics/SVG/1.1/DTD/svg11.dtd">
<!-- Generated by graphviz version 8.1.0 (20230707.0739)
 -->
<!-- Title: src/core/designPatterns/Factory.cpp Pages: 1 -->
<svg width="1134pt" height="521pt"
 viewBox="0.00 0.00 1134.00 521.00" xmlns="http://www.w3.org/2000/svg" xmlns:xlink="http://www.w3.org/1999/xlink">
<g id="graph0" class="graph" transform="scale(1 1) rotate(0) translate(4 517)">
<title>src/core/designPatterns/Factory.cpp</title>
<!-- Node1 -->
<g id="Node000001" class="node">
<title>Node1</title>
<g id="a_Node000001"><a xlink:title=" ">
<polygon fill="#999999" stroke="#666666" points="938.62,-513 809.38,-513 809.38,-479.5 938.62,-479.5 938.62,-513"/>
<text text-anchor="start" x="817.38" y="-499.5" font-family="Helvetica,sans-Serif" font-size="10.00">src/core/designPatterns</text>
<text text-anchor="middle" x="874" y="-486.75" font-family="Helvetica,sans-Serif" font-size="10.00">/Factory.cpp</text>
</a>
</g>
</g>
<!-- Node2 -->
<g id="Node000002" class="node">
<title>Node2</title>
<g id="a_Node000002"><a xlink:href="Factory_8hpp.html" target="_top" xlink:title=" ">
<polygon fill="white" stroke="#666666" points="657.38,-443.5 586.62,-443.5 586.62,-422.75 657.38,-422.75 657.38,-443.5"/>
<text text-anchor="middle" x="622" y="-430" font-family="Helvetica,sans-Serif" font-size="10.00">Factory.hpp</text>
</a>
</g>
</g>
<!-- Node1&#45;&gt;Node2 -->
<g id="edge1_Node000001_Node000002" class="edge">
<title>Node1&#45;&gt;Node2</title>
<g id="a_edge1_Node000001_Node000002"><a xlink:title=" ">
<path fill="none" stroke="#63b8ff" d="M809.1,-479.51C764.98,-468.81 707.67,-454.91 668.16,-445.32"/>
<polygon fill="#63b8ff" stroke="#63b8ff" points="669.06,-441.7 658.52,-442.74 667.41,-448.5 669.06,-441.7"/>
</a>
</g>
</g>
<!-- Node12 -->
<g id="Node000012" class="node">
<title>Node12</title>
<g id="a_Node000012"><a xlink:href="Error_8hpp.html" target="_top" xlink:title=" ">
<polygon fill="white" stroke="#666666" points="970.38,-77.5 875.62,-77.5 875.62,-56.75 970.38,-56.75 970.38,-77.5"/>
<text text-anchor="middle" x="923" y="-64" font-family="Helvetica,sans-Serif" font-size="10.00">../error/Error.hpp</text>
</a>
</g>
</g>
<!-- Node1&#45;&gt;Node12 -->
<g id="edge57_Node000001_Node000012" class="edge">
<title>Node1&#45;&gt;Node12</title>
<g id="a_edge57_Node000001_Node000012"><a xlink:title=" ">
<path fill="none" stroke="#63b8ff" d="M938.9,-490.84C1013.56,-481.83 1126,-454.41 1126,-371 1126,-371 1126,-371 1126,-179.62 1126,-113.15 1041.34,-86.03 981.36,-75.16"/>
<polygon fill="#63b8ff" stroke="#63b8ff" points="982.3,-71.6 971.85,-73.37 981.12,-78.5 982.3,-71.6"/>
</a>
</g>
</g>
<!-- Node3 -->
<g id="Node000003" class="node">
<title>Node3</title>
<g id="a_Node000003"><a xlink:href="DirectionalLight_8hpp.html" target="_top" xlink:title=" ">
<polygon fill="white" stroke="#666666" points="441.62,-386.75 300.38,-386.75 300.38,-353.25 441.62,-353.25 441.62,-386.75"/>
<text text-anchor="start" x="308.38" y="-373.25" font-family="Helvetica,sans-Serif" font-size="10.00">../../lights/directional</text>
<text text-anchor="middle" x="371" y="-360.5" font-family="Helvetica,sans-Serif" font-size="10.00">Light/DirectionalLight.hpp</text>
</a>
</g>
</g>
<!-- Node2&#45;&gt;Node3 -->
<g id="edge2_Node000002_Node000003" class="edge">
<title>Node2&#45;&gt;Node3</title>
<g id="a_edge2_Node000002_Node000003"><a xlink:title=" ">
<path fill="none" stroke="#63b8ff" d="M586.3,-423.43C550.52,-414.72 494.28,-401.02 448.25,-389.81"/>
<polygon fill="#63b8ff" stroke="#63b8ff" points="449.24,-386.21 438.69,-387.24 447.58,-393.01 449.24,-386.21"/>
</a>
</g>
</g>
<!-- Node4 -->
<g id="Node000004" class="node">
<title>Node4</title>
<g id="a_Node000004"><a xlink:href="ILight_8hpp.html" target="_top" xlink:title=" ">
<polygon fill="white" stroke="#666666" points="296.5,-317.25 223.5,-317.25 223.5,-296.5 296.5,-296.5 296.5,-317.25"/>
<text text-anchor="middle" x="260" y="-303.75" font-family="Helvetica,sans-Serif" font-size="10.00">../ILight.hpp</text>
</a>
</g>
</g>
<!-- Node2&#45;&gt;Node4 -->
<g id="edge35_Node000002_Node000004" class="edge">
<title>Node2&#45;&gt;Node4</title>
<g id="a_edge35_Node000002_Node000004"><a xlink:title=" ">
<path fill="none" stroke="#63b8ff" d="M586.2,-422.8C559.79,-415.13 523.46,-402.89 494,-386.75 472.75,-375.11 472.84,-363.73 451,-353.25 404.94,-331.14 347.33,-319.36 307.49,-313.4"/>
<polygon fill="#63b8ff" stroke="#63b8ff" points="308.14,-309.82 297.75,-311.87 307.16,-316.75 308.14,-309.82"/>
</a>
</g>
</g>
<!-- Node5 -->
<g id="Node000005" class="node">
<title>Node5</title>
<g id="a_Node000005"><a xlink:title=" ">
<polygon fill="#e0e0e0" stroke="#999999" points="162.75,-20.75 103.25,-20.75 103.25,0 162.75,0 162.75,-20.75"/>
<text text-anchor="middle" x="133" y="-7.25" font-family="Helvetica,sans-Serif" font-size="10.00">iostream</text>
</a>
</g>
</g>
<!-- Node2&#45;&gt;Node5 -->
<g id="edge54_Node000002_Node000005" class="edge">
<title>Node2&#45;&gt;Node5</title>
<g id="a_edge54_Node000002_Node000005"><a xlink:title=" ">
<path fill="none" stroke="#63b8ff" d="M586.32,-432.65C454.16,-433.65 0,-428.32 0,-307.88 0,-307.88 0,-307.88 0,-122.88 0,-73.64 54.18,-41.83 93.38,-25.26"/>
<polygon fill="#63b8ff" stroke="#63b8ff" points="94.52,-28.17 102.48,-21.18 91.9,-21.68 94.52,-28.17"/>
</a>
</g>
</g>
<!-- Node7 -->
<g id="Node000007" class="node">
<title>Node7</title>
<g id="a_Node000007"><a xlink:href="IPrimitive_8hpp.html" target="_top" xlink:title=" ">
<polygon fill="white" stroke="#666666" points="545.88,-191 400.12,-191 400.12,-170.25 545.88,-170.25 545.88,-191"/>
<text text-anchor="middle" x="473" y="-177.5" font-family="Helvetica,sans-Serif" font-size="10.00">../primitives/IPrimitive.hpp</text>
</a>
</g>
</g>
<!-- Node2&#45;&gt;Node7 -->
<g id="edge46_Node000002_Node000007" class="edge">
<title>Node2&#45;&gt;Node7</title>
<g id="a_edge46_Node000002_Node000007"><a xlink:title=" ">
<path fill="none" stroke="#63b8ff" d="M616.16,-422.31C593.91,-384.89 514.19,-250.88 484.37,-200.74"/>
<polygon fill="#63b8ff" stroke="#63b8ff" points="486.92,-199.18 478.8,-192.38 480.9,-202.76 486.92,-199.18"/>
</a>
</g>
</g>
<!-- Node20 -->
<g id="Node000020" class="node">
<title>Node20</title>
<g id="a_Node000020"><a xlink:title=" ">
<polygon fill="#e0e0e0" stroke="#999999" points="381.62,-191 324.38,-191 324.38,-170.25 381.62,-170.25 381.62,-191"/>
<text text-anchor="middle" x="353" y="-177.5" font-family="Helvetica,sans-Serif" font-size="10.00">memory</text>
</a>
</g>
</g>
<!-- Node2&#45;&gt;Node20 -->
<g id="edge55_Node000002_Node000020" class="edge">
<title>Node2&#45;&gt;Node20</title>
<g id="a_edge55_Node000002_Node000020"><a xlink:title=" ">
<path fill="none" stroke="#63b8ff" d="M611.23,-422.44C601.07,-413.28 585.44,-399.15 572,-386.75 496.83,-317.45 408.2,-233.84 370.93,-198.6"/>
<polygon fill="#63b8ff" stroke="#63b8ff" points="373.66,-196.42 363.99,-192.09 368.85,-201.5 373.66,-196.42"/>
</a>
</g>
</g>
<!-- Node22 -->
<g id="Node000022" class="node">
<title>Node22</title>
<g id="a_Node000022"><a xlink:href="PointLight_8hpp.html" target="_top" xlink:title=" ">
<polygon fill="white" stroke="#666666" points="282.38,-386.75 169.62,-386.75 169.62,-353.25 282.38,-353.25 282.38,-386.75"/>
<text text-anchor="start" x="177.62" y="-373.25" font-family="Helvetica,sans-Serif" font-size="10.00">../../lights/pointLight</text>
<text text-anchor="middle" x="226" y="-360.5" font-family="Helvetica,sans-Serif" font-size="10.00">/PointLight.hpp</text>
</a>
</g>
</g>
<!-- Node2&#45;&gt;Node22 -->
<g id="edge36_Node000002_Node000022" class="edge">
<title>Node2&#45;&gt;Node22</title>
<g id="a_edge36_Node000002_Node000022"><a xlink:title=" ">
<path fill="none" stroke="#63b8ff" d="M586.54,-428.46C527.59,-422.11 405.54,-407.86 293.14,-387.05"/>
<polygon fill="#63b8ff" stroke="#63b8ff" points="294.12,-383.49 283.65,-385.08 292.83,-390.37 294.12,-383.49"/>
</a>
</g>
</g>
<!-- Node23 -->
<g id="Node000023" class="node">
<title>Node23</title>
<g id="a_Node000023"><a xlink:href="Cone_8hpp.html" target="_top" xlink:title=" ">
<polygon fill="white" stroke="#666666" points="821.88,-260.5 712.12,-260.5 712.12,-227 821.88,-227 821.88,-260.5"/>
<text text-anchor="start" x="720.12" y="-247" font-family="Helvetica,sans-Serif" font-size="10.00">../../primitives/cone</text>
<text text-anchor="middle" x="767" y="-234.25" font-family="Helvetica,sans-Serif" font-size="10.00">/Cone.hpp</text>
</a>
</g>
</g>
<!-- Node2&#45;&gt;Node23 -->
<g id="edge40_Node000002_Node000023" class="edge">
<title>Node2&#45;&gt;Node23</title>
<g id="a_edge40_Node000002_Node000023"><a xlink:title=" ">
<path fill="none" stroke="#63b8ff" d="M628.85,-422.28C639.38,-407.23 660.3,-377.66 679,-353.25 701.55,-323.8 728.56,-290.82 746.66,-269.03"/>
<polygon fill="#63b8ff" stroke="#63b8ff" points="749.89,-271.63 753.6,-261.7 744.51,-267.15 749.89,-271.63"/>
</a>
</g>
</g>
<!-- Node24 -->
<g id="Node000024" class="node">
<title>Node24</title>
<g id="a_Node000024"><a xlink:href="Cylinder_8hpp.html" target="_top" xlink:title=" ">
<polygon fill="white" stroke="#666666" points="965.75,-260.5 840.25,-260.5 840.25,-227 965.75,-227 965.75,-260.5"/>
<text text-anchor="start" x="848.25" y="-247" font-family="Helvetica,sans-Serif" font-size="10.00">../../primitives/cylinder</text>
<text text-anchor="middle" x="903" y="-234.25" font-family="Helvetica,sans-Serif" font-size="10.00">/Cylinder.hpp</text>
</a>
</g>
</g>
<!-- Node2&#45;&gt;Node24 -->
<g id="edge43_Node000002_Node000024" class="edge">
<title>Node2&#45;&gt;Node24</title>
<g id="a_edge43_Node000002_Node000024"><a xlink:title=" ">
<path fill="none" stroke="#63b8ff" d="M657.76,-430.41C719.39,-426.69 841.93,-415.78 872,-386.75 903.05,-356.78 906.45,-303.49 905.28,-271.41"/>
<polygon fill="#63b8ff" stroke="#63b8ff" points="908.74,-271.42 904.69,-261.63 901.75,-271.81 908.74,-271.42"/>
</a>
</g>
</g>
<!-- Node25 -->
<g id="Node000025" class="node">
<title>Node25</title>
<g id="a_Node000025"><a xlink:href="Plane_8hpp.html" target="_top" xlink:title=" ">
<polygon fill="white" stroke="#666666" points="1097.75,-260.5 984.25,-260.5 984.25,-227 1097.75,-227 1097.75,-260.5"/>
<text text-anchor="start" x="992.25" y="-247" font-family="Helvetica,sans-Serif" font-size="10.00">../../primitives/plane</text>
<text text-anchor="middle" x="1041" y="-234.25" font-family="Helvetica,sans-Serif" font-size="10.00">/Plane.hpp</text>
</a>
</g>
</g>
<!-- Node2&#45;&gt;Node25 -->
<g id="edge47_Node000002_Node000025" class="edge">
<title>Node2&#45;&gt;Node25</title>
<g id="a_edge47_Node000002_Node000025"><a xlink:title=" ">
<path fill="none" stroke="#63b8ff" d="M657.83,-432.9C712.27,-432.64 817.74,-426.46 896,-386.75 951.43,-358.63 999.32,-301.83 1023.74,-269.23"/>
<polygon fill="#63b8ff" stroke="#63b8ff" points="1026.89,-271.86 1030,-261.73 1021.25,-267.71 1026.89,-271.86"/>
</a>
</g>
</g>
<!-- Node26 -->
<g id="Node000026" class="node">
<title>Node26</title>
<g id="a_Node000026"><a xlink:href="Sphere_8hpp.html" target="_top" xlink:title=" ">
<polygon fill="white" stroke="#666666" points="693.75,-260.5 574.25,-260.5 574.25,-227 693.75,-227 693.75,-260.5"/>
<text text-anchor="start" x="582.25" y="-247" font-family="Helvetica,sans-Serif" font-size="10.00">../../primitives/sphere</text>
<text text-anchor="middle" x="634" y="-234.25" font-family="Helvetica,sans-Serif" font-size="10.00">/Sphere.hpp</text>
</a>
</g>
</g>
<!-- Node2&#45;&gt;Node26 -->
<g id="edge50_Node000002_Node000026" class="edge">
<title>Node2&#45;&gt;Node26</title>
<g id="a_edge50_Node000002_Node000026"><a xlink:title=" ">
<path fill="none" stroke="#63b8ff" d="M622.63,-422.31C624.41,-394.44 629.56,-314.05 632.28,-271.65"/>
<polygon fill="#63b8ff" stroke="#63b8ff" points="635.83,-271.98 632.97,-261.78 628.84,-271.53 635.83,-271.98"/>
</a>
</g>
</g>
<!-- Node27 -->
<g id="Node000027" class="node">
<title>Node27</title>
<g id="a_Node000027"><a xlink:title=" ">
<polygon fill="#e0e0e0" stroke="#999999" points="752.38,-380.38 687.62,-380.38 687.62,-359.62 752.38,-359.62 752.38,-380.38"/>
<text text-anchor="middle" x="720" y="-366.88" font-family="Helvetica,sans-Serif" font-size="10.00">functional</text>
</a>
</g>
</g>
<!-- Node2&#45;&gt;Node27 -->
<g id="edge53_Node000002_Node000027" class="edge">
<title>Node2&#45;&gt;Node27</title>
<g id="a_edge53_Node000002_Node000027"><a xlink:title=" ">
<path fill="none" stroke="#63b8ff" d="M637.75,-422.3C653.32,-412.59 677.38,-397.58 695.46,-386.31"/>
<polygon fill="#63b8ff" stroke="#63b8ff" points="696.66,-389.06 703.29,-380.8 692.96,-383.12 696.66,-389.06"/>
</a>
</g>
</g>
<!-- Node28 -->
<g id="Node000028" class="node">
<title>Node28</title>
<g id="a_Node000028"><a xlink:title=" ">
<polygon fill="#e0e0e0" stroke="#999999" points="863.25,-380.38 770.75,-380.38 770.75,-359.62 863.25,-359.62 863.25,-380.38"/>
<text text-anchor="middle" x="817" y="-366.88" font-family="Helvetica,sans-Serif" font-size="10.00">unordered_map</text>
</a>
</g>
</g>
<!-- Node2&#45;&gt;Node28 -->
<g id="edge56_Node000002_Node000028" class="edge">
<title>Node2&#45;&gt;Node28</title>
<g id="a_edge56_Node000002_Node000028"><a xlink:title=" ">
<path fill="none" stroke="#63b8ff" d="M653.33,-422.3C686.45,-411.92 738.86,-395.49 775.42,-384.03"/>
<polygon fill="#63b8ff" stroke="#63b8ff" points="776.25,-387.13 784.75,-380.8 774.16,-380.45 776.25,-387.13"/>
</a>
</g>
</g>
<!-- Node3&#45;&gt;Node4 -->
<g id="edge3_Node000003_Node000004" class="edge">
<title>Node3&#45;&gt;Node4</title>
<g id="a_edge3_Node000003_Node000004"><a xlink:title=" ">
<path fill="none" stroke="#63b8ff" d="M341.55,-352.78C324.74,-343.52 303.81,-332 287.36,-322.94"/>
<polygon fill="#63b8ff" stroke="#63b8ff" points="289.23,-319.42 278.78,-317.67 285.85,-325.55 289.23,-319.42"/>
</a>
</g>
</g>
<!-- Node3&#45;&gt;Node5 -->
<g id="edge33_Node000003_Node000005" class="edge">
<title>Node3&#45;&gt;Node5</title>
<g id="a_edge33_Node000003_Node000005"><a xlink:title=" ">
<path fill="none" stroke="#63b8ff" d="M299.96,-353.89C212.67,-333.24 76,-293.17 76,-244.75 76,-244.75 76,-244.75 76,-122.88 76,-86.51 100.33,-50.07 117.2,-29.18"/>
<polygon fill="#63b8ff" stroke="#63b8ff" points="120.34,-31.88 124.09,-21.97 114.98,-27.37 120.34,-31.88"/>
</a>
</g>
</g>
<!-- Node18 -->
<g id="Node000018" class="node">
<title>Node18</title>
<g id="a_Node000018"><a xlink:title=" ">
<polygon fill="#e0e0e0" stroke="#999999" points="775.88,-134.25 738.12,-134.25 738.12,-113.5 775.88,-113.5 775.88,-134.25"/>
<text text-anchor="middle" x="757" y="-120.75" font-family="Helvetica,sans-Serif" font-size="10.00">map</text>
</a>
</g>
</g>
<!-- Node3&#45;&gt;Node18 -->
<g id="edge34_Node000003_Node000018" class="edge">
<title>Node3&#45;&gt;Node18</title>
<g id="a_edge34_Node000003_Node000018"><a xlink:title=" ">
<path fill="none" stroke="#63b8ff" d="M417.33,-352.81C438.75,-344.1 463.84,-332.09 484,-317.25 527.41,-285.31 522.56,-260.22 565,-227 617.29,-186.07 688.35,-153.18 727.72,-136.6"/>
<polygon fill="#63b8ff" stroke="#63b8ff" points="728.81,-139.52 736.7,-132.45 726.13,-133.05 728.81,-139.52"/>
</a>
</g>
</g>
<!-- Node4&#45;&gt;Node5 -->
<g id="edge4_Node000004_Node000005" class="edge">
<title>Node4&#45;&gt;Node5</title>
<g id="a_edge4_Node000004_Node000005"><a xlink:title=" ">
<path fill="none" stroke="#63b8ff" d="M230.81,-296.05C188.2,-279.65 114,-242.37 114,-181.62 114,-181.62 114,-181.62 114,-122.88 114,-90.58 121.84,-53.77 127.45,-31.57"/>
<polygon fill="#63b8ff" stroke="#63b8ff" points="131.04,-32.69 130.2,-22.12 124.27,-30.9 131.04,-32.69"/>
</a>
</g>
</g>
<!-- Node6 -->
<g id="Node000006" class="node">
<title>Node6</title>
<g id="a_Node000006"><a xlink:href="Color_8hpp.html" target="_top" xlink:title=" ">
<polygon fill="white" stroke="#666666" points="275.88,-134.25 142.12,-134.25 142.12,-113.5 275.88,-113.5 275.88,-134.25"/>
<text text-anchor="middle" x="209" y="-120.75" font-family="Helvetica,sans-Serif" font-size="10.00">../core/helpers/Color.hpp</text>
</a>
</g>
</g>
<!-- Node4&#45;&gt;Node6 -->
<g id="edge5_Node000004_Node000006" class="edge">
<title>Node4&#45;&gt;Node6</title>
<g id="a_edge5_Node000004_Node000006"><a xlink:title=" ">
<path fill="none" stroke="#63b8ff" d="M228.89,-296.12C212.1,-289.09 192.85,-277.74 183,-260.5 161.59,-223.03 183.14,-171.2 197.83,-143.73"/>
<polygon fill="#63b8ff" stroke="#63b8ff" points="201.18,-145.91 203.01,-135.47 195.07,-142.49 201.18,-145.91"/>
</a>
</g>
</g>
<!-- Node4&#45;&gt;Node7 -->
<g id="edge7_Node000004_Node000007" class="edge">
<title>Node4&#45;&gt;Node7</title>
<g id="a_edge7_Node000004_Node000007"><a xlink:title=" ">
<path fill="none" stroke="#63b8ff" d="M283.92,-296.13C304.11,-287.6 333.56,-274.41 358,-260.5 392.06,-241.12 429.03,-214.71 451.61,-197.91"/>
<polygon fill="#63b8ff" stroke="#63b8ff" points="453.45,-200.15 459.35,-191.35 449.25,-194.55 453.45,-200.15"/>
</a>
</g>
</g>
<!-- Node19 -->
<g id="Node000019" class="node">
<title>Node19</title>
<g id="a_Node000019"><a xlink:href="World_8hpp.html" target="_top" xlink:title=" ">
<polygon fill="white" stroke="#666666" points="328.38,-254.12 191.62,-254.12 191.62,-233.38 328.38,-233.38 328.38,-254.12"/>
<text text-anchor="middle" x="260" y="-240.62" font-family="Helvetica,sans-Serif" font-size="10.00">../core/helpers/World.hpp</text>
</a>
</g>
</g>
<!-- Node4&#45;&gt;Node19 -->
<g id="edge26_Node000004_Node000019" class="edge">
<title>Node4&#45;&gt;Node19</title>
<g id="a_edge26_Node000004_Node000019"><a xlink:title=" ">
<path fill="none" stroke="#63b8ff" d="M254.89,-296.05C253.29,-287.72 252.86,-275.48 253.6,-265.05"/>
<polygon fill="#63b8ff" stroke="#63b8ff" points="257.17,-265.7 254.93,-255.34 250.22,-264.84 257.17,-265.7"/>
</a>
</g>
</g>
<!-- Node4&#45;&gt;Node20 -->
<g id="edge32_Node000004_Node000020" class="edge">
<title>Node4&#45;&gt;Node20</title>
<g id="a_edge32_Node000004_Node000020"><a xlink:title=" ">
<path fill="none" stroke="#63b8ff" d="M287.95,-296.15C304.71,-288.9 325.02,-277.31 337,-260.5 349.14,-243.47 352.55,-219.39 353.29,-202.33"/>
<polygon fill="#63b8ff" stroke="#63b8ff" points="356.81,-202.39 353.45,-192.34 349.81,-202.29 356.81,-202.39"/>
</a>
</g>
</g>
<!-- Node6&#45;&gt;Node5 -->
<g id="edge6_Node000006_Node000005" class="edge">
<title>Node6&#45;&gt;Node5</title>
<g id="a_edge6_Node000006_Node000005"><a xlink:title=" ">
<path fill="none" stroke="#63b8ff" d="M202.52,-113.37C189.96,-94.95 162.11,-54.09 145.73,-30.05"/>
<polygon fill="#63b8ff" stroke="#63b8ff" points="148.2,-28.47 139.68,-22.18 142.42,-32.41 148.2,-28.47"/>
</a>
</g>
</g>
<!-- Node7&#45;&gt;Node5 -->
<g id="edge23_Node000007_Node000005" class="edge">
<title>Node7&#45;&gt;Node5</title>
<g id="a_edge23_Node000007_Node000005"><a xlink:title=" ">
<path fill="none" stroke="#63b8ff" d="M451.95,-169.86C432.46,-160.77 402.68,-146.78 377,-134.25 298.7,-96.04 207.14,-49.4 161.66,-26.1"/>
<polygon fill="#63b8ff" stroke="#63b8ff" points="163.4,-22.54 152.9,-21.1 160.2,-28.77 163.4,-22.54"/>
</a>
</g>
</g>
<!-- Node7&#45;&gt;Node6 -->
<g id="edge8_Node000007_Node000006" class="edge">
<title>Node7&#45;&gt;Node6</title>
<g id="a_edge8_Node000007_Node000006"><a xlink:title=" ">
<path fill="none" stroke="#63b8ff" d="M425.5,-169.77C381.15,-160.58 314.85,-146.83 267.31,-136.97"/>
<polygon fill="#63b8ff" stroke="#63b8ff" points="268.07,-133.34 257.57,-134.74 266.65,-140.2 268.07,-133.34"/>
</a>
</g>
</g>
<!-- Node8 -->
<g id="Node000008" class="node">
<title>Node8</title>
<g id="a_Node000008"><a xlink:href="Ray_8hpp.html" target="_top" xlink:title=" ">
<polygon fill="white" stroke="#666666" points="720.12,-134.25 593.88,-134.25 593.88,-113.5 720.12,-113.5 720.12,-134.25"/>
<text text-anchor="middle" x="657" y="-120.75" font-family="Helvetica,sans-Serif" font-size="10.00">../core/helpers/Ray.hpp</text>
</a>
</g>
</g>
<!-- Node7&#45;&gt;Node8 -->
<g id="edge9_Node000007_Node000008" class="edge">
<title>Node7&#45;&gt;Node8</title>
<g id="a_edge9_Node000007_Node000008"><a xlink:title=" ">
<path fill="none" stroke="#63b8ff" d="M505.9,-169.84C536.02,-160.87 580.82,-147.54 613.81,-137.73"/>
<polygon fill="#63b8ff" stroke="#63b8ff" points="614.49,-140.88 623.08,-134.67 612.5,-134.17 614.49,-140.88"/>
</a>
</g>
</g>
<!-- Node9 -->
<g id="Node000009" class="node">
<title>Node9</title>
<g id="a_Node000009"><a xlink:href="Math_8hpp.html" target="_top" xlink:title=" ">
<polygon fill="white" stroke="#666666" points="694.62,-77.5 595.38,-77.5 595.38,-56.75 694.62,-56.75 694.62,-77.5"/>
<text text-anchor="middle" x="645" y="-64" font-family="Helvetica,sans-Serif" font-size="10.00">../math/Math.hpp</text>
</a>
</g>
</g>
<!-- Node7&#45;&gt;Node9 -->
<g id="edge13_Node000007_Node000009" class="edge">
<title>Node7&#45;&gt;Node9</title>
<g id="a_edge13_Node000007_Node000009"><a xlink:title=" ">
<path fill="none" stroke="#63b8ff" d="M489.29,-169.91C504.37,-160.86 527.36,-146.89 547,-134.25 572.96,-117.55 602.24,-97.65 621.98,-84.07"/>
<polygon fill="#63b8ff" stroke="#63b8ff" points="623.6,-86.52 629.85,-77.96 619.63,-80.75 623.6,-86.52"/>
</a>
</g>
</g>
<!-- Node11 -->
<g id="Node000011" class="node">
<title>Node11</title>
<g id="a_Node000011"><a xlink:href="Matrix_8hpp.html" target="_top" xlink:title=" ">
<polygon fill="white" stroke="#666666" points="538,-134.25 408,-134.25 408,-113.5 538,-113.5 538,-134.25"/>
<text text-anchor="middle" x="473" y="-120.75" font-family="Helvetica,sans-Serif" font-size="10.00">../core/math/Matrix.hpp</text>
</a>
</g>
</g>
<!-- Node7&#45;&gt;Node11 -->
<g id="edge14_Node000007_Node000011" class="edge">
<title>Node7&#45;&gt;Node11</title>
<g id="a_edge14_Node000007_Node000011"><a xlink:title=" ">
<path fill="none" stroke="#63b8ff" d="M473,-169.84C473,-163.06 473,-153.8 473,-145.44"/>
<polygon fill="#63b8ff" stroke="#63b8ff" points="476.5,-145.58 473,-135.58 469.5,-145.58 476.5,-145.58"/>
</a>
</g>
</g>
<!-- Node16 -->
<g id="Node000016" class="node">
<title>Node16</title>
<g id="a_Node000016"><a xlink:title=" ">
<polygon fill="#e0e0e0" stroke="#999999" points="371.38,-77.5 324.62,-77.5 324.62,-56.75 371.38,-56.75 371.38,-77.5"/>
<text text-anchor="middle" x="348" y="-64" font-family="Helvetica,sans-Serif" font-size="10.00">vector</text>
</a>
</g>
</g>
<!-- Node7&#45;&gt;Node16 -->
<g id="edge25_Node000007_Node000016" class="edge">
<title>Node7&#45;&gt;Node16</title>
<g id="a_edge25_Node000007_Node000016"><a xlink:title=" ">
<path fill="none" stroke="#63b8ff" d="M452.82,-169.84C437.13,-161.65 415.37,-148.95 399,-134.25 383.4,-120.24 369.15,-100.95 359.7,-86.83"/>
<polygon fill="#63b8ff" stroke="#63b8ff" points="362.35,-85.48 353.97,-79 356.48,-89.29 362.35,-85.48"/>
</a>
</g>
</g>
<!-- Node7&#45;&gt;Node18 -->
<g id="edge24_Node000007_Node000018" class="edge">
<title>Node7&#45;&gt;Node18</title>
<g id="a_edge24_Node000007_Node000018"><a xlink:title=" ">
<path fill="none" stroke="#63b8ff" d="M545.06,-169.76C594.17,-162.37 660.77,-151.04 727.55,-134.33"/>
<polygon fill="#63b8ff" stroke="#63b8ff" points="728,-137.57 736.83,-131.71 726.28,-130.78 728,-137.57"/>
</a>
</g>
</g>
<!-- Node8&#45;&gt;Node9 -->
<g id="edge10_Node000008_Node000009" class="edge">
<title>Node8&#45;&gt;Node9</title>
<g id="a_edge10_Node000008_Node000009"><a xlink:title=" ">
<path fill="none" stroke="#63b8ff" d="M654.85,-113.09C653.35,-106.24 651.29,-96.84 649.44,-88.4"/>
<polygon fill="#63b8ff" stroke="#63b8ff" points="652.69,-87.85 647.13,-78.83 645.85,-89.35 652.69,-87.85"/>
</a>
</g>
</g>
<!-- Node9&#45;&gt;Node5 -->
<g id="edge11_Node000009_Node000005" class="edge">
<title>Node9&#45;&gt;Node5</title>
<g id="a_edge11_Node000009_Node000005"><a xlink:title=" ">
<path fill="none" stroke="#63b8ff" d="M595.07,-58.59C590.32,-57.94 585.57,-57.32 581,-56.75 431.44,-38.23 253.1,-21.87 174.12,-14.92"/>
<polygon fill="#63b8ff" stroke="#63b8ff" points="174.47,-11.35 164.2,-13.97 173.86,-18.33 174.47,-11.35"/>
</a>
</g>
</g>
<!-- Node10 -->
<g id="Node000010" class="node">
<title>Node10</title>
<g id="a_Node000010"><a xlink:title=" ">
<polygon fill="#e0e0e0" stroke="#999999" points="668.38,-20.75 621.62,-20.75 621.62,0 668.38,0 668.38,-20.75"/>
<text text-anchor="middle" x="645" y="-7.25" font-family="Helvetica,sans-Serif" font-size="10.00">cmath</text>
</a>
</g>
</g>
<!-- Node9&#45;&gt;Node10 -->
<g id="edge12_Node000009_Node000010" class="edge">
<title>Node9&#45;&gt;Node10</title>
<g id="a_edge12_Node000009_Node000010"><a xlink:title=" ">
<path fill="none" stroke="#63b8ff" d="M645,-56.34C645,-49.56 645,-40.3 645,-31.94"/>
<polygon fill="#63b8ff" stroke="#63b8ff" points="648.5,-32.08 645,-22.08 641.5,-32.08 648.5,-32.08"/>
</a>
</g>
</g>
<!-- Node11&#45;&gt;Node5 -->
<g id="edge20_Node000011_Node000005" class="edge">
<title>Node11&#45;&gt;Node5</title>
<g id="a_edge20_Node000011_Node000005"><a xlink:title=" ">
<path fill="none" stroke="#63b8ff" d="M499.12,-113.05C527.93,-100.8 567.76,-78.79 548,-56.75 523.28,-29.18 273.53,-16.71 173.81,-12.8"/>
<polygon fill="#63b8ff" stroke="#63b8ff" points="174.1,-9.27 163.97,-12.39 173.83,-16.27 174.1,-9.27"/>
</a>
</g>
</g>
<!-- Node11&#45;&gt;Node9 -->
<g id="edge15_Node000011_Node000009" class="edge">
<title>Node11&#45;&gt;Node9</title>
<g id="a_edge15_Node000011_Node000009"><a xlink:title=" ">
<path fill="none" stroke="#63b8ff" d="M503.75,-113.09C531.67,-104.2 573.06,-91.02 603.83,-81.23"/>
<polygon fill="#63b8ff" stroke="#63b8ff" points="604.76,-84.29 613.23,-77.92 602.64,-77.62 604.76,-84.29"/>
</a>
</g>
</g>
<!-- Node11&#45;&gt;Node12 -->
<g id="edge16_Node000011_Node000012" class="edge">
<title>Node11&#45;&gt;Node12</title>
<g id="a_edge16_Node000011_Node000012"><a xlink:title=" ">
<path fill="none" stroke="#63b8ff" d="M538.43,-114.91C626.15,-104.24 780.53,-85.46 864.54,-75.24"/>
<polygon fill="#63b8ff" stroke="#63b8ff" points="864.91,-78.6 874.41,-73.91 864.06,-71.65 864.91,-78.6"/>
</a>
</g>
</g>
<!-- Node15 -->
<g id="Node000015" class="node">
<title>Node15</title>
<g id="a_Node000015"><a xlink:title=" ">
<polygon fill="#e0e0e0" stroke="#999999" points="539,-77.5 457,-77.5 457,-56.75 539,-56.75 539,-77.5"/>
<text text-anchor="middle" x="498" y="-64" font-family="Helvetica,sans-Serif" font-size="10.00">initializer_list</text>
</a>
</g>
</g>
<!-- Node11&#45;&gt;Node15 -->
<g id="edge19_Node000011_Node000015" class="edge">
<title>Node11&#45;&gt;Node15</title>
<g id="a_edge19_Node000011_Node000015"><a xlink:title=" ">
<path fill="none" stroke="#63b8ff" d="M477.47,-113.09C480.67,-106.08 485.09,-96.41 489,-87.83"/>
<polygon fill="#63b8ff" stroke="#63b8ff" points="492.6,-89.38 493.57,-78.83 486.23,-86.47 492.6,-89.38"/>
</a>
</g>
</g>
<!-- Node11&#45;&gt;Node16 -->
<g id="edge21_Node000011_Node000016" class="edge">
<title>Node11&#45;&gt;Node16</title>
<g id="a_edge21_Node000011_Node000016"><a xlink:title=" ">
<path fill="none" stroke="#63b8ff" d="M450.65,-113.09C431.01,-104.48 402.19,-91.86 380.09,-82.18"/>
<polygon fill="#63b8ff" stroke="#63b8ff" points="381.72,-78.63 371.15,-77.83 378.91,-85.05 381.72,-78.63"/>
</a>
</g>
</g>
<!-- Node17 -->
<g id="Node000017" class="node">
<title>Node17</title>
<g id="a_Node000017"><a xlink:title=" ">
<polygon fill="#e0e0e0" stroke="#999999" points="438.5,-77.5 389.5,-77.5 389.5,-56.75 438.5,-56.75 438.5,-77.5"/>
<text text-anchor="middle" x="414" y="-64" font-family="Helvetica,sans-Serif" font-size="10.00">format</text>
</a>
</g>
</g>
<!-- Node11&#45;&gt;Node17 -->
<g id="edge22_Node000011_Node000017" class="edge">
<title>Node11&#45;&gt;Node17</title>
<g id="a_edge22_Node000011_Node000017"><a xlink:title=" ">
<path fill="none" stroke="#63b8ff" d="M462.45,-113.09C454.15,-105.38 442.36,-94.45 432.5,-85.29"/>
<polygon fill="#63b8ff" stroke="#63b8ff" points="435.17,-83.07 425.46,-78.83 430.41,-88.2 435.17,-83.07"/>
</a>
</g>
</g>
<!-- Node13 -->
<g id="Node000013" class="node">
<title>Node13</title>
<g id="a_Node000013"><a xlink:title=" ">
<polygon fill="#e0e0e0" stroke="#999999" points="919,-20.75 855,-20.75 855,0 919,0 919,-20.75"/>
<text text-anchor="middle" x="887" y="-7.25" font-family="Helvetica,sans-Serif" font-size="10.00">stdexcept</text>
</a>
</g>
</g>
<!-- Node12&#45;&gt;Node13 -->
<g id="edge17_Node000012_Node000013" class="edge">
<title>Node12&#45;&gt;Node13</title>
<g id="a_edge17_Node000012_Node000013"><a xlink:title=" ">
<path fill="none" stroke="#63b8ff" d="M916.56,-56.34C911.8,-49.1 905.17,-39.01 899.39,-30.22"/>
<polygon fill="#63b8ff" stroke="#63b8ff" points="901.8,-28.51 893.38,-22.08 895.95,-32.36 901.8,-28.51"/>
</a>
</g>
</g>
<!-- Node14 -->
<g id="Node000014" class="node">
<title>Node14</title>
<g id="a_Node000014"><a xlink:title=" ">
<polygon fill="#e0e0e0" stroke="#999999" points="980.88,-20.75 937.12,-20.75 937.12,0 980.88,0 980.88,-20.75"/>
<text text-anchor="middle" x="959" y="-7.25" font-family="Helvetica,sans-Serif" font-size="10.00">string</text>
</a>
</g>
</g>
<!-- Node12&#45;&gt;Node14 -->
<g id="edge18_Node000012_Node000014" class="edge">
<title>Node12&#45;&gt;Node14</title>
<g id="a_edge18_Node000012_Node000014"><a xlink:title=" ">
<path fill="none" stroke="#63b8ff" d="M929.44,-56.34C934.2,-49.1 940.83,-39.01 946.61,-30.22"/>
<polygon fill="#63b8ff" stroke="#63b8ff" points="950.05,-32.36 952.62,-22.08 944.2,-28.51 950.05,-32.36"/>
</a>
</g>
</g>
<!-- Node19&#45;&gt;Node4 -->
<g id="edge28_Node000019_Node000004" class="edge">
<title>Node19&#45;&gt;Node4</title>
<g id="a_edge28_Node000019_Node000004"><a xlink:title=" ">
<path fill="none" stroke="#63b8ff" d="M265.07,-254.34C266.69,-262.61 267.14,-274.83 266.42,-285.29"/>
<polygon fill="#63b8ff" stroke="#63b8ff" points="262.84,-284.71 265.11,-295.05 269.79,-285.55 262.84,-284.71"/>
</a>
</g>
</g>
<!-- Node19&#45;&gt;Node7 -->
<g id="edge27_Node000019_Node000007" class="edge">
<title>Node19&#45;&gt;Node7</title>
<g id="a_edge27_Node000019_Node000007"><a xlink:title=" ">
<path fill="none" stroke="#63b8ff" d="M294.22,-232.93C330.63,-222.48 388.38,-205.91 428.35,-194.44"/>
<polygon fill="#63b8ff" stroke="#63b8ff" points="429.22,-197.54 437.86,-191.42 427.29,-190.82 429.22,-197.54"/>
</a>
</g>
</g>
<!-- Node19&#45;&gt;Node16 -->
<g id="edge29_Node000019_Node000016" class="edge">
<title>Node19&#45;&gt;Node16</title>
<g id="a_edge29_Node000019_Node000016"><a xlink:title=" ">
<path fill="none" stroke="#63b8ff" d="M256.31,-232.98C251.52,-218.67 244.67,-191.43 253,-170.25 254.04,-167.61 304.51,-114.06 331.45,-85.58"/>
<polygon fill="#63b8ff" stroke="#63b8ff" points="333.34,-88.63 337.67,-78.96 328.26,-83.81 333.34,-88.63"/>
</a>
</g>
</g>
<!-- Node19&#45;&gt;Node20 -->
<g id="edge30_Node000019_Node000020" class="edge">
<title>Node19&#45;&gt;Node20</title>
<g id="a_edge30_Node000019_Node000020"><a xlink:title=" ">
<path fill="none" stroke="#63b8ff" d="M274.94,-232.93C289.59,-223.3 312.13,-208.48 329.24,-197.24"/>
<polygon fill="#63b8ff" stroke="#63b8ff" points="330.66,-199.84 337.1,-191.42 326.82,-193.99 330.66,-199.84"/>
</a>
</g>
</g>
<!-- Node21 -->
<g id="Node000021" class="node">
<title>Node21</title>
<g id="a_Node000021"><a xlink:title=" ">
<polygon fill="#e0e0e0" stroke="#999999" points="305.88,-191 262.12,-191 262.12,-170.25 305.88,-170.25 305.88,-191"/>
<text text-anchor="middle" x="284" y="-177.5" font-family="Helvetica,sans-Serif" font-size="10.00">limits</text>
</a>
</g>
</g>
<!-- Node19&#45;&gt;Node21 -->
<g id="edge31_Node000019_Node000021" class="edge">
<title>Node19&#45;&gt;Node21</title>
<g id="a_edge31_Node000019_Node000021"><a xlink:title=" ">
<path fill="none" stroke="#63b8ff" d="M263.86,-232.93C267.2,-224.41 272.14,-211.83 276.29,-201.26"/>
<polygon fill="#63b8ff" stroke="#63b8ff" points="279.84,-202.81 280.23,-192.22 273.32,-200.25 279.84,-202.81"/>
</a>
</g>
</g>
<!-- Node22&#45;&gt;Node4 -->
<g id="edge37_Node000022_Node000004" class="edge">
<title>Node22&#45;&gt;Node4</title>
<g id="a_edge37_Node000022_Node000004"><a xlink:title=" ">
<path fill="none" stroke="#63b8ff" d="M234.93,-352.94C239.3,-345.08 244.6,-335.56 249.2,-327.29"/>
<polygon fill="#63b8ff" stroke="#63b8ff" points="252.72,-329.16 254.53,-318.72 246.61,-325.75 252.72,-329.16"/>
</a>
</g>
</g>
<!-- Node22&#45;&gt;Node5 -->
<g id="edge38_Node000022_Node000005" class="edge">
<title>Node22&#45;&gt;Node5</title>
<g id="a_edge38_Node000022_Node000005"><a xlink:title=" ">
<path fill="none" stroke="#63b8ff" d="M169.17,-364.08C134.09,-358.2 90.49,-345.34 62,-317.25 37.83,-293.42 38,-278.69 38,-244.75 38,-244.75 38,-244.75 38,-122.88 38,-91.61 42.46,-81.16 62,-56.75 72.23,-43.98 87.07,-33.7 100.55,-26.18"/>
<polygon fill="#63b8ff" stroke="#63b8ff" points="101.81,-28.95 109.03,-21.2 98.55,-22.75 101.81,-28.95"/>
</a>
</g>
</g>
<!-- Node22&#45;&gt;Node18 -->
<g id="edge39_Node000022_Node000018" class="edge">
<title>Node22&#45;&gt;Node18</title>
<g id="a_edge39_Node000022_Node000018"><a xlink:title=" ">
<path fill="none" stroke="#63b8ff" d="M253.55,-352.89C316.17,-316.73 474.66,-227.79 615,-170.25 661.18,-151.31 676.61,-150.69 727.45,-134.67"/>
<polygon fill="#63b8ff" stroke="#63b8ff" points="728.28,-137.76 736.73,-131.37 726.14,-131.09 728.28,-137.76"/>
</a>
</g>
</g>
<!-- Node23&#45;&gt;Node7 -->
<g id="edge41_Node000023_Node000007" class="edge">
<title>Node23&#45;&gt;Node7</title>
<g id="a_edge41_Node000023_Node000007"><a xlink:title=" ">
<path fill="none" stroke="#63b8ff" d="M711.88,-229.01C708.88,-228.32 705.9,-227.64 703,-227 647.27,-214.65 583.57,-202.21 537.36,-193.49"/>
<polygon fill="#63b8ff" stroke="#63b8ff" points="538.07,-189.88 527.59,-191.47 536.77,-196.76 538.07,-189.88"/>
</a>
</g>
</g>
<!-- Node23&#45;&gt;Node18 -->
<g id="edge42_Node000023_Node000018" class="edge">
<title>Node23&#45;&gt;Node18</title>
<g id="a_edge42_Node000023_Node000018"><a xlink:title=" ">
<path fill="none" stroke="#63b8ff" d="M765.65,-226.85C763.86,-205.77 760.7,-168.53 758.74,-145.36"/>
<polygon fill="#63b8ff" stroke="#63b8ff" points="762.16,-145.35 757.83,-135.68 755.19,-145.94 762.16,-145.35"/>
</a>
</g>
</g>
<!-- Node24&#45;&gt;Node7 -->
<g id="edge44_Node000024_Node000007" class="edge">
<title>Node24&#45;&gt;Node7</title>
<g id="a_edge44_Node000024_Node000007"><a xlink:title=" ">
<path fill="none" stroke="#63b8ff" d="M839.85,-228.6C836.86,-228.04 833.9,-227.5 831,-227 737.77,-210.93 629.97,-198.03 557.23,-190.15"/>
<polygon fill="#63b8ff" stroke="#63b8ff" points="557.62,-186.57 547.31,-188.98 556.87,-193.53 557.62,-186.57"/>
</a>
</g>
</g>
<!-- Node24&#45;&gt;Node18 -->
<g id="edge45_Node000024_Node000018" class="edge">
<title>Node24&#45;&gt;Node18</title>
<g id="a_edge45_Node000024_Node000018"><a xlink:title=" ">
<path fill="none" stroke="#63b8ff" d="M883.01,-226.61C855.24,-204.19 805.28,-163.85 777.33,-141.29"/>
<polygon fill="#63b8ff" stroke="#63b8ff" points="780.07,-138.2 770.09,-134.64 775.67,-143.64 780.07,-138.2"/>
</a>
</g>
</g>
<!-- Node25&#45;&gt;Node7 -->
<g id="edge48_Node000025_Node000007" class="edge">
<title>Node25&#45;&gt;Node7</title>
<g id="a_edge48_Node000025_Node000007"><a xlink:title=" ">
<path fill="none" stroke="#63b8ff" d="M983.86,-228.58C980.87,-228.01 977.91,-227.48 975,-227 829.12,-203.13 657.19,-191 557.1,-185.52"/>
<polygon fill="#63b8ff" stroke="#63b8ff" points="557.33,-181.97 547.16,-184.93 556.95,-188.96 557.33,-181.97"/>
</a>
</g>
</g>
<!-- Node25&#45;&gt;Node18 -->
<g id="edge49_Node000025_Node000018" class="edge">
<title>Node25&#45;&gt;Node18</title>
<g id="a_edge49_Node000025_Node000018"><a xlink:title=" ">
<path fill="none" stroke="#63b8ff" d="M1002.11,-226.61C944.52,-202.71 837.87,-158.44 786.35,-137.06"/>
<polygon fill="#63b8ff" stroke="#63b8ff" points="787.81,-133.46 777.24,-132.86 785.13,-139.93 787.81,-133.46"/>
</a>
</g>
</g>
<!-- Node26&#45;&gt;Node7 -->
<g id="edge51_Node000026_Node000007" class="edge">
<title>Node26&#45;&gt;Node7</title>
<g id="a_edge51_Node000026_Node000007"><a xlink:title=" ">
<path fill="none" stroke="#63b8ff" d="M591.28,-226.53C565.63,-216.79 533.38,-204.55 509.03,-195.3"/>
<polygon fill="#63b8ff" stroke="#63b8ff" points="510.38,-191.69 499.79,-191.42 507.89,-198.24 510.38,-191.69"/>
</a>
</g>
</g>
<!-- Node26&#45;&gt;Node18 -->
<g id="edge52_Node000026_Node000018" class="edge">
<title>Node26&#45;&gt;Node18</title>
<g id="a_edge52_Node000026_Node000018"><a xlink:title=" ">
<path fill="none" stroke="#63b8ff" d="M650.84,-226.61C673.93,-204.48 715.24,-164.9 738.94,-142.18"/>
<polygon fill="#63b8ff" stroke="#63b8ff" points="741.02,-145.08 745.81,-135.64 736.17,-140.03 741.02,-145.08"/>
</a>
</g>
</g>
</g>
</svg>
