<?xml version="1.0" encoding="UTF-8" standalone="no"?>
<!DOCTYPE svg PUBLIC "-//W3C//DTD SVG 1.1//EN"
 "http://www.w3.org/Graphics/SVG/1.1/DTD/svg11.dtd">
<!-- Generated by graphviz version 8.1.0 (20230707.0739)
 -->
<!-- Title: src/lights/ILight.hpp Pages: 1 -->
<svg width="765pt" height="313pt"
 viewBox="0.00 0.00 764.62 312.50" xmlns="http://www.w3.org/2000/svg" xmlns:xlink="http://www.w3.org/1999/xlink">
<g id="graph0" class="graph" transform="scale(1 1) rotate(0) translate(4 308.5)">
<title>src/lights/ILight.hpp</title>
<!-- Node1 -->
<g id="Node000001" class="node">
<title>Node1</title>
<g id="a_Node000001"><a xlink:title=" ">
<polygon fill="#999999" stroke="#666666" points="591.62,-304.5 480.38,-304.5 480.38,-283.75 591.62,-283.75 591.62,-304.5"/>
<text text-anchor="middle" x="536" y="-291" font-family="Helvetica,sans-Serif" font-size="10.00">src/lights/ILight.hpp</text>
</a>
</g>
</g>
<!-- Node2 -->
<g id="Node000002" class="node">
<title>Node2</title>
<g id="a_Node000002"><a xlink:title=" ">
<polygon fill="#e0e0e0" stroke="#999999" points="206.75,-20.75 147.25,-20.75 147.25,0 206.75,0 206.75,-20.75"/>
<text text-anchor="middle" x="177" y="-7.25" font-family="Helvetica,sans-Serif" font-size="10.00">iostream</text>
</a>
</g>
</g>
<!-- Node1&#45;&gt;Node2 -->
<g id="edge1_Node000001_Node000002" class="edge">
<title>Node1&#45;&gt;Node2</title>
<g id="a_edge1_Node000001_Node000002"><a xlink:title=" ">
<path fill="none" stroke="#63b8ff" d="M479.9,-293.21C342.45,-291.89 0,-278.87 0,-181.62 0,-181.62 0,-181.62 0,-122.88 0,-58.79 84.09,-30.08 136.35,-18.42"/>
<polygon fill="#63b8ff" stroke="#63b8ff" points="136.91,-21.67 145.97,-16.18 135.47,-14.82 136.91,-21.67"/>
</a>
</g>
</g>
<!-- Node3 -->
<g id="Node000003" class="node">
<title>Node3</title>
<g id="a_Node000003"><a xlink:href="Color_8hpp.html" target="_top" xlink:title=" ">
<polygon fill="white" stroke="#666666" points="161.88,-134.25 28.12,-134.25 28.12,-113.5 161.88,-113.5 161.88,-134.25"/>
<text text-anchor="middle" x="95" y="-120.75" font-family="Helvetica,sans-Serif" font-size="10.00">../core/helpers/Color.hpp</text>
</a>
</g>
</g>
<!-- Node1&#45;&gt;Node3 -->
<g id="edge2_Node000001_Node000003" class="edge">
<title>Node1&#45;&gt;Node3</title>
<g id="a_edge2_Node000001_Node000003"><a xlink:title=" ">
<path fill="none" stroke="#63b8ff" d="M510.38,-283.35C435.56,-254.81 217.19,-171.49 130.79,-138.53"/>
<polygon fill="#63b8ff" stroke="#63b8ff" points="132.28,-134.97 121.69,-134.68 129.78,-141.51 132.28,-134.97"/>
</a>
</g>
</g>
<!-- Node4 -->
<g id="Node000004" class="node">
<title>Node4</title>
<g id="a_Node000004"><a xlink:href="IPrimitive_8hpp.html" target="_top" xlink:title=" ">
<polygon fill="white" stroke="#666666" points="537.88,-191 392.12,-191 392.12,-170.25 537.88,-170.25 537.88,-191"/>
<text text-anchor="middle" x="465" y="-177.5" font-family="Helvetica,sans-Serif" font-size="10.00">../primitives/IPrimitive.hpp</text>
</a>
</g>
</g>
<!-- Node1&#45;&gt;Node4 -->
<g id="edge4_Node000001_Node000004" class="edge">
<title>Node1&#45;&gt;Node4</title>
<g id="a_edge4_Node000001_Node000004"><a xlink:title=" ">
<path fill="none" stroke="#63b8ff" d="M529.95,-283.62C518.27,-265.28 492.43,-224.7 477.1,-200.62"/>
<polygon fill="#63b8ff" stroke="#63b8ff" points="479.56,-198.98 471.24,-192.43 473.66,-202.74 479.56,-198.98"/>
</a>
</g>
</g>
<!-- Node16 -->
<g id="Node000016" class="node">
<title>Node16</title>
<g id="a_Node000016"><a xlink:href="World_8hpp.html" target="_top" xlink:title=" ">
<polygon fill="white" stroke="#666666" points="654.38,-247.75 517.62,-247.75 517.62,-227 654.38,-227 654.38,-247.75"/>
<text text-anchor="middle" x="586" y="-234.25" font-family="Helvetica,sans-Serif" font-size="10.00">../core/helpers/World.hpp</text>
</a>
</g>
</g>
<!-- Node1&#45;&gt;Node16 -->
<g id="edge23_Node000001_Node000016" class="edge">
<title>Node1&#45;&gt;Node16</title>
<g id="a_edge23_Node000001_Node000016"><a xlink:title=" ">
<path fill="none" stroke="#63b8ff" d="M539.62,-283.34C545.18,-275.63 554.83,-264.7 564.01,-255.54"/>
<polygon fill="#63b8ff" stroke="#63b8ff" points="566.01,-258.51 570.84,-249.08 561.19,-253.44 566.01,-258.51"/>
</a>
</g>
</g>
<!-- Node17 -->
<g id="Node000017" class="node">
<title>Node17</title>
<g id="a_Node000017"><a xlink:title=" ">
<polygon fill="#e0e0e0" stroke="#999999" points="756.62,-191 699.38,-191 699.38,-170.25 756.62,-170.25 756.62,-191"/>
<text text-anchor="middle" x="728" y="-177.5" font-family="Helvetica,sans-Serif" font-size="10.00">memory</text>
</a>
</g>
</g>
<!-- Node1&#45;&gt;Node17 -->
<g id="edge29_Node000001_Node000017" class="edge">
<title>Node1&#45;&gt;Node17</title>
<g id="a_edge29_Node000001_Node000017"><a xlink:title=" ">
<path fill="none" stroke="#63b8ff" d="M577.9,-283.3C603.76,-276.02 636.86,-264.45 663,-247.75 683.45,-234.69 702.35,-214.08 714.44,-199.35"/>
<polygon fill="#63b8ff" stroke="#63b8ff" points="717.55,-202.06 721.03,-192.05 712.07,-197.7 717.55,-202.06"/>
</a>
</g>
</g>
<!-- Node3&#45;&gt;Node2 -->
<g id="edge3_Node000003_Node000002" class="edge">
<title>Node3&#45;&gt;Node2</title>
<g id="a_edge3_Node000003_Node000002"><a xlink:title=" ">
<path fill="none" stroke="#63b8ff" d="M101.99,-113.37C115.6,-94.86 145.85,-53.72 163.5,-29.73"/>
<polygon fill="#63b8ff" stroke="#63b8ff" points="166.69,-32.3 169.79,-22.18 161.05,-28.16 166.69,-32.3"/>
</a>
</g>
</g>
<!-- Node4&#45;&gt;Node2 -->
<g id="edge20_Node000004_Node000002" class="edge">
<title>Node4&#45;&gt;Node2</title>
<g id="a_edge20_Node000004_Node000002"><a xlink:title=" ">
<path fill="none" stroke="#63b8ff" d="M391.86,-178.59C344.42,-174.82 283.1,-163.85 237,-134.25 201.17,-111.24 186.09,-60.15 180.28,-31.63"/>
<polygon fill="#63b8ff" stroke="#63b8ff" points="183.56,-31.14 178.32,-21.93 176.68,-32.4 183.56,-31.14"/>
</a>
</g>
</g>
<!-- Node4&#45;&gt;Node3 -->
<g id="edge5_Node000004_Node000003" class="edge">
<title>Node4&#45;&gt;Node3</title>
<g id="a_edge5_Node000004_Node000003"><a xlink:title=" ">
<path fill="none" stroke="#63b8ff" d="M398.42,-169.77C334.83,-160.36 239.03,-146.19 172.14,-136.29"/>
<polygon fill="#63b8ff" stroke="#63b8ff" points="173.07,-132.74 162.66,-134.74 172.04,-139.67 173.07,-132.74"/>
</a>
</g>
</g>
<!-- Node5 -->
<g id="Node000005" class="node">
<title>Node5</title>
<g id="a_Node000005"><a xlink:href="Ray_8hpp.html" target="_top" xlink:title=" ">
<polygon fill="white" stroke="#666666" points="382.12,-134.25 255.88,-134.25 255.88,-113.5 382.12,-113.5 382.12,-134.25"/>
<text text-anchor="middle" x="319" y="-120.75" font-family="Helvetica,sans-Serif" font-size="10.00">../core/helpers/Ray.hpp</text>
</a>
</g>
</g>
<!-- Node4&#45;&gt;Node5 -->
<g id="edge6_Node000004_Node000005" class="edge">
<title>Node4&#45;&gt;Node5</title>
<g id="a_edge6_Node000004_Node000005"><a xlink:title=" ">
<path fill="none" stroke="#63b8ff" d="M438.9,-169.84C415.54,-161.08 381.08,-148.15 355.09,-138.41"/>
<polygon fill="#63b8ff" stroke="#63b8ff" points="356.47,-134.81 345.88,-134.58 354.01,-141.37 356.47,-134.81"/>
</a>
</g>
</g>
<!-- Node6 -->
<g id="Node000006" class="node">
<title>Node6</title>
<g id="a_Node000006"><a xlink:href="Math_8hpp.html" target="_top" xlink:title=" ">
<polygon fill="white" stroke="#666666" points="304.62,-77.5 205.38,-77.5 205.38,-56.75 304.62,-56.75 304.62,-77.5"/>
<text text-anchor="middle" x="255" y="-64" font-family="Helvetica,sans-Serif" font-size="10.00">../math/Math.hpp</text>
</a>
</g>
</g>
<!-- Node4&#45;&gt;Node6 -->
<g id="edge10_Node000004_Node000006" class="edge">
<title>Node4&#45;&gt;Node6</title>
<g id="a_edge10_Node000004_Node000006"><a xlink:title=" ">
<path fill="none" stroke="#63b8ff" d="M391.83,-174.15C335.8,-168.26 265.14,-156.56 247,-134.25 236.53,-121.38 240.31,-102.17 245.65,-87.77"/>
<polygon fill="#63b8ff" stroke="#63b8ff" points="249.16,-89.45 249.83,-78.88 242.71,-86.73 249.16,-89.45"/>
</a>
</g>
</g>
<!-- Node8 -->
<g id="Node000008" class="node">
<title>Node8</title>
<g id="a_Node000008"><a xlink:href="Matrix_8hpp.html" target="_top" xlink:title=" ">
<polygon fill="white" stroke="#666666" points="530,-134.25 400,-134.25 400,-113.5 530,-113.5 530,-134.25"/>
<text text-anchor="middle" x="465" y="-120.75" font-family="Helvetica,sans-Serif" font-size="10.00">../core/math/Matrix.hpp</text>
</a>
</g>
</g>
<!-- Node4&#45;&gt;Node8 -->
<g id="edge11_Node000004_Node000008" class="edge">
<title>Node4&#45;&gt;Node8</title>
<g id="a_edge11_Node000004_Node000008"><a xlink:title=" ">
<path fill="none" stroke="#63b8ff" d="M465,-169.84C465,-163.06 465,-153.8 465,-145.44"/>
<polygon fill="#63b8ff" stroke="#63b8ff" points="468.5,-145.58 465,-135.58 461.5,-145.58 468.5,-145.58"/>
</a>
</g>
</g>
<!-- Node13 -->
<g id="Node000013" class="node">
<title>Node13</title>
<g id="a_Node000013"><a xlink:title=" ">
<polygon fill="#e0e0e0" stroke="#999999" points="687.38,-77.5 640.62,-77.5 640.62,-56.75 687.38,-56.75 687.38,-77.5"/>
<text text-anchor="middle" x="664" y="-64" font-family="Helvetica,sans-Serif" font-size="10.00">vector</text>
</a>
</g>
</g>
<!-- Node4&#45;&gt;Node13 -->
<g id="edge22_Node000004_Node000013" class="edge">
<title>Node4&#45;&gt;Node13</title>
<g id="a_edge22_Node000004_Node000013"><a xlink:title=" ">
<path fill="none" stroke="#63b8ff" d="M480.8,-169.94C502.35,-156.82 542.26,-132.8 577,-113.5 596.17,-102.85 618.06,-91.44 635.09,-82.72"/>
<polygon fill="#63b8ff" stroke="#63b8ff" points="636.17,-85.59 643.49,-77.93 632.99,-79.35 636.17,-85.59"/>
</a>
</g>
</g>
<!-- Node15 -->
<g id="Node000015" class="node">
<title>Node15</title>
<g id="a_Node000015"><a xlink:title=" ">
<polygon fill="#e0e0e0" stroke="#999999" points="623.88,-134.25 586.12,-134.25 586.12,-113.5 623.88,-113.5 623.88,-134.25"/>
<text text-anchor="middle" x="605" y="-120.75" font-family="Helvetica,sans-Serif" font-size="10.00">map</text>
</a>
</g>
</g>
<!-- Node4&#45;&gt;Node15 -->
<g id="edge21_Node000004_Node000015" class="edge">
<title>Node4&#45;&gt;Node15</title>
<g id="a_edge21_Node000004_Node000015"><a xlink:title=" ">
<path fill="none" stroke="#63b8ff" d="M490.03,-169.84C514.12,-160.42 550.52,-146.18 575.89,-136.26"/>
<polygon fill="#63b8ff" stroke="#63b8ff" points="576.98,-139.2 585.02,-132.3 574.43,-132.68 576.98,-139.2"/>
</a>
</g>
</g>
<!-- Node5&#45;&gt;Node6 -->
<g id="edge7_Node000005_Node000006" class="edge">
<title>Node5&#45;&gt;Node6</title>
<g id="a_edge7_Node000005_Node000006"><a xlink:title=" ">
<path fill="none" stroke="#63b8ff" d="M307.56,-113.09C298.37,-105.22 285.25,-94 274.42,-84.74"/>
<polygon fill="#63b8ff" stroke="#63b8ff" points="277.22,-81.67 267.34,-77.83 272.67,-86.99 277.22,-81.67"/>
</a>
</g>
</g>
<!-- Node6&#45;&gt;Node2 -->
<g id="edge8_Node000006_Node000002" class="edge">
<title>Node6&#45;&gt;Node2</title>
<g id="a_edge8_Node000006_Node000002"><a xlink:title=" ">
<path fill="none" stroke="#63b8ff" d="M241.06,-56.34C229.52,-48.24 212.91,-36.58 199.5,-27.17"/>
<polygon fill="#63b8ff" stroke="#63b8ff" points="202.02,-23.96 191.82,-21.08 198,-29.69 202.02,-23.96"/>
</a>
</g>
</g>
<!-- Node7 -->
<g id="Node000007" class="node">
<title>Node7</title>
<g id="a_Node000007"><a xlink:title=" ">
<polygon fill="#e0e0e0" stroke="#999999" points="278.38,-20.75 231.62,-20.75 231.62,0 278.38,0 278.38,-20.75"/>
<text text-anchor="middle" x="255" y="-7.25" font-family="Helvetica,sans-Serif" font-size="10.00">cmath</text>
</a>
</g>
</g>
<!-- Node6&#45;&gt;Node7 -->
<g id="edge9_Node000006_Node000007" class="edge">
<title>Node6&#45;&gt;Node7</title>
<g id="a_edge9_Node000006_Node000007"><a xlink:title=" ">
<path fill="none" stroke="#63b8ff" d="M255,-56.34C255,-49.56 255,-40.3 255,-31.94"/>
<polygon fill="#63b8ff" stroke="#63b8ff" points="258.5,-32.08 255,-22.08 251.5,-32.08 258.5,-32.08"/>
</a>
</g>
</g>
<!-- Node8&#45;&gt;Node2 -->
<g id="edge17_Node000008_Node000002" class="edge">
<title>Node8&#45;&gt;Node2</title>
<g id="a_edge17_Node000008_Node000002"><a xlink:title=" ">
<path fill="none" stroke="#63b8ff" d="M438.14,-113.11C415,-104.46 380.87,-91.12 352,-77.5 334.6,-69.29 331.65,-64.42 314,-56.75 282.45,-43.05 245.34,-30.99 217.71,-22.76"/>
<polygon fill="#63b8ff" stroke="#63b8ff" points="218.82,-19.14 208.24,-19.69 216.85,-25.86 218.82,-19.14"/>
</a>
</g>
</g>
<!-- Node8&#45;&gt;Node6 -->
<g id="edge12_Node000008_Node000006" class="edge">
<title>Node8&#45;&gt;Node6</title>
<g id="a_edge12_Node000008_Node000006"><a xlink:title=" ">
<path fill="none" stroke="#63b8ff" d="M427.46,-113.09C392.62,-104.01 340.62,-90.45 302.83,-80.59"/>
<polygon fill="#63b8ff" stroke="#63b8ff" points="304.13,-77.06 293.57,-77.92 302.37,-83.83 304.13,-77.06"/>
</a>
</g>
</g>
<!-- Node9 -->
<g id="Node000009" class="node">
<title>Node9</title>
<g id="a_Node000009"><a xlink:href="Error_8hpp.html" target="_top" xlink:title=" ">
<polygon fill="white" stroke="#666666" points="455.38,-77.5 360.62,-77.5 360.62,-56.75 455.38,-56.75 455.38,-77.5"/>
<text text-anchor="middle" x="408" y="-64" font-family="Helvetica,sans-Serif" font-size="10.00">../error/Error.hpp</text>
</a>
</g>
</g>
<!-- Node8&#45;&gt;Node9 -->
<g id="edge13_Node000008_Node000009" class="edge">
<title>Node8&#45;&gt;Node9</title>
<g id="a_edge13_Node000008_Node000009"><a xlink:title=" ">
<path fill="none" stroke="#63b8ff" d="M454.81,-113.09C446.79,-105.38 435.4,-94.45 425.87,-85.29"/>
<polygon fill="#63b8ff" stroke="#63b8ff" points="428.74,-83.23 419.1,-78.83 423.89,-88.28 428.74,-83.23"/>
</a>
</g>
</g>
<!-- Node12 -->
<g id="Node000012" class="node">
<title>Node12</title>
<g id="a_Node000012"><a xlink:title=" ">
<polygon fill="#e0e0e0" stroke="#999999" points="555,-77.5 473,-77.5 473,-56.75 555,-56.75 555,-77.5"/>
<text text-anchor="middle" x="514" y="-64" font-family="Helvetica,sans-Serif" font-size="10.00">initializer_list</text>
</a>
</g>
</g>
<!-- Node8&#45;&gt;Node12 -->
<g id="edge16_Node000008_Node000012" class="edge">
<title>Node8&#45;&gt;Node12</title>
<g id="a_edge16_Node000008_Node000012"><a xlink:title=" ">
<path fill="none" stroke="#63b8ff" d="M473.76,-113.09C480.52,-105.53 490.05,-94.89 498.14,-85.85"/>
<polygon fill="#63b8ff" stroke="#63b8ff" points="500.25,-88.61 504.32,-78.83 495.04,-83.95 500.25,-88.61"/>
</a>
</g>
</g>
<!-- Node8&#45;&gt;Node13 -->
<g id="edge18_Node000008_Node000013" class="edge">
<title>Node8&#45;&gt;Node13</title>
<g id="a_edge18_Node000008_Node000013"><a xlink:title=" ">
<path fill="none" stroke="#63b8ff" d="M501.3,-113.07C532.78,-104.53 579.83,-91.72 629.84,-77.8"/>
<polygon fill="#63b8ff" stroke="#63b8ff" points="630.52,-80.97 639.21,-74.91 628.64,-74.23 630.52,-80.97"/>
</a>
</g>
</g>
<!-- Node14 -->
<g id="Node000014" class="node">
<title>Node14</title>
<g id="a_Node000014"><a xlink:title=" ">
<polygon fill="#e0e0e0" stroke="#999999" points="622.5,-77.5 573.5,-77.5 573.5,-56.75 622.5,-56.75 622.5,-77.5"/>
<text text-anchor="middle" x="598" y="-64" font-family="Helvetica,sans-Serif" font-size="10.00">format</text>
</a>
</g>
</g>
<!-- Node8&#45;&gt;Node14 -->
<g id="edge19_Node000008_Node000014" class="edge">
<title>Node8&#45;&gt;Node14</title>
<g id="a_edge19_Node000008_Node000014"><a xlink:title=" ">
<path fill="none" stroke="#63b8ff" d="M488.78,-113.09C509.87,-104.41 540.89,-91.63 564.49,-81.92"/>
<polygon fill="#63b8ff" stroke="#63b8ff" points="565.51,-84.87 573.43,-77.83 562.85,-78.4 565.51,-84.87"/>
</a>
</g>
</g>
<!-- Node10 -->
<g id="Node000010" class="node">
<title>Node10</title>
<g id="a_Node000010"><a xlink:title=" ">
<polygon fill="#e0e0e0" stroke="#999999" points="404,-20.75 340,-20.75 340,0 404,0 404,-20.75"/>
<text text-anchor="middle" x="372" y="-7.25" font-family="Helvetica,sans-Serif" font-size="10.00">stdexcept</text>
</a>
</g>
</g>
<!-- Node9&#45;&gt;Node10 -->
<g id="edge14_Node000009_Node000010" class="edge">
<title>Node9&#45;&gt;Node10</title>
<g id="a_edge14_Node000009_Node000010"><a xlink:title=" ">
<path fill="none" stroke="#63b8ff" d="M401.56,-56.34C396.8,-49.1 390.17,-39.01 384.39,-30.22"/>
<polygon fill="#63b8ff" stroke="#63b8ff" points="386.8,-28.51 378.38,-22.08 380.95,-32.36 386.8,-28.51"/>
</a>
</g>
</g>
<!-- Node11 -->
<g id="Node000011" class="node">
<title>Node11</title>
<g id="a_Node000011"><a xlink:title=" ">
<polygon fill="#e0e0e0" stroke="#999999" points="465.88,-20.75 422.12,-20.75 422.12,0 465.88,0 465.88,-20.75"/>
<text text-anchor="middle" x="444" y="-7.25" font-family="Helvetica,sans-Serif" font-size="10.00">string</text>
</a>
</g>
</g>
<!-- Node9&#45;&gt;Node11 -->
<g id="edge15_Node000009_Node000011" class="edge">
<title>Node9&#45;&gt;Node11</title>
<g id="a_edge15_Node000009_Node000011"><a xlink:title=" ">
<path fill="none" stroke="#63b8ff" d="M414.44,-56.34C419.2,-49.1 425.83,-39.01 431.61,-30.22"/>
<polygon fill="#63b8ff" stroke="#63b8ff" points="435.05,-32.36 437.62,-22.08 429.2,-28.51 435.05,-32.36"/>
</a>
</g>
</g>
<!-- Node16&#45;&gt;Node1 -->
<g id="edge25_Node000016_Node000001" class="edge">
<title>Node16&#45;&gt;Node1</title>
<g id="a_edge25_Node000016_Node000001"><a xlink:title=" ">
<path fill="none" stroke="#63b8ff" d="M582.44,-248.08C576.91,-255.76 567.27,-266.69 558.09,-275.86"/>
<polygon fill="#63b8ff" stroke="#63b8ff" points="556.07,-272.9 551.25,-282.34 560.91,-277.97 556.07,-272.9"/>
</a>
</g>
</g>
<!-- Node16&#45;&gt;Node4 -->
<g id="edge24_Node000016_Node000004" class="edge">
<title>Node16&#45;&gt;Node4</title>
<g id="a_edge24_Node000016_Node000004"><a xlink:title=" ">
<path fill="none" stroke="#63b8ff" d="M564.37,-226.59C545.44,-218.02 517.71,-205.48 496.35,-195.81"/>
<polygon fill="#63b8ff" stroke="#63b8ff" points="498,-192.26 487.45,-191.33 495.11,-198.64 498,-192.26"/>
</a>
</g>
</g>
<!-- Node16&#45;&gt;Node13 -->
<g id="edge26_Node000016_Node000013" class="edge">
<title>Node16&#45;&gt;Node13</title>
<g id="a_edge26_Node000016_Node000013"><a xlink:title=" ">
<path fill="none" stroke="#63b8ff" d="M590.42,-226.85C602.8,-200.14 638.04,-124.12 654.86,-87.85"/>
<polygon fill="#63b8ff" stroke="#63b8ff" points="658.41,-89.51 659.44,-78.97 652.06,-86.57 658.41,-89.51"/>
</a>
</g>
</g>
<!-- Node16&#45;&gt;Node17 -->
<g id="edge27_Node000016_Node000017" class="edge">
<title>Node16&#45;&gt;Node17</title>
<g id="a_edge27_Node000016_Node000017"><a xlink:title=" ">
<path fill="none" stroke="#63b8ff" d="M611.39,-226.59C634.1,-217.83 667.62,-204.9 692.9,-195.16"/>
<polygon fill="#63b8ff" stroke="#63b8ff" points="693.76,-198.19 701.83,-191.33 691.24,-191.66 693.76,-198.19"/>
</a>
</g>
</g>
<!-- Node18 -->
<g id="Node000018" class="node">
<title>Node18</title>
<g id="a_Node000018"><a xlink:title=" ">
<polygon fill="#e0e0e0" stroke="#999999" points="680.88,-191 637.12,-191 637.12,-170.25 680.88,-170.25 680.88,-191"/>
<text text-anchor="middle" x="659" y="-177.5" font-family="Helvetica,sans-Serif" font-size="10.00">limits</text>
</a>
</g>
</g>
<!-- Node16&#45;&gt;Node18 -->
<g id="edge28_Node000016_Node000018" class="edge">
<title>Node16&#45;&gt;Node18</title>
<g id="a_edge28_Node000016_Node000018"><a xlink:title=" ">
<path fill="none" stroke="#63b8ff" d="M599.05,-226.59C609.74,-218.57 625.09,-207.06 637.58,-197.69"/>
<polygon fill="#63b8ff" stroke="#63b8ff" points="639.16,-200.13 645.06,-191.33 634.96,-194.53 639.16,-200.13"/>
</a>
</g>
</g>
</g>
</svg>
