<?xml version="1.0" encoding="UTF-8" standalone="no"?>
<!DOCTYPE svg PUBLIC "-//W3C//DTD SVG 1.1//EN"
 "http://www.w3.org/Graphics/SVG/1.1/DTD/svg11.dtd">
<!-- Generated by graphviz version 8.1.0 (20230707.0739)
 -->
<!-- Title: src/lights/ILight.hpp Pages: 1 -->
<svg width="611pt" height="351pt"
 viewBox="0.00 0.00 611.00 350.75" xmlns="http://www.w3.org/2000/svg" xmlns:xlink="http://www.w3.org/1999/xlink">
<g id="graph0" class="graph" transform="scale(1 1) rotate(0) translate(4 346.75)">
<title>src/lights/ILight.hpp</title>
<!-- Node1 -->
<g id="Node000001" class="node">
<title>Node1</title>
<g id="a_Node000001"><a xlink:title=" ">
<polygon fill="#999999" stroke="#666666" points="435.25,-342.75 324,-342.75 324,-322 435.25,-322 435.25,-342.75"/>
<text text-anchor="middle" x="379.62" y="-329.25" font-family="Helvetica,sans-Serif" font-size="10.00">src/lights/ILight.hpp</text>
</a>
</g>
</g>
<!-- Node2 -->
<g id="Node000002" class="node">
<title>Node2</title>
<g id="a_Node000002"><a xlink:href="Factory_8hpp.html" target="_top" xlink:title=" ">
<polygon fill="white" stroke="#666666" points="148.25,-216.5 19,-216.5 19,-183 148.25,-183 148.25,-216.5"/>
<text text-anchor="start" x="27" y="-203" font-family="Helvetica,sans-Serif" font-size="10.00">src/core/designPatterns</text>
<text text-anchor="middle" x="83.62" y="-190.25" font-family="Helvetica,sans-Serif" font-size="10.00">/Factory.hpp</text>
</a>
</g>
</g>
<!-- Node1&#45;&gt;Node2 -->
<g id="edge1_Node000001_Node000002" class="edge">
<title>Node1&#45;&gt;Node2</title>
<g id="a_edge1_Node000001_Node000002"><a xlink:title=" ">
<path fill="none" stroke="#63b8ff" d="M312.92,-329.12C266.34,-324.95 204.23,-314 156.62,-286 127.74,-269.01 104.71,-236.37 92.72,-216.77"/>
<polygon fill="#63b8ff" stroke="#63b8ff" points="312.56,-332.69 322.81,-330 313.12,-325.71 312.56,-332.69"/>
</a>
</g>
</g>
<!-- Node10 -->
<g id="Node000010" class="node">
<title>Node10</title>
<g id="a_Node000010"><a xlink:href="World_8hpp.html" target="_top" xlink:title=" ">
<polygon fill="white" stroke="#666666" points="599.12,-279.62 454.12,-279.62 454.12,-258.88 599.12,-258.88 599.12,-279.62"/>
<text text-anchor="middle" x="526.62" y="-266.12" font-family="Helvetica,sans-Serif" font-size="10.00">src/core/helpers/World.hpp</text>
</a>
</g>
</g>
<!-- Node1&#45;&gt;Node10 -->
<g id="edge9_Node000001_Node000010" class="edge">
<title>Node1&#45;&gt;Node10</title>
<g id="a_edge9_Node000001_Node000010"><a xlink:title=" ">
<path fill="none" stroke="#63b8ff" d="M408.11,-317.12C434.05,-305.72 471.95,-290.06 497.96,-280.05"/>
<polygon fill="#63b8ff" stroke="#63b8ff" points="406.84,-314.29 399.13,-321.55 409.69,-320.69 406.84,-314.29"/>
</a>
</g>
</g>
<!-- Node11 -->
<g id="Node000011" class="node">
<title>Node11</title>
<g id="a_Node000011"><a xlink:href="DirectionalLight_8hpp.html" target="_top" xlink:title=" ">
<polygon fill="white" stroke="#666666" points="305.12,-286 166.12,-286 166.12,-252.5 305.12,-252.5 305.12,-286"/>
<text text-anchor="start" x="174.12" y="-272.5" font-family="Helvetica,sans-Serif" font-size="10.00">src/lights/directionalLight</text>
<text text-anchor="middle" x="235.62" y="-259.75" font-family="Helvetica,sans-Serif" font-size="10.00">/DirectionalLight.hpp</text>
</a>
</g>
</g>
<!-- Node1&#45;&gt;Node11 -->
<g id="edge11_Node000001_Node000011" class="edge">
<title>Node1&#45;&gt;Node11</title>
<g id="a_edge11_Node000001_Node000011"><a xlink:title=" ">
<path fill="none" stroke="#63b8ff" d="M346.45,-317.29C324.8,-308.1 296.47,-296.08 273.87,-286.48"/>
<polygon fill="#63b8ff" stroke="#63b8ff" points="344.92,-320.87 355.49,-321.55 347.65,-314.43 344.92,-320.87"/>
</a>
</g>
</g>
<!-- Node15 -->
<g id="Node000015" class="node">
<title>Node15</title>
<g id="a_Node000015"><a xlink:href="PointLight_8hpp.html" target="_top" xlink:title=" ">
<polygon fill="white" stroke="#666666" points="435.62,-286 323.62,-286 323.62,-252.5 435.62,-252.5 435.62,-286"/>
<text text-anchor="start" x="331.62" y="-272.5" font-family="Helvetica,sans-Serif" font-size="10.00">src/lights/pointLight</text>
<text text-anchor="middle" x="379.62" y="-259.75" font-family="Helvetica,sans-Serif" font-size="10.00">/PointLight.hpp</text>
</a>
</g>
</g>
<!-- Node1&#45;&gt;Node15 -->
<g id="edge19_Node000001_Node000015" class="edge">
<title>Node1&#45;&gt;Node15</title>
<g id="a_edge19_Node000001_Node000015"><a xlink:title=" ">
<path fill="none" stroke="#63b8ff" d="M379.62,-310.65C379.62,-302.76 379.62,-293.9 379.62,-286.48"/>
<polygon fill="#63b8ff" stroke="#63b8ff" points="376.13,-310.55 379.62,-320.55 383.13,-310.55 376.13,-310.55"/>
</a>
</g>
</g>
<!-- Node3 -->
<g id="Node000003" class="node">
<title>Node3</title>
<g id="a_Node000003"><a xlink:href="Factory_8cpp.html" target="_top" xlink:title=" ">
<polygon fill="white" stroke="#666666" points="129.25,-147 0,-147 0,-113.5 129.25,-113.5 129.25,-147"/>
<text text-anchor="start" x="8" y="-133.5" font-family="Helvetica,sans-Serif" font-size="10.00">src/core/designPatterns</text>
<text text-anchor="middle" x="64.62" y="-120.75" font-family="Helvetica,sans-Serif" font-size="10.00">/Factory.cpp</text>
</a>
</g>
</g>
<!-- Node2&#45;&gt;Node3 -->
<g id="edge2_Node000002_Node000003" class="edge">
<title>Node2&#45;&gt;Node3</title>
<g id="a_edge2_Node000002_Node000003"><a xlink:title=" ">
<path fill="none" stroke="#63b8ff" d="M76.14,-172.17C73.76,-163.7 71.2,-154.6 69.1,-147.13"/>
<polygon fill="#63b8ff" stroke="#63b8ff" points="73.04,-173.08 79.12,-181.75 79.78,-171.18 73.04,-173.08"/>
</a>
</g>
</g>
<!-- Node4 -->
<g id="Node000004" class="node">
<title>Node4</title>
<g id="a_Node000004"><a xlink:href="src_2core_2scene_2Scene_8hpp.html" target="_top" xlink:title=" ">
<polygon fill="white" stroke="#666666" points="286.12,-140.62 147.12,-140.62 147.12,-119.88 286.12,-119.88 286.12,-140.62"/>
<text text-anchor="middle" x="216.62" y="-127.12" font-family="Helvetica,sans-Serif" font-size="10.00">src/core/scene/Scene.hpp</text>
</a>
</g>
</g>
<!-- Node2&#45;&gt;Node4 -->
<g id="edge3_Node000002_Node000004" class="edge">
<title>Node2&#45;&gt;Node4</title>
<g id="a_edge3_Node000002_Node000004"><a xlink:title=" ">
<path fill="none" stroke="#63b8ff" d="M125.13,-177.69C149.26,-165.44 178.54,-150.58 197.37,-141.02"/>
<polygon fill="#63b8ff" stroke="#63b8ff" points="123.82,-174.94 116.48,-182.58 126.98,-181.18 123.82,-174.94"/>
</a>
</g>
</g>
<!-- Node5 -->
<g id="Node000005" class="node">
<title>Node5</title>
<g id="a_Node000005"><a xlink:href="RayTracer_8hpp.html" target="_top" xlink:title=" ">
<polygon fill="white" stroke="#666666" points="538.38,-77.5 412.88,-77.5 412.88,-56.75 538.38,-56.75 538.38,-77.5"/>
<text text-anchor="middle" x="475.62" y="-64" font-family="Helvetica,sans-Serif" font-size="10.00">src/core/RayTracer.hpp</text>
</a>
</g>
</g>
<!-- Node4&#45;&gt;Node5 -->
<g id="edge4_Node000004_Node000005" class="edge">
<title>Node4&#45;&gt;Node5</title>
<g id="a_edge4_Node000004_Node000005"><a xlink:title=" ">
<path fill="none" stroke="#63b8ff" d="M268.87,-116.92C317.56,-105.43 389.22,-88.52 434.12,-77.92"/>
<polygon fill="#63b8ff" stroke="#63b8ff" points="268.17,-113.73 259.24,-119.43 269.77,-120.54 268.17,-113.73"/>
</a>
</g>
</g>
<!-- Node8 -->
<g id="Node000008" class="node">
<title>Node8</title>
<g id="a_Node000008"><a xlink:href="Image_8cpp.html" target="_top" xlink:title="Implémentation des méthodes de la classe Image pour gestion d&#39;image et affichage.">
<polygon fill="white" stroke="#666666" points="384.5,-77.5 244.75,-77.5 244.75,-56.75 384.5,-56.75 384.5,-77.5"/>
<text text-anchor="middle" x="314.62" y="-64" font-family="Helvetica,sans-Serif" font-size="10.00">src/core/scene/Image.cpp</text>
</a>
</g>
</g>
<!-- Node4&#45;&gt;Node8 -->
<g id="edge7_Node000004_Node000008" class="edge">
<title>Node4&#45;&gt;Node8</title>
<g id="a_edge7_Node000004_Node000008"><a xlink:title=" ">
<path fill="none" stroke="#63b8ff" d="M241.21,-113.92C259.3,-102.63 283.36,-87.63 298.92,-77.92"/>
<polygon fill="#63b8ff" stroke="#63b8ff" points="240,-111.17 233.37,-119.43 243.71,-117.11 240,-111.17"/>
</a>
</g>
</g>
<!-- Node9 -->
<g id="Node000009" class="node">
<title>Node9</title>
<g id="a_Node000009"><a xlink:href="Scene_8cpp.html" target="_top" xlink:title=" ">
<polygon fill="white" stroke="#666666" points="226.75,-77.5 88.5,-77.5 88.5,-56.75 226.75,-56.75 226.75,-77.5"/>
<text text-anchor="middle" x="157.62" y="-64" font-family="Helvetica,sans-Serif" font-size="10.00">src/core/scene/Scene.cpp</text>
</a>
</g>
</g>
<!-- Node4&#45;&gt;Node9 -->
<g id="edge8_Node000004_Node000009" class="edge">
<title>Node4&#45;&gt;Node9</title>
<g id="a_edge8_Node000004_Node000009"><a xlink:title=" ">
<path fill="none" stroke="#63b8ff" d="M199.63,-111.65C188.97,-100.6 175.64,-86.79 166.89,-77.72"/>
<polygon fill="#63b8ff" stroke="#63b8ff" points="196.68,-113.66 206.15,-118.43 201.72,-108.8 196.68,-113.66"/>
</a>
</g>
</g>
<!-- Node6 -->
<g id="Node000006" class="node">
<title>Node6</title>
<g id="a_Node000006"><a xlink:href="Main_8cpp.html" target="_top" xlink:title=" ">
<polygon fill="white" stroke="#666666" points="460.38,-20.75 358.88,-20.75 358.88,0 460.38,0 460.38,-20.75"/>
<text text-anchor="middle" x="409.62" y="-7.25" font-family="Helvetica,sans-Serif" font-size="10.00">src/core/Main.cpp</text>
</a>
</g>
</g>
<!-- Node5&#45;&gt;Node6 -->
<g id="edge5_Node000005_Node000006" class="edge">
<title>Node5&#45;&gt;Node6</title>
<g id="a_edge5_Node000005_Node000006"><a xlink:title=" ">
<path fill="none" stroke="#63b8ff" d="M455.48,-49.41C444.29,-40.13 430.77,-28.92 421.32,-21.08"/>
<polygon fill="#63b8ff" stroke="#63b8ff" points="452.89,-52.65 462.83,-56.34 457.36,-47.26 452.89,-52.65"/>
</a>
</g>
</g>
<!-- Node7 -->
<g id="Node000007" class="node">
<title>Node7</title>
<g id="a_Node000007"><a xlink:href="RayTracer_8cpp.html" target="_top" xlink:title=" ">
<polygon fill="white" stroke="#666666" points="603,-20.75 478.25,-20.75 478.25,0 603,0 603,-20.75"/>
<text text-anchor="middle" x="540.62" y="-7.25" font-family="Helvetica,sans-Serif" font-size="10.00">src/core/RayTracer.cpp</text>
</a>
</g>
</g>
<!-- Node5&#45;&gt;Node7 -->
<g id="edge6_Node000005_Node000007" class="edge">
<title>Node5&#45;&gt;Node7</title>
<g id="a_edge6_Node000005_Node000007"><a xlink:title=" ">
<path fill="none" stroke="#63b8ff" d="M495.47,-49.41C506.48,-40.13 519.8,-28.92 529.1,-21.08"/>
<polygon fill="#63b8ff" stroke="#63b8ff" points="493.64,-47.22 488.25,-56.34 498.15,-52.57 493.64,-47.22"/>
</a>
</g>
</g>
<!-- Node10&#45;&gt;Node1 -->
<g id="edge10_Node000010_Node000001" class="edge">
<title>Node10&#45;&gt;Node1</title>
<g id="a_edge10_Node000010_Node000001"><a xlink:title=" ">
<path fill="none" stroke="#63b8ff" d="M498.21,-284.48C472.29,-295.87 434.39,-311.53 408.36,-321.55"/>
<polygon fill="#63b8ff" stroke="#63b8ff" points="499.46,-287.31 507.18,-280.05 496.62,-280.91 499.46,-287.31"/>
</a>
</g>
</g>
<!-- Node11&#45;&gt;Node2 -->
<g id="edge12_Node000011_Node000002" class="edge">
<title>Node11&#45;&gt;Node2</title>
<g id="a_edge12_Node000011_Node000002"><a xlink:title=" ">
<path fill="none" stroke="#63b8ff" d="M189.31,-247.68C167.06,-237.8 140.79,-226.13 120,-216.9"/>
<polygon fill="#63b8ff" stroke="#63b8ff" points="187.66,-251.22 198.22,-252.08 190.5,-244.82 187.66,-251.22"/>
</a>
</g>
</g>
<!-- Node12 -->
<g id="Node000012" class="node">
<title>Node12</title>
<g id="a_Node000012"><a xlink:href="DirectionalLight_8cpp.html" target="_top" xlink:title=" ">
<polygon fill="white" stroke="#666666" points="305.12,-216.5 166.12,-216.5 166.12,-183 305.12,-183 305.12,-216.5"/>
<text text-anchor="start" x="174.12" y="-203" font-family="Helvetica,sans-Serif" font-size="10.00">src/lights/directionalLight</text>
<text text-anchor="middle" x="235.62" y="-190.25" font-family="Helvetica,sans-Serif" font-size="10.00">/DirectionalLight.cpp</text>
</a>
</g>
</g>
<!-- Node11&#45;&gt;Node12 -->
<g id="edge13_Node000011_Node000012" class="edge">
<title>Node11&#45;&gt;Node12</title>
<g id="a_edge13_Node000011_Node000012"><a xlink:title=" ">
<path fill="none" stroke="#63b8ff" d="M235.62,-241.39C235.62,-233 235.62,-224.01 235.62,-216.63"/>
<polygon fill="#63b8ff" stroke="#63b8ff" points="232.13,-241.25 235.62,-251.25 239.13,-241.25 232.13,-241.25"/>
</a>
</g>
</g>
<!-- Node13 -->
<g id="Node000013" class="node">
<title>Node13</title>
<g id="a_Node000013"><a xlink:href="Parser_8hpp.html" target="_top" xlink:title=" ">
<polygon fill="white" stroke="#666666" points="440.25,-210.12 323,-210.12 323,-189.38 440.25,-189.38 440.25,-210.12"/>
<text text-anchor="middle" x="381.62" y="-196.62" font-family="Helvetica,sans-Serif" font-size="10.00">src/parser/Parser.hpp</text>
</a>
</g>
</g>
<!-- Node11&#45;&gt;Node13 -->
<g id="edge14_Node000011_Node000013" class="edge">
<title>Node11&#45;&gt;Node13</title>
<g id="a_edge14_Node000011_Node000013"><a xlink:title=" ">
<path fill="none" stroke="#63b8ff" d="M280.48,-247.51C307.11,-235.2 339.64,-220.16 360.49,-210.52"/>
<polygon fill="#63b8ff" stroke="#63b8ff" points="279.2,-244.71 271.6,-252.08 282.14,-251.06 279.2,-244.71"/>
</a>
</g>
</g>
<!-- Node13&#45;&gt;Node4 -->
<g id="edge17_Node000013_Node000004" class="edge">
<title>Node13&#45;&gt;Node4</title>
<g id="a_edge17_Node000013_Node000004"><a xlink:title=" ">
<path fill="none" stroke="#63b8ff" d="M347.85,-184.93C315.94,-171.88 268.89,-152.63 240.65,-141.08"/>
<polygon fill="#63b8ff" stroke="#63b8ff" points="346.05,-188.39 356.63,-188.93 348.7,-181.91 346.05,-188.39"/>
</a>
</g>
</g>
<!-- Node13&#45;&gt;Node5 -->
<g id="edge15_Node000013_Node000005" class="edge">
<title>Node13&#45;&gt;Node5</title>
<g id="a_edge15_Node000013_Node000005"><a xlink:title=" ">
<path fill="none" stroke="#63b8ff" d="M420.86,-184.61C438.07,-176.34 456.78,-164.1 467.62,-147 481.26,-125.5 479.37,-93.88 477.27,-78"/>
<polygon fill="#63b8ff" stroke="#63b8ff" points="419.67,-181.75 411.97,-189.02 422.53,-188.14 419.67,-181.75"/>
</a>
</g>
</g>
<!-- Node13&#45;&gt;Node8 -->
<g id="edge16_Node000013_Node000008" class="edge">
<title>Node13&#45;&gt;Node8</title>
<g id="a_edge16_Node000013_Node000008"><a xlink:title=" ">
<path fill="none" stroke="#63b8ff" d="M361.42,-181.58C351.67,-172.27 340.61,-160.03 333.62,-147 321.38,-124.16 316.92,-93.4 315.38,-77.91"/>
<polygon fill="#63b8ff" stroke="#63b8ff" points="358.76,-183.8 368.51,-187.94 363.47,-178.62 358.76,-183.8"/>
</a>
</g>
</g>
<!-- Node14 -->
<g id="Node000014" class="node">
<title>Node14</title>
<g id="a_Node000014"><a xlink:href="Parser_8cpp.html" target="_top" xlink:title="Implémentation des fonctions de parsing des configurations pour la caméra, primitives,...">
<polygon fill="white" stroke="#666666" points="458.88,-140.62 342.38,-140.62 342.38,-119.88 458.88,-119.88 458.88,-140.62"/>
<text text-anchor="middle" x="400.62" y="-127.12" font-family="Helvetica,sans-Serif" font-size="10.00">src/parser/Parser.cpp</text>
</a>
</g>
</g>
<!-- Node13&#45;&gt;Node14 -->
<g id="edge18_Node000013_Node000014" class="edge">
<title>Node13&#45;&gt;Node14</title>
<g id="a_edge18_Node000013_Node000014"><a xlink:title=" ">
<path fill="none" stroke="#63b8ff" d="M387.27,-178.71C390.78,-166.22 395.14,-150.72 397.91,-140.9"/>
<polygon fill="#63b8ff" stroke="#63b8ff" points="383.69,-177.5 384.35,-188.08 390.43,-179.4 383.69,-177.5"/>
</a>
</g>
</g>
<!-- Node15&#45;&gt;Node2 -->
<g id="edge20_Node000015_Node000002" class="edge">
<title>Node15&#45;&gt;Node2</title>
<g id="a_edge20_Node000015_Node000002"><a xlink:title=" ">
<path fill="none" stroke="#63b8ff" d="M313.13,-252.4C251.38,-238.12 192.27,-224.86 148.61,-215.14"/>
<polygon fill="#63b8ff" stroke="#63b8ff" points="311.94,-255.95 322.47,-254.8 313.52,-249.13 311.94,-255.95"/>
</a>
</g>
</g>
<!-- Node15&#45;&gt;Node13 -->
<g id="edge22_Node000015_Node000013" class="edge">
<title>Node15&#45;&gt;Node13</title>
<g id="a_edge22_Node000015_Node000013"><a xlink:title=" ">
<path fill="none" stroke="#63b8ff" d="M380.42,-241.47C380.74,-230.58 381.09,-218.68 381.33,-210.57"/>
<polygon fill="#63b8ff" stroke="#63b8ff" points="376.9,-241.15 380.1,-251.25 383.89,-241.36 376.9,-241.15"/>
</a>
</g>
</g>
<!-- Node16 -->
<g id="Node000016" class="node">
<title>Node16</title>
<g id="a_Node000016"><a xlink:href="PointLight_8cpp.html" target="_top" xlink:title=" ">
<polygon fill="white" stroke="#666666" points="570.62,-216.5 458.62,-216.5 458.62,-183 570.62,-183 570.62,-216.5"/>
<text text-anchor="start" x="466.62" y="-203" font-family="Helvetica,sans-Serif" font-size="10.00">src/lights/pointLight</text>
<text text-anchor="middle" x="514.62" y="-190.25" font-family="Helvetica,sans-Serif" font-size="10.00">/PointLight.cpp</text>
</a>
</g>
</g>
<!-- Node15&#45;&gt;Node16 -->
<g id="edge21_Node000015_Node000016" class="edge">
<title>Node15&#45;&gt;Node16</title>
<g id="a_edge21_Node000015_Node000016"><a xlink:title=" ">
<path fill="none" stroke="#63b8ff" d="M421.6,-247.26C441.26,-237.43 464.31,-225.91 482.55,-216.79"/>
<polygon fill="#63b8ff" stroke="#63b8ff" points="420.34,-244.48 412.96,-252.08 423.47,-250.74 420.34,-244.48"/>
</a>
</g>
</g>
</g>
</svg>
