<?xml version="1.0" encoding="UTF-8" standalone="no"?>
<!DOCTYPE svg PUBLIC "-//W3C//DTD SVG 1.1//EN"
 "http://www.w3.org/Graphics/SVG/1.1/DTD/svg11.dtd">
<!-- Generated by graphviz version 8.1.0 (20230707.0739)
 -->
<!-- Title: src/core/scene/Image.hpp Pages: 1 -->
<svg width="473pt" height="142pt"
 viewBox="0.00 0.00 473.38 142.25" xmlns="http://www.w3.org/2000/svg" xmlns:xlink="http://www.w3.org/1999/xlink">
<g id="graph0" class="graph" transform="scale(1 1) rotate(0) translate(4 138.25)">
<title>src/core/scene/Image.hpp</title>
<!-- Node1 -->
<g id="Node000001" class="node">
<title>Node1</title>
<g id="a_Node000001"><a xlink:title=" ">
<polygon fill="#999999" stroke="#666666" points="288.12,-134.25 147.62,-134.25 147.62,-113.5 288.12,-113.5 288.12,-134.25"/>
<text text-anchor="middle" x="217.88" y="-120.75" font-family="Helvetica,sans-Serif" font-size="10.00">src/core/scene/Image.hpp</text>
</a>
</g>
</g>
<!-- Node2 -->
<g id="Node000002" class="node">
<title>Node2</title>
<g id="a_Node000002"><a xlink:href="Color_8hpp.html" target="_top" xlink:title=" ">
<polygon fill="white" stroke="#666666" points="109.75,-77.5 0,-77.5 0,-56.75 109.75,-56.75 109.75,-77.5"/>
<text text-anchor="middle" x="54.88" y="-64" font-family="Helvetica,sans-Serif" font-size="10.00">../helpers/Color.hpp</text>
</a>
</g>
</g>
<!-- Node1&#45;&gt;Node2 -->
<g id="edge1_Node000001_Node000002" class="edge">
<title>Node1&#45;&gt;Node2</title>
<g id="a_edge1_Node000001_Node000002"><a xlink:title=" ">
<path fill="none" stroke="#63b8ff" d="M188.73,-113.09C162.39,-104.24 123.39,-91.14 94.28,-81.36"/>
<polygon fill="#63b8ff" stroke="#63b8ff" points="95.63,-77.79 85.04,-77.92 93.4,-84.42 95.63,-77.79"/>
</a>
</g>
</g>
<!-- Node3 -->
<g id="Node000003" class="node">
<title>Node3</title>
<g id="a_Node000003"><a xlink:title=" ">
<polygon fill="#e0e0e0" stroke="#999999" points="125.62,-20.75 66.12,-20.75 66.12,0 125.62,0 125.62,-20.75"/>
<text text-anchor="middle" x="95.88" y="-7.25" font-family="Helvetica,sans-Serif" font-size="10.00">iostream</text>
</a>
</g>
</g>
<!-- Node1&#45;&gt;Node3 -->
<g id="edge3_Node000001_Node000003" class="edge">
<title>Node1&#45;&gt;Node3</title>
<g id="a_edge3_Node000001_Node000003"><a xlink:title=" ">
<path fill="none" stroke="#63b8ff" d="M203.24,-113.14C190.5,-104.4 171.79,-90.92 156.88,-77.5 139.92,-62.25 122.46,-42.88 110.59,-29.06"/>
<polygon fill="#63b8ff" stroke="#63b8ff" points="112.79,-27.24 103.66,-21.87 107.45,-31.76 112.79,-27.24"/>
</a>
</g>
</g>
<!-- Node4 -->
<g id="Node000004" class="node">
<title>Node4</title>
<g id="a_Node000004"><a xlink:title=" ">
<polygon fill="#e0e0e0" stroke="#999999" points="203.75,-77.5 166,-77.5 166,-56.75 203.75,-56.75 203.75,-77.5"/>
<text text-anchor="middle" x="184.88" y="-64" font-family="Helvetica,sans-Serif" font-size="10.00">map</text>
</a>
</g>
</g>
<!-- Node1&#45;&gt;Node4 -->
<g id="edge4_Node000001_Node000004" class="edge">
<title>Node1&#45;&gt;Node4</title>
<g id="a_edge4_Node000001_Node000004"><a xlink:title=" ">
<path fill="none" stroke="#63b8ff" d="M211.98,-113.09C207.61,-105.85 201.53,-95.76 196.24,-86.97"/>
<polygon fill="#63b8ff" stroke="#63b8ff" points="198.88,-85.59 190.72,-78.83 192.89,-89.2 198.88,-85.59"/>
</a>
</g>
</g>
<!-- Node5 -->
<g id="Node000005" class="node">
<title>Node5</title>
<g id="a_Node000005"><a xlink:title=" ">
<polygon fill="#e0e0e0" stroke="#999999" points="279.5,-77.5 222.25,-77.5 222.25,-56.75 279.5,-56.75 279.5,-77.5"/>
<text text-anchor="middle" x="250.88" y="-64" font-family="Helvetica,sans-Serif" font-size="10.00">memory</text>
</a>
</g>
</g>
<!-- Node1&#45;&gt;Node5 -->
<g id="edge5_Node000001_Node000005" class="edge">
<title>Node1&#45;&gt;Node5</title>
<g id="a_edge5_Node000001_Node000005"><a xlink:title=" ">
<path fill="none" stroke="#63b8ff" d="M223.77,-113.09C228.14,-105.85 234.22,-95.76 239.51,-86.97"/>
<polygon fill="#63b8ff" stroke="#63b8ff" points="242.86,-89.2 245.03,-78.83 236.87,-85.59 242.86,-89.2"/>
</a>
</g>
</g>
<!-- Node6 -->
<g id="Node000006" class="node">
<title>Node6</title>
<g id="a_Node000006"><a xlink:title=" ">
<polygon fill="#e0e0e0" stroke="#999999" points="338.25,-77.5 297.5,-77.5 297.5,-56.75 338.25,-56.75 338.25,-77.5"/>
<text text-anchor="middle" x="317.88" y="-64" font-family="Helvetica,sans-Serif" font-size="10.00">tuple</text>
</a>
</g>
</g>
<!-- Node1&#45;&gt;Node6 -->
<g id="edge6_Node000001_Node000006" class="edge">
<title>Node1&#45;&gt;Node6</title>
<g id="a_edge6_Node000001_Node000006"><a xlink:title=" ">
<path fill="none" stroke="#63b8ff" d="M235.75,-113.09C250.97,-104.76 273.07,-92.66 290.51,-83.11"/>
<polygon fill="#63b8ff" stroke="#63b8ff" points="292.06,-85.7 299.15,-77.83 288.7,-79.56 292.06,-85.7"/>
</a>
</g>
</g>
<!-- Node7 -->
<g id="Node000007" class="node">
<title>Node7</title>
<g id="a_Node000007"><a xlink:title=" ">
<polygon fill="#e0e0e0" stroke="#999999" points="465.38,-77.5 356.38,-77.5 356.38,-56.75 465.38,-56.75 465.38,-77.5"/>
<text text-anchor="middle" x="410.88" y="-64" font-family="Helvetica,sans-Serif" font-size="10.00">SFML/Graphics.hpp</text>
</a>
</g>
</g>
<!-- Node1&#45;&gt;Node7 -->
<g id="edge7_Node000001_Node000007" class="edge">
<title>Node1&#45;&gt;Node7</title>
<g id="a_edge7_Node000001_Node000007"><a xlink:title=" ">
<path fill="none" stroke="#63b8ff" d="M252.38,-113.09C284.12,-104.08 331.37,-90.68 366.03,-80.85"/>
<polygon fill="#63b8ff" stroke="#63b8ff" points="366.68,-84.02 375.34,-77.92 364.77,-77.28 366.68,-84.02"/>
</a>
</g>
</g>
<!-- Node2&#45;&gt;Node3 -->
<g id="edge2_Node000002_Node000003" class="edge">
<title>Node2&#45;&gt;Node3</title>
<g id="a_edge2_Node000002_Node000003"><a xlink:title=" ">
<path fill="none" stroke="#63b8ff" d="M62.2,-56.34C67.74,-48.94 75.51,-38.57 82.18,-29.66"/>
<polygon fill="#63b8ff" stroke="#63b8ff" points="85.42,-32.18 88.61,-22.08 79.81,-27.98 85.42,-32.18"/>
</a>
</g>
</g>
</g>
</svg>
