<?xml version="1.0" encoding="UTF-8" standalone="no"?>
<!DOCTYPE svg PUBLIC "-//W3C//DTD SVG 1.1//EN"
 "http://www.w3.org/Graphics/SVG/1.1/DTD/svg11.dtd">
<!-- Generated by graphviz version 8.1.0 (20230707.0739)
 -->
<!-- Title: Graphical Class Hierarchy Pages: 1 -->
<svg width="281pt" height="68pt"
 viewBox="0.00 0.00 280.75 67.75" xmlns="http://www.w3.org/2000/svg" xmlns:xlink="http://www.w3.org/1999/xlink">
<g id="graph0" class="graph" transform="scale(1 1) rotate(0) translate(4 63.75)">
<title>Graphical Class Hierarchy</title>
<!-- Node0 -->
<g id="Node000000" class="node">
<title>Node0</title>
<g id="a_Node000000"><a xlink:href="classraytracer_1_1ILight.html" target="_top" xlink:title="Interface abstraite représentant une source lumineuse dans la scène.">
<polygon fill="white" stroke="#666666" points="93.25,-39.75 0,-39.75 0,-19 93.25,-19 93.25,-39.75"/>
<text text-anchor="middle" x="46.62" y="-26.25" font-family="Helvetica,sans-Serif" font-size="10.00">raytracer::ILight</text>
</a>
</g>
</g>
<!-- Node1 -->
<g id="Node000001" class="node">
<title>Node1</title>
<g id="a_Node000001"><a xlink:href="classraytracer_1_1DirectionalLight.html" target="_top" xlink:title=" ">
<polygon fill="white" stroke="#666666" points="272.75,-59.75 129.25,-59.75 129.25,-39 272.75,-39 272.75,-59.75"/>
<text text-anchor="middle" x="201" y="-46.25" font-family="Helvetica,sans-Serif" font-size="10.00">raytracer::DirectionalLight</text>
</a>
</g>
</g>
<!-- Node0&#45;&gt;Node1 -->
<g id="edge4_Node000000_Node000001" class="edge">
<title>Node0&#45;&gt;Node1</title>
<g id="a_edge4_Node000000_Node000001"><a xlink:title=" ">
<path fill="none" stroke="#63b8ff" d="M104.13,-36.79C112.22,-37.85 120.62,-38.96 128.94,-40.05"/>
<polygon fill="#63b8ff" stroke="#63b8ff" points="104.71,-33.21 94.34,-35.38 103.8,-40.15 104.71,-33.21"/>
</a>
</g>
</g>
<!-- Node2 -->
<g id="Node000002" class="node">
<title>Node2</title>
<g id="a_Node000002"><a xlink:href="classraytracer_1_1PointLight.html" target="_top" xlink:title="Classe représentant une source lumineuse ponctuelle (point light).">
<polygon fill="white" stroke="#666666" points="258.5,-20.75 143.5,-20.75 143.5,0 258.5,0 258.5,-20.75"/>
<text text-anchor="middle" x="201" y="-7.25" font-family="Helvetica,sans-Serif" font-size="10.00">raytracer::PointLight</text>
</a>
</g>
</g>
<!-- Node0&#45;&gt;Node2 -->
<g id="edge5_Node000000_Node000002" class="edge">
<title>Node0&#45;&gt;Node2</title>
<g id="a_edge5_Node000000_Node000002"><a xlink:title=" ">
<path fill="none" stroke="#63b8ff" d="M103.9,-22.36C116.74,-20.76 130.39,-19.05 143.25,-17.45"/>
<polygon fill="#63b8ff" stroke="#63b8ff" points="103.83,-18.96 94.34,-23.67 104.7,-25.91 103.83,-18.96"/>
</a>
</g>
</g>
</g>
</svg>
