<?xml version="1.0" encoding="UTF-8" standalone="no"?>
<!DOCTYPE svg PUBLIC "-//W3C//DTD SVG 1.1//EN"
 "http://www.w3.org/Graphics/SVG/1.1/DTD/svg11.dtd">
<!-- Generated by graphviz version 8.1.0 (20230707.0739)
 -->
<!-- Title: src/primitives/IPrimitive.hpp Pages: 1 -->
<svg width="1500pt" height="464pt"
 viewBox="0.00 0.00 1500.29 464.25" xmlns="http://www.w3.org/2000/svg" xmlns:xlink="http://www.w3.org/1999/xlink">
<g id="graph0" class="graph" transform="scale(1 1) rotate(0) translate(4 460.25)">
<title>src/primitives/IPrimitive.hpp</title>
<!-- Node1 -->
<g id="Node000001" class="node">
<title>Node1</title>
<g id="a_Node000001"><a xlink:title=" ">
<polygon fill="#999999" stroke="#666666" points="683,-456.25 529,-456.25 529,-435.5 683,-435.5 683,-456.25"/>
<text text-anchor="middle" x="606" y="-442.75" font-family="Helvetica,sans-Serif" font-size="10.00">src/primitives/IPrimitive.hpp</text>
</a>
</g>
</g>
<!-- Node2 -->
<g id="Node000002" class="node">
<title>Node2</title>
<g id="a_Node000002"><a xlink:href="Factory_8hpp.html" target="_top" xlink:title=" ">
<polygon fill="white" stroke="#666666" points="416.62,-216.5 287.38,-216.5 287.38,-183 416.62,-183 416.62,-216.5"/>
<text text-anchor="start" x="295.38" y="-203" font-family="Helvetica,sans-Serif" font-size="10.00">src/core/designPatterns</text>
<text text-anchor="middle" x="352" y="-190.25" font-family="Helvetica,sans-Serif" font-size="10.00">/Factory.hpp</text>
</a>
</g>
</g>
<!-- Node1&#45;&gt;Node2 -->
<g id="edge1_Node000001_Node000002" class="edge">
<title>Node1&#45;&gt;Node2</title>
<g id="a_edge1_Node000001_Node000002"><a xlink:title=" ">
<path fill="none" stroke="#63b8ff" d="M517.89,-439.68C421.65,-428.51 273.64,-393.71 217,-286 210.07,-272.82 208.56,-264.77 217,-252.5 226.03,-239.37 259.33,-226.53 290.59,-216.92"/>
<polygon fill="#63b8ff" stroke="#63b8ff" points="517.46,-443.26 527.78,-440.87 518.22,-436.31 517.46,-443.26"/>
</a>
</g>
</g>
<!-- Node10 -->
<g id="Node000010" class="node">
<title>Node10</title>
<g id="a_Node000010"><a xlink:href="World_8hpp.html" target="_top" xlink:title=" ">
<polygon fill="white" stroke="#666666" points="536.5,-399.5 391.5,-399.5 391.5,-378.75 536.5,-378.75 536.5,-399.5"/>
<text text-anchor="middle" x="464" y="-386" font-family="Helvetica,sans-Serif" font-size="10.00">src/core/helpers/World.hpp</text>
</a>
</g>
</g>
<!-- Node1&#45;&gt;Node10 -->
<g id="edge9_Node000001_Node000010" class="edge">
<title>Node1&#45;&gt;Node10</title>
<g id="a_edge9_Node000001_Node000010"><a xlink:title=" ">
<path fill="none" stroke="#63b8ff" d="M570.66,-431.25C545.33,-421.48 511.81,-408.56 489.17,-399.83"/>
<polygon fill="#63b8ff" stroke="#63b8ff" points="569.02,-434.75 579.61,-435.09 571.54,-428.22 569.02,-434.75"/>
</a>
</g>
</g>
<!-- Node11 -->
<g id="Node000011" class="node">
<title>Node11</title>
<g id="a_Node000011"><a xlink:href="ILight_8hpp.html" target="_top" xlink:title=" ">
<polygon fill="white" stroke="#666666" points="519.62,-342.75 408.38,-342.75 408.38,-322 519.62,-322 519.62,-342.75"/>
<text text-anchor="middle" x="464" y="-329.25" font-family="Helvetica,sans-Serif" font-size="10.00">src/lights/ILight.hpp</text>
</a>
</g>
</g>
<!-- Node1&#45;&gt;Node11 -->
<g id="edge25_Node000001_Node000011" class="edge">
<title>Node1&#45;&gt;Node11</title>
<g id="a_edge25_Node000001_Node000011"><a xlink:title=" ">
<path fill="none" stroke="#63b8ff" d="M592.2,-427.05C580.62,-412.84 563.1,-393.04 545,-378.75 526.53,-364.17 502.78,-351.46 485.78,-343.23"/>
<polygon fill="#63b8ff" stroke="#63b8ff" points="589.93,-428.82 598.9,-434.46 595.4,-424.45 589.93,-428.82"/>
</a>
</g>
</g>
<!-- Node18 -->
<g id="Node000018" class="node">
<title>Node18</title>
<g id="a_Node000018"><a xlink:href="Cone_8hpp.html" target="_top" xlink:title=" ">
<polygon fill="white" stroke="#666666" points="660.5,-286 551.5,-286 551.5,-252.5 660.5,-252.5 660.5,-286"/>
<text text-anchor="start" x="559.5" y="-272.5" font-family="Helvetica,sans-Serif" font-size="10.00">src/primitives/cone</text>
<text text-anchor="middle" x="606" y="-259.75" font-family="Helvetica,sans-Serif" font-size="10.00">/Cone.hpp</text>
</a>
</g>
</g>
<!-- Node1&#45;&gt;Node18 -->
<g id="edge26_Node000001_Node000018" class="edge">
<title>Node1&#45;&gt;Node18</title>
<g id="a_edge26_Node000001_Node000018"><a xlink:title=" ">
<path fill="none" stroke="#63b8ff" d="M606,-424.44C606,-389.33 606,-318.26 606,-286.38"/>
<polygon fill="#63b8ff" stroke="#63b8ff" points="602.5,-424.24 606,-434.24 609.5,-424.24 602.5,-424.24"/>
</a>
</g>
</g>
<!-- Node20 -->
<g id="Node000020" class="node">
<title>Node20</title>
<g id="a_Node000020"><a xlink:href="Cylinder_8hpp.html" target="_top" xlink:title=" ">
<polygon fill="white" stroke="#666666" points="803.38,-286 678.62,-286 678.62,-252.5 803.38,-252.5 803.38,-286"/>
<text text-anchor="start" x="686.62" y="-272.5" font-family="Helvetica,sans-Serif" font-size="10.00">src/primitives/cylinder</text>
<text text-anchor="middle" x="741" y="-259.75" font-family="Helvetica,sans-Serif" font-size="10.00">/Cylinder.hpp</text>
</a>
</g>
</g>
<!-- Node1&#45;&gt;Node20 -->
<g id="edge30_Node000001_Node000020" class="edge">
<title>Node1&#45;&gt;Node20</title>
<g id="a_edge30_Node000001_Node000020"><a xlink:title=" ">
<path fill="none" stroke="#63b8ff" d="M620.06,-426.69C646.52,-392.46 703.34,-318.96 728.53,-286.38"/>
<polygon fill="#63b8ff" stroke="#63b8ff" points="616.8,-424.19 613.45,-434.24 622.34,-428.47 616.8,-424.19"/>
</a>
</g>
</g>
<!-- Node22 -->
<g id="Node000022" class="node">
<title>Node22</title>
<g id="a_Node000022"><a xlink:href="Plane_8hpp.html" target="_top" xlink:title=" ">
<polygon fill="white" stroke="#666666" points="965.38,-286 852.62,-286 852.62,-252.5 965.38,-252.5 965.38,-286"/>
<text text-anchor="start" x="860.62" y="-272.5" font-family="Helvetica,sans-Serif" font-size="10.00">src/primitives/plane</text>
<text text-anchor="middle" x="909" y="-259.75" font-family="Helvetica,sans-Serif" font-size="10.00">/Plane.hpp</text>
</a>
</g>
</g>
<!-- Node1&#45;&gt;Node22 -->
<g id="edge34_Node000001_Node000022" class="edge">
<title>Node1&#45;&gt;Node22</title>
<g id="a_edge34_Node000001_Node000022"><a xlink:title=" ">
<path fill="none" stroke="#63b8ff" d="M632.06,-429.86C688.71,-397.21 822.67,-320.01 881.02,-286.38"/>
<polygon fill="#63b8ff" stroke="#63b8ff" points="630.64,-427.21 623.72,-435.24 634.13,-433.28 630.64,-427.21"/>
</a>
</g>
</g>
<!-- Node29 -->
<g id="Node000029" class="node">
<title>Node29</title>
<g id="a_Node000029"><a xlink:href="Sphere_8hpp.html" target="_top" xlink:title=" ">
<polygon fill="white" stroke="#666666" points="1153.38,-286 1034.62,-286 1034.62,-252.5 1153.38,-252.5 1153.38,-286"/>
<text text-anchor="start" x="1042.62" y="-272.5" font-family="Helvetica,sans-Serif" font-size="10.00">src/primitives/sphere</text>
<text text-anchor="middle" x="1094" y="-259.75" font-family="Helvetica,sans-Serif" font-size="10.00">/Sphere.hpp</text>
</a>
</g>
</g>
<!-- Node1&#45;&gt;Node29 -->
<g id="edge47_Node000001_Node000029" class="edge">
<title>Node1&#45;&gt;Node29</title>
<g id="a_edge47_Node000001_Node000029"><a xlink:title=" ">
<path fill="none" stroke="#63b8ff" d="M643.37,-431.5C731.67,-399.91 952.91,-320.74 1048.66,-286.47"/>
<polygon fill="#63b8ff" stroke="#63b8ff" points="642.52,-428.45 634.28,-435.11 644.88,-435.04 642.52,-428.45"/>
</a>
</g>
</g>
<!-- Node3 -->
<g id="Node000003" class="node">
<title>Node3</title>
<g id="a_Node000003"><a xlink:href="Factory_8cpp.html" target="_top" xlink:title=" ">
<polygon fill="white" stroke="#666666" points="406.62,-147 277.38,-147 277.38,-113.5 406.62,-113.5 406.62,-147"/>
<text text-anchor="start" x="285.38" y="-133.5" font-family="Helvetica,sans-Serif" font-size="10.00">src/core/designPatterns</text>
<text text-anchor="middle" x="342" y="-120.75" font-family="Helvetica,sans-Serif" font-size="10.00">/Factory.cpp</text>
</a>
</g>
</g>
<!-- Node2&#45;&gt;Node3 -->
<g id="edge2_Node000002_Node000003" class="edge">
<title>Node2&#45;&gt;Node3</title>
<g id="a_edge2_Node000002_Node000003"><a xlink:title=" ">
<path fill="none" stroke="#63b8ff" d="M348.02,-171.89C346.78,-163.5 345.45,-154.51 344.35,-147.13"/>
<polygon fill="#63b8ff" stroke="#63b8ff" points="344.7,-172.37 349.63,-181.75 351.63,-171.35 344.7,-172.37"/>
</a>
</g>
</g>
<!-- Node4 -->
<g id="Node000004" class="node">
<title>Node4</title>
<g id="a_Node000004"><a xlink:href="src_2core_2scene_2Scene_8hpp.html" target="_top" xlink:title=" ">
<polygon fill="white" stroke="#666666" points="563.5,-140.62 424.5,-140.62 424.5,-119.88 563.5,-119.88 563.5,-140.62"/>
<text text-anchor="middle" x="494" y="-127.12" font-family="Helvetica,sans-Serif" font-size="10.00">src/core/scene/Scene.hpp</text>
</a>
</g>
</g>
<!-- Node2&#45;&gt;Node4 -->
<g id="edge3_Node000002_Node000004" class="edge">
<title>Node2&#45;&gt;Node4</title>
<g id="a_edge3_Node000002_Node000004"><a xlink:title=" ">
<path fill="none" stroke="#63b8ff" d="M395.62,-178.01C421.52,-165.7 453.16,-150.66 473.44,-141.02"/>
<polygon fill="#63b8ff" stroke="#63b8ff" points="394.54,-175.13 387.01,-182.58 397.55,-181.45 394.54,-175.13"/>
</a>
</g>
</g>
<!-- Node5 -->
<g id="Node000005" class="node">
<title>Node5</title>
<g id="a_Node000005"><a xlink:href="RayTracer_8hpp.html" target="_top" xlink:title=" ">
<polygon fill="white" stroke="#666666" points="556.75,-77.5 431.25,-77.5 431.25,-56.75 556.75,-56.75 556.75,-77.5"/>
<text text-anchor="middle" x="494" y="-64" font-family="Helvetica,sans-Serif" font-size="10.00">src/core/RayTracer.hpp</text>
</a>
</g>
</g>
<!-- Node4&#45;&gt;Node5 -->
<g id="edge4_Node000004_Node000005" class="edge">
<title>Node4&#45;&gt;Node5</title>
<g id="a_edge4_Node000004_Node000005"><a xlink:title=" ">
<path fill="none" stroke="#63b8ff" d="M494,-108.66C494,-98.2 494,-85.99 494,-77.72"/>
<polygon fill="#63b8ff" stroke="#63b8ff" points="490.5,-108.43 494,-118.43 497.5,-108.43 490.5,-108.43"/>
</a>
</g>
</g>
<!-- Node8 -->
<g id="Node000008" class="node">
<title>Node8</title>
<g id="a_Node000008"><a xlink:href="Image_8cpp.html" target="_top" xlink:title="Implémentation des méthodes de la classe Image pour gestion d&#39;image et affichage.">
<polygon fill="white" stroke="#666666" points="714.88,-77.5 575.12,-77.5 575.12,-56.75 714.88,-56.75 714.88,-77.5"/>
<text text-anchor="middle" x="645" y="-64" font-family="Helvetica,sans-Serif" font-size="10.00">src/core/scene/Image.cpp</text>
</a>
</g>
</g>
<!-- Node4&#45;&gt;Node8 -->
<g id="edge7_Node000004_Node000008" class="edge">
<title>Node4&#45;&gt;Node8</title>
<g id="a_edge7_Node000004_Node000008"><a xlink:title=" ">
<path fill="none" stroke="#63b8ff" d="M528.11,-115.44C556.33,-104.02 595.73,-88.07 620.8,-77.92"/>
<polygon fill="#63b8ff" stroke="#63b8ff" points="527.22,-112.43 519.26,-119.43 529.84,-118.92 527.22,-112.43"/>
</a>
</g>
</g>
<!-- Node9 -->
<g id="Node000009" class="node">
<title>Node9</title>
<g id="a_Node000009"><a xlink:href="Scene_8cpp.html" target="_top" xlink:title=" ">
<polygon fill="white" stroke="#666666" points="413.12,-77.5 274.88,-77.5 274.88,-56.75 413.12,-56.75 413.12,-77.5"/>
<text text-anchor="middle" x="344" y="-64" font-family="Helvetica,sans-Serif" font-size="10.00">src/core/scene/Scene.cpp</text>
</a>
</g>
</g>
<!-- Node4&#45;&gt;Node9 -->
<g id="edge8_Node000004_Node000009" class="edge">
<title>Node4&#45;&gt;Node9</title>
<g id="a_edge8_Node000004_Node000009"><a xlink:title=" ">
<path fill="none" stroke="#63b8ff" d="M459.75,-115.29C431.74,-103.88 392.84,-88.03 368.04,-77.92"/>
<polygon fill="#63b8ff" stroke="#63b8ff" points="458.32,-118.9 468.9,-119.43 460.96,-112.41 458.32,-118.9"/>
</a>
</g>
</g>
<!-- Node6 -->
<g id="Node000006" class="node">
<title>Node6</title>
<g id="a_Node000006"><a xlink:href="Main_8cpp.html" target="_top" xlink:title=" ">
<polygon fill="white" stroke="#666666" points="478.75,-20.75 377.25,-20.75 377.25,0 478.75,0 478.75,-20.75"/>
<text text-anchor="middle" x="428" y="-7.25" font-family="Helvetica,sans-Serif" font-size="10.00">src/core/Main.cpp</text>
</a>
</g>
</g>
<!-- Node5&#45;&gt;Node6 -->
<g id="edge5_Node000005_Node000006" class="edge">
<title>Node5&#45;&gt;Node6</title>
<g id="a_edge5_Node000005_Node000006"><a xlink:title=" ">
<path fill="none" stroke="#63b8ff" d="M473.85,-49.41C462.67,-40.13 449.15,-28.92 439.7,-21.08"/>
<polygon fill="#63b8ff" stroke="#63b8ff" points="471.27,-52.65 481.2,-56.34 475.74,-47.26 471.27,-52.65"/>
</a>
</g>
</g>
<!-- Node7 -->
<g id="Node000007" class="node">
<title>Node7</title>
<g id="a_Node000007"><a xlink:href="RayTracer_8cpp.html" target="_top" xlink:title=" ">
<polygon fill="white" stroke="#666666" points="621.38,-20.75 496.62,-20.75 496.62,0 621.38,0 621.38,-20.75"/>
<text text-anchor="middle" x="559" y="-7.25" font-family="Helvetica,sans-Serif" font-size="10.00">src/core/RayTracer.cpp</text>
</a>
</g>
</g>
<!-- Node5&#45;&gt;Node7 -->
<g id="edge6_Node000005_Node000007" class="edge">
<title>Node5&#45;&gt;Node7</title>
<g id="a_edge6_Node000005_Node000007"><a xlink:title=" ">
<path fill="none" stroke="#63b8ff" d="M513.84,-49.41C524.86,-40.13 538.17,-28.92 547.48,-21.08"/>
<polygon fill="#63b8ff" stroke="#63b8ff" points="512.01,-47.22 506.62,-56.34 516.52,-52.57 512.01,-47.22"/>
</a>
</g>
</g>
<!-- Node10&#45;&gt;Node11 -->
<g id="edge10_Node000010_Node000011" class="edge">
<title>Node10&#45;&gt;Node11</title>
<g id="a_edge10_Node000010_Node000011"><a xlink:title=" ">
<path fill="none" stroke="#63b8ff" d="M457.43,-367.46C456.97,-359.09 457.39,-349.83 458.7,-343.08"/>
<polygon fill="#63b8ff" stroke="#63b8ff" points="454.06,-367.8 458.68,-377.34 461.02,-367 454.06,-367.8"/>
</a>
</g>
</g>
<!-- Node11&#45;&gt;Node2 -->
<g id="edge11_Node000011_Node000002" class="edge">
<title>Node11&#45;&gt;Node2</title>
<g id="a_edge11_Node000011_Node000002"><a xlink:title=" ">
<path fill="none" stroke="#63b8ff" d="M427.48,-316.92C412.66,-309.53 396.38,-299.26 385,-286 367.63,-265.77 358.85,-235.38 354.86,-216.87"/>
<polygon fill="#63b8ff" stroke="#63b8ff" points="425.89,-320.5 436.43,-321.57 428.86,-314.16 425.89,-320.5"/>
</a>
</g>
</g>
<!-- Node11&#45;&gt;Node10 -->
<g id="edge12_Node000011_Node000010" class="edge">
<title>Node11&#45;&gt;Node10</title>
<g id="a_edge12_Node000011_Node000010"><a xlink:title=" ">
<path fill="none" stroke="#63b8ff" d="M470.56,-353.94C471.03,-362.3 470.62,-371.56 469.32,-378.34"/>
<polygon fill="#63b8ff" stroke="#63b8ff" points="473.93,-353.61 469.3,-344.08 466.98,-354.42 473.93,-353.61"/>
</a>
</g>
</g>
<!-- Node12 -->
<g id="Node000012" class="node">
<title>Node12</title>
<g id="a_Node000012"><a xlink:href="DirectionalLight_8hpp.html" target="_top" xlink:title=" ">
<polygon fill="white" stroke="#666666" points="533.5,-286 394.5,-286 394.5,-252.5 533.5,-252.5 533.5,-286"/>
<text text-anchor="start" x="402.5" y="-272.5" font-family="Helvetica,sans-Serif" font-size="10.00">src/lights/directionalLight</text>
<text text-anchor="middle" x="464" y="-259.75" font-family="Helvetica,sans-Serif" font-size="10.00">/DirectionalLight.hpp</text>
</a>
</g>
</g>
<!-- Node11&#45;&gt;Node12 -->
<g id="edge13_Node000011_Node000012" class="edge">
<title>Node11&#45;&gt;Node12</title>
<g id="a_edge13_Node000011_Node000012"><a xlink:title=" ">
<path fill="none" stroke="#63b8ff" d="M464,-310.65C464,-302.76 464,-293.9 464,-286.48"/>
<polygon fill="#63b8ff" stroke="#63b8ff" points="460.5,-310.55 464,-320.55 467.5,-310.55 460.5,-310.55"/>
</a>
</g>
</g>
<!-- Node16 -->
<g id="Node000016" class="node">
<title>Node16</title>
<g id="a_Node000016"><a xlink:href="PointLight_8hpp.html" target="_top" xlink:title=" ">
<polygon fill="white" stroke="#666666" points="338,-286 226,-286 226,-252.5 338,-252.5 338,-286"/>
<text text-anchor="start" x="234" y="-272.5" font-family="Helvetica,sans-Serif" font-size="10.00">src/lights/pointLight</text>
<text text-anchor="middle" x="282" y="-259.75" font-family="Helvetica,sans-Serif" font-size="10.00">/PointLight.hpp</text>
</a>
</g>
</g>
<!-- Node11&#45;&gt;Node16 -->
<g id="edge21_Node000011_Node000016" class="edge">
<title>Node11&#45;&gt;Node16</title>
<g id="a_edge21_Node000011_Node000016"><a xlink:title=" ">
<path fill="none" stroke="#63b8ff" d="M424.66,-318.16C397,-308.87 359.81,-296.38 330.34,-286.48"/>
<polygon fill="#63b8ff" stroke="#63b8ff" points="423.16,-321.69 433.76,-321.55 425.39,-315.05 423.16,-321.69"/>
</a>
</g>
</g>
<!-- Node12&#45;&gt;Node2 -->
<g id="edge14_Node000012_Node000002" class="edge">
<title>Node12&#45;&gt;Node2</title>
<g id="a_edge14_Node000012_Node000002"><a xlink:title=" ">
<path fill="none" stroke="#63b8ff" d="M428.06,-246.59C411.99,-236.91 393.39,-225.7 378.61,-216.79"/>
<polygon fill="#63b8ff" stroke="#63b8ff" points="425.8,-249.92 436.17,-252.08 429.42,-243.92 425.8,-249.92"/>
</a>
</g>
</g>
<!-- Node13 -->
<g id="Node000013" class="node">
<title>Node13</title>
<g id="a_Node000013"><a xlink:href="DirectionalLight_8cpp.html" target="_top" xlink:title=" ">
<polygon fill="white" stroke="#666666" points="269.5,-216.5 130.5,-216.5 130.5,-183 269.5,-183 269.5,-216.5"/>
<text text-anchor="start" x="138.5" y="-203" font-family="Helvetica,sans-Serif" font-size="10.00">src/lights/directionalLight</text>
<text text-anchor="middle" x="200" y="-190.25" font-family="Helvetica,sans-Serif" font-size="10.00">/DirectionalLight.cpp</text>
</a>
</g>
</g>
<!-- Node12&#45;&gt;Node13 -->
<g id="edge15_Node000012_Node000013" class="edge">
<title>Node12&#45;&gt;Node13</title>
<g id="a_edge15_Node000012_Node000013"><a xlink:title=" ">
<path fill="none" stroke="#63b8ff" d="M390.28,-249.4C350.3,-239.18 301.39,-226.67 263.18,-216.9"/>
<polygon fill="#63b8ff" stroke="#63b8ff" points="389.21,-253 399.77,-252.08 390.94,-246.21 389.21,-253"/>
</a>
</g>
</g>
<!-- Node14 -->
<g id="Node000014" class="node">
<title>Node14</title>
<g id="a_Node000014"><a xlink:href="Parser_8hpp.html" target="_top" xlink:title=" ">
<polygon fill="white" stroke="#666666" points="678.62,-210.12 561.38,-210.12 561.38,-189.38 678.62,-189.38 678.62,-210.12"/>
<text text-anchor="middle" x="620" y="-196.62" font-family="Helvetica,sans-Serif" font-size="10.00">src/parser/Parser.hpp</text>
</a>
</g>
</g>
<!-- Node12&#45;&gt;Node14 -->
<g id="edge16_Node000012_Node000014" class="edge">
<title>Node12&#45;&gt;Node14</title>
<g id="a_edge16_Node000012_Node000014"><a xlink:title=" ">
<path fill="none" stroke="#63b8ff" d="M511.17,-247.84C539.76,-235.47 574.94,-220.25 597.42,-210.52"/>
<polygon fill="#63b8ff" stroke="#63b8ff" points="510.15,-244.9 502.37,-252.08 512.93,-251.32 510.15,-244.9"/>
</a>
</g>
</g>
<!-- Node14&#45;&gt;Node4 -->
<g id="edge19_Node000014_Node000004" class="edge">
<title>Node14&#45;&gt;Node4</title>
<g id="a_edge19_Node000014_Node000004"><a xlink:title=" ">
<path fill="none" stroke="#63b8ff" d="M592.29,-183.9C567.99,-170.89 533.35,-152.33 512.34,-141.08"/>
<polygon fill="#63b8ff" stroke="#63b8ff" points="590.21,-187.3 600.68,-188.93 593.52,-181.13 590.21,-187.3"/>
</a>
</g>
</g>
<!-- Node14&#45;&gt;Node5 -->
<g id="edge17_Node000014_Node000005" class="edge">
<title>Node14&#45;&gt;Node5</title>
<g id="a_edge17_Node000014_Node000005"><a xlink:title=" ">
<path fill="none" stroke="#63b8ff" d="M612.46,-178.97C604.58,-160.34 590.75,-132.52 572,-113.5 556.49,-97.77 534.4,-85.6 517.69,-77.85"/>
<polygon fill="#63b8ff" stroke="#63b8ff" points="609.51,-180.02 616.49,-187.99 616,-177.4 609.51,-180.02"/>
</a>
</g>
</g>
<!-- Node14&#45;&gt;Node8 -->
<g id="edge18_Node000014_Node000008" class="edge">
<title>Node14&#45;&gt;Node8</title>
<g id="a_edge18_Node000014_Node000008"><a xlink:title=" ">
<path fill="none" stroke="#63b8ff" d="M623.94,-178.16C629.43,-149.5 639.14,-98.76 643.17,-77.7"/>
<polygon fill="#63b8ff" stroke="#63b8ff" points="620.32,-177.45 621.88,-187.93 627.2,-178.77 620.32,-177.45"/>
</a>
</g>
</g>
<!-- Node15 -->
<g id="Node000015" class="node">
<title>Node15</title>
<g id="a_Node000015"><a xlink:href="Parser_8cpp.html" target="_top" xlink:title="Implémentation des fonctions de parsing des configurations pour la caméra, primitives,...">
<polygon fill="white" stroke="#666666" points="774.25,-140.62 657.75,-140.62 657.75,-119.88 774.25,-119.88 774.25,-140.62"/>
<text text-anchor="middle" x="716" y="-127.12" font-family="Helvetica,sans-Serif" font-size="10.00">src/parser/Parser.cpp</text>
</a>
</g>
</g>
<!-- Node14&#45;&gt;Node15 -->
<g id="edge20_Node000014_Node000015" class="edge">
<title>Node14&#45;&gt;Node15</title>
<g id="a_edge20_Node000014_Node000015"><a xlink:title=" ">
<path fill="none" stroke="#63b8ff" d="M642.65,-182.83C661.04,-169.9 686.39,-152.07 701.96,-141.12"/>
<polygon fill="#63b8ff" stroke="#63b8ff" points="640.92,-180.46 634.75,-189.08 644.95,-186.19 640.92,-180.46"/>
</a>
</g>
</g>
<!-- Node16&#45;&gt;Node2 -->
<g id="edge22_Node000016_Node000002" class="edge">
<title>Node16&#45;&gt;Node2</title>
<g id="a_edge22_Node000016_Node000002"><a xlink:title=" ">
<path fill="none" stroke="#63b8ff" d="M306.34,-244.78C315.99,-235.48 326.83,-225.02 335.53,-216.63"/>
<polygon fill="#63b8ff" stroke="#63b8ff" points="304.36,-241.79 299.59,-251.25 309.22,-246.83 304.36,-241.79"/>
</a>
</g>
</g>
<!-- Node16&#45;&gt;Node14 -->
<g id="edge24_Node000016_Node000014" class="edge">
<title>Node16&#45;&gt;Node14</title>
<g id="a_edge24_Node000016_Node000014"><a xlink:title=" ">
<path fill="none" stroke="#63b8ff" d="M349.1,-256.13C403.82,-246.06 483.05,-231.09 552,-216.5 560.65,-214.67 569.9,-212.6 578.7,-210.58"/>
<polygon fill="#63b8ff" stroke="#63b8ff" points="348.7,-252.83 339.49,-258.07 349.96,-259.71 348.7,-252.83"/>
</a>
</g>
</g>
<!-- Node17 -->
<g id="Node000017" class="node">
<title>Node17</title>
<g id="a_Node000017"><a xlink:href="PointLight_8cpp.html" target="_top" xlink:title=" ">
<polygon fill="white" stroke="#666666" points="112,-216.5 0,-216.5 0,-183 112,-183 112,-216.5"/>
<text text-anchor="start" x="8" y="-203" font-family="Helvetica,sans-Serif" font-size="10.00">src/lights/pointLight</text>
<text text-anchor="middle" x="56" y="-190.25" font-family="Helvetica,sans-Serif" font-size="10.00">/PointLight.cpp</text>
</a>
</g>
</g>
<!-- Node16&#45;&gt;Node17 -->
<g id="edge23_Node000016_Node000017" class="edge">
<title>Node16&#45;&gt;Node17</title>
<g id="a_edge23_Node000016_Node000017"><a xlink:title=" ">
<path fill="none" stroke="#63b8ff" d="M217.57,-249.01C183.59,-238.86 142.38,-226.55 110.08,-216.9"/>
<polygon fill="#63b8ff" stroke="#63b8ff" points="216.28,-252.57 226.87,-252.08 218.29,-245.87 216.28,-252.57"/>
</a>
</g>
</g>
<!-- Node18&#45;&gt;Node2 -->
<g id="edge27_Node000018_Node000002" class="edge">
<title>Node18&#45;&gt;Node2</title>
<g id="a_edge27_Node000018_Node000002"><a xlink:title=" ">
<path fill="none" stroke="#63b8ff" d="M540.65,-250.88C501.28,-240.42 451.48,-227.19 412.93,-216.94"/>
<polygon fill="#63b8ff" stroke="#63b8ff" points="539.63,-254.5 550.2,-253.69 541.43,-247.74 539.63,-254.5"/>
</a>
</g>
</g>
<!-- Node18&#45;&gt;Node14 -->
<g id="edge28_Node000018_Node000014" class="edge">
<title>Node18&#45;&gt;Node14</title>
<g id="a_edge28_Node000018_Node000014"><a xlink:title=" ">
<path fill="none" stroke="#63b8ff" d="M611.48,-241.82C613.76,-230.83 616.26,-218.77 617.96,-210.57"/>
<polygon fill="#63b8ff" stroke="#63b8ff" points="607.92,-240.75 609.32,-251.25 614.78,-242.17 607.92,-240.75"/>
</a>
</g>
</g>
<!-- Node19 -->
<g id="Node000019" class="node">
<title>Node19</title>
<g id="a_Node000019"><a xlink:href="Cone_8cpp.html" target="_top" xlink:title=" ">
<polygon fill="white" stroke="#666666" points="543.5,-216.5 434.5,-216.5 434.5,-183 543.5,-183 543.5,-216.5"/>
<text text-anchor="start" x="442.5" y="-203" font-family="Helvetica,sans-Serif" font-size="10.00">src/primitives/cone</text>
<text text-anchor="middle" x="489" y="-190.25" font-family="Helvetica,sans-Serif" font-size="10.00">/Cone.cpp</text>
</a>
</g>
</g>
<!-- Node18&#45;&gt;Node19 -->
<g id="edge29_Node000018_Node000019" class="edge">
<title>Node18&#45;&gt;Node19</title>
<g id="a_edge29_Node000018_Node000019"><a xlink:title=" ">
<path fill="none" stroke="#63b8ff" d="M568.45,-246.59C551.67,-236.91 532.24,-225.7 516.8,-216.79"/>
<polygon fill="#63b8ff" stroke="#63b8ff" points="566.56,-250.12 576.98,-252.08 570.06,-244.05 566.56,-250.12"/>
</a>
</g>
</g>
<!-- Node20&#45;&gt;Node2 -->
<g id="edge31_Node000020_Node000002" class="edge">
<title>Node20&#45;&gt;Node2</title>
<g id="a_edge31_Node000020_Node000002"><a xlink:title=" ">
<path fill="none" stroke="#63b8ff" d="M667.5,-252.31C559.32,-232.96 529.49,-235.46 425,-216.5 422.32,-216.01 419.59,-215.5 416.83,-214.97"/>
<polygon fill="#63b8ff" stroke="#63b8ff" points="666.76,-255.91 677.22,-254.25 668.01,-249.02 666.76,-255.91"/>
</a>
</g>
</g>
<!-- Node20&#45;&gt;Node14 -->
<g id="edge32_Node000020_Node000014" class="edge">
<title>Node20&#45;&gt;Node14</title>
<g id="a_edge32_Node000020_Node000014"><a xlink:title=" ">
<path fill="none" stroke="#63b8ff" d="M702.66,-246.86C680.81,-234.67 654.49,-219.99 637.52,-210.52"/>
<polygon fill="#63b8ff" stroke="#63b8ff" points="700.58,-250.27 711.02,-252.08 703.99,-244.15 700.58,-250.27"/>
</a>
</g>
</g>
<!-- Node21 -->
<g id="Node000021" class="node">
<title>Node21</title>
<g id="a_Node000021"><a xlink:href="Cylinder_8cpp.html" target="_top" xlink:title=" ">
<polygon fill="white" stroke="#666666" points="821.38,-216.5 696.62,-216.5 696.62,-183 821.38,-183 821.38,-216.5"/>
<text text-anchor="start" x="704.62" y="-203" font-family="Helvetica,sans-Serif" font-size="10.00">src/primitives/cylinder</text>
<text text-anchor="middle" x="759" y="-190.25" font-family="Helvetica,sans-Serif" font-size="10.00">/Cylinder.cpp</text>
</a>
</g>
</g>
<!-- Node20&#45;&gt;Node21 -->
<g id="edge33_Node000020_Node000021" class="edge">
<title>Node20&#45;&gt;Node21</title>
<g id="a_edge33_Node000020_Node000021"><a xlink:title=" ">
<path fill="none" stroke="#63b8ff" d="M748.09,-241.67C750.35,-233.2 752.77,-224.1 754.76,-216.63"/>
<polygon fill="#63b8ff" stroke="#63b8ff" points="744.46,-240.69 745.27,-251.25 751.22,-242.49 744.46,-240.69"/>
</a>
</g>
</g>
<!-- Node22&#45;&gt;Node2 -->
<g id="edge44_Node000022_Node000002" class="edge">
<title>Node22&#45;&gt;Node2</title>
<g id="a_edge44_Node000022_Node000002"><a xlink:title=" ">
<path fill="none" stroke="#63b8ff" d="M841.53,-256.69C831.64,-255.17 821.57,-253.72 812,-252.5 640.65,-230.64 595.73,-242.76 425,-216.5 422.31,-216.09 419.57,-215.63 416.8,-215.15"/>
<polygon fill="#63b8ff" stroke="#63b8ff" points="840.74,-260.26 851.16,-258.36 841.82,-253.35 840.74,-260.26"/>
</a>
</g>
</g>
<!-- Node22&#45;&gt;Node14 -->
<g id="edge45_Node000022_Node000014" class="edge">
<title>Node22&#45;&gt;Node14</title>
<g id="a_edge45_Node000022_Node000014"><a xlink:title=" ">
<path fill="none" stroke="#63b8ff" d="M841.8,-252.55C786.3,-239.59 709.24,-221.59 662.1,-210.58"/>
<polygon fill="#63b8ff" stroke="#63b8ff" points="840.71,-256.13 851.25,-254.99 842.31,-249.31 840.71,-256.13"/>
</a>
</g>
</g>
<!-- Node23 -->
<g id="Node000023" class="node">
<title>Node23</title>
<g id="a_Node000023"><a xlink:href="Primitive__fact_8cpp.html" target="_top" xlink:title=" ">
<polygon fill="white" stroke="#666666" points="1265.25,-140.62 1130.75,-140.62 1130.75,-119.88 1265.25,-119.88 1265.25,-140.62"/>
<text text-anchor="middle" x="1198" y="-127.12" font-family="Helvetica,sans-Serif" font-size="10.00">paser/Primitive_fact.cpp</text>
</a>
</g>
</g>
<!-- Node22&#45;&gt;Node23 -->
<g id="edge35_Node000022_Node000023" class="edge">
<title>Node22&#45;&gt;Node23</title>
<g id="a_edge35_Node000022_Node000023"><a xlink:title=" ">
<path fill="none" stroke="#63b8ff" d="M976.54,-260.42C1018.01,-253.42 1071.03,-240.4 1113,-216.5 1147.87,-196.64 1178.25,-158.62 1191.26,-140.85"/>
<polygon fill="#63b8ff" stroke="#63b8ff" points="976.04,-257.11 966.72,-262.15 977.15,-264.02 976.04,-257.11"/>
</a>
</g>
</g>
<!-- Node24 -->
<g id="Node000024" class="node">
<title>Node24</title>
<g id="a_Node000024"><a xlink:href="Primitive__fact_8hpp.html" target="_top" xlink:title=" ">
<polygon fill="white" stroke="#666666" points="1333.62,-210.12 1198.38,-210.12 1198.38,-189.38 1333.62,-189.38 1333.62,-210.12"/>
<text text-anchor="middle" x="1266" y="-196.62" font-family="Helvetica,sans-Serif" font-size="10.00">paser/Primitive_fact.hpp</text>
</a>
</g>
</g>
<!-- Node22&#45;&gt;Node24 -->
<g id="edge36_Node000022_Node000024" class="edge">
<title>Node22&#45;&gt;Node24</title>
<g id="a_edge36_Node000022_Node000024"><a xlink:title=" ">
<path fill="none" stroke="#63b8ff" d="M976.42,-255.64C1032.1,-245.2 1113.19,-229.96 1184,-216.5 1193.97,-214.6 1204.62,-212.57 1214.83,-210.61"/>
<polygon fill="#63b8ff" stroke="#63b8ff" points="975.81,-252.38 966.63,-257.66 977.1,-259.26 975.81,-252.38"/>
</a>
</g>
</g>
<!-- Node26 -->
<g id="Node000026" class="node">
<title>Node26</title>
<g id="a_Node000026"><a xlink:href="paser_2Scene_8hpp.html" target="_top" xlink:title=" ">
<polygon fill="white" stroke="#666666" points="1104.12,-210.12 1007.88,-210.12 1007.88,-189.38 1104.12,-189.38 1104.12,-210.12"/>
<text text-anchor="middle" x="1056" y="-196.62" font-family="Helvetica,sans-Serif" font-size="10.00">paser/Scene.hpp</text>
</a>
</g>
</g>
<!-- Node22&#45;&gt;Node26 -->
<g id="edge39_Node000022_Node000026" class="edge">
<title>Node22&#45;&gt;Node26</title>
<g id="a_edge39_Node000022_Node000026"><a xlink:title=" ">
<path fill="none" stroke="#63b8ff" d="M954.16,-247.51C980.97,-235.2 1013.72,-220.16 1034.72,-210.52"/>
<polygon fill="#63b8ff" stroke="#63b8ff" points="952.84,-244.73 945.21,-252.08 955.76,-251.09 952.84,-244.73"/>
</a>
</g>
</g>
<!-- Node27 -->
<g id="Node000027" class="node">
<title>Node27</title>
<g id="a_Node000027"><a xlink:href="parse_8hpp.html" target="_top" xlink:title=" ">
<polygon fill="white" stroke="#666666" points="1075,-140.62 981,-140.62 981,-119.88 1075,-119.88 1075,-140.62"/>
<text text-anchor="middle" x="1028" y="-127.12" font-family="Helvetica,sans-Serif" font-size="10.00">paser/parse.hpp</text>
</a>
</g>
</g>
<!-- Node22&#45;&gt;Node27 -->
<g id="edge43_Node000022_Node000027" class="edge">
<title>Node22&#45;&gt;Node27</title>
<g id="a_edge43_Node000022_Node000027"><a xlink:title=" ">
<path fill="none" stroke="#63b8ff" d="M933.69,-244.9C942.54,-236.21 952.45,-226.12 961,-216.5 984.27,-190.34 1009.09,-157.19 1020.93,-141.02"/>
<polygon fill="#63b8ff" stroke="#63b8ff" points="931.66,-241.96 926.92,-251.43 936.53,-246.98 931.66,-241.96"/>
</a>
</g>
</g>
<!-- Node28 -->
<g id="Node000028" class="node">
<title>Node28</title>
<g id="a_Node000028"><a xlink:href="Plane_8cpp.html" target="_top" xlink:title=" ">
<polygon fill="white" stroke="#666666" points="952.38,-216.5 839.62,-216.5 839.62,-183 952.38,-183 952.38,-216.5"/>
<text text-anchor="start" x="847.62" y="-203" font-family="Helvetica,sans-Serif" font-size="10.00">src/primitives/plane</text>
<text text-anchor="middle" x="896" y="-190.25" font-family="Helvetica,sans-Serif" font-size="10.00">/Plane.cpp</text>
</a>
</g>
</g>
<!-- Node22&#45;&gt;Node28 -->
<g id="edge46_Node000022_Node000028" class="edge">
<title>Node22&#45;&gt;Node28</title>
<g id="a_edge46_Node000022_Node000028"><a xlink:title=" ">
<path fill="none" stroke="#63b8ff" d="M903.88,-241.67C902.25,-233.2 900.5,-224.1 899.06,-216.63"/>
<polygon fill="#63b8ff" stroke="#63b8ff" points="900.59,-242.1 905.92,-251.25 907.46,-240.77 900.59,-242.1"/>
</a>
</g>
</g>
<!-- Node24&#45;&gt;Node23 -->
<g id="edge37_Node000024_Node000023" class="edge">
<title>Node24&#45;&gt;Node23</title>
<g id="a_edge37_Node000024_Node000023"><a xlink:title=" ">
<path fill="none" stroke="#63b8ff" d="M1248.46,-181.34C1235.49,-168.47 1218.32,-151.42 1207.72,-140.9"/>
<polygon fill="#63b8ff" stroke="#63b8ff" points="1245.69,-183.52 1255.26,-188.08 1250.63,-178.55 1245.69,-183.52"/>
</a>
</g>
</g>
<!-- Node25 -->
<g id="Node000025" class="node">
<title>Node25</title>
<g id="a_Node000025"><a xlink:href="parse_8cpp.html" target="_top" xlink:title=" ">
<polygon fill="white" stroke="#666666" points="1149.62,-77.5 1056.38,-77.5 1056.38,-56.75 1149.62,-56.75 1149.62,-77.5"/>
<text text-anchor="middle" x="1103" y="-64" font-family="Helvetica,sans-Serif" font-size="10.00">paser/parse.cpp</text>
</a>
</g>
</g>
<!-- Node24&#45;&gt;Node25 -->
<g id="edge38_Node000024_Node000025" class="edge">
<title>Node24&#45;&gt;Node25</title>
<g id="a_edge38_Node000024_Node000025"><a xlink:title=" ">
<path fill="none" stroke="#63b8ff" d="M1274.9,-179.05C1281.91,-160.26 1288.33,-132.13 1274,-113.5 1258.92,-93.9 1195.18,-81.01 1149.94,-74.14"/>
<polygon fill="#63b8ff" stroke="#63b8ff" points="1271.32,-177.56 1270.75,-188.14 1277.8,-180.22 1271.32,-177.56"/>
</a>
</g>
</g>
<!-- Node26&#45;&gt;Node25 -->
<g id="edge40_Node000026_Node000025" class="edge">
<title>Node26&#45;&gt;Node25</title>
<g id="a_edge40_Node000026_Node000025"><a xlink:title=" ">
<path fill="none" stroke="#63b8ff" d="M1067.74,-179.89C1073.29,-170.32 1079.65,-158.35 1084,-147 1093.23,-122.93 1098.97,-92.97 1101.5,-77.84"/>
<polygon fill="#63b8ff" stroke="#63b8ff" points="1064.3,-177.82 1062.16,-188.19 1070.31,-181.42 1064.3,-177.82"/>
</a>
</g>
</g>
<!-- Node26&#45;&gt;Node27 -->
<g id="edge41_Node000026_Node000027" class="edge">
<title>Node26&#45;&gt;Node27</title>
<g id="a_edge41_Node000026_Node000027"><a xlink:title=" ">
<path fill="none" stroke="#63b8ff" d="M1047.85,-179.09C1042.64,-166.54 1036.12,-150.82 1032,-140.9"/>
<polygon fill="#63b8ff" stroke="#63b8ff" points="1044.92,-180.18 1051.99,-188.08 1051.39,-177.5 1044.92,-180.18"/>
</a>
</g>
</g>
<!-- Node27&#45;&gt;Node25 -->
<g id="edge42_Node000027_Node000025" class="edge">
<title>Node27&#45;&gt;Node25</title>
<g id="a_edge42_Node000027_Node000025"><a xlink:title=" ">
<path fill="none" stroke="#63b8ff" d="M1048.41,-112.61C1062.15,-101.42 1079.78,-87.05 1091.23,-77.72"/>
<polygon fill="#63b8ff" stroke="#63b8ff" points="1046.59,-110.4 1041.05,-119.43 1051.01,-115.82 1046.59,-110.4"/>
</a>
</g>
</g>
<!-- Node29&#45;&gt;Node2 -->
<g id="edge52_Node000029_Node000002" class="edge">
<title>Node29&#45;&gt;Node2</title>
<g id="a_edge52_Node000029_Node000002"><a xlink:title=" ">
<path fill="none" stroke="#63b8ff" d="M1023.72,-258.25C1007.42,-256.14 990.12,-254.09 974,-252.5 730.65,-228.58 667.17,-250.38 425,-216.5 422.3,-216.12 419.56,-215.7 416.79,-215.25"/>
<polygon fill="#63b8ff" stroke="#63b8ff" points="1022.9,-261.8 1033.27,-259.63 1023.81,-254.86 1022.9,-261.8"/>
</a>
</g>
</g>
<!-- Node29&#45;&gt;Node14 -->
<g id="edge53_Node000029_Node000014" class="edge">
<title>Node29&#45;&gt;Node14</title>
<g id="a_edge53_Node000029_Node000014"><a xlink:title=" ">
<path fill="none" stroke="#63b8ff" d="M1023.64,-258.95C1007.35,-256.82 990.07,-254.57 974,-252.5 846.93,-236.16 814.13,-238.98 688,-216.5 678.69,-214.84 668.75,-212.73 659.41,-210.6"/>
<polygon fill="#63b8ff" stroke="#63b8ff" points="1022.82,-262.51 1033.19,-260.34 1023.73,-255.57 1022.82,-262.51"/>
</a>
</g>
</g>
<!-- Node29&#45;&gt;Node23 -->
<g id="edge48_Node000029_Node000023" class="edge">
<title>Node29&#45;&gt;Node23</title>
<g id="a_edge48_Node000029_Node000023"><a xlink:title=" ">
<path fill="none" stroke="#63b8ff" d="M1164.65,-263.72C1270.14,-256.24 1458.66,-239.76 1479,-216.5 1541.01,-145.6 1367.16,-132.64 1265.59,-130.91"/>
<polygon fill="#63b8ff" stroke="#63b8ff" points="1164.51,-260.3 1154.78,-264.48 1165,-267.28 1164.51,-260.3"/>
</a>
</g>
</g>
<!-- Node29&#45;&gt;Node24 -->
<g id="edge49_Node000029_Node000024" class="edge">
<title>Node29&#45;&gt;Node24</title>
<g id="a_edge49_Node000029_Node000024"><a xlink:title=" ">
<path fill="none" stroke="#63b8ff" d="M1145.16,-248.17C1176.72,-235.79 1215.83,-220.44 1240.85,-210.62"/>
<polygon fill="#63b8ff" stroke="#63b8ff" points="1144.23,-245.17 1136.2,-252.08 1146.79,-251.69 1144.23,-245.17"/>
</a>
</g>
</g>
<!-- Node29&#45;&gt;Node26 -->
<g id="edge50_Node000029_Node000026" class="edge">
<title>Node29&#45;&gt;Node26</title>
<g id="a_edge50_Node000029_Node000026"><a xlink:title=" ">
<path fill="none" stroke="#63b8ff" d="M1079.7,-242.84C1073.36,-231.59 1066.29,-219.02 1061.53,-210.57"/>
<polygon fill="#63b8ff" stroke="#63b8ff" points="1077.04,-244.26 1084.99,-251.25 1083.14,-240.82 1077.04,-244.26"/>
</a>
</g>
</g>
<!-- Node29&#45;&gt;Node27 -->
<g id="edge51_Node000029_Node000027" class="edge">
<title>Node29&#45;&gt;Node27</title>
<g id="a_edge51_Node000029_Node000027"><a xlink:title=" ">
<path fill="none" stroke="#63b8ff" d="M1108.79,-242.53C1116.86,-224.85 1123.31,-201.34 1113,-183 1101.4,-162.37 1077.88,-149 1058.51,-141.02"/>
<polygon fill="#63b8ff" stroke="#63b8ff" points="1105.3,-240.68 1103.97,-251.19 1111.57,-243.8 1105.3,-240.68"/>
</a>
</g>
</g>
<!-- Node30 -->
<g id="Node000030" class="node">
<title>Node30</title>
<g id="a_Node000030"><a xlink:href="Sphere_8cpp.html" target="_top" xlink:title=" ">
<polygon fill="white" stroke="#666666" points="1470.38,-216.5 1351.62,-216.5 1351.62,-183 1470.38,-183 1470.38,-216.5"/>
<text text-anchor="start" x="1359.62" y="-203" font-family="Helvetica,sans-Serif" font-size="10.00">src/primitives/sphere</text>
<text text-anchor="middle" x="1411" y="-190.25" font-family="Helvetica,sans-Serif" font-size="10.00">/Sphere.cpp</text>
</a>
</g>
</g>
<!-- Node29&#45;&gt;Node30 -->
<g id="edge54_Node000029_Node000030" class="edge">
<title>Node29&#45;&gt;Node30</title>
<g id="a_edge54_Node000029_Node000030"><a xlink:title=" ">
<path fill="none" stroke="#63b8ff" d="M1164.38,-254.07C1214.3,-243.9 1282.84,-229.72 1343,-216.5 1345.72,-215.9 1348.5,-215.28 1351.31,-214.66"/>
<polygon fill="#63b8ff" stroke="#63b8ff" points="1163.8,-250.82 1154.7,-256.24 1165.2,-257.68 1163.8,-250.82"/>
</a>
</g>
</g>
</g>
</svg>
