<?xml version="1.0" encoding="UTF-8" standalone="no"?>
<!DOCTYPE svg PUBLIC "-//W3C//DTD SVG 1.1//EN"
 "http://www.w3.org/Graphics/SVG/1.1/DTD/svg11.dtd">
<!-- Generated by graphviz version 8.1.0 (20230707.0739)
 -->
<!-- Title: main Pages: 1 -->
<svg width="1133pt" height="348pt"
 viewBox="0.00 0.00 1133.25 348.12" xmlns="http://www.w3.org/2000/svg" xmlns:xlink="http://www.w3.org/1999/xlink">
<g id="graph0" class="graph" transform="scale(1 1) rotate(0) translate(4 344.12)">
<title>main</title>
<!-- Node1 -->
<g id="Node000001" class="node">
<title>Node1</title>
<g id="a_Node000001"><a xlink:title="Point d&#39;entrée principal du programme.">
<polygon fill="#999999" stroke="#666666" points="40.75,-168.12 0,-168.12 0,-147.38 40.75,-147.38 40.75,-168.12"/>
<text text-anchor="middle" x="20.38" y="-154.62" font-family="Helvetica,sans-Serif" font-size="10.00">main</text>
</a>
</g>
</g>
<!-- Node2 -->
<g id="Node000002" class="node">
<title>Node2</title>
<g id="a_Node000002"><a xlink:href="classcore_1_1RayTracer.html#a859673b935c3ccddb6c3db5a3710f6fd" target="_top" xlink:title="Lance l&#39;exécution principale du programme.">
<polygon fill="white" stroke="#666666" points="201.88,-191.12 89.12,-191.12 89.12,-170.38 201.88,-170.38 201.88,-191.12"/>
<text text-anchor="middle" x="145.5" y="-177.62" font-family="Helvetica,sans-Serif" font-size="10.00">core::RayTracer::run</text>
</a>
</g>
</g>
<!-- Node1&#45;&gt;Node2 -->
<g id="edge1_Node000001_Node000002" class="edge">
<title>Node1&#45;&gt;Node2</title>
<g id="a_edge1_Node000001_Node000002"><a xlink:title=" ">
<path fill="none" stroke="#63b8ff" d="M41.16,-161.45C51.5,-163.38 64.83,-165.87 78.45,-168.41"/>
<polygon fill="#63b8ff" stroke="#63b8ff" points="77.41,-171.96 87.88,-170.36 78.7,-165.08 77.41,-171.96"/>
</a>
</g>
</g>
<!-- Node26 -->
<g id="Node000026" class="node">
<title>Node26</title>
<g id="a_Node000026"><a xlink:href="classraytracer_1_1ArgumentError.html#ac38047d9199c7763659609e6d0f61ae1" target="_top" xlink:title="Renvoie le message d&#39;erreur.">
<polygon fill="white" stroke="#666666" points="214.25,-152.5 76.75,-152.5 76.75,-119 214.25,-119 214.25,-152.5"/>
<text text-anchor="start" x="84.75" y="-139" font-family="Helvetica,sans-Serif" font-size="10.00">raytracer::ArgumentError</text>
<text text-anchor="middle" x="145.5" y="-126.25" font-family="Helvetica,sans-Serif" font-size="10.00">::what</text>
</a>
</g>
</g>
<!-- Node1&#45;&gt;Node26 -->
<g id="edge28_Node000001_Node000026" class="edge">
<title>Node1&#45;&gt;Node26</title>
<g id="a_edge28_Node000001_Node000026"><a xlink:title=" ">
<path fill="none" stroke="#63b8ff" d="M41.16,-154.22C48.19,-152.96 56.61,-151.45 65.55,-149.86"/>
<polygon fill="#63b8ff" stroke="#63b8ff" points="66.02,-153.15 75.25,-147.94 64.79,-146.26 66.02,-153.15"/>
</a>
</g>
</g>
<!-- Node3 -->
<g id="Node000003" class="node">
<title>Node3</title>
<g id="a_Node000003"><a xlink:href="classraytracer_1_1Image.html#a7f155ce4e88c2d73d11212e853509a24" target="_top" xlink:title="Exporte l&#39;image au format PPM dans un fichier.">
<polygon fill="white" stroke="#666666" points="412.12,-340.12 252.88,-340.12 252.88,-319.38 412.12,-319.38 412.12,-340.12"/>
<text text-anchor="middle" x="332.5" y="-326.62" font-family="Helvetica,sans-Serif" font-size="10.00">raytracer::Image::displayPPM</text>
</a>
</g>
</g>
<!-- Node2&#45;&gt;Node3 -->
<g id="edge2_Node000002_Node000003" class="edge">
<title>Node2&#45;&gt;Node3</title>
<g id="a_edge2_Node000002_Node000003"><a xlink:title=" ">
<path fill="none" stroke="#63b8ff" d="M151.87,-191.38C165,-216.27 201.29,-278.55 250.25,-309.75 253.19,-311.62 256.29,-313.32 259.5,-314.86"/>
<polygon fill="#63b8ff" stroke="#63b8ff" points="257.82,-318.37 268.39,-319.02 260.53,-311.92 257.82,-318.37"/>
</a>
</g>
</g>
<!-- Node4 -->
<g id="Node000004" class="node">
<title>Node4</title>
<g id="a_Node000004"><a xlink:href="classraytracer_1_1Image.html#abe65792dcbc7154fc9c4673c482c3356" target="_top" xlink:title="Affiche l&#39;image dans la fenêtre SFML.">
<polygon fill="white" stroke="#666666" points="414.75,-301.12 250.25,-301.12 250.25,-280.38 414.75,-280.38 414.75,-301.12"/>
<text text-anchor="middle" x="332.5" y="-287.62" font-family="Helvetica,sans-Serif" font-size="10.00">raytracer::Image::displaySFML</text>
</a>
</g>
</g>
<!-- Node2&#45;&gt;Node4 -->
<g id="edge3_Node000002_Node000004" class="edge">
<title>Node2&#45;&gt;Node4</title>
<g id="a_edge3_Node000002_Node000004"><a xlink:title=" ">
<path fill="none" stroke="#63b8ff" d="M155.3,-191.32C171.83,-210.47 209.55,-250.83 250.25,-271.75 253.41,-273.37 256.7,-274.86 260.08,-276.22"/>
<polygon fill="#63b8ff" stroke="#63b8ff" points="258.83,-279.85 269.42,-279.94 261.2,-273.26 258.83,-279.85"/>
</a>
</g>
</g>
<!-- Node8 -->
<g id="Node000008" class="node">
<title>Node8</title>
<g id="a_Node000008"><a xlink:href="classcore_1_1Parser.html#aa8ccbef1c1e0165d9a6d60a216aab028" target="_top" xlink:title="Vérifie si le fichier de configuration contient les éléments de base nécessaires.">
<polygon fill="white" stroke="#666666" points="414,-262.5 251,-262.5 251,-229 414,-229 414,-262.5"/>
<text text-anchor="start" x="259" y="-249" font-family="Helvetica,sans-Serif" font-size="10.00">core::Parser::hasBasicElement</text>
<text text-anchor="middle" x="332.5" y="-236.25" font-family="Helvetica,sans-Serif" font-size="10.00">InFiles</text>
</a>
</g>
</g>
<!-- Node2&#45;&gt;Node8 -->
<g id="edge7_Node000002_Node000008" class="edge">
<title>Node2&#45;&gt;Node8</title>
<g id="a_edge7_Node000002_Node000008"><a xlink:title=" ">
<path fill="none" stroke="#63b8ff" d="M174.11,-191.56C194.93,-199.6 224.26,-210.71 250.25,-219.75 255.58,-221.6 261.13,-223.48 266.71,-225.34"/>
<polygon fill="#63b8ff" stroke="#63b8ff" points="265.15,-228.84 275.74,-228.64 267.34,-222.19 265.15,-228.84"/>
</a>
</g>
</g>
<!-- Node9 -->
<g id="Node000009" class="node">
<title>Node9</title>
<g id="a_Node000009"><a xlink:href="classcore_1_1RayTracer.html#ae56ff19119f785b1977dbe607ce2f666" target="_top" xlink:title="Affiche l&#39;aide et les instructions d&#39;utilisation du programme.">
<polygon fill="white" stroke="#666666" points="391.5,-211.12 273.5,-211.12 273.5,-190.38 391.5,-190.38 391.5,-211.12"/>
<text text-anchor="middle" x="332.5" y="-197.62" font-family="Helvetica,sans-Serif" font-size="10.00">core::RayTracer::help</text>
</a>
</g>
</g>
<!-- Node2&#45;&gt;Node9 -->
<g id="edge8_Node000002_Node000009" class="edge">
<title>Node2&#45;&gt;Node9</title>
<g id="a_edge8_Node000002_Node000009"><a xlink:title=" ">
<path fill="none" stroke="#63b8ff" d="M202.26,-186.78C221.2,-188.83 242.59,-191.14 262.45,-193.28"/>
<polygon fill="#63b8ff" stroke="#63b8ff" points="261.97,-196.86 272.29,-194.46 262.72,-189.9 261.97,-196.86"/>
</a>
</g>
</g>
<!-- Node10 -->
<g id="Node000010" class="node">
<title>Node10</title>
<g id="a_Node000010"><a xlink:href="classraytracer_1_1Scene.html#aaf51a8dcfe52d8c58bde2e7f8d10ad12" target="_top" xlink:title="Initialise la scène à partir d&#39;un parser de fichier de scène.">
<polygon fill="white" stroke="#666666" points="391.12,-172.12 273.88,-172.12 273.88,-151.38 391.12,-151.38 391.12,-172.12"/>
<text text-anchor="middle" x="332.5" y="-158.62" font-family="Helvetica,sans-Serif" font-size="10.00">raytracer::Scene::init</text>
</a>
</g>
</g>
<!-- Node2&#45;&gt;Node10 -->
<g id="edge9_Node000002_Node000010" class="edge">
<title>Node2&#45;&gt;Node10</title>
<g id="a_edge9_Node000002_Node000010"><a xlink:title=" ">
<path fill="none" stroke="#63b8ff" d="M202.26,-175.02C221.29,-173.07 242.8,-170.86 262.73,-168.81"/>
<polygon fill="#63b8ff" stroke="#63b8ff" points="263.02,-172.2 272.61,-167.7 262.31,-165.24 263.02,-172.2"/>
</a>
</g>
</g>
<!-- Node11 -->
<g id="Node000011" class="node">
<title>Node11</title>
<g id="a_Node000011"><a xlink:href="classcore_1_1Parser.html#ad9565e3daafe0d2410ebdbb77eee1278" target="_top" xlink:title="Parse un fichier de configuration complet.">
<polygon fill="white" stroke="#666666" points="394.12,-133.12 270.88,-133.12 270.88,-112.38 394.12,-112.38 394.12,-133.12"/>
<text text-anchor="middle" x="332.5" y="-119.62" font-family="Helvetica,sans-Serif" font-size="10.00">core::Parser::parseFile</text>
</a>
</g>
</g>
<!-- Node2&#45;&gt;Node11 -->
<g id="edge10_Node000002_Node000011" class="edge">
<title>Node2&#45;&gt;Node11</title>
<g id="a_edge10_Node000002_Node000011"><a xlink:title=" ">
<path fill="none" stroke="#63b8ff" d="M190.33,-169.93C198.38,-167.53 206.65,-164.78 214.25,-161.75 231.05,-155.05 233.34,-149.18 250.25,-142.75 256.31,-140.45 262.72,-138.34 269.19,-136.42"/>
<polygon fill="#63b8ff" stroke="#63b8ff" points="269.65,-139.65 278.34,-133.58 267.77,-132.91 269.65,-139.65"/>
</a>
</g>
</g>
<!-- Node12 -->
<g id="Node000012" class="node">
<title>Node12</title>
<g id="a_Node000012"><a xlink:href="classraytracer_1_1Scene.html#acda226b04c50587c0125112e5bfa5e7b" target="_top" xlink:title="Lance le rendu de la scène dans l&#39;image fournie.">
<polygon fill="white" stroke="#666666" points="399,-94.12 266,-94.12 266,-73.38 399,-73.38 399,-94.12"/>
<text text-anchor="middle" x="332.5" y="-80.62" font-family="Helvetica,sans-Serif" font-size="10.00">raytracer::Scene::render</text>
</a>
</g>
</g>
<!-- Node2&#45;&gt;Node12 -->
<g id="edge11_Node000002_Node000012" class="edge">
<title>Node2&#45;&gt;Node12</title>
<g id="a_edge11_Node000002_Node000012"><a xlink:title=" ">
<path fill="none" stroke="#63b8ff" d="M200.09,-169.88C205.13,-167.66 209.95,-164.98 214.25,-161.75 238.51,-143.53 225.7,-121.58 250.25,-103.75 252.46,-102.14 254.79,-100.67 257.2,-99.3"/>
<polygon fill="#63b8ff" stroke="#63b8ff" points="258.38,-102.13 265.85,-94.62 255.33,-95.84 258.38,-102.13"/>
</a>
</g>
</g>
<!-- Node25 -->
<g id="Node000025" class="node">
<title>Node25</title>
<g id="a_Node000025"><a xlink:href="classraytracer_1_1ParseError.html#af3ba10831de951716cd91098e3d40261" target="_top" xlink:title="Renvoie le message d&#39;erreur.">
<polygon fill="white" stroke="#666666" points="390.38,-55.5 274.62,-55.5 274.62,-22 390.38,-22 390.38,-55.5"/>
<text text-anchor="start" x="282.62" y="-42" font-family="Helvetica,sans-Serif" font-size="10.00">raytracer::ParseError</text>
<text text-anchor="middle" x="332.5" y="-29.25" font-family="Helvetica,sans-Serif" font-size="10.00">::what</text>
</a>
</g>
</g>
<!-- Node2&#45;&gt;Node25 -->
<g id="edge27_Node000002_Node000025" class="edge">
<title>Node2&#45;&gt;Node25</title>
<g id="a_edge27_Node000002_Node000025"><a xlink:title=" ">
<path fill="none" stroke="#63b8ff" d="M202.13,-170.07C206.53,-167.8 210.66,-165.06 214.25,-161.75 248.07,-130.59 217,-96.51 250.25,-64.75 254.53,-60.66 259.46,-57.21 264.73,-54.3"/>
<polygon fill="#63b8ff" stroke="#63b8ff" points="265.99,-57.1 273.51,-49.64 262.98,-50.78 265.99,-57.1"/>
</a>
</g>
</g>
<!-- Node5 -->
<g id="Node000005" class="node">
<title>Node5</title>
<g id="a_Node000005"><a xlink:href="classraytracer_1_1Color.html#a22e077d8468e9f9006e37389372f3501" target="_top" xlink:title=" ">
<polygon fill="white" stroke="#666666" points="586.38,-340.12 466.12,-340.12 466.12,-319.38 586.38,-319.38 586.38,-340.12"/>
<text text-anchor="middle" x="526.25" y="-326.62" font-family="Helvetica,sans-Serif" font-size="10.00">raytracer::Color::getB</text>
</a>
</g>
</g>
<!-- Node4&#45;&gt;Node5 -->
<g id="edge4_Node000004_Node000005" class="edge">
<title>Node4&#45;&gt;Node5</title>
<g id="a_edge4_Node000004_Node000005"><a xlink:title=" ">
<path fill="none" stroke="#63b8ff" d="M386.91,-301.61C409.98,-306.31 437.17,-311.83 461.3,-316.74"/>
<polygon fill="#63b8ff" stroke="#63b8ff" points="460.29,-320.31 470.79,-318.88 461.69,-313.45 460.29,-320.31"/>
</a>
</g>
</g>
<!-- Node6 -->
<g id="Node000006" class="node">
<title>Node6</title>
<g id="a_Node000006"><a xlink:href="classraytracer_1_1Color.html#a4002ae54e8836e8f8b506ff2ef4fa9a2" target="_top" xlink:title=" ">
<polygon fill="white" stroke="#666666" points="586.75,-301.12 465.75,-301.12 465.75,-280.38 586.75,-280.38 586.75,-301.12"/>
<text text-anchor="middle" x="526.25" y="-287.62" font-family="Helvetica,sans-Serif" font-size="10.00">raytracer::Color::getG</text>
</a>
</g>
</g>
<!-- Node4&#45;&gt;Node6 -->
<g id="edge5_Node000004_Node000006" class="edge">
<title>Node4&#45;&gt;Node6</title>
<g id="a_edge5_Node000004_Node000006"><a xlink:title=" ">
<path fill="none" stroke="#63b8ff" d="M415.1,-290.75C428.32,-290.75 441.91,-290.75 454.83,-290.75"/>
<polygon fill="#63b8ff" stroke="#63b8ff" points="454.51,-294.25 464.51,-290.75 454.51,-287.25 454.51,-294.25"/>
</a>
</g>
</g>
<!-- Node7 -->
<g id="Node000007" class="node">
<title>Node7</title>
<g id="a_Node000007"><a xlink:href="classraytracer_1_1Color.html#aa32ae9b17373389db6c03fda0d90c87a" target="_top" xlink:title=" ">
<polygon fill="white" stroke="#666666" points="586.38,-262.12 466.12,-262.12 466.12,-241.38 586.38,-241.38 586.38,-262.12"/>
<text text-anchor="middle" x="526.25" y="-248.62" font-family="Helvetica,sans-Serif" font-size="10.00">raytracer::Color::getR</text>
</a>
</g>
</g>
<!-- Node4&#45;&gt;Node7 -->
<g id="edge6_Node000004_Node000007" class="edge">
<title>Node4&#45;&gt;Node7</title>
<g id="a_edge6_Node000004_Node000007"><a xlink:title=" ">
<path fill="none" stroke="#63b8ff" d="M386.91,-279.89C409.98,-275.19 437.17,-269.67 461.3,-264.76"/>
<polygon fill="#63b8ff" stroke="#63b8ff" points="461.69,-268.05 470.79,-262.62 460.29,-261.19 461.69,-268.05"/>
</a>
</g>
</g>
<!-- Node13 -->
<g id="Node000013" class="node">
<title>Node13</title>
<g id="a_Node000013"><a xlink:href="classraytracer_1_1Scene.html#a3e1cc90ae8e645a806ebc45eb6681958" target="_top" xlink:title="Calcule la couleur d&#39;un pixel donné dans l&#39;image.">
<polygon fill="white" stroke="#666666" points="597.62,-153.12 454.88,-153.12 454.88,-132.38 597.62,-132.38 597.62,-153.12"/>
<text text-anchor="middle" x="526.25" y="-139.62" font-family="Helvetica,sans-Serif" font-size="10.00">raytracer::Scene::getColor</text>
</a>
</g>
</g>
<!-- Node12&#45;&gt;Node13 -->
<g id="edge12_Node000012_Node000013" class="edge">
<title>Node12&#45;&gt;Node13</title>
<g id="a_edge12_Node000012_Node000013"><a xlink:title=" ">
<path fill="none" stroke="#63b8ff" d="M385.66,-94.58C395.46,-97.18 405.52,-100.24 414.75,-103.75 431.66,-110.18 433.91,-116.14 450.75,-122.75 456.42,-124.98 462.43,-127.04 468.47,-128.93"/>
<polygon fill="#63b8ff" stroke="#63b8ff" points="467.05,-132.46 477.63,-131.95 469.04,-125.75 467.05,-132.46"/>
</a>
</g>
</g>
<!-- Node22 -->
<g id="Node000022" class="node">
<title>Node22</title>
<g id="a_Node000022"><a xlink:href="classraytracer_1_1Image.html#ac2ba89c5465c0bc307b3dfa87ea4bf33" target="_top" xlink:title="Getter pour la hauteur de l&#39;image.">
<polygon fill="white" stroke="#666666" points="601.75,-114.12 450.75,-114.12 450.75,-93.38 601.75,-93.38 601.75,-114.12"/>
<text text-anchor="middle" x="526.25" y="-100.62" font-family="Helvetica,sans-Serif" font-size="10.00">raytracer::Image::getHeight</text>
</a>
</g>
</g>
<!-- Node12&#45;&gt;Node22 -->
<g id="edge24_Node000012_Node000022" class="edge">
<title>Node12&#45;&gt;Node22</title>
<g id="a_edge24_Node000012_Node000022"><a xlink:title=" ">
<path fill="none" stroke="#63b8ff" d="M399.49,-90.63C412.48,-91.99 426.29,-93.43 439.82,-94.84"/>
<polygon fill="#63b8ff" stroke="#63b8ff" points="439.27,-98.41 449.58,-95.96 440,-91.44 439.27,-98.41"/>
</a>
</g>
</g>
<!-- Node23 -->
<g id="Node000023" class="node">
<title>Node23</title>
<g id="a_Node000023"><a xlink:href="classraytracer_1_1Image.html#a97f45882442cf62c1ae8c76b99991b59" target="_top" xlink:title="Getter pour la largeur de l&#39;image.">
<polygon fill="white" stroke="#666666" points="599.88,-75.12 452.62,-75.12 452.62,-54.38 599.88,-54.38 599.88,-75.12"/>
<text text-anchor="middle" x="526.25" y="-61.62" font-family="Helvetica,sans-Serif" font-size="10.00">raytracer::Image::getWidth</text>
</a>
</g>
</g>
<!-- Node12&#45;&gt;Node23 -->
<g id="edge25_Node000012_Node000023" class="edge">
<title>Node12&#45;&gt;Node23</title>
<g id="a_edge25_Node000012_Node000023"><a xlink:title=" ">
<path fill="none" stroke="#63b8ff" d="M399.49,-77.21C413.04,-75.87 427.48,-74.44 441.56,-73.04"/>
<polygon fill="#63b8ff" stroke="#63b8ff" points="441.64,-76.45 451.24,-71.98 440.95,-69.49 441.64,-76.45"/>
</a>
</g>
</g>
<!-- Node24 -->
<g id="Node000024" class="node">
<title>Node24</title>
<g id="a_Node000024"><a xlink:href="classraytracer_1_1Image.html#a35cb4abe430709e46e24beb3ac4bee63" target="_top" xlink:title="Définit la couleur d&#39;un pixel à une position donnée.">
<polygon fill="white" stroke="#666666" points="596.88,-36.12 455.62,-36.12 455.62,-15.38 596.88,-15.38 596.88,-36.12"/>
<text text-anchor="middle" x="526.25" y="-22.62" font-family="Helvetica,sans-Serif" font-size="10.00">raytracer::Image::setPixel</text>
</a>
</g>
</g>
<!-- Node12&#45;&gt;Node24 -->
<g id="edge26_Node000012_Node000024" class="edge">
<title>Node12&#45;&gt;Node24</title>
<g id="a_edge26_Node000012_Node000024"><a xlink:title=" ">
<path fill="none" stroke="#63b8ff" d="M388.27,-72.97C397.23,-70.63 406.34,-67.89 414.75,-64.75 431.7,-58.42 433.91,-52.36 450.75,-45.75 456.42,-43.52 462.43,-41.46 468.47,-39.57"/>
<polygon fill="#63b8ff" stroke="#63b8ff" points="469.04,-42.75 477.63,-36.55 467.05,-36.04 469.04,-42.75"/>
</a>
</g>
</g>
<!-- Node14 -->
<g id="Node000014" class="node">
<title>Node14</title>
<g id="a_Node000014"><a xlink:href="classraytracer_1_1Color.html#af57a11390d98eeb60d1f804f2a85bb72" target="_top" xlink:title=" ">
<polygon fill="white" stroke="#666666" points="942.75,-239.12 815,-239.12 815,-218.38 942.75,-218.38 942.75,-239.12"/>
<text text-anchor="middle" x="878.88" y="-225.62" font-family="Helvetica,sans-Serif" font-size="10.00">raytracer::Color::clamp</text>
</a>
</g>
</g>
<!-- Node13&#45;&gt;Node14 -->
<g id="edge13_Node000013_Node000014" class="edge">
<title>Node13&#45;&gt;Node14</title>
<g id="a_edge13_Node000013_Node000014"><a xlink:title=" ">
<path fill="none" stroke="#63b8ff" d="M544.89,-153.6C566.12,-166.12 603.21,-186.31 637.75,-196.75 691.91,-213.12 755.45,-221.12 803.56,-225.03"/>
<polygon fill="#63b8ff" stroke="#63b8ff" points="803.28,-228.59 813.51,-225.87 803.81,-221.61 803.28,-228.59"/>
</a>
</g>
</g>
<!-- Node15 -->
<g id="Node000015" class="node">
<title>Node15</title>
<g id="a_Node000015"><a xlink:href="classraytracer_1_1Scene.html#a47df2dc8ff0d5b2c53a1119e4dbc78a5" target="_top" xlink:title="Calcule la couleur de la lumière sur une primitive à un point d&#39;intersection donné.">
<polygon fill="white" stroke="#666666" points="779,-187.5 637.75,-187.5 637.75,-154 779,-154 779,-187.5"/>
<text text-anchor="start" x="645.75" y="-174" font-family="Helvetica,sans-Serif" font-size="10.00">raytracer::Scene::getLight</text>
<text text-anchor="middle" x="708.38" y="-161.25" font-family="Helvetica,sans-Serif" font-size="10.00">Color</text>
</a>
</g>
</g>
<!-- Node13&#45;&gt;Node15 -->
<g id="edge14_Node000013_Node000015" class="edge">
<title>Node13&#45;&gt;Node15</title>
<g id="a_edge14_Node000013_Node000015"><a xlink:title=" ">
<path fill="none" stroke="#63b8ff" d="M597.15,-153.62C606.88,-155.13 616.94,-156.69 626.85,-158.23"/>
<polygon fill="#63b8ff" stroke="#63b8ff" points="626.1,-161.81 636.52,-159.89 627.17,-154.9 626.1,-161.81"/>
</a>
</g>
</g>
<!-- Node17 -->
<g id="Node000017" class="node">
<title>Node17</title>
<g id="a_Node000017"><a xlink:href="classmath_1_1Vector3D.html#ae0c26833a0b58f2709884880a02bdc52" target="_top" xlink:title="Normalise le vecteur actuel (modifie en place).">
<polygon fill="white" stroke="#666666" points="1125.25,-124.12 978.75,-124.12 978.75,-103.38 1125.25,-103.38 1125.25,-124.12"/>
<text text-anchor="middle" x="1052" y="-110.62" font-family="Helvetica,sans-Serif" font-size="10.00">math::Vector3D::normalize</text>
</a>
</g>
</g>
<!-- Node13&#45;&gt;Node17 -->
<g id="edge18_Node000013_Node000017" class="edge">
<title>Node13&#45;&gt;Node17</title>
<g id="a_edge18_Node000013_Node000017"><a xlink:title=" ">
<path fill="none" stroke="#63b8ff" d="M597.89,-138.84C693.93,-133.52 865.43,-124.03 967.66,-118.36"/>
<polygon fill="#63b8ff" stroke="#63b8ff" points="967.76,-121.81 977.55,-117.76 967.37,-114.82 967.76,-121.81"/>
</a>
</g>
</g>
<!-- Node18 -->
<g id="Node000018" class="node">
<title>Node18</title>
<g id="a_Node000018"><a xlink:href="classraytracer_1_1Camera.html#aa6be6292787a7ffd1833c7184aed42af" target="_top" xlink:title="Génère un rayon à partir des coordonnées normalisées sur le plan de l&#39;écran.">
<polygon fill="white" stroke="#666666" points="771.5,-79.12 645.25,-79.12 645.25,-58.38 771.5,-58.38 771.5,-79.12"/>
<text text-anchor="middle" x="708.38" y="-65.62" font-family="Helvetica,sans-Serif" font-size="10.00">raytracer::Camera::ray</text>
</a>
</g>
</g>
<!-- Node13&#45;&gt;Node18 -->
<g id="edge19_Node000013_Node000018" class="edge">
<title>Node13&#45;&gt;Node18</title>
<g id="a_edge19_Node000013_Node000018"><a xlink:title=" ">
<path fill="none" stroke="#63b8ff" d="M576.08,-131.95C584.79,-129.37 593.66,-126.32 601.75,-122.75 619.12,-115.09 621.03,-108.75 637.75,-99.75 648.17,-94.14 659.8,-88.67 670.54,-83.92"/>
<polygon fill="#63b8ff" stroke="#63b8ff" points="671.69,-86.8 679.48,-79.61 668.91,-80.38 671.69,-86.8"/>
</a>
</g>
</g>
<!-- Node15&#45;&gt;Node14 -->
<g id="edge15_Node000015_Node000014" class="edge">
<title>Node15&#45;&gt;Node14</title>
<g id="a_edge15_Node000015_Node000014"><a xlink:title=" ">
<path fill="none" stroke="#63b8ff" d="M756.04,-187.96C774.37,-194.61 795.62,-202.18 815,-208.75 820.84,-210.73 827,-212.76 833.09,-214.73"/>
<polygon fill="#63b8ff" stroke="#63b8ff" points="831.62,-218.25 842.21,-217.98 833.76,-211.59 831.62,-218.25"/>
</a>
</g>
</g>
<!-- Node16 -->
<g id="Node000016" class="node">
<title>Node16</title>
<g id="a_Node000016"><a xlink:href="classmath_1_1Vector3D.html#ac86c5f9ee96342aed93b22387a86e247" target="_top" xlink:title="Calcule le produit scalaire avec un autre vecteur.">
<polygon fill="white" stroke="#666666" points="935.62,-200.12 822.12,-200.12 822.12,-179.38 935.62,-179.38 935.62,-200.12"/>
<text text-anchor="middle" x="878.88" y="-186.62" font-family="Helvetica,sans-Serif" font-size="10.00">math::Vector3D::dot</text>
</a>
</g>
</g>
<!-- Node15&#45;&gt;Node16 -->
<g id="edge16_Node000015_Node000016" class="edge">
<title>Node15&#45;&gt;Node16</title>
<g id="a_edge16_Node000015_Node000016"><a xlink:title=" ">
<path fill="none" stroke="#63b8ff" d="M779.37,-178.64C789.84,-179.82 800.61,-181.04 811.01,-182.21"/>
<polygon fill="#63b8ff" stroke="#63b8ff" points="810.36,-185.77 820.69,-183.41 811.15,-178.82 810.36,-185.77"/>
</a>
</g>
</g>
<!-- Node15&#45;&gt;Node17 -->
<g id="edge17_Node000015_Node000017" class="edge">
<title>Node15&#45;&gt;Node17</title>
<g id="a_edge17_Node000015_Node000017"><a xlink:title=" ">
<path fill="none" stroke="#63b8ff" d="M779.33,-159.08C836.39,-149.56 916.85,-136.13 975.39,-126.37"/>
<polygon fill="#63b8ff" stroke="#63b8ff" points="975.76,-129.68 985.05,-124.59 974.61,-122.78 975.76,-129.68"/>
</a>
</g>
</g>
<!-- Node19 -->
<g id="Node000019" class="node">
<title>Node19</title>
<g id="a_Node000019"><a xlink:href="classraytracer_1_1Camera.html#a8afe32e5da7b2f482ab823a45ef428c0" target="_top" xlink:title="Calcule la direction d’un rayon depuis la caméra vers un point de l&#39;écran.">
<polygon fill="white" stroke="#666666" points="934.12,-85.5 823.62,-85.5 823.62,-52 934.12,-52 934.12,-85.5"/>
<text text-anchor="start" x="831.62" y="-72" font-family="Helvetica,sans-Serif" font-size="10.00">raytracer::Camera::</text>
<text text-anchor="middle" x="878.88" y="-59.25" font-family="Helvetica,sans-Serif" font-size="10.00">calculateDirection</text>
</a>
</g>
</g>
<!-- Node18&#45;&gt;Node19 -->
<g id="edge20_Node000018_Node000019" class="edge">
<title>Node18&#45;&gt;Node19</title>
<g id="a_edge20_Node000018_Node000019"><a xlink:title=" ">
<path fill="none" stroke="#63b8ff" d="M771.64,-68.75C785.03,-68.75 799.21,-68.75 812.71,-68.75"/>
<polygon fill="#63b8ff" stroke="#63b8ff" points="812.36,-72.25 822.36,-68.75 812.36,-65.25 812.36,-72.25"/>
</a>
</g>
</g>
<!-- Node20 -->
<g id="Node000020" class="node">
<title>Node20</title>
<g id="a_Node000020"><a xlink:href="classraytracer_1_1Camera.html#a94d16e4d450ae1cfbb908623768561b3" target="_top" xlink:title="Calcule la position 3D sur le plan de l&#39;écran à partir des coordonnées (u, v).">
<polygon fill="white" stroke="#666666" points="934.12,-33.5 823.62,-33.5 823.62,0 934.12,0 934.12,-33.5"/>
<text text-anchor="start" x="831.62" y="-20" font-family="Helvetica,sans-Serif" font-size="10.00">raytracer::Camera::</text>
<text text-anchor="middle" x="878.88" y="-7.25" font-family="Helvetica,sans-Serif" font-size="10.00">calculateScreenPos</text>
</a>
</g>
</g>
<!-- Node18&#45;&gt;Node20 -->
<g id="edge22_Node000018_Node000020" class="edge">
<title>Node18&#45;&gt;Node20</title>
<g id="a_edge22_Node000018_Node000020"><a xlink:title=" ">
<path fill="none" stroke="#63b8ff" d="M744.29,-57.98C764.19,-51.83 789.76,-43.94 813.19,-36.71"/>
<polygon fill="#63b8ff" stroke="#63b8ff" points="813.91,-39.84 822.43,-33.55 811.84,-33.16 813.91,-39.84"/>
</a>
</g>
</g>
<!-- Node19&#45;&gt;Node17 -->
<g id="edge21_Node000019_Node000017" class="edge">
<title>Node19&#45;&gt;Node17</title>
<g id="a_edge21_Node000019_Node000017"><a xlink:title=" ">
<path fill="none" stroke="#63b8ff" d="M934.49,-83.11C955.31,-88.59 978.96,-94.81 999.49,-100.2"/>
<polygon fill="#63b8ff" stroke="#63b8ff" points="998.35,-103.79 1008.91,-102.94 1000.13,-97.02 998.35,-103.79"/>
</a>
</g>
</g>
<!-- Node21 -->
<g id="Node000021" class="node">
<title>Node21</title>
<g id="a_Node000021"><a xlink:href="classraytracer_1_1Rectangle3D.html#a1076e494c43ceb9b232a87ec150b2044" target="_top" xlink:title=" ">
<polygon fill="white" stroke="#666666" points="1116.25,-33.5 987.75,-33.5 987.75,0 1116.25,0 1116.25,-33.5"/>
<text text-anchor="start" x="995.75" y="-20" font-family="Helvetica,sans-Serif" font-size="10.00">raytracer::Rectangle3D</text>
<text text-anchor="middle" x="1052" y="-7.25" font-family="Helvetica,sans-Serif" font-size="10.00">::pointAt</text>
</a>
</g>
</g>
<!-- Node20&#45;&gt;Node21 -->
<g id="edge23_Node000020_Node000021" class="edge">
<title>Node20&#45;&gt;Node21</title>
<g id="a_edge23_Node000020_Node000021"><a xlink:title=" ">
<path fill="none" stroke="#63b8ff" d="M934.49,-16.75C947.9,-16.75 962.48,-16.75 976.64,-16.75"/>
<polygon fill="#63b8ff" stroke="#63b8ff" points="976.36,-20.25 986.36,-16.75 976.36,-13.25 976.36,-20.25"/>
</a>
</g>
</g>
</g>
</svg>
