<?xml version="1.0" encoding="UTF-8" standalone="no"?>
<!DOCTYPE svg PUBLIC "-//W3C//DTD SVG 1.1//EN"
 "http://www.w3.org/Graphics/SVG/1.1/DTD/svg11.dtd">
<!-- Generated by graphviz version 8.1.0 (20230707.0739)
 -->
<!-- Title: src/core/math/Math.hpp Pages: 1 -->
<svg width="140pt" height="86pt"
 viewBox="0.00 0.00 139.50 85.50" xmlns="http://www.w3.org/2000/svg" xmlns:xlink="http://www.w3.org/1999/xlink">
<g id="graph0" class="graph" transform="scale(1 1) rotate(0) translate(4 81.5)">
<title>src/core/math/Math.hpp</title>
<!-- Node1 -->
<g id="Node000001" class="node">
<title>Node1</title>
<g id="a_Node000001"><a xlink:title=" ">
<polygon fill="#999999" stroke="#666666" points="131.5,-77.5 0,-77.5 0,-56.75 131.5,-56.75 131.5,-77.5"/>
<text text-anchor="middle" x="65.75" y="-64" font-family="Helvetica,sans-Serif" font-size="10.00">src/core/math/Math.hpp</text>
</a>
</g>
</g>
<!-- Node2 -->
<g id="Node000002" class="node">
<title>Node2</title>
<g id="a_Node000002"><a xlink:title=" ">
<polygon fill="#e0e0e0" stroke="#999999" points="60.5,-20.75 1,-20.75 1,0 60.5,0 60.5,-20.75"/>
<text text-anchor="middle" x="30.75" y="-7.25" font-family="Helvetica,sans-Serif" font-size="10.00">iostream</text>
</a>
</g>
</g>
<!-- Node1&#45;&gt;Node2 -->
<g id="edge1_Node000001_Node000002" class="edge">
<title>Node1&#45;&gt;Node2</title>
<g id="a_edge1_Node000001_Node000002"><a xlink:title=" ">
<path fill="none" stroke="#63b8ff" d="M59.49,-56.34C54.86,-49.1 48.42,-39.01 42.8,-30.22"/>
<polygon fill="#63b8ff" stroke="#63b8ff" points="45.29,-28.62 36.95,-22.08 39.39,-32.39 45.29,-28.62"/>
</a>
</g>
</g>
<!-- Node3 -->
<g id="Node000003" class="node">
<title>Node3</title>
<g id="a_Node000003"><a xlink:title=" ">
<polygon fill="#e0e0e0" stroke="#999999" points="125.12,-20.75 78.38,-20.75 78.38,0 125.12,0 125.12,-20.75"/>
<text text-anchor="middle" x="101.75" y="-7.25" font-family="Helvetica,sans-Serif" font-size="10.00">cmath</text>
</a>
</g>
</g>
<!-- Node1&#45;&gt;Node3 -->
<g id="edge2_Node000001_Node000003" class="edge">
<title>Node1&#45;&gt;Node3</title>
<g id="a_edge2_Node000001_Node000003"><a xlink:title=" ">
<path fill="none" stroke="#63b8ff" d="M72.19,-56.34C76.95,-49.1 83.58,-39.01 89.36,-30.22"/>
<polygon fill="#63b8ff" stroke="#63b8ff" points="92.8,-32.36 95.37,-22.08 86.95,-28.51 92.8,-32.36"/>
</a>
</g>
</g>
</g>
</svg>
