<?xml version="1.0" encoding="UTF-8" standalone="no"?>
<!DOCTYPE svg PUBLIC "-//W3C//DTD SVG 1.1//EN"
 "http://www.w3.org/Graphics/SVG/1.1/DTD/svg11.dtd">
<!-- Generated by graphviz version 8.1.0 (20230707.0739)
 -->
<!-- Title: src/core/math/Math.hpp Pages: 1 -->
<svg width="1467pt" height="616pt"
 viewBox="0.00 0.00 1467.25 616.00" xmlns="http://www.w3.org/2000/svg" xmlns:xlink="http://www.w3.org/1999/xlink">
<g id="graph0" class="graph" transform="scale(1 1) rotate(0) translate(4 612)">
<title>src/core/math/Math.hpp</title>
<!-- Node1 -->
<g id="Node000001" class="node">
<title>Node1</title>
<g id="a_Node000001"><a xlink:title=" ">
<polygon fill="#999999" stroke="#666666" points="396.5,-608 265,-608 265,-587.25 396.5,-587.25 396.5,-608"/>
<text text-anchor="middle" x="330.75" y="-594.5" font-family="Helvetica,sans-Serif" font-size="10.00">src/core/math/Math.hpp</text>
</a>
</g>
</g>
<!-- Node2 -->
<g id="Node000002" class="node">
<title>Node2</title>
<g id="a_Node000002"><a xlink:href="Camera_8cpp.html" target="_top" xlink:title=" ">
<polygon fill="white" stroke="#666666" points="131.5,-418.62 0,-418.62 0,-397.88 131.5,-397.88 131.5,-418.62"/>
<text text-anchor="middle" x="65.75" y="-405.12" font-family="Helvetica,sans-Serif" font-size="10.00">src/camera/Camera.cpp</text>
</a>
</g>
</g>
<!-- Node1&#45;&gt;Node2 -->
<g id="edge1_Node000001_Node000002" class="edge">
<title>Node1&#45;&gt;Node2</title>
<g id="a_edge1_Node000001_Node000002"><a xlink:title=" ">
<path fill="none" stroke="#63b8ff" d="M253.74,-592.13C190.43,-586.74 107.57,-575.23 84.75,-551.25 49.25,-513.96 58.74,-444.13 63.67,-418.77"/>
<polygon fill="#63b8ff" stroke="#63b8ff" points="253.27,-595.68 263.52,-593 253.84,-588.7 253.27,-595.68"/>
</a>
</g>
</g>
<!-- Node3 -->
<g id="Node000003" class="node">
<title>Node3</title>
<g id="a_Node000003"><a xlink:href="Ray_8hpp.html" target="_top" xlink:title=" ">
<polygon fill="white" stroke="#666666" points="398,-544.88 263.5,-544.88 263.5,-524.12 398,-524.12 398,-544.88"/>
<text text-anchor="middle" x="330.75" y="-531.38" font-family="Helvetica,sans-Serif" font-size="10.00">src/core/helpers/Ray.hpp</text>
</a>
</g>
</g>
<!-- Node1&#45;&gt;Node3 -->
<g id="edge2_Node000001_Node000003" class="edge">
<title>Node1&#45;&gt;Node3</title>
<g id="a_edge2_Node000001_Node000003"><a xlink:title=" ">
<path fill="none" stroke="#63b8ff" d="M330.75,-576.04C330.75,-565.58 330.75,-553.36 330.75,-545.09"/>
<polygon fill="#63b8ff" stroke="#63b8ff" points="327.25,-575.8 330.75,-585.8 334.25,-575.8 327.25,-575.8"/>
</a>
</g>
</g>
<!-- Node16 -->
<g id="Node000016" class="node">
<title>Node16</title>
<g id="a_Node000016"><a xlink:href="IPrimitive_8hpp.html" target="_top" xlink:title=" ">
<polygon fill="white" stroke="#666666" points="1011.75,-481.75 857.75,-481.75 857.75,-461 1011.75,-461 1011.75,-481.75"/>
<text text-anchor="middle" x="934.75" y="-468.25" font-family="Helvetica,sans-Serif" font-size="10.00">src/primitives/IPrimitive.hpp</text>
</a>
</g>
</g>
<!-- Node1&#45;&gt;Node16 -->
<g id="edge71_Node000001_Node000016" class="edge">
<title>Node1&#45;&gt;Node16</title>
<g id="a_edge71_Node000001_Node000016"><a xlink:title=" ">
<path fill="none" stroke="#63b8ff" d="M392.97,-584.73C439.71,-575.73 505.3,-562.96 562.75,-551.25 680.81,-527.19 819.6,-497.35 889.56,-482.2"/>
<polygon fill="#63b8ff" stroke="#63b8ff" points="392.56,-581.44 383.4,-586.77 393.88,-588.31 392.56,-581.44"/>
</a>
</g>
</g>
<!-- Node35 -->
<g id="Node000035" class="node">
<title>Node35</title>
<g id="a_Node000035"><a xlink:href="Rectangle3D_8hpp.html" target="_top" xlink:title=" ">
<polygon fill="white" stroke="#666666" points="245.25,-551.25 94.25,-551.25 94.25,-517.75 245.25,-517.75 245.25,-551.25"/>
<text text-anchor="start" x="102.25" y="-537.75" font-family="Helvetica,sans-Serif" font-size="10.00">src/core/helpers/Rectangle3</text>
<text text-anchor="middle" x="169.75" y="-525" font-family="Helvetica,sans-Serif" font-size="10.00">D.hpp</text>
</a>
</g>
</g>
<!-- Node1&#45;&gt;Node35 -->
<g id="edge65_Node000001_Node000035" class="edge">
<title>Node1&#45;&gt;Node35</title>
<g id="a_edge65_Node000001_Node000035"><a xlink:title=" ">
<path fill="none" stroke="#63b8ff" d="M294.65,-582.92C270.32,-573.68 238.12,-561.46 212.51,-551.73"/>
<polygon fill="#63b8ff" stroke="#63b8ff" points="293.29,-586.53 303.88,-586.8 295.78,-579.98 293.29,-586.53"/>
</a>
</g>
</g>
<!-- Node36 -->
<g id="Node000036" class="node">
<title>Node36</title>
<g id="a_Node000036"><a xlink:href="Matrix_8hpp.html" target="_top" xlink:title=" ">
<polygon fill="white" stroke="#666666" points="553.88,-544.88 415.62,-544.88 415.62,-524.12 553.88,-524.12 553.88,-544.88"/>
<text text-anchor="middle" x="484.75" y="-531.38" font-family="Helvetica,sans-Serif" font-size="10.00">src/core/math/Matrix.hpp</text>
</a>
</g>
</g>
<!-- Node1&#45;&gt;Node36 -->
<g id="edge68_Node000001_Node000036" class="edge">
<title>Node1&#45;&gt;Node36</title>
<g id="a_edge68_Node000001_Node000036"><a xlink:title=" ">
<path fill="none" stroke="#63b8ff" d="M365.53,-582.82C394.32,-571.39 434.5,-555.45 460.07,-545.3"/>
<polygon fill="#63b8ff" stroke="#63b8ff" points="364.5,-579.86 356.49,-586.8 367.08,-586.37 364.5,-579.86"/>
</a>
</g>
</g>
<!-- Node3&#45;&gt;Node2 -->
<g id="edge3_Node000003_Node000002" class="edge">
<title>Node3&#45;&gt;Node2</title>
<g id="a_edge3_Node000003_Node000002"><a xlink:title=" ">
<path fill="none" stroke="#63b8ff" d="M271.85,-521.07C238.18,-512.64 195.8,-499.72 160.75,-481.75 143.03,-472.66 98.45,-436.43 77.27,-418.87"/>
<polygon fill="#63b8ff" stroke="#63b8ff" points="270.92,-524.69 281.46,-523.65 272.57,-517.89 270.92,-524.69"/>
</a>
</g>
</g>
<!-- Node4 -->
<g id="Node000004" class="node">
<title>Node4</title>
<g id="a_Node000004"><a xlink:href="Camera_8hpp.html" target="_top" xlink:title=" ">
<polygon fill="white" stroke="#666666" points="301.88,-481.75 169.62,-481.75 169.62,-461 301.88,-461 301.88,-481.75"/>
<text text-anchor="middle" x="235.75" y="-468.25" font-family="Helvetica,sans-Serif" font-size="10.00">src/camera/Camera.hpp</text>
</a>
</g>
</g>
<!-- Node3&#45;&gt;Node4 -->
<g id="edge4_Node000003_Node000004" class="edge">
<title>Node3&#45;&gt;Node4</title>
<g id="a_edge4_Node000003_Node000004"><a xlink:title=" ">
<path fill="none" stroke="#63b8ff" d="M306.43,-517.85C288.95,-506.61 265.92,-491.79 250.98,-482.17"/>
<polygon fill="#63b8ff" stroke="#63b8ff" points="304.18,-521.21 314.49,-523.68 307.97,-515.32 304.18,-521.21"/>
</a>
</g>
</g>
<!-- Node3&#45;&gt;Node16 -->
<g id="edge22_Node000003_Node000016" class="edge">
<title>Node3&#45;&gt;Node16</title>
<g id="a_edge22_Node000003_Node000016"><a xlink:title=" ">
<path fill="none" stroke="#63b8ff" d="M384.15,-521.6C391.71,-520.16 399.41,-518.82 406.75,-517.75 566.07,-494.48 754.3,-481.82 857.47,-476.14"/>
<polygon fill="#63b8ff" stroke="#63b8ff" points="383.73,-518.32 374.6,-523.69 385.09,-525.18 383.73,-518.32"/>
</a>
</g>
</g>
<!-- Node4&#45;&gt;Node2 -->
<g id="edge10_Node000004_Node000002" class="edge">
<title>Node4&#45;&gt;Node2</title>
<g id="a_edge10_Node000004_Node000002"><a xlink:title=" ">
<path fill="none" stroke="#63b8ff" d="M198.19,-456.87C166.36,-445.42 121.47,-429.29 93,-419.05"/>
<polygon fill="#63b8ff" stroke="#63b8ff" points="196.84,-460.46 207.44,-460.55 199.21,-453.88 196.84,-460.46"/>
</a>
</g>
</g>
<!-- Node5 -->
<g id="Node000005" class="node">
<title>Node5</title>
<g id="a_Node000005"><a xlink:href="paser_2Scene_8hpp.html" target="_top" xlink:title=" ">
<polygon fill="white" stroke="#666666" points="359.88,-349.12 263.62,-349.12 263.62,-328.38 359.88,-328.38 359.88,-349.12"/>
<text text-anchor="middle" x="311.75" y="-335.62" font-family="Helvetica,sans-Serif" font-size="10.00">paser/Scene.hpp</text>
</a>
</g>
</g>
<!-- Node4&#45;&gt;Node5 -->
<g id="edge5_Node000004_Node000005" class="edge">
<title>Node4&#45;&gt;Node5</title>
<g id="a_edge5_Node000004_Node000005"><a xlink:title=" ">
<path fill="none" stroke="#63b8ff" d="M246.85,-451.29C263.34,-422.95 293.71,-370.76 306.18,-349.33"/>
<polygon fill="#63b8ff" stroke="#63b8ff" points="243.47,-449.15 241.46,-459.56 249.52,-452.67 243.47,-449.15"/>
</a>
</g>
</g>
<!-- Node6 -->
<g id="Node000006" class="node">
<title>Node6</title>
<g id="a_Node000006"><a xlink:href="parse_8cpp.html" target="_top" xlink:title=" ">
<polygon fill="white" stroke="#666666" points="396.38,-210.12 303.12,-210.12 303.12,-189.38 396.38,-189.38 396.38,-210.12"/>
<text text-anchor="middle" x="349.75" y="-196.62" font-family="Helvetica,sans-Serif" font-size="10.00">paser/parse.cpp</text>
</a>
</g>
</g>
<!-- Node4&#45;&gt;Node6 -->
<g id="edge9_Node000004_Node000006" class="edge">
<title>Node4&#45;&gt;Node6</title>
<g id="a_edge9_Node000004_Node000006"><a xlink:title=" ">
<path fill="none" stroke="#63b8ff" d="M227.09,-450.56C210.65,-409.59 180.1,-314.26 221.75,-252.5 239.77,-225.77 274.19,-212.84 302.8,-206.59"/>
<polygon fill="#63b8ff" stroke="#63b8ff" points="224.2,-451.72 231.28,-459.6 230.66,-449.02 224.2,-451.72"/>
</a>
</g>
</g>
<!-- Node8 -->
<g id="Node000008" class="node">
<title>Node8</title>
<g id="a_Node000008"><a xlink:href="src_2core_2scene_2Scene_8hpp.html" target="_top" xlink:title=" ">
<polygon fill="white" stroke="#666666" points="833.25,-140.62 694.25,-140.62 694.25,-119.88 833.25,-119.88 833.25,-140.62"/>
<text text-anchor="middle" x="763.75" y="-127.12" font-family="Helvetica,sans-Serif" font-size="10.00">src/core/scene/Scene.hpp</text>
</a>
</g>
</g>
<!-- Node4&#45;&gt;Node8 -->
<g id="edge11_Node000004_Node000008" class="edge">
<title>Node4&#45;&gt;Node8</title>
<g id="a_edge11_Node000004_Node000008"><a xlink:title=" ">
<path fill="none" stroke="#63b8ff" d="M217.57,-453.03C195.09,-429.63 159.75,-385.55 159.75,-339.75 159.75,-339.75 159.75,-339.75 159.75,-268.25 159.75,-159.78 534.88,-137.19 693.87,-132.49"/>
<polygon fill="#63b8ff" stroke="#63b8ff" points="214.65,-455.06 224.18,-459.69 219.61,-450.13 214.65,-455.06"/>
</a>
</g>
</g>
<!-- Node14 -->
<g id="Node000014" class="node">
<title>Node14</title>
<g id="a_Node000014"><a xlink:href="Parser_8hpp.html" target="_top" xlink:title=" ">
<polygon fill="white" stroke="#666666" points="885.38,-210.12 768.12,-210.12 768.12,-189.38 885.38,-189.38 885.38,-210.12"/>
<text text-anchor="middle" x="826.75" y="-196.62" font-family="Helvetica,sans-Serif" font-size="10.00">src/parser/Parser.hpp</text>
</a>
</g>
</g>
<!-- Node4&#45;&gt;Node14 -->
<g id="edge17_Node000004_Node000014" class="edge">
<title>Node4&#45;&gt;Node14</title>
<g id="a_edge17_Node000004_Node000014"><a xlink:title=" ">
<path fill="none" stroke="#63b8ff" d="M234.06,-449.95C232.49,-420.06 233.06,-363.46 254.75,-322 276.12,-281.15 289.45,-270.84 331.75,-252.5 419.11,-214.61 664.68,-231.28 758.75,-216.5 768.57,-214.96 779.07,-212.79 788.82,-210.55"/>
<polygon fill="#63b8ff" stroke="#63b8ff" points="230.61,-449.93 234.77,-459.67 237.6,-449.46 230.61,-449.93"/>
</a>
</g>
</g>
<!-- Node5&#45;&gt;Node6 -->
<g id="edge6_Node000005_Node000006" class="edge">
<title>Node5&#45;&gt;Node6</title>
<g id="a_edge6_Node000005_Node000006"><a xlink:title=" ">
<path fill="none" stroke="#63b8ff" d="M315.9,-317.38C319.59,-300.01 325.38,-274.44 331.75,-252.5 336.05,-237.7 342.11,-220.91 345.99,-210.57"/>
<polygon fill="#63b8ff" stroke="#63b8ff" points="312.31,-316.44 313.7,-326.95 319.17,-317.87 312.31,-316.44"/>
</a>
</g>
</g>
<!-- Node7 -->
<g id="Node000007" class="node">
<title>Node7</title>
<g id="a_Node000007"><a xlink:href="parse_8hpp.html" target="_top" xlink:title=" ">
<polygon fill="white" stroke="#666666" points="434.75,-279.62 340.75,-279.62 340.75,-258.88 434.75,-258.88 434.75,-279.62"/>
<text text-anchor="middle" x="387.75" y="-266.12" font-family="Helvetica,sans-Serif" font-size="10.00">paser/parse.hpp</text>
</a>
</g>
</g>
<!-- Node5&#45;&gt;Node7 -->
<g id="edge7_Node000005_Node000007" class="edge">
<title>Node5&#45;&gt;Node7</title>
<g id="a_edge7_Node000005_Node000007"><a xlink:title=" ">
<path fill="none" stroke="#63b8ff" d="M330.49,-321.11C344.97,-308.25 364.53,-290.87 376.63,-280.12"/>
<polygon fill="#63b8ff" stroke="#63b8ff" points="328.79,-317.82 323.64,-327.08 333.44,-323.06 328.79,-317.82"/>
</a>
</g>
</g>
<!-- Node7&#45;&gt;Node6 -->
<g id="edge8_Node000007_Node000006" class="edge">
<title>Node7&#45;&gt;Node6</title>
<g id="a_edge8_Node000007_Node000006"><a xlink:title=" ">
<path fill="none" stroke="#63b8ff" d="M377.11,-249.35C369.98,-236.68 360.88,-220.52 355.18,-210.4"/>
<polygon fill="#63b8ff" stroke="#63b8ff" points="374.35,-250.58 382.31,-257.58 380.45,-247.15 374.35,-250.58"/>
</a>
</g>
</g>
<!-- Node9 -->
<g id="Node000009" class="node">
<title>Node9</title>
<g id="a_Node000009"><a xlink:href="RayTracer_8hpp.html" target="_top" xlink:title=" ">
<polygon fill="white" stroke="#666666" points="976.5,-77.5 851,-77.5 851,-56.75 976.5,-56.75 976.5,-77.5"/>
<text text-anchor="middle" x="913.75" y="-64" font-family="Helvetica,sans-Serif" font-size="10.00">src/core/RayTracer.hpp</text>
</a>
</g>
</g>
<!-- Node8&#45;&gt;Node9 -->
<g id="edge12_Node000008_Node000009" class="edge">
<title>Node8&#45;&gt;Node9</title>
<g id="a_edge12_Node000008_Node000009"><a xlink:title=" ">
<path fill="none" stroke="#63b8ff" d="M798,-115.29C826.01,-103.88 864.91,-88.03 889.71,-77.92"/>
<polygon fill="#63b8ff" stroke="#63b8ff" points="796.79,-112.41 788.85,-119.43 799.43,-118.9 796.79,-112.41"/>
</a>
</g>
</g>
<!-- Node12 -->
<g id="Node000012" class="node">
<title>Node12</title>
<g id="a_Node000012"><a xlink:href="Image_8cpp.html" target="_top" xlink:title="Implémentation des méthodes de la classe Image pour gestion d&#39;image et affichage.">
<polygon fill="white" stroke="#666666" points="676.62,-77.5 536.88,-77.5 536.88,-56.75 676.62,-56.75 676.62,-77.5"/>
<text text-anchor="middle" x="606.75" y="-64" font-family="Helvetica,sans-Serif" font-size="10.00">src/core/scene/Image.cpp</text>
</a>
</g>
</g>
<!-- Node8&#45;&gt;Node12 -->
<g id="edge15_Node000008_Node000012" class="edge">
<title>Node8&#45;&gt;Node12</title>
<g id="a_edge15_Node000008_Node000012"><a xlink:title=" ">
<path fill="none" stroke="#63b8ff" d="M728.29,-115.44C698.94,-104.02 657.98,-88.07 631.91,-77.92"/>
<polygon fill="#63b8ff" stroke="#63b8ff" points="726.94,-119.06 737.53,-119.43 729.48,-112.54 726.94,-119.06"/>
</a>
</g>
</g>
<!-- Node13 -->
<g id="Node000013" class="node">
<title>Node13</title>
<g id="a_Node000013"><a xlink:href="Scene_8cpp.html" target="_top" xlink:title=" ">
<polygon fill="white" stroke="#666666" points="832.88,-77.5 694.62,-77.5 694.62,-56.75 832.88,-56.75 832.88,-77.5"/>
<text text-anchor="middle" x="763.75" y="-64" font-family="Helvetica,sans-Serif" font-size="10.00">src/core/scene/Scene.cpp</text>
</a>
</g>
</g>
<!-- Node8&#45;&gt;Node13 -->
<g id="edge16_Node000008_Node000013" class="edge">
<title>Node8&#45;&gt;Node13</title>
<g id="a_edge16_Node000008_Node000013"><a xlink:title=" ">
<path fill="none" stroke="#63b8ff" d="M763.75,-108.66C763.75,-98.2 763.75,-85.99 763.75,-77.72"/>
<polygon fill="#63b8ff" stroke="#63b8ff" points="760.25,-108.43 763.75,-118.43 767.25,-108.43 760.25,-108.43"/>
</a>
</g>
</g>
<!-- Node10 -->
<g id="Node000010" class="node">
<title>Node10</title>
<g id="a_Node000010"><a xlink:href="Main_8cpp.html" target="_top" xlink:title=" ">
<polygon fill="white" stroke="#666666" points="898.5,-20.75 797,-20.75 797,0 898.5,0 898.5,-20.75"/>
<text text-anchor="middle" x="847.75" y="-7.25" font-family="Helvetica,sans-Serif" font-size="10.00">src/core/Main.cpp</text>
</a>
</g>
</g>
<!-- Node9&#45;&gt;Node10 -->
<g id="edge13_Node000009_Node000010" class="edge">
<title>Node9&#45;&gt;Node10</title>
<g id="a_edge13_Node000009_Node000010"><a xlink:title=" ">
<path fill="none" stroke="#63b8ff" d="M893.6,-49.41C882.42,-40.13 868.9,-28.92 859.45,-21.08"/>
<polygon fill="#63b8ff" stroke="#63b8ff" points="891.02,-52.65 900.95,-56.34 895.49,-47.26 891.02,-52.65"/>
</a>
</g>
</g>
<!-- Node11 -->
<g id="Node000011" class="node">
<title>Node11</title>
<g id="a_Node000011"><a xlink:href="RayTracer_8cpp.html" target="_top" xlink:title=" ">
<polygon fill="white" stroke="#666666" points="1041.12,-20.75 916.38,-20.75 916.38,0 1041.12,0 1041.12,-20.75"/>
<text text-anchor="middle" x="978.75" y="-7.25" font-family="Helvetica,sans-Serif" font-size="10.00">src/core/RayTracer.cpp</text>
</a>
</g>
</g>
<!-- Node9&#45;&gt;Node11 -->
<g id="edge14_Node000009_Node000011" class="edge">
<title>Node9&#45;&gt;Node11</title>
<g id="a_edge14_Node000009_Node000011"><a xlink:title=" ">
<path fill="none" stroke="#63b8ff" d="M933.59,-49.41C944.61,-40.13 957.92,-28.92 967.23,-21.08"/>
<polygon fill="#63b8ff" stroke="#63b8ff" points="931.76,-47.22 926.37,-56.34 936.27,-52.57 931.76,-47.22"/>
</a>
</g>
</g>
<!-- Node14&#45;&gt;Node8 -->
<g id="edge20_Node000014_Node000008" class="edge">
<title>Node14&#45;&gt;Node8</title>
<g id="a_edge20_Node000014_Node000008"><a xlink:title=" ">
<path fill="none" stroke="#63b8ff" d="M810.5,-181.34C798.49,-168.47 782.58,-151.42 772.76,-140.9"/>
<polygon fill="#63b8ff" stroke="#63b8ff" points="807.34,-183.16 816.72,-188.08 812.46,-178.38 807.34,-183.16"/>
</a>
</g>
</g>
<!-- Node14&#45;&gt;Node9 -->
<g id="edge18_Node000014_Node000009" class="edge">
<title>Node14&#45;&gt;Node9</title>
<g id="a_edge18_Node000014_Node000009"><a xlink:title=" ">
<path fill="none" stroke="#63b8ff" d="M838.28,-179.78C848.99,-162.36 865.53,-135.91 880.75,-113.5 889.29,-100.93 899.68,-86.83 906.49,-77.73"/>
<polygon fill="#63b8ff" stroke="#63b8ff" points="834.94,-177.54 832.7,-187.9 840.91,-181.2 834.94,-177.54"/>
</a>
</g>
</g>
<!-- Node14&#45;&gt;Node12 -->
<g id="edge19_Node000014_Node000012" class="edge">
<title>Node14&#45;&gt;Node12</title>
<g id="a_edge19_Node000014_Node000012"><a xlink:title=" ">
<path fill="none" stroke="#63b8ff" d="M775.96,-185.93C747.99,-177.47 713.42,-164.67 685.75,-147 655.2,-127.5 627.13,-94.4 614.22,-77.98"/>
<polygon fill="#63b8ff" stroke="#63b8ff" points="774.76,-189.51 785.34,-188.96 776.72,-182.79 774.76,-189.51"/>
</a>
</g>
</g>
<!-- Node15 -->
<g id="Node000015" class="node">
<title>Node15</title>
<g id="a_Node000015"><a xlink:href="Parser_8cpp.html" target="_top" xlink:title="Implémentation des fonctions de parsing des configurations pour la caméra, primitives,...">
<polygon fill="white" stroke="#666666" points="1006,-140.62 889.5,-140.62 889.5,-119.88 1006,-119.88 1006,-140.62"/>
<text text-anchor="middle" x="947.75" y="-127.12" font-family="Helvetica,sans-Serif" font-size="10.00">src/parser/Parser.cpp</text>
</a>
</g>
</g>
<!-- Node14&#45;&gt;Node15 -->
<g id="edge21_Node000014_Node000015" class="edge">
<title>Node14&#45;&gt;Node15</title>
<g id="a_edge21_Node000014_Node000015"><a xlink:title=" ">
<path fill="none" stroke="#63b8ff" d="M853.68,-183.73C876.99,-170.72 910.05,-152.28 930.13,-141.08"/>
<polygon fill="#63b8ff" stroke="#63b8ff" points="852.37,-181.01 845.34,-188.93 855.78,-187.12 852.37,-181.01"/>
</a>
</g>
</g>
<!-- Node17 -->
<g id="Node000017" class="node">
<title>Node17</title>
<g id="a_Node000017"><a xlink:href="Factory_8hpp.html" target="_top" xlink:title=" ">
<polygon fill="white" stroke="#666666" points="1189.38,-216.5 1060.12,-216.5 1060.12,-183 1189.38,-183 1189.38,-216.5"/>
<text text-anchor="start" x="1068.12" y="-203" font-family="Helvetica,sans-Serif" font-size="10.00">src/core/designPatterns</text>
<text text-anchor="middle" x="1124.75" y="-190.25" font-family="Helvetica,sans-Serif" font-size="10.00">/Factory.hpp</text>
</a>
</g>
</g>
<!-- Node16&#45;&gt;Node17 -->
<g id="edge23_Node000016_Node000017" class="edge">
<title>Node16&#45;&gt;Node17</title>
<g id="a_edge23_Node000016_Node000017"><a xlink:title=" ">
<path fill="none" stroke="#63b8ff" d="M1022.72,-464.75C1110.47,-458.1 1238.54,-445.31 1283.75,-425 1369.67,-386.39 1404.67,-371.71 1443.75,-286 1449.93,-272.45 1453.48,-263.77 1443.75,-252.5 1407.78,-210.86 1252.91,-226.23 1198.75,-216.5 1195.78,-215.97 1192.74,-215.4 1189.68,-214.81"/>
<polygon fill="#63b8ff" stroke="#63b8ff" points="1022.67,-461.32 1012.96,-465.55 1023.19,-468.3 1022.67,-461.32"/>
</a>
</g>
</g>
<!-- Node19 -->
<g id="Node000019" class="node">
<title>Node19</title>
<g id="a_Node000019"><a xlink:href="World_8hpp.html" target="_top" xlink:title=" ">
<polygon fill="white" stroke="#666666" points="1216.25,-418.62 1071.25,-418.62 1071.25,-397.88 1216.25,-397.88 1216.25,-418.62"/>
<text text-anchor="middle" x="1143.75" y="-405.12" font-family="Helvetica,sans-Serif" font-size="10.00">src/core/helpers/World.hpp</text>
</a>
</g>
</g>
<!-- Node16&#45;&gt;Node19 -->
<g id="edge26_Node000016_Node000019" class="edge">
<title>Node16&#45;&gt;Node19</title>
<g id="a_edge26_Node000016_Node000019"><a xlink:title=" ">
<path fill="none" stroke="#63b8ff" d="M978.65,-457.53C1017.9,-446.06 1074.56,-429.49 1110.25,-419.05"/>
<polygon fill="#63b8ff" stroke="#63b8ff" points="977.94,-454.39 969.33,-460.55 979.91,-461.11 977.94,-454.39"/>
</a>
</g>
</g>
<!-- Node20 -->
<g id="Node000020" class="node">
<title>Node20</title>
<g id="a_Node000020"><a xlink:href="ILight_8hpp.html" target="_top" xlink:title=" ">
<polygon fill="white" stroke="#666666" points="1213.38,-349.12 1102.12,-349.12 1102.12,-328.38 1213.38,-328.38 1213.38,-349.12"/>
<text text-anchor="middle" x="1157.75" y="-335.62" font-family="Helvetica,sans-Serif" font-size="10.00">src/lights/ILight.hpp</text>
</a>
</g>
</g>
<!-- Node16&#45;&gt;Node20 -->
<g id="edge38_Node000016_Node000020" class="edge">
<title>Node16&#45;&gt;Node20</title>
<g id="a_edge38_Node000016_Node000020"><a xlink:title=" ">
<path fill="none" stroke="#63b8ff" d="M958.93,-454.94C984.49,-438.75 1026.11,-412.75 1062.75,-391.5 1088.91,-376.33 1119.74,-359.77 1139.02,-349.57"/>
<polygon fill="#63b8ff" stroke="#63b8ff" points="957.52,-452.32 950.96,-460.64 961.28,-458.23 957.52,-452.32"/>
</a>
</g>
</g>
<!-- Node25 -->
<g id="Node000025" class="node">
<title>Node25</title>
<g id="a_Node000025"><a xlink:href="Cone_8hpp.html" target="_top" xlink:title=" ">
<polygon fill="white" stroke="#666666" points="1434.25,-286 1325.25,-286 1325.25,-252.5 1434.25,-252.5 1434.25,-286"/>
<text text-anchor="start" x="1333.25" y="-272.5" font-family="Helvetica,sans-Serif" font-size="10.00">src/primitives/cone</text>
<text text-anchor="middle" x="1379.75" y="-259.75" font-family="Helvetica,sans-Serif" font-size="10.00">/Cone.hpp</text>
</a>
</g>
</g>
<!-- Node16&#45;&gt;Node25 -->
<g id="edge39_Node000016_Node000025" class="edge">
<title>Node16&#45;&gt;Node25</title>
<g id="a_edge39_Node000016_Node000025"><a xlink:title=" ">
<path fill="none" stroke="#63b8ff" d="M1022.89,-464.62C1101.91,-458.21 1211.02,-445.9 1248.75,-425 1309.1,-391.57 1353.83,-318.62 1371.48,-286.26"/>
<polygon fill="#63b8ff" stroke="#63b8ff" points="1022.65,-461.21 1012.95,-465.49 1023.2,-468.19 1022.65,-461.21"/>
</a>
</g>
</g>
<!-- Node27 -->
<g id="Node000027" class="node">
<title>Node27</title>
<g id="a_Node000027"><a xlink:href="Cylinder_8hpp.html" target="_top" xlink:title=" ">
<polygon fill="white" stroke="#666666" points="1307.12,-286 1182.38,-286 1182.38,-252.5 1307.12,-252.5 1307.12,-286"/>
<text text-anchor="start" x="1190.38" y="-272.5" font-family="Helvetica,sans-Serif" font-size="10.00">src/primitives/cylinder</text>
<text text-anchor="middle" x="1244.75" y="-259.75" font-family="Helvetica,sans-Serif" font-size="10.00">/Cylinder.hpp</text>
</a>
</g>
</g>
<!-- Node16&#45;&gt;Node27 -->
<g id="edge43_Node000016_Node000027" class="edge">
<title>Node16&#45;&gt;Node27</title>
<g id="a_edge43_Node000016_Node000027"><a xlink:title=" ">
<path fill="none" stroke="#63b8ff" d="M1022.89,-468.01C1098.1,-464.02 1198.29,-453.36 1225.75,-425 1262.27,-387.27 1254.35,-317.85 1248.37,-286.44"/>
<polygon fill="#63b8ff" stroke="#63b8ff" points="1022.8,-464.56 1012.99,-468.55 1023.15,-471.55 1022.8,-464.56"/>
</a>
</g>
</g>
<!-- Node29 -->
<g id="Node000029" class="node">
<title>Node29</title>
<g id="a_Node000029"><a xlink:href="Plane_8hpp.html" target="_top" xlink:title=" ">
<polygon fill="white" stroke="#666666" points="669.12,-425 556.38,-425 556.38,-391.5 669.12,-391.5 669.12,-425"/>
<text text-anchor="start" x="564.38" y="-411.5" font-family="Helvetica,sans-Serif" font-size="10.00">src/primitives/plane</text>
<text text-anchor="middle" x="612.75" y="-398.75" font-family="Helvetica,sans-Serif" font-size="10.00">/Plane.hpp</text>
</a>
</g>
</g>
<!-- Node16&#45;&gt;Node29 -->
<g id="edge47_Node000016_Node000029" class="edge">
<title>Node16&#45;&gt;Node29</title>
<g id="a_edge47_Node000016_Node000029"><a xlink:title=" ">
<path fill="none" stroke="#63b8ff" d="M872.39,-458.54C813.63,-447.38 726.36,-430.82 669.51,-420.02"/>
<polygon fill="#63b8ff" stroke="#63b8ff" points="871.54,-462.13 882.02,-460.55 872.84,-455.25 871.54,-462.13"/>
</a>
</g>
</g>
<!-- Node33 -->
<g id="Node000033" class="node">
<title>Node33</title>
<g id="a_Node000033"><a xlink:href="Sphere_8hpp.html" target="_top" xlink:title=" ">
<polygon fill="white" stroke="#666666" points="917.12,-425 798.38,-425 798.38,-391.5 917.12,-391.5 917.12,-425"/>
<text text-anchor="start" x="806.38" y="-411.5" font-family="Helvetica,sans-Serif" font-size="10.00">src/primitives/sphere</text>
<text text-anchor="middle" x="857.75" y="-398.75" font-family="Helvetica,sans-Serif" font-size="10.00">/Sphere.hpp</text>
</a>
</g>
</g>
<!-- Node16&#45;&gt;Node33 -->
<g id="edge57_Node000016_Node000033" class="edge">
<title>Node16&#45;&gt;Node33</title>
<g id="a_edge57_Node000016_Node000033"><a xlink:title=" ">
<path fill="none" stroke="#63b8ff" d="M913.77,-453.72C902.71,-444.94 889.19,-434.21 878.2,-425.48"/>
<polygon fill="#63b8ff" stroke="#63b8ff" points="911.37,-457.08 921.38,-460.55 915.72,-451.6 911.37,-457.08"/>
</a>
</g>
</g>
<!-- Node17&#45;&gt;Node8 -->
<g id="edge25_Node000017_Node000008" class="edge">
<title>Node17&#45;&gt;Node8</title>
<g id="a_edge25_Node000017_Node000008"><a xlink:title=" ">
<path fill="none" stroke="#63b8ff" d="M1049.11,-182.51C964.89,-165.99 877.92,-150.71 822.06,-141.12"/>
<polygon fill="#63b8ff" stroke="#63b8ff" points="1048.41,-186.14 1058.9,-184.64 1049.76,-179.27 1048.41,-186.14"/>
</a>
</g>
</g>
<!-- Node18 -->
<g id="Node000018" class="node">
<title>Node18</title>
<g id="a_Node000018"><a xlink:href="Factory_8cpp.html" target="_top" xlink:title=" ">
<polygon fill="white" stroke="#666666" points="1189.38,-147 1060.12,-147 1060.12,-113.5 1189.38,-113.5 1189.38,-147"/>
<text text-anchor="start" x="1068.12" y="-133.5" font-family="Helvetica,sans-Serif" font-size="10.00">src/core/designPatterns</text>
<text text-anchor="middle" x="1124.75" y="-120.75" font-family="Helvetica,sans-Serif" font-size="10.00">/Factory.cpp</text>
</a>
</g>
</g>
<!-- Node17&#45;&gt;Node18 -->
<g id="edge24_Node000017_Node000018" class="edge">
<title>Node17&#45;&gt;Node18</title>
<g id="a_edge24_Node000017_Node000018"><a xlink:title=" ">
<path fill="none" stroke="#63b8ff" d="M1124.75,-171.89C1124.75,-163.5 1124.75,-154.51 1124.75,-147.13"/>
<polygon fill="#63b8ff" stroke="#63b8ff" points="1121.25,-171.75 1124.75,-181.75 1128.25,-171.75 1121.25,-171.75"/>
</a>
</g>
</g>
<!-- Node19&#45;&gt;Node20 -->
<g id="edge27_Node000019_Node000020" class="edge">
<title>Node19&#45;&gt;Node20</title>
<g id="a_edge27_Node000019_Node000020"><a xlink:title=" ">
<path fill="none" stroke="#63b8ff" d="M1141.73,-386.83C1143.34,-374.41 1146.96,-359.12 1150.85,-349.4"/>
<polygon fill="#63b8ff" stroke="#63b8ff" points="1138.18,-386.33 1140.86,-396.58 1145.15,-386.89 1138.18,-386.33"/>
</a>
</g>
</g>
<!-- Node20&#45;&gt;Node17 -->
<g id="edge28_Node000020_Node000017" class="edge">
<title>Node20&#45;&gt;Node17</title>
<g id="a_edge28_Node000020_Node000017"><a xlink:title=" ">
<path fill="none" stroke="#63b8ff" d="M1152.89,-317.56C1146.28,-290.13 1134.6,-241.65 1128.58,-216.65"/>
<polygon fill="#63b8ff" stroke="#63b8ff" points="1149.63,-318 1155.38,-326.9 1156.44,-316.36 1149.63,-318"/>
</a>
</g>
</g>
<!-- Node20&#45;&gt;Node19 -->
<g id="edge29_Node000020_Node000019" class="edge">
<title>Node20&#45;&gt;Node19</title>
<g id="a_edge29_Node000020_Node000019"><a xlink:title=" ">
<path fill="none" stroke="#63b8ff" d="M1159.78,-360.15C1158.17,-372.57 1154.54,-387.85 1150.66,-397.58"/>
<polygon fill="#63b8ff" stroke="#63b8ff" points="1163.33,-360.65 1160.64,-350.4 1156.35,-360.09 1163.33,-360.65"/>
</a>
</g>
</g>
<!-- Node21 -->
<g id="Node000021" class="node">
<title>Node21</title>
<g id="a_Node000021"><a xlink:href="DirectionalLight_8hpp.html" target="_top" xlink:title=" ">
<polygon fill="white" stroke="#666666" points="1050.25,-286 911.25,-286 911.25,-252.5 1050.25,-252.5 1050.25,-286"/>
<text text-anchor="start" x="919.25" y="-272.5" font-family="Helvetica,sans-Serif" font-size="10.00">src/lights/directionalLight</text>
<text text-anchor="middle" x="980.75" y="-259.75" font-family="Helvetica,sans-Serif" font-size="10.00">/DirectionalLight.hpp</text>
</a>
</g>
</g>
<!-- Node20&#45;&gt;Node21 -->
<g id="edge30_Node000020_Node000021" class="edge">
<title>Node20&#45;&gt;Node21</title>
<g id="a_edge30_Node000020_Node000021"><a xlink:title=" ">
<path fill="none" stroke="#63b8ff" d="M1122.07,-324.14C1093.55,-313.27 1053.49,-297.99 1023.3,-286.48"/>
<polygon fill="#63b8ff" stroke="#63b8ff" points="1120.42,-327.64 1131.01,-327.93 1122.92,-321.1 1120.42,-327.64"/>
</a>
</g>
</g>
<!-- Node23 -->
<g id="Node000023" class="node">
<title>Node23</title>
<g id="a_Node000023"><a xlink:href="PointLight_8hpp.html" target="_top" xlink:title=" ">
<polygon fill="white" stroke="#666666" points="892.75,-286 780.75,-286 780.75,-252.5 892.75,-252.5 892.75,-286"/>
<text text-anchor="start" x="788.75" y="-272.5" font-family="Helvetica,sans-Serif" font-size="10.00">src/lights/pointLight</text>
<text text-anchor="middle" x="836.75" y="-259.75" font-family="Helvetica,sans-Serif" font-size="10.00">/PointLight.hpp</text>
</a>
</g>
</g>
<!-- Node20&#45;&gt;Node23 -->
<g id="edge34_Node000020_Node000023" class="edge">
<title>Node20&#45;&gt;Node23</title>
<g id="a_edge34_Node000020_Node000023"><a xlink:title=" ">
<path fill="none" stroke="#63b8ff" d="M1096.18,-325.87C1044.46,-315.73 968.64,-300.54 902.75,-286 899.64,-285.31 896.46,-284.6 893.25,-283.87"/>
<polygon fill="#63b8ff" stroke="#63b8ff" points="1095.36,-329.47 1105.84,-327.95 1096.7,-322.6 1095.36,-329.47"/>
</a>
</g>
</g>
<!-- Node21&#45;&gt;Node14 -->
<g id="edge33_Node000021_Node000014" class="edge">
<title>Node21&#45;&gt;Node14</title>
<g id="a_edge33_Node000021_Node000014"><a xlink:title=" ">
<path fill="none" stroke="#63b8ff" d="M933.81,-247.68C905.65,-235.33 871.14,-220.2 849.04,-210.52"/>
<polygon fill="#63b8ff" stroke="#63b8ff" points="932.3,-251.27 942.86,-252.08 935.11,-244.86 932.3,-251.27"/>
</a>
</g>
</g>
<!-- Node21&#45;&gt;Node17 -->
<g id="edge31_Node000021_Node000017" class="edge">
<title>Node21&#45;&gt;Node17</title>
<g id="a_edge31_Node000021_Node000017"><a xlink:title=" ">
<path fill="none" stroke="#63b8ff" d="M1024.95,-247.53C1046.05,-237.64 1070.91,-225.99 1090.54,-216.79"/>
<polygon fill="#63b8ff" stroke="#63b8ff" points="1023.81,-244.67 1016.24,-252.08 1026.78,-251.01 1023.81,-244.67"/>
</a>
</g>
</g>
<!-- Node22 -->
<g id="Node000022" class="node">
<title>Node22</title>
<g id="a_Node000022"><a xlink:href="DirectionalLight_8cpp.html" target="_top" xlink:title=" ">
<polygon fill="white" stroke="#666666" points="1042.25,-216.5 903.25,-216.5 903.25,-183 1042.25,-183 1042.25,-216.5"/>
<text text-anchor="start" x="911.25" y="-203" font-family="Helvetica,sans-Serif" font-size="10.00">src/lights/directionalLight</text>
<text text-anchor="middle" x="972.75" y="-190.25" font-family="Helvetica,sans-Serif" font-size="10.00">/DirectionalLight.cpp</text>
</a>
</g>
</g>
<!-- Node21&#45;&gt;Node22 -->
<g id="edge32_Node000021_Node000022" class="edge">
<title>Node21&#45;&gt;Node22</title>
<g id="a_edge32_Node000021_Node000022"><a xlink:title=" ">
<path fill="none" stroke="#63b8ff" d="M977.57,-241.39C976.57,-233 975.51,-224.01 974.63,-216.63"/>
<polygon fill="#63b8ff" stroke="#63b8ff" points="974.2,-241.73 978.85,-251.25 981.15,-240.91 974.2,-241.73"/>
</a>
</g>
</g>
<!-- Node23&#45;&gt;Node14 -->
<g id="edge37_Node000023_Node000014" class="edge">
<title>Node23&#45;&gt;Node14</title>
<g id="a_edge37_Node000023_Node000014"><a xlink:title=" ">
<path fill="none" stroke="#63b8ff" d="M832.78,-241.47C831.17,-230.58 829.41,-218.68 828.21,-210.57"/>
<polygon fill="#63b8ff" stroke="#63b8ff" points="829.45,-241.87 834.38,-251.25 836.38,-240.85 829.45,-241.87"/>
</a>
</g>
</g>
<!-- Node23&#45;&gt;Node17 -->
<g id="edge35_Node000023_Node000017" class="edge">
<title>Node23&#45;&gt;Node17</title>
<g id="a_edge35_Node000023_Node000017"><a xlink:title=" ">
<path fill="none" stroke="#63b8ff" d="M903.52,-252.32C962.25,-238.49 1017.9,-225.53 1059.65,-215.83"/>
<polygon fill="#63b8ff" stroke="#63b8ff" points="902.84,-249.12 893.91,-254.83 904.45,-255.94 902.84,-249.12"/>
</a>
</g>
</g>
<!-- Node24 -->
<g id="Node000024" class="node">
<title>Node24</title>
<g id="a_Node000024"><a xlink:href="PointLight_8cpp.html" target="_top" xlink:title=" ">
<polygon fill="white" stroke="#666666" points="749.75,-216.5 637.75,-216.5 637.75,-183 749.75,-183 749.75,-216.5"/>
<text text-anchor="start" x="645.75" y="-203" font-family="Helvetica,sans-Serif" font-size="10.00">src/lights/pointLight</text>
<text text-anchor="middle" x="693.75" y="-190.25" font-family="Helvetica,sans-Serif" font-size="10.00">/PointLight.cpp</text>
</a>
</g>
</g>
<!-- Node23&#45;&gt;Node24 -->
<g id="edge36_Node000023_Node000024" class="edge">
<title>Node23&#45;&gt;Node24</title>
<g id="a_edge36_Node000023_Node000024"><a xlink:title=" ">
<path fill="none" stroke="#63b8ff" d="M792.58,-247.4C771.68,-237.54 747.13,-225.95 727.72,-216.79"/>
<polygon fill="#63b8ff" stroke="#63b8ff" points="790.96,-250.98 801.5,-252.08 793.95,-244.65 790.96,-250.98"/>
</a>
</g>
</g>
<!-- Node25&#45;&gt;Node14 -->
<g id="edge41_Node000025_Node000014" class="edge">
<title>Node25&#45;&gt;Node14</title>
<g id="a_edge41_Node000025_Node000014"><a xlink:title=" ">
<path fill="none" stroke="#63b8ff" d="M1314.37,-252.46C1128.54,-222.83 1076.81,-245.22 894.75,-216.5 885.05,-214.97 874.69,-212.83 865.04,-210.62"/>
<polygon fill="#63b8ff" stroke="#63b8ff" points="1313.62,-256.04 1324.05,-254.19 1314.74,-249.14 1313.62,-256.04"/>
</a>
</g>
</g>
<!-- Node25&#45;&gt;Node17 -->
<g id="edge40_Node000025_Node000017" class="edge">
<title>Node25&#45;&gt;Node17</title>
<g id="a_edge40_Node000025_Node000017"><a xlink:title=" ">
<path fill="none" stroke="#63b8ff" d="M1314.46,-250.97C1274.94,-240.51 1224.85,-227.25 1186.07,-216.98"/>
<polygon fill="#63b8ff" stroke="#63b8ff" points="1313.48,-254.59 1324.05,-253.77 1315.27,-247.83 1313.48,-254.59"/>
</a>
</g>
</g>
<!-- Node26 -->
<g id="Node000026" class="node">
<title>Node26</title>
<g id="a_Node000026"><a xlink:href="Cone_8cpp.html" target="_top" xlink:title=" ">
<polygon fill="white" stroke="#666666" points="1459.25,-216.5 1350.25,-216.5 1350.25,-183 1459.25,-183 1459.25,-216.5"/>
<text text-anchor="start" x="1358.25" y="-203" font-family="Helvetica,sans-Serif" font-size="10.00">src/primitives/cone</text>
<text text-anchor="middle" x="1404.75" y="-190.25" font-family="Helvetica,sans-Serif" font-size="10.00">/Cone.cpp</text>
</a>
</g>
</g>
<!-- Node25&#45;&gt;Node26 -->
<g id="edge42_Node000025_Node000026" class="edge">
<title>Node25&#45;&gt;Node26</title>
<g id="a_edge42_Node000025_Node000026"><a xlink:title=" ">
<path fill="none" stroke="#63b8ff" d="M1389.49,-241.96C1392.66,-233.41 1396.07,-224.18 1398.87,-216.63"/>
<polygon fill="#63b8ff" stroke="#63b8ff" points="1385.87,-240.66 1385.67,-251.25 1392.43,-243.09 1385.87,-240.66"/>
</a>
</g>
</g>
<!-- Node27&#45;&gt;Node14 -->
<g id="edge45_Node000027_Node000014" class="edge">
<title>Node27&#45;&gt;Node14</title>
<g id="a_edge45_Node000027_Node000014"><a xlink:title=" ">
<path fill="none" stroke="#63b8ff" d="M1171.28,-259.14C1100.26,-249.93 989.75,-234.5 894.75,-216.5 885.7,-214.79 876.03,-212.7 866.91,-210.62"/>
<polygon fill="#63b8ff" stroke="#63b8ff" points="1170.54,-262.71 1180.9,-260.51 1171.43,-255.76 1170.54,-262.71"/>
</a>
</g>
</g>
<!-- Node27&#45;&gt;Node17 -->
<g id="edge44_Node000027_Node000017" class="edge">
<title>Node27&#45;&gt;Node17</title>
<g id="a_edge44_Node000027_Node000017"><a xlink:title=" ">
<path fill="none" stroke="#63b8ff" d="M1206.72,-246.86C1189.4,-237.12 1169.25,-225.78 1153.26,-216.79"/>
<polygon fill="#63b8ff" stroke="#63b8ff" points="1204.58,-250.23 1215.01,-252.08 1208.01,-244.13 1204.58,-250.23"/>
</a>
</g>
</g>
<!-- Node28 -->
<g id="Node000028" class="node">
<title>Node28</title>
<g id="a_Node000028"><a xlink:href="Cylinder_8cpp.html" target="_top" xlink:title=" ">
<polygon fill="white" stroke="#666666" points="1332.12,-216.5 1207.38,-216.5 1207.38,-183 1332.12,-183 1332.12,-216.5"/>
<text text-anchor="start" x="1215.38" y="-203" font-family="Helvetica,sans-Serif" font-size="10.00">src/primitives/cylinder</text>
<text text-anchor="middle" x="1269.75" y="-190.25" font-family="Helvetica,sans-Serif" font-size="10.00">/Cylinder.cpp</text>
</a>
</g>
</g>
<!-- Node27&#45;&gt;Node28 -->
<g id="edge46_Node000027_Node000028" class="edge">
<title>Node27&#45;&gt;Node28</title>
<g id="a_edge46_Node000027_Node000028"><a xlink:title=" ">
<path fill="none" stroke="#63b8ff" d="M1254.49,-241.96C1257.66,-233.41 1261.07,-224.18 1263.87,-216.63"/>
<polygon fill="#63b8ff" stroke="#63b8ff" points="1250.87,-240.66 1250.67,-251.25 1257.43,-243.09 1250.87,-240.66"/>
</a>
</g>
</g>
<!-- Node29&#45;&gt;Node5 -->
<g id="edge52_Node000029_Node000005" class="edge">
<title>Node29&#45;&gt;Node5</title>
<g id="a_edge52_Node000029_Node000005"><a xlink:title=" ">
<path fill="none" stroke="#63b8ff" d="M545.56,-393.37C497.58,-383.29 431.57,-369.1 373.75,-355.5 365.86,-353.64 357.43,-351.57 349.4,-349.54"/>
<polygon fill="#63b8ff" stroke="#63b8ff" points="544.62,-396.96 555.12,-395.58 546.05,-390.1 544.62,-396.96"/>
</a>
</g>
</g>
<!-- Node29&#45;&gt;Node7 -->
<g id="edge53_Node000029_Node000007" class="edge">
<title>Node29&#45;&gt;Node7</title>
<g id="a_edge53_Node000029_Node000007"><a xlink:title=" ">
<path fill="none" stroke="#63b8ff" d="M545.39,-398.08C492.96,-389.57 425.97,-375.24 406.75,-355.5 386.55,-334.75 385.91,-297.51 386.9,-279.93"/>
<polygon fill="#63b8ff" stroke="#63b8ff" points="544.58,-401.65 555,-399.75 545.67,-394.74 544.58,-401.65"/>
</a>
</g>
</g>
<!-- Node29&#45;&gt;Node14 -->
<g id="edge55_Node000029_Node000014" class="edge">
<title>Node29&#45;&gt;Node14</title>
<g id="a_edge55_Node000029_Node000014"><a xlink:title=" ">
<path fill="none" stroke="#63b8ff" d="M596.51,-382.11C577.23,-348.75 551.3,-289.77 581.75,-252.5 632.54,-190.34 680.31,-233.56 758.75,-216.5 767.28,-214.65 776.38,-212.59 785.07,-210.59"/>
<polygon fill="#63b8ff" stroke="#63b8ff" points="593.81,-383.42 601.96,-390.19 599.81,-379.81 593.81,-383.42"/>
</a>
</g>
</g>
<!-- Node29&#45;&gt;Node17 -->
<g id="edge54_Node000029_Node000017" class="edge">
<title>Node29&#45;&gt;Node17</title>
<g id="a_edge54_Node000029_Node000017"><a xlink:title=" ">
<path fill="none" stroke="#63b8ff" d="M680.17,-389.48C717.03,-379.66 763.47,-367.13 804.75,-355.5 855.58,-341.18 867.82,-335.98 918.75,-322 981.12,-304.88 1005.82,-321.7 1059.75,-286 1086.29,-268.43 1106.38,-236.3 1116.79,-216.89"/>
<polygon fill="#63b8ff" stroke="#63b8ff" points="679.32,-386.35 670.55,-392.3 681.11,-393.11 679.32,-386.35"/>
</a>
</g>
</g>
<!-- Node30 -->
<g id="Node000030" class="node">
<title>Node30</title>
<g id="a_Node000030"><a xlink:href="Primitive__fact_8cpp.html" target="_top" xlink:title=" ">
<polygon fill="white" stroke="#666666" points="725,-279.62 590.5,-279.62 590.5,-258.88 725,-258.88 725,-279.62"/>
<text text-anchor="middle" x="657.75" y="-266.12" font-family="Helvetica,sans-Serif" font-size="10.00">paser/Primitive_fact.cpp</text>
</a>
</g>
</g>
<!-- Node29&#45;&gt;Node30 -->
<g id="edge48_Node000029_Node000030" class="edge">
<title>Node29&#45;&gt;Node30</title>
<g id="a_edge48_Node000029_Node000030"><a xlink:title=" ">
<path fill="none" stroke="#63b8ff" d="M621.42,-380.85C631.53,-350.07 647.73,-300.75 654.55,-279.98"/>
<polygon fill="#63b8ff" stroke="#63b8ff" points="617.8,-379.67 618,-390.27 624.45,-381.86 617.8,-379.67"/>
</a>
</g>
</g>
<!-- Node31 -->
<g id="Node000031" class="node">
<title>Node31</title>
<g id="a_Node000031"><a xlink:href="Primitive__fact_8hpp.html" target="_top" xlink:title=" ">
<polygon fill="white" stroke="#666666" points="795.38,-349.12 660.12,-349.12 660.12,-328.38 795.38,-328.38 795.38,-349.12"/>
<text text-anchor="middle" x="727.75" y="-335.62" font-family="Helvetica,sans-Serif" font-size="10.00">paser/Primitive_fact.hpp</text>
</a>
</g>
</g>
<!-- Node29&#45;&gt;Node31 -->
<g id="edge49_Node000029_Node000031" class="edge">
<title>Node29&#45;&gt;Node31</title>
<g id="a_edge49_Node000029_Node000031"><a xlink:title=" ">
<path fill="none" stroke="#63b8ff" d="M649.75,-385.53C670.4,-373.41 695.11,-358.91 711.1,-349.52"/>
<polygon fill="#63b8ff" stroke="#63b8ff" points="648.15,-383 641.3,-391.08 651.69,-389.04 648.15,-383"/>
</a>
</g>
</g>
<!-- Node32 -->
<g id="Node000032" class="node">
<title>Node32</title>
<g id="a_Node000032"><a xlink:href="Plane_8cpp.html" target="_top" xlink:title=" ">
<polygon fill="white" stroke="#666666" points="528.12,-355.5 415.38,-355.5 415.38,-322 528.12,-322 528.12,-355.5"/>
<text text-anchor="start" x="423.38" y="-342" font-family="Helvetica,sans-Serif" font-size="10.00">src/primitives/plane</text>
<text text-anchor="middle" x="471.75" y="-329.25" font-family="Helvetica,sans-Serif" font-size="10.00">/Plane.cpp</text>
</a>
</g>
</g>
<!-- Node29&#45;&gt;Node32 -->
<g id="edge56_Node000029_Node000032" class="edge">
<title>Node29&#45;&gt;Node32</title>
<g id="a_edge56_Node000029_Node000032"><a xlink:title=" ">
<path fill="none" stroke="#63b8ff" d="M569.19,-386.4C548.59,-376.54 524.38,-364.95 505.25,-355.79"/>
<polygon fill="#63b8ff" stroke="#63b8ff" points="567.45,-389.92 577.98,-391.08 570.47,-383.61 567.45,-389.92"/>
</a>
</g>
</g>
<!-- Node31&#45;&gt;Node6 -->
<g id="edge51_Node000031_Node000006" class="edge">
<title>Node31&#45;&gt;Node6</title>
<g id="a_edge51_Node000031_Node000006"><a xlink:title=" ">
<path fill="none" stroke="#63b8ff" d="M689.45,-324.31C659.98,-313.94 618.25,-299.17 581.75,-286 507.08,-259.05 419.17,-226.53 376.16,-210.57"/>
<polygon fill="#63b8ff" stroke="#63b8ff" points="688.13,-327.91 698.73,-327.92 690.45,-321.3 688.13,-327.91"/>
</a>
</g>
</g>
<!-- Node31&#45;&gt;Node30 -->
<g id="edge50_Node000031_Node000030" class="edge">
<title>Node31&#45;&gt;Node30</title>
<g id="a_edge50_Node000031_Node000030"><a xlink:title=" ">
<path fill="none" stroke="#63b8ff" d="M710.07,-320.7C696.68,-307.79 678.77,-290.52 667.76,-279.9"/>
<polygon fill="#63b8ff" stroke="#63b8ff" points="707.09,-322.66 716.72,-327.08 711.95,-317.62 707.09,-322.66"/>
</a>
</g>
</g>
<!-- Node33&#45;&gt;Node5 -->
<g id="edge60_Node000033_Node000005" class="edge">
<title>Node33&#45;&gt;Node5</title>
<g id="a_edge60_Node000033_Node000005"><a xlink:title=" ">
<path fill="none" stroke="#63b8ff" d="M787.42,-400.28C698.57,-391.22 541.05,-374.33 406.75,-355.5 391.52,-353.36 374.96,-350.73 360.01,-348.23"/>
<polygon fill="#63b8ff" stroke="#63b8ff" points="786.87,-403.84 797.17,-401.37 787.57,-396.88 786.87,-403.84"/>
</a>
</g>
</g>
<!-- Node33&#45;&gt;Node7 -->
<g id="edge61_Node000033_Node000007" class="edge">
<title>Node33&#45;&gt;Node7</title>
<g id="a_edge61_Node000033_Node000007"><a xlink:title=" ">
<path fill="none" stroke="#63b8ff" d="M787.62,-390.98C747.38,-381.33 696.02,-368.48 650.75,-355.5 564.47,-330.76 463.91,-296.68 415.96,-280.1"/>
<polygon fill="#63b8ff" stroke="#63b8ff" points="786.59,-394.57 797.13,-393.49 788.21,-387.76 786.59,-394.57"/>
</a>
</g>
</g>
<!-- Node33&#45;&gt;Node14 -->
<g id="edge63_Node000033_Node000014" class="edge">
<title>Node33&#45;&gt;Node14</title>
<g id="a_edge63_Node000033_Node000014"><a xlink:title=" ">
<path fill="none" stroke="#63b8ff" d="M855.08,-380.5C852.11,-362.42 845.87,-338.85 832.75,-322 813.41,-297.16 787.36,-313.34 771.75,-286 764.37,-273.07 765.84,-266.17 771.75,-252.5 779.6,-234.33 797.33,-219.59 810.55,-210.55"/>
<polygon fill="#63b8ff" stroke="#63b8ff" points="851.72,-380.78 856.56,-390.2 858.65,-379.82 851.72,-380.78"/>
</a>
</g>
</g>
<!-- Node33&#45;&gt;Node17 -->
<g id="edge62_Node000033_Node000017" class="edge">
<title>Node33&#45;&gt;Node17</title>
<g id="a_edge62_Node000033_Node000017"><a xlink:title=" ">
<path fill="none" stroke="#63b8ff" d="M928.42,-402.45C968.95,-396.55 1018.77,-383.63 1054.75,-355.5 1100.04,-320.08 1116.95,-248.83 1122.44,-216.89"/>
<polygon fill="#63b8ff" stroke="#63b8ff" points="927.97,-399.11 918.52,-403.9 928.89,-406.05 927.97,-399.11"/>
</a>
</g>
</g>
<!-- Node33&#45;&gt;Node30 -->
<g id="edge58_Node000033_Node000030" class="edge">
<title>Node33&#45;&gt;Node30</title>
<g id="a_edge58_Node000033_Node000030"><a xlink:title=" ">
<path fill="none" stroke="#63b8ff" d="M847.2,-381.11C838.4,-362.3 824.15,-337.58 804.75,-322 777.96,-300.49 741.57,-287.58 711.7,-280.04"/>
<polygon fill="#63b8ff" stroke="#63b8ff" points="844.39,-382.41 851.65,-390.13 850.79,-379.57 844.39,-382.41"/>
</a>
</g>
</g>
<!-- Node33&#45;&gt;Node31 -->
<g id="edge59_Node000033_Node000031" class="edge">
<title>Node33&#45;&gt;Node31</title>
<g id="a_edge59_Node000033_Node000031"><a xlink:title=" ">
<path fill="none" stroke="#63b8ff" d="M816.87,-386.02C793.34,-373.81 764.89,-359.03 746.57,-349.52"/>
<polygon fill="#63b8ff" stroke="#63b8ff" points="815.12,-389.58 825.61,-391.08 818.35,-383.37 815.12,-389.58"/>
</a>
</g>
</g>
<!-- Node34 -->
<g id="Node000034" class="node">
<title>Node34</title>
<g id="a_Node000034"><a xlink:href="Sphere_8cpp.html" target="_top" xlink:title=" ">
<polygon fill="white" stroke="#666666" points="1046.12,-355.5 927.38,-355.5 927.38,-322 1046.12,-322 1046.12,-355.5"/>
<text text-anchor="start" x="935.38" y="-342" font-family="Helvetica,sans-Serif" font-size="10.00">src/primitives/sphere</text>
<text text-anchor="middle" x="986.75" y="-329.25" font-family="Helvetica,sans-Serif" font-size="10.00">/Sphere.cpp</text>
</a>
</g>
</g>
<!-- Node33&#45;&gt;Node34 -->
<g id="edge64_Node000033_Node000034" class="edge">
<title>Node33&#45;&gt;Node34</title>
<g id="a_edge64_Node000033_Node000034"><a xlink:title=" ">
<path fill="none" stroke="#63b8ff" d="M898.37,-385.99C917.05,-376.22 938.84,-364.82 956.1,-355.79"/>
<polygon fill="#63b8ff" stroke="#63b8ff" points="896.89,-383.34 889.65,-391.08 900.13,-389.55 896.89,-383.34"/>
</a>
</g>
</g>
<!-- Node35&#45;&gt;Node2 -->
<g id="edge66_Node000035_Node000002" class="edge">
<title>Node35&#45;&gt;Node2</title>
<g id="a_edge66_Node000035_Node000002"><a xlink:title=" ">
<path fill="none" stroke="#63b8ff" d="M149.19,-508.93C126.18,-481.45 90.03,-438.25 73.94,-419.04"/>
<polygon fill="#63b8ff" stroke="#63b8ff" points="147.05,-510.83 156.15,-516.26 152.42,-506.34 147.05,-510.83"/>
</a>
</g>
</g>
<!-- Node35&#45;&gt;Node4 -->
<g id="edge67_Node000035_Node000004" class="edge">
<title>Node35&#45;&gt;Node4</title>
<g id="a_edge67_Node000035_Node000004"><a xlink:title=" ">
<path fill="none" stroke="#63b8ff" d="M195.13,-510C205.54,-500.35 217.03,-489.71 225.12,-482.22"/>
<polygon fill="#63b8ff" stroke="#63b8ff" points="193.05,-507.08 188.09,-516.44 197.81,-512.21 193.05,-507.08"/>
</a>
</g>
</g>
<!-- Node36&#45;&gt;Node4 -->
<g id="edge69_Node000036_Node000004" class="edge">
<title>Node36&#45;&gt;Node4</title>
<g id="a_edge69_Node000036_Node000004"><a xlink:title=" ">
<path fill="none" stroke="#63b8ff" d="M434.23,-521.1C387.42,-509.61 318.73,-492.74 275.66,-482.17"/>
<polygon fill="#63b8ff" stroke="#63b8ff" points="433.2,-524.69 443.74,-523.68 434.87,-517.9 433.2,-524.69"/>
</a>
</g>
</g>
<!-- Node36&#45;&gt;Node16 -->
<g id="edge70_Node000036_Node000016" class="edge">
<title>Node36&#45;&gt;Node16</title>
<g id="a_edge70_Node000036_Node000016"><a xlink:title=" ">
<path fill="none" stroke="#63b8ff" d="M564.89,-522.61C649.3,-511.15 781.01,-493.26 862.36,-482.21"/>
<polygon fill="#63b8ff" stroke="#63b8ff" points="564.51,-519.27 555.08,-524.08 565.46,-526.21 564.51,-519.27"/>
</a>
</g>
</g>
</g>
</svg>
