<?xml version="1.0" encoding="UTF-8" standalone="no"?>
<!DOCTYPE svg PUBLIC "-//W3C//DTD SVG 1.1//EN"
 "http://www.w3.org/Graphics/SVG/1.1/DTD/svg11.dtd">
<!-- Generated by graphviz version 8.1.0 (20230707.0739)
 -->
<!-- Title: src/core/math/Matrix.hpp Pages: 1 -->
<svg width="471pt" height="142pt"
 viewBox="0.00 0.00 471.25 142.25" xmlns="http://www.w3.org/2000/svg" xmlns:xlink="http://www.w3.org/1999/xlink">
<g id="graph0" class="graph" transform="scale(1 1) rotate(0) translate(4 138.25)">
<title>src/core/math/Matrix.hpp</title>
<!-- Node1 -->
<g id="Node000001" class="node">
<title>Node1</title>
<g id="a_Node000001"><a xlink:title=" ">
<polygon fill="#999999" stroke="#666666" points="306.88,-134.25 168.62,-134.25 168.62,-113.5 306.88,-113.5 306.88,-134.25"/>
<text text-anchor="middle" x="237.75" y="-120.75" font-family="Helvetica,sans-Serif" font-size="10.00">src/core/math/Matrix.hpp</text>
</a>
</g>
</g>
<!-- Node2 -->
<g id="Node000002" class="node">
<title>Node2</title>
<g id="a_Node000002"><a xlink:href="Math_8hpp.html" target="_top" xlink:title=" ">
<polygon fill="white" stroke="#666666" points="119.62,-77.5 57.88,-77.5 57.88,-56.75 119.62,-56.75 119.62,-77.5"/>
<text text-anchor="middle" x="88.75" y="-64" font-family="Helvetica,sans-Serif" font-size="10.00">Math.hpp</text>
</a>
</g>
</g>
<!-- Node1&#45;&gt;Node2 -->
<g id="edge1_Node000001_Node000002" class="edge">
<title>Node1&#45;&gt;Node2</title>
<g id="a_edge1_Node000001_Node000002"><a xlink:title=" ">
<path fill="none" stroke="#63b8ff" d="M211.11,-113.09C187.24,-104.32 152.01,-91.37 125.47,-81.62"/>
<polygon fill="#63b8ff" stroke="#63b8ff" points="127,-78.08 116.41,-77.92 124.59,-84.65 127,-78.08"/>
</a>
</g>
</g>
<!-- Node3 -->
<g id="Node000003" class="node">
<title>Node3</title>
<g id="a_Node000003"><a xlink:title=" ">
<polygon fill="#e0e0e0" stroke="#999999" points="59.5,-20.75 0,-20.75 0,0 59.5,0 59.5,-20.75"/>
<text text-anchor="middle" x="29.75" y="-7.25" font-family="Helvetica,sans-Serif" font-size="10.00">iostream</text>
</a>
</g>
</g>
<!-- Node1&#45;&gt;Node3 -->
<g id="edge8_Node000001_Node000003" class="edge">
<title>Node1&#45;&gt;Node3</title>
<g id="a_edge8_Node000001_Node000003"><a xlink:title=" ">
<path fill="none" stroke="#63b8ff" d="M168.5,-113.67C121.92,-106.13 66,-94 48.75,-77.5 36.36,-65.64 31.89,-46.28 30.35,-31.56"/>
<polygon fill="#63b8ff" stroke="#63b8ff" points="33.81,-31.74 29.66,-21.99 26.82,-32.2 33.81,-31.74"/>
</a>
</g>
</g>
<!-- Node5 -->
<g id="Node000005" class="node">
<title>Node5</title>
<g id="a_Node000005"><a xlink:href="Error_8hpp.html" target="_top" xlink:title=" ">
<polygon fill="white" stroke="#666666" points="232.12,-77.5 137.38,-77.5 137.38,-56.75 232.12,-56.75 232.12,-77.5"/>
<text text-anchor="middle" x="184.75" y="-64" font-family="Helvetica,sans-Serif" font-size="10.00">../error/Error.hpp</text>
</a>
</g>
</g>
<!-- Node1&#45;&gt;Node5 -->
<g id="edge4_Node000001_Node000005" class="edge">
<title>Node1&#45;&gt;Node5</title>
<g id="a_edge4_Node000001_Node000005"><a xlink:title=" ">
<path fill="none" stroke="#63b8ff" d="M228.27,-113.09C220.89,-105.46 210.44,-94.67 201.64,-85.57"/>
<polygon fill="#63b8ff" stroke="#63b8ff" points="204.61,-83.58 195.14,-78.83 199.58,-88.45 204.61,-83.58"/>
</a>
</g>
</g>
<!-- Node8 -->
<g id="Node000008" class="node">
<title>Node8</title>
<g id="a_Node000008"><a xlink:title=" ">
<polygon fill="#e0e0e0" stroke="#999999" points="331.75,-77.5 249.75,-77.5 249.75,-56.75 331.75,-56.75 331.75,-77.5"/>
<text text-anchor="middle" x="290.75" y="-64" font-family="Helvetica,sans-Serif" font-size="10.00">initializer_list</text>
</a>
</g>
</g>
<!-- Node1&#45;&gt;Node8 -->
<g id="edge7_Node000001_Node000008" class="edge">
<title>Node1&#45;&gt;Node8</title>
<g id="a_edge7_Node000001_Node000008"><a xlink:title=" ">
<path fill="none" stroke="#63b8ff" d="M247.23,-113.09C254.61,-105.46 265.06,-94.67 273.86,-85.57"/>
<polygon fill="#63b8ff" stroke="#63b8ff" points="275.92,-88.45 280.36,-78.83 270.89,-83.58 275.92,-88.45"/>
</a>
</g>
</g>
<!-- Node9 -->
<g id="Node000009" class="node">
<title>Node9</title>
<g id="a_Node000009"><a xlink:title=" ">
<polygon fill="#e0e0e0" stroke="#999999" points="396.12,-77.5 349.38,-77.5 349.38,-56.75 396.12,-56.75 396.12,-77.5"/>
<text text-anchor="middle" x="372.75" y="-64" font-family="Helvetica,sans-Serif" font-size="10.00">vector</text>
</a>
</g>
</g>
<!-- Node1&#45;&gt;Node9 -->
<g id="edge9_Node000001_Node000009" class="edge">
<title>Node1&#45;&gt;Node9</title>
<g id="a_edge9_Node000001_Node000009"><a xlink:title=" ">
<path fill="none" stroke="#63b8ff" d="M261.89,-113.09C283.42,-104.35 315.17,-91.48 339.18,-81.74"/>
<polygon fill="#63b8ff" stroke="#63b8ff" points="340.32,-84.65 348.28,-77.65 337.69,-78.16 340.32,-84.65"/>
</a>
</g>
</g>
<!-- Node10 -->
<g id="Node000010" class="node">
<title>Node10</title>
<g id="a_Node000010"><a xlink:title=" ">
<polygon fill="#e0e0e0" stroke="#999999" points="463.25,-77.5 414.25,-77.5 414.25,-56.75 463.25,-56.75 463.25,-77.5"/>
<text text-anchor="middle" x="438.75" y="-64" font-family="Helvetica,sans-Serif" font-size="10.00">format</text>
</a>
</g>
</g>
<!-- Node1&#45;&gt;Node10 -->
<g id="edge10_Node000001_Node000010" class="edge">
<title>Node1&#45;&gt;Node10</title>
<g id="a_edge10_Node000001_Node000010"><a xlink:title=" ">
<path fill="none" stroke="#63b8ff" d="M274.25,-113C305.91,-104.43 353.24,-91.58 403.45,-77.85"/>
<polygon fill="#63b8ff" stroke="#63b8ff" points="404.15,-81.01 412.87,-75 402.3,-74.26 404.15,-81.01"/>
</a>
</g>
</g>
<!-- Node2&#45;&gt;Node3 -->
<g id="edge2_Node000002_Node000003" class="edge">
<title>Node2&#45;&gt;Node3</title>
<g id="a_edge2_Node000002_Node000003"><a xlink:title=" ">
<path fill="none" stroke="#63b8ff" d="M78.2,-56.34C69.9,-48.63 58.11,-37.7 48.25,-28.54"/>
<polygon fill="#63b8ff" stroke="#63b8ff" points="50.92,-26.32 41.21,-22.08 46.16,-31.45 50.92,-26.32"/>
</a>
</g>
</g>
<!-- Node4 -->
<g id="Node000004" class="node">
<title>Node4</title>
<g id="a_Node000004"><a xlink:title=" ">
<polygon fill="#e0e0e0" stroke="#999999" points="124.12,-20.75 77.38,-20.75 77.38,0 124.12,0 124.12,-20.75"/>
<text text-anchor="middle" x="100.75" y="-7.25" font-family="Helvetica,sans-Serif" font-size="10.00">cmath</text>
</a>
</g>
</g>
<!-- Node2&#45;&gt;Node4 -->
<g id="edge3_Node000002_Node000004" class="edge">
<title>Node2&#45;&gt;Node4</title>
<g id="a_edge3_Node000002_Node000004"><a xlink:title=" ">
<path fill="none" stroke="#63b8ff" d="M90.9,-56.34C92.4,-49.49 94.46,-40.09 96.31,-31.65"/>
<polygon fill="#63b8ff" stroke="#63b8ff" points="99.9,-32.6 98.62,-22.08 93.06,-31.1 99.9,-32.6"/>
</a>
</g>
</g>
<!-- Node6 -->
<g id="Node000006" class="node">
<title>Node6</title>
<g id="a_Node000006"><a xlink:title=" ">
<polygon fill="#e0e0e0" stroke="#999999" points="210.75,-20.75 146.75,-20.75 146.75,0 210.75,0 210.75,-20.75"/>
<text text-anchor="middle" x="178.75" y="-7.25" font-family="Helvetica,sans-Serif" font-size="10.00">stdexcept</text>
</a>
</g>
</g>
<!-- Node5&#45;&gt;Node6 -->
<g id="edge5_Node000005_Node000006" class="edge">
<title>Node5&#45;&gt;Node6</title>
<g id="a_edge5_Node000005_Node000006"><a xlink:title=" ">
<path fill="none" stroke="#63b8ff" d="M183.68,-56.34C182.94,-49.56 181.92,-40.3 181,-31.94"/>
<polygon fill="#63b8ff" stroke="#63b8ff" points="184.38,-31.64 179.81,-22.08 177.42,-32.4 184.38,-31.64"/>
</a>
</g>
</g>
<!-- Node7 -->
<g id="Node000007" class="node">
<title>Node7</title>
<g id="a_Node000007"><a xlink:title=" ">
<polygon fill="#e0e0e0" stroke="#999999" points="272.62,-20.75 228.88,-20.75 228.88,0 272.62,0 272.62,-20.75"/>
<text text-anchor="middle" x="250.75" y="-7.25" font-family="Helvetica,sans-Serif" font-size="10.00">string</text>
</a>
</g>
</g>
<!-- Node5&#45;&gt;Node7 -->
<g id="edge6_Node000005_Node000007" class="edge">
<title>Node5&#45;&gt;Node7</title>
<g id="a_edge6_Node000005_Node000007"><a xlink:title=" ">
<path fill="none" stroke="#63b8ff" d="M196.55,-56.34C206.03,-48.47 219.56,-37.25 230.72,-27.99"/>
<polygon fill="#63b8ff" stroke="#63b8ff" points="232.59,-30.16 238.05,-21.08 228.12,-24.77 232.59,-30.16"/>
</a>
</g>
</g>
</g>
</svg>
