<?xml version="1.0" encoding="UTF-8" standalone="no"?>
<!DOCTYPE svg PUBLIC "-//W3C//DTD SVG 1.1//EN"
 "http://www.w3.org/Graphics/SVG/1.1/DTD/svg11.dtd">
<!-- Generated by graphviz version 8.1.0 (20230707.0739)
 -->
<!-- Title: src/core/math/Matrix.hpp Pages: 1 -->
<svg width="1742pt" height="521pt"
 viewBox="0.00 0.00 1742.12 521.00" xmlns="http://www.w3.org/2000/svg" xmlns:xlink="http://www.w3.org/1999/xlink">
<g id="graph0" class="graph" transform="scale(1 1) rotate(0) translate(4 517)">
<title>src/core/math/Matrix.hpp</title>
<!-- Node1 -->
<g id="Node000001" class="node">
<title>Node1</title>
<g id="a_Node000001"><a xlink:title=" ">
<polygon fill="#999999" stroke="#666666" points="512.88,-513 374.62,-513 374.62,-492.25 512.88,-492.25 512.88,-513"/>
<text text-anchor="middle" x="443.75" y="-499.5" font-family="Helvetica,sans-Serif" font-size="10.00">src/core/math/Matrix.hpp</text>
</a>
</g>
</g>
<!-- Node2 -->
<g id="Node000002" class="node">
<title>Node2</title>
<g id="a_Node000002"><a xlink:href="Camera_8hpp.html" target="_top" xlink:title=" ">
<polygon fill="white" stroke="#666666" points="301.88,-279.62 169.62,-279.62 169.62,-258.88 301.88,-258.88 301.88,-279.62"/>
<text text-anchor="middle" x="235.75" y="-266.12" font-family="Helvetica,sans-Serif" font-size="10.00">src/camera/Camera.hpp</text>
</a>
</g>
</g>
<!-- Node1&#45;&gt;Node2 -->
<g id="edge1_Node000001_Node000002" class="edge">
<title>Node1&#45;&gt;Node2</title>
<g id="a_edge1_Node000001_Node000002"><a xlink:title=" ">
<path fill="none" stroke="#63b8ff" d="M427.73,-483.81C386.23,-437.64 276.24,-315.29 244.46,-279.94"/>
<polygon fill="#63b8ff" stroke="#63b8ff" points="424.79,-485.88 434.08,-490.98 429.99,-481.2 424.79,-485.88"/>
</a>
</g>
</g>
<!-- Node15 -->
<g id="Node000015" class="node">
<title>Node15</title>
<g id="a_Node000015"><a xlink:href="IPrimitive_8hpp.html" target="_top" xlink:title=" ">
<polygon fill="white" stroke="#666666" points="1140.75,-456.25 986.75,-456.25 986.75,-435.5 1140.75,-435.5 1140.75,-456.25"/>
<text text-anchor="middle" x="1063.75" y="-442.75" font-family="Helvetica,sans-Serif" font-size="10.00">src/primitives/IPrimitive.hpp</text>
</a>
</g>
</g>
<!-- Node1&#45;&gt;Node15 -->
<g id="edge19_Node000001_Node000015" class="edge">
<title>Node1&#45;&gt;Node15</title>
<g id="a_edge19_Node000001_Node000015"><a xlink:title=" ">
<path fill="none" stroke="#63b8ff" d="M524.3,-494.51C644.37,-483.91 868.77,-464.09 986.74,-453.68"/>
<polygon fill="#63b8ff" stroke="#63b8ff" points="524.02,-491.11 514.37,-495.48 524.64,-498.08 524.02,-491.11"/>
</a>
</g>
</g>
<!-- Node3 -->
<g id="Node000003" class="node">
<title>Node3</title>
<g id="a_Node000003"><a xlink:href="paser_2Scene_8hpp.html" target="_top" xlink:title=" ">
<polygon fill="white" stroke="#666666" points="321.88,-210.12 225.62,-210.12 225.62,-189.38 321.88,-189.38 321.88,-210.12"/>
<text text-anchor="middle" x="273.75" y="-196.62" font-family="Helvetica,sans-Serif" font-size="10.00">paser/Scene.hpp</text>
</a>
</g>
</g>
<!-- Node2&#45;&gt;Node3 -->
<g id="edge2_Node000002_Node000003" class="edge">
<title>Node2&#45;&gt;Node3</title>
<g id="a_edge2_Node000002_Node000003"><a xlink:title=" ">
<path fill="none" stroke="#63b8ff" d="M246.39,-249.35C253.52,-236.68 262.62,-220.52 268.32,-210.4"/>
<polygon fill="#63b8ff" stroke="#63b8ff" points="243.05,-247.15 241.19,-257.58 249.15,-250.58 243.05,-247.15"/>
</a>
</g>
</g>
<!-- Node4 -->
<g id="Node000004" class="node">
<title>Node4</title>
<g id="a_Node000004"><a xlink:href="parse_8cpp.html" target="_top" xlink:title=" ">
<polygon fill="white" stroke="#666666" points="358.38,-77.5 265.12,-77.5 265.12,-56.75 358.38,-56.75 358.38,-77.5"/>
<text text-anchor="middle" x="311.75" y="-64" font-family="Helvetica,sans-Serif" font-size="10.00">paser/parse.cpp</text>
</a>
</g>
</g>
<!-- Node2&#45;&gt;Node4 -->
<g id="edge6_Node000002_Node000004" class="edge">
<title>Node2&#45;&gt;Node4</title>
<g id="a_edge6_Node000002_Node000004"><a xlink:title=" ">
<path fill="none" stroke="#63b8ff" d="M221.16,-249.88C209.25,-232.55 195.75,-205.87 204.75,-183 223.62,-135.07 272.95,-95.3 297.48,-77.76"/>
<polygon fill="#63b8ff" stroke="#63b8ff" points="218.72,-251.48 227.46,-257.47 224.36,-247.34 218.72,-251.48"/>
</a>
</g>
</g>
<!-- Node6 -->
<g id="Node000006" class="node">
<title>Node6</title>
<g id="a_Node000006"><a xlink:href="Camera_8cpp.html" target="_top" xlink:title=" ">
<polygon fill="white" stroke="#666666" points="131.5,-210.12 0,-210.12 0,-189.38 131.5,-189.38 131.5,-210.12"/>
<text text-anchor="middle" x="65.75" y="-196.62" font-family="Helvetica,sans-Serif" font-size="10.00">src/camera/Camera.cpp</text>
</a>
</g>
</g>
<!-- Node2&#45;&gt;Node6 -->
<g id="edge7_Node000002_Node000006" class="edge">
<title>Node2&#45;&gt;Node6</title>
<g id="a_edge7_Node000002_Node000006"><a xlink:title=" ">
<path fill="none" stroke="#63b8ff" d="M200.95,-254.43C168.08,-241.38 119.6,-222.13 90.5,-210.58"/>
<polygon fill="#63b8ff" stroke="#63b8ff" points="199.44,-258 210.03,-258.43 202.03,-251.49 199.44,-258"/>
</a>
</g>
</g>
<!-- Node7 -->
<g id="Node000007" class="node">
<title>Node7</title>
<g id="a_Node000007"><a xlink:href="src_2core_2scene_2Scene_8hpp.html" target="_top" xlink:title=" ">
<polygon fill="white" stroke="#666666" points="1096.25,-140.62 957.25,-140.62 957.25,-119.88 1096.25,-119.88 1096.25,-140.62"/>
<text text-anchor="middle" x="1026.75" y="-127.12" font-family="Helvetica,sans-Serif" font-size="10.00">src/core/scene/Scene.hpp</text>
</a>
</g>
</g>
<!-- Node2&#45;&gt;Node7 -->
<g id="edge8_Node000002_Node000007" class="edge">
<title>Node2&#45;&gt;Node7</title>
<g id="a_edge8_Node000002_Node000007"><a xlink:title=" ">
<path fill="none" stroke="#63b8ff" d="M223.08,-249.38C211.92,-230.19 199.85,-200.8 216.75,-183 243.29,-155.04 871.36,-150.57 909.75,-147 926.28,-145.46 944.06,-143.32 960.65,-141.11"/>
<polygon fill="#63b8ff" stroke="#63b8ff" points="220.58,-250.98 228.84,-257.62 226.52,-247.28 220.58,-250.98"/>
</a>
</g>
</g>
<!-- Node13 -->
<g id="Node000013" class="node">
<title>Node13</title>
<g id="a_Node000013"><a xlink:href="Parser_8hpp.html" target="_top" xlink:title=" ">
<polygon fill="white" stroke="#666666" points="1029.38,-210.12 912.12,-210.12 912.12,-189.38 1029.38,-189.38 1029.38,-210.12"/>
<text text-anchor="middle" x="970.75" y="-196.62" font-family="Helvetica,sans-Serif" font-size="10.00">src/parser/Parser.hpp</text>
</a>
</g>
</g>
<!-- Node2&#45;&gt;Node13 -->
<g id="edge14_Node000002_Node000013" class="edge">
<title>Node2&#45;&gt;Node13</title>
<g id="a_edge14_Node000002_Node000013"><a xlink:title=" ">
<path fill="none" stroke="#63b8ff" d="M312.77,-263.54C431.51,-255.92 666.31,-239.38 864.75,-216.5 880,-214.74 896.43,-212.48 911.69,-210.22"/>
<polygon fill="#63b8ff" stroke="#63b8ff" points="312.75,-260.1 303,-264.23 313.2,-267.09 312.75,-260.1"/>
</a>
</g>
</g>
<!-- Node3&#45;&gt;Node4 -->
<g id="edge3_Node000003_Node000004" class="edge">
<title>Node3&#45;&gt;Node4</title>
<g id="a_edge3_Node000003_Node000004"><a xlink:title=" ">
<path fill="none" stroke="#63b8ff" d="M277.66,-178.31C281.21,-160.89 286.91,-135.3 293.75,-113.5 297.71,-100.89 303.53,-86.8 307.47,-77.71"/>
<polygon fill="#63b8ff" stroke="#63b8ff" points="274.07,-177.42 275.57,-187.91 280.94,-178.78 274.07,-177.42"/>
</a>
</g>
</g>
<!-- Node5 -->
<g id="Node000005" class="node">
<title>Node5</title>
<g id="a_Node000005"><a xlink:href="parse_8hpp.html" target="_top" xlink:title=" ">
<polygon fill="white" stroke="#666666" points="396.75,-140.62 302.75,-140.62 302.75,-119.88 396.75,-119.88 396.75,-140.62"/>
<text text-anchor="middle" x="349.75" y="-127.12" font-family="Helvetica,sans-Serif" font-size="10.00">paser/parse.hpp</text>
</a>
</g>
</g>
<!-- Node3&#45;&gt;Node5 -->
<g id="edge4_Node000003_Node000005" class="edge">
<title>Node3&#45;&gt;Node5</title>
<g id="a_edge4_Node000003_Node000005"><a xlink:title=" ">
<path fill="none" stroke="#63b8ff" d="M292.49,-182.11C306.97,-169.25 326.53,-151.87 338.63,-141.12"/>
<polygon fill="#63b8ff" stroke="#63b8ff" points="290.79,-178.82 285.64,-188.08 295.44,-184.06 290.79,-178.82"/>
</a>
</g>
</g>
<!-- Node5&#45;&gt;Node4 -->
<g id="edge5_Node000005_Node000004" class="edge">
<title>Node5&#45;&gt;Node4</title>
<g id="a_edge5_Node000005_Node000004"><a xlink:title=" ">
<path fill="none" stroke="#63b8ff" d="M337.99,-110.34C331.27,-99.53 323.13,-86.43 317.71,-77.72"/>
<polygon fill="#63b8ff" stroke="#63b8ff" points="335.39,-111.78 343.64,-118.43 341.34,-108.09 335.39,-111.78"/>
</a>
</g>
</g>
<!-- Node8 -->
<g id="Node000008" class="node">
<title>Node8</title>
<g id="a_Node000008"><a xlink:href="RayTracer_8hpp.html" target="_top" xlink:title=" ">
<polygon fill="white" stroke="#666666" points="1239.5,-77.5 1114,-77.5 1114,-56.75 1239.5,-56.75 1239.5,-77.5"/>
<text text-anchor="middle" x="1176.75" y="-64" font-family="Helvetica,sans-Serif" font-size="10.00">src/core/RayTracer.hpp</text>
</a>
</g>
</g>
<!-- Node7&#45;&gt;Node8 -->
<g id="edge9_Node000007_Node000008" class="edge">
<title>Node7&#45;&gt;Node8</title>
<g id="a_edge9_Node000007_Node000008"><a xlink:title=" ">
<path fill="none" stroke="#63b8ff" d="M1061,-115.29C1089.01,-103.88 1127.91,-88.03 1152.71,-77.92"/>
<polygon fill="#63b8ff" stroke="#63b8ff" points="1059.79,-112.41 1051.85,-119.43 1062.43,-118.9 1059.79,-112.41"/>
</a>
</g>
</g>
<!-- Node11 -->
<g id="Node000011" class="node">
<title>Node11</title>
<g id="a_Node000011"><a xlink:href="Image_8cpp.html" target="_top" xlink:title="Implémentation des méthodes de la classe Image pour gestion d&#39;image et affichage.">
<polygon fill="white" stroke="#666666" points="939.62,-77.5 799.88,-77.5 799.88,-56.75 939.62,-56.75 939.62,-77.5"/>
<text text-anchor="middle" x="869.75" y="-64" font-family="Helvetica,sans-Serif" font-size="10.00">src/core/scene/Image.cpp</text>
</a>
</g>
</g>
<!-- Node7&#45;&gt;Node11 -->
<g id="edge12_Node000007_Node000011" class="edge">
<title>Node7&#45;&gt;Node11</title>
<g id="a_edge12_Node000007_Node000011"><a xlink:title=" ">
<path fill="none" stroke="#63b8ff" d="M991.29,-115.44C961.94,-104.02 920.98,-88.07 894.91,-77.92"/>
<polygon fill="#63b8ff" stroke="#63b8ff" points="989.94,-119.06 1000.53,-119.43 992.48,-112.54 989.94,-119.06"/>
</a>
</g>
</g>
<!-- Node12 -->
<g id="Node000012" class="node">
<title>Node12</title>
<g id="a_Node000012"><a xlink:href="Scene_8cpp.html" target="_top" xlink:title=" ">
<polygon fill="white" stroke="#666666" points="1095.88,-77.5 957.62,-77.5 957.62,-56.75 1095.88,-56.75 1095.88,-77.5"/>
<text text-anchor="middle" x="1026.75" y="-64" font-family="Helvetica,sans-Serif" font-size="10.00">src/core/scene/Scene.cpp</text>
</a>
</g>
</g>
<!-- Node7&#45;&gt;Node12 -->
<g id="edge13_Node000007_Node000012" class="edge">
<title>Node7&#45;&gt;Node12</title>
<g id="a_edge13_Node000007_Node000012"><a xlink:title=" ">
<path fill="none" stroke="#63b8ff" d="M1026.75,-108.66C1026.75,-98.2 1026.75,-85.99 1026.75,-77.72"/>
<polygon fill="#63b8ff" stroke="#63b8ff" points="1023.25,-108.43 1026.75,-118.43 1030.25,-108.43 1023.25,-108.43"/>
</a>
</g>
</g>
<!-- Node9 -->
<g id="Node000009" class="node">
<title>Node9</title>
<g id="a_Node000009"><a xlink:href="Main_8cpp.html" target="_top" xlink:title=" ">
<polygon fill="white" stroke="#666666" points="1161.5,-20.75 1060,-20.75 1060,0 1161.5,0 1161.5,-20.75"/>
<text text-anchor="middle" x="1110.75" y="-7.25" font-family="Helvetica,sans-Serif" font-size="10.00">src/core/Main.cpp</text>
</a>
</g>
</g>
<!-- Node8&#45;&gt;Node9 -->
<g id="edge10_Node000008_Node000009" class="edge">
<title>Node8&#45;&gt;Node9</title>
<g id="a_edge10_Node000008_Node000009"><a xlink:title=" ">
<path fill="none" stroke="#63b8ff" d="M1156.6,-49.41C1145.42,-40.13 1131.9,-28.92 1122.45,-21.08"/>
<polygon fill="#63b8ff" stroke="#63b8ff" points="1154.02,-52.65 1163.95,-56.34 1158.49,-47.26 1154.02,-52.65"/>
</a>
</g>
</g>
<!-- Node10 -->
<g id="Node000010" class="node">
<title>Node10</title>
<g id="a_Node000010"><a xlink:href="RayTracer_8cpp.html" target="_top" xlink:title=" ">
<polygon fill="white" stroke="#666666" points="1304.12,-20.75 1179.38,-20.75 1179.38,0 1304.12,0 1304.12,-20.75"/>
<text text-anchor="middle" x="1241.75" y="-7.25" font-family="Helvetica,sans-Serif" font-size="10.00">src/core/RayTracer.cpp</text>
</a>
</g>
</g>
<!-- Node8&#45;&gt;Node10 -->
<g id="edge11_Node000008_Node000010" class="edge">
<title>Node8&#45;&gt;Node10</title>
<g id="a_edge11_Node000008_Node000010"><a xlink:title=" ">
<path fill="none" stroke="#63b8ff" d="M1196.59,-49.41C1207.61,-40.13 1220.92,-28.92 1230.23,-21.08"/>
<polygon fill="#63b8ff" stroke="#63b8ff" points="1194.76,-47.22 1189.37,-56.34 1199.27,-52.57 1194.76,-47.22"/>
</a>
</g>
</g>
<!-- Node13&#45;&gt;Node7 -->
<g id="edge17_Node000013_Node000007" class="edge">
<title>Node13&#45;&gt;Node7</title>
<g id="a_edge17_Node000013_Node000007"><a xlink:title=" ">
<path fill="none" stroke="#63b8ff" d="M985.5,-180.97C996.14,-168.14 1010.1,-151.32 1018.74,-140.9"/>
<polygon fill="#63b8ff" stroke="#63b8ff" points="982.46,-178.15 978.77,-188.08 987.85,-182.62 982.46,-178.15"/>
</a>
</g>
</g>
<!-- Node13&#45;&gt;Node8 -->
<g id="edge15_Node000013_Node000008" class="edge">
<title>Node13&#45;&gt;Node8</title>
<g id="a_edge15_Node000013_Node000008"><a xlink:title=" ">
<path fill="none" stroke="#63b8ff" d="M1020.64,-185.82C1047.37,-177.41 1080,-164.69 1105.75,-147 1134.15,-127.49 1158.94,-94.4 1170.25,-77.97"/>
<polygon fill="#63b8ff" stroke="#63b8ff" points="1019.9,-182.69 1011.34,-188.94 1021.93,-189.39 1019.9,-182.69"/>
</a>
</g>
</g>
<!-- Node13&#45;&gt;Node11 -->
<g id="edge16_Node000013_Node000011" class="edge">
<title>Node13&#45;&gt;Node11</title>
<g id="a_edge16_Node000013_Node000011"><a xlink:title=" ">
<path fill="none" stroke="#63b8ff" d="M958.4,-180.38C946.43,-162.84 927.53,-135.85 909.75,-113.5 899.68,-100.84 887.25,-86.99 878.95,-77.97"/>
<polygon fill="#63b8ff" stroke="#63b8ff" points="955.78,-181.74 964.29,-188.06 961.57,-177.82 955.78,-181.74"/>
</a>
</g>
</g>
<!-- Node14 -->
<g id="Node000014" class="node">
<title>Node14</title>
<g id="a_Node000014"><a xlink:href="Parser_8cpp.html" target="_top" xlink:title="Implémentation des fonctions de parsing des configurations pour la caméra, primitives,...">
<polygon fill="white" stroke="#666666" points="901,-140.62 784.5,-140.62 784.5,-119.88 901,-119.88 901,-140.62"/>
<text text-anchor="middle" x="842.75" y="-127.12" font-family="Helvetica,sans-Serif" font-size="10.00">src/parser/Parser.cpp</text>
</a>
</g>
</g>
<!-- Node13&#45;&gt;Node14 -->
<g id="edge18_Node000013_Node000014" class="edge">
<title>Node13&#45;&gt;Node14</title>
<g id="a_edge18_Node000013_Node000014"><a xlink:title=" ">
<path fill="none" stroke="#63b8ff" d="M942.6,-183.9C917.91,-170.89 882.72,-152.33 861.38,-141.08"/>
<polygon fill="#63b8ff" stroke="#63b8ff" points="940.66,-187.37 951.14,-188.93 943.92,-181.17 940.66,-187.37"/>
</a>
</g>
</g>
<!-- Node16 -->
<g id="Node000016" class="node">
<title>Node16</title>
<g id="a_Node000016"><a xlink:href="Factory_8hpp.html" target="_top" xlink:title=" ">
<polygon fill="white" stroke="#666666" points="1464.38,-216.5 1335.12,-216.5 1335.12,-183 1464.38,-183 1464.38,-216.5"/>
<text text-anchor="start" x="1343.12" y="-203" font-family="Helvetica,sans-Serif" font-size="10.00">src/core/designPatterns</text>
<text text-anchor="middle" x="1399.75" y="-190.25" font-family="Helvetica,sans-Serif" font-size="10.00">/Factory.hpp</text>
</a>
</g>
</g>
<!-- Node15&#45;&gt;Node16 -->
<g id="edge20_Node000015_Node000016" class="edge">
<title>Node15&#45;&gt;Node16</title>
<g id="a_edge20_Node000015_Node000016"><a xlink:title=" ">
<path fill="none" stroke="#63b8ff" d="M1151.87,-441.38C1253.87,-431.95 1416.9,-398.91 1487.75,-286 1495.66,-273.39 1495.14,-265.42 1487.75,-252.5 1478.6,-236.5 1462.36,-224.96 1446.3,-216.9"/>
<polygon fill="#63b8ff" stroke="#63b8ff" points="1151.64,-437.98 1141.97,-442.32 1152.24,-444.95 1151.64,-437.98"/>
</a>
</g>
</g>
<!-- Node18 -->
<g id="Node000018" class="node">
<title>Node18</title>
<g id="a_Node000018"><a xlink:href="World_8hpp.html" target="_top" xlink:title=" ">
<polygon fill="white" stroke="#666666" points="1187.25,-399.5 1042.25,-399.5 1042.25,-378.75 1187.25,-378.75 1187.25,-399.5"/>
<text text-anchor="middle" x="1114.75" y="-386" font-family="Helvetica,sans-Serif" font-size="10.00">src/core/helpers/World.hpp</text>
</a>
</g>
</g>
<!-- Node15&#45;&gt;Node18 -->
<g id="edge23_Node000015_Node000018" class="edge">
<title>Node15&#45;&gt;Node18</title>
<g id="a_edge23_Node000015_Node000018"><a xlink:title=" ">
<path fill="none" stroke="#63b8ff" d="M1080.35,-427.05C1088.78,-418 1098.7,-407.36 1105.71,-399.83"/>
<polygon fill="#63b8ff" stroke="#63b8ff" points="1078.12,-424.38 1073.87,-434.09 1083.24,-429.16 1078.12,-424.38"/>
</a>
</g>
</g>
<!-- Node19 -->
<g id="Node000019" class="node">
<title>Node19</title>
<g id="a_Node000019"><a xlink:href="ILight_8hpp.html" target="_top" xlink:title=" ">
<polygon fill="white" stroke="#666666" points="1170.38,-342.75 1059.12,-342.75 1059.12,-322 1170.38,-322 1170.38,-342.75"/>
<text text-anchor="middle" x="1114.75" y="-329.25" font-family="Helvetica,sans-Serif" font-size="10.00">src/lights/ILight.hpp</text>
</a>
</g>
</g>
<!-- Node15&#45;&gt;Node19 -->
<g id="edge35_Node000015_Node000019" class="edge">
<title>Node15&#45;&gt;Node19</title>
<g id="a_edge35_Node000015_Node000019"><a xlink:title=" ">
<path fill="none" stroke="#63b8ff" d="M1046.36,-427.08C1035.27,-413.48 1024.55,-394.45 1033.75,-378.75 1043.94,-361.37 1063.49,-350.14 1080.83,-343.2"/>
<polygon fill="#63b8ff" stroke="#63b8ff" points="1043.26,-428.98 1052.51,-434.15 1048.5,-424.34 1043.26,-428.98"/>
</a>
</g>
</g>
<!-- Node24 -->
<g id="Node000024" class="node">
<title>Node24</title>
<g id="a_Node000024"><a xlink:href="Cone_8hpp.html" target="_top" xlink:title=" ">
<polygon fill="white" stroke="#666666" points="1336.25,-286 1227.25,-286 1227.25,-252.5 1336.25,-252.5 1336.25,-286"/>
<text text-anchor="start" x="1235.25" y="-272.5" font-family="Helvetica,sans-Serif" font-size="10.00">src/primitives/cone</text>
<text text-anchor="middle" x="1281.75" y="-259.75" font-family="Helvetica,sans-Serif" font-size="10.00">/Cone.hpp</text>
</a>
</g>
</g>
<!-- Node15&#45;&gt;Node24 -->
<g id="edge36_Node000015_Node000024" class="edge">
<title>Node15&#45;&gt;Node24</title>
<g id="a_edge36_Node000015_Node000024"><a xlink:title=" ">
<path fill="none" stroke="#63b8ff" d="M1128.06,-432.15C1151.37,-425.28 1176.84,-414.91 1196.75,-399.5 1236.67,-368.59 1263.8,-313.37 1275.39,-286.22"/>
<polygon fill="#63b8ff" stroke="#63b8ff" points="1127.23,-429.03 1118.53,-435.07 1129.1,-435.77 1127.23,-429.03"/>
</a>
</g>
</g>
<!-- Node26 -->
<g id="Node000026" class="node">
<title>Node26</title>
<g id="a_Node000026"><a xlink:href="Cylinder_8hpp.html" target="_top" xlink:title=" ">
<polygon fill="white" stroke="#666666" points="1479.12,-286 1354.38,-286 1354.38,-252.5 1479.12,-252.5 1479.12,-286"/>
<text text-anchor="start" x="1362.38" y="-272.5" font-family="Helvetica,sans-Serif" font-size="10.00">src/primitives/cylinder</text>
<text text-anchor="middle" x="1416.75" y="-259.75" font-family="Helvetica,sans-Serif" font-size="10.00">/Cylinder.hpp</text>
</a>
</g>
</g>
<!-- Node15&#45;&gt;Node26 -->
<g id="edge40_Node000015_Node000026" class="edge">
<title>Node15&#45;&gt;Node26</title>
<g id="a_edge40_Node000015_Node000026"><a xlink:title=" ">
<path fill="none" stroke="#63b8ff" d="M1121.85,-432.53C1152.13,-425 1189.29,-414.01 1220.75,-399.5 1289.96,-367.58 1362.64,-313.32 1396.79,-286.4"/>
<polygon fill="#63b8ff" stroke="#63b8ff" points="1121.35,-429.29 1112.45,-435.05 1123,-436.1 1121.35,-429.29"/>
</a>
</g>
</g>
<!-- Node28 -->
<g id="Node000028" class="node">
<title>Node28</title>
<g id="a_Node000028"><a xlink:href="Plane_8hpp.html" target="_top" xlink:title=" ">
<polygon fill="white" stroke="#666666" points="869.12,-286 756.38,-286 756.38,-252.5 869.12,-252.5 869.12,-286"/>
<text text-anchor="start" x="764.38" y="-272.5" font-family="Helvetica,sans-Serif" font-size="10.00">src/primitives/plane</text>
<text text-anchor="middle" x="812.75" y="-259.75" font-family="Helvetica,sans-Serif" font-size="10.00">/Plane.hpp</text>
</a>
</g>
</g>
<!-- Node15&#45;&gt;Node28 -->
<g id="edge44_Node000015_Node000028" class="edge">
<title>Node15&#45;&gt;Node28</title>
<g id="a_edge44_Node000015_Node000028"><a xlink:title=" ">
<path fill="none" stroke="#63b8ff" d="M1040.99,-429.04C993.4,-395.93 883.87,-319.73 835.93,-286.38"/>
<polygon fill="#63b8ff" stroke="#63b8ff" points="1038.69,-432.4 1048.9,-435.24 1042.69,-426.65 1038.69,-432.4"/>
</a>
</g>
</g>
<!-- Node32 -->
<g id="Node000032" class="node">
<title>Node32</title>
<g id="a_Node000032"><a xlink:href="Sphere_8hpp.html" target="_top" xlink:title=" ">
<polygon fill="white" stroke="#666666" points="650.12,-286 531.38,-286 531.38,-252.5 650.12,-252.5 650.12,-286"/>
<text text-anchor="start" x="539.38" y="-272.5" font-family="Helvetica,sans-Serif" font-size="10.00">src/primitives/sphere</text>
<text text-anchor="middle" x="590.75" y="-259.75" font-family="Helvetica,sans-Serif" font-size="10.00">/Sphere.hpp</text>
</a>
</g>
</g>
<!-- Node15&#45;&gt;Node32 -->
<g id="edge54_Node000015_Node000032" class="edge">
<title>Node15&#45;&gt;Node32</title>
<g id="a_edge54_Node000015_Node000032"><a xlink:title=" ">
<path fill="none" stroke="#63b8ff" d="M1027,-431.31C941.08,-399.59 727.31,-320.67 634.7,-286.47"/>
<polygon fill="#63b8ff" stroke="#63b8ff" points="1025.71,-434.93 1036.31,-435.11 1028.14,-428.37 1025.71,-434.93"/>
</a>
</g>
</g>
<!-- Node16&#45;&gt;Node7 -->
<g id="edge22_Node000016_Node000007" class="edge">
<title>Node16&#45;&gt;Node7</title>
<g id="a_edge22_Node000016_Node000007"><a xlink:title=" ">
<path fill="none" stroke="#63b8ff" d="M1324.11,-182.72C1236.24,-165.91 1146.02,-150.68 1087.86,-141.12"/>
<polygon fill="#63b8ff" stroke="#63b8ff" points="1323.33,-186.33 1333.81,-184.78 1324.65,-179.46 1323.33,-186.33"/>
</a>
</g>
</g>
<!-- Node17 -->
<g id="Node000017" class="node">
<title>Node17</title>
<g id="a_Node000017"><a xlink:href="Factory_8cpp.html" target="_top" xlink:title=" ">
<polygon fill="white" stroke="#666666" points="1464.38,-147 1335.12,-147 1335.12,-113.5 1464.38,-113.5 1464.38,-147"/>
<text text-anchor="start" x="1343.12" y="-133.5" font-family="Helvetica,sans-Serif" font-size="10.00">src/core/designPatterns</text>
<text text-anchor="middle" x="1399.75" y="-120.75" font-family="Helvetica,sans-Serif" font-size="10.00">/Factory.cpp</text>
</a>
</g>
</g>
<!-- Node16&#45;&gt;Node17 -->
<g id="edge21_Node000016_Node000017" class="edge">
<title>Node16&#45;&gt;Node17</title>
<g id="a_edge21_Node000016_Node000017"><a xlink:title=" ">
<path fill="none" stroke="#63b8ff" d="M1399.75,-171.89C1399.75,-163.5 1399.75,-154.51 1399.75,-147.13"/>
<polygon fill="#63b8ff" stroke="#63b8ff" points="1396.25,-171.75 1399.75,-181.75 1403.25,-171.75 1396.25,-171.75"/>
</a>
</g>
</g>
<!-- Node18&#45;&gt;Node19 -->
<g id="edge24_Node000018_Node000019" class="edge">
<title>Node18&#45;&gt;Node19</title>
<g id="a_edge24_Node000018_Node000019"><a xlink:title=" ">
<path fill="none" stroke="#63b8ff" d="M1108.18,-367.46C1107.72,-359.09 1108.14,-349.83 1109.45,-343.08"/>
<polygon fill="#63b8ff" stroke="#63b8ff" points="1104.81,-367.8 1109.43,-377.34 1111.77,-367 1104.81,-367.8"/>
</a>
</g>
</g>
<!-- Node19&#45;&gt;Node16 -->
<g id="edge25_Node000019_Node000016" class="edge">
<title>Node19&#45;&gt;Node16</title>
<g id="a_edge25_Node000019_Node000016"><a xlink:title=" ">
<path fill="none" stroke="#63b8ff" d="M1138.65,-315.53C1151.12,-307.06 1166.49,-296.28 1179.75,-286 1197.81,-272 1198.63,-263.34 1218.75,-252.5 1238.96,-241.61 1291.51,-227.09 1334.81,-216.2"/>
<polygon fill="#63b8ff" stroke="#63b8ff" points="1137.11,-313.03 1130.77,-321.52 1141.02,-318.83 1137.11,-313.03"/>
</a>
</g>
</g>
<!-- Node19&#45;&gt;Node18 -->
<g id="edge26_Node000019_Node000018" class="edge">
<title>Node19&#45;&gt;Node18</title>
<g id="a_edge26_Node000019_Node000018"><a xlink:title=" ">
<path fill="none" stroke="#63b8ff" d="M1121.31,-353.94C1121.78,-362.3 1121.37,-371.56 1120.07,-378.34"/>
<polygon fill="#63b8ff" stroke="#63b8ff" points="1124.68,-353.61 1120.05,-344.08 1117.73,-354.42 1124.68,-353.61"/>
</a>
</g>
</g>
<!-- Node20 -->
<g id="Node000020" class="node">
<title>Node20</title>
<g id="a_Node000020"><a xlink:href="DirectionalLight_8hpp.html" target="_top" xlink:title=" ">
<polygon fill="white" stroke="#666666" points="1040.25,-286 901.25,-286 901.25,-252.5 1040.25,-252.5 1040.25,-286"/>
<text text-anchor="start" x="909.25" y="-272.5" font-family="Helvetica,sans-Serif" font-size="10.00">src/lights/directionalLight</text>
<text text-anchor="middle" x="970.75" y="-259.75" font-family="Helvetica,sans-Serif" font-size="10.00">/DirectionalLight.hpp</text>
</a>
</g>
</g>
<!-- Node19&#45;&gt;Node20 -->
<g id="edge27_Node000019_Node000020" class="edge">
<title>Node19&#45;&gt;Node20</title>
<g id="a_edge27_Node000019_Node000020"><a xlink:title=" ">
<path fill="none" stroke="#63b8ff" d="M1081.58,-317.29C1059.93,-308.1 1031.6,-296.08 1009,-286.48"/>
<polygon fill="#63b8ff" stroke="#63b8ff" points="1080.04,-320.87 1090.61,-321.55 1082.78,-314.43 1080.04,-320.87"/>
</a>
</g>
</g>
<!-- Node22 -->
<g id="Node000022" class="node">
<title>Node22</title>
<g id="a_Node000022"><a xlink:href="PointLight_8hpp.html" target="_top" xlink:title=" ">
<polygon fill="white" stroke="#666666" points="1170.75,-286 1058.75,-286 1058.75,-252.5 1170.75,-252.5 1170.75,-286"/>
<text text-anchor="start" x="1066.75" y="-272.5" font-family="Helvetica,sans-Serif" font-size="10.00">src/lights/pointLight</text>
<text text-anchor="middle" x="1114.75" y="-259.75" font-family="Helvetica,sans-Serif" font-size="10.00">/PointLight.hpp</text>
</a>
</g>
</g>
<!-- Node19&#45;&gt;Node22 -->
<g id="edge31_Node000019_Node000022" class="edge">
<title>Node19&#45;&gt;Node22</title>
<g id="a_edge31_Node000019_Node000022"><a xlink:title=" ">
<path fill="none" stroke="#63b8ff" d="M1114.75,-310.65C1114.75,-302.76 1114.75,-293.9 1114.75,-286.48"/>
<polygon fill="#63b8ff" stroke="#63b8ff" points="1111.25,-310.55 1114.75,-320.55 1118.25,-310.55 1111.25,-310.55"/>
</a>
</g>
</g>
<!-- Node20&#45;&gt;Node13 -->
<g id="edge30_Node000020_Node000013" class="edge">
<title>Node20&#45;&gt;Node13</title>
<g id="a_edge30_Node000020_Node000013"><a xlink:title=" ">
<path fill="none" stroke="#63b8ff" d="M970.75,-241.47C970.75,-230.58 970.75,-218.68 970.75,-210.57"/>
<polygon fill="#63b8ff" stroke="#63b8ff" points="967.25,-241.25 970.75,-251.25 974.25,-241.25 967.25,-241.25"/>
</a>
</g>
</g>
<!-- Node20&#45;&gt;Node16 -->
<g id="edge28_Node000020_Node000016" class="edge">
<title>Node20&#45;&gt;Node16</title>
<g id="a_edge28_Node000020_Node000016"><a xlink:title=" ">
<path fill="none" stroke="#63b8ff" d="M1051.04,-252.36C1173.63,-232.65 1207.16,-236.82 1325.75,-216.5 1328.73,-215.99 1331.77,-215.44 1334.83,-214.87"/>
<polygon fill="#63b8ff" stroke="#63b8ff" points="1050.8,-249.02 1041.49,-254.08 1051.92,-255.93 1050.8,-249.02"/>
</a>
</g>
</g>
<!-- Node21 -->
<g id="Node000021" class="node">
<title>Node21</title>
<g id="a_Node000021"><a xlink:href="DirectionalLight_8cpp.html" target="_top" xlink:title=" ">
<polygon fill="white" stroke="#666666" points="1186.25,-216.5 1047.25,-216.5 1047.25,-183 1186.25,-183 1186.25,-216.5"/>
<text text-anchor="start" x="1055.25" y="-203" font-family="Helvetica,sans-Serif" font-size="10.00">src/lights/directionalLight</text>
<text text-anchor="middle" x="1116.75" y="-190.25" font-family="Helvetica,sans-Serif" font-size="10.00">/DirectionalLight.cpp</text>
</a>
</g>
</g>
<!-- Node20&#45;&gt;Node21 -->
<g id="edge29_Node000020_Node000021" class="edge">
<title>Node20&#45;&gt;Node21</title>
<g id="a_edge29_Node000020_Node000021"><a xlink:title=" ">
<path fill="none" stroke="#63b8ff" d="M1015.52,-247.55C1036.83,-237.7 1061.94,-226.09 1081.81,-216.9"/>
<polygon fill="#63b8ff" stroke="#63b8ff" points="1014.33,-244.71 1006.72,-252.08 1017.27,-251.06 1014.33,-244.71"/>
</a>
</g>
</g>
<!-- Node22&#45;&gt;Node13 -->
<g id="edge34_Node000022_Node000013" class="edge">
<title>Node22&#45;&gt;Node13</title>
<g id="a_edge34_Node000022_Node000013"><a xlink:title=" ">
<path fill="none" stroke="#63b8ff" d="M1070.51,-247.51C1044.25,-235.2 1012.16,-220.16 991.6,-210.52"/>
<polygon fill="#63b8ff" stroke="#63b8ff" points="1068.72,-251.01 1079.26,-252.08 1071.69,-244.67 1068.72,-251.01"/>
</a>
</g>
</g>
<!-- Node22&#45;&gt;Node16 -->
<g id="edge32_Node000022_Node000016" class="edge">
<title>Node22&#45;&gt;Node16</title>
<g id="a_edge32_Node000022_Node000016"><a xlink:title=" ">
<path fill="none" stroke="#63b8ff" d="M1181.57,-252.42C1227.81,-241.47 1289.02,-226.98 1334.84,-216.12"/>
<polygon fill="#63b8ff" stroke="#63b8ff" points="1180.98,-249.2 1172.06,-254.91 1182.59,-256.02 1180.98,-249.2"/>
</a>
</g>
</g>
<!-- Node23 -->
<g id="Node000023" class="node">
<title>Node23</title>
<g id="a_Node000023"><a xlink:href="PointLight_8cpp.html" target="_top" xlink:title=" ">
<polygon fill="white" stroke="#666666" points="1316.75,-216.5 1204.75,-216.5 1204.75,-183 1316.75,-183 1316.75,-216.5"/>
<text text-anchor="start" x="1212.75" y="-203" font-family="Helvetica,sans-Serif" font-size="10.00">src/lights/pointLight</text>
<text text-anchor="middle" x="1260.75" y="-190.25" font-family="Helvetica,sans-Serif" font-size="10.00">/PointLight.cpp</text>
</a>
</g>
</g>
<!-- Node22&#45;&gt;Node23 -->
<g id="edge33_Node000022_Node000023" class="edge">
<title>Node22&#45;&gt;Node23</title>
<g id="a_edge33_Node000022_Node000023"><a xlink:title=" ">
<path fill="none" stroke="#63b8ff" d="M1159.52,-247.55C1180.83,-237.7 1205.94,-226.09 1225.81,-216.9"/>
<polygon fill="#63b8ff" stroke="#63b8ff" points="1158.33,-244.71 1150.72,-252.08 1161.27,-251.06 1158.33,-244.71"/>
</a>
</g>
</g>
<!-- Node24&#45;&gt;Node13 -->
<g id="edge38_Node000024_Node000013" class="edge">
<title>Node24&#45;&gt;Node13</title>
<g id="a_edge38_Node000024_Node000013"><a xlink:title=" ">
<path fill="none" stroke="#63b8ff" d="M1216.4,-254.66C1167.45,-244.4 1098.84,-229.86 1038.75,-216.5 1030.35,-214.63 1021.38,-212.59 1012.8,-210.61"/>
<polygon fill="#63b8ff" stroke="#63b8ff" points="1215.66,-258.29 1226.16,-256.91 1217.09,-251.44 1215.66,-258.29"/>
</a>
</g>
</g>
<!-- Node24&#45;&gt;Node16 -->
<g id="edge37_Node000024_Node000016" class="edge">
<title>Node24&#45;&gt;Node16</title>
<g id="a_edge37_Node000024_Node000016"><a xlink:title=" ">
<path fill="none" stroke="#63b8ff" d="M1319.15,-246.86C1336.18,-237.12 1355.99,-225.78 1371.72,-216.79"/>
<polygon fill="#63b8ff" stroke="#63b8ff" points="1317.96,-244.08 1311.01,-252.08 1321.43,-250.15 1317.96,-244.08"/>
</a>
</g>
</g>
<!-- Node25 -->
<g id="Node000025" class="node">
<title>Node25</title>
<g id="a_Node000025"><a xlink:href="Cone_8cpp.html" target="_top" xlink:title=" ">
<polygon fill="white" stroke="#666666" points="1591.25,-216.5 1482.25,-216.5 1482.25,-183 1591.25,-183 1591.25,-216.5"/>
<text text-anchor="start" x="1490.25" y="-203" font-family="Helvetica,sans-Serif" font-size="10.00">src/primitives/cone</text>
<text text-anchor="middle" x="1536.75" y="-190.25" font-family="Helvetica,sans-Serif" font-size="10.00">/Cone.cpp</text>
</a>
</g>
</g>
<!-- Node24&#45;&gt;Node25 -->
<g id="edge39_Node000024_Node000025" class="edge">
<title>Node24&#45;&gt;Node25</title>
<g id="a_edge39_Node000024_Node000025"><a xlink:title=" ">
<path fill="none" stroke="#63b8ff" d="M1346.83,-251.02C1388.7,-239.94 1442.49,-225.7 1482.14,-215.21"/>
<polygon fill="#63b8ff" stroke="#63b8ff" points="1346.23,-247.83 1337.45,-253.77 1348.02,-254.59 1346.23,-247.83"/>
</a>
</g>
</g>
<!-- Node26&#45;&gt;Node13 -->
<g id="edge42_Node000026_Node000013" class="edge">
<title>Node26&#45;&gt;Node13</title>
<g id="a_edge42_Node000026_Node000013"><a xlink:title=" ">
<path fill="none" stroke="#63b8ff" d="M1343.35,-252.2C1208.39,-230.1 1170.66,-239.44 1038.75,-216.5 1029.32,-214.86 1019.23,-212.73 1009.79,-210.57"/>
<polygon fill="#63b8ff" stroke="#63b8ff" points="1342.66,-255.8 1353.1,-253.99 1343.81,-248.89 1342.66,-255.8"/>
</a>
</g>
</g>
<!-- Node26&#45;&gt;Node16 -->
<g id="edge41_Node000026_Node000016" class="edge">
<title>Node26&#45;&gt;Node16</title>
<g id="a_edge41_Node000026_Node000016"><a xlink:title=" ">
<path fill="none" stroke="#63b8ff" d="M1410.06,-241.67C1407.92,-233.2 1405.63,-224.1 1403.75,-216.63"/>
<polygon fill="#63b8ff" stroke="#63b8ff" points="1406.88,-242.41 1412.72,-251.25 1413.67,-240.7 1406.88,-242.41"/>
</a>
</g>
</g>
<!-- Node27 -->
<g id="Node000027" class="node">
<title>Node27</title>
<g id="a_Node000027"><a xlink:href="Cylinder_8cpp.html" target="_top" xlink:title=" ">
<polygon fill="white" stroke="#666666" points="1734.12,-216.5 1609.38,-216.5 1609.38,-183 1734.12,-183 1734.12,-216.5"/>
<text text-anchor="start" x="1617.38" y="-203" font-family="Helvetica,sans-Serif" font-size="10.00">src/primitives/cylinder</text>
<text text-anchor="middle" x="1671.75" y="-190.25" font-family="Helvetica,sans-Serif" font-size="10.00">/Cylinder.cpp</text>
</a>
</g>
</g>
<!-- Node26&#45;&gt;Node27 -->
<g id="edge43_Node000026_Node000027" class="edge">
<title>Node26&#45;&gt;Node27</title>
<g id="a_edge43_Node000026_Node000027"><a xlink:title=" ">
<path fill="none" stroke="#63b8ff" d="M1488.45,-249.27C1526.98,-239.07 1573.97,-226.63 1610.73,-216.9"/>
<polygon fill="#63b8ff" stroke="#63b8ff" points="1487.6,-246.14 1478.83,-252.08 1489.39,-252.91 1487.6,-246.14"/>
</a>
</g>
</g>
<!-- Node28&#45;&gt;Node3 -->
<g id="edge49_Node000028_Node000003" class="edge">
<title>Node28&#45;&gt;Node3</title>
<g id="a_edge49_Node000028_Node000003"><a xlink:title=" ">
<path fill="none" stroke="#63b8ff" d="M745.43,-261.43C658.33,-252.36 501.95,-235.29 368.75,-216.5 353.52,-214.35 336.97,-211.71 322.01,-209.21"/>
<polygon fill="#63b8ff" stroke="#63b8ff" points="744.91,-264.99 755.22,-262.54 745.63,-258.03 744.91,-264.99"/>
</a>
</g>
</g>
<!-- Node28&#45;&gt;Node5 -->
<g id="edge50_Node000028_Node000005" class="edge">
<title>Node28&#45;&gt;Node5</title>
<g id="a_edge50_Node000028_Node000005"><a xlink:title=" ">
<path fill="none" stroke="#63b8ff" d="M745.51,-256.86C698.68,-248.06 635.13,-234.36 580.75,-216.5 545.68,-204.98 539.18,-196.3 504.75,-183 462.94,-166.85 413.69,-150.92 382.12,-141.09"/>
<polygon fill="#63b8ff" stroke="#63b8ff" points="744.66,-260.45 755.14,-258.83 745.94,-253.57 744.66,-260.45"/>
</a>
</g>
</g>
<!-- Node28&#45;&gt;Node13 -->
<g id="edge52_Node000028_Node000013" class="edge">
<title>Node28&#45;&gt;Node13</title>
<g id="a_edge52_Node000028_Node000013"><a xlink:title=" ">
<path fill="none" stroke="#63b8ff" d="M860.53,-247.84C889.48,-235.47 925.11,-220.25 947.88,-210.52"/>
<polygon fill="#63b8ff" stroke="#63b8ff" points="859.42,-244.93 851.59,-252.08 862.17,-251.37 859.42,-244.93"/>
</a>
</g>
</g>
<!-- Node28&#45;&gt;Node16 -->
<g id="edge51_Node000028_Node000016" class="edge">
<title>Node28&#45;&gt;Node16</title>
<g id="a_edge51_Node000028_Node000016"><a xlink:title=" ">
<path fill="none" stroke="#63b8ff" d="M880.08,-254.44C884.36,-253.73 888.61,-253.08 892.75,-252.5 1084,-225.81 1134.71,-244.66 1325.75,-216.5 1328.74,-216.06 1331.79,-215.57 1334.86,-215.05"/>
<polygon fill="#63b8ff" stroke="#63b8ff" points="879.69,-251.13 870.43,-256.28 880.88,-258.02 879.69,-251.13"/>
</a>
</g>
</g>
<!-- Node29 -->
<g id="Node000029" class="node">
<title>Node29</title>
<g id="a_Node000029"><a xlink:href="Primitive__fact_8cpp.html" target="_top" xlink:title=" ">
<polygon fill="white" stroke="#666666" points="725,-140.62 590.5,-140.62 590.5,-119.88 725,-119.88 725,-140.62"/>
<text text-anchor="middle" x="657.75" y="-127.12" font-family="Helvetica,sans-Serif" font-size="10.00">paser/Primitive_fact.cpp</text>
</a>
</g>
</g>
<!-- Node28&#45;&gt;Node29 -->
<g id="edge45_Node000028_Node000029" class="edge">
<title>Node28&#45;&gt;Node29</title>
<g id="a_edge45_Node000028_Node000029"><a xlink:title=" ">
<path fill="none" stroke="#63b8ff" d="M842.57,-245.01C861.64,-227.32 880.15,-202.73 864.75,-183 847.57,-160.99 778.84,-146.96 725.23,-139.14"/>
<polygon fill="#63b8ff" stroke="#63b8ff" points="840.67,-242.91 835.46,-252.14 845.29,-248.17 840.67,-242.91"/>
</a>
</g>
</g>
<!-- Node30 -->
<g id="Node000030" class="node">
<title>Node30</title>
<g id="a_Node000030"><a xlink:href="Primitive__fact_8hpp.html" target="_top" xlink:title=" ">
<polygon fill="white" stroke="#666666" points="725.38,-210.12 590.12,-210.12 590.12,-189.38 725.38,-189.38 725.38,-210.12"/>
<text text-anchor="middle" x="657.75" y="-196.62" font-family="Helvetica,sans-Serif" font-size="10.00">paser/Primitive_fact.hpp</text>
</a>
</g>
</g>
<!-- Node28&#45;&gt;Node30 -->
<g id="edge46_Node000028_Node000030" class="edge">
<title>Node28&#45;&gt;Node30</title>
<g id="a_edge46_Node000028_Node000030"><a xlink:title=" ">
<path fill="none" stroke="#63b8ff" d="M765.88,-247.84C737.47,-235.47 702.52,-220.25 680.19,-210.52"/>
<polygon fill="#63b8ff" stroke="#63b8ff" points="764.06,-251.3 774.62,-252.08 766.85,-244.88 764.06,-251.3"/>
</a>
</g>
</g>
<!-- Node31 -->
<g id="Node000031" class="node">
<title>Node31</title>
<g id="a_Node000031"><a xlink:href="Plane_8cpp.html" target="_top" xlink:title=" ">
<polygon fill="white" stroke="#666666" points="856.12,-216.5 743.38,-216.5 743.38,-183 856.12,-183 856.12,-216.5"/>
<text text-anchor="start" x="751.38" y="-203" font-family="Helvetica,sans-Serif" font-size="10.00">src/primitives/plane</text>
<text text-anchor="middle" x="799.75" y="-190.25" font-family="Helvetica,sans-Serif" font-size="10.00">/Plane.cpp</text>
</a>
</g>
</g>
<!-- Node28&#45;&gt;Node31 -->
<g id="edge53_Node000028_Node000031" class="edge">
<title>Node28&#45;&gt;Node31</title>
<g id="a_edge53_Node000028_Node000031"><a xlink:title=" ">
<path fill="none" stroke="#63b8ff" d="M807.63,-241.67C806,-233.2 804.25,-224.1 802.81,-216.63"/>
<polygon fill="#63b8ff" stroke="#63b8ff" points="804.34,-242.1 809.67,-251.25 811.21,-240.77 804.34,-242.1"/>
</a>
</g>
</g>
<!-- Node30&#45;&gt;Node4 -->
<g id="edge48_Node000030_Node000004" class="edge">
<title>Node30&#45;&gt;Node4</title>
<g id="a_edge48_Node000030_Node000004"><a xlink:title=" ">
<path fill="none" stroke="#63b8ff" d="M621.63,-185.11C551.52,-158.64 398.56,-100.9 337.59,-77.88"/>
<polygon fill="#63b8ff" stroke="#63b8ff" points="620.15,-188.67 630.74,-188.93 622.62,-182.13 620.15,-188.67"/>
</a>
</g>
</g>
<!-- Node30&#45;&gt;Node29 -->
<g id="edge47_Node000030_Node000029" class="edge">
<title>Node30&#45;&gt;Node29</title>
<g id="a_edge47_Node000030_Node000029"><a xlink:title=" ">
<path fill="none" stroke="#63b8ff" d="M657.75,-178.33C657.75,-165.91 657.75,-150.62 657.75,-140.9"/>
<polygon fill="#63b8ff" stroke="#63b8ff" points="654.25,-178.08 657.75,-188.08 661.25,-178.08 654.25,-178.08"/>
</a>
</g>
</g>
<!-- Node32&#45;&gt;Node3 -->
<g id="edge57_Node000032_Node000003" class="edge">
<title>Node32&#45;&gt;Node3</title>
<g id="a_edge57_Node000032_Node000003"><a xlink:title=" ">
<path fill="none" stroke="#63b8ff" d="M520.42,-254.93C469.1,-244.98 397.94,-230.7 335.75,-216.5 327.85,-214.7 319.41,-212.64 311.38,-210.62"/>
<polygon fill="#63b8ff" stroke="#63b8ff" points="519.58,-258.53 530.06,-256.99 520.91,-251.65 519.58,-258.53"/>
</a>
</g>
</g>
<!-- Node32&#45;&gt;Node5 -->
<g id="edge58_Node000032_Node000005" class="edge">
<title>Node32&#45;&gt;Node5</title>
<g id="a_edge58_Node000032_Node000005"><a xlink:title=" ">
<path fill="none" stroke="#63b8ff" d="M520.24,-260.03C463.48,-251.97 389.81,-237.77 368.75,-216.5 348.37,-195.92 347.82,-158.59 348.86,-140.97"/>
<polygon fill="#63b8ff" stroke="#63b8ff" points="519.6,-263.61 529.99,-261.51 520.56,-256.68 519.6,-263.61"/>
</a>
</g>
</g>
<!-- Node32&#45;&gt;Node13 -->
<g id="edge60_Node000032_Node000013" class="edge">
<title>Node32&#45;&gt;Node13</title>
<g id="a_edge60_Node000032_Node000013"><a xlink:title=" ">
<path fill="none" stroke="#63b8ff" d="M661.07,-255.76C734.46,-242.72 848.03,-222.55 915.32,-210.6"/>
<polygon fill="#63b8ff" stroke="#63b8ff" points="660.78,-252.43 651.54,-257.63 662,-259.33 660.78,-252.43"/>
</a>
</g>
</g>
<!-- Node32&#45;&gt;Node16 -->
<g id="edge59_Node000032_Node000016" class="edge">
<title>Node32&#45;&gt;Node16</title>
<g id="a_edge59_Node000032_Node000016"><a xlink:title=" ">
<path fill="none" stroke="#63b8ff" d="M661.26,-260.6C688.29,-257.82 719.43,-254.8 747.75,-252.5 1004.29,-231.65 1070.74,-251.39 1325.75,-216.5 1328.74,-216.09 1331.8,-215.63 1334.87,-215.12"/>
<polygon fill="#63b8ff" stroke="#63b8ff" points="660.93,-257.22 651.34,-261.74 661.65,-264.19 660.93,-257.22"/>
</a>
</g>
</g>
<!-- Node32&#45;&gt;Node29 -->
<g id="edge55_Node000032_Node000029" class="edge">
<title>Node32&#45;&gt;Node29</title>
<g id="a_edge55_Node000032_Node000029"><a xlink:title=" ">
<path fill="none" stroke="#63b8ff" d="M580.11,-241.97C574.71,-224.32 571.12,-201.08 580.75,-183 591.43,-162.96 613.7,-149.29 631.56,-141.06"/>
<polygon fill="#63b8ff" stroke="#63b8ff" points="577.04,-242.82 583.6,-251.14 583.66,-240.55 577.04,-242.82"/>
</a>
</g>
</g>
<!-- Node32&#45;&gt;Node30 -->
<g id="edge56_Node000032_Node000030" class="edge">
<title>Node32&#45;&gt;Node30</title>
<g id="a_edge56_Node000032_Node000030"><a xlink:title=" ">
<path fill="none" stroke="#63b8ff" d="M614.29,-244.54C625.87,-232.87 639.19,-219.45 648,-210.57"/>
<polygon fill="#63b8ff" stroke="#63b8ff" points="612.19,-241.69 607.63,-251.25 617.16,-246.62 612.19,-241.69"/>
</a>
</g>
</g>
<!-- Node33 -->
<g id="Node000033" class="node">
<title>Node33</title>
<g id="a_Node000033"><a xlink:href="Sphere_8cpp.html" target="_top" xlink:title=" ">
<polygon fill="white" stroke="#666666" points="496.12,-216.5 377.38,-216.5 377.38,-183 496.12,-183 496.12,-216.5"/>
<text text-anchor="start" x="385.38" y="-203" font-family="Helvetica,sans-Serif" font-size="10.00">src/primitives/sphere</text>
<text text-anchor="middle" x="436.75" y="-190.25" font-family="Helvetica,sans-Serif" font-size="10.00">/Sphere.cpp</text>
</a>
</g>
</g>
<!-- Node32&#45;&gt;Node33 -->
<g id="edge61_Node000032_Node000033" class="edge">
<title>Node32&#45;&gt;Node33</title>
<g id="a_edge61_Node000032_Node000033"><a xlink:title=" ">
<path fill="none" stroke="#63b8ff" d="M543.83,-247.68C521.29,-237.8 494.66,-226.13 473.6,-216.9"/>
<polygon fill="#63b8ff" stroke="#63b8ff" points="542.3,-251.27 552.86,-252.08 545.11,-244.86 542.3,-251.27"/>
</a>
</g>
</g>
</g>
</svg>
