<?xml version="1.0" encoding="UTF-8" standalone="no"?>
<!DOCTYPE svg PUBLIC "-//W3C//DTD SVG 1.1//EN"
 "http://www.w3.org/Graphics/SVG/1.1/DTD/svg11.dtd">
<!-- Generated by graphviz version 8.1.0 (20230707.0739)
 -->
<!-- Title: paser/parse.hpp Pages: 1 -->
<svg width="1354pt" height="395pt"
 viewBox="0.00 0.00 1353.88 394.75" xmlns="http://www.w3.org/2000/svg" xmlns:xlink="http://www.w3.org/1999/xlink">
<g id="graph0" class="graph" transform="scale(1 1) rotate(0) translate(4 390.75)">
<title>paser/parse.hpp</title>
<!-- Node1 -->
<g id="Node000001" class="node">
<title>Node1</title>
<g id="a_Node000001"><a xlink:title=" ">
<polygon fill="#999999" stroke="#666666" points="511,-386.75 417,-386.75 417,-366 511,-366 511,-386.75"/>
<text text-anchor="middle" x="464" y="-373.25" font-family="Helvetica,sans-Serif" font-size="10.00">paser/parse.hpp</text>
</a>
</g>
</g>
<!-- Node2 -->
<g id="Node000002" class="node">
<title>Node2</title>
<g id="a_Node000002"><a xlink:title=" ">
<polygon fill="#e0e0e0" stroke="#999999" points="98.88,-20.75 55.12,-20.75 55.12,0 98.88,0 98.88,-20.75"/>
<text text-anchor="middle" x="77" y="-7.25" font-family="Helvetica,sans-Serif" font-size="10.00">string</text>
</a>
</g>
</g>
<!-- Node1&#45;&gt;Node2 -->
<g id="edge1_Node000001_Node000002" class="edge">
<title>Node1&#45;&gt;Node2</title>
<g id="a_edge1_Node000001_Node000002"><a xlink:title=" ">
<path fill="none" stroke="#63b8ff" d="M416.52,-373.37C298.27,-367.09 0,-342.8 0,-257.5 0,-257.5 0,-257.5 0,-129.25 0,-87.63 34.06,-49.24 56.87,-28.18"/>
<polygon fill="#63b8ff" stroke="#63b8ff" points="58.81,-31.25 63.97,-21.99 54.17,-26.02 58.81,-31.25"/>
</a>
</g>
</g>
<!-- Node3 -->
<g id="Node000003" class="node">
<title>Node3</title>
<g id="a_Node000003"><a xlink:href="ErrorHandler_8hpp.html" target="_top" xlink:title=" ">
<polygon fill="white" stroke="#666666" points="125.88,-203.75 28.12,-203.75 28.12,-183 125.88,-183 125.88,-203.75"/>
<text text-anchor="middle" x="77" y="-190.25" font-family="Helvetica,sans-Serif" font-size="10.00">ErrorHandler.hpp</text>
</a>
</g>
</g>
<!-- Node1&#45;&gt;Node3 -->
<g id="edge2_Node000001_Node000003" class="edge">
<title>Node1&#45;&gt;Node3</title>
<g id="a_edge2_Node000001_Node000003"><a xlink:title=" ">
<path fill="none" stroke="#63b8ff" d="M416.77,-369.33C350.09,-358.95 226.82,-332.79 140,-273.25 117.29,-257.67 98.72,-231.5 87.76,-213.6"/>
<polygon fill="#63b8ff" stroke="#63b8ff" points="90.31,-212.02 82.22,-205.17 84.27,-215.56 90.31,-212.02"/>
</a>
</g>
</g>
<!-- Node4 -->
<g id="Node000004" class="node">
<title>Node4</title>
<g id="a_Node000004"><a xlink:href="Sphere_8hpp.html" target="_top" xlink:title=" ">
<polygon fill="white" stroke="#666666" points="309.88,-273.25 182.12,-273.25 182.12,-239.75 309.88,-239.75 309.88,-273.25"/>
<text text-anchor="start" x="190.12" y="-259.75" font-family="Helvetica,sans-Serif" font-size="10.00">../src/primitives/sphere</text>
<text text-anchor="middle" x="246" y="-247" font-family="Helvetica,sans-Serif" font-size="10.00">/Sphere.hpp</text>
</a>
</g>
</g>
<!-- Node1&#45;&gt;Node4 -->
<g id="edge4_Node000001_Node000004" class="edge">
<title>Node1&#45;&gt;Node4</title>
<g id="a_edge4_Node000001_Node000004"><a xlink:title=" ">
<path fill="none" stroke="#63b8ff" d="M445.79,-365.53C410.73,-346.57 333.12,-304.61 285.61,-278.92"/>
<polygon fill="#63b8ff" stroke="#63b8ff" points="287.42,-275.38 276.96,-273.7 284.09,-281.53 287.42,-275.38"/>
</a>
</g>
</g>
<!-- Node18 -->
<g id="Node000018" class="node">
<title>Node18</title>
<g id="a_Node000018"><a xlink:href="Plane_8hpp.html" target="_top" xlink:title=" ">
<polygon fill="white" stroke="#666666" points="1345.88,-273.25 1224.12,-273.25 1224.12,-239.75 1345.88,-239.75 1345.88,-273.25"/>
<text text-anchor="start" x="1232.12" y="-259.75" font-family="Helvetica,sans-Serif" font-size="10.00">../src/primitives/plane</text>
<text text-anchor="middle" x="1285" y="-247" font-family="Helvetica,sans-Serif" font-size="10.00">/Plane.hpp</text>
</a>
</g>
</g>
<!-- Node1&#45;&gt;Node18 -->
<g id="edge26_Node000001_Node000018" class="edge">
<title>Node1&#45;&gt;Node18</title>
<g id="a_edge26_Node000001_Node000018"><a xlink:title=" ">
<path fill="none" stroke="#63b8ff" d="M511.46,-367.9C551.19,-360.77 608.94,-348.39 657,-330 674.97,-323.12 676.53,-314.65 695,-309.25 913.99,-245.22 983.67,-304.91 1212.95,-273.38"/>
<polygon fill="#63b8ff" stroke="#63b8ff" points="1213.23,-276.73 1222.64,-271.86 1212.25,-269.8 1213.23,-276.73"/>
</a>
</g>
</g>
<!-- Node19 -->
<g id="Node000019" class="node">
<title>Node19</title>
<g id="a_Node000019"><a xlink:href="paser_2Scene_8hpp.html" target="_top" xlink:title=" ">
<polygon fill="white" stroke="#666666" points="648.12,-330 581.88,-330 581.88,-309.25 648.12,-309.25 648.12,-330"/>
<text text-anchor="middle" x="615" y="-316.5" font-family="Helvetica,sans-Serif" font-size="10.00">Scene.hpp</text>
</a>
</g>
</g>
<!-- Node1&#45;&gt;Node19 -->
<g id="edge29_Node000001_Node000019" class="edge">
<title>Node1&#45;&gt;Node19</title>
<g id="a_edge29_Node000001_Node000019"><a xlink:title=" ">
<path fill="none" stroke="#63b8ff" d="M491,-365.59C515.18,-356.82 550.89,-343.87 577.79,-334.12"/>
<polygon fill="#63b8ff" stroke="#63b8ff" points="578.78,-337.12 586.98,-330.42 576.39,-330.54 578.78,-337.12"/>
</a>
</g>
</g>
<!-- Node28 -->
<g id="Node000028" class="node">
<title>Node28</title>
<g id="a_Node000028"><a xlink:title=" ">
<polygon fill="#e0e0e0" stroke="#999999" points="786.38,-330 703.62,-330 703.62,-309.25 786.38,-309.25 786.38,-330"/>
<text text-anchor="middle" x="745" y="-316.5" font-family="Helvetica,sans-Serif" font-size="10.00">libconfig.h++</text>
</a>
</g>
</g>
<!-- Node1&#45;&gt;Node28 -->
<g id="edge47_Node000001_Node000028" class="edge">
<title>Node1&#45;&gt;Node28</title>
<g id="a_edge47_Node000001_Node000028"><a xlink:title=" ">
<path fill="none" stroke="#63b8ff" d="M511.35,-366.15C561.58,-356.36 640.73,-340.94 692.75,-330.81"/>
<polygon fill="#63b8ff" stroke="#63b8ff" points="693.27,-334.07 702.42,-328.73 691.93,-327.2 693.27,-334.07"/>
</a>
</g>
</g>
<!-- Node3&#45;&gt;Node2 -->
<g id="edge3_Node000003_Node000002" class="edge">
<title>Node3&#45;&gt;Node2</title>
<g id="a_edge3_Node000003_Node000002"><a xlink:title=" ">
<path fill="none" stroke="#63b8ff" d="M77,-182.64C77,-154.22 77,-70.9 77,-31.92"/>
<polygon fill="#63b8ff" stroke="#63b8ff" points="80.5,-32.15 77,-22.15 73.5,-32.15 80.5,-32.15"/>
</a>
</g>
</g>
<!-- Node5 -->
<g id="Node000005" class="node">
<title>Node5</title>
<g id="a_Node000005"><a xlink:href="IPrimitive_8hpp.html" target="_top" xlink:title=" ">
<polygon fill="white" stroke="#666666" points="575.62,-203.75 482.38,-203.75 482.38,-183 575.62,-183 575.62,-203.75"/>
<text text-anchor="middle" x="529" y="-190.25" font-family="Helvetica,sans-Serif" font-size="10.00">../IPrimitive.hpp</text>
</a>
</g>
</g>
<!-- Node4&#45;&gt;Node5 -->
<g id="edge5_Node000004_Node000005" class="edge">
<title>Node4&#45;&gt;Node5</title>
<g id="a_edge5_Node000004_Node000005"><a xlink:title=" ">
<path fill="none" stroke="#63b8ff" d="M310.37,-241.41C312.95,-240.85 315.5,-240.29 318,-239.75 370.21,-228.43 429.72,-215.64 472.2,-206.53"/>
<polygon fill="#63b8ff" stroke="#63b8ff" points="472.85,-209.76 481.89,-204.24 471.38,-202.92 472.85,-209.76"/>
</a>
</g>
</g>
<!-- Node17 -->
<g id="Node000017" class="node">
<title>Node17</title>
<g id="a_Node000017"><a xlink:title=" ">
<polygon fill="#e0e0e0" stroke="#999999" points="1030.88,-140.62 993.12,-140.62 993.12,-119.88 1030.88,-119.88 1030.88,-140.62"/>
<text text-anchor="middle" x="1012" y="-127.12" font-family="Helvetica,sans-Serif" font-size="10.00">map</text>
</a>
</g>
</g>
<!-- Node4&#45;&gt;Node17 -->
<g id="edge25_Node000004_Node000017" class="edge">
<title>Node4&#45;&gt;Node17</title>
<g id="a_edge25_Node000004_Node000017"><a xlink:title=" ">
<path fill="none" stroke="#63b8ff" d="M310.29,-240.91C312.89,-240.49 315.46,-240.1 318,-239.75 456.49,-220.75 819.82,-263.89 946,-203.75 970.15,-192.24 989.52,-167.54 1000.88,-150.18"/>
<polygon fill="#63b8ff" stroke="#63b8ff" points="1004.3,-152.3 1006.62,-141.96 998.36,-148.6 1004.3,-152.3"/>
</a>
</g>
</g>
<!-- Node6 -->
<g id="Node000006" class="node">
<title>Node6</title>
<g id="a_Node000006"><a xlink:href="Color_8hpp.html" target="_top" xlink:title=" ">
<polygon fill="white" stroke="#666666" points="445.88,-140.62 312.12,-140.62 312.12,-119.88 445.88,-119.88 445.88,-140.62"/>
<text text-anchor="middle" x="379" y="-127.12" font-family="Helvetica,sans-Serif" font-size="10.00">../core/helpers/Color.hpp</text>
</a>
</g>
</g>
<!-- Node5&#45;&gt;Node6 -->
<g id="edge6_Node000005_Node000006" class="edge">
<title>Node5&#45;&gt;Node6</title>
<g id="a_edge6_Node000005_Node000006"><a xlink:title=" ">
<path fill="none" stroke="#63b8ff" d="M504.9,-182.55C480.08,-172.44 441.18,-156.59 413.18,-145.18"/>
<polygon fill="#63b8ff" stroke="#63b8ff" points="414.62,-141.58 404.04,-141.05 411.98,-148.06 414.62,-141.58"/>
</a>
</g>
</g>
<!-- Node7 -->
<g id="Node000007" class="node">
<title>Node7</title>
<g id="a_Node000007"><a xlink:title=" ">
<polygon fill="#e0e0e0" stroke="#999999" points="617.75,-20.75 558.25,-20.75 558.25,0 617.75,0 617.75,-20.75"/>
<text text-anchor="middle" x="588" y="-7.25" font-family="Helvetica,sans-Serif" font-size="10.00">iostream</text>
</a>
</g>
</g>
<!-- Node5&#45;&gt;Node7 -->
<g id="edge22_Node000005_Node000007" class="edge">
<title>Node5&#45;&gt;Node7</title>
<g id="a_edge22_Node000005_Node000007"><a xlink:title=" ">
<path fill="none" stroke="#63b8ff" d="M482.09,-193.35C405.94,-192.97 267.34,-183.02 303,-113.5 347.99,-25.78 480.04,-11.78 547.43,-10.56"/>
<polygon fill="#63b8ff" stroke="#63b8ff" points="547.09,-14.06 557.06,-10.47 547.02,-7.06 547.09,-14.06"/>
</a>
</g>
</g>
<!-- Node8 -->
<g id="Node000008" class="node">
<title>Node8</title>
<g id="a_Node000008"><a xlink:href="Ray_8hpp.html" target="_top" xlink:title=" ">
<polygon fill="white" stroke="#666666" points="776.12,-140.62 649.88,-140.62 649.88,-119.88 776.12,-119.88 776.12,-140.62"/>
<text text-anchor="middle" x="713" y="-127.12" font-family="Helvetica,sans-Serif" font-size="10.00">../core/helpers/Ray.hpp</text>
</a>
</g>
</g>
<!-- Node5&#45;&gt;Node8 -->
<g id="edge8_Node000005_Node000008" class="edge">
<title>Node5&#45;&gt;Node8</title>
<g id="a_edge8_Node000005_Node000008"><a xlink:title=" ">
<path fill="none" stroke="#63b8ff" d="M558.56,-182.55C589.68,-172.22 638.84,-155.89 673.32,-144.43"/>
<polygon fill="#63b8ff" stroke="#63b8ff" points="674.12,-147.52 682.51,-141.05 671.92,-140.88 674.12,-147.52"/>
</a>
</g>
</g>
<!-- Node9 -->
<g id="Node000009" class="node">
<title>Node9</title>
<g id="a_Node000009"><a xlink:href="Math_8hpp.html" target="_top" xlink:title=" ">
<polygon fill="white" stroke="#666666" points="712.62,-77.5 613.38,-77.5 613.38,-56.75 712.62,-56.75 712.62,-77.5"/>
<text text-anchor="middle" x="663" y="-64" font-family="Helvetica,sans-Serif" font-size="10.00">../math/Math.hpp</text>
</a>
</g>
</g>
<!-- Node5&#45;&gt;Node9 -->
<g id="edge12_Node000005_Node000009" class="edge">
<title>Node5&#45;&gt;Node9</title>
<g id="a_edge12_Node000005_Node000009"><a xlink:title=" ">
<path fill="none" stroke="#63b8ff" d="M549.21,-182.62C564.91,-174.44 586.68,-161.76 603,-147 622.84,-129.06 640.71,-103.81 651.69,-86.76"/>
<polygon fill="#63b8ff" stroke="#63b8ff" points="654.97,-89.11 657.32,-78.78 649.04,-85.39 654.97,-89.11"/>
</a>
</g>
</g>
<!-- Node11 -->
<g id="Node000011" class="node">
<title>Node11</title>
<g id="a_Node000011"><a xlink:href="Matrix_8hpp.html" target="_top" xlink:title=" ">
<polygon fill="white" stroke="#666666" points="594,-140.62 464,-140.62 464,-119.88 594,-119.88 594,-140.62"/>
<text text-anchor="middle" x="529" y="-127.12" font-family="Helvetica,sans-Serif" font-size="10.00">../core/math/Matrix.hpp</text>
</a>
</g>
</g>
<!-- Node5&#45;&gt;Node11 -->
<g id="edge13_Node000005_Node000011" class="edge">
<title>Node5&#45;&gt;Node11</title>
<g id="a_edge13_Node000005_Node000011"><a xlink:title=" ">
<path fill="none" stroke="#63b8ff" d="M529,-182.55C529,-174.22 529,-161.98 529,-151.55"/>
<polygon fill="#63b8ff" stroke="#63b8ff" points="532.5,-151.84 529,-141.84 525.5,-151.84 532.5,-151.84"/>
</a>
</g>
</g>
<!-- Node15 -->
<g id="Node000015" class="node">
<title>Node15</title>
<g id="a_Node000015"><a xlink:title=" ">
<polygon fill="#e0e0e0" stroke="#999999" points="164.38,-77.5 117.62,-77.5 117.62,-56.75 164.38,-56.75 164.38,-77.5"/>
<text text-anchor="middle" x="141" y="-64" font-family="Helvetica,sans-Serif" font-size="10.00">vector</text>
</a>
</g>
</g>
<!-- Node5&#45;&gt;Node15 -->
<g id="edge24_Node000005_Node000015" class="edge">
<title>Node5&#45;&gt;Node15</title>
<g id="a_edge24_Node000005_Node000015"><a xlink:title=" ">
<path fill="none" stroke="#63b8ff" d="M482.24,-189.46C429.28,-184.97 341.11,-173.85 270,-147 228.84,-131.46 186.29,-102.46 161.8,-84.29"/>
<polygon fill="#63b8ff" stroke="#63b8ff" points="164.44,-81.13 154.35,-77.9 160.22,-86.72 164.44,-81.13"/>
</a>
</g>
</g>
<!-- Node5&#45;&gt;Node17 -->
<g id="edge23_Node000005_Node000017" class="edge">
<title>Node5&#45;&gt;Node17</title>
<g id="a_edge23_Node000005_Node000017"><a xlink:title=" ">
<path fill="none" stroke="#63b8ff" d="M575.86,-189.21C653.31,-183.55 812.71,-170.06 946,-147 957.93,-144.94 970.91,-141.99 982.18,-139.21"/>
<polygon fill="#63b8ff" stroke="#63b8ff" points="982.95,-142.37 991.78,-136.51 981.23,-135.58 982.95,-142.37"/>
</a>
</g>
</g>
<!-- Node6&#45;&gt;Node7 -->
<g id="edge7_Node000006_Node000007" class="edge">
<title>Node6&#45;&gt;Node7</title>
<g id="a_edge7_Node000006_Node000007"><a xlink:title=" ">
<path fill="none" stroke="#63b8ff" d="M378.6,-119.75C378.51,-104.28 380.7,-73.68 398,-56.75 418.9,-36.3 497.87,-22.81 547.18,-16.18"/>
<polygon fill="#63b8ff" stroke="#63b8ff" points="547.36,-19.56 556.82,-14.8 546.46,-12.62 547.36,-19.56"/>
</a>
</g>
</g>
<!-- Node8&#45;&gt;Node9 -->
<g id="edge9_Node000008_Node000009" class="edge">
<title>Node8&#45;&gt;Node9</title>
<g id="a_edge9_Node000008_Node000009"><a xlink:title=" ">
<path fill="none" stroke="#63b8ff" d="M704.97,-119.43C697.63,-110.47 686.61,-96.99 677.71,-86.1"/>
<polygon fill="#63b8ff" stroke="#63b8ff" points="679.89,-84.24 670.85,-78.72 674.47,-88.68 679.89,-84.24"/>
</a>
</g>
</g>
<!-- Node9&#45;&gt;Node7 -->
<g id="edge10_Node000009_Node000007" class="edge">
<title>Node9&#45;&gt;Node7</title>
<g id="a_edge10_Node000009_Node000007"><a xlink:title=" ">
<path fill="none" stroke="#63b8ff" d="M649.59,-56.34C638.61,-48.32 622.84,-36.81 610.01,-27.44"/>
<polygon fill="#63b8ff" stroke="#63b8ff" points="612.43,-24.15 602.29,-21.08 608.31,-29.8 612.43,-24.15"/>
</a>
</g>
</g>
<!-- Node10 -->
<g id="Node000010" class="node">
<title>Node10</title>
<g id="a_Node000010"><a xlink:title=" ">
<polygon fill="#e0e0e0" stroke="#999999" points="686.38,-20.75 639.62,-20.75 639.62,0 686.38,0 686.38,-20.75"/>
<text text-anchor="middle" x="663" y="-7.25" font-family="Helvetica,sans-Serif" font-size="10.00">cmath</text>
</a>
</g>
</g>
<!-- Node9&#45;&gt;Node10 -->
<g id="edge11_Node000009_Node000010" class="edge">
<title>Node9&#45;&gt;Node10</title>
<g id="a_edge11_Node000009_Node000010"><a xlink:title=" ">
<path fill="none" stroke="#63b8ff" d="M663,-56.34C663,-49.56 663,-40.3 663,-31.94"/>
<polygon fill="#63b8ff" stroke="#63b8ff" points="666.5,-32.08 663,-22.08 659.5,-32.08 666.5,-32.08"/>
</a>
</g>
</g>
<!-- Node11&#45;&gt;Node7 -->
<g id="edge19_Node000011_Node000007" class="edge">
<title>Node11&#45;&gt;Node7</title>
<g id="a_edge19_Node000011_Node000007"><a xlink:title=" ">
<path fill="none" stroke="#63b8ff" d="M537.04,-119.46C544.97,-109.42 557.05,-93.1 565,-77.5 572.51,-62.76 578.54,-45 582.53,-31.6"/>
<polygon fill="#63b8ff" stroke="#63b8ff" points="586.14,-32.7 585.51,-22.13 579.41,-30.79 586.14,-32.7"/>
</a>
</g>
</g>
<!-- Node11&#45;&gt;Node9 -->
<g id="edge14_Node000011_Node000009" class="edge">
<title>Node11&#45;&gt;Node9</title>
<g id="a_edge14_Node000011_Node000009"><a xlink:title=" ">
<path fill="none" stroke="#63b8ff" d="M550.53,-119.43C572.51,-109.4 606.84,-93.74 631.8,-82.36"/>
<polygon fill="#63b8ff" stroke="#63b8ff" points="632.88,-85.26 640.52,-77.92 629.97,-78.89 632.88,-85.26"/>
</a>
</g>
</g>
<!-- Node12 -->
<g id="Node000012" class="node">
<title>Node12</title>
<g id="a_Node000012"><a xlink:href="Error_8hpp.html" target="_top" xlink:title=" ">
<polygon fill="white" stroke="#666666" points="277.38,-77.5 182.62,-77.5 182.62,-56.75 277.38,-56.75 277.38,-77.5"/>
<text text-anchor="middle" x="230" y="-64" font-family="Helvetica,sans-Serif" font-size="10.00">../error/Error.hpp</text>
</a>
</g>
</g>
<!-- Node11&#45;&gt;Node12 -->
<g id="edge15_Node000011_Node000012" class="edge">
<title>Node11&#45;&gt;Node12</title>
<g id="a_edge15_Node000011_Node000012"><a xlink:title=" ">
<path fill="none" stroke="#63b8ff" d="M483.23,-119.43C473.89,-117.45 464.13,-115.39 455,-113.5 398.47,-101.78 333.85,-88.8 288.42,-79.73"/>
<polygon fill="#63b8ff" stroke="#63b8ff" points="289.36,-76.15 278.87,-77.62 288,-83.01 289.36,-76.15"/>
</a>
</g>
</g>
<!-- Node14 -->
<g id="Node000014" class="node">
<title>Node14</title>
<g id="a_Node000014"><a xlink:title=" ">
<polygon fill="#e0e0e0" stroke="#999999" points="489,-77.5 407,-77.5 407,-56.75 489,-56.75 489,-77.5"/>
<text text-anchor="middle" x="448" y="-64" font-family="Helvetica,sans-Serif" font-size="10.00">initializer_list</text>
</a>
</g>
</g>
<!-- Node11&#45;&gt;Node14 -->
<g id="edge18_Node000011_Node000014" class="edge">
<title>Node11&#45;&gt;Node14</title>
<g id="a_edge18_Node000011_Node000014"><a xlink:title=" ">
<path fill="none" stroke="#63b8ff" d="M515.99,-119.43C503.47,-109.98 484.32,-95.53 469.53,-84.37"/>
<polygon fill="#63b8ff" stroke="#63b8ff" points="472.07,-81.15 461.98,-77.92 467.86,-86.74 472.07,-81.15"/>
</a>
</g>
</g>
<!-- Node11&#45;&gt;Node15 -->
<g id="edge20_Node000011_Node000015" class="edge">
<title>Node11&#45;&gt;Node15</title>
<g id="a_edge20_Node000011_Node000015"><a xlink:title=" ">
<path fill="none" stroke="#63b8ff" d="M485.68,-119.41C475.64,-117.3 464.97,-115.2 455,-113.5 334.27,-92.95 299.25,-102.23 175.35,-77.48"/>
<polygon fill="#63b8ff" stroke="#63b8ff" points="176.19,-73.88 165.69,-75.31 174.79,-80.74 176.19,-73.88"/>
</a>
</g>
</g>
<!-- Node16 -->
<g id="Node000016" class="node">
<title>Node16</title>
<g id="a_Node000016"><a xlink:title=" ">
<polygon fill="#e0e0e0" stroke="#999999" points="556.5,-77.5 507.5,-77.5 507.5,-56.75 556.5,-56.75 556.5,-77.5"/>
<text text-anchor="middle" x="532" y="-64" font-family="Helvetica,sans-Serif" font-size="10.00">format</text>
</a>
</g>
</g>
<!-- Node11&#45;&gt;Node16 -->
<g id="edge21_Node000011_Node000016" class="edge">
<title>Node11&#45;&gt;Node16</title>
<g id="a_edge21_Node000011_Node000016"><a xlink:title=" ">
<path fill="none" stroke="#63b8ff" d="M529.48,-119.43C529.89,-111.09 530.49,-98.86 531,-88.43"/>
<polygon fill="#63b8ff" stroke="#63b8ff" points="534.53,-88.88 531.53,-78.72 527.54,-88.54 534.53,-88.88"/>
</a>
</g>
</g>
<!-- Node12&#45;&gt;Node2 -->
<g id="edge17_Node000012_Node000002" class="edge">
<title>Node12&#45;&gt;Node2</title>
<g id="a_edge17_Node000012_Node000002"><a xlink:title=" ">
<path fill="none" stroke="#63b8ff" d="M202.65,-56.34C176.54,-47 137.2,-32.92 109.51,-23.01"/>
<polygon fill="#63b8ff" stroke="#63b8ff" points="110.75,-19.38 100.16,-19.3 108.39,-25.97 110.75,-19.38"/>
</a>
</g>
</g>
<!-- Node13 -->
<g id="Node000013" class="node">
<title>Node13</title>
<g id="a_Node000013"><a xlink:title=" ">
<polygon fill="#e0e0e0" stroke="#999999" points="262,-20.75 198,-20.75 198,0 262,0 262,-20.75"/>
<text text-anchor="middle" x="230" y="-7.25" font-family="Helvetica,sans-Serif" font-size="10.00">stdexcept</text>
</a>
</g>
</g>
<!-- Node12&#45;&gt;Node13 -->
<g id="edge16_Node000012_Node000013" class="edge">
<title>Node12&#45;&gt;Node13</title>
<g id="a_edge16_Node000012_Node000013"><a xlink:title=" ">
<path fill="none" stroke="#63b8ff" d="M230,-56.34C230,-49.56 230,-40.3 230,-31.94"/>
<polygon fill="#63b8ff" stroke="#63b8ff" points="233.5,-32.08 230,-22.08 226.5,-32.08 233.5,-32.08"/>
</a>
</g>
</g>
<!-- Node18&#45;&gt;Node5 -->
<g id="edge27_Node000018_Node000005" class="edge">
<title>Node18&#45;&gt;Node5</title>
<g id="a_edge27_Node000018_Node000005"><a xlink:title=" ">
<path fill="none" stroke="#63b8ff" d="M1223.64,-241.13C1220.73,-240.62 1217.84,-240.16 1215,-239.75 1094.26,-222.28 728.92,-203.78 586.61,-197.03"/>
<polygon fill="#63b8ff" stroke="#63b8ff" points="587.1,-193.5 576.95,-196.53 586.77,-200.5 587.1,-193.5"/>
</a>
</g>
</g>
<!-- Node18&#45;&gt;Node17 -->
<g id="edge28_Node000018_Node000017" class="edge">
<title>Node18&#45;&gt;Node17</title>
<g id="a_edge28_Node000018_Node000017"><a xlink:title=" ">
<path fill="none" stroke="#63b8ff" d="M1249.31,-239.26C1194.66,-214.38 1091.31,-167.35 1040.99,-144.44"/>
<polygon fill="#63b8ff" stroke="#63b8ff" points="1042.64,-140.9 1032.09,-139.94 1039.74,-147.27 1042.64,-140.9"/>
</a>
</g>
</g>
<!-- Node19&#45;&gt;Node4 -->
<g id="edge33_Node000019_Node000004" class="edge">
<title>Node19&#45;&gt;Node4</title>
<g id="a_edge33_Node000019_Node000004"><a xlink:title=" ">
<path fill="none" stroke="#63b8ff" d="M581.48,-314.21C528.23,-307.05 420.81,-291.98 320.91,-273.73"/>
<polygon fill="#63b8ff" stroke="#63b8ff" points="321.8,-270.16 311.34,-271.79 320.54,-277.04 321.8,-270.16"/>
</a>
</g>
</g>
<!-- Node19&#45;&gt;Node15 -->
<g id="edge45_Node000019_Node000015" class="edge">
<title>Node19&#45;&gt;Node15</title>
<g id="a_edge45_Node000019_Node000015"><a xlink:title=" ">
<path fill="none" stroke="#63b8ff" d="M581.57,-317.51C483.64,-313.92 202.52,-301.26 173,-273.25 146.66,-248.26 141.96,-135.53 141.15,-88.66"/>
<polygon fill="#63b8ff" stroke="#63b8ff" points="144.64,-88.74 141.02,-78.79 137.64,-88.83 144.64,-88.74"/>
</a>
</g>
</g>
<!-- Node19&#45;&gt;Node18 -->
<g id="edge32_Node000019_Node000018" class="edge">
<title>Node19&#45;&gt;Node18</title>
<g id="a_edge32_Node000019_Node000018"><a xlink:title=" ">
<path fill="none" stroke="#63b8ff" d="M648.54,-311.38C653.05,-310.57 657.63,-309.83 662,-309.25 902.73,-277.55 969.34,-307.52 1213.03,-273.39"/>
<polygon fill="#63b8ff" stroke="#63b8ff" points="1213.23,-276.75 1222.64,-271.88 1212.25,-269.82 1213.23,-276.75"/>
</a>
</g>
</g>
<!-- Node20 -->
<g id="Node000020" class="node">
<title>Node20</title>
<g id="a_Node000020"><a xlink:title=" ">
<polygon fill="#e0e0e0" stroke="#999999" points="1062.12,-266.88 893.88,-266.88 893.88,-246.12 1062.12,-246.12 1062.12,-266.88"/>
<text text-anchor="middle" x="978" y="-253.38" font-family="Helvetica,sans-Serif" font-size="10.00">../src/primitives/IPrimitives.hpp</text>
</a>
</g>
</g>
<!-- Node19&#45;&gt;Node20 -->
<g id="edge30_Node000019_Node000020" class="edge">
<title>Node19&#45;&gt;Node20</title>
<g id="a_edge30_Node000019_Node000020"><a xlink:title=" ">
<path fill="none" stroke="#63b8ff" d="M648.61,-311.78C653.1,-310.9 657.66,-310.04 662,-309.25 685.57,-304.97 820.67,-282.99 906.42,-269.09"/>
<polygon fill="#63b8ff" stroke="#63b8ff" points="906.83,-272.41 916.14,-267.35 905.71,-265.5 906.83,-272.41"/>
</a>
</g>
</g>
<!-- Node21 -->
<g id="Node000021" class="node">
<title>Node21</title>
<g id="a_Node000021"><a xlink:title=" ">
<polygon fill="#e0e0e0" stroke="#999999" points="1205.75,-266.88 1080.25,-266.88 1080.25,-246.12 1205.75,-246.12 1205.75,-266.88"/>
<text text-anchor="middle" x="1143" y="-253.38" font-family="Helvetica,sans-Serif" font-size="10.00">../src/ligths/ILigths.hpp</text>
</a>
</g>
</g>
<!-- Node19&#45;&gt;Node21 -->
<g id="edge31_Node000019_Node000021" class="edge">
<title>Node19&#45;&gt;Node21</title>
<g id="a_edge31_Node000019_Node000021"><a xlink:title=" ">
<path fill="none" stroke="#63b8ff" d="M648.56,-311.47C653.06,-310.64 657.63,-309.88 662,-309.25 842.64,-283.36 890.61,-300.8 1071,-273.25 1077.72,-272.22 1084.76,-270.94 1091.69,-269.56"/>
<polygon fill="#63b8ff" stroke="#63b8ff" points="1092.35,-272.79 1101.43,-267.32 1090.92,-265.94 1092.35,-272.79"/>
</a>
</g>
</g>
<!-- Node22 -->
<g id="Node000022" class="node">
<title>Node22</title>
<g id="a_Node000022"><a xlink:title=" ">
<polygon fill="#e0e0e0" stroke="#999999" points="448.5,-273.25 327.5,-273.25 327.5,-239.75 448.5,-239.75 448.5,-273.25"/>
<text text-anchor="start" x="335.5" y="-259.75" font-family="Helvetica,sans-Serif" font-size="10.00">../src/ligths/pointLigth</text>
<text text-anchor="middle" x="388" y="-247" font-family="Helvetica,sans-Serif" font-size="10.00">/PointLigth.hpp</text>
</a>
</g>
</g>
<!-- Node19&#45;&gt;Node22 -->
<g id="edge34_Node000019_Node000022" class="edge">
<title>Node19&#45;&gt;Node22</title>
<g id="a_edge34_Node000019_Node000022"><a xlink:title=" ">
<path fill="none" stroke="#63b8ff" d="M581.51,-309.61C549.29,-300.93 499.56,-287.54 458.59,-276.51"/>
<polygon fill="#63b8ff" stroke="#63b8ff" points="459.67,-272.91 449.11,-273.68 457.85,-279.66 459.67,-272.91"/>
</a>
</g>
</g>
<!-- Node23 -->
<g id="Node000023" class="node">
<title>Node23</title>
<g id="a_Node000023"><a xlink:title=" ">
<polygon fill="#e0e0e0" stroke="#999999" points="607.62,-273.25 466.38,-273.25 466.38,-239.75 607.62,-239.75 607.62,-273.25"/>
<text text-anchor="start" x="474.38" y="-259.75" font-family="Helvetica,sans-Serif" font-size="10.00">../src/ligths/directional</text>
<text text-anchor="middle" x="537" y="-247" font-family="Helvetica,sans-Serif" font-size="10.00">Ligth/DirectionalLigth.hpp</text>
</a>
</g>
</g>
<!-- Node19&#45;&gt;Node23 -->
<g id="edge35_Node000019_Node000023" class="edge">
<title>Node19&#45;&gt;Node23</title>
<g id="a_edge35_Node000019_Node000023"><a xlink:title=" ">
<path fill="none" stroke="#63b8ff" d="M602.47,-308.8C592.67,-301.13 578.65,-290.14 566.1,-280.31"/>
<polygon fill="#63b8ff" stroke="#63b8ff" points="568.75,-277.15 558.72,-273.73 564.43,-282.66 568.75,-277.15"/>
</a>
</g>
</g>
<!-- Node24 -->
<g id="Node000024" class="node">
<title>Node24</title>
<g id="a_Node000024"><a xlink:title=" ">
<polygon fill="#e0e0e0" stroke="#999999" points="762.38,-273.25 625.62,-273.25 625.62,-239.75 762.38,-239.75 762.38,-273.25"/>
<text text-anchor="start" x="633.62" y="-259.75" font-family="Helvetica,sans-Serif" font-size="10.00">../src/ligths/ambientLigth</text>
<text text-anchor="middle" x="694" y="-247" font-family="Helvetica,sans-Serif" font-size="10.00">/ambientLigth.hpp</text>
</a>
</g>
</g>
<!-- Node19&#45;&gt;Node24 -->
<g id="edge36_Node000019_Node000024" class="edge">
<title>Node19&#45;&gt;Node24</title>
<g id="a_edge36_Node000019_Node000024"><a xlink:title=" ">
<path fill="none" stroke="#63b8ff" d="M627.69,-308.8C637.62,-301.13 651.81,-290.14 664.52,-280.31"/>
<polygon fill="#63b8ff" stroke="#63b8ff" points="666.25,-282.62 672.02,-273.73 661.97,-277.09 666.25,-282.62"/>
</a>
</g>
</g>
<!-- Node25 -->
<g id="Node000025" class="node">
<title>Node25</title>
<g id="a_Node000025"><a xlink:href="Camera_8hpp.html" target="_top" xlink:title=" ">
<polygon fill="white" stroke="#666666" points="936.62,-203.75 795.38,-203.75 795.38,-183 936.62,-183 936.62,-203.75"/>
<text text-anchor="middle" x="866" y="-190.25" font-family="Helvetica,sans-Serif" font-size="10.00">../src/camera/Camera.hpp</text>
</a>
</g>
</g>
<!-- Node19&#45;&gt;Node25 -->
<g id="edge37_Node000019_Node000025" class="edge">
<title>Node19&#45;&gt;Node25</title>
<g id="a_edge37_Node000019_Node000025"><a xlink:title=" ">
<path fill="none" stroke="#63b8ff" d="M648.37,-311.95C652.95,-311.04 657.59,-310.12 662,-309.25 744.18,-293.06 786.48,-331.16 847,-273.25 862.62,-258.3 866.34,-232.93 866.81,-215"/>
<polygon fill="#63b8ff" stroke="#63b8ff" points="870.31,-215.21 866.74,-205.24 863.31,-215.26 870.31,-215.21"/>
</a>
</g>
</g>
<!-- Node27 -->
<g id="Node000027" class="node">
<title>Node27</title>
<g id="a_Node000027"><a xlink:title=" ">
<polygon fill="#e0e0e0" stroke="#999999" points="837.62,-266.88 780.38,-266.88 780.38,-246.12 837.62,-246.12 837.62,-266.88"/>
<text text-anchor="middle" x="809" y="-253.38" font-family="Helvetica,sans-Serif" font-size="10.00">memory</text>
</a>
</g>
</g>
<!-- Node19&#45;&gt;Node27 -->
<g id="edge46_Node000019_Node000027" class="edge">
<title>Node19&#45;&gt;Node27</title>
<g id="a_edge46_Node000019_Node000027"><a xlink:title=" ">
<path fill="none" stroke="#63b8ff" d="M648.51,-310.02C680.33,-301.59 729.36,-287.89 771,-273.25 772.92,-272.58 774.88,-271.86 776.86,-271.11"/>
<polygon fill="#63b8ff" stroke="#63b8ff" points="777.64,-274.17 785.65,-267.24 775.07,-267.66 777.64,-274.17"/>
</a>
</g>
</g>
<!-- Node25&#45;&gt;Node7 -->
<g id="edge43_Node000025_Node000007" class="edge">
<title>Node25&#45;&gt;Node7</title>
<g id="a_edge43_Node000025_Node000007"><a xlink:title=" ">
<path fill="none" stroke="#63b8ff" d="M899.1,-182.61C916.34,-175.65 935.87,-164.38 946,-147 953.49,-134.13 954.88,-125.45 946,-113.5 936.3,-100.44 720.47,-44.77 628.7,-21.58"/>
<polygon fill="#63b8ff" stroke="#63b8ff" points="629.7,-17.97 619.15,-18.91 627.99,-24.75 629.7,-17.97"/>
</a>
</g>
</g>
<!-- Node25&#45;&gt;Node8 -->
<g id="edge38_Node000025_Node000008" class="edge">
<title>Node25&#45;&gt;Node8</title>
<g id="a_edge38_Node000025_Node000008"><a xlink:title=" ">
<path fill="none" stroke="#63b8ff" d="M841.42,-182.55C815.99,-172.4 776.07,-156.45 747.49,-145.03"/>
<polygon fill="#63b8ff" stroke="#63b8ff" points="749.11,-141.51 738.52,-141.05 746.51,-148.01 749.11,-141.51"/>
</a>
</g>
</g>
<!-- Node25&#45;&gt;Node11 -->
<g id="edge42_Node000025_Node000011" class="edge">
<title>Node25&#45;&gt;Node11</title>
<g id="a_edge42_Node000025_Node000011"><a xlink:title=" ">
<path fill="none" stroke="#63b8ff" d="M811.86,-182.55C752.49,-171.79 657.28,-154.52 593.95,-143.03"/>
<polygon fill="#63b8ff" stroke="#63b8ff" points="594.75,-139.44 584.29,-141.1 593.5,-146.33 594.75,-139.44"/>
</a>
</g>
</g>
<!-- Node25&#45;&gt;Node17 -->
<g id="edge44_Node000025_Node000017" class="edge">
<title>Node25&#45;&gt;Node17</title>
<g id="a_edge44_Node000025_Node000017"><a xlink:title=" ">
<path fill="none" stroke="#63b8ff" d="M891.77,-182.56C914.8,-173.67 949.38,-160 979,-147 980.42,-146.38 981.86,-145.73 983.32,-145.07"/>
<polygon fill="#63b8ff" stroke="#63b8ff" points="984.31,-148.01 991.9,-140.62 981.36,-141.66 984.31,-148.01"/>
</a>
</g>
</g>
<!-- Node26 -->
<g id="Node000026" class="node">
<title>Node26</title>
<g id="a_Node000026"><a xlink:href="Rectangle3D_8hpp.html" target="_top" xlink:title=" ">
<polygon fill="white" stroke="#666666" points="937.38,-147 794.62,-147 794.62,-113.5 937.38,-113.5 937.38,-147"/>
<text text-anchor="start" x="802.62" y="-133.5" font-family="Helvetica,sans-Serif" font-size="10.00">../core/helpers/Rectangle3</text>
<text text-anchor="middle" x="866" y="-120.75" font-family="Helvetica,sans-Serif" font-size="10.00">D.hpp</text>
</a>
</g>
</g>
<!-- Node25&#45;&gt;Node26 -->
<g id="edge39_Node000025_Node000026" class="edge">
<title>Node25&#45;&gt;Node26</title>
<g id="a_edge39_Node000025_Node000026"><a xlink:title=" ">
<path fill="none" stroke="#63b8ff" d="M866,-182.55C866,-175.98 866,-166.99 866,-158.37"/>
<polygon fill="#63b8ff" stroke="#63b8ff" points="869.5,-158.48 866,-148.48 862.5,-158.48 869.5,-158.48"/>
</a>
</g>
</g>
<!-- Node26&#45;&gt;Node7 -->
<g id="edge40_Node000026_Node000007" class="edge">
<title>Node26&#45;&gt;Node7</title>
<g id="a_edge40_Node000026_Node000007"><a xlink:title=" ">
<path fill="none" stroke="#63b8ff" d="M836.78,-113.02C808.09,-97.44 762.79,-73.83 722,-56.75 691.2,-43.86 655.32,-31.86 628.44,-23.44"/>
<polygon fill="#63b8ff" stroke="#63b8ff" points="629.84,-19.9 619.25,-20.29 627.77,-26.59 629.84,-19.9"/>
</a>
</g>
</g>
<!-- Node26&#45;&gt;Node9 -->
<g id="edge41_Node000026_Node000009" class="edge">
<title>Node26&#45;&gt;Node9</title>
<g id="a_edge41_Node000026_Node000009"><a xlink:title=" ">
<path fill="none" stroke="#63b8ff" d="M812.13,-113.03C778.93,-103.03 736.93,-90.39 705.97,-81.06"/>
<polygon fill="#63b8ff" stroke="#63b8ff" points="707.1,-77.45 696.51,-77.92 705.08,-84.15 707.1,-77.45"/>
</a>
</g>
</g>
</g>
</svg>
