<?xml version="1.0" encoding="UTF-8" standalone="no"?>
<!DOCTYPE svg PUBLIC "-//W3C//DTD SVG 1.1//EN"
 "http://www.w3.org/Graphics/SVG/1.1/DTD/svg11.dtd">
<!-- Generated by graphviz version 8.1.0 (20230707.0739)
 -->
<!-- Title: src/parser/Parser.hpp Pages: 1 -->
<svg width="516pt" height="199pt"
 viewBox="0.00 0.00 516.00 199.00" xmlns="http://www.w3.org/2000/svg" xmlns:xlink="http://www.w3.org/1999/xlink">
<g id="graph0" class="graph" transform="scale(1 1) rotate(0) translate(4 195)">
<title>src/parser/Parser.hpp</title>
<!-- Node1 -->
<g id="Node000001" class="node">
<title>Node1</title>
<g id="a_Node000001"><a xlink:title=" ">
<polygon fill="#999999" stroke="#666666" points="373.38,-191 256.12,-191 256.12,-170.25 373.38,-170.25 373.38,-191"/>
<text text-anchor="middle" x="314.75" y="-177.5" font-family="Helvetica,sans-Serif" font-size="10.00">src/parser/Parser.hpp</text>
</a>
</g>
</g>
<!-- Node2 -->
<g id="Node000002" class="node">
<title>Node2</title>
<g id="a_Node000002"><a xlink:href="RayTracer_8hpp.html" target="_top" xlink:title=" ">
<polygon fill="white" stroke="#666666" points="178.5,-77.5 53,-77.5 53,-56.75 178.5,-56.75 178.5,-77.5"/>
<text text-anchor="middle" x="115.75" y="-64" font-family="Helvetica,sans-Serif" font-size="10.00">src/core/RayTracer.hpp</text>
</a>
</g>
</g>
<!-- Node1&#45;&gt;Node2 -->
<g id="edge1_Node000001_Node000002" class="edge">
<title>Node1&#45;&gt;Node2</title>
<g id="a_edge1_Node000001_Node000002"><a xlink:title=" ">
<path fill="none" stroke="#63b8ff" d="M263.48,-166.7C239.18,-159.29 210.37,-148.58 186.75,-134.25 160.83,-118.52 136.26,-92.22 123.95,-77.99"/>
<polygon fill="#63b8ff" stroke="#63b8ff" points="262.36,-170.32 272.94,-169.78 264.33,-163.6 262.36,-170.32"/>
</a>
</g>
</g>
<!-- Node5 -->
<g id="Node000005" class="node">
<title>Node5</title>
<g id="a_Node000005"><a xlink:href="Image_8cpp.html" target="_top" xlink:title="Implémentation des méthodes de la classe Image pour gestion d&#39;image et affichage.">
<polygon fill="white" stroke="#666666" points="492.62,-77.5 352.88,-77.5 352.88,-56.75 492.62,-56.75 492.62,-77.5"/>
<text text-anchor="middle" x="422.75" y="-64" font-family="Helvetica,sans-Serif" font-size="10.00">src/core/scene/Image.cpp</text>
</a>
</g>
</g>
<!-- Node1&#45;&gt;Node5 -->
<g id="edge4_Node000001_Node000005" class="edge">
<title>Node1&#45;&gt;Node5</title>
<g id="a_edge4_Node000001_Node000005"><a xlink:title=" ">
<path fill="none" stroke="#63b8ff" d="M331.56,-162.27C354.52,-138.56 394.94,-96.83 413.26,-77.93"/>
<polygon fill="#63b8ff" stroke="#63b8ff" points="329.4,-159.5 324.96,-169.12 334.43,-164.37 329.4,-159.5"/>
</a>
</g>
</g>
<!-- Node6 -->
<g id="Node000006" class="node">
<title>Node6</title>
<g id="a_Node000006"><a xlink:href="src_2core_2scene_2Scene_8hpp.html" target="_top" xlink:title=" ">
<polygon fill="white" stroke="#666666" points="335.25,-134.25 196.25,-134.25 196.25,-113.5 335.25,-113.5 335.25,-134.25"/>
<text text-anchor="middle" x="265.75" y="-120.75" font-family="Helvetica,sans-Serif" font-size="10.00">src/core/scene/Scene.hpp</text>
</a>
</g>
</g>
<!-- Node1&#45;&gt;Node6 -->
<g id="edge5_Node000001_Node000006" class="edge">
<title>Node1&#45;&gt;Node6</title>
<g id="a_edge5_Node000001_Node000006"><a xlink:title=" ">
<path fill="none" stroke="#63b8ff" d="M298.8,-161.8C290.7,-152.75 281.17,-142.11 274.43,-134.58"/>
<polygon fill="#63b8ff" stroke="#63b8ff" points="295.71,-163.72 304.99,-168.84 300.93,-159.05 295.71,-163.72"/>
</a>
</g>
</g>
<!-- Node8 -->
<g id="Node000008" class="node">
<title>Node8</title>
<g id="a_Node000008"><a xlink:href="Parser_8cpp.html" target="_top" xlink:title="Implémentation des fonctions de parsing des configurations pour la caméra, primitives,...">
<polygon fill="white" stroke="#666666" points="508,-134.25 391.5,-134.25 391.5,-113.5 508,-113.5 508,-134.25"/>
<text text-anchor="middle" x="449.75" y="-120.75" font-family="Helvetica,sans-Serif" font-size="10.00">src/parser/Parser.cpp</text>
</a>
</g>
</g>
<!-- Node1&#45;&gt;Node8 -->
<g id="edge9_Node000001_Node000008" class="edge">
<title>Node1&#45;&gt;Node8</title>
<g id="a_edge9_Node000001_Node000008"><a xlink:title=" ">
<path fill="none" stroke="#63b8ff" d="M348.99,-165.74C373,-156 404.48,-143.23 425.82,-134.58"/>
<polygon fill="#63b8ff" stroke="#63b8ff" points="347.84,-162.84 339.89,-169.84 350.47,-169.32 347.84,-162.84"/>
</a>
</g>
</g>
<!-- Node3 -->
<g id="Node000003" class="node">
<title>Node3</title>
<g id="a_Node000003"><a xlink:href="Main_8cpp.html" target="_top" xlink:title=" ">
<polygon fill="white" stroke="#666666" points="101.5,-20.75 0,-20.75 0,0 101.5,0 101.5,-20.75"/>
<text text-anchor="middle" x="50.75" y="-7.25" font-family="Helvetica,sans-Serif" font-size="10.00">src/core/Main.cpp</text>
</a>
</g>
</g>
<!-- Node2&#45;&gt;Node3 -->
<g id="edge2_Node000002_Node000003" class="edge">
<title>Node2&#45;&gt;Node3</title>
<g id="a_edge2_Node000002_Node000003"><a xlink:title=" ">
<path fill="none" stroke="#63b8ff" d="M95.91,-49.41C84.89,-40.13 71.58,-28.92 62.27,-21.08"/>
<polygon fill="#63b8ff" stroke="#63b8ff" points="93.23,-52.57 103.13,-56.34 97.74,-47.22 93.23,-52.57"/>
</a>
</g>
</g>
<!-- Node4 -->
<g id="Node000004" class="node">
<title>Node4</title>
<g id="a_Node000004"><a xlink:href="RayTracer_8cpp.html" target="_top" xlink:title=" ">
<polygon fill="white" stroke="#666666" points="244.12,-20.75 119.38,-20.75 119.38,0 244.12,0 244.12,-20.75"/>
<text text-anchor="middle" x="181.75" y="-7.25" font-family="Helvetica,sans-Serif" font-size="10.00">src/core/RayTracer.cpp</text>
</a>
</g>
</g>
<!-- Node2&#45;&gt;Node4 -->
<g id="edge3_Node000002_Node000004" class="edge">
<title>Node2&#45;&gt;Node4</title>
<g id="a_edge3_Node000002_Node000004"><a xlink:title=" ">
<path fill="none" stroke="#63b8ff" d="M135.9,-49.41C147.08,-40.13 160.6,-28.92 170.05,-21.08"/>
<polygon fill="#63b8ff" stroke="#63b8ff" points="134.01,-47.26 128.55,-56.34 138.48,-52.65 134.01,-47.26"/>
</a>
</g>
</g>
<!-- Node6&#45;&gt;Node2 -->
<g id="edge6_Node000006_Node000002" class="edge">
<title>Node6&#45;&gt;Node2</title>
<g id="a_edge6_Node000006_Node000002"><a xlink:title=" ">
<path fill="none" stroke="#63b8ff" d="M228.81,-109.39C202.1,-99.64 166.62,-86.69 142.59,-77.92"/>
<polygon fill="#63b8ff" stroke="#63b8ff" points="227.34,-112.95 237.93,-113.09 229.74,-106.37 227.34,-112.95"/>
</a>
</g>
</g>
<!-- Node6&#45;&gt;Node5 -->
<g id="edge7_Node000006_Node000005" class="edge">
<title>Node6&#45;&gt;Node5</title>
<g id="a_edge7_Node000006_Node000005"><a xlink:title=" ">
<path fill="none" stroke="#63b8ff" d="M304.05,-109.52C332.05,-99.76 369.39,-86.73 394.66,-77.92"/>
<polygon fill="#63b8ff" stroke="#63b8ff" points="303.11,-106.49 294.82,-113.09 305.41,-113.1 303.11,-106.49"/>
</a>
</g>
</g>
<!-- Node7 -->
<g id="Node000007" class="node">
<title>Node7</title>
<g id="a_Node000007"><a xlink:href="Scene_8cpp.html" target="_top" xlink:title=" ">
<polygon fill="white" stroke="#666666" points="334.88,-77.5 196.62,-77.5 196.62,-56.75 334.88,-56.75 334.88,-77.5"/>
<text text-anchor="middle" x="265.75" y="-64" font-family="Helvetica,sans-Serif" font-size="10.00">src/core/scene/Scene.cpp</text>
</a>
</g>
</g>
<!-- Node6&#45;&gt;Node7 -->
<g id="edge8_Node000006_Node000007" class="edge">
<title>Node6&#45;&gt;Node7</title>
<g id="a_edge8_Node000006_Node000007"><a xlink:title=" ">
<path fill="none" stroke="#63b8ff" d="M265.75,-102.21C265.75,-93.84 265.75,-84.58 265.75,-77.83"/>
<polygon fill="#63b8ff" stroke="#63b8ff" points="262.25,-102.09 265.75,-112.09 269.25,-102.09 262.25,-102.09"/>
</a>
</g>
</g>
</g>
</svg>
