<?xml version="1.0" encoding="UTF-8" standalone="no"?>
<!DOCTYPE svg PUBLIC "-//W3C//DTD SVG 1.1//EN"
 "http://www.w3.org/Graphics/SVG/1.1/DTD/svg11.dtd">
<!-- Generated by graphviz version 8.1.0 (20230707.0739)
 -->
<!-- Title: src/parser/Parser.cpp Pages: 1 -->
<svg width="1416pt" height="521pt"
 viewBox="0.00 0.00 1416.38 521.00" xmlns="http://www.w3.org/2000/svg" xmlns:xlink="http://www.w3.org/1999/xlink">
<g id="graph0" class="graph" transform="scale(1 1) rotate(0) translate(4 517)">
<title>src/parser/Parser.cpp</title>
<!-- Node1 -->
<g id="Node000001" class="node">
<title>Node1</title>
<g id="a_Node000001"><a xlink:title="Implémentation des fonctions de parsing des configurations pour la caméra, primitives,...">
<polygon fill="#999999" stroke="#666666" points="976.25,-513 859.75,-513 859.75,-492.25 976.25,-492.25 976.25,-513"/>
<text text-anchor="middle" x="918" y="-499.5" font-family="Helvetica,sans-Serif" font-size="10.00">src/parser/Parser.cpp</text>
</a>
</g>
</g>
<!-- Node2 -->
<g id="Node000002" class="node">
<title>Node2</title>
<g id="a_Node000002"><a xlink:href="Parser_8hpp.html" target="_top" xlink:title=" ">
<polygon fill="white" stroke="#666666" points="951.12,-456.25 884.88,-456.25 884.88,-435.5 951.12,-435.5 951.12,-456.25"/>
<text text-anchor="middle" x="918" y="-442.75" font-family="Helvetica,sans-Serif" font-size="10.00">Parser.hpp</text>
</a>
</g>
</g>
<!-- Node1&#45;&gt;Node2 -->
<g id="edge1_Node000001_Node000002" class="edge">
<title>Node1&#45;&gt;Node2</title>
<g id="a_edge1_Node000001_Node000002"><a xlink:title=" ">
<path fill="none" stroke="#63b8ff" d="M918,-491.84C918,-485.06 918,-475.8 918,-467.44"/>
<polygon fill="#63b8ff" stroke="#63b8ff" points="921.5,-467.58 918,-457.58 914.5,-467.58 921.5,-467.58"/>
</a>
</g>
</g>
<!-- Node3 -->
<g id="Node000003" class="node">
<title>Node3</title>
<g id="a_Node000003"><a xlink:href="DirectionalLight_8hpp.html" target="_top" xlink:title=" ">
<polygon fill="white" stroke="#666666" points="556.38,-399.5 425.62,-399.5 425.62,-366 556.38,-366 556.38,-399.5"/>
<text text-anchor="start" x="433.62" y="-386" font-family="Helvetica,sans-Serif" font-size="10.00">../lights/directionalLight</text>
<text text-anchor="middle" x="491" y="-373.25" font-family="Helvetica,sans-Serif" font-size="10.00">/DirectionalLight.hpp</text>
</a>
</g>
</g>
<!-- Node2&#45;&gt;Node3 -->
<g id="edge2_Node000002_Node000003" class="edge">
<title>Node2&#45;&gt;Node3</title>
<g id="a_edge2_Node000002_Node000003"><a xlink:title=" ">
<path fill="none" stroke="#63b8ff" d="M884.49,-440.08C816.6,-430.36 661.29,-408.13 567.36,-394.68"/>
<polygon fill="#63b8ff" stroke="#63b8ff" points="567.9,-391.08 557.51,-393.13 566.91,-398.01 567.9,-391.08"/>
</a>
</g>
</g>
<!-- Node5 -->
<g id="Node000005" class="node">
<title>Node5</title>
<g id="a_Node000005"><a xlink:title=" ">
<polygon fill="#e0e0e0" stroke="#999999" points="670.75,-20.75 611.25,-20.75 611.25,0 670.75,0 670.75,-20.75"/>
<text text-anchor="middle" x="641" y="-7.25" font-family="Helvetica,sans-Serif" font-size="10.00">iostream</text>
</a>
</g>
</g>
<!-- Node2&#45;&gt;Node5 -->
<g id="edge61_Node000002_Node000005" class="edge">
<title>Node2&#45;&gt;Node5</title>
<g id="a_edge61_Node000002_Node000005"><a xlink:title=" ">
<path fill="none" stroke="#63b8ff" d="M884.71,-443.94C755.67,-440.13 292.58,-424.8 232,-399.5 183.23,-379.13 143,-373.48 143,-320.62 143,-320.62 143,-320.62 143,-129.25 143,-80.6 180.51,-76.42 225,-56.75 291.58,-27.31 508.83,-16.16 600.07,-12.7"/>
<polygon fill="#63b8ff" stroke="#63b8ff" points="599.94,-16.17 609.8,-12.31 599.68,-9.18 599.94,-16.17"/>
</a>
</g>
</g>
<!-- Node16 -->
<g id="Node000016" class="node">
<title>Node16</title>
<g id="a_Node000016"><a xlink:title=" ">
<polygon fill="#e0e0e0" stroke="#999999" points="494.38,-77.5 447.62,-77.5 447.62,-56.75 494.38,-56.75 494.38,-77.5"/>
<text text-anchor="middle" x="471" y="-64" font-family="Helvetica,sans-Serif" font-size="10.00">vector</text>
</a>
</g>
</g>
<!-- Node2&#45;&gt;Node16 -->
<g id="edge63_Node000002_Node000016" class="edge">
<title>Node2&#45;&gt;Node16</title>
<g id="a_edge63_Node000002_Node000016"><a xlink:title=" ">
<path fill="none" stroke="#63b8ff" d="M884.64,-445.15C803.43,-445.1 589.43,-440.73 417,-399.5 324.87,-377.47 219,-415.35 219,-320.62 219,-320.62 219,-320.62 219,-192.38 219,-96.5 367.56,-74.6 436.55,-69.6"/>
<polygon fill="#63b8ff" stroke="#63b8ff" points="436.54,-73.05 446.29,-68.92 436.09,-66.06 436.54,-73.05"/>
</a>
</g>
</g>
<!-- Node22 -->
<g id="Node000022" class="node">
<title>Node22</title>
<g id="a_Node000022"><a xlink:href="PointLight_8hpp.html" target="_top" xlink:title=" ">
<polygon fill="white" stroke="#666666" points="1104.88,-399.5 1001.12,-399.5 1001.12,-366 1104.88,-366 1104.88,-399.5"/>
<text text-anchor="start" x="1009.12" y="-386" font-family="Helvetica,sans-Serif" font-size="10.00">../lights/pointLight</text>
<text text-anchor="middle" x="1053" y="-373.25" font-family="Helvetica,sans-Serif" font-size="10.00">/PointLight.hpp</text>
</a>
</g>
</g>
<!-- Node2&#45;&gt;Node22 -->
<g id="edge35_Node000002_Node000022" class="edge">
<title>Node2&#45;&gt;Node22</title>
<g id="a_edge35_Node000002_Node000022"><a xlink:title=" ">
<path fill="none" stroke="#63b8ff" d="M939.69,-435.05C957.87,-426.82 984.44,-414.79 1007.29,-404.45"/>
<polygon fill="#63b8ff" stroke="#63b8ff" points="1008.48,-407.3 1016.14,-399.98 1005.59,-400.92 1008.48,-407.3"/>
</a>
</g>
</g>
<!-- Node23 -->
<g id="Node000023" class="node">
<title>Node23</title>
<g id="a_Node000023"><a xlink:href="Cone_8hpp.html" target="_top" xlink:title=" ">
<polygon fill="white" stroke="#666666" points="825.38,-273.25 724.62,-273.25 724.62,-239.75 825.38,-239.75 825.38,-273.25"/>
<text text-anchor="start" x="732.62" y="-259.75" font-family="Helvetica,sans-Serif" font-size="10.00">../primitives/cone</text>
<text text-anchor="middle" x="775" y="-247" font-family="Helvetica,sans-Serif" font-size="10.00">/Cone.hpp</text>
</a>
</g>
</g>
<!-- Node2&#45;&gt;Node23 -->
<g id="edge39_Node000002_Node000023" class="edge">
<title>Node2&#45;&gt;Node23</title>
<g id="a_edge39_Node000002_Node000023"><a xlink:title=" ">
<path fill="none" stroke="#63b8ff" d="M910.51,-435.06C888.88,-406.71 825.78,-324.03 793.9,-282.26"/>
<polygon fill="#63b8ff" stroke="#63b8ff" points="796.08,-280.35 787.23,-274.53 790.52,-284.6 796.08,-280.35"/>
</a>
</g>
</g>
<!-- Node24 -->
<g id="Node000024" class="node">
<title>Node24</title>
<g id="a_Node000024"><a xlink:href="Cylinder_8hpp.html" target="_top" xlink:title=" ">
<polygon fill="white" stroke="#666666" points="669.25,-273.25 552.75,-273.25 552.75,-239.75 669.25,-239.75 669.25,-273.25"/>
<text text-anchor="start" x="560.75" y="-259.75" font-family="Helvetica,sans-Serif" font-size="10.00">../primitives/cylinder</text>
<text text-anchor="middle" x="611" y="-247" font-family="Helvetica,sans-Serif" font-size="10.00">/Cylinder.hpp</text>
</a>
</g>
</g>
<!-- Node2&#45;&gt;Node24 -->
<g id="edge42_Node000002_Node000024" class="edge">
<title>Node2&#45;&gt;Node24</title>
<g id="a_edge42_Node000002_Node000024"><a xlink:title=" ">
<path fill="none" stroke="#63b8ff" d="M901.93,-435.06C854.3,-406 713.12,-319.83 646.53,-279.18"/>
<polygon fill="#63b8ff" stroke="#63b8ff" points="648.62,-275.75 638.26,-273.53 644.97,-281.73 648.62,-275.75"/>
</a>
</g>
</g>
<!-- Node25 -->
<g id="Node000025" class="node">
<title>Node25</title>
<g id="a_Node000025"><a xlink:href="Plane_8hpp.html" target="_top" xlink:title=" ">
<polygon fill="white" stroke="#666666" points="948.25,-273.25 843.75,-273.25 843.75,-239.75 948.25,-239.75 948.25,-273.25"/>
<text text-anchor="start" x="851.75" y="-259.75" font-family="Helvetica,sans-Serif" font-size="10.00">../primitives/plane</text>
<text text-anchor="middle" x="896" y="-247" font-family="Helvetica,sans-Serif" font-size="10.00">/Plane.hpp</text>
</a>
</g>
</g>
<!-- Node2&#45;&gt;Node25 -->
<g id="edge45_Node000002_Node000025" class="edge">
<title>Node2&#45;&gt;Node25</title>
<g id="a_edge45_Node000002_Node000025"><a xlink:title=" ">
<path fill="none" stroke="#63b8ff" d="M916.85,-435.06C913.58,-407.19 904.14,-326.8 899.16,-284.4"/>
<polygon fill="#63b8ff" stroke="#63b8ff" points="902.52,-284.05 897.88,-274.53 895.57,-284.87 902.52,-284.05"/>
</a>
</g>
</g>
<!-- Node26 -->
<g id="Node000026" class="node">
<title>Node26</title>
<g id="a_Node000026"><a xlink:href="Sphere_8hpp.html" target="_top" xlink:title=" ">
<polygon fill="white" stroke="#666666" points="1077.25,-273.25 966.75,-273.25 966.75,-239.75 1077.25,-239.75 1077.25,-273.25"/>
<text text-anchor="start" x="974.75" y="-259.75" font-family="Helvetica,sans-Serif" font-size="10.00">../primitives/sphere</text>
<text text-anchor="middle" x="1022" y="-247" font-family="Helvetica,sans-Serif" font-size="10.00">/Sphere.hpp</text>
</a>
</g>
</g>
<!-- Node2&#45;&gt;Node26 -->
<g id="edge48_Node000002_Node000026" class="edge">
<title>Node2&#45;&gt;Node26</title>
<g id="a_edge48_Node000002_Node000026"><a xlink:title=" ">
<path fill="none" stroke="#63b8ff" d="M923.45,-435.06C939.08,-406.89 984.5,-325.07 1007.82,-283.06"/>
<polygon fill="#63b8ff" stroke="#63b8ff" points="1011.31,-284.97 1013.1,-274.53 1005.19,-281.57 1011.31,-284.97"/>
</a>
</g>
</g>
<!-- Node27 -->
<g id="Node000027" class="node">
<title>Node27</title>
<g id="a_Node000027"><a xlink:href="Camera_8hpp.html" target="_top" xlink:title=" ">
<polygon fill="white" stroke="#666666" points="1153,-203.75 1029,-203.75 1029,-183 1153,-183 1153,-203.75"/>
<text text-anchor="middle" x="1091" y="-190.25" font-family="Helvetica,sans-Serif" font-size="10.00">../camera/Camera.hpp</text>
</a>
</g>
</g>
<!-- Node2&#45;&gt;Node27 -->
<g id="edge51_Node000002_Node000027" class="edge">
<title>Node2&#45;&gt;Node27</title>
<g id="a_edge51_Node000002_Node000027"><a xlink:title=" ">
<path fill="none" stroke="#63b8ff" d="M951.24,-441.88C1001.5,-436.61 1093.17,-423.85 1114,-399.5 1124.55,-387.17 1120.3,-244.32 1119,-239.75 1116.3,-230.23 1110.97,-220.75 1105.69,-212.94"/>
<polygon fill="#63b8ff" stroke="#63b8ff" points="1107.93,-211.07 1099.21,-205.05 1102.27,-215.2 1107.93,-211.07"/>
</a>
</g>
</g>
<!-- Node29 -->
<g id="Node000029" class="node">
<title>Node29</title>
<g id="a_Node000029"><a xlink:title=" ">
<polygon fill="#e0e0e0" stroke="#999999" points="1234.5,-393.12 1167.5,-393.12 1167.5,-372.38 1234.5,-372.38 1234.5,-393.12"/>
<text text-anchor="middle" x="1201" y="-379.62" font-family="Helvetica,sans-Serif" font-size="10.00">filesystem</text>
</a>
</g>
</g>
<!-- Node2&#45;&gt;Node29 -->
<g id="edge59_Node000002_Node000029" class="edge">
<title>Node2&#45;&gt;Node29</title>
<g id="a_edge59_Node000002_Node000029"><a xlink:title=" ">
<path fill="none" stroke="#63b8ff" d="M951.38,-439.79C997.2,-432.51 1082.01,-417.92 1153,-399.5 1156.17,-398.68 1159.43,-397.76 1162.69,-396.8"/>
<polygon fill="#63b8ff" stroke="#63b8ff" points="1163.49,-399.9 1172,-393.59 1161.41,-393.22 1163.49,-399.9"/>
</a>
</g>
</g>
<!-- Node30 -->
<g id="Node000030" class="node">
<title>Node30</title>
<g id="a_Node000030"><a xlink:title=" ">
<polygon fill="#e0e0e0" stroke="#999999" points="1307.12,-393.12 1252.88,-393.12 1252.88,-372.38 1307.12,-372.38 1307.12,-393.12"/>
<text text-anchor="middle" x="1280" y="-379.62" font-family="Helvetica,sans-Serif" font-size="10.00">fstream</text>
</a>
</g>
</g>
<!-- Node2&#45;&gt;Node30 -->
<g id="edge60_Node000002_Node000030" class="edge">
<title>Node2&#45;&gt;Node30</title>
<g id="a_edge60_Node000002_Node000030"><a xlink:title=" ">
<path fill="none" stroke="#63b8ff" d="M951.47,-443.24C1011.23,-439.66 1139.79,-428.94 1244,-399.5 1246.02,-398.93 1248.07,-398.27 1250.12,-397.55"/>
<polygon fill="#63b8ff" stroke="#63b8ff" points="1251.16,-400.51 1259.18,-393.58 1248.59,-394 1251.16,-400.51"/>
</a>
</g>
</g>
<!-- Node31 -->
<g id="Node000031" class="node">
<title>Node31</title>
<g id="a_Node000031"><a xlink:title=" ">
<polygon fill="#e0e0e0" stroke="#999999" points="1408.38,-393.12 1325.62,-393.12 1325.62,-372.38 1408.38,-372.38 1408.38,-393.12"/>
<text text-anchor="middle" x="1367" y="-379.62" font-family="Helvetica,sans-Serif" font-size="10.00">libconfig.h++</text>
</a>
</g>
</g>
<!-- Node2&#45;&gt;Node31 -->
<g id="edge62_Node000002_Node000031" class="edge">
<title>Node2&#45;&gt;Node31</title>
<g id="a_edge62_Node000002_Node000031"><a xlink:title=" ">
<path fill="none" stroke="#63b8ff" d="M951.62,-443.16C1020.58,-439.17 1182.76,-427.42 1316,-399.5 1319.9,-398.68 1323.93,-397.69 1327.94,-396.62"/>
<polygon fill="#63b8ff" stroke="#63b8ff" points="1328.74,-399.74 1337.39,-393.61 1326.81,-393.01 1328.74,-399.74"/>
</a>
</g>
</g>
<!-- Node4 -->
<g id="Node000004" class="node">
<title>Node4</title>
<g id="a_Node000004"><a xlink:href="ILight_8hpp.html" target="_top" xlink:title=" ">
<polygon fill="white" stroke="#666666" points="460.5,-330 387.5,-330 387.5,-309.25 460.5,-309.25 460.5,-330"/>
<text text-anchor="middle" x="424" y="-316.5" font-family="Helvetica,sans-Serif" font-size="10.00">../ILight.hpp</text>
</a>
</g>
</g>
<!-- Node3&#45;&gt;Node4 -->
<g id="edge3_Node000003_Node000004" class="edge">
<title>Node3&#45;&gt;Node4</title>
<g id="a_edge3_Node000003_Node000004"><a xlink:title=" ">
<path fill="none" stroke="#63b8ff" d="M473.4,-365.69C464.02,-357.13 452.47,-346.6 442.9,-337.87"/>
<polygon fill="#63b8ff" stroke="#63b8ff" points="445.53,-335.62 435.79,-331.47 440.82,-340.79 445.53,-335.62"/>
</a>
</g>
</g>
<!-- Node3&#45;&gt;Node5 -->
<g id="edge33_Node000003_Node000005" class="edge">
<title>Node3&#45;&gt;Node5</title>
<g id="a_edge33_Node000003_Node000005"><a xlink:title=" ">
<path fill="none" stroke="#63b8ff" d="M425.26,-371.94C334.26,-354.22 181,-307.57 181,-194.38 181,-194.38 181,-194.38 181,-129.25 181,-43.17 487.09,-19.09 599.9,-13.14"/>
<polygon fill="#63b8ff" stroke="#63b8ff" points="600.01,-16.59 609.82,-12.59 599.65,-9.6 600.01,-16.59"/>
</a>
</g>
</g>
<!-- Node18 -->
<g id="Node000018" class="node">
<title>Node18</title>
<g id="a_Node000018"><a xlink:title=" ">
<polygon fill="#e0e0e0" stroke="#999999" points="607.88,-140.62 570.12,-140.62 570.12,-119.88 607.88,-119.88 607.88,-140.62"/>
<text text-anchor="middle" x="589" y="-127.12" font-family="Helvetica,sans-Serif" font-size="10.00">map</text>
</a>
</g>
</g>
<!-- Node3&#45;&gt;Node18 -->
<g id="edge34_Node000003_Node000018" class="edge">
<title>Node3&#45;&gt;Node18</title>
<g id="a_edge34_Node000003_Node000018"><a xlink:title=" ">
<path fill="none" stroke="#63b8ff" d="M496.7,-365.92C506.21,-339.62 526.06,-285.29 544,-239.75 556.28,-208.57 571.34,-172.7 580.55,-151.02"/>
<polygon fill="#63b8ff" stroke="#63b8ff" points="584.09,-152.65 584.79,-142.08 577.65,-149.9 584.09,-152.65"/>
</a>
</g>
</g>
<!-- Node4&#45;&gt;Node5 -->
<g id="edge4_Node000004_Node000005" class="edge">
<title>Node4&#45;&gt;Node5</title>
<g id="a_edge4_Node000004_Node000005"><a xlink:title=" ">
<path fill="none" stroke="#63b8ff" d="M387.16,-312.14C360.72,-305.92 325.56,-294.26 301,-273.25 270.5,-247.16 257,-234.52 257,-194.38 257,-194.38 257,-194.38 257,-129.25 257,-58.07 501.16,-25.46 600.1,-15.16"/>
<polygon fill="#63b8ff" stroke="#63b8ff" points="600.27,-18.56 609.87,-14.07 599.57,-11.6 600.27,-18.56"/>
</a>
</g>
</g>
<!-- Node6 -->
<g id="Node000006" class="node">
<title>Node6</title>
<g id="a_Node000006"><a xlink:href="Color_8hpp.html" target="_top" xlink:title=" ">
<polygon fill="white" stroke="#666666" points="418.88,-140.62 285.12,-140.62 285.12,-119.88 418.88,-119.88 418.88,-140.62"/>
<text text-anchor="middle" x="352" y="-127.12" font-family="Helvetica,sans-Serif" font-size="10.00">../core/helpers/Color.hpp</text>
</a>
</g>
</g>
<!-- Node4&#45;&gt;Node6 -->
<g id="edge5_Node000004_Node000006" class="edge">
<title>Node4&#45;&gt;Node6</title>
<g id="a_edge5_Node000004_Node000006"><a xlink:title=" ">
<path fill="none" stroke="#63b8ff" d="M387.16,-314.04C361.92,-308.76 330.2,-297.46 314,-273.25 287.99,-234.38 318.7,-178.38 338.25,-149.7"/>
<polygon fill="#63b8ff" stroke="#63b8ff" points="341.42,-152.27 344.35,-142.09 335.71,-148.23 341.42,-152.27"/>
</a>
</g>
</g>
<!-- Node7 -->
<g id="Node000007" class="node">
<title>Node7</title>
<g id="a_Node000007"><a xlink:href="IPrimitive_8hpp.html" target="_top" xlink:title=" ">
<polygon fill="white" stroke="#666666" points="762.88,-203.75 617.12,-203.75 617.12,-183 762.88,-183 762.88,-203.75"/>
<text text-anchor="middle" x="690" y="-190.25" font-family="Helvetica,sans-Serif" font-size="10.00">../primitives/IPrimitive.hpp</text>
</a>
</g>
</g>
<!-- Node4&#45;&gt;Node7 -->
<g id="edge7_Node000004_Node000007" class="edge">
<title>Node4&#45;&gt;Node7</title>
<g id="a_edge7_Node000004_Node000007"><a xlink:title=" ">
<path fill="none" stroke="#63b8ff" d="M460.52,-317.18C523.43,-313.91 648.38,-303.65 678,-273.25 692.84,-258.02 694.2,-232.7 692.91,-214.87"/>
<polygon fill="#63b8ff" stroke="#63b8ff" points="696.31,-214.74 691.76,-205.17 689.35,-215.48 696.31,-214.74"/>
</a>
</g>
</g>
<!-- Node19 -->
<g id="Node000019" class="node">
<title>Node19</title>
<g id="a_Node000019"><a xlink:href="World_8hpp.html" target="_top" xlink:title=" ">
<polygon fill="white" stroke="#666666" points="459.38,-266.88 322.62,-266.88 322.62,-246.12 459.38,-246.12 459.38,-266.88"/>
<text text-anchor="middle" x="391" y="-253.38" font-family="Helvetica,sans-Serif" font-size="10.00">../core/helpers/World.hpp</text>
</a>
</g>
</g>
<!-- Node4&#45;&gt;Node19 -->
<g id="edge26_Node000004_Node000019" class="edge">
<title>Node4&#45;&gt;Node19</title>
<g id="a_edge26_Node000004_Node000019"><a xlink:title=" ">
<path fill="none" stroke="#63b8ff" d="M413.58,-308.8C407.36,-300.29 400.15,-287.7 395.25,-277.13"/>
<polygon fill="#63b8ff" stroke="#63b8ff" points="398.16,-276.01 391.11,-268.09 391.69,-278.67 398.16,-276.01"/>
</a>
</g>
</g>
<!-- Node20 -->
<g id="Node000020" class="node">
<title>Node20</title>
<g id="a_Node000020"><a xlink:title=" ">
<polygon fill="#e0e0e0" stroke="#999999" points="515.62,-203.75 458.38,-203.75 458.38,-183 515.62,-183 515.62,-203.75"/>
<text text-anchor="middle" x="487" y="-190.25" font-family="Helvetica,sans-Serif" font-size="10.00">memory</text>
</a>
</g>
</g>
<!-- Node4&#45;&gt;Node20 -->
<g id="edge32_Node000004_Node000020" class="edge">
<title>Node4&#45;&gt;Node20</title>
<g id="a_edge32_Node000004_Node000020"><a xlink:title=" ">
<path fill="none" stroke="#63b8ff" d="M436.7,-308.81C446.69,-300.42 460.17,-287.48 468,-273.25 478.06,-254.98 482.84,-231.46 485.08,-214.87"/>
<polygon fill="#63b8ff" stroke="#63b8ff" points="488.64,-215.53 486.3,-205.2 481.69,-214.73 488.64,-215.53"/>
</a>
</g>
</g>
<!-- Node6&#45;&gt;Node5 -->
<g id="edge6_Node000006_Node000005" class="edge">
<title>Node6&#45;&gt;Node5</title>
<g id="a_edge6_Node000006_Node000005"><a xlink:title=" ">
<path fill="none" stroke="#63b8ff" d="M360.6,-119.58C375.13,-103.86 406.2,-72.91 439,-56.75 491.09,-31.08 557.89,-19.74 600.08,-14.86"/>
<polygon fill="#63b8ff" stroke="#63b8ff" points="600.21,-18.26 609.77,-13.71 599.46,-11.3 600.21,-18.26"/>
</a>
</g>
</g>
<!-- Node7&#45;&gt;Node5 -->
<g id="edge23_Node000007_Node000005" class="edge">
<title>Node7&#45;&gt;Node5</title>
<g id="a_edge23_Node000007_Node000005"><a xlink:title=" ">
<path fill="none" stroke="#63b8ff" d="M617.54,-182.6C596.04,-176.03 574.63,-165.12 561,-147 536.86,-114.92 536.43,-91.23 557,-56.75 566.63,-40.6 584.22,-29.85 600.83,-22.89"/>
<polygon fill="#63b8ff" stroke="#63b8ff" points="601.86,-25.86 609.96,-19.03 599.37,-19.32 601.86,-25.86"/>
</a>
</g>
</g>
<!-- Node7&#45;&gt;Node6 -->
<g id="edge8_Node000007_Node000006" class="edge">
<title>Node7&#45;&gt;Node6</title>
<g id="a_edge8_Node000007_Node000006"><a xlink:title=" ">
<path fill="none" stroke="#63b8ff" d="M635.69,-182.55C576.16,-171.79 480.66,-154.52 417.14,-143.03"/>
<polygon fill="#63b8ff" stroke="#63b8ff" points="417.91,-139.43 407.45,-141.1 416.67,-146.32 417.91,-139.43"/>
</a>
</g>
</g>
<!-- Node8 -->
<g id="Node000008" class="node">
<title>Node8</title>
<g id="a_Node000008"><a xlink:href="Ray_8hpp.html" target="_top" xlink:title=" ">
<polygon fill="white" stroke="#666666" points="938.12,-140.62 811.88,-140.62 811.88,-119.88 938.12,-119.88 938.12,-140.62"/>
<text text-anchor="middle" x="875" y="-127.12" font-family="Helvetica,sans-Serif" font-size="10.00">../core/helpers/Ray.hpp</text>
</a>
</g>
</g>
<!-- Node7&#45;&gt;Node8 -->
<g id="edge9_Node000007_Node000008" class="edge">
<title>Node7&#45;&gt;Node8</title>
<g id="a_edge9_Node000007_Node000008"><a xlink:title=" ">
<path fill="none" stroke="#63b8ff" d="M719.72,-182.55C751.01,-172.22 800.44,-155.89 835.1,-144.43"/>
<polygon fill="#63b8ff" stroke="#63b8ff" points="835.95,-147.51 844.35,-141.05 833.76,-140.86 835.95,-147.51"/>
</a>
</g>
</g>
<!-- Node9 -->
<g id="Node000009" class="node">
<title>Node9</title>
<g id="a_Node000009"><a xlink:href="Math_8hpp.html" target="_top" xlink:title=" ">
<polygon fill="white" stroke="#666666" points="871.62,-77.5 772.38,-77.5 772.38,-56.75 871.62,-56.75 871.62,-77.5"/>
<text text-anchor="middle" x="822" y="-64" font-family="Helvetica,sans-Serif" font-size="10.00">../math/Math.hpp</text>
</a>
</g>
</g>
<!-- Node7&#45;&gt;Node9 -->
<g id="edge13_Node000007_Node000009" class="edge">
<title>Node7&#45;&gt;Node9</title>
<g id="a_edge13_Node000007_Node000009"><a xlink:title=" ">
<path fill="none" stroke="#63b8ff" d="M710.92,-182.61C726.87,-174.52 748.77,-161.95 765,-147 784.14,-129.37 800.88,-104.4 811.18,-87.3"/>
<polygon fill="#63b8ff" stroke="#63b8ff" points="814.7,-89.22 816.73,-78.82 808.66,-85.68 814.7,-89.22"/>
</a>
</g>
</g>
<!-- Node11 -->
<g id="Node000011" class="node">
<title>Node11</title>
<g id="a_Node000011"><a xlink:href="Matrix_8hpp.html" target="_top" xlink:title=" ">
<polygon fill="white" stroke="#666666" points="756,-140.62 626,-140.62 626,-119.88 756,-119.88 756,-140.62"/>
<text text-anchor="middle" x="691" y="-127.12" font-family="Helvetica,sans-Serif" font-size="10.00">../core/math/Matrix.hpp</text>
</a>
</g>
</g>
<!-- Node7&#45;&gt;Node11 -->
<g id="edge14_Node000007_Node000011" class="edge">
<title>Node7&#45;&gt;Node11</title>
<g id="a_edge14_Node000007_Node000011"><a xlink:title=" ">
<path fill="none" stroke="#63b8ff" d="M690.16,-182.55C690.3,-174.22 690.5,-161.98 690.67,-151.55"/>
<polygon fill="#63b8ff" stroke="#63b8ff" points="694.18,-151.9 690.84,-141.84 687.18,-151.79 694.18,-151.9"/>
</a>
</g>
</g>
<!-- Node7&#45;&gt;Node16 -->
<g id="edge25_Node000007_Node000016" class="edge">
<title>Node7&#45;&gt;Node16</title>
<g id="a_edge25_Node000007_Node000016"><a xlink:title=" ">
<path fill="none" stroke="#63b8ff" d="M616.9,-183.9C586.03,-177.55 551.05,-166.44 524,-147 503.03,-131.93 487.89,-105.81 479.29,-87.78"/>
<polygon fill="#63b8ff" stroke="#63b8ff" points="482.08,-86.45 474.79,-78.77 475.7,-89.32 482.08,-86.45"/>
</a>
</g>
</g>
<!-- Node7&#45;&gt;Node18 -->
<g id="edge24_Node000007_Node000018" class="edge">
<title>Node7&#45;&gt;Node18</title>
<g id="a_edge24_Node000007_Node000018"><a xlink:title=" ">
<path fill="none" stroke="#63b8ff" d="M673.77,-182.55C657.8,-172.89 633.15,-157.97 614.55,-146.71"/>
<polygon fill="#63b8ff" stroke="#63b8ff" points="616.55,-143.23 606.19,-141.05 612.93,-149.22 616.55,-143.23"/>
</a>
</g>
</g>
<!-- Node8&#45;&gt;Node9 -->
<g id="edge10_Node000008_Node000009" class="edge">
<title>Node8&#45;&gt;Node9</title>
<g id="a_edge10_Node000008_Node000009"><a xlink:title=" ">
<path fill="none" stroke="#63b8ff" d="M866.48,-119.43C858.63,-110.38 846.8,-96.72 837.31,-85.78"/>
<polygon fill="#63b8ff" stroke="#63b8ff" points="839.51,-83.98 830.32,-78.72 834.23,-88.57 839.51,-83.98"/>
</a>
</g>
</g>
<!-- Node9&#45;&gt;Node5 -->
<g id="edge11_Node000009_Node000005" class="edge">
<title>Node9&#45;&gt;Node5</title>
<g id="a_edge11_Node000009_Node000005"><a xlink:title=" ">
<path fill="none" stroke="#63b8ff" d="M789.64,-56.34C759.27,-47.15 713.75,-33.38 681.09,-23.5"/>
<polygon fill="#63b8ff" stroke="#63b8ff" points="682.56,-19.99 671.98,-20.44 680.53,-26.69 682.56,-19.99"/>
</a>
</g>
</g>
<!-- Node10 -->
<g id="Node000010" class="node">
<title>Node10</title>
<g id="a_Node000010"><a xlink:title=" ">
<polygon fill="#e0e0e0" stroke="#999999" points="845.38,-20.75 798.62,-20.75 798.62,0 845.38,0 845.38,-20.75"/>
<text text-anchor="middle" x="822" y="-7.25" font-family="Helvetica,sans-Serif" font-size="10.00">cmath</text>
</a>
</g>
</g>
<!-- Node9&#45;&gt;Node10 -->
<g id="edge12_Node000009_Node000010" class="edge">
<title>Node9&#45;&gt;Node10</title>
<g id="a_edge12_Node000009_Node000010"><a xlink:title=" ">
<path fill="none" stroke="#63b8ff" d="M822,-56.34C822,-49.56 822,-40.3 822,-31.94"/>
<polygon fill="#63b8ff" stroke="#63b8ff" points="825.5,-32.08 822,-22.08 818.5,-32.08 825.5,-32.08"/>
</a>
</g>
</g>
<!-- Node11&#45;&gt;Node5 -->
<g id="edge20_Node000011_Node000005" class="edge">
<title>Node11&#45;&gt;Node5</title>
<g id="a_edge20_Node000011_Node000005"><a xlink:title=" ">
<path fill="none" stroke="#63b8ff" d="M701.6,-119.56C715.8,-105.35 737.82,-78.24 725,-56.75 715.37,-40.6 697.78,-29.85 681.17,-22.89"/>
<polygon fill="#63b8ff" stroke="#63b8ff" points="682.63,-19.32 672.04,-19.03 680.14,-25.86 682.63,-19.32"/>
</a>
</g>
</g>
<!-- Node11&#45;&gt;Node9 -->
<g id="edge15_Node000011_Node000009" class="edge">
<title>Node11&#45;&gt;Node9</title>
<g id="a_edge15_Node000011_Node000009"><a xlink:title=" ">
<path fill="none" stroke="#63b8ff" d="M712.05,-119.43C733.44,-109.45 766.8,-93.88 791.17,-82.51"/>
<polygon fill="#63b8ff" stroke="#63b8ff" points="792.42,-85.32 800,-77.92 789.46,-78.98 792.42,-85.32"/>
</a>
</g>
</g>
<!-- Node12 -->
<g id="Node000012" class="node">
<title>Node12</title>
<g id="a_Node000012"><a xlink:href="Error_8hpp.html" target="_top" xlink:title=" ">
<polygon fill="white" stroke="#666666" points="115.38,-77.5 20.62,-77.5 20.62,-56.75 115.38,-56.75 115.38,-77.5"/>
<text text-anchor="middle" x="68" y="-64" font-family="Helvetica,sans-Serif" font-size="10.00">../error/Error.hpp</text>
</a>
</g>
</g>
<!-- Node11&#45;&gt;Node12 -->
<g id="edge16_Node000011_Node000012" class="edge">
<title>Node11&#45;&gt;Node12</title>
<g id="a_edge16_Node000011_Node000012"><a xlink:title=" ">
<path fill="none" stroke="#63b8ff" d="M649.29,-119.4C638.8,-117.19 627.53,-115.05 617,-113.5 439.39,-87.37 227.07,-75.16 126.44,-70.51"/>
<polygon fill="#63b8ff" stroke="#63b8ff" points="126.75,-66.98 116.6,-70.02 126.43,-73.97 126.75,-66.98"/>
</a>
</g>
</g>
<!-- Node15 -->
<g id="Node000015" class="node">
<title>Node15</title>
<g id="a_Node000015"><a xlink:title=" ">
<polygon fill="#e0e0e0" stroke="#999999" points="648,-77.5 566,-77.5 566,-56.75 648,-56.75 648,-77.5"/>
<text text-anchor="middle" x="607" y="-64" font-family="Helvetica,sans-Serif" font-size="10.00">initializer_list</text>
</a>
</g>
</g>
<!-- Node11&#45;&gt;Node15 -->
<g id="edge19_Node000011_Node000015" class="edge">
<title>Node11&#45;&gt;Node15</title>
<g id="a_edge19_Node000011_Node000015"><a xlink:title=" ">
<path fill="none" stroke="#63b8ff" d="M677.5,-119.43C664.52,-109.98 644.66,-95.53 629.33,-84.37"/>
<polygon fill="#63b8ff" stroke="#63b8ff" points="631.61,-80.98 621.46,-77.92 627.49,-86.64 631.61,-80.98"/>
</a>
</g>
</g>
<!-- Node11&#45;&gt;Node16 -->
<g id="edge21_Node000011_Node000016" class="edge">
<title>Node11&#45;&gt;Node16</title>
<g id="a_edge21_Node000011_Node000016"><a xlink:title=" ">
<path fill="none" stroke="#63b8ff" d="M655.65,-119.43C614.26,-107.93 546.18,-89.01 505.26,-77.64"/>
<polygon fill="#63b8ff" stroke="#63b8ff" points="506.31,-74.02 495.73,-74.72 504.43,-80.77 506.31,-74.02"/>
</a>
</g>
</g>
<!-- Node17 -->
<g id="Node000017" class="node">
<title>Node17</title>
<g id="a_Node000017"><a xlink:title=" ">
<polygon fill="#e0e0e0" stroke="#999999" points="715.5,-77.5 666.5,-77.5 666.5,-56.75 715.5,-56.75 715.5,-77.5"/>
<text text-anchor="middle" x="691" y="-64" font-family="Helvetica,sans-Serif" font-size="10.00">format</text>
</a>
</g>
</g>
<!-- Node11&#45;&gt;Node17 -->
<g id="edge22_Node000011_Node000017" class="edge">
<title>Node11&#45;&gt;Node17</title>
<g id="a_edge22_Node000011_Node000017"><a xlink:title=" ">
<path fill="none" stroke="#63b8ff" d="M691,-119.43C691,-111.09 691,-98.86 691,-88.43"/>
<polygon fill="#63b8ff" stroke="#63b8ff" points="694.5,-88.72 691,-78.72 687.5,-88.72 694.5,-88.72"/>
</a>
</g>
</g>
<!-- Node13 -->
<g id="Node000013" class="node">
<title>Node13</title>
<g id="a_Node000013"><a xlink:title=" ">
<polygon fill="#e0e0e0" stroke="#999999" points="64,-20.75 0,-20.75 0,0 64,0 64,-20.75"/>
<text text-anchor="middle" x="32" y="-7.25" font-family="Helvetica,sans-Serif" font-size="10.00">stdexcept</text>
</a>
</g>
</g>
<!-- Node12&#45;&gt;Node13 -->
<g id="edge17_Node000012_Node000013" class="edge">
<title>Node12&#45;&gt;Node13</title>
<g id="a_edge17_Node000012_Node000013"><a xlink:title=" ">
<path fill="none" stroke="#63b8ff" d="M61.56,-56.34C56.8,-49.1 50.17,-39.01 44.39,-30.22"/>
<polygon fill="#63b8ff" stroke="#63b8ff" points="46.8,-28.51 38.38,-22.08 40.95,-32.36 46.8,-28.51"/>
</a>
</g>
</g>
<!-- Node14 -->
<g id="Node000014" class="node">
<title>Node14</title>
<g id="a_Node000014"><a xlink:title=" ">
<polygon fill="#e0e0e0" stroke="#999999" points="125.88,-20.75 82.12,-20.75 82.12,0 125.88,0 125.88,-20.75"/>
<text text-anchor="middle" x="104" y="-7.25" font-family="Helvetica,sans-Serif" font-size="10.00">string</text>
</a>
</g>
</g>
<!-- Node12&#45;&gt;Node14 -->
<g id="edge18_Node000012_Node000014" class="edge">
<title>Node12&#45;&gt;Node14</title>
<g id="a_edge18_Node000012_Node000014"><a xlink:title=" ">
<path fill="none" stroke="#63b8ff" d="M74.44,-56.34C79.2,-49.1 85.83,-39.01 91.61,-30.22"/>
<polygon fill="#63b8ff" stroke="#63b8ff" points="95.05,-32.36 97.62,-22.08 89.2,-28.51 95.05,-32.36"/>
</a>
</g>
</g>
<!-- Node19&#45;&gt;Node4 -->
<g id="edge28_Node000019_Node000004" class="edge">
<title>Node19&#45;&gt;Node4</title>
<g id="a_edge28_Node000019_Node000004"><a xlink:title=" ">
<path fill="none" stroke="#63b8ff" d="M401.25,-267.09C407.46,-275.54 414.68,-288.1 419.62,-298.71"/>
<polygon fill="#63b8ff" stroke="#63b8ff" points="416.74,-299.91 423.81,-307.8 423.21,-297.23 416.74,-299.91"/>
</a>
</g>
</g>
<!-- Node19&#45;&gt;Node7 -->
<g id="edge27_Node000019_Node000007" class="edge">
<title>Node19&#45;&gt;Node7</title>
<g id="a_edge27_Node000019_Node000007"><a xlink:title=" ">
<path fill="none" stroke="#63b8ff" d="M439.04,-245.68C491.46,-234.96 575.39,-217.81 631.58,-206.32"/>
<polygon fill="#63b8ff" stroke="#63b8ff" points="631.98,-209.6 641.08,-204.17 630.58,-202.75 631.98,-209.6"/>
</a>
</g>
</g>
<!-- Node19&#45;&gt;Node16 -->
<g id="edge29_Node000019_Node000016" class="edge">
<title>Node19&#45;&gt;Node16</title>
<g id="a_edge29_Node000019_Node000016"><a xlink:title=" ">
<path fill="none" stroke="#63b8ff" d="M387.82,-246.07C383.55,-231.73 377.54,-203.9 387,-183 397,-160.91 412.85,-165.94 428,-147 442.86,-128.42 455.28,-103.97 462.89,-87.24"/>
<polygon fill="#63b8ff" stroke="#63b8ff" points="466.35,-89.07 467.18,-78.51 459.95,-86.25 466.35,-89.07"/>
</a>
</g>
</g>
<!-- Node19&#45;&gt;Node20 -->
<g id="edge30_Node000019_Node000020" class="edge">
<title>Node19&#45;&gt;Node20</title>
<g id="a_edge30_Node000019_Node000020"><a xlink:title=" ">
<path fill="none" stroke="#63b8ff" d="M406.42,-245.68C421.54,-236.05 444.82,-221.23 462.47,-209.99"/>
<polygon fill="#63b8ff" stroke="#63b8ff" points="464.06,-212.49 470.61,-204.17 460.3,-206.59 464.06,-212.49"/>
</a>
</g>
</g>
<!-- Node21 -->
<g id="Node000021" class="node">
<title>Node21</title>
<g id="a_Node000021"><a xlink:title=" ">
<polygon fill="#e0e0e0" stroke="#999999" points="439.88,-203.75 396.12,-203.75 396.12,-183 439.88,-183 439.88,-203.75"/>
<text text-anchor="middle" x="418" y="-190.25" font-family="Helvetica,sans-Serif" font-size="10.00">limits</text>
</a>
</g>
</g>
<!-- Node19&#45;&gt;Node21 -->
<g id="edge31_Node000019_Node000021" class="edge">
<title>Node19&#45;&gt;Node21</title>
<g id="a_edge31_Node000019_Node000021"><a xlink:title=" ">
<path fill="none" stroke="#63b8ff" d="M395.34,-245.68C399.1,-237.16 404.66,-224.58 409.33,-214.01"/>
<polygon fill="#63b8ff" stroke="#63b8ff" points="412.92,-215.53 413.76,-204.97 406.52,-212.7 412.92,-215.53"/>
</a>
</g>
</g>
<!-- Node22&#45;&gt;Node4 -->
<g id="edge36_Node000022_Node000004" class="edge">
<title>Node22&#45;&gt;Node4</title>
<g id="a_edge36_Node000022_Node000004"><a xlink:title=" ">
<path fill="none" stroke="#63b8ff" d="M1000.72,-376.67C880.75,-365.01 587.15,-336.48 471.72,-325.26"/>
<polygon fill="#63b8ff" stroke="#63b8ff" points="472.09,-321.68 461.8,-324.2 471.41,-328.65 472.09,-321.68"/>
</a>
</g>
</g>
<!-- Node22&#45;&gt;Node5 -->
<g id="edge37_Node000022_Node000005" class="edge">
<title>Node22&#45;&gt;Node5</title>
<g id="a_edge37_Node000022_Node000005"><a xlink:title=" ">
<path fill="none" stroke="#63b8ff" d="M1089.34,-365.54C1127.18,-345.89 1181,-308.91 1181,-257.5 1181,-257.5 1181,-257.5 1181,-129.25 1181,-57.2 1105.06,-77.28 1036,-56.75 970.32,-37.22 768.92,-20.69 681.83,-14.25"/>
<polygon fill="#63b8ff" stroke="#63b8ff" points="682.29,-10.71 672.06,-13.47 681.78,-17.69 682.29,-10.71"/>
</a>
</g>
</g>
<!-- Node22&#45;&gt;Node18 -->
<g id="edge38_Node000022_Node000018" class="edge">
<title>Node22&#45;&gt;Node18</title>
<g id="a_edge38_Node000022_Node000018"><a xlink:title=" ">
<path fill="none" stroke="#63b8ff" d="M1064.31,-365.89C1082.98,-337.6 1115.39,-277.81 1086,-239.75 1055.54,-200.3 917.86,-192.85 869,-183 758.09,-160.65 724.14,-183.36 617,-147 615.89,-146.62 614.78,-146.2 613.66,-145.75"/>
<polygon fill="#63b8ff" stroke="#63b8ff" points="615.45,-142.24 604.93,-140.99 612.37,-148.52 615.45,-142.24"/>
</a>
</g>
</g>
<!-- Node23&#45;&gt;Node7 -->
<g id="edge40_Node000023_Node000007" class="edge">
<title>Node23&#45;&gt;Node7</title>
<g id="a_edge40_Node000023_Node000007"><a xlink:title=" ">
<path fill="none" stroke="#63b8ff" d="M752.67,-239.44C740.28,-230.53 724.92,-219.49 712.51,-210.56"/>
<polygon fill="#63b8ff" stroke="#63b8ff" points="714.85,-207.21 704.69,-204.22 710.76,-212.9 714.85,-207.21"/>
</a>
</g>
</g>
<!-- Node23&#45;&gt;Node18 -->
<g id="edge41_Node000023_Node000018" class="edge">
<title>Node23&#45;&gt;Node18</title>
<g id="a_edge41_Node000023_Node000018"><a xlink:title=" ">
<path fill="none" stroke="#63b8ff" d="M779.41,-239.41C782.79,-223.27 784.94,-198.62 772,-183 726.88,-128.54 682.93,-172.59 617,-147 616.09,-146.65 615.17,-146.27 614.26,-145.87"/>
<polygon fill="#63b8ff" stroke="#63b8ff" points="616.12,-142.39 605.61,-141.06 612.99,-148.65 616.12,-142.39"/>
</a>
</g>
</g>
<!-- Node24&#45;&gt;Node7 -->
<g id="edge43_Node000024_Node000007" class="edge">
<title>Node24&#45;&gt;Node7</title>
<g id="a_edge43_Node000024_Node000007"><a xlink:title=" ">
<path fill="none" stroke="#63b8ff" d="M631.76,-239.44C643.16,-230.62 657.27,-219.7 668.74,-210.82"/>
<polygon fill="#63b8ff" stroke="#63b8ff" points="670.51,-213.1 676.28,-204.22 666.23,-207.57 670.51,-213.1"/>
</a>
</g>
</g>
<!-- Node24&#45;&gt;Node18 -->
<g id="edge44_Node000024_Node000018" class="edge">
<title>Node24&#45;&gt;Node18</title>
<g id="a_edge44_Node000024_Node000018"><a xlink:title=" ">
<path fill="none" stroke="#63b8ff" d="M608.12,-239.26C604.14,-216.76 596.94,-176.12 592.61,-151.62"/>
<polygon fill="#63b8ff" stroke="#63b8ff" points="595.92,-151.27 590.73,-142.04 589.03,-152.49 595.92,-151.27"/>
</a>
</g>
</g>
<!-- Node25&#45;&gt;Node7 -->
<g id="edge46_Node000025_Node000007" class="edge">
<title>Node25&#45;&gt;Node7</title>
<g id="a_edge46_Node000025_Node000007"><a xlink:title=" ">
<path fill="none" stroke="#63b8ff" d="M843.48,-239.92C809.43,-229.81 765.59,-216.8 733.49,-207.28"/>
<polygon fill="#63b8ff" stroke="#63b8ff" points="734.66,-203.68 724.08,-204.19 732.67,-210.39 734.66,-203.68"/>
</a>
</g>
</g>
<!-- Node25&#45;&gt;Node18 -->
<g id="edge47_Node000025_Node000018" class="edge">
<title>Node25&#45;&gt;Node18</title>
<g id="a_edge47_Node000025_Node000018"><a xlink:title=" ">
<path fill="none" stroke="#63b8ff" d="M877.43,-239.38C857.27,-222.74 823.44,-197.24 790,-183 717.74,-152.23 690.54,-174.58 617,-147 615.93,-146.6 614.85,-146.16 613.77,-145.69"/>
<polygon fill="#63b8ff" stroke="#63b8ff" points="615.8,-142.29 605.29,-140.96 612.67,-148.56 615.8,-142.29"/>
</a>
</g>
</g>
<!-- Node26&#45;&gt;Node7 -->
<g id="edge49_Node000026_Node000007" class="edge">
<title>Node26&#45;&gt;Node7</title>
<g id="a_edge49_Node000026_Node000007"><a xlink:title=" ">
<path fill="none" stroke="#63b8ff" d="M966.39,-241.76C963.22,-241.06 960.07,-240.38 957,-239.75 893.02,-226.58 819.85,-214.34 766.3,-205.9"/>
<polygon fill="#63b8ff" stroke="#63b8ff" points="766.95,-202.3 756.53,-204.21 765.86,-209.22 766.95,-202.3"/>
</a>
</g>
</g>
<!-- Node26&#45;&gt;Node18 -->
<g id="edge50_Node000026_Node000018" class="edge">
<title>Node26&#45;&gt;Node18</title>
<g id="a_edge50_Node000026_Node000018"><a xlink:title=" ">
<path fill="none" stroke="#63b8ff" d="M983.55,-239.29C943.74,-223.06 879.45,-198.33 822,-183 732.62,-159.15 704.11,-178.12 617,-147 615.92,-146.62 614.84,-146.19 613.76,-145.74"/>
<polygon fill="#63b8ff" stroke="#63b8ff" points="615.77,-142.33 605.25,-141.05 612.68,-148.61 615.77,-142.33"/>
</a>
</g>
</g>
<!-- Node27&#45;&gt;Node5 -->
<g id="edge57_Node000027_Node000005" class="edge">
<title>Node27&#45;&gt;Node5</title>
<g id="a_edge57_Node000027_Node000005"><a xlink:title=" ">
<path fill="none" stroke="#63b8ff" d="M1097.6,-182.6C1107.52,-166.58 1123.54,-134.42 1108,-113.5 1057.03,-44.88 785.71,-20.57 681.66,-13.69"/>
<polygon fill="#63b8ff" stroke="#63b8ff" points="682.18,-10.15 671.97,-13 681.73,-17.14 682.18,-10.15"/>
</a>
</g>
</g>
<!-- Node27&#45;&gt;Node8 -->
<g id="edge52_Node000027_Node000008" class="edge">
<title>Node27&#45;&gt;Node8</title>
<g id="a_edge52_Node000027_Node000008"><a xlink:title=" ">
<path fill="none" stroke="#63b8ff" d="M1056.3,-182.55C1019.29,-172.08 960.56,-155.46 920.02,-143.99"/>
<polygon fill="#63b8ff" stroke="#63b8ff" points="921.19,-140.4 910.62,-141.05 919.29,-147.14 921.19,-140.4"/>
</a>
</g>
</g>
<!-- Node27&#45;&gt;Node11 -->
<g id="edge56_Node000027_Node000011" class="edge">
<title>Node27&#45;&gt;Node11</title>
<g id="a_edge56_Node000027_Node000011"><a xlink:title=" ">
<path fill="none" stroke="#63b8ff" d="M1028.5,-182.82C957.46,-171.97 841.57,-154.26 765.8,-142.68"/>
<polygon fill="#63b8ff" stroke="#63b8ff" points="766.79,-139.14 756.38,-141.09 765.73,-146.06 766.79,-139.14"/>
</a>
</g>
</g>
<!-- Node27&#45;&gt;Node18 -->
<g id="edge58_Node000027_Node000018" class="edge">
<title>Node27&#45;&gt;Node18</title>
<g id="a_edge58_Node000027_Node000018"><a xlink:title=" ">
<path fill="none" stroke="#63b8ff" d="M1028.81,-184.54C1024.14,-184 1019.49,-183.48 1015,-183 838.39,-164.13 786.61,-199.71 617,-147 615.71,-146.6 614.42,-146.13 613.13,-145.62"/>
<polygon fill="#63b8ff" stroke="#63b8ff" points="615.11,-142.2 604.58,-140.98 612.05,-148.5 615.11,-142.2"/>
</a>
</g>
</g>
<!-- Node28 -->
<g id="Node000028" class="node">
<title>Node28</title>
<g id="a_Node000028"><a xlink:href="Rectangle3D_8hpp.html" target="_top" xlink:title=" ">
<polygon fill="white" stroke="#666666" points="1099.38,-147 956.62,-147 956.62,-113.5 1099.38,-113.5 1099.38,-147"/>
<text text-anchor="start" x="964.62" y="-133.5" font-family="Helvetica,sans-Serif" font-size="10.00">../core/helpers/Rectangle3</text>
<text text-anchor="middle" x="1028" y="-120.75" font-family="Helvetica,sans-Serif" font-size="10.00">D.hpp</text>
</a>
</g>
</g>
<!-- Node27&#45;&gt;Node28 -->
<g id="edge53_Node000027_Node000028" class="edge">
<title>Node27&#45;&gt;Node28</title>
<g id="a_edge53_Node000027_Node000028"><a xlink:title=" ">
<path fill="none" stroke="#63b8ff" d="M1080.88,-182.55C1073.19,-175.1 1062.29,-164.52 1052.39,-154.91"/>
<polygon fill="#63b8ff" stroke="#63b8ff" points="1055.35,-152.94 1045.73,-148.48 1050.47,-157.96 1055.35,-152.94"/>
</a>
</g>
</g>
<!-- Node28&#45;&gt;Node5 -->
<g id="edge54_Node000028_Node000005" class="edge">
<title>Node28&#45;&gt;Node5</title>
<g id="a_edge54_Node000028_Node000005"><a xlink:title=" ">
<path fill="none" stroke="#63b8ff" d="M1000.78,-113.01C971.97,-96.51 924.72,-71.36 881,-56.75 813.09,-34.06 730.36,-21.56 681.9,-15.68"/>
<polygon fill="#63b8ff" stroke="#63b8ff" points="682.56,-12.12 672.22,-14.43 681.74,-19.07 682.56,-12.12"/>
</a>
</g>
</g>
<!-- Node28&#45;&gt;Node9 -->
<g id="edge55_Node000028_Node000009" class="edge">
<title>Node28&#45;&gt;Node9</title>
<g id="a_edge55_Node000028_Node000009"><a xlink:title=" ">
<path fill="none" stroke="#63b8ff" d="M973.34,-113.03C939.5,-102.99 896.65,-90.28 865.2,-80.94"/>
<polygon fill="#63b8ff" stroke="#63b8ff" points="866.58,-77.4 855.99,-77.92 864.59,-84.12 866.58,-77.4"/>
</a>
</g>
</g>
</g>
</svg>
