<?xml version="1.0" encoding="UTF-8" standalone="no"?>
<!DOCTYPE svg PUBLIC "-//W3C//DTD SVG 1.1//EN"
 "http://www.w3.org/Graphics/SVG/1.1/DTD/svg11.dtd">
<!-- Generated by graphviz version 8.1.0 (20230707.0739)
 -->
<!-- Title: src/primitives/plane/Plane.hpp Pages: 1 -->
<svg width="856pt" height="294pt"
 viewBox="0.00 0.00 855.50 294.00" xmlns="http://www.w3.org/2000/svg" xmlns:xlink="http://www.w3.org/1999/xlink">
<g id="graph0" class="graph" transform="scale(1 1) rotate(0) translate(4 290)">
<title>src/primitives/plane/Plane.hpp</title>
<!-- Node1 -->
<g id="Node000001" class="node">
<title>Node1</title>
<g id="a_Node000001"><a xlink:title=" ">
<polygon fill="#999999" stroke="#666666" points="423.62,-286 310.88,-286 310.88,-252.5 423.62,-252.5 423.62,-286"/>
<text text-anchor="start" x="318.88" y="-272.5" font-family="Helvetica,sans-Serif" font-size="10.00">src/primitives/plane</text>
<text text-anchor="middle" x="367.25" y="-259.75" font-family="Helvetica,sans-Serif" font-size="10.00">/Plane.hpp</text>
</a>
</g>
</g>
<!-- Node2 -->
<g id="Node000002" class="node">
<title>Node2</title>
<g id="a_Node000002"><a xlink:href="Primitive__fact_8cpp.html" target="_top" xlink:title=" ">
<polygon fill="white" stroke="#666666" points="134.5,-140.62 0,-140.62 0,-119.88 134.5,-119.88 134.5,-140.62"/>
<text text-anchor="middle" x="67.25" y="-127.12" font-family="Helvetica,sans-Serif" font-size="10.00">paser/Primitive_fact.cpp</text>
</a>
</g>
</g>
<!-- Node1&#45;&gt;Node2 -->
<g id="edge1_Node000001_Node000002" class="edge">
<title>Node1&#45;&gt;Node2</title>
<g id="a_edge1_Node000001_Node000002"><a xlink:title=" ">
<path fill="none" stroke="#63b8ff" d="M299.64,-264.93C224.55,-259.77 109.95,-247.02 80.25,-216.5 60.31,-196.01 62.89,-158.64 65.48,-140.98"/>
<polygon fill="#63b8ff" stroke="#63b8ff" points="299.21,-268.48 309.42,-265.64 299.67,-261.49 299.21,-268.48"/>
</a>
</g>
</g>
<!-- Node3 -->
<g id="Node000003" class="node">
<title>Node3</title>
<g id="a_Node000003"><a xlink:href="Primitive__fact_8hpp.html" target="_top" xlink:title=" ">
<polygon fill="white" stroke="#666666" points="224.88,-210.12 89.62,-210.12 89.62,-189.38 224.88,-189.38 224.88,-210.12"/>
<text text-anchor="middle" x="157.25" y="-196.62" font-family="Helvetica,sans-Serif" font-size="10.00">paser/Primitive_fact.hpp</text>
</a>
</g>
</g>
<!-- Node1&#45;&gt;Node3 -->
<g id="edge2_Node000001_Node000003" class="edge">
<title>Node1&#45;&gt;Node3</title>
<g id="a_edge2_Node000001_Node000003"><a xlink:title=" ">
<path fill="none" stroke="#63b8ff" d="M306.79,-248.82C267.91,-236.32 219.03,-220.61 187.96,-210.62"/>
<polygon fill="#63b8ff" stroke="#63b8ff" points="305.36,-252.35 315.95,-252.08 307.5,-245.69 305.36,-252.35"/>
</a>
</g>
</g>
<!-- Node5 -->
<g id="Node000005" class="node">
<title>Node5</title>
<g id="a_Node000005"><a xlink:href="paser_2Scene_8hpp.html" target="_top" xlink:title=" ">
<polygon fill="white" stroke="#666666" points="339.38,-210.12 243.12,-210.12 243.12,-189.38 339.38,-189.38 339.38,-210.12"/>
<text text-anchor="middle" x="291.25" y="-196.62" font-family="Helvetica,sans-Serif" font-size="10.00">paser/Scene.hpp</text>
</a>
</g>
</g>
<!-- Node1&#45;&gt;Node5 -->
<g id="edge5_Node000001_Node000005" class="edge">
<title>Node1&#45;&gt;Node5</title>
<g id="a_edge5_Node000001_Node000005"><a xlink:title=" ">
<path fill="none" stroke="#63b8ff" d="M341.31,-245.21C328,-233.39 312.5,-219.62 302.31,-210.57"/>
<polygon fill="#63b8ff" stroke="#63b8ff" points="338.44,-247.23 348.24,-251.25 343.09,-242 338.44,-247.23"/>
</a>
</g>
</g>
<!-- Node6 -->
<g id="Node000006" class="node">
<title>Node6</title>
<g id="a_Node000006"><a xlink:href="parse_8hpp.html" target="_top" xlink:title=" ">
<polygon fill="white" stroke="#666666" points="332.25,-140.62 238.25,-140.62 238.25,-119.88 332.25,-119.88 332.25,-140.62"/>
<text text-anchor="middle" x="285.25" y="-127.12" font-family="Helvetica,sans-Serif" font-size="10.00">paser/parse.hpp</text>
</a>
</g>
</g>
<!-- Node1&#45;&gt;Node6 -->
<g id="edge9_Node000001_Node000006" class="edge">
<title>Node1&#45;&gt;Node6</title>
<g id="a_edge9_Node000001_Node000006"><a xlink:title=" ">
<path fill="none" stroke="#63b8ff" d="M365.8,-241.58C363.81,-223.87 359.13,-200.7 348.25,-183 337.06,-164.79 317.15,-150.06 302.7,-141.04"/>
<polygon fill="#63b8ff" stroke="#63b8ff" points="362.39,-241.68 366.77,-251.33 369.36,-241.05 362.39,-241.68"/>
</a>
</g>
</g>
<!-- Node7 -->
<g id="Node000007" class="node">
<title>Node7</title>
<g id="a_Node000007"><a xlink:href="Factory_8hpp.html" target="_top" xlink:title=" ">
<polygon fill="white" stroke="#666666" points="524.88,-216.5 395.62,-216.5 395.62,-183 524.88,-183 524.88,-216.5"/>
<text text-anchor="start" x="403.62" y="-203" font-family="Helvetica,sans-Serif" font-size="10.00">src/core/designPatterns</text>
<text text-anchor="middle" x="460.25" y="-190.25" font-family="Helvetica,sans-Serif" font-size="10.00">/Factory.hpp</text>
</a>
</g>
</g>
<!-- Node1&#45;&gt;Node7 -->
<g id="edge10_Node000001_Node000007" class="edge">
<title>Node1&#45;&gt;Node7</title>
<g id="a_edge10_Node000001_Node000007"><a xlink:title=" ">
<path fill="none" stroke="#63b8ff" d="M397.99,-245.94C411.08,-236.44 426.06,-225.56 438.05,-216.87"/>
<polygon fill="#63b8ff" stroke="#63b8ff" points="396.33,-243.55 390.29,-252.25 400.44,-249.21 396.33,-243.55"/>
</a>
</g>
</g>
<!-- Node15 -->
<g id="Node000015" class="node">
<title>Node15</title>
<g id="a_Node000015"><a xlink:href="Parser_8hpp.html" target="_top" xlink:title=" ">
<polygon fill="white" stroke="#666666" points="683.88,-210.12 566.62,-210.12 566.62,-189.38 683.88,-189.38 683.88,-210.12"/>
<text text-anchor="middle" x="625.25" y="-196.62" font-family="Helvetica,sans-Serif" font-size="10.00">src/parser/Parser.hpp</text>
</a>
</g>
</g>
<!-- Node1&#45;&gt;Node15 -->
<g id="edge18_Node000001_Node000015" class="edge">
<title>Node1&#45;&gt;Node15</title>
<g id="a_edge18_Node000001_Node000015"><a xlink:title=" ">
<path fill="none" stroke="#63b8ff" d="M434.37,-250.69C483.31,-237.89 547.8,-221.01 587.89,-210.52"/>
<polygon fill="#63b8ff" stroke="#63b8ff" points="433.66,-247.52 424.87,-253.44 435.43,-254.29 433.66,-247.52"/>
</a>
</g>
</g>
<!-- Node17 -->
<g id="Node000017" class="node">
<title>Node17</title>
<g id="a_Node000017"><a xlink:href="Plane_8cpp.html" target="_top" xlink:title=" ">
<polygon fill="white" stroke="#666666" points="814.62,-216.5 701.88,-216.5 701.88,-183 814.62,-183 814.62,-216.5"/>
<text text-anchor="start" x="709.88" y="-203" font-family="Helvetica,sans-Serif" font-size="10.00">src/primitives/plane</text>
<text text-anchor="middle" x="758.25" y="-190.25" font-family="Helvetica,sans-Serif" font-size="10.00">/Plane.cpp</text>
</a>
</g>
</g>
<!-- Node1&#45;&gt;Node17 -->
<g id="edge23_Node000001_Node000017" class="edge">
<title>Node1&#45;&gt;Node17</title>
<g id="a_edge23_Node000001_Node000017"><a xlink:title=" ">
<path fill="none" stroke="#63b8ff" d="M434.72,-259.15C500.84,-249.86 604.36,-234.29 693.25,-216.5 695.98,-215.95 698.77,-215.37 701.59,-214.76"/>
<polygon fill="#63b8ff" stroke="#63b8ff" points="434.45,-255.8 425.03,-260.65 435.42,-262.73 434.45,-255.8"/>
</a>
</g>
</g>
<!-- Node3&#45;&gt;Node2 -->
<g id="edge3_Node000003_Node000002" class="edge">
<title>Node3&#45;&gt;Node2</title>
<g id="a_edge3_Node000003_Node000002"><a xlink:title=" ">
<path fill="none" stroke="#63b8ff" d="M136.02,-182.83C118.78,-169.9 95.01,-152.07 80.41,-141.12"/>
<polygon fill="#63b8ff" stroke="#63b8ff" points="133.26,-185.88 143.36,-189.08 137.46,-180.28 133.26,-185.88"/>
</a>
</g>
</g>
<!-- Node4 -->
<g id="Node000004" class="node">
<title>Node4</title>
<g id="a_Node000004"><a xlink:href="parse_8cpp.html" target="_top" xlink:title=" ">
<polygon fill="white" stroke="#666666" points="256.88,-77.5 163.62,-77.5 163.62,-56.75 256.88,-56.75 256.88,-77.5"/>
<text text-anchor="middle" x="210.25" y="-64" font-family="Helvetica,sans-Serif" font-size="10.00">paser/parse.cpp</text>
</a>
</g>
</g>
<!-- Node3&#45;&gt;Node4 -->
<g id="edge4_Node000003_Node000004" class="edge">
<title>Node3&#45;&gt;Node4</title>
<g id="a_edge4_Node000003_Node000004"><a xlink:title=" ">
<path fill="none" stroke="#63b8ff" d="M165.3,-178.92C176.86,-150.41 197.74,-98.95 206.36,-77.7"/>
<polygon fill="#63b8ff" stroke="#63b8ff" points="161.75,-177.35 161.23,-187.93 168.24,-179.98 161.75,-177.35"/>
</a>
</g>
</g>
<!-- Node5&#45;&gt;Node4 -->
<g id="edge6_Node000005_Node000004" class="edge">
<title>Node5&#45;&gt;Node4</title>
<g id="a_edge6_Node000005_Node000004"><a xlink:title=" ">
<path fill="none" stroke="#63b8ff" d="M265.59,-183.07C252.85,-174.03 238.3,-161.57 229.25,-147 215.43,-124.75 211.66,-93.19 210.63,-77.6"/>
<polygon fill="#63b8ff" stroke="#63b8ff" points="263.19,-186.34 273.43,-189.03 267.1,-180.54 263.19,-186.34"/>
</a>
</g>
</g>
<!-- Node5&#45;&gt;Node6 -->
<g id="edge7_Node000005_Node000006" class="edge">
<title>Node5&#45;&gt;Node6</title>
<g id="a_edge7_Node000005_Node000006"><a xlink:title=" ">
<path fill="none" stroke="#63b8ff" d="M289.43,-178.33C288.33,-165.91 286.97,-150.62 286.11,-140.9"/>
<polygon fill="#63b8ff" stroke="#63b8ff" points="286.02,-178.43 290.39,-188.08 292.99,-177.81 286.02,-178.43"/>
</a>
</g>
</g>
<!-- Node6&#45;&gt;Node4 -->
<g id="edge8_Node000006_Node000004" class="edge">
<title>Node6&#45;&gt;Node4</title>
<g id="a_edge8_Node000006_Node000004"><a xlink:title=" ">
<path fill="none" stroke="#63b8ff" d="M264.84,-112.61C251.1,-101.42 233.47,-87.05 222.02,-77.72"/>
<polygon fill="#63b8ff" stroke="#63b8ff" points="262.24,-115.82 272.2,-119.43 266.66,-110.4 262.24,-115.82"/>
</a>
</g>
</g>
<!-- Node8 -->
<g id="Node000008" class="node">
<title>Node8</title>
<g id="a_Node000008"><a xlink:href="Factory_8cpp.html" target="_top" xlink:title=" ">
<polygon fill="white" stroke="#666666" points="479.88,-147 350.62,-147 350.62,-113.5 479.88,-113.5 479.88,-147"/>
<text text-anchor="start" x="358.62" y="-133.5" font-family="Helvetica,sans-Serif" font-size="10.00">src/core/designPatterns</text>
<text text-anchor="middle" x="415.25" y="-120.75" font-family="Helvetica,sans-Serif" font-size="10.00">/Factory.cpp</text>
</a>
</g>
</g>
<!-- Node7&#45;&gt;Node8 -->
<g id="edge11_Node000007_Node000008" class="edge">
<title>Node7&#45;&gt;Node8</title>
<g id="a_edge11_Node000007_Node000008"><a xlink:title=" ">
<path fill="none" stroke="#63b8ff" d="M443.67,-173.88C437.71,-164.94 431.15,-155.1 425.84,-147.13"/>
<polygon fill="#63b8ff" stroke="#63b8ff" points="441.13,-175.37 449.59,-181.75 446.95,-171.49 441.13,-175.37"/>
</a>
</g>
</g>
<!-- Node9 -->
<g id="Node000009" class="node">
<title>Node9</title>
<g id="a_Node000009"><a xlink:href="src_2core_2scene_2Scene_8hpp.html" target="_top" xlink:title=" ">
<polygon fill="white" stroke="#666666" points="636.75,-140.62 497.75,-140.62 497.75,-119.88 636.75,-119.88 636.75,-140.62"/>
<text text-anchor="middle" x="567.25" y="-127.12" font-family="Helvetica,sans-Serif" font-size="10.00">src/core/scene/Scene.hpp</text>
</a>
</g>
</g>
<!-- Node7&#45;&gt;Node9 -->
<g id="edge12_Node000007_Node000009" class="edge">
<title>Node7&#45;&gt;Node9</title>
<g id="a_edge12_Node000007_Node000009"><a xlink:title=" ">
<path fill="none" stroke="#63b8ff" d="M494.94,-176.87C514.1,-164.78 536.95,-150.36 551.76,-141.02"/>
<polygon fill="#63b8ff" stroke="#63b8ff" points="493.47,-174.29 486.88,-182.58 497.2,-180.21 493.47,-174.29"/>
</a>
</g>
</g>
<!-- Node10 -->
<g id="Node000010" class="node">
<title>Node10</title>
<g id="a_Node000010"><a xlink:href="RayTracer_8hpp.html" target="_top" xlink:title=" ">
<polygon fill="white" stroke="#666666" points="630,-77.5 504.5,-77.5 504.5,-56.75 630,-56.75 630,-77.5"/>
<text text-anchor="middle" x="567.25" y="-64" font-family="Helvetica,sans-Serif" font-size="10.00">src/core/RayTracer.hpp</text>
</a>
</g>
</g>
<!-- Node9&#45;&gt;Node10 -->
<g id="edge13_Node000009_Node000010" class="edge">
<title>Node9&#45;&gt;Node10</title>
<g id="a_edge13_Node000009_Node000010"><a xlink:title=" ">
<path fill="none" stroke="#63b8ff" d="M567.25,-108.66C567.25,-98.2 567.25,-85.99 567.25,-77.72"/>
<polygon fill="#63b8ff" stroke="#63b8ff" points="563.75,-108.43 567.25,-118.43 570.75,-108.43 563.75,-108.43"/>
</a>
</g>
</g>
<!-- Node13 -->
<g id="Node000013" class="node">
<title>Node13</title>
<g id="a_Node000013"><a xlink:href="Image_8cpp.html" target="_top" xlink:title="Implémentation des méthodes de la classe Image pour gestion d&#39;image et affichage.">
<polygon fill="white" stroke="#666666" points="788.12,-77.5 648.38,-77.5 648.38,-56.75 788.12,-56.75 788.12,-77.5"/>
<text text-anchor="middle" x="718.25" y="-64" font-family="Helvetica,sans-Serif" font-size="10.00">src/core/scene/Image.cpp</text>
</a>
</g>
</g>
<!-- Node9&#45;&gt;Node13 -->
<g id="edge16_Node000009_Node000013" class="edge">
<title>Node9&#45;&gt;Node13</title>
<g id="a_edge16_Node000009_Node000013"><a xlink:title=" ">
<path fill="none" stroke="#63b8ff" d="M601.36,-115.44C629.58,-104.02 668.98,-88.07 694.05,-77.92"/>
<polygon fill="#63b8ff" stroke="#63b8ff" points="600.47,-112.43 592.51,-119.43 603.09,-118.92 600.47,-112.43"/>
</a>
</g>
</g>
<!-- Node14 -->
<g id="Node000014" class="node">
<title>Node14</title>
<g id="a_Node000014"><a xlink:href="Scene_8cpp.html" target="_top" xlink:title=" ">
<polygon fill="white" stroke="#666666" points="486.38,-77.5 348.12,-77.5 348.12,-56.75 486.38,-56.75 486.38,-77.5"/>
<text text-anchor="middle" x="417.25" y="-64" font-family="Helvetica,sans-Serif" font-size="10.00">src/core/scene/Scene.cpp</text>
</a>
</g>
</g>
<!-- Node9&#45;&gt;Node14 -->
<g id="edge17_Node000009_Node000014" class="edge">
<title>Node9&#45;&gt;Node14</title>
<g id="a_edge17_Node000009_Node000014"><a xlink:title=" ">
<path fill="none" stroke="#63b8ff" d="M533,-115.29C504.99,-103.88 466.09,-88.03 441.29,-77.92"/>
<polygon fill="#63b8ff" stroke="#63b8ff" points="531.57,-118.9 542.15,-119.43 534.21,-112.41 531.57,-118.9"/>
</a>
</g>
</g>
<!-- Node11 -->
<g id="Node000011" class="node">
<title>Node11</title>
<g id="a_Node000011"><a xlink:href="Main_8cpp.html" target="_top" xlink:title=" ">
<polygon fill="white" stroke="#666666" points="553,-20.75 451.5,-20.75 451.5,0 553,0 553,-20.75"/>
<text text-anchor="middle" x="502.25" y="-7.25" font-family="Helvetica,sans-Serif" font-size="10.00">src/core/Main.cpp</text>
</a>
</g>
</g>
<!-- Node10&#45;&gt;Node11 -->
<g id="edge14_Node000010_Node000011" class="edge">
<title>Node10&#45;&gt;Node11</title>
<g id="a_edge14_Node000010_Node000011"><a xlink:title=" ">
<path fill="none" stroke="#63b8ff" d="M547.41,-49.41C536.39,-40.13 523.08,-28.92 513.77,-21.08"/>
<polygon fill="#63b8ff" stroke="#63b8ff" points="544.73,-52.57 554.63,-56.34 549.24,-47.22 544.73,-52.57"/>
</a>
</g>
</g>
<!-- Node12 -->
<g id="Node000012" class="node">
<title>Node12</title>
<g id="a_Node000012"><a xlink:href="RayTracer_8cpp.html" target="_top" xlink:title=" ">
<polygon fill="white" stroke="#666666" points="695.62,-20.75 570.88,-20.75 570.88,0 695.62,0 695.62,-20.75"/>
<text text-anchor="middle" x="633.25" y="-7.25" font-family="Helvetica,sans-Serif" font-size="10.00">src/core/RayTracer.cpp</text>
</a>
</g>
</g>
<!-- Node10&#45;&gt;Node12 -->
<g id="edge15_Node000010_Node000012" class="edge">
<title>Node10&#45;&gt;Node12</title>
<g id="a_edge15_Node000010_Node000012"><a xlink:title=" ">
<path fill="none" stroke="#63b8ff" d="M587.4,-49.41C598.58,-40.13 612.1,-28.92 621.55,-21.08"/>
<polygon fill="#63b8ff" stroke="#63b8ff" points="585.51,-47.26 580.05,-56.34 589.98,-52.65 585.51,-47.26"/>
</a>
</g>
</g>
<!-- Node15&#45;&gt;Node9 -->
<g id="edge21_Node000015_Node000009" class="edge">
<title>Node15&#45;&gt;Node9</title>
<g id="a_edge21_Node000015_Node000009"><a xlink:title=" ">
<path fill="none" stroke="#63b8ff" d="M609.97,-180.97C598.95,-168.14 584.5,-151.32 575.54,-140.9"/>
<polygon fill="#63b8ff" stroke="#63b8ff" points="607.77,-182.78 616.94,-188.08 613.08,-178.21 607.77,-182.78"/>
</a>
</g>
</g>
<!-- Node15&#45;&gt;Node10 -->
<g id="edge19_Node000015_Node000010" class="edge">
<title>Node15&#45;&gt;Node10</title>
<g id="a_edge19_Node000015_Node000010"><a xlink:title=" ">
<path fill="none" stroke="#63b8ff" d="M637.37,-179.41C647.02,-161.33 657.1,-134.1 645.25,-113.5 635.33,-96.25 616.06,-84.95 599.15,-77.94"/>
<polygon fill="#63b8ff" stroke="#63b8ff" points="633.88,-177.47 631.91,-187.88 639.94,-180.96 633.88,-177.47"/>
</a>
</g>
</g>
<!-- Node15&#45;&gt;Node13 -->
<g id="edge20_Node000015_Node000013" class="edge">
<title>Node15&#45;&gt;Node13</title>
<g id="a_edge20_Node000015_Node000013"><a xlink:title=" ">
<path fill="none" stroke="#63b8ff" d="M638.45,-180.32C645.52,-170.44 654.37,-158.06 662.25,-147 679.99,-122.11 700.81,-92.74 711.36,-77.85"/>
<polygon fill="#63b8ff" stroke="#63b8ff" points="635.05,-178.05 632.08,-188.22 640.75,-182.12 635.05,-178.05"/>
</a>
</g>
</g>
<!-- Node16 -->
<g id="Node000016" class="node">
<title>Node16</title>
<g id="a_Node000016"><a xlink:href="Parser_8cpp.html" target="_top" xlink:title="Implémentation des fonctions de parsing des configurations pour la caméra, primitives,...">
<polygon fill="white" stroke="#666666" points="847.5,-140.62 731,-140.62 731,-119.88 847.5,-119.88 847.5,-140.62"/>
<text text-anchor="middle" x="789.25" y="-127.12" font-family="Helvetica,sans-Serif" font-size="10.00">src/parser/Parser.cpp</text>
</a>
</g>
</g>
<!-- Node15&#45;&gt;Node16 -->
<g id="edge22_Node000015_Node000016" class="edge">
<title>Node15&#45;&gt;Node16</title>
<g id="a_edge22_Node000015_Node000016"><a xlink:title=" ">
<path fill="none" stroke="#63b8ff" d="M659.23,-184.76C690.94,-171.71 737.43,-152.58 765.37,-141.08"/>
<polygon fill="#63b8ff" stroke="#63b8ff" points="658.01,-181.89 650.1,-188.93 660.68,-188.37 658.01,-181.89"/>
</a>
</g>
</g>
</g>
</svg>
