<?xml version="1.0" encoding="UTF-8" standalone="no"?>
<!DOCTYPE svg PUBLIC "-//W3C//DTD SVG 1.1//EN"
 "http://www.w3.org/Graphics/SVG/1.1/DTD/svg11.dtd">
<!-- Generated by graphviz version 8.1.0 (20230707.0739)
 -->
<!-- Title: src/primitives/plane/Plane.cpp Pages: 1 -->
<svg width="681pt" height="325pt"
 viewBox="0.00 0.00 681.25 325.25" xmlns="http://www.w3.org/2000/svg" xmlns:xlink="http://www.w3.org/1999/xlink">
<g id="graph0" class="graph" transform="scale(1 1) rotate(0) translate(4 321.25)">
<title>src/primitives/plane/Plane.cpp</title>
<!-- Node1 -->
<g id="Node000001" class="node">
<title>Node1</title>
<g id="a_Node000001"><a xlink:title=" ">
<polygon fill="#999999" stroke="#666666" points="457.25,-317.25 344.5,-317.25 344.5,-283.75 457.25,-283.75 457.25,-317.25"/>
<text text-anchor="start" x="352.5" y="-303.75" font-family="Helvetica,sans-Serif" font-size="10.00">src/primitives/plane</text>
<text text-anchor="middle" x="400.88" y="-291" font-family="Helvetica,sans-Serif" font-size="10.00">/Plane.cpp</text>
</a>
</g>
</g>
<!-- Node2 -->
<g id="Node000002" class="node">
<title>Node2</title>
<g id="a_Node000002"><a xlink:href="Plane_8hpp.html" target="_top" xlink:title=" ">
<polygon fill="white" stroke="#666666" points="432.88,-247.75 368.88,-247.75 368.88,-227 432.88,-227 432.88,-247.75"/>
<text text-anchor="middle" x="400.88" y="-234.25" font-family="Helvetica,sans-Serif" font-size="10.00">Plane.hpp</text>
</a>
</g>
</g>
<!-- Node1&#45;&gt;Node2 -->
<g id="edge1_Node000001_Node000002" class="edge">
<title>Node1&#45;&gt;Node2</title>
<g id="a_edge1_Node000001_Node000002"><a xlink:title=" ">
<path fill="none" stroke="#63b8ff" d="M400.88,-283.44C400.88,-276.02 400.88,-267.11 400.88,-259.18"/>
<polygon fill="#63b8ff" stroke="#63b8ff" points="404.38,-259.22 400.88,-249.22 397.38,-259.22 404.38,-259.22"/>
</a>
</g>
</g>
<!-- Node3 -->
<g id="Node000003" class="node">
<title>Node3</title>
<g id="a_Node000003"><a xlink:href="IPrimitive_8hpp.html" target="_top" xlink:title=" ">
<polygon fill="white" stroke="#666666" points="410.5,-191 317.25,-191 317.25,-170.25 410.5,-170.25 410.5,-191"/>
<text text-anchor="middle" x="363.88" y="-177.5" font-family="Helvetica,sans-Serif" font-size="10.00">../IPrimitive.hpp</text>
</a>
</g>
</g>
<!-- Node2&#45;&gt;Node3 -->
<g id="edge2_Node000002_Node000003" class="edge">
<title>Node2&#45;&gt;Node3</title>
<g id="a_edge2_Node000002_Node000003"><a xlink:title=" ">
<path fill="none" stroke="#63b8ff" d="M394.26,-226.59C389.31,-219.27 382.4,-209.04 376.42,-200.19"/>
<polygon fill="#63b8ff" stroke="#63b8ff" points="378.93,-198.65 370.43,-192.33 373.13,-202.57 378.93,-198.65"/>
</a>
</g>
</g>
<!-- Node16 -->
<g id="Node000016" class="node">
<title>Node16</title>
<g id="a_Node000016"><a xlink:title=" ">
<polygon fill="#e0e0e0" stroke="#999999" points="595.75,-134.25 558,-134.25 558,-113.5 595.75,-113.5 595.75,-134.25"/>
<text text-anchor="middle" x="576.88" y="-120.75" font-family="Helvetica,sans-Serif" font-size="10.00">map</text>
</a>
</g>
</g>
<!-- Node2&#45;&gt;Node16 -->
<g id="edge22_Node000002_Node000016" class="edge">
<title>Node2&#45;&gt;Node16</title>
<g id="a_edge22_Node000002_Node000016"><a xlink:title=" ">
<path fill="none" stroke="#63b8ff" d="M416.19,-226.68C446.74,-207.32 515.51,-163.75 552.4,-140.38"/>
<polygon fill="#63b8ff" stroke="#63b8ff" points="553.9,-142.94 560.47,-134.63 550.15,-137.03 553.9,-142.94"/>
</a>
</g>
</g>
<!-- Node4 -->
<g id="Node000004" class="node">
<title>Node4</title>
<g id="a_Node000004"><a xlink:href="Color_8hpp.html" target="_top" xlink:title=" ">
<polygon fill="white" stroke="#666666" points="133.75,-134.25 0,-134.25 0,-113.5 133.75,-113.5 133.75,-134.25"/>
<text text-anchor="middle" x="66.88" y="-120.75" font-family="Helvetica,sans-Serif" font-size="10.00">../core/helpers/Color.hpp</text>
</a>
</g>
</g>
<!-- Node3&#45;&gt;Node4 -->
<g id="edge3_Node000003_Node000004" class="edge">
<title>Node3&#45;&gt;Node4</title>
<g id="a_edge3_Node000003_Node000004"><a xlink:title=" ">
<path fill="none" stroke="#63b8ff" d="M316.81,-170.95C266.57,-161.69 186.64,-146.95 130.73,-136.65"/>
<polygon fill="#63b8ff" stroke="#63b8ff" points="131.71,-133.08 121.24,-134.71 130.44,-139.97 131.71,-133.08"/>
</a>
</g>
</g>
<!-- Node5 -->
<g id="Node000005" class="node">
<title>Node5</title>
<g id="a_Node000005"><a xlink:title=" ">
<polygon fill="#e0e0e0" stroke="#999999" points="195.62,-20.75 136.12,-20.75 136.12,0 195.62,0 195.62,-20.75"/>
<text text-anchor="middle" x="165.88" y="-7.25" font-family="Helvetica,sans-Serif" font-size="10.00">iostream</text>
</a>
</g>
</g>
<!-- Node3&#45;&gt;Node5 -->
<g id="edge19_Node000003_Node000005" class="edge">
<title>Node3&#45;&gt;Node5</title>
<g id="a_edge19_Node000003_Node000005"><a xlink:title=" ">
<path fill="none" stroke="#63b8ff" d="M316.93,-175.32C284.13,-170.18 240.99,-158.92 210.88,-134.25 179.8,-108.79 170.18,-59.87 167.21,-32.06"/>
<polygon fill="#63b8ff" stroke="#63b8ff" points="170.62,-31.9 166.28,-22.24 163.65,-32.5 170.62,-31.9"/>
</a>
</g>
</g>
<!-- Node6 -->
<g id="Node000006" class="node">
<title>Node6</title>
<g id="a_Node000006"><a xlink:href="Ray_8hpp.html" target="_top" xlink:title=" ">
<polygon fill="white" stroke="#666666" points="354,-134.25 227.75,-134.25 227.75,-113.5 354,-113.5 354,-134.25"/>
<text text-anchor="middle" x="290.88" y="-120.75" font-family="Helvetica,sans-Serif" font-size="10.00">../core/helpers/Ray.hpp</text>
</a>
</g>
</g>
<!-- Node3&#45;&gt;Node6 -->
<g id="edge5_Node000003_Node000006" class="edge">
<title>Node3&#45;&gt;Node6</title>
<g id="a_edge5_Node000003_Node000006"><a xlink:title=" ">
<path fill="none" stroke="#63b8ff" d="M350.82,-169.84C340.13,-161.82 324.78,-150.31 312.29,-140.94"/>
<polygon fill="#63b8ff" stroke="#63b8ff" points="314.91,-137.78 304.81,-134.58 310.71,-143.38 314.91,-137.78"/>
</a>
</g>
</g>
<!-- Node7 -->
<g id="Node000007" class="node">
<title>Node7</title>
<g id="a_Node000007"><a xlink:href="Math_8hpp.html" target="_top" xlink:title=" ">
<polygon fill="white" stroke="#666666" points="289.5,-77.5 190.25,-77.5 190.25,-56.75 289.5,-56.75 289.5,-77.5"/>
<text text-anchor="middle" x="239.88" y="-64" font-family="Helvetica,sans-Serif" font-size="10.00">../math/Math.hpp</text>
</a>
</g>
</g>
<!-- Node3&#45;&gt;Node7 -->
<g id="edge9_Node000003_Node000007" class="edge">
<title>Node3&#45;&gt;Node7</title>
<g id="a_edge9_Node000003_Node000007"><a xlink:title=" ">
<path fill="none" stroke="#63b8ff" d="M316.77,-178.64C283.54,-175.17 241.13,-164.54 218.88,-134.25 208.56,-120.21 216.6,-100.93 225.55,-86.81"/>
<polygon fill="#63b8ff" stroke="#63b8ff" points="228.85,-89.2 231.68,-78.99 223.1,-85.21 228.85,-89.2"/>
</a>
</g>
</g>
<!-- Node9 -->
<g id="Node000009" class="node">
<title>Node9</title>
<g id="a_Node000009"><a xlink:href="Matrix_8hpp.html" target="_top" xlink:title=" ">
<polygon fill="white" stroke="#666666" points="501.88,-134.25 371.88,-134.25 371.88,-113.5 501.88,-113.5 501.88,-134.25"/>
<text text-anchor="middle" x="436.88" y="-120.75" font-family="Helvetica,sans-Serif" font-size="10.00">../core/math/Matrix.hpp</text>
</a>
</g>
</g>
<!-- Node3&#45;&gt;Node9 -->
<g id="edge10_Node000003_Node000009" class="edge">
<title>Node3&#45;&gt;Node9</title>
<g id="a_edge10_Node000003_Node000009"><a xlink:title=" ">
<path fill="none" stroke="#63b8ff" d="M376.93,-169.84C387.62,-161.82 402.97,-150.31 415.46,-140.94"/>
<polygon fill="#63b8ff" stroke="#63b8ff" points="417.04,-143.38 422.94,-134.58 412.84,-137.78 417.04,-143.38"/>
</a>
</g>
</g>
<!-- Node14 -->
<g id="Node000014" class="node">
<title>Node14</title>
<g id="a_Node000014"><a xlink:title=" ">
<polygon fill="#e0e0e0" stroke="#999999" points="673.25,-77.5 626.5,-77.5 626.5,-56.75 673.25,-56.75 673.25,-77.5"/>
<text text-anchor="middle" x="649.88" y="-64" font-family="Helvetica,sans-Serif" font-size="10.00">vector</text>
</a>
</g>
</g>
<!-- Node3&#45;&gt;Node14 -->
<g id="edge21_Node000003_Node000014" class="edge">
<title>Node3&#45;&gt;Node14</title>
<g id="a_edge21_Node000003_Node000014"><a xlink:title=" ">
<path fill="none" stroke="#63b8ff" d="M403.32,-169.76C433.36,-161.7 475.44,-149.21 510.88,-134.25 528.6,-126.76 531.64,-122.06 548.88,-113.5 571.2,-102.41 596.83,-90.91 616.68,-82.26"/>
<polygon fill="#63b8ff" stroke="#63b8ff" points="617.99,-85.08 625.77,-77.9 615.21,-78.66 617.99,-85.08"/>
</a>
</g>
</g>
<!-- Node3&#45;&gt;Node16 -->
<g id="edge20_Node000003_Node000016" class="edge">
<title>Node3&#45;&gt;Node16</title>
<g id="a_edge20_Node000003_Node000016"><a xlink:title=" ">
<path fill="none" stroke="#63b8ff" d="M404.36,-169.79C440.9,-160.82 496.09,-147.06 543.88,-134.25 545,-133.95 546.14,-133.64 547.29,-133.33"/>
<polygon fill="#63b8ff" stroke="#63b8ff" points="548.01,-136.48 556.71,-130.43 546.13,-129.74 548.01,-136.48"/>
</a>
</g>
</g>
<!-- Node4&#45;&gt;Node5 -->
<g id="edge4_Node000004_Node000005" class="edge">
<title>Node4&#45;&gt;Node5</title>
<g id="a_edge4_Node000004_Node000005"><a xlink:title=" ">
<path fill="none" stroke="#63b8ff" d="M75.32,-113.37C91.89,-94.7 128.92,-52.99 150.14,-29.1"/>
<polygon fill="#63b8ff" stroke="#63b8ff" points="152.15,-31.98 156.17,-22.18 146.92,-27.33 152.15,-31.98"/>
</a>
</g>
</g>
<!-- Node6&#45;&gt;Node7 -->
<g id="edge6_Node000006_Node000007" class="edge">
<title>Node6&#45;&gt;Node7</title>
<g id="a_edge6_Node000006_Node000007"><a xlink:title=" ">
<path fill="none" stroke="#63b8ff" d="M281.76,-113.09C274.72,-105.53 264.8,-94.89 256.38,-85.85"/>
<polygon fill="#63b8ff" stroke="#63b8ff" points="259.29,-83.76 249.91,-78.83 254.17,-88.53 259.29,-83.76"/>
</a>
</g>
</g>
<!-- Node7&#45;&gt;Node5 -->
<g id="edge7_Node000007_Node000005" class="edge">
<title>Node7&#45;&gt;Node5</title>
<g id="a_edge7_Node000007_Node000005"><a xlink:title=" ">
<path fill="none" stroke="#63b8ff" d="M226.65,-56.34C215.81,-48.32 200.25,-36.81 187.59,-27.44"/>
<polygon fill="#63b8ff" stroke="#63b8ff" points="190.11,-24.21 179.99,-21.08 185.95,-29.84 190.11,-24.21"/>
</a>
</g>
</g>
<!-- Node8 -->
<g id="Node000008" class="node">
<title>Node8</title>
<g id="a_Node000008"><a xlink:title=" ">
<polygon fill="#e0e0e0" stroke="#999999" points="263.25,-20.75 216.5,-20.75 216.5,0 263.25,0 263.25,-20.75"/>
<text text-anchor="middle" x="239.88" y="-7.25" font-family="Helvetica,sans-Serif" font-size="10.00">cmath</text>
</a>
</g>
</g>
<!-- Node7&#45;&gt;Node8 -->
<g id="edge8_Node000007_Node000008" class="edge">
<title>Node7&#45;&gt;Node8</title>
<g id="a_edge8_Node000007_Node000008"><a xlink:title=" ">
<path fill="none" stroke="#63b8ff" d="M239.88,-56.34C239.88,-49.56 239.88,-40.3 239.88,-31.94"/>
<polygon fill="#63b8ff" stroke="#63b8ff" points="243.38,-32.08 239.88,-22.08 236.38,-32.08 243.38,-32.08"/>
</a>
</g>
</g>
<!-- Node9&#45;&gt;Node5 -->
<g id="edge16_Node000009_Node000005" class="edge">
<title>Node9&#45;&gt;Node5</title>
<g id="a_edge16_Node000009_Node000005"><a xlink:title=" ">
<path fill="none" stroke="#63b8ff" d="M414.01,-113.08C393.6,-104.19 362.97,-90.52 336.88,-77.5 319.66,-68.91 316.49,-64.5 298.88,-56.75 268.65,-43.46 233.2,-31.54 206.51,-23.25"/>
<polygon fill="#63b8ff" stroke="#63b8ff" points="207.6,-19.62 197.01,-20.04 205.55,-26.31 207.6,-19.62"/>
</a>
</g>
</g>
<!-- Node9&#45;&gt;Node7 -->
<g id="edge11_Node000009_Node000007" class="edge">
<title>Node9&#45;&gt;Node7</title>
<g id="a_edge11_Node000009_Node000007"><a xlink:title=" ">
<path fill="none" stroke="#63b8ff" d="M401.66,-113.09C369.26,-104.08 321.03,-90.68 285.65,-80.85"/>
<polygon fill="#63b8ff" stroke="#63b8ff" points="286.69,-77.23 276.12,-77.92 284.82,-83.97 286.69,-77.23"/>
</a>
</g>
</g>
<!-- Node10 -->
<g id="Node000010" class="node">
<title>Node10</title>
<g id="a_Node000010"><a xlink:href="Error_8hpp.html" target="_top" xlink:title=" ">
<polygon fill="white" stroke="#666666" points="608.25,-77.5 513.5,-77.5 513.5,-56.75 608.25,-56.75 608.25,-77.5"/>
<text text-anchor="middle" x="560.88" y="-64" font-family="Helvetica,sans-Serif" font-size="10.00">../error/Error.hpp</text>
</a>
</g>
</g>
<!-- Node9&#45;&gt;Node10 -->
<g id="edge12_Node000009_Node000010" class="edge">
<title>Node9&#45;&gt;Node10</title>
<g id="a_edge12_Node000009_Node000010"><a xlink:title=" ">
<path fill="none" stroke="#63b8ff" d="M459.04,-113.09C478.53,-104.48 507.11,-91.86 529.04,-82.18"/>
<polygon fill="#63b8ff" stroke="#63b8ff" points="530.16,-85.07 537.9,-77.83 527.34,-78.67 530.16,-85.07"/>
</a>
</g>
</g>
<!-- Node13 -->
<g id="Node000013" class="node">
<title>Node13</title>
<g id="a_Node000013"><a xlink:title=" ">
<polygon fill="#e0e0e0" stroke="#999999" points="427.88,-77.5 345.88,-77.5 345.88,-56.75 427.88,-56.75 427.88,-77.5"/>
<text text-anchor="middle" x="386.88" y="-64" font-family="Helvetica,sans-Serif" font-size="10.00">initializer_list</text>
</a>
</g>
</g>
<!-- Node9&#45;&gt;Node13 -->
<g id="edge15_Node000009_Node000013" class="edge">
<title>Node9&#45;&gt;Node13</title>
<g id="a_edge15_Node000009_Node000013"><a xlink:title=" ">
<path fill="none" stroke="#63b8ff" d="M427.94,-113.09C421.04,-105.53 411.31,-94.89 403.06,-85.85"/>
<polygon fill="#63b8ff" stroke="#63b8ff" points="406.06,-83.85 396.74,-78.83 400.9,-88.57 406.06,-83.85"/>
</a>
</g>
</g>
<!-- Node9&#45;&gt;Node14 -->
<g id="edge17_Node000009_Node000014" class="edge">
<title>Node9&#45;&gt;Node14</title>
<g id="a_edge17_Node000009_Node000014"><a xlink:title=" ">
<path fill="none" stroke="#63b8ff" d="M477.36,-113.04C511.68,-104.61 562.48,-91.96 615.77,-77.74"/>
<polygon fill="#63b8ff" stroke="#63b8ff" points="616.35,-80.94 625.11,-74.97 614.54,-74.18 616.35,-80.94"/>
</a>
</g>
</g>
<!-- Node15 -->
<g id="Node000015" class="node">
<title>Node15</title>
<g id="a_Node000015"><a xlink:title=" ">
<polygon fill="#e0e0e0" stroke="#999999" points="495.38,-77.5 446.38,-77.5 446.38,-56.75 495.38,-56.75 495.38,-77.5"/>
<text text-anchor="middle" x="470.88" y="-64" font-family="Helvetica,sans-Serif" font-size="10.00">format</text>
</a>
</g>
</g>
<!-- Node9&#45;&gt;Node15 -->
<g id="edge18_Node000009_Node000015" class="edge">
<title>Node9&#45;&gt;Node15</title>
<g id="a_edge18_Node000009_Node000015"><a xlink:title=" ">
<path fill="none" stroke="#63b8ff" d="M442.95,-113.09C447.45,-105.85 453.71,-95.76 459.17,-86.97"/>
<polygon fill="#63b8ff" stroke="#63b8ff" points="462.55,-89.17 464.85,-78.83 456.6,-85.48 462.55,-89.17"/>
</a>
</g>
</g>
<!-- Node11 -->
<g id="Node000011" class="node">
<title>Node11</title>
<g id="a_Node000011"><a xlink:title=" ">
<polygon fill="#e0e0e0" stroke="#999999" points="628.88,-20.75 564.88,-20.75 564.88,0 628.88,0 628.88,-20.75"/>
<text text-anchor="middle" x="596.88" y="-7.25" font-family="Helvetica,sans-Serif" font-size="10.00">stdexcept</text>
</a>
</g>
</g>
<!-- Node10&#45;&gt;Node11 -->
<g id="edge13_Node000010_Node000011" class="edge">
<title>Node10&#45;&gt;Node11</title>
<g id="a_edge13_Node000010_Node000011"><a xlink:title=" ">
<path fill="none" stroke="#63b8ff" d="M567.31,-56.34C572.07,-49.1 578.7,-39.01 584.48,-30.22"/>
<polygon fill="#63b8ff" stroke="#63b8ff" points="587.92,-32.36 590.49,-22.08 582.08,-28.51 587.92,-32.36"/>
</a>
</g>
</g>
<!-- Node12 -->
<g id="Node000012" class="node">
<title>Node12</title>
<g id="a_Node000012"><a xlink:title=" ">
<polygon fill="#e0e0e0" stroke="#999999" points="546.75,-20.75 503,-20.75 503,0 546.75,0 546.75,-20.75"/>
<text text-anchor="middle" x="524.88" y="-7.25" font-family="Helvetica,sans-Serif" font-size="10.00">string</text>
</a>
</g>
</g>
<!-- Node10&#45;&gt;Node12 -->
<g id="edge14_Node000010_Node000012" class="edge">
<title>Node10&#45;&gt;Node12</title>
<g id="a_edge14_Node000010_Node000012"><a xlink:title=" ">
<path fill="none" stroke="#63b8ff" d="M554.44,-56.34C549.68,-49.1 543.05,-39.01 537.27,-30.22"/>
<polygon fill="#63b8ff" stroke="#63b8ff" points="539.67,-28.51 531.26,-22.08 533.83,-32.36 539.67,-28.51"/>
</a>
</g>
</g>
</g>
</svg>
