<?xml version="1.0" encoding="UTF-8" standalone="no"?>
<!DOCTYPE svg PUBLIC "-//W3C//DTD SVG 1.1//EN"
 "http://www.w3.org/Graphics/SVG/1.1/DTD/svg11.dtd">
<!-- Generated by graphviz version 8.1.0 (20230707.0739)
 -->
<!-- Title: paser/Primitive_fact.hpp Pages: 1 -->
<svg width="1093pt" height="325pt"
 viewBox="0.00 0.00 1093.23 325.25" xmlns="http://www.w3.org/2000/svg" xmlns:xlink="http://www.w3.org/1999/xlink">
<g id="graph0" class="graph" transform="scale(1 1) rotate(0) translate(4 321.25)">
<title>paser/Primitive_fact.hpp</title>
<!-- Node1 -->
<g id="Node000001" class="node">
<title>Node1</title>
<g id="a_Node000001"><a xlink:title=" ">
<polygon fill="#999999" stroke="#666666" points="465.75,-317.25 330.5,-317.25 330.5,-296.5 465.75,-296.5 465.75,-317.25"/>
<text text-anchor="middle" x="398.12" y="-303.75" font-family="Helvetica,sans-Serif" font-size="10.00">paser/Primitive_fact.hpp</text>
</a>
</g>
</g>
<!-- Node2 -->
<g id="Node000002" class="node">
<title>Node2</title>
<g id="a_Node000002"><a xlink:title=" ">
<polygon fill="#e0e0e0" stroke="#999999" points="168.25,-254.12 0,-254.12 0,-233.38 168.25,-233.38 168.25,-254.12"/>
<text text-anchor="middle" x="84.12" y="-240.62" font-family="Helvetica,sans-Serif" font-size="10.00">../src/primitives/IPrimitives.hpp</text>
</a>
</g>
</g>
<!-- Node1&#45;&gt;Node2 -->
<g id="edge1_Node000001_Node000002" class="edge">
<title>Node1&#45;&gt;Node2</title>
<g id="a_edge1_Node000001_Node000002"><a xlink:title=" ">
<path fill="none" stroke="#63b8ff" d="M347.68,-296.05C292.59,-285.33 204.38,-268.16 145.37,-256.67"/>
<polygon fill="#63b8ff" stroke="#63b8ff" points="146.19,-253.07 135.71,-254.6 144.86,-259.94 146.19,-253.07"/>
</a>
</g>
</g>
<!-- Node3 -->
<g id="Node000003" class="node">
<title>Node3</title>
<g id="a_Node000003"><a xlink:title=" ">
<polygon fill="#e0e0e0" stroke="#999999" points="269.5,-254.12 186.75,-254.12 186.75,-233.38 269.5,-233.38 269.5,-254.12"/>
<text text-anchor="middle" x="228.12" y="-240.62" font-family="Helvetica,sans-Serif" font-size="10.00">libconfig.h++</text>
</a>
</g>
</g>
<!-- Node1&#45;&gt;Node3 -->
<g id="edge2_Node000001_Node000003" class="edge">
<title>Node1&#45;&gt;Node3</title>
<g id="a_edge2_Node000001_Node000003"><a xlink:title=" ">
<path fill="none" stroke="#63b8ff" d="M370.81,-296.05C342.31,-285.81 297.42,-269.67 265.61,-258.23"/>
<polygon fill="#63b8ff" stroke="#63b8ff" points="266.97,-254.64 256.37,-254.55 264.6,-261.22 266.97,-254.64"/>
</a>
</g>
</g>
<!-- Node4 -->
<g id="Node000004" class="node">
<title>Node4</title>
<g id="a_Node000004"><a xlink:title=" ">
<polygon fill="#e0e0e0" stroke="#999999" points="344.75,-254.12 287.5,-254.12 287.5,-233.38 344.75,-233.38 344.75,-254.12"/>
<text text-anchor="middle" x="316.12" y="-240.62" font-family="Helvetica,sans-Serif" font-size="10.00">memory</text>
</a>
</g>
</g>
<!-- Node1&#45;&gt;Node4 -->
<g id="edge3_Node000001_Node000004" class="edge">
<title>Node1&#45;&gt;Node4</title>
<g id="a_edge3_Node000001_Node000004"><a xlink:title=" ">
<path fill="none" stroke="#63b8ff" d="M384.95,-296.05C372.28,-286.61 352.89,-272.16 337.92,-261"/>
<polygon fill="#63b8ff" stroke="#63b8ff" points="340.38,-257.72 330.27,-254.55 336.19,-263.33 340.38,-257.72"/>
</a>
</g>
</g>
<!-- Node5 -->
<g id="Node000005" class="node">
<title>Node5</title>
<g id="a_Node000005"><a xlink:title=" ">
<polygon fill="#e0e0e0" stroke="#999999" points="429,-20.75 385.25,-20.75 385.25,0 429,0 429,-20.75"/>
<text text-anchor="middle" x="407.12" y="-7.25" font-family="Helvetica,sans-Serif" font-size="10.00">string</text>
</a>
</g>
</g>
<!-- Node1&#45;&gt;Node5 -->
<g id="edge4_Node000001_Node000005" class="edge">
<title>Node1&#45;&gt;Node5</title>
<g id="a_edge4_Node000001_Node000005"><a xlink:title=" ">
<path fill="none" stroke="#63b8ff" d="M396.98,-296.06C394.73,-276.24 389.82,-230 388.12,-191 385.6,-132.96 396.68,-64.86 403,-31.65"/>
<polygon fill="#63b8ff" stroke="#63b8ff" points="406.58,-32.57 405.07,-22.08 399.71,-31.22 406.58,-32.57"/>
</a>
</g>
</g>
<!-- Node6 -->
<g id="Node000006" class="node">
<title>Node6</title>
<g id="a_Node000006"><a xlink:title=" ">
<polygon fill="#e0e0e0" stroke="#999999" points="954.5,-77.5 907.75,-77.5 907.75,-56.75 954.5,-56.75 954.5,-77.5"/>
<text text-anchor="middle" x="931.12" y="-64" font-family="Helvetica,sans-Serif" font-size="10.00">vector</text>
</a>
</g>
</g>
<!-- Node1&#45;&gt;Node6 -->
<g id="edge5_Node000001_Node000006" class="edge">
<title>Node1&#45;&gt;Node6</title>
<g id="a_edge5_Node000001_Node000006"><a xlink:title=" ">
<path fill="none" stroke="#63b8ff" d="M465.96,-299.76C623.98,-283.9 1008.54,-235.44 1079.12,-134.25 1108.97,-91.46 1017.97,-75.96 965.5,-70.67"/>
<polygon fill="#63b8ff" stroke="#63b8ff" points="965.91,-67.11 955.63,-69.67 965.27,-74.08 965.91,-67.11"/>
</a>
</g>
</g>
<!-- Node7 -->
<g id="Node000007" class="node">
<title>Node7</title>
<g id="a_Node000007"><a xlink:href="Plane_8hpp.html" target="_top" xlink:title=" ">
<polygon fill="white" stroke="#666666" points="581,-260.5 459.25,-260.5 459.25,-227 581,-227 581,-260.5"/>
<text text-anchor="start" x="467.25" y="-247" font-family="Helvetica,sans-Serif" font-size="10.00">../src/primitives/plane</text>
<text text-anchor="middle" x="520.12" y="-234.25" font-family="Helvetica,sans-Serif" font-size="10.00">/Plane.hpp</text>
</a>
</g>
</g>
<!-- Node1&#45;&gt;Node7 -->
<g id="edge6_Node000001_Node000007" class="edge">
<title>Node1&#45;&gt;Node7</title>
<g id="a_edge6_Node000001_Node000007"><a xlink:title=" ">
<path fill="none" stroke="#63b8ff" d="M417.73,-296.05C433.93,-287.93 457.52,-276.11 477.98,-265.87"/>
<polygon fill="#63b8ff" stroke="#63b8ff" points="479.35,-268.59 486.72,-260.98 476.21,-262.34 479.35,-268.59"/>
</a>
</g>
</g>
<!-- Node20 -->
<g id="Node000020" class="node">
<title>Node20</title>
<g id="a_Node000020"><a xlink:href="Sphere_8hpp.html" target="_top" xlink:title=" ">
<polygon fill="white" stroke="#666666" points="727,-260.5 599.25,-260.5 599.25,-227 727,-227 727,-260.5"/>
<text text-anchor="start" x="607.25" y="-247" font-family="Helvetica,sans-Serif" font-size="10.00">../src/primitives/sphere</text>
<text text-anchor="middle" x="663.12" y="-234.25" font-family="Helvetica,sans-Serif" font-size="10.00">/Sphere.hpp</text>
</a>
</g>
</g>
<!-- Node1&#45;&gt;Node20 -->
<g id="edge28_Node000001_Node000020" class="edge">
<title>Node1&#45;&gt;Node20</title>
<g id="a_edge28_Node000001_Node000020"><a xlink:title=" ">
<path fill="none" stroke="#63b8ff" d="M440.7,-296.05C480.42,-286.89 540.55,-273.02 588.28,-262.01"/>
<polygon fill="#63b8ff" stroke="#63b8ff" points="588.92,-265.23 597.88,-259.57 587.35,-258.41 588.92,-265.23"/>
</a>
</g>
</g>
<!-- Node21 -->
<g id="Node000021" class="node">
<title>Node21</title>
<g id="a_Node000021"><a xlink:href="ErrorHandler_8hpp.html" target="_top" xlink:title=" ">
<polygon fill="white" stroke="#666666" points="495,-191 397.25,-191 397.25,-170.25 495,-170.25 495,-191"/>
<text text-anchor="middle" x="446.12" y="-177.5" font-family="Helvetica,sans-Serif" font-size="10.00">ErrorHandler.hpp</text>
</a>
</g>
</g>
<!-- Node1&#45;&gt;Node21 -->
<g id="edge31_Node000001_Node000021" class="edge">
<title>Node1&#45;&gt;Node21</title>
<g id="a_edge31_Node000001_Node000021"><a xlink:title=" ">
<path fill="none" stroke="#63b8ff" d="M401.89,-296.13C409.74,-275.8 427.99,-228.56 438.43,-201.54"/>
<polygon fill="#63b8ff" stroke="#63b8ff" points="442.04,-202.92 442.38,-192.33 435.51,-200.4 442.04,-202.92"/>
</a>
</g>
</g>
<!-- Node8 -->
<g id="Node000008" class="node">
<title>Node8</title>
<g id="a_Node000008"><a xlink:href="IPrimitive_8hpp.html" target="_top" xlink:title=" ">
<polygon fill="white" stroke="#666666" points="730.75,-191 637.5,-191 637.5,-170.25 730.75,-170.25 730.75,-191"/>
<text text-anchor="middle" x="684.12" y="-177.5" font-family="Helvetica,sans-Serif" font-size="10.00">../IPrimitive.hpp</text>
</a>
</g>
</g>
<!-- Node7&#45;&gt;Node8 -->
<g id="edge7_Node000007_Node000008" class="edge">
<title>Node7&#45;&gt;Node8</title>
<g id="a_edge7_Node000007_Node000008"><a xlink:title=" ">
<path fill="none" stroke="#63b8ff" d="M563.64,-226.53C589.88,-216.75 622.92,-204.44 647.76,-195.18"/>
<polygon fill="#63b8ff" stroke="#63b8ff" points="648.71,-198.19 656.86,-191.42 646.27,-191.63 648.71,-198.19"/>
</a>
</g>
</g>
<!-- Node19 -->
<g id="Node000019" class="node">
<title>Node19</title>
<g id="a_Node000019"><a xlink:title=" ">
<polygon fill="#e0e0e0" stroke="#999999" points="512,-134.25 474.25,-134.25 474.25,-113.5 512,-113.5 512,-134.25"/>
<text text-anchor="middle" x="493.12" y="-120.75" font-family="Helvetica,sans-Serif" font-size="10.00">map</text>
</a>
</g>
</g>
<!-- Node7&#45;&gt;Node19 -->
<g id="edge27_Node000007_Node000019" class="edge">
<title>Node7&#45;&gt;Node19</title>
<g id="a_edge27_Node000007_Node000019"><a xlink:title=" ">
<path fill="none" stroke="#63b8ff" d="M516.66,-226.6C513.48,-211.9 508.6,-189.59 504.12,-170.25 502.23,-162.07 500.07,-153.08 498.17,-145.27"/>
<polygon fill="#63b8ff" stroke="#63b8ff" points="501.33,-144.47 495.54,-135.6 494.53,-146.14 501.33,-144.47"/>
</a>
</g>
</g>
<!-- Node8&#45;&gt;Node6 -->
<g id="edge26_Node000008_Node000006" class="edge">
<title>Node8&#45;&gt;Node6</title>
<g id="a_edge26_Node000008_Node000006"><a xlink:title=" ">
<path fill="none" stroke="#63b8ff" d="M731.1,-178.34C774.16,-175.1 838.06,-164.96 884.12,-134.25 901.29,-122.81 914.2,-102.82 922.1,-87.8"/>
<polygon fill="#63b8ff" stroke="#63b8ff" points="925.68,-89.46 926.96,-78.94 919.4,-86.36 925.68,-89.46"/>
</a>
</g>
</g>
<!-- Node9 -->
<g id="Node000009" class="node">
<title>Node9</title>
<g id="a_Node000009"><a xlink:href="Color_8hpp.html" target="_top" xlink:title=" ">
<polygon fill="white" stroke="#666666" points="1070,-134.25 936.25,-134.25 936.25,-113.5 1070,-113.5 1070,-134.25"/>
<text text-anchor="middle" x="1003.12" y="-120.75" font-family="Helvetica,sans-Serif" font-size="10.00">../core/helpers/Color.hpp</text>
</a>
</g>
</g>
<!-- Node8&#45;&gt;Node9 -->
<g id="edge8_Node000008_Node000009" class="edge">
<title>Node8&#45;&gt;Node9</title>
<g id="a_edge8_Node000008_Node000009"><a xlink:title=" ">
<path fill="none" stroke="#63b8ff" d="M731.19,-171.55C784.98,-162.31 873.48,-147.13 934.85,-136.59"/>
<polygon fill="#63b8ff" stroke="#63b8ff" points="935.33,-139.89 944.59,-134.75 934.15,-132.99 935.33,-139.89"/>
</a>
</g>
</g>
<!-- Node10 -->
<g id="Node000010" class="node">
<title>Node10</title>
<g id="a_Node000010"><a xlink:title=" ">
<polygon fill="#e0e0e0" stroke="#999999" points="890.88,-20.75 831.38,-20.75 831.38,0 890.88,0 890.88,-20.75"/>
<text text-anchor="middle" x="861.12" y="-7.25" font-family="Helvetica,sans-Serif" font-size="10.00">iostream</text>
</a>
</g>
</g>
<!-- Node8&#45;&gt;Node10 -->
<g id="edge24_Node000008_Node000010" class="edge">
<title>Node8&#45;&gt;Node10</title>
<g id="a_edge24_Node000008_Node000010"><a xlink:title=" ">
<path fill="none" stroke="#63b8ff" d="M730.9,-173C774.75,-165.76 835.81,-152.68 851.12,-134.25 875.09,-105.41 870.94,-58.51 865.93,-31.76"/>
<polygon fill="#63b8ff" stroke="#63b8ff" points="869.15,-31.09 863.67,-22.03 862.31,-32.54 869.15,-31.09"/>
</a>
</g>
</g>
<!-- Node11 -->
<g id="Node000011" class="node">
<title>Node11</title>
<g id="a_Node000011"><a xlink:href="Ray_8hpp.html" target="_top" xlink:title=" ">
<polygon fill="white" stroke="#666666" points="656.25,-134.25 530,-134.25 530,-113.5 656.25,-113.5 656.25,-134.25"/>
<text text-anchor="middle" x="593.12" y="-120.75" font-family="Helvetica,sans-Serif" font-size="10.00">../core/helpers/Ray.hpp</text>
</a>
</g>
</g>
<!-- Node8&#45;&gt;Node11 -->
<g id="edge10_Node000008_Node000011" class="edge">
<title>Node8&#45;&gt;Node11</title>
<g id="a_edge10_Node000008_Node000011"><a xlink:title=" ">
<path fill="none" stroke="#63b8ff" d="M667.86,-169.84C654.14,-161.58 634.28,-149.63 618.48,-140.13"/>
<polygon fill="#63b8ff" stroke="#63b8ff" points="620.63,-136.73 610.25,-134.58 617.02,-142.73 620.63,-136.73"/>
</a>
</g>
</g>
<!-- Node12 -->
<g id="Node000012" class="node">
<title>Node12</title>
<g id="a_Node000012"><a xlink:href="Math_8hpp.html" target="_top" xlink:title=" ">
<polygon fill="white" stroke="#666666" points="646.75,-77.5 547.5,-77.5 547.5,-56.75 646.75,-56.75 646.75,-77.5"/>
<text text-anchor="middle" x="597.12" y="-64" font-family="Helvetica,sans-Serif" font-size="10.00">../math/Math.hpp</text>
</a>
</g>
</g>
<!-- Node8&#45;&gt;Node12 -->
<g id="edge14_Node000008_Node000012" class="edge">
<title>Node8&#45;&gt;Node12</title>
<g id="a_edge14_Node000008_Node000012"><a xlink:title=" ">
<path fill="none" stroke="#63b8ff" d="M683.45,-170.19C682.05,-156.5 677.81,-130.86 665.12,-113.5 655.85,-100.81 641.87,-90.6 628.99,-83.11"/>
<polygon fill="#63b8ff" stroke="#63b8ff" points="630.91,-79.63 620.46,-77.91 627.56,-85.77 630.91,-79.63"/>
</a>
</g>
</g>
<!-- Node14 -->
<g id="Node000014" class="node">
<title>Node14</title>
<g id="a_Node000014"><a xlink:href="Matrix_8hpp.html" target="_top" xlink:title=" ">
<polygon fill="white" stroke="#666666" points="842.12,-134.25 712.12,-134.25 712.12,-113.5 842.12,-113.5 842.12,-134.25"/>
<text text-anchor="middle" x="777.12" y="-120.75" font-family="Helvetica,sans-Serif" font-size="10.00">../core/math/Matrix.hpp</text>
</a>
</g>
</g>
<!-- Node8&#45;&gt;Node14 -->
<g id="edge15_Node000008_Node000014" class="edge">
<title>Node8&#45;&gt;Node14</title>
<g id="a_edge15_Node000008_Node000014"><a xlink:title=" ">
<path fill="none" stroke="#63b8ff" d="M700.75,-169.84C714.77,-161.58 735.07,-149.63 751.22,-140.13"/>
<polygon fill="#63b8ff" stroke="#63b8ff" points="752.8,-142.67 759.64,-134.58 749.25,-136.64 752.8,-142.67"/>
</a>
</g>
</g>
<!-- Node8&#45;&gt;Node19 -->
<g id="edge25_Node000008_Node000019" class="edge">
<title>Node8&#45;&gt;Node19</title>
<g id="a_edge25_Node000008_Node000019"><a xlink:title=" ">
<path fill="none" stroke="#63b8ff" d="M646.74,-169.81C615.8,-161.55 570.48,-149.16 522.61,-134.6"/>
<polygon fill="#63b8ff" stroke="#63b8ff" points="523.95,-131.04 513.36,-131.46 521.9,-137.74 523.95,-131.04"/>
</a>
</g>
</g>
<!-- Node9&#45;&gt;Node10 -->
<g id="edge9_Node000009_Node000010" class="edge">
<title>Node9&#45;&gt;Node10</title>
<g id="a_edge9_Node000009_Node000010"><a xlink:title=" ">
<path fill="none" stroke="#63b8ff" d="M999.43,-113.07C993.66,-98.93 981.24,-72.72 963.12,-56.75 945.42,-41.14 921.48,-30.11 901.24,-22.84"/>
<polygon fill="#63b8ff" stroke="#63b8ff" points="902.64,-19.28 892.05,-19.38 900.39,-25.91 902.64,-19.28"/>
</a>
</g>
</g>
<!-- Node11&#45;&gt;Node12 -->
<g id="edge11_Node000011_Node000012" class="edge">
<title>Node11&#45;&gt;Node12</title>
<g id="a_edge11_Node000011_Node000012"><a xlink:title=" ">
<path fill="none" stroke="#63b8ff" d="M593.84,-113.09C594.33,-106.31 595.01,-97.05 595.62,-88.69"/>
<polygon fill="#63b8ff" stroke="#63b8ff" points="599.18,-89.06 596.42,-78.83 592.2,-88.55 599.18,-89.06"/>
</a>
</g>
</g>
<!-- Node12&#45;&gt;Node10 -->
<g id="edge12_Node000012_Node000010" class="edge">
<title>Node12&#45;&gt;Node10</title>
<g id="a_edge12_Node000012_Node000010"><a xlink:title=" ">
<path fill="none" stroke="#63b8ff" d="M644.63,-56.27C694.9,-45.85 773.37,-29.57 820.75,-19.75"/>
<polygon fill="#63b8ff" stroke="#63b8ff" points="821.15,-23.03 830.23,-17.57 819.73,-16.18 821.15,-23.03"/>
</a>
</g>
</g>
<!-- Node13 -->
<g id="Node000013" class="node">
<title>Node13</title>
<g id="a_Node000013"><a xlink:title=" ">
<polygon fill="#e0e0e0" stroke="#999999" points="620.5,-20.75 573.75,-20.75 573.75,0 620.5,0 620.5,-20.75"/>
<text text-anchor="middle" x="597.12" y="-7.25" font-family="Helvetica,sans-Serif" font-size="10.00">cmath</text>
</a>
</g>
</g>
<!-- Node12&#45;&gt;Node13 -->
<g id="edge13_Node000012_Node000013" class="edge">
<title>Node12&#45;&gt;Node13</title>
<g id="a_edge13_Node000012_Node000013"><a xlink:title=" ">
<path fill="none" stroke="#63b8ff" d="M597.12,-56.34C597.12,-49.56 597.12,-40.3 597.12,-31.94"/>
<polygon fill="#63b8ff" stroke="#63b8ff" points="600.63,-32.08 597.12,-22.08 593.63,-32.08 600.63,-32.08"/>
</a>
</g>
</g>
<!-- Node14&#45;&gt;Node6 -->
<g id="edge22_Node000014_Node000006" class="edge">
<title>Node14&#45;&gt;Node6</title>
<g id="a_edge22_Node000014_Node000006"><a xlink:title=" ">
<path fill="none" stroke="#63b8ff" d="M804.66,-113.09C830.59,-103.87 869.5,-90.04 897.3,-80.15"/>
<polygon fill="#63b8ff" stroke="#63b8ff" points="898.12,-83.22 906.37,-76.57 895.77,-76.62 898.12,-83.22"/>
</a>
</g>
</g>
<!-- Node14&#45;&gt;Node10 -->
<g id="edge21_Node000014_Node000010" class="edge">
<title>Node14&#45;&gt;Node10</title>
<g id="a_edge21_Node000014_Node000010"><a xlink:title=" ">
<path fill="none" stroke="#63b8ff" d="M788.58,-113.18C798.45,-104.47 812.71,-91 823.12,-77.5 834.48,-62.77 844.82,-44.3 851.83,-30.63"/>
<polygon fill="#63b8ff" stroke="#63b8ff" points="855.37,-32.36 856.7,-21.85 849.11,-29.24 855.37,-32.36"/>
</a>
</g>
</g>
<!-- Node14&#45;&gt;Node12 -->
<g id="edge16_Node000014_Node000012" class="edge">
<title>Node14&#45;&gt;Node12</title>
<g id="a_edge16_Node000014_Node000012"><a xlink:title=" ">
<path fill="none" stroke="#63b8ff" d="M744.94,-113.09C715.6,-104.16 672.03,-90.91 639.79,-81.1"/>
<polygon fill="#63b8ff" stroke="#63b8ff" points="640.92,-77.48 630.33,-77.92 638.88,-84.18 640.92,-77.48"/>
</a>
</g>
</g>
<!-- Node15 -->
<g id="Node000015" class="node">
<title>Node15</title>
<g id="a_Node000015"><a xlink:href="Error_8hpp.html" target="_top" xlink:title=" ">
<polygon fill="white" stroke="#666666" points="529.5,-77.5 434.75,-77.5 434.75,-56.75 529.5,-56.75 529.5,-77.5"/>
<text text-anchor="middle" x="482.12" y="-64" font-family="Helvetica,sans-Serif" font-size="10.00">../error/Error.hpp</text>
</a>
</g>
</g>
<!-- Node14&#45;&gt;Node15 -->
<g id="edge17_Node000014_Node000015" class="edge">
<title>Node14&#45;&gt;Node15</title>
<g id="a_edge17_Node000014_Node000015"><a xlink:title=" ">
<path fill="none" stroke="#63b8ff" d="M724.04,-113.02C672.37,-103.43 594.01,-88.89 540.57,-78.97"/>
<polygon fill="#63b8ff" stroke="#63b8ff" points="541.37,-75.38 530.9,-76.99 540.1,-82.26 541.37,-75.38"/>
</a>
</g>
</g>
<!-- Node17 -->
<g id="Node000017" class="node">
<title>Node17</title>
<g id="a_Node000017"><a xlink:title=" ">
<polygon fill="#e0e0e0" stroke="#999999" points="814.12,-77.5 732.12,-77.5 732.12,-56.75 814.12,-56.75 814.12,-77.5"/>
<text text-anchor="middle" x="773.12" y="-64" font-family="Helvetica,sans-Serif" font-size="10.00">initializer_list</text>
</a>
</g>
</g>
<!-- Node14&#45;&gt;Node17 -->
<g id="edge20_Node000014_Node000017" class="edge">
<title>Node14&#45;&gt;Node17</title>
<g id="a_edge20_Node000014_Node000017"><a xlink:title=" ">
<path fill="none" stroke="#63b8ff" d="M776.41,-113.09C775.92,-106.31 775.24,-97.05 774.63,-88.69"/>
<polygon fill="#63b8ff" stroke="#63b8ff" points="778.05,-88.55 773.83,-78.83 771.07,-89.06 778.05,-88.55"/>
</a>
</g>
</g>
<!-- Node18 -->
<g id="Node000018" class="node">
<title>Node18</title>
<g id="a_Node000018"><a xlink:title=" ">
<polygon fill="#e0e0e0" stroke="#999999" points="713.62,-77.5 664.62,-77.5 664.62,-56.75 713.62,-56.75 713.62,-77.5"/>
<text text-anchor="middle" x="689.12" y="-64" font-family="Helvetica,sans-Serif" font-size="10.00">format</text>
</a>
</g>
</g>
<!-- Node14&#45;&gt;Node18 -->
<g id="edge23_Node000014_Node000018" class="edge">
<title>Node14&#45;&gt;Node18</title>
<g id="a_edge23_Node000014_Node000018"><a xlink:title=" ">
<path fill="none" stroke="#63b8ff" d="M761.39,-113.09C748.13,-104.83 728.92,-92.88 713.64,-83.38"/>
<polygon fill="#63b8ff" stroke="#63b8ff" points="716.06,-80.14 705.72,-77.83 712.36,-86.08 716.06,-80.14"/>
</a>
</g>
</g>
<!-- Node15&#45;&gt;Node5 -->
<g id="edge19_Node000015_Node000005" class="edge">
<title>Node15&#45;&gt;Node5</title>
<g id="a_edge19_Node000015_Node000005"><a xlink:title=" ">
<path fill="none" stroke="#63b8ff" d="M468.72,-56.34C457.73,-48.32 441.96,-36.81 429.13,-27.44"/>
<polygon fill="#63b8ff" stroke="#63b8ff" points="431.56,-24.15 421.42,-21.08 427.43,-29.8 431.56,-24.15"/>
</a>
</g>
</g>
<!-- Node16 -->
<g id="Node000016" class="node">
<title>Node16</title>
<g id="a_Node000016"><a xlink:title=" ">
<polygon fill="#e0e0e0" stroke="#999999" points="514.12,-20.75 450.12,-20.75 450.12,0 514.12,0 514.12,-20.75"/>
<text text-anchor="middle" x="482.12" y="-7.25" font-family="Helvetica,sans-Serif" font-size="10.00">stdexcept</text>
</a>
</g>
</g>
<!-- Node15&#45;&gt;Node16 -->
<g id="edge18_Node000015_Node000016" class="edge">
<title>Node15&#45;&gt;Node16</title>
<g id="a_edge18_Node000015_Node000016"><a xlink:title=" ">
<path fill="none" stroke="#63b8ff" d="M482.12,-56.34C482.12,-49.56 482.12,-40.3 482.12,-31.94"/>
<polygon fill="#63b8ff" stroke="#63b8ff" points="485.63,-32.08 482.12,-22.08 478.63,-32.08 485.63,-32.08"/>
</a>
</g>
</g>
<!-- Node20&#45;&gt;Node8 -->
<g id="edge29_Node000020_Node000008" class="edge">
<title>Node20&#45;&gt;Node8</title>
<g id="a_edge29_Node000020_Node000008"><a xlink:title=" ">
<path fill="none" stroke="#63b8ff" d="M668.64,-226.69C671.28,-219.01 674.47,-209.73 677.26,-201.59"/>
<polygon fill="#63b8ff" stroke="#63b8ff" points="680.8,-203.06 680.74,-192.47 674.18,-200.79 680.8,-203.06"/>
</a>
</g>
</g>
<!-- Node20&#45;&gt;Node19 -->
<g id="edge30_Node000020_Node000019" class="edge">
<title>Node20&#45;&gt;Node19</title>
<g id="a_edge30_Node000020_Node000019"><a xlink:title=" ">
<path fill="none" stroke="#63b8ff" d="M639.84,-226.61C607.23,-204 548.33,-163.15 515.96,-140.71"/>
<polygon fill="#63b8ff" stroke="#63b8ff" points="518.42,-137.46 508.2,-134.64 514.43,-143.21 518.42,-137.46"/>
</a>
</g>
</g>
<!-- Node21&#45;&gt;Node5 -->
<g id="edge32_Node000021_Node000005" class="edge">
<title>Node21&#45;&gt;Node5</title>
<g id="a_edge32_Node000021_Node000005"><a xlink:title=" ">
<path fill="none" stroke="#63b8ff" d="M443.92,-170.1C437.75,-143.5 420.26,-68.02 411.81,-31.57"/>
<polygon fill="#63b8ff" stroke="#63b8ff" points="415.07,-31.17 409.41,-22.22 408.26,-32.75 415.07,-31.17"/>
</a>
</g>
</g>
</g>
</svg>
