<?xml version="1.0" encoding="UTF-8" standalone="no"?>
<!DOCTYPE svg PUBLIC "-//W3C//DTD SVG 1.1//EN"
 "http://www.w3.org/Graphics/SVG/1.1/DTD/svg11.dtd">
<!-- Generated by graphviz version 8.1.0 (20230707.0739)
 -->
<!-- Title: paser/Primitive_fact.hpp Pages: 1 -->
<svg width="254pt" height="86pt"
 viewBox="0.00 0.00 253.88 85.50" xmlns="http://www.w3.org/2000/svg" xmlns:xlink="http://www.w3.org/1999/xlink">
<g id="graph0" class="graph" transform="scale(1 1) rotate(0) translate(4 81.5)">
<title>paser/Primitive_fact.hpp</title>
<!-- Node1 -->
<g id="Node000001" class="node">
<title>Node1</title>
<g id="a_Node000001"><a xlink:title=" ">
<polygon fill="#999999" stroke="#666666" points="200.88,-77.5 65.62,-77.5 65.62,-56.75 200.88,-56.75 200.88,-77.5"/>
<text text-anchor="middle" x="133.25" y="-64" font-family="Helvetica,sans-Serif" font-size="10.00">paser/Primitive_fact.hpp</text>
</a>
</g>
</g>
<!-- Node2 -->
<g id="Node000002" class="node">
<title>Node2</title>
<g id="a_Node000002"><a xlink:href="Primitive__fact_8cpp.html" target="_top" xlink:title=" ">
<polygon fill="white" stroke="#666666" points="134.5,-20.75 0,-20.75 0,0 134.5,0 134.5,-20.75"/>
<text text-anchor="middle" x="67.25" y="-7.25" font-family="Helvetica,sans-Serif" font-size="10.00">paser/Primitive_fact.cpp</text>
</a>
</g>
</g>
<!-- Node1&#45;&gt;Node2 -->
<g id="edge1_Node000001_Node000002" class="edge">
<title>Node1&#45;&gt;Node2</title>
<g id="a_edge1_Node000001_Node000002"><a xlink:title=" ">
<path fill="none" stroke="#63b8ff" d="M113.1,-49.41C101.92,-40.13 88.4,-28.92 78.95,-21.08"/>
<polygon fill="#63b8ff" stroke="#63b8ff" points="110.52,-52.65 120.45,-56.34 114.99,-47.26 110.52,-52.65"/>
</a>
</g>
</g>
<!-- Node3 -->
<g id="Node000003" class="node">
<title>Node3</title>
<g id="a_Node000003"><a xlink:href="parse_8cpp.html" target="_top" xlink:title=" ">
<polygon fill="white" stroke="#666666" points="245.88,-20.75 152.62,-20.75 152.62,0 245.88,0 245.88,-20.75"/>
<text text-anchor="middle" x="199.25" y="-7.25" font-family="Helvetica,sans-Serif" font-size="10.00">paser/parse.cpp</text>
</a>
</g>
</g>
<!-- Node1&#45;&gt;Node3 -->
<g id="edge2_Node000001_Node000003" class="edge">
<title>Node1&#45;&gt;Node3</title>
<g id="a_edge2_Node000001_Node000003"><a xlink:title=" ">
<path fill="none" stroke="#63b8ff" d="M153.4,-49.41C164.58,-40.13 178.1,-28.92 187.55,-21.08"/>
<polygon fill="#63b8ff" stroke="#63b8ff" points="151.51,-47.26 146.05,-56.34 155.98,-52.65 151.51,-47.26"/>
</a>
</g>
</g>
</g>
</svg>
