<?xml version="1.0" encoding="UTF-8" standalone="no"?>
<!DOCTYPE svg PUBLIC "-//W3C//DTD SVG 1.1//EN"
 "http://www.w3.org/Graphics/SVG/1.1/DTD/svg11.dtd">
<!-- Generated by graphviz version 8.1.0 (20230707.0739)
 -->
<!-- Title: src/core/helpers/Rectangle3D.hpp Pages: 1 -->
<svg width="172pt" height="155pt"
 viewBox="0.00 0.00 172.12 155.00" xmlns="http://www.w3.org/2000/svg" xmlns:xlink="http://www.w3.org/1999/xlink">
<g id="graph0" class="graph" transform="scale(1 1) rotate(0) translate(4 151)">
<title>src/core/helpers/Rectangle3D.hpp</title>
<!-- Node1 -->
<g id="Node000001" class="node">
<title>Node1</title>
<g id="a_Node000001"><a xlink:title=" ">
<polygon fill="#999999" stroke="#666666" points="151,-147 0,-147 0,-113.5 151,-113.5 151,-147"/>
<text text-anchor="start" x="8" y="-133.5" font-family="Helvetica,sans-Serif" font-size="10.00">src/core/helpers/Rectangle3</text>
<text text-anchor="middle" x="75.5" y="-120.75" font-family="Helvetica,sans-Serif" font-size="10.00">D.hpp</text>
</a>
</g>
</g>
<!-- Node2 -->
<g id="Node000002" class="node">
<title>Node2</title>
<g id="a_Node000002"><a xlink:title=" ">
<polygon fill="#e0e0e0" stroke="#999999" points="70.25,-20.75 10.75,-20.75 10.75,0 70.25,0 70.25,-20.75"/>
<text text-anchor="middle" x="40.5" y="-7.25" font-family="Helvetica,sans-Serif" font-size="10.00">iostream</text>
</a>
</g>
</g>
<!-- Node1&#45;&gt;Node2 -->
<g id="edge1_Node000001_Node000002" class="edge">
<title>Node1&#45;&gt;Node2</title>
<g id="a_edge1_Node000001_Node000002"><a xlink:title=" ">
<path fill="none" stroke="#63b8ff" d="M68.58,-113.15C64.41,-103.04 59.21,-89.66 55.5,-77.5 50.87,-62.33 46.96,-44.81 44.29,-31.61"/>
<polygon fill="#63b8ff" stroke="#63b8ff" points="47.56,-31.05 42.21,-21.91 40.68,-32.39 47.56,-31.05"/>
</a>
</g>
</g>
<!-- Node3 -->
<g id="Node000003" class="node">
<title>Node3</title>
<g id="a_Node000003"><a xlink:href="Math_8hpp.html" target="_top" xlink:title=" ">
<polygon fill="white" stroke="#666666" points="164.12,-77.5 64.88,-77.5 64.88,-56.75 164.12,-56.75 164.12,-77.5"/>
<text text-anchor="middle" x="114.5" y="-64" font-family="Helvetica,sans-Serif" font-size="10.00">../math/Math.hpp</text>
</a>
</g>
</g>
<!-- Node1&#45;&gt;Node3 -->
<g id="edge2_Node000001_Node000003" class="edge">
<title>Node1&#45;&gt;Node3</title>
<g id="a_edge2_Node000001_Node000003"><a xlink:title=" ">
<path fill="none" stroke="#63b8ff" d="M85.75,-113.19C90.87,-105.16 97.11,-95.38 102.46,-86.99"/>
<polygon fill="#63b8ff" stroke="#63b8ff" points="105.79,-89.28 108.22,-78.97 99.89,-85.51 105.79,-89.28"/>
</a>
</g>
</g>
<!-- Node3&#45;&gt;Node2 -->
<g id="edge3_Node000003_Node000002" class="edge">
<title>Node3&#45;&gt;Node2</title>
<g id="a_edge3_Node000003_Node000002"><a xlink:title=" ">
<path fill="none" stroke="#63b8ff" d="M101.27,-56.34C90.43,-48.32 74.87,-36.81 62.21,-27.44"/>
<polygon fill="#63b8ff" stroke="#63b8ff" points="64.74,-24.21 54.62,-21.08 60.57,-29.84 64.74,-24.21"/>
</a>
</g>
</g>
<!-- Node4 -->
<g id="Node000004" class="node">
<title>Node4</title>
<g id="a_Node000004"><a xlink:title=" ">
<polygon fill="#e0e0e0" stroke="#999999" points="137.88,-20.75 91.12,-20.75 91.12,0 137.88,0 137.88,-20.75"/>
<text text-anchor="middle" x="114.5" y="-7.25" font-family="Helvetica,sans-Serif" font-size="10.00">cmath</text>
</a>
</g>
</g>
<!-- Node3&#45;&gt;Node4 -->
<g id="edge4_Node000003_Node000004" class="edge">
<title>Node3&#45;&gt;Node4</title>
<g id="a_edge4_Node000003_Node000004"><a xlink:title=" ">
<path fill="none" stroke="#63b8ff" d="M114.5,-56.34C114.5,-49.56 114.5,-40.3 114.5,-31.94"/>
<polygon fill="#63b8ff" stroke="#63b8ff" points="118,-32.08 114.5,-22.08 111,-32.08 118,-32.08"/>
</a>
</g>
</g>
</g>
</svg>
