<?xml version="1.0" encoding="UTF-8" standalone="no"?>
<!DOCTYPE svg PUBLIC "-//W3C//DTD SVG 1.1//EN"
 "http://www.w3.org/Graphics/SVG/1.1/DTD/svg11.dtd">
<!-- Generated by graphviz version 8.1.0 (20230707.0739)
 -->
<!-- Title: src/core/helpers/World.hpp Pages: 1 -->
<svg width="851pt" height="313pt"
 viewBox="0.00 0.00 851.00 312.50" xmlns="http://www.w3.org/2000/svg" xmlns:xlink="http://www.w3.org/1999/xlink">
<g id="graph0" class="graph" transform="scale(1 1) rotate(0) translate(4 308.5)">
<title>src/core/helpers/World.hpp</title>
<!-- Node1 -->
<g id="Node000001" class="node">
<title>Node1</title>
<g id="a_Node000001"><a xlink:title=" ">
<polygon fill="#999999" stroke="#666666" points="734.88,-304.5 589.88,-304.5 589.88,-283.75 734.88,-283.75 734.88,-304.5"/>
<text text-anchor="middle" x="662.38" y="-291" font-family="Helvetica,sans-Serif" font-size="10.00">src/core/helpers/World.hpp</text>
</a>
</g>
</g>
<!-- Node2 -->
<g id="Node000002" class="node">
<title>Node2</title>
<g id="a_Node000002"><a xlink:href="IPrimitive_8hpp.html" target="_top" xlink:title=" ">
<polygon fill="white" stroke="#666666" points="588.75,-191 434,-191 434,-170.25 588.75,-170.25 588.75,-191"/>
<text text-anchor="middle" x="511.38" y="-177.5" font-family="Helvetica,sans-Serif" font-size="10.00">../../primitives/IPrimitive.hpp</text>
</a>
</g>
</g>
<!-- Node1&#45;&gt;Node2 -->
<g id="edge1_Node000001_Node000002" class="edge">
<title>Node1&#45;&gt;Node2</title>
<g id="a_edge1_Node000001_Node000002"><a xlink:title=" ">
<path fill="none" stroke="#63b8ff" d="M648.04,-283.4C634.78,-274.33 614.58,-260.36 597.38,-247.75 574.74,-231.16 549.31,-211.48 532.02,-197.92"/>
<polygon fill="#63b8ff" stroke="#63b8ff" points="534.8,-194.87 524.77,-191.44 530.47,-200.37 534.8,-194.87"/>
</a>
</g>
</g>
<!-- Node13 -->
<g id="Node000013" class="node">
<title>Node13</title>
<g id="a_Node000013"><a xlink:title=" ">
<polygon fill="#e0e0e0" stroke="#999999" points="46.75,-77.5 0,-77.5 0,-56.75 46.75,-56.75 46.75,-77.5"/>
<text text-anchor="middle" x="23.38" y="-64" font-family="Helvetica,sans-Serif" font-size="10.00">vector</text>
</a>
</g>
</g>
<!-- Node1&#45;&gt;Node13 -->
<g id="edge27_Node000001_Node000013" class="edge">
<title>Node1&#45;&gt;Node13</title>
<g id="a_edge27_Node000001_Node000013"><a xlink:title=" ">
<path fill="none" stroke="#63b8ff" d="M599.09,-283.25C492.87,-264.91 274.01,-219.49 107.38,-134.25 82,-121.27 56.84,-100.07 40.77,-85.18"/>
<polygon fill="#63b8ff" stroke="#63b8ff" points="43.5,-82.99 33.84,-78.65 38.68,-88.07 43.5,-82.99"/>
</a>
</g>
</g>
<!-- Node16 -->
<g id="Node000016" class="node">
<title>Node16</title>
<g id="a_Node000016"><a xlink:href="ILight_8hpp.html" target="_top" xlink:title=" ">
<polygon fill="white" stroke="#666666" points="718.38,-247.75 606.38,-247.75 606.38,-227 718.38,-227 718.38,-247.75"/>
<text text-anchor="middle" x="662.38" y="-234.25" font-family="Helvetica,sans-Serif" font-size="10.00">../../lights/ILight.hpp</text>
</a>
</g>
</g>
<!-- Node1&#45;&gt;Node16 -->
<g id="edge21_Node000001_Node000016" class="edge">
<title>Node1&#45;&gt;Node16</title>
<g id="a_edge21_Node000001_Node000016"><a xlink:title=" ">
<path fill="none" stroke="#63b8ff" d="M657.06,-283.34C655.76,-276.56 655.34,-267.3 655.81,-258.94"/>
<polygon fill="#63b8ff" stroke="#63b8ff" points="659.4,-259.42 657.08,-249.08 652.45,-258.61 659.4,-259.42"/>
</a>
</g>
</g>
<!-- Node17 -->
<g id="Node000017" class="node">
<title>Node17</title>
<g id="a_Node000017"><a xlink:title=" ">
<polygon fill="#e0e0e0" stroke="#999999" points="843,-191 785.75,-191 785.75,-170.25 843,-170.25 843,-191"/>
<text text-anchor="middle" x="814.38" y="-177.5" font-family="Helvetica,sans-Serif" font-size="10.00">memory</text>
</a>
</g>
</g>
<!-- Node1&#45;&gt;Node17 -->
<g id="edge28_Node000001_Node000017" class="edge">
<title>Node1&#45;&gt;Node17</title>
<g id="a_edge28_Node000001_Node000017"><a xlink:title=" ">
<path fill="none" stroke="#63b8ff" d="M676.69,-283.38C689.94,-274.3 710.13,-260.31 727.38,-247.75 750.23,-231.1 775.95,-211.43 793.47,-197.89"/>
<polygon fill="#63b8ff" stroke="#63b8ff" points="795.05,-200.32 800.82,-191.42 790.77,-194.78 795.05,-200.32"/>
</a>
</g>
</g>
<!-- Node18 -->
<g id="Node000018" class="node">
<title>Node18</title>
<g id="a_Node000018"><a xlink:title=" ">
<polygon fill="#e0e0e0" stroke="#999999" points="818.25,-247.75 774.5,-247.75 774.5,-227 818.25,-227 818.25,-247.75"/>
<text text-anchor="middle" x="796.38" y="-234.25" font-family="Helvetica,sans-Serif" font-size="10.00">limits</text>
</a>
</g>
</g>
<!-- Node1&#45;&gt;Node18 -->
<g id="edge29_Node000001_Node000018" class="edge">
<title>Node1&#45;&gt;Node18</title>
<g id="a_edge29_Node000001_Node000018"><a xlink:title=" ">
<path fill="none" stroke="#63b8ff" d="M686.33,-283.34C708.1,-274.44 740.39,-261.25 764.37,-251.45"/>
<polygon fill="#63b8ff" stroke="#63b8ff" points="765.47,-254.37 773.4,-247.35 762.82,-247.89 765.47,-254.37"/>
</a>
</g>
</g>
<!-- Node3 -->
<g id="Node000003" class="node">
<title>Node3</title>
<g id="a_Node000003"><a xlink:href="Color_8hpp.html" target="_top" xlink:title=" ">
<polygon fill="white" stroke="#666666" points="729.25,-134.25 595.5,-134.25 595.5,-113.5 729.25,-113.5 729.25,-134.25"/>
<text text-anchor="middle" x="662.38" y="-120.75" font-family="Helvetica,sans-Serif" font-size="10.00">../core/helpers/Color.hpp</text>
</a>
</g>
</g>
<!-- Node2&#45;&gt;Node3 -->
<g id="edge2_Node000002_Node000003" class="edge">
<title>Node2&#45;&gt;Node3</title>
<g id="a_edge2_Node000002_Node000003"><a xlink:title=" ">
<path fill="none" stroke="#63b8ff" d="M538.37,-169.84C562.56,-161.07 598.27,-148.12 625.16,-138.37"/>
<polygon fill="#63b8ff" stroke="#63b8ff" points="626.15,-141.37 634.36,-134.67 623.76,-134.79 626.15,-141.37"/>
</a>
</g>
</g>
<!-- Node4 -->
<g id="Node000004" class="node">
<title>Node4</title>
<g id="a_Node000004"><a xlink:title=" ">
<polygon fill="#e0e0e0" stroke="#999999" points="541.12,-20.75 481.62,-20.75 481.62,0 541.12,0 541.12,-20.75"/>
<text text-anchor="middle" x="511.38" y="-7.25" font-family="Helvetica,sans-Serif" font-size="10.00">iostream</text>
</a>
</g>
</g>
<!-- Node2&#45;&gt;Node4 -->
<g id="edge18_Node000002_Node000004" class="edge">
<title>Node2&#45;&gt;Node4</title>
<g id="a_edge18_Node000002_Node000004"><a xlink:title=" ">
<path fill="none" stroke="#63b8ff" d="M511.38,-170.1C511.38,-143.62 511.38,-68.68 511.38,-32.05"/>
<polygon fill="#63b8ff" stroke="#63b8ff" points="514.88,-32.22 511.38,-22.22 507.88,-32.22 514.88,-32.22"/>
</a>
</g>
</g>
<!-- Node5 -->
<g id="Node000005" class="node">
<title>Node5</title>
<g id="a_Node000005"><a xlink:href="Ray_8hpp.html" target="_top" xlink:title=" ">
<polygon fill="white" stroke="#666666" points="483.5,-134.25 357.25,-134.25 357.25,-113.5 483.5,-113.5 483.5,-134.25"/>
<text text-anchor="middle" x="420.38" y="-120.75" font-family="Helvetica,sans-Serif" font-size="10.00">../core/helpers/Ray.hpp</text>
</a>
</g>
</g>
<!-- Node2&#45;&gt;Node5 -->
<g id="edge4_Node000002_Node000005" class="edge">
<title>Node2&#45;&gt;Node5</title>
<g id="a_edge4_Node000002_Node000005"><a xlink:title=" ">
<path fill="none" stroke="#63b8ff" d="M495.11,-169.84C481.39,-161.58 461.53,-149.63 445.73,-140.13"/>
<polygon fill="#63b8ff" stroke="#63b8ff" points="447.88,-136.73 437.5,-134.58 444.27,-142.73 447.88,-136.73"/>
</a>
</g>
</g>
<!-- Node6 -->
<g id="Node000006" class="node">
<title>Node6</title>
<g id="a_Node000006"><a xlink:href="Math_8hpp.html" target="_top" xlink:title=" ">
<polygon fill="white" stroke="#666666" points="483,-77.5 383.75,-77.5 383.75,-56.75 483,-56.75 483,-77.5"/>
<text text-anchor="middle" x="433.38" y="-64" font-family="Helvetica,sans-Serif" font-size="10.00">../math/Math.hpp</text>
</a>
</g>
</g>
<!-- Node2&#45;&gt;Node6 -->
<g id="edge8_Node000002_Node000006" class="edge">
<title>Node2&#45;&gt;Node6</title>
<g id="a_edge8_Node000002_Node000006"><a xlink:title=" ">
<path fill="none" stroke="#63b8ff" d="M446.78,-169.8C406.71,-162.23 360.59,-150.33 348.38,-134.25 331.68,-112.28 362.49,-93.66 391.58,-81.83"/>
<polygon fill="#63b8ff" stroke="#63b8ff" points="392.64,-84.79 400.72,-77.94 390.13,-78.26 392.64,-84.79"/>
</a>
</g>
</g>
<!-- Node8 -->
<g id="Node000008" class="node">
<title>Node8</title>
<g id="a_Node000008"><a xlink:href="Matrix_8hpp.html" target="_top" xlink:title=" ">
<polygon fill="white" stroke="#666666" points="301.38,-134.25 171.38,-134.25 171.38,-113.5 301.38,-113.5 301.38,-134.25"/>
<text text-anchor="middle" x="236.38" y="-120.75" font-family="Helvetica,sans-Serif" font-size="10.00">../core/math/Matrix.hpp</text>
</a>
</g>
</g>
<!-- Node2&#45;&gt;Node8 -->
<g id="edge9_Node000002_Node000008" class="edge">
<title>Node2&#45;&gt;Node8</title>
<g id="a_edge9_Node000002_Node000008"><a xlink:title=" ">
<path fill="none" stroke="#63b8ff" d="M461.89,-169.77C415.5,-160.54 346.06,-146.71 296.49,-136.84"/>
<polygon fill="#63b8ff" stroke="#63b8ff" points="297.41,-133.26 286.92,-134.74 296.05,-140.12 297.41,-133.26"/>
</a>
</g>
</g>
<!-- Node2&#45;&gt;Node13 -->
<g id="edge20_Node000002_Node000013" class="edge">
<title>Node2&#45;&gt;Node13</title>
<g id="a_edge20_Node000002_Node000013"><a xlink:title=" ">
<path fill="none" stroke="#63b8ff" d="M433.69,-176.51C361.99,-172.01 253.22,-161.03 162.38,-134.25 120.78,-121.99 76.07,-98.7 48.9,-83.3"/>
<polygon fill="#63b8ff" stroke="#63b8ff" points="50.81,-79.78 40.39,-77.82 47.31,-85.84 50.81,-79.78"/>
</a>
</g>
</g>
<!-- Node15 -->
<g id="Node000015" class="node">
<title>Node15</title>
<g id="a_Node000015"><a xlink:title=" ">
<polygon fill="#e0e0e0" stroke="#999999" points="577.25,-134.25 539.5,-134.25 539.5,-113.5 577.25,-113.5 577.25,-134.25"/>
<text text-anchor="middle" x="558.38" y="-120.75" font-family="Helvetica,sans-Serif" font-size="10.00">map</text>
</a>
</g>
</g>
<!-- Node2&#45;&gt;Node15 -->
<g id="edge19_Node000002_Node000015" class="edge">
<title>Node2&#45;&gt;Node15</title>
<g id="a_edge19_Node000002_Node000015"><a xlink:title=" ">
<path fill="none" stroke="#63b8ff" d="M519.78,-169.84C526.19,-162.36 535.21,-151.86 542.92,-142.88"/>
<polygon fill="#63b8ff" stroke="#63b8ff" points="546.19,-145.45 550.05,-135.58 540.88,-140.89 546.19,-145.45"/>
</a>
</g>
</g>
<!-- Node3&#45;&gt;Node4 -->
<g id="edge3_Node000003_Node000004" class="edge">
<title>Node3&#45;&gt;Node4</title>
<g id="a_edge3_Node000003_Node000004"><a xlink:title=" ">
<path fill="none" stroke="#63b8ff" d="M649.24,-113.18C623.25,-93.98 565.02,-50.99 533.19,-27.48"/>
<polygon fill="#63b8ff" stroke="#63b8ff" points="535.71,-24.26 525.59,-21.13 531.55,-29.89 535.71,-24.26"/>
</a>
</g>
</g>
<!-- Node5&#45;&gt;Node6 -->
<g id="edge5_Node000005_Node000006" class="edge">
<title>Node5&#45;&gt;Node6</title>
<g id="a_edge5_Node000005_Node000006"><a xlink:title=" ">
<path fill="none" stroke="#63b8ff" d="M422.7,-113.09C424.33,-106.24 426.56,-96.84 428.56,-88.4"/>
<polygon fill="#63b8ff" stroke="#63b8ff" points="432.17,-89.37 431.07,-78.83 425.36,-87.75 432.17,-89.37"/>
</a>
</g>
</g>
<!-- Node6&#45;&gt;Node4 -->
<g id="edge6_Node000006_Node000004" class="edge">
<title>Node6&#45;&gt;Node4</title>
<g id="a_edge6_Node000006_Node000004"><a xlink:title=" ">
<path fill="none" stroke="#63b8ff" d="M447.32,-56.34C458.86,-48.24 475.46,-36.58 488.88,-27.17"/>
<polygon fill="#63b8ff" stroke="#63b8ff" points="490.38,-29.69 496.55,-21.08 486.36,-23.96 490.38,-29.69"/>
</a>
</g>
</g>
<!-- Node7 -->
<g id="Node000007" class="node">
<title>Node7</title>
<g id="a_Node000007"><a xlink:title=" ">
<polygon fill="#e0e0e0" stroke="#999999" points="456.75,-20.75 410,-20.75 410,0 456.75,0 456.75,-20.75"/>
<text text-anchor="middle" x="433.38" y="-7.25" font-family="Helvetica,sans-Serif" font-size="10.00">cmath</text>
</a>
</g>
</g>
<!-- Node6&#45;&gt;Node7 -->
<g id="edge7_Node000006_Node000007" class="edge">
<title>Node6&#45;&gt;Node7</title>
<g id="a_edge7_Node000006_Node000007"><a xlink:title=" ">
<path fill="none" stroke="#63b8ff" d="M433.38,-56.34C433.38,-49.56 433.38,-40.3 433.38,-31.94"/>
<polygon fill="#63b8ff" stroke="#63b8ff" points="436.88,-32.08 433.38,-22.08 429.88,-32.08 436.88,-32.08"/>
</a>
</g>
</g>
<!-- Node8&#45;&gt;Node4 -->
<g id="edge15_Node000008_Node000004" class="edge">
<title>Node8&#45;&gt;Node4</title>
<g id="a_edge15_Node000008_Node000004"><a xlink:title=" ">
<path fill="none" stroke="#63b8ff" d="M258.57,-113.15C278.75,-104.21 309.28,-90.41 335.38,-77.5 352.97,-68.79 356.32,-64.48 374.38,-56.75 406,-43.22 443.1,-31.15 470.71,-22.87"/>
<polygon fill="#63b8ff" stroke="#63b8ff" points="471.57,-25.97 480.17,-19.78 469.59,-19.25 471.57,-25.97"/>
</a>
</g>
</g>
<!-- Node8&#45;&gt;Node6 -->
<g id="edge10_Node000008_Node000006" class="edge">
<title>Node8&#45;&gt;Node6</title>
<g id="a_edge10_Node000008_Node000006"><a xlink:title=" ">
<path fill="none" stroke="#63b8ff" d="M271.59,-113.09C303.99,-104.08 352.22,-90.68 387.6,-80.85"/>
<polygon fill="#63b8ff" stroke="#63b8ff" points="388.43,-83.97 397.13,-77.92 386.56,-77.23 388.43,-83.97"/>
</a>
</g>
</g>
<!-- Node9 -->
<g id="Node000009" class="node">
<title>Node9</title>
<g id="a_Node000009"><a xlink:href="Error_8hpp.html" target="_top" xlink:title=" ">
<polygon fill="white" stroke="#666666" points="159.75,-77.5 65,-77.5 65,-56.75 159.75,-56.75 159.75,-77.5"/>
<text text-anchor="middle" x="112.38" y="-64" font-family="Helvetica,sans-Serif" font-size="10.00">../error/Error.hpp</text>
</a>
</g>
</g>
<!-- Node8&#45;&gt;Node9 -->
<g id="edge11_Node000008_Node000009" class="edge">
<title>Node8&#45;&gt;Node9</title>
<g id="a_edge11_Node000008_Node000009"><a xlink:title=" ">
<path fill="none" stroke="#63b8ff" d="M214.21,-113.09C194.72,-104.48 166.14,-91.86 144.21,-82.18"/>
<polygon fill="#63b8ff" stroke="#63b8ff" points="145.91,-78.67 135.35,-77.83 143.09,-85.07 145.91,-78.67"/>
</a>
</g>
</g>
<!-- Node12 -->
<g id="Node000012" class="node">
<title>Node12</title>
<g id="a_Node000012"><a xlink:title=" ">
<polygon fill="#e0e0e0" stroke="#999999" points="259.38,-77.5 177.38,-77.5 177.38,-56.75 259.38,-56.75 259.38,-77.5"/>
<text text-anchor="middle" x="218.38" y="-64" font-family="Helvetica,sans-Serif" font-size="10.00">initializer_list</text>
</a>
</g>
</g>
<!-- Node8&#45;&gt;Node12 -->
<g id="edge14_Node000008_Node000012" class="edge">
<title>Node8&#45;&gt;Node12</title>
<g id="a_edge14_Node000008_Node000012"><a xlink:title=" ">
<path fill="none" stroke="#63b8ff" d="M233.16,-113.09C230.88,-106.16 227.74,-96.62 224.95,-88.11"/>
<polygon fill="#63b8ff" stroke="#63b8ff" points="228.01,-87.24 221.57,-78.83 221.36,-89.42 228.01,-87.24"/>
</a>
</g>
</g>
<!-- Node8&#45;&gt;Node13 -->
<g id="edge16_Node000008_Node000013" class="edge">
<title>Node8&#45;&gt;Node13</title>
<g id="a_edge16_Node000008_Node000013"><a xlink:title=" ">
<path fill="none" stroke="#63b8ff" d="M195.89,-113.04C161.57,-104.61 110.77,-91.96 57.48,-77.74"/>
<polygon fill="#63b8ff" stroke="#63b8ff" points="58.71,-74.18 48.14,-74.97 56.9,-80.94 58.71,-74.18"/>
</a>
</g>
</g>
<!-- Node14 -->
<g id="Node000014" class="node">
<title>Node14</title>
<g id="a_Node000014"><a xlink:title=" ">
<polygon fill="#e0e0e0" stroke="#999999" points="326.88,-77.5 277.88,-77.5 277.88,-56.75 326.88,-56.75 326.88,-77.5"/>
<text text-anchor="middle" x="302.38" y="-64" font-family="Helvetica,sans-Serif" font-size="10.00">format</text>
</a>
</g>
</g>
<!-- Node8&#45;&gt;Node14 -->
<g id="edge17_Node000008_Node000014" class="edge">
<title>Node8&#45;&gt;Node14</title>
<g id="a_edge17_Node000008_Node000014"><a xlink:title=" ">
<path fill="none" stroke="#63b8ff" d="M248.17,-113.09C257.65,-105.22 271.18,-94 282.35,-84.74"/>
<polygon fill="#63b8ff" stroke="#63b8ff" points="284.22,-86.91 289.68,-77.83 279.75,-81.52 284.22,-86.91"/>
</a>
</g>
</g>
<!-- Node10 -->
<g id="Node000010" class="node">
<title>Node10</title>
<g id="a_Node000010"><a xlink:title=" ">
<polygon fill="#e0e0e0" stroke="#999999" points="180.38,-20.75 116.38,-20.75 116.38,0 180.38,0 180.38,-20.75"/>
<text text-anchor="middle" x="148.38" y="-7.25" font-family="Helvetica,sans-Serif" font-size="10.00">stdexcept</text>
</a>
</g>
</g>
<!-- Node9&#45;&gt;Node10 -->
<g id="edge12_Node000009_Node000010" class="edge">
<title>Node9&#45;&gt;Node10</title>
<g id="a_edge12_Node000009_Node000010"><a xlink:title=" ">
<path fill="none" stroke="#63b8ff" d="M118.81,-56.34C123.57,-49.1 130.2,-39.01 135.98,-30.22"/>
<polygon fill="#63b8ff" stroke="#63b8ff" points="139.42,-32.36 141.99,-22.08 133.58,-28.51 139.42,-32.36"/>
</a>
</g>
</g>
<!-- Node11 -->
<g id="Node000011" class="node">
<title>Node11</title>
<g id="a_Node000011"><a xlink:title=" ">
<polygon fill="#e0e0e0" stroke="#999999" points="98.25,-20.75 54.5,-20.75 54.5,0 98.25,0 98.25,-20.75"/>
<text text-anchor="middle" x="76.38" y="-7.25" font-family="Helvetica,sans-Serif" font-size="10.00">string</text>
</a>
</g>
</g>
<!-- Node9&#45;&gt;Node11 -->
<g id="edge13_Node000009_Node000011" class="edge">
<title>Node9&#45;&gt;Node11</title>
<g id="a_edge13_Node000009_Node000011"><a xlink:title=" ">
<path fill="none" stroke="#63b8ff" d="M105.94,-56.34C101.18,-49.1 94.55,-39.01 88.77,-30.22"/>
<polygon fill="#63b8ff" stroke="#63b8ff" points="91.17,-28.51 82.76,-22.08 85.33,-32.36 91.17,-28.51"/>
</a>
</g>
</g>
<!-- Node16&#45;&gt;Node1 -->
<g id="edge25_Node000016_Node000001" class="edge">
<title>Node16&#45;&gt;Node1</title>
<g id="a_edge25_Node000016_Node000001"><a xlink:title=" ">
<path fill="none" stroke="#63b8ff" d="M667.67,-248.08C668.99,-254.83 669.41,-264.09 668.94,-272.46"/>
<polygon fill="#63b8ff" stroke="#63b8ff" points="665.36,-272 667.69,-282.34 672.31,-272.8 665.36,-272"/>
</a>
</g>
</g>
<!-- Node16&#45;&gt;Node2 -->
<g id="edge24_Node000016_Node000002" class="edge">
<title>Node16&#45;&gt;Node2</title>
<g id="a_edge24_Node000016_Node000002"><a xlink:title=" ">
<path fill="none" stroke="#63b8ff" d="M635.38,-226.59C611.19,-217.82 575.48,-204.87 548.59,-195.12"/>
<polygon fill="#63b8ff" stroke="#63b8ff" points="549.99,-191.54 539.39,-191.42 547.6,-198.12 549.99,-191.54"/>
</a>
</g>
</g>
<!-- Node16&#45;&gt;Node3 -->
<g id="edge23_Node000016_Node000003" class="edge">
<title>Node16&#45;&gt;Node3</title>
<g id="a_edge23_Node000016_Node000003"><a xlink:title=" ">
<path fill="none" stroke="#63b8ff" d="M662.38,-226.87C662.38,-208.94 662.38,-169.75 662.38,-145.51"/>
<polygon fill="#63b8ff" stroke="#63b8ff" points="665.88,-145.68 662.38,-135.68 658.88,-145.68 665.88,-145.68"/>
</a>
</g>
</g>
<!-- Node16&#45;&gt;Node4 -->
<g id="edge22_Node000016_Node000004" class="edge">
<title>Node16&#45;&gt;Node4</title>
<g id="a_edge22_Node000016_Node000004"><a xlink:title=" ">
<path fill="none" stroke="#63b8ff" d="M676.46,-226.73C705.13,-205.9 765.34,-155.2 738.38,-113.5 697.19,-49.81 605.77,-25.45 552.37,-16.42"/>
<polygon fill="#63b8ff" stroke="#63b8ff" points="553,-12.82 542.58,-14.72 551.91,-19.74 553,-12.82"/>
</a>
</g>
</g>
<!-- Node16&#45;&gt;Node17 -->
<g id="edge26_Node000016_Node000017" class="edge">
<title>Node16&#45;&gt;Node17</title>
<g id="a_edge26_Node000016_Node000017"><a xlink:title=" ">
<path fill="none" stroke="#63b8ff" d="M689.55,-226.59C713.9,-217.82 749.84,-204.87 776.92,-195.12"/>
<polygon fill="#63b8ff" stroke="#63b8ff" points="777.96,-198.1 786.18,-191.42 775.59,-191.52 777.96,-198.1"/>
</a>
</g>
</g>
</g>
</svg>
