<?xml version="1.0" encoding="UTF-8" standalone="no"?>
<!DOCTYPE svg PUBLIC "-//W3C//DTD SVG 1.1//EN"
 "http://www.w3.org/Graphics/SVG/1.1/DTD/svg11.dtd">
<!-- Generated by graphviz version 8.1.0 (20230707.0739)
 -->
<!-- Title: src/core/helpers/World.hpp Pages: 1 -->
<svg width="638pt" height="408pt"
 viewBox="0.00 0.00 637.88 407.50" xmlns="http://www.w3.org/2000/svg" xmlns:xlink="http://www.w3.org/1999/xlink">
<g id="graph0" class="graph" transform="scale(1 1) rotate(0) translate(4 403.5)">
<title>src/core/helpers/World.hpp</title>
<!-- Node1 -->
<g id="Node000001" class="node">
<title>Node1</title>
<g id="a_Node000001"><a xlink:title=" ">
<polygon fill="#999999" stroke="#666666" points="351,-399.5 206,-399.5 206,-378.75 351,-378.75 351,-399.5"/>
<text text-anchor="middle" x="278.5" y="-386" font-family="Helvetica,sans-Serif" font-size="10.00">src/core/helpers/World.hpp</text>
</a>
</g>
</g>
<!-- Node2 -->
<g id="Node000002" class="node">
<title>Node2</title>
<g id="a_Node000002"><a xlink:href="ILight_8hpp.html" target="_top" xlink:title=" ">
<polygon fill="white" stroke="#666666" points="334.12,-342.75 222.88,-342.75 222.88,-322 334.12,-322 334.12,-342.75"/>
<text text-anchor="middle" x="278.5" y="-329.25" font-family="Helvetica,sans-Serif" font-size="10.00">src/lights/ILight.hpp</text>
</a>
</g>
</g>
<!-- Node1&#45;&gt;Node2 -->
<g id="edge1_Node000001_Node000002" class="edge">
<title>Node1&#45;&gt;Node2</title>
<g id="a_edge1_Node000001_Node000002"><a xlink:title=" ">
<path fill="none" stroke="#63b8ff" d="M271.93,-367.46C271.47,-359.09 271.89,-349.83 273.2,-343.08"/>
<polygon fill="#63b8ff" stroke="#63b8ff" points="268.56,-367.8 273.18,-377.34 275.52,-367 268.56,-367.8"/>
</a>
</g>
</g>
<!-- Node2&#45;&gt;Node1 -->
<g id="edge10_Node000002_Node000001" class="edge">
<title>Node2&#45;&gt;Node1</title>
<g id="a_edge10_Node000002_Node000001"><a xlink:title=" ">
<path fill="none" stroke="#63b8ff" d="M285.06,-353.94C285.53,-362.3 285.12,-371.56 283.82,-378.34"/>
<polygon fill="#63b8ff" stroke="#63b8ff" points="288.43,-353.61 283.8,-344.08 281.48,-354.42 288.43,-353.61"/>
</a>
</g>
</g>
<!-- Node3 -->
<g id="Node000003" class="node">
<title>Node3</title>
<g id="a_Node000003"><a xlink:href="Factory_8hpp.html" target="_top" xlink:title=" ">
<polygon fill="white" stroke="#666666" points="286.12,-216.5 156.88,-216.5 156.88,-183 286.12,-183 286.12,-216.5"/>
<text text-anchor="start" x="164.88" y="-203" font-family="Helvetica,sans-Serif" font-size="10.00">src/core/designPatterns</text>
<text text-anchor="middle" x="221.5" y="-190.25" font-family="Helvetica,sans-Serif" font-size="10.00">/Factory.hpp</text>
</a>
</g>
</g>
<!-- Node2&#45;&gt;Node3 -->
<g id="edge2_Node000002_Node000003" class="edge">
<title>Node2&#45;&gt;Node3</title>
<g id="a_edge2_Node000002_Node000003"><a xlink:title=" ">
<path fill="none" stroke="#63b8ff" d="M275.48,-310.98C272.56,-294.63 267.26,-271.37 258.5,-252.5 252.46,-239.48 243.01,-226.33 235.17,-216.55"/>
<polygon fill="#63b8ff" stroke="#63b8ff" points="272.13,-311.21 277.2,-320.51 279.04,-310.08 272.13,-311.21"/>
</a>
</g>
</g>
<!-- Node11 -->
<g id="Node000011" class="node">
<title>Node11</title>
<g id="a_Node000011"><a xlink:href="DirectionalLight_8hpp.html" target="_top" xlink:title=" ">
<polygon fill="white" stroke="#666666" points="250,-286 111,-286 111,-252.5 250,-252.5 250,-286"/>
<text text-anchor="start" x="119" y="-272.5" font-family="Helvetica,sans-Serif" font-size="10.00">src/lights/directionalLight</text>
<text text-anchor="middle" x="180.5" y="-259.75" font-family="Helvetica,sans-Serif" font-size="10.00">/DirectionalLight.hpp</text>
</a>
</g>
</g>
<!-- Node2&#45;&gt;Node11 -->
<g id="edge11_Node000002_Node000011" class="edge">
<title>Node2&#45;&gt;Node11</title>
<g id="a_edge11_Node000002_Node000011"><a xlink:title=" ">
<path fill="none" stroke="#63b8ff" d="M253.47,-315.77C239.1,-306.8 221.07,-295.55 206.53,-286.48"/>
<polygon fill="#63b8ff" stroke="#63b8ff" points="251.42,-319.23 261.75,-321.55 255.12,-313.29 251.42,-319.23"/>
</a>
</g>
</g>
<!-- Node15 -->
<g id="Node000015" class="node">
<title>Node15</title>
<g id="a_Node000015"><a xlink:href="PointLight_8hpp.html" target="_top" xlink:title=" ">
<polygon fill="white" stroke="#666666" points="418.5,-286 306.5,-286 306.5,-252.5 418.5,-252.5 418.5,-286"/>
<text text-anchor="start" x="314.5" y="-272.5" font-family="Helvetica,sans-Serif" font-size="10.00">src/lights/pointLight</text>
<text text-anchor="middle" x="362.5" y="-259.75" font-family="Helvetica,sans-Serif" font-size="10.00">/PointLight.hpp</text>
</a>
</g>
</g>
<!-- Node2&#45;&gt;Node15 -->
<g id="edge19_Node000002_Node000015" class="edge">
<title>Node2&#45;&gt;Node15</title>
<g id="a_edge19_Node000002_Node000015"><a xlink:title=" ">
<path fill="none" stroke="#63b8ff" d="M300.67,-315.25C312.87,-306.37 327.97,-295.38 340.19,-286.48"/>
<polygon fill="#63b8ff" stroke="#63b8ff" points="299.02,-312.84 293,-321.55 303.14,-318.5 299.02,-312.84"/>
</a>
</g>
</g>
<!-- Node4 -->
<g id="Node000004" class="node">
<title>Node4</title>
<g id="a_Node000004"><a xlink:href="Factory_8cpp.html" target="_top" xlink:title=" ">
<polygon fill="white" stroke="#666666" points="156.12,-147 26.88,-147 26.88,-113.5 156.12,-113.5 156.12,-147"/>
<text text-anchor="start" x="34.88" y="-133.5" font-family="Helvetica,sans-Serif" font-size="10.00">src/core/designPatterns</text>
<text text-anchor="middle" x="91.5" y="-120.75" font-family="Helvetica,sans-Serif" font-size="10.00">/Factory.cpp</text>
</a>
</g>
</g>
<!-- Node3&#45;&gt;Node4 -->
<g id="edge3_Node000003_Node000004" class="edge">
<title>Node3&#45;&gt;Node4</title>
<g id="a_edge3_Node000003_Node000004"><a xlink:title=" ">
<path fill="none" stroke="#63b8ff" d="M180.82,-177.63C161.94,-167.83 139.87,-156.36 122.38,-147.29"/>
<polygon fill="#63b8ff" stroke="#63b8ff" points="178.87,-181.08 189.36,-182.58 182.1,-174.87 178.87,-181.08"/>
</a>
</g>
</g>
<!-- Node5 -->
<g id="Node000005" class="node">
<title>Node5</title>
<g id="a_Node000005"><a xlink:href="src_2core_2scene_2Scene_8hpp.html" target="_top" xlink:title=" ">
<polygon fill="white" stroke="#666666" points="313,-140.62 174,-140.62 174,-119.88 313,-119.88 313,-140.62"/>
<text text-anchor="middle" x="243.5" y="-127.12" font-family="Helvetica,sans-Serif" font-size="10.00">src/core/scene/Scene.hpp</text>
</a>
</g>
</g>
<!-- Node3&#45;&gt;Node5 -->
<g id="edge4_Node000003_Node000005" class="edge">
<title>Node3&#45;&gt;Node5</title>
<g id="a_edge4_Node000003_Node000005"><a xlink:title=" ">
<path fill="none" stroke="#63b8ff" d="M230.12,-172.32C233.69,-161.33 237.63,-149.27 240.3,-141.07"/>
<polygon fill="#63b8ff" stroke="#63b8ff" points="226.48,-171.16 226.71,-181.75 233.14,-173.33 226.48,-171.16"/>
</a>
</g>
</g>
<!-- Node6 -->
<g id="Node000006" class="node">
<title>Node6</title>
<g id="a_Node000006"><a xlink:href="RayTracer_8hpp.html" target="_top" xlink:title=" ">
<polygon fill="white" stroke="#666666" points="565.25,-77.5 439.75,-77.5 439.75,-56.75 565.25,-56.75 565.25,-77.5"/>
<text text-anchor="middle" x="502.5" y="-64" font-family="Helvetica,sans-Serif" font-size="10.00">src/core/RayTracer.hpp</text>
</a>
</g>
</g>
<!-- Node5&#45;&gt;Node6 -->
<g id="edge5_Node000005_Node000006" class="edge">
<title>Node5&#45;&gt;Node6</title>
<g id="a_edge5_Node000005_Node000006"><a xlink:title=" ">
<path fill="none" stroke="#63b8ff" d="M295.75,-116.92C344.44,-105.43 416.1,-88.52 460.99,-77.92"/>
<polygon fill="#63b8ff" stroke="#63b8ff" points="295.04,-113.73 286.11,-119.43 296.65,-120.54 295.04,-113.73"/>
</a>
</g>
</g>
<!-- Node9 -->
<g id="Node000009" class="node">
<title>Node9</title>
<g id="a_Node000009"><a xlink:href="Image_8cpp.html" target="_top" xlink:title="Implémentation des méthodes de la classe Image pour gestion d&#39;image et affichage.">
<polygon fill="white" stroke="#666666" points="411.38,-77.5 271.62,-77.5 271.62,-56.75 411.38,-56.75 411.38,-77.5"/>
<text text-anchor="middle" x="341.5" y="-64" font-family="Helvetica,sans-Serif" font-size="10.00">src/core/scene/Image.cpp</text>
</a>
</g>
</g>
<!-- Node5&#45;&gt;Node9 -->
<g id="edge8_Node000005_Node000009" class="edge">
<title>Node5&#45;&gt;Node9</title>
<g id="a_edge8_Node000005_Node000009"><a xlink:title=" ">
<path fill="none" stroke="#63b8ff" d="M268.09,-113.92C286.18,-102.63 310.23,-87.63 325.79,-77.92"/>
<polygon fill="#63b8ff" stroke="#63b8ff" points="266.88,-111.17 260.25,-119.43 270.58,-117.11 266.88,-111.17"/>
</a>
</g>
</g>
<!-- Node10 -->
<g id="Node000010" class="node">
<title>Node10</title>
<g id="a_Node000010"><a xlink:href="Scene_8cpp.html" target="_top" xlink:title=" ">
<polygon fill="white" stroke="#666666" points="253.62,-77.5 115.38,-77.5 115.38,-56.75 253.62,-56.75 253.62,-77.5"/>
<text text-anchor="middle" x="184.5" y="-64" font-family="Helvetica,sans-Serif" font-size="10.00">src/core/scene/Scene.cpp</text>
</a>
</g>
</g>
<!-- Node5&#45;&gt;Node10 -->
<g id="edge9_Node000005_Node000010" class="edge">
<title>Node5&#45;&gt;Node10</title>
<g id="a_edge9_Node000005_Node000010"><a xlink:title=" ">
<path fill="none" stroke="#63b8ff" d="M226.51,-111.65C215.85,-100.6 202.51,-86.79 193.76,-77.72"/>
<polygon fill="#63b8ff" stroke="#63b8ff" points="223.56,-113.66 233.02,-118.43 228.59,-108.8 223.56,-113.66"/>
</a>
</g>
</g>
<!-- Node7 -->
<g id="Node000007" class="node">
<title>Node7</title>
<g id="a_Node000007"><a xlink:href="Main_8cpp.html" target="_top" xlink:title=" ">
<polygon fill="white" stroke="#666666" points="487.25,-20.75 385.75,-20.75 385.75,0 487.25,0 487.25,-20.75"/>
<text text-anchor="middle" x="436.5" y="-7.25" font-family="Helvetica,sans-Serif" font-size="10.00">src/core/Main.cpp</text>
</a>
</g>
</g>
<!-- Node6&#45;&gt;Node7 -->
<g id="edge6_Node000006_Node000007" class="edge">
<title>Node6&#45;&gt;Node7</title>
<g id="a_edge6_Node000006_Node000007"><a xlink:title=" ">
<path fill="none" stroke="#63b8ff" d="M482.35,-49.41C471.17,-40.13 457.65,-28.92 448.2,-21.08"/>
<polygon fill="#63b8ff" stroke="#63b8ff" points="479.77,-52.65 489.7,-56.34 484.24,-47.26 479.77,-52.65"/>
</a>
</g>
</g>
<!-- Node8 -->
<g id="Node000008" class="node">
<title>Node8</title>
<g id="a_Node000008"><a xlink:href="RayTracer_8cpp.html" target="_top" xlink:title=" ">
<polygon fill="white" stroke="#666666" points="629.88,-20.75 505.12,-20.75 505.12,0 629.88,0 629.88,-20.75"/>
<text text-anchor="middle" x="567.5" y="-7.25" font-family="Helvetica,sans-Serif" font-size="10.00">src/core/RayTracer.cpp</text>
</a>
</g>
</g>
<!-- Node6&#45;&gt;Node8 -->
<g id="edge7_Node000006_Node000008" class="edge">
<title>Node6&#45;&gt;Node8</title>
<g id="a_edge7_Node000006_Node000008"><a xlink:title=" ">
<path fill="none" stroke="#63b8ff" d="M522.34,-49.41C533.36,-40.13 546.67,-28.92 555.98,-21.08"/>
<polygon fill="#63b8ff" stroke="#63b8ff" points="520.51,-47.22 515.12,-56.34 525.02,-52.57 520.51,-47.22"/>
</a>
</g>
</g>
<!-- Node11&#45;&gt;Node3 -->
<g id="edge12_Node000011_Node000003" class="edge">
<title>Node11&#45;&gt;Node3</title>
<g id="a_edge12_Node000011_Node000003"><a xlink:title=" ">
<path fill="none" stroke="#63b8ff" d="M195.78,-243.09C201.17,-234.23 207.06,-224.52 211.85,-216.63"/>
<polygon fill="#63b8ff" stroke="#63b8ff" points="192.42,-240.89 190.22,-251.25 198.4,-244.52 192.42,-240.89"/>
</a>
</g>
</g>
<!-- Node12 -->
<g id="Node000012" class="node">
<title>Node12</title>
<g id="a_Node000012"><a xlink:href="DirectionalLight_8cpp.html" target="_top" xlink:title=" ">
<polygon fill="white" stroke="#666666" points="139,-216.5 0,-216.5 0,-183 139,-183 139,-216.5"/>
<text text-anchor="start" x="8" y="-203" font-family="Helvetica,sans-Serif" font-size="10.00">src/lights/directionalLight</text>
<text text-anchor="middle" x="69.5" y="-190.25" font-family="Helvetica,sans-Serif" font-size="10.00">/DirectionalLight.cpp</text>
</a>
</g>
</g>
<!-- Node11&#45;&gt;Node12 -->
<g id="edge13_Node000011_Node000012" class="edge">
<title>Node11&#45;&gt;Node12</title>
<g id="a_edge13_Node000011_Node000012"><a xlink:title=" ">
<path fill="none" stroke="#63b8ff" d="M144.88,-246.59C128.96,-236.91 110.52,-225.7 95.87,-216.79"/>
<polygon fill="#63b8ff" stroke="#63b8ff" points="142.55,-249.88 152.91,-252.08 146.19,-243.9 142.55,-249.88"/>
</a>
</g>
</g>
<!-- Node13 -->
<g id="Node000013" class="node">
<title>Node13</title>
<g id="a_Node000013"><a xlink:href="Parser_8hpp.html" target="_top" xlink:title=" ">
<polygon fill="white" stroke="#666666" points="421.12,-210.12 303.88,-210.12 303.88,-189.38 421.12,-189.38 421.12,-210.12"/>
<text text-anchor="middle" x="362.5" y="-196.62" font-family="Helvetica,sans-Serif" font-size="10.00">src/parser/Parser.hpp</text>
</a>
</g>
</g>
<!-- Node11&#45;&gt;Node13 -->
<g id="edge14_Node000011_Node000013" class="edge">
<title>Node11&#45;&gt;Node13</title>
<g id="a_edge14_Node000011_Node000013"><a xlink:title=" ">
<path fill="none" stroke="#63b8ff" d="M234.2,-248.34C267.68,-235.92 309.3,-220.48 335.89,-210.62"/>
<polygon fill="#63b8ff" stroke="#63b8ff" points="233.25,-245.32 225.09,-252.08 235.69,-251.89 233.25,-245.32"/>
</a>
</g>
</g>
<!-- Node13&#45;&gt;Node5 -->
<g id="edge17_Node000013_Node000005" class="edge">
<title>Node13&#45;&gt;Node5</title>
<g id="a_edge17_Node000013_Node000005"><a xlink:title=" ">
<path fill="none" stroke="#63b8ff" d="M335.71,-183.55C312.8,-170.56 280.49,-152.23 260.82,-141.08"/>
<polygon fill="#63b8ff" stroke="#63b8ff" points="333.77,-187.05 344.2,-188.93 337.23,-180.96 333.77,-187.05"/>
</a>
</g>
</g>
<!-- Node13&#45;&gt;Node6 -->
<g id="edge15_Node000013_Node000006" class="edge">
<title>Node13&#45;&gt;Node6</title>
<g id="a_edge15_Node000013_Node000006"><a xlink:title=" ">
<path fill="none" stroke="#63b8ff" d="M410.09,-185.79C443.4,-175.71 483.79,-161.11 494.5,-147 510.06,-126.5 507.16,-93.86 504.46,-77.76"/>
<polygon fill="#63b8ff" stroke="#63b8ff" points="409.17,-182.71 400.57,-188.9 411.15,-189.42 409.17,-182.71"/>
</a>
</g>
</g>
<!-- Node13&#45;&gt;Node9 -->
<g id="edge16_Node000013_Node000009" class="edge">
<title>Node13&#45;&gt;Node9</title>
<g id="a_edge16_Node000013_Node000009"><a xlink:title=" ">
<path fill="none" stroke="#63b8ff" d="M359.19,-178.16C354.58,-149.5 346.43,-98.76 343.04,-77.7"/>
<polygon fill="#63b8ff" stroke="#63b8ff" points="355.88,-178.61 360.92,-187.93 362.79,-177.5 355.88,-178.61"/>
</a>
</g>
</g>
<!-- Node14 -->
<g id="Node000014" class="node">
<title>Node14</title>
<g id="a_Node000014"><a xlink:href="Parser_8cpp.html" target="_top" xlink:title="Implémentation des fonctions de parsing des configurations pour la caméra, primitives,...">
<polygon fill="white" stroke="#666666" points="485.75,-140.62 369.25,-140.62 369.25,-119.88 485.75,-119.88 485.75,-140.62"/>
<text text-anchor="middle" x="427.5" y="-127.12" font-family="Helvetica,sans-Serif" font-size="10.00">src/parser/Parser.cpp</text>
</a>
</g>
</g>
<!-- Node13&#45;&gt;Node14 -->
<g id="edge18_Node000013_Node000014" class="edge">
<title>Node13&#45;&gt;Node14</title>
<g id="a_edge18_Node000013_Node000014"><a xlink:title=" ">
<path fill="none" stroke="#63b8ff" d="M379.27,-181.34C391.66,-168.47 408.08,-151.42 418.2,-140.9"/>
<polygon fill="#63b8ff" stroke="#63b8ff" points="377.23,-178.45 372.81,-188.08 382.27,-183.3 377.23,-178.45"/>
</a>
</g>
</g>
<!-- Node15&#45;&gt;Node3 -->
<g id="edge20_Node000015_Node000003" class="edge">
<title>Node15&#45;&gt;Node3</title>
<g id="a_edge20_Node000015_Node000003"><a xlink:title=" ">
<path fill="none" stroke="#63b8ff" d="M318.94,-247.4C298.34,-237.54 274.13,-225.95 255,-216.79"/>
<polygon fill="#63b8ff" stroke="#63b8ff" points="317.2,-250.92 327.73,-252.08 320.22,-244.61 317.2,-250.92"/>
</a>
</g>
</g>
<!-- Node15&#45;&gt;Node13 -->
<g id="edge22_Node000015_Node000013" class="edge">
<title>Node15&#45;&gt;Node13</title>
<g id="a_edge22_Node000015_Node000013"><a xlink:title=" ">
<path fill="none" stroke="#63b8ff" d="M362.5,-241.47C362.5,-230.58 362.5,-218.68 362.5,-210.57"/>
<polygon fill="#63b8ff" stroke="#63b8ff" points="359,-241.25 362.5,-251.25 366,-241.25 359,-241.25"/>
</a>
</g>
</g>
<!-- Node16 -->
<g id="Node000016" class="node">
<title>Node16</title>
<g id="a_Node000016"><a xlink:href="PointLight_8cpp.html" target="_top" xlink:title=" ">
<polygon fill="white" stroke="#666666" points="551.5,-216.5 439.5,-216.5 439.5,-183 551.5,-183 551.5,-216.5"/>
<text text-anchor="start" x="447.5" y="-203" font-family="Helvetica,sans-Serif" font-size="10.00">src/lights/pointLight</text>
<text text-anchor="middle" x="495.5" y="-190.25" font-family="Helvetica,sans-Serif" font-size="10.00">/PointLight.cpp</text>
</a>
</g>
</g>
<!-- Node15&#45;&gt;Node16 -->
<g id="edge21_Node000015_Node000016" class="edge">
<title>Node15&#45;&gt;Node16</title>
<g id="a_edge21_Node000015_Node000016"><a xlink:title=" ">
<path fill="none" stroke="#63b8ff" d="M404.12,-247.13C423.43,-237.33 446.02,-225.86 463.9,-216.79"/>
<polygon fill="#63b8ff" stroke="#63b8ff" points="402.69,-244.44 395.36,-252.08 405.86,-250.68 402.69,-244.44"/>
</a>
</g>
</g>
</g>
</svg>
